<?xml version="1.0" encoding="UTF-8" standalone="no"?>
<!-- Created with Inkscape (http://www.inkscape.org/) -->
<svg
   xmlns:dc="http://purl.org/dc/elements/1.1/"
   xmlns:cc="http://creativecommons.org/ns#"
   xmlns:rdf="http://www.w3.org/1999/02/22-rdf-syntax-ns#"
   xmlns:svg="http://www.w3.org/2000/svg"
   xmlns="http://www.w3.org/2000/svg"
   xmlns:xlink="http://www.w3.org/1999/xlink"
   xmlns:sodipodi="http://sodipodi.sourceforge.net/DTD/sodipodi-0.dtd"
   xmlns:inkscape="http://www.inkscape.org/namespaces/inkscape"
   width="256"
   height="256"
   id="svg2"
   sodipodi:version="0.32"
   inkscape:version="0.46"
   version="1.0"
   inkscape:export-filename="face-uncertain.png"
   inkscape:export-xdpi="90"
   inkscape:export-ydpi="90"
   sodipodi:docname="face-uncertain.svgz"
   inkscape:output_extension="org.inkscape.output.svgz.inkscape">
  <defs
     id="defs4">
    <linearGradient
       inkscape:collect="always"
       id="linearGradient3414">
      <stop
         style="stop-color:#c69700;stop-opacity:1;"
         offset="0"
         id="stop3416" />
      <stop
         style="stop-color:#c69700;stop-opacity:0;"
         offset="1"
         id="stop3418" />
    </linearGradient>
    <linearGradient
       inkscape:collect="always"
       id="linearGradient4445">
      <stop
         style="stop-color:#382509;stop-opacity:1;"
         offset="0"
         id="stop4447" />
      <stop
         style="stop-color:#382509;stop-opacity:0;"
         offset="1"
         id="stop4449" />
    </linearGradient>
    <linearGradient
       inkscape:collect="always"
       id="linearGradient4412">
      <stop
         style="stop-color:#590000;stop-opacity:1;"
         offset="0"
         id="stop4414" />
      <stop
         style="stop-color:#191104;stop-opacity:1"
         offset="1"
         id="stop4416" />
    </linearGradient>
    <linearGradient
       inkscape:collect="always"
       id="linearGradient3879">
      <stop
         style="stop-color:#4d2600;stop-opacity:1"
         offset="0"
         id="stop3881" />
      <stop
         style="stop-color:#000000;stop-opacity:1"
         offset="1"
         id="stop3883" />
    </linearGradient>
    <inkscape:perspective
       sodipodi:type="inkscape:persp3d"
       inkscape:vp_x="0 : 128 : 1"
       inkscape:vp_y="0 : 1000 : 0"
       inkscape:vp_z="256 : 128 : 1"
       inkscape:persp3d-origin="128 : 85.333333 : 1"
       id="perspective54" />
    <linearGradient
       inkscape:collect="always"
       id="linearGradient3420">
      <stop
         style="stop-color:#ffffff;stop-opacity:1;"
         offset="0"
         id="stop3422" />
      <stop
         style="stop-color:#ffffff;stop-opacity:0;"
         offset="1"
         id="stop3424" />
    </linearGradient>
    <linearGradient
       inkscape:collect="always"
       id="linearGradient3350">
      <stop
         style="stop-color:#ffffff;stop-opacity:1;"
         offset="0"
         id="stop3352" />
      <stop
         style="stop-color:#ffffff;stop-opacity:0;"
         offset="1"
         id="stop3354" />
    </linearGradient>
    <linearGradient
       id="linearGradient3157">
      <stop
         style="stop-color:#fff290;stop-opacity:1"
         offset="0"
         id="stop3159" />
      <stop
         id="stop3178"
         offset="0.5999999"
         style="stop-color:#fed611;stop-opacity:1" />
      <stop
         style="stop-color:#f9c820;stop-opacity:1"
         offset="0.83999991"
         id="stop3180" />
      <stop
         id="stop3182"
         offset="0.91999996"
         style="stop-color:#f4a222;stop-opacity:1" />
      <stop
         style="stop-color:#d98b15;stop-opacity:1"
         offset="1"
         id="stop3161" />
    </linearGradient>
    <radialGradient
       inkscape:collect="always"
       xlink:href="#linearGradient3157"
       id="radialGradient3196"
       cx="70"
       cy="70"
       fx="70"
       fy="32.5"
       r="54"
       gradientUnits="userSpaceOnUse"
       gradientTransform="translate(-4.5000002e-6,-1.0137567e-6)" />
    <filter
       inkscape:collect="always"
       id="filter3255">
      <feGaussianBlur
         inkscape:collect="always"
         stdDeviation="1.1"
         id="feGaussianBlur3257" />
    </filter>
    <filter
       inkscape:collect="always"
       id="filter3282">
      <feGaussianBlur
         inkscape:collect="always"
         stdDeviation="2.16"
         id="feGaussianBlur3284" />
    </filter>
    <clipPath
       clipPathUnits="userSpaceOnUse"
       id="clipPath3327">
      <path
         transform="matrix(1.8518517,0,0,1.8518517,-1.6296136,-5.6296246)"
         d="M 124,70 A 54,54 0 1 1 16,70 A 54,54 0 1 1 124,70 z"
         sodipodi:ry="54"
         sodipodi:rx="54"
         sodipodi:cy="70"
         sodipodi:cx="70"
         id="path3329"
         style="opacity:1;fill:#ffffff;fill-opacity:1;stroke:none;stroke-width:0.80000001;stroke-linecap:round;stroke-linejoin:round;stroke-miterlimit:4;stroke-dasharray:none;stroke-opacity:1"
         sodipodi:type="arc" />
    </clipPath>
    <filter
       inkscape:collect="always"
       id="filter3338">
      <feGaussianBlur
         inkscape:collect="always"
         stdDeviation="3.1999998"
         id="feGaussianBlur3340" />
    </filter>
    <radialGradient
       inkscape:collect="always"
       xlink:href="#linearGradient3350"
       id="radialGradient3356"
       cx="128"
       cy="-2.6666651"
       fx="128"
       fy="-2.6666651"
       r="99.999999"
       gradientTransform="matrix(1.6885793,0,0,1.0131476,-88.138148,34.701725)"
       gradientUnits="userSpaceOnUse" />
    <clipPath
       clipPathUnits="userSpaceOnUse"
       id="clipPath3371">
      <path
         transform="matrix(1.851852,0,0,1.851852,-1.6296317,-5.6296427)"
         d="M 124,70 A 54,54 0 1 1 16,70 A 54,54 0 1 1 124,70 z"
         sodipodi:ry="54"
         sodipodi:rx="54"
         sodipodi:cy="70"
         sodipodi:cx="70"
         id="path3373"
         style="opacity:1;fill:#ffffff;fill-opacity:1;stroke:none;stroke-width:0.80000001;stroke-linecap:round;stroke-linejoin:round;stroke-miterlimit:4;stroke-dasharray:none;stroke-opacity:1"
         sodipodi:type="arc" />
    </clipPath>
    <filter
       inkscape:collect="always"
       id="filter3406">
      <feGaussianBlur
         inkscape:collect="always"
         stdDeviation="3.0000001"
         id="feGaussianBlur3408" />
    </filter>
    <filter
       inkscape:collect="always"
       id="filter3414">
      <feGaussianBlur
         inkscape:collect="always"
         stdDeviation="6.0000002"
         id="feGaussianBlur3416" />
    </filter>
    <radialGradient
       inkscape:collect="always"
       xlink:href="#linearGradient3420"
       id="radialGradient3426"
       cx="70"
       cy="70"
       fx="70"
       fy="70"
       r="54"
       gradientUnits="userSpaceOnUse"
       gradientTransform="matrix(1.4447581,0.1160208,-0.2610466,1.4447582,-12.859807,-39.254529)" />
    <filter
       inkscape:collect="always"
       id="filter3448"
       x="-0.31875732"
       width="1.6375146"
       y="-0.36402777"
       height="1.7280555">
      <feGaussianBlur
         inkscape:collect="always"
         stdDeviation="15.666565"
         id="feGaussianBlur3450" />
    </filter>
    <radialGradient
       inkscape:collect="always"
       xlink:href="#linearGradient3350"
       id="radialGradient3472"
       gradientUnits="userSpaceOnUse"
       gradientTransform="matrix(1.6885793,0,0,1.0131476,-88.138148,34.701725)"
       cx="128"
       cy="-2.6666651"
       fx="128"
       fy="-2.6666651"
       r="99.999999" />
    <radialGradient
       inkscape:collect="always"
       xlink:href="#linearGradient3420"
       id="radialGradient3474"
       gradientUnits="userSpaceOnUse"
       gradientTransform="matrix(1.4447581,0.1160208,-0.2610466,1.4447582,-12.859807,-39.254529)"
       cx="70"
       cy="70"
       fx="70"
       fy="70"
       r="54" />
    <filter
       inkscape:collect="always"
       id="filter4206"
       x="-0.34392491"
       width="1.6878498"
       y="-0.47348566"
       height="1.9469713">
      <feGaussianBlur
         inkscape:collect="always"
         stdDeviation="1.8002319"
         id="feGaussianBlur4208" />
    </filter>
    <filter
       inkscape:collect="always"
       id="filter4248"
       x="-0.13745129"
       width="1.2749026"
       y="-0.027490258"
       height="1.0549805">
      <feGaussianBlur
         inkscape:collect="always"
         stdDeviation="0.45817097"
         id="feGaussianBlur4250" />
    </filter>
    <radialGradient
       inkscape:collect="always"
       xlink:href="#linearGradient4412"
       id="radialGradient4428"
       cx="127.98151"
       cy="215.57565"
       fx="127.98151"
       fy="215.57565"
       r="64.806676"
       gradientTransform="matrix(1,0,0,0.320543,0,104.44105)"
       gradientUnits="userSpaceOnUse" />
    <radialGradient
       inkscape:collect="always"
       xlink:href="#linearGradient4445"
       id="radialGradient4451"
       cx="64"
       cy="133"
       fx="61.5"
       fy="129"
       r="7"
       gradientUnits="userSpaceOnUse" />
    <radialGradient
       inkscape:collect="always"
       xlink:href="#linearGradient4445"
       id="radialGradient4455"
       gradientUnits="userSpaceOnUse"
       cx="64"
       cy="133"
       fx="61.5"
       fy="129"
       r="7" />
    <radialGradient
       inkscape:collect="always"
       xlink:href="#linearGradient3879"
       id="radialGradient3242"
       gradientUnits="userSpaceOnUse"
       gradientTransform="matrix(1.1990521,0,0,5,-26.274882,-544)"
       cx="132"
       cy="136"
       fx="132"
       fy="133.37546"
       r="4" />
    <linearGradient
       inkscape:collect="always"
       xlink:href="#linearGradient3420"
       id="linearGradient3244"
       gradientUnits="userSpaceOnUse"
       x1="130.10919"
       y1="116"
       x2="130.10919"
       y2="162.64206" />
    <radialGradient
       inkscape:collect="always"
       xlink:href="#linearGradient4412"
       id="radialGradient3406"
       gradientUnits="userSpaceOnUse"
       gradientTransform="matrix(0.9923211,-0.1236884,9.1963743e-3,7.3780207e-2,12.722497,165.68446)"
       cx="117.27664"
       cy="123.23544"
       fx="117.27664"
       fy="123.23544"
       r="48" />
    <radialGradient
       inkscape:collect="always"
       xlink:href="#linearGradient3414"
       id="radialGradient3420"
       cx="155.5"
       cy="150.53224"
       fx="155.5"
       fy="150.53224"
       r="20.5"
       gradientTransform="matrix(1.9789721,0,0,0.7722819,-152.23017,42.746674)"
       gradientUnits="userSpaceOnUse" />
    <radialGradient
       inkscape:collect="always"
       xlink:href="#linearGradient4445"
       id="radialGradient3528"
       cx="176.35188"
       cy="155.58755"
       fx="176.94109"
       fy="152.34697"
       r="4"
       gradientUnits="userSpaceOnUse" />
    <radialGradient
       inkscape:collect="always"
       xlink:href="#linearGradient4445"
       id="radialGradient3532"
       gradientUnits="userSpaceOnUse"
       cx="176.35188"
       cy="155.58755"
       fx="176.94109"
       fy="152.34697"
       r="4" />
    <filter
       inkscape:collect="always"
       id="filter3550"
       x="-0.1332553"
       width="1.2665106"
       y="-0.33649659"
       height="1.6729932">
      <feGaussianBlur
         inkscape:collect="always"
         stdDeviation="2.2720379"
         id="feGaussianBlur3552" />
    </filter>
  </defs>
  <sodipodi:namedview
     id="base"
     pagecolor="#ffffff"
     bordercolor="#666666"
     borderopacity="1.0"
     gridtolerance="10000"
     guidetolerance="10"
     objecttolerance="10"
     inkscape:pageopacity="0.0"
     inkscape:pageshadow="2"
     inkscape:zoom="1"
     inkscape:cx="184.5"
     inkscape:cy="95"
     inkscape:document-units="px"
     inkscape:current-layer="layer1"
     showgrid="false"
     inkscape:snap-bbox="true"
     inkscape:window-width="802"
     inkscape:window-height="730"
     inkscape:window-x="0"
     inkscape:window-y="0"
     showborder="true">
    <inkscape:grid
       type="xygrid"
       id="grid2383"
       visible="true"
       enabled="true"
       empspacing="4"
       spacingx="4px"
       spacingy="4px" />
  </sodipodi:namedview>
  <metadata
     id="metadata7">
    <rdf:RDF>
      <cc:Work
         rdf:about="">
        <dc:format>image/svg+xml</dc:format>
        <dc:type
           rdf:resource="http://purl.org/dc/dcmitype/StillImage" />
      </cc:Work>
    </rdf:RDF>
  </metadata>
  <g
     inkscape:label="Layer 1"
     inkscape:groupmode="layer"
     id="layer1">
    <g
       id="g4354">
      <path
         sodipodi:type="arc"
         style="opacity:1;fill:#000000;fill-opacity:1;stroke:none;stroke-width:2;stroke-linecap:round;stroke-linejoin:round;stroke-miterlimit:4;stroke-dasharray:none;stroke-opacity:1;filter:url(#filter3255)"
         id="path3245"
         sodipodi:cx="70"
         sodipodi:cy="70"
         sodipodi:rx="54"
         sodipodi:ry="54"
         d="M 124,70 A 54,54 0 1 1 16,70 A 54,54 0 1 1 124,70 z"
         transform="matrix(1.9673186,0,0,1.9673186,-9.7123014,-10.072502)" />
      <path
         sodipodi:type="arc"
         style="opacity:1;fill:#ffbf00;fill-opacity:1;stroke:none;stroke-width:0.80000000999999998;stroke-linecap:round;stroke-linejoin:round;stroke-miterlimit:4;stroke-dasharray:none;stroke-opacity:1;filter:url(#filter3282)"
         id="path3276"
         sodipodi:cx="70"
         sodipodi:cy="70"
         sodipodi:rx="54"
         sodipodi:ry="54"
         d="M 124,70 A 54,54 0 1 1 16,70 A 54,54 0 1 1 124,70 z"
         transform="matrix(1.9999999,0,0,1.9999999,-11.999986,-15.999997)" />
      <path
         transform="matrix(1.9999999,0,0,1.9999999,-11.999993,-15.999998)"
         d="M 124,70 A 54,54 0 1 1 16,70 A 54,54 0 1 1 124,70 z"
         sodipodi:ry="54"
         sodipodi:rx="54"
         sodipodi:cy="70"
         sodipodi:cx="70"
         id="path2385"
         style="opacity:1;fill:url(#radialGradient3196);fill-opacity:1;stroke:none;stroke-width:0.80000001;stroke-linecap:round;stroke-linejoin:round;stroke-miterlimit:4;stroke-dasharray:none;stroke-opacity:1"
         sodipodi:type="arc" />
      <g
         style="filter:url(#filter3338)"
         id="g3331">
        <path
           style="opacity:1;fill:url(#radialGradient3356);fill-opacity:1;stroke:none;stroke-width:0.80000000999999998;stroke-linecap:round;stroke-linejoin:round;stroke-miterlimit:4;stroke-dasharray:none;stroke-opacity:1"
           d="M 128 24 C 72.800005 24 28.000001 68.800003 28 124 C 28 124.46768 28.024839 124.94009 28.03125 125.40625 C 55.920317 137.08854 90.518213 144 128 144 C 165.48179 144 200.07968 137.08854 227.96875 125.40625 C 227.97516 124.94009 228 124.46768 228 124 C 228 68.800005 183.2 23.999999 128 24 z "
           id="path3299"
           clip-path="url(#clipPath3327)" />
      </g>
      <g
         style="filter:url(#filter3406)"
         id="g3399">
        <path
           style="opacity:1;fill:#ffffff;fill-opacity:1;stroke:none;stroke-width:0.80000000999999998;stroke-linecap:round;stroke-linejoin:round;stroke-miterlimit:4;stroke-dasharray:none;stroke-opacity:1;filter:url(#filter3414)"
           d="M 128 24 C 72.799996 24 28 68.799993 28 124 C 28 124.35326 27.996339 124.7101 28 125.0625 C 28.586039 78.022429 73.16436 40 128 40 C 182.83563 40 227.41396 78.022429 228 125.0625 C 228.00366 124.7101 228 124.35326 228 124 C 228 68.799996 183.2 24.000001 128 24 z M 29.15625 139.09375 C 36.443114 187.1371 77.932665 224 128 224 C 178.06733 224 219.55689 187.1371 226.84375 139.09375 C 219.50525 180.35983 178.025 212 128 212 C 77.97499 212 36.494751 180.35983 29.15625 139.09375 z "
           id="path3362"
           clip-path="url(#clipPath3371)" />
      </g>
      <path
         sodipodi:type="arc"
         style="opacity:1;fill:url(#radialGradient3426);fill-opacity:1;stroke:none;stroke-width:0.80000001;stroke-linecap:round;stroke-linejoin:round;stroke-miterlimit:4;stroke-dasharray:none;stroke-opacity:1;filter:url(#filter3448)"
         id="path3418"
         sodipodi:cx="70"
         sodipodi:cy="70"
         sodipodi:rx="54"
         sodipodi:ry="54"
         d="M 124,70 A 54,54 0 1 1 16,70 A 54,54 0 1 1 124,70 z"
         transform="matrix(0.2012495,8.5970649e-2,-0.1289559,0.3018741,51.93946,54.85086)" />
      <path
         transform="matrix(-0.2012495,8.5970649e-2,0.1289559,0.3018741,204.06055,54.85086)"
         d="M 124,70 A 54,54 0 1 1 16,70 A 54,54 0 1 1 124,70 z"
         sodipodi:ry="54"
         sodipodi:rx="54"
         sodipodi:cy="70"
         sodipodi:cx="70"
         id="path3470"
         style="opacity:1;fill:url(#radialGradient3474);fill-opacity:1;stroke:none;stroke-width:0.80000001;stroke-linecap:round;stroke-linejoin:round;stroke-miterlimit:4;stroke-dasharray:none;stroke-opacity:1;filter:url(#filter3448)"
         sodipodi:type="arc" />
    </g>
    <g
       id="g4337">
      <g
         transform="matrix(1.125,0,0,1.1666667,-13,-18.66667)"
         id="g3092">
        <path
           transform="matrix(1.9975231,0,0,0.6769804,-159.67303,10.073531)"
           d="M 136,136 A 4,20 0 1 1 128,136 A 4,20 0 1 1 136,136 z"
           sodipodi:ry="20"
           sodipodi:rx="4"
           sodipodi:cy="136"
           sodipodi:cx="132"
           id="path4282"
           style="opacity:1;fill:#ffffff;fill-opacity:1;stroke:none;stroke-width:4;stroke-linecap:round;stroke-linejoin:round;stroke-miterlimit:4;stroke-dasharray:none;stroke-opacity:1;filter:url(#filter4248)"
           sodipodi:type="arc" />
        <path
           sodipodi:type="arc"
           style="opacity:1;fill:#000000;fill-opacity:1;stroke:none;stroke-width:4;stroke-linecap:round;stroke-linejoin:round;stroke-miterlimit:4;stroke-dasharray:none;stroke-opacity:1;filter:url(#filter4248)"
           id="path4218"
           sodipodi:cx="132"
           sodipodi:cy="136"
           sodipodi:rx="4"
           sodipodi:ry="20"
           d="M 136,136 A 4,20 0 1 1 128,136 A 4,20 0 1 1 136,136 z"
           transform="matrix(2.1137441,0,0,0.6341232,-175.01422,12.044958)" />
        <path
           transform="matrix(2,0,0,0.6,-160,18.4)"
           d="M 136,136 A 4,20 0 1 1 128,136 A 4,20 0 1 1 136,136 z"
           sodipodi:ry="20"
           sodipodi:rx="4"
           sodipodi:cy="136"
           sodipodi:cx="132"
           id="path3097"
           style="opacity:1;fill:url(#radialGradient3242);fill-opacity:1;stroke:none;stroke-width:4;stroke-linecap:round;stroke-linejoin:round;stroke-miterlimit:4;stroke-dasharray:none;stroke-opacity:1"
           sodipodi:type="arc" />
        <path
           sodipodi:type="arc"
           style="opacity:1;fill:url(#linearGradient3244);fill-opacity:1;stroke:none;stroke-width:4;stroke-linecap:round;stroke-linejoin:round;stroke-miterlimit:4;stroke-dasharray:none;stroke-opacity:1"
           id="path3973"
           sodipodi:cx="132"
           sodipodi:cy="136"
           sodipodi:rx="4"
           sodipodi:ry="20"
           d="M 136,136 A 4,20 0 1 1 128,136 A 4,20 0 1 1 136,136 z"
           transform="matrix(0.9017904,0,0,0.2161928,-15.036338,63.459555)" />
        <path
           id="path4055"
           transform="matrix(0.7431694,0,0,0.5048923,25.967215,54.823876)"
           d="M 98.71875,99.875 C 98.947567,104.97167 101.66572,109 105,109 C 108.33428,109 111.05243,104.97167 111.28125,99.875 C 110.1419,102.30607 107.76547,104 105,104 C 102.23453,104 99.858098,102.30607 98.71875,99.875 z"
           style="opacity:0.67460315;fill:#ffd500;fill-opacity:1;stroke:none;stroke-width:4;stroke-linecap:round;stroke-linejoin:round;stroke-miterlimit:4;stroke-dasharray:none;stroke-opacity:1;filter:url(#filter4206)" />
      </g>
      <use
         height="256"
         width="256"
         transform="translate(48,0)"
         id="use3095"
         xlink:href="#g3092"
         y="0"
         x="0" />
    </g>
    <g
       id="g3246"
       transform="matrix(0.9990513,4.3548974e-2,-4.3548974e-2,0.9990513,-2.2173118,-6.0194286)">
      <path
         sodipodi:nodetypes="ccccccczz"
         id="path3408"
         d="M 148.71111,151.57565 C 136.19628,153.98252 121.05798,163.41345 106.34164,166.67046 C 102.92876,167.22495 99.435462,167.08645 96.027944,166.56409 C 96.302996,168.71561 101.02755,167.42275 102.99427,167.9497 C 113.75717,167.63761 123.36217,162.20352 133.25278,158.5865 C 141.60542,155.24859 150.42133,152.55794 159.5101,152.7788 C 167.99881,152.52769 176.73512,152.21708 184.90096,154.95269 C 186.92362,152.78983 185.77896,153.7933 179.99306,152.44374 C 174.20717,151.09418 161.22593,149.16878 148.71111,151.57565 z"
         style="opacity:1;fill:#ffffff;fill-opacity:1;stroke:none;stroke-width:0;stroke-linecap:square;stroke-linejoin:miter;stroke-miterlimit:4;stroke-dasharray:none;stroke-opacity:1" />
      <path
         style="opacity:1;fill:url(#radialGradient3406);fill-opacity:1;stroke:none;stroke-width:0;stroke-linecap:square;stroke-linejoin:miter;stroke-miterlimit:4;stroke-dasharray:none;stroke-opacity:1"
         d="M 148.66757,149.07659 C 136.15274,151.48346 121.01444,160.91439 106.2981,164.1714 C 102.88522,164.72589 99.435462,165.58645 96.027944,165.06409 C 96.302996,167.21561 101.02755,165.92275 102.99427,166.4497 C 113.75717,166.13761 123.36217,160.70352 133.25278,157.0865 C 141.60542,153.74859 150.42133,151.05794 159.5101,151.2788 C 167.99881,151.02769 176.73512,150.71708 184.90096,153.45269 C 186.92362,151.28983 185.73542,151.29424 179.94952,149.94468 C 174.16363,148.59512 161.18239,146.66972 148.66757,149.07659 z"
         id="path3233"
         sodipodi:nodetypes="ccccccczz" />
      <path
         sodipodi:type="arc"
         style="opacity:0.58796296;fill:url(#radialGradient3420);fill-opacity:1;stroke:none;stroke-width:8;stroke-linecap:square;stroke-linejoin:round;stroke-miterlimit:4;stroke-dasharray:none;stroke-opacity:1;filter:url(#filter3550)"
         id="path3412"
         sodipodi:cx="155.5"
         sodipodi:cy="167"
         sodipodi:rx="20.5"
         sodipodi:ry="8"
         d="M 176,167 A 20.5,8 0 1 1 135,167 A 20.5,8 0 1 1 176,167 z"
         transform="matrix(1.1634913,-0.1300026,0.1300026,1.1634913,-46.093934,-9.3632173)" />
    </g>
    <path
       sodipodi:type="arc"
       style="opacity:1;fill:url(#radialGradient3528);fill-opacity:0.86602873;stroke:none;stroke-width:8;stroke-linecap:square;stroke-linejoin:round;stroke-miterlimit:4;stroke-dasharray:none;stroke-opacity:1"
       id="path3526"
       sodipodi:cx="177"
       sodipodi:cy="156"
       sodipodi:rx="4"
       sodipodi:ry="4"
       d="M 181,156 A 4,4 0 1 1 173,156 A 4,4 0 1 1 181,156 z"
       transform="matrix(0.75,0,0,0.75,42.75,38)" />
    <path
       transform="matrix(-0.75,0,0,0.75,221.21584,47.351643)"
       d="M 181,156 A 4,4 0 1 1 173,156 A 4,4 0 1 1 181,156 z"
       sodipodi:ry="4"
       sodipodi:rx="4"
       sodipodi:cy="156"
       sodipodi:cx="177"
       id="path3530"
       style="opacity:1;fill:url(#radialGradient3532);fill-opacity:0.86602873;stroke:none;stroke-width:8;stroke-linecap:square;stroke-linejoin:round;stroke-miterlimit:4;stroke-dasharray:none;stroke-opacity:1"
       sodipodi:type="arc" />
  </g>
</svg>
