<?xml version="1.0" encoding="UTF-8" standalone="no"?>
<!-- Created with Inkscape (http://www.inkscape.org/) -->
<svg
   xmlns:dc="http://purl.org/dc/elements/1.1/"
   xmlns:cc="http://web.resource.org/cc/"
   xmlns:rdf="http://www.w3.org/1999/02/22-rdf-syntax-ns#"
   xmlns:svg="http://www.w3.org/2000/svg"
   xmlns="http://www.w3.org/2000/svg"
   xmlns:xlink="http://www.w3.org/1999/xlink"
   xmlns:sodipodi="http://sodipodi.sourceforge.net/DTD/sodipodi-0.dtd"
   xmlns:inkscape="http://www.inkscape.org/namespaces/inkscape"
   width="128"
   height="128"
   id="svg9002"
   sodipodi:version="0.32"
   inkscape:version="0.45+devel"
   version="1.0"
   sodipodi:docname="contact-new.svgz"
   inkscape:output_extension="org.inkscape.output.svgz.inkscape"
   inkscape:export-filename="/Users/david/Progetti/Open Source/sandbox/cards/contact-new-128.png"
   inkscape:export-xdpi="90"
   inkscape:export-ydpi="90">
  <defs
     id="defs9004"><filter
   inkscape:collect="always"
   id="filter3574"
   x="-0.17129332"
   y="-0.074019866"
   width="1.3425866"
   height="1.1480397">
  <feGaussianBlur
     inkscape:collect="always"
     id="feGaussianBlur3576"
     stdDeviation="0.57604943" />
</filter>
<linearGradient
   inkscape:collect="always"
   id="linearGradient3586">
  <stop
     offset="0"
     id="stop3588"
     style="stop-color:#000000;stop-opacity:1;" />
  <stop
     offset="1"
     id="stop3590"
     style="stop-color:#000000;stop-opacity:0;" />
</linearGradient>
<linearGradient
   inkscape:collect="always"
   xlink:href="#linearGradient3586"
   id="linearGradient8994"
   gradientUnits="userSpaceOnUse"
   gradientTransform="translate(-372.5,-324.5)"
   x1="313.74829"
   y1="444.45746"
   x2="305.67725"
   y2="463.13513" />
<linearGradient
   inkscape:collect="always"
   id="linearGradient3578">
  <stop
     offset="0"
     id="stop3580"
     style="stop-color:#c8cddc;stop-opacity:1;" />
  <stop
     offset="1"
     id="stop3582"
     style="stop-color:#c8cddc;stop-opacity:0;" />
</linearGradient>
<linearGradient
   inkscape:collect="always"
   xlink:href="#linearGradient3578"
   id="linearGradient8992"
   gradientUnits="userSpaceOnUse"
   gradientTransform="translate(-372.5,-324.5)"
   x1="313.74829"
   y1="444.45746"
   x2="305.67725"
   y2="463.13513" />
<linearGradient
   id="linearGradient8882"
   inkscape:collect="always">
  <stop
     style="stop-color:#f9ccca;stop-opacity:1"
     id="stop8884"
     offset="0" />
  <stop
     style="stop-color:#c8cddc;stop-opacity:0;"
     id="stop8886"
     offset="1" />
</linearGradient>
<linearGradient
   inkscape:collect="always"
   xlink:href="#linearGradient8882"
   id="linearGradient8990"
   gradientUnits="userSpaceOnUse"
   x1="284.67853"
   y1="460.62231"
   x2="299.28384"
   y2="441.53894" />
<linearGradient
   id="linearGradient8894"
   inkscape:collect="always">
  <stop
     style="stop-color:#f9ccca;stop-opacity:1"
     id="stop8896"
     offset="0" />
  <stop
     style="stop-color:#bbc1d4;stop-opacity:0;"
     id="stop8898"
     offset="1" />
</linearGradient>
<linearGradient
   inkscape:collect="always"
   xlink:href="#linearGradient8894"
   id="linearGradient8988"
   gradientUnits="userSpaceOnUse"
   gradientTransform="translate(58.5,26.5)"
   x1="315.72318"
   y1="453.0892"
   x2="290.62091"
   y2="434.35086" />
<filter
   inkscape:collect="always"
   id="filter3339"
   x="-0.083255699"
   y="-0.42668505"
   width="1.1665114"
   height="1.8533701">
  <feGaussianBlur
     inkscape:collect="always"
     id="feGaussianBlur3341"
     stdDeviation="0.50285367" />
</filter>
<linearGradient
   id="linearGradient8900"
   inkscape:collect="always">
  <stop
     style="stop-color:#f9ccca;stop-opacity:1"
     id="stop8902"
     offset="0" />
  <stop
     style="stop-color:#bbc1d4;stop-opacity:0;"
     id="stop8904"
     offset="1" />
</linearGradient>
<linearGradient
   inkscape:collect="always"
   xlink:href="#linearGradient8900"
   id="linearGradient8986"
   gradientUnits="userSpaceOnUse"
   gradientTransform="translate(-372.5,-324.5)"
   x1="315.72318"
   y1="453.0892"
   x2="290.62091"
   y2="434.35086" />
<filter
   inkscape:collect="always"
   id="filter3283"
   x="-0.020813678"
   y="-0.13193184"
   width="1.0416274"
   height="1.2638637">
  <feGaussianBlur
     inkscape:collect="always"
     id="feGaussianBlur3285"
     stdDeviation="0.60896269" />
</filter>
<clipPath
   id="clipPath3289"
   clipPathUnits="userSpaceOnUse">
  <path
     d="M 463.75,435.375 C 462.47221,435.58506 461.71617,436.60113 461.75,437.375 C 461.67075,437.40672 460.87251,438.49769 460.79289,438.52941 C 462.04491,442.53121 465.95016,446.80149 477.54289,446.49816 C 489.04307,446.19726 493.45299,441.22873 494.71875,437.5625 C 494.5676,437.5025 494.39985,437.43497 494.25,437.375 C 494.28383,436.60113 493.52779,435.58506 492.25,435.375 C 489.83637,439.11764 488.24281,442.77637 478,443.0625 C 467.75719,443.34864 464.63251,439.11371 463.75,435.375 z M 459.125,438.40625 C 453.68198,440.50508 447.66707,442.67009 441.90625,445.28125 C 447.80188,443.05208 453.52791,442.11601 458.76072,440.15441 C 458.75013,439.92745 459.01107,438.6493 459.125,438.40625 z M 497.46875,438.625 C 497.52198,438.79302 497.56984,438.93659 497.5625,439.09375 C 501.77057,440.67121 506.39991,442.24968 511.125,443.96875 C 506.49146,442.00962 501.81994,440.29346 497.46875,438.625 z "
     id="path3291"
     style="fill:#f4f5f8;fill-opacity:1;fill-rule:evenodd;stroke:#98a2bf;stroke-width:1px;stroke-linecap:butt;stroke-linejoin:miter;stroke-opacity:1;filter:url(#filter3283)"
     sodipodi:nodetypes="cccscccsccccccccc" />
</clipPath>
<filter
   inkscape:collect="always"
   id="filter3393">
  <feGaussianBlur
     inkscape:collect="always"
     id="feGaussianBlur3395"
     stdDeviation="0.49977699" />
</filter>
<linearGradient
   inkscape:collect="always"
   id="linearGradient4126">
  <stop
     offset="0"
     id="stop4128"
     style="stop-color:#ffffff;stop-opacity:1;" />
  <stop
     offset="1"
     id="stop4130"
     style="stop-color:#ffffff;stop-opacity:0;" />
</linearGradient>
<linearGradient
   inkscape:collect="always"
   xlink:href="#linearGradient4126"
   id="linearGradient8984"
   gradientUnits="userSpaceOnUse"
   gradientTransform="translate(-372.5,-324.5)"
   x1="326"
   y1="476.40894"
   x2="310.53195"
   y2="429.73987" />
<filter
   inkscape:collect="always"
   id="filter4059">
  <feGaussianBlur
     inkscape:collect="always"
     id="feGaussianBlur4061"
     stdDeviation="1.5449742" />
</filter>
<clipPath
   id="clipPath4063"
   clipPathUnits="userSpaceOnUse">
  <path
     id="path4065"
     d="M 410.16587,443.06739 C 399.92306,443.35352 396.79838,439.11371 395.91587,435.375 C 394.63808,435.58506 393.88204,436.60113 393.91587,437.375 C 386.83254,440.20988 378.26803,443.06735 370.66587,446.875 C 367.84405,448.28835 364.62926,452.59537 363.79087,454.875 C 361.23389,461.82756 358.41587,471.625 358.41587,471.625 L 359.91587,473.375 C 375.56063,482.28715 396.79503,481.875 410.16587,481.875 C 423.53671,481.875 444.77111,482.28715 460.41587,473.375 L 461.91587,471.625 C 461.91587,471.625 459.09785,461.82756 456.54087,454.875 C 455.70248,452.59537 452.48769,448.28835 449.66587,446.875 C 442.06371,443.06735 433.4992,440.20988 426.41587,437.375 C 426.4497,436.60113 425.69366,435.58506 424.41587,435.375 C 422.00224,439.11764 420.40868,442.78126 410.16587,443.06739 z "
     style="fill:#f4f5f8;fill-opacity:1;fill-rule:evenodd;stroke:none;stroke-width:1px;stroke-linecap:butt;stroke-linejoin:miter;stroke-opacity:1"
     sodipodi:nodetypes="cccssccsccssccz" />
</clipPath>
<linearGradient
   id="linearGradient8914"
   inkscape:collect="always">
  <stop
     style="stop-color:#9c0f0f;stop-opacity:1"
     id="stop8916"
     offset="0" />
  <stop
     style="stop-color:#8d97b7;stop-opacity:0;"
     id="stop8918"
     offset="1" />
</linearGradient>
<linearGradient
   inkscape:collect="always"
   xlink:href="#linearGradient8914"
   id="linearGradient8982"
   gradientUnits="userSpaceOnUse"
   x1="414.41586"
   y1="458.62646"
   x2="461.90625"
   y2="458.62648" />
<filter
   inkscape:collect="always"
   id="filter3493">
  <feGaussianBlur
     inkscape:collect="always"
     id="feGaussianBlur3495"
     stdDeviation="1.105682" />
</filter>
<linearGradient
   id="linearGradient8888"
   inkscape:collect="always">
  <stop
     style="stop-color:#f9ccca;stop-opacity:1"
     id="stop8890"
     offset="0" />
  <stop
     style="stop-color:#c8cddc;stop-opacity:0;"
     id="stop8892"
     offset="1" />
</linearGradient>
<linearGradient
   inkscape:collect="always"
   xlink:href="#linearGradient8888"
   id="linearGradient8980"
   gradientUnits="userSpaceOnUse"
   gradientTransform="translate(-372.5,-324.5)"
   x1="283.50647"
   y1="463.03894"
   x2="312.78384"
   y2="443.03894" />
<linearGradient
   inkscape:collect="always"
   id="linearGradient8906">
  <stop
     style="stop-color:#bf0303;stop-opacity:1"
     offset="0"
     id="stop8908" />
  <stop
     style="stop-color:#f08682;stop-opacity:1"
     offset="1"
     id="stop8910" />
</linearGradient>
<linearGradient
   inkscape:collect="always"
   xlink:href="#linearGradient8906"
   id="linearGradient8978"
   gradientUnits="userSpaceOnUse"
   x1="52.461521"
   y1="127.04261"
   x2="60.561855"
   y2="86.540939" />
<filter
   inkscape:collect="always"
   id="filter3775"
   x="-0.18809821"
   y="-0.059054089"
   width="1.3761964"
   height="1.1181082">
  <feGaussianBlur
     inkscape:collect="always"
     id="feGaussianBlur3777"
     stdDeviation="0.26451311" />
</filter>
<linearGradient
   id="linearGradient3733">
  <stop
     offset="0"
     id="stop3735"
     style="stop-color:#e2e2e2;stop-opacity:1;" />
  <stop
     offset="1"
     id="stop3737"
     style="stop-color:#ffffff;stop-opacity:1;" />
</linearGradient>
<linearGradient
   inkscape:collect="always"
   xlink:href="#linearGradient3733"
   id="linearGradient8976"
   gradientUnits="userSpaceOnUse"
   gradientTransform="matrix(0.5366445,0,0,1.8634309,-372.5,-324.5)"
   x1="563.64667"
   y1="214.96599"
   x2="568.9887"
   y2="214.96599" />
<filter
   inkscape:collect="always"
   id="filter3569"
   x="-0.1148592"
   y="-0.086798316"
   width="1.2297184"
   height="1.1735966">
  <feGaussianBlur
     inkscape:collect="always"
     id="feGaussianBlur3571"
     stdDeviation="0.6238629" />
</filter>
<linearGradient
   inkscape:collect="always"
   id="linearGradient3581">
  <stop
     offset="0"
     id="stop3583"
     style="stop-color:#dfcbba;stop-opacity:1;" />
  <stop
     offset="1"
     id="stop3585"
     style="stop-color:#dfcbba;stop-opacity:0;" />
</linearGradient>
<linearGradient
   inkscape:collect="always"
   xlink:href="#linearGradient3581"
   id="linearGradient8974"
   gradientUnits="userSpaceOnUse"
   gradientTransform="translate(-372.5,-324.5)"
   x1="353.44516"
   y1="390.86218"
   x2="339.76785"
   y2="373.61218" />
<filter
   inkscape:collect="always"
   id="filter3625">
  <feGaussianBlur
     inkscape:collect="always"
     id="feGaussianBlur3627"
     stdDeviation="0.34264273" />
</filter>
<linearGradient
   inkscape:collect="always"
   id="linearGradient3499">
  <stop
     offset="0"
     id="stop3501"
     style="stop-color:#ffffff;stop-opacity:1;" />
  <stop
     offset="1"
     id="stop3503"
     style="stop-color:#ffffff;stop-opacity:0;" />
</linearGradient>
<linearGradient
   inkscape:collect="always"
   xlink:href="#linearGradient3499"
   id="linearGradient8972"
   gradientUnits="userSpaceOnUse"
   gradientTransform="translate(-372.5,-324.5)"
   x1="330.09335"
   y1="407.39011"
   x2="320.36423"
   y2="367.39182" />
<filter
   inkscape:collect="always"
   id="filter3479"
   x="-0.028506439"
   y="-0.10615479"
   width="1.0570129"
   height="1.2123096">
  <feGaussianBlur
     inkscape:collect="always"
     id="feGaussianBlur3481"
     stdDeviation="0.4439284" />
</filter>
<linearGradient
   inkscape:collect="always"
   id="linearGradient3489">
  <stop
     offset="0"
     id="stop3491"
     style="stop-color:#765c44;stop-opacity:1;" />
  <stop
     offset="1"
     id="stop3493"
     style="stop-color:#765c44;stop-opacity:0;" />
</linearGradient>
<linearGradient
   inkscape:collect="always"
   xlink:href="#linearGradient3489"
   id="linearGradient8970"
   gradientUnits="userSpaceOnUse"
   x1="304.88664"
   y1="385.86126"
   x2="345.62039"
   y2="384.62384" />
<linearGradient
   inkscape:collect="always"
   id="linearGradient3368">
  <stop
     offset="0"
     id="stop3370"
     style="stop-color:#e5d3c3;stop-opacity:1;" />
  <stop
     offset="1"
     id="stop3372"
     style="stop-color:#e5d3c3;stop-opacity:0;" />
</linearGradient>
<radialGradient
   inkscape:collect="always"
   xlink:href="#linearGradient3368"
   id="radialGradient8968"
   gradientUnits="userSpaceOnUse"
   gradientTransform="matrix(-0.7020433,-0.1106778,8.3859807e-2,-0.5312371,265.2384,247.24451)"
   cx="332.49338"
   cy="369.61789"
   fx="332.49338"
   fy="369.61789"
   r="22.779817" />
<filter
   inkscape:collect="always"
   id="filter3420">
  <feGaussianBlur
     inkscape:collect="always"
     id="feGaussianBlur3422"
     stdDeviation="1.110954" />
</filter>
<clipPath
   id="clipPath3429"
   clipPathUnits="userSpaceOnUse">
  <path
     id="path3431"
     d="M 303.70236,398.81874 L 303.52558,385.56049 L 306.17724,378.31265 L 311.48054,376.54488 L 319.96582,379.19653 L 327.39044,380.61074 L 334.63828,376.89843 L 339.94158,376.89843 L 343.65389,382.02496 L 345.59844,390.15668 L 345.42166,395.45998 L 345.77521,397.40453 L 337.99704,382.37851 L 328.4511,386.09082 L 321.55681,386.2676 L 311.12698,381.31785 L 303.70236,398.81874 z "
     style="fill:none;fill-opacity:0.75;fill-rule:evenodd;stroke:#000000;stroke-width:1px;stroke-linecap:butt;stroke-linejoin:miter;stroke-opacity:1" />
</clipPath>
<linearGradient
   inkscape:collect="always"
   id="linearGradient3433">
  <stop
     offset="0"
     id="stop3435"
     style="stop-color:#ffffff;stop-opacity:1;" />
  <stop
     offset="1"
     id="stop3437"
     style="stop-color:#ffffff;stop-opacity:0;" />
</linearGradient>
<linearGradient
   inkscape:collect="always"
   xlink:href="#linearGradient3433"
   id="linearGradient8966"
   gradientUnits="userSpaceOnUse"
   x1="324.65039"
   y1="398.85446"
   x2="325.7691"
   y2="370.57019" />
<radialGradient
   inkscape:collect="always"
   xlink:href="#linearGradient3837"
   id="radialGradient8964"
   gradientUnits="userSpaceOnUse"
   gradientTransform="matrix(1,0,0,2.5768702,-372.5,-950.79699)"
   cx="303.71943"
   cy="397.17727"
   fx="303.71943"
   fy="397.17727"
   r="0.79621875" />
<filter
   inkscape:collect="always"
   id="filter3833"
   x="-0.15930008"
   y="-0.071685554"
   width="1.3186002"
   height="1.1433711">
  <feGaussianBlur
     inkscape:collect="always"
     id="feGaussianBlur3835"
     stdDeviation="0.10560268" />
</filter>
<linearGradient
   inkscape:collect="always"
   id="linearGradient3837">
  <stop
     offset="0"
     id="stop3839"
     style="stop-color:#f1e4d4;stop-opacity:1;" />
  <stop
     offset="1"
     id="stop3841"
     style="stop-color:#f1e4d4;stop-opacity:0;" />
</linearGradient>
<radialGradient
   inkscape:collect="always"
   xlink:href="#linearGradient3837"
   id="radialGradient8962"
   gradientUnits="userSpaceOnUse"
   gradientTransform="matrix(1,0,0,2.5768702,43.133514,-626.29699)"
   cx="303.71943"
   cy="397.17727"
   fx="303.71943"
   fy="397.17727"
   r="0.79621875" />
<filter
   inkscape:collect="always"
   id="filter3325">
  <feGaussianBlur
     inkscape:collect="always"
     id="feGaussianBlur3327"
     stdDeviation="0.16076312" />
</filter>
<linearGradient
   inkscape:collect="always"
   id="linearGradient3329">
  <stop
     offset="0"
     id="stop3331"
     style="stop-color:#f9eee2;stop-opacity:1;" />
  <stop
     offset="1"
     id="stop3333"
     style="stop-color:#f9eee2;stop-opacity:0;" />
</linearGradient>
<linearGradient
   inkscape:collect="always"
   xlink:href="#linearGradient3329"
   id="linearGradient8960"
   gradientUnits="userSpaceOnUse"
   gradientTransform="translate(-372.5,-324.5)"
   x1="317.01251"
   y1="431.1243"
   x2="331.42062"
   y2="418.65884" />
<mask
   id="mask3287"
   maskUnits="userSpaceOnUse">
  <path
     id="path3289"
     d="M 412.56716,362.7206 C 404.7906,362.9256 395.78945,368.58113 392.66091,375.5331 C 389.47419,382.61431 389.9381,391.06936 391.84841,400.8456 C 393.75873,410.62183 400.03668,420.79216 403.22341,424.4706 C 406.24381,427.95705 410.11265,427.32692 412.56716,427.25185 C 412.69296,427.25185 412.8695,427.24772 413.00466,427.25185 C 415.45917,427.32692 419.32801,427.95705 422.34841,424.4706 C 425.53514,420.79216 431.81309,410.62183 433.72341,400.8456 C 435.63374,391.06936 436.09763,382.61431 432.91091,375.5331 C 429.78236,368.58113 420.78122,362.9256 413.00466,362.7206 L 412.56716,362.7206 z "
     style="opacity:1;fill:url(#radialGradient3291);fill-opacity:1;fill-rule:evenodd;stroke:none;stroke-width:1px;stroke-linecap:butt;stroke-linejoin:miter;stroke-opacity:1"
     sodipodi:nodetypes="csssssssscc" />
</mask>
<linearGradient
   id="linearGradient3163">
  <stop
     offset="0"
     id="stop3165"
     style="stop-color:#fff5e4;stop-opacity:1;" />
  <stop
     offset="0.25"
     id="stop3173"
     style="stop-color:#ffecd0;stop-opacity:1;" />
  <stop
     offset="0.5"
     id="stop3171"
     style="stop-color:#ffd390;stop-opacity:1;" />
  <stop
     offset="1"
     id="stop3167"
     style="stop-color:#ffc46a;stop-opacity:1;" />
</linearGradient>
<linearGradient
   inkscape:collect="always"
   xlink:href="#linearGradient3163"
   id="linearGradient8958"
   gradientUnits="userSpaceOnUse"
   x1="412.78592"
   y1="400.84558"
   x2="412.78592"
   y2="422.63611" />
<linearGradient
   id="linearGradient3149-735">
  <stop
     offset="0"
     id="stop5584"
     style="stop-color:#faf0e4;stop-opacity:1;" />
  <stop
     offset="0.591133"
     id="stop5586"
     style="stop-color:#f8e7d4;stop-opacity:1;" />
  <stop
     offset="1"
     id="stop5588"
     style="stop-color:#f1cfa9;stop-opacity:1;" />
</linearGradient>
<radialGradient
   inkscape:collect="always"
   xlink:href="#linearGradient3149-735"
   id="radialGradient8956"
   gradientUnits="userSpaceOnUse"
   gradientTransform="matrix(1.0059645,0,0,1.4472234,-271.44676,-535.35257)"
   cx="324.39757"
   cy="396.09259"
   fx="330.04404"
   fy="392.75388"
   r="22.444886" />
<filter
   inkscape:collect="always"
   id="filter3694">
  <feGaussianBlur
     inkscape:collect="always"
     id="feGaussianBlur3696"
     stdDeviation="1.640636" />
</filter>
<clipPath
   id="clipPath3705"
   clipPathUnits="userSpaceOnUse">
  <path
     d="M 341.25,409.625 C 339.73679,416.82736 335.50876,433.0214 340.75,436.875 C 340.10353,443.87478 333.6714,446.51892 325.75,448.0625 L 324.25,448.0625 C 316.3286,446.51892 309.89647,443.87478 309.25,436.875 C 314.49124,433.0214 310.26321,416.82736 308.75,409.625 L 325,417.03125 L 341.25,409.625 z "
     id="path3707"
     style="opacity:0.74906365;fill:url(#radialGradient3709);fill-opacity:1;fill-rule:evenodd;stroke:none;stroke-width:1px;stroke-linecap:butt;stroke-linejoin:miter;stroke-opacity:1"
     sodipodi:nodetypes="cccccccc" />
</clipPath>
<radialGradient
   inkscape:collect="always"
   xlink:href="#linearGradient3654"
   id="radialGradient8954"
   gradientUnits="userSpaceOnUse"
   gradientTransform="matrix(-0.696437,0,0,1.188967,285.63744,-439.0428)"
   cx="312"
   cy="431.38034"
   fx="311.27777"
   fy="433.70554"
   r="16.25" />
<linearGradient
   id="linearGradient3654">
  <stop
     offset="0"
     id="stop3656"
     style="stop-color:#f9ede0;stop-opacity:1;" />
  <stop
     offset="0.5"
     id="stop3670"
     style="stop-color:#f9ede0;stop-opacity:0.80575538;" />
  <stop
     offset="1"
     id="stop3658"
     style="stop-color:#f9ede0;stop-opacity:0;" />
</linearGradient>
<radialGradient
   inkscape:collect="always"
   xlink:href="#linearGradient3654"
   id="radialGradient8952"
   gradientUnits="userSpaceOnUse"
   gradientTransform="matrix(0.696437,0,0,1.188967,-175.09425,-439.0428)"
   cx="312"
   cy="431.38034"
   fx="311.27777"
   fy="433.70554"
   r="16.25" />
<filter
   inkscape:collect="always"
   id="filter3624">
  <feGaussianBlur
     inkscape:collect="always"
     id="feGaussianBlur3626"
     stdDeviation="1.1236176" />
</filter>
<filter
   inkscape:collect="always"
   x="-0.10290141"
   width="1.2058028"
   y="-0.089966137"
   height="1.1799323"
   id="filter8878">
  <feGaussianBlur
     inkscape:collect="always"
     stdDeviation="1.7150235"
     id="feGaussianBlur8880" />
</filter>
<clipPath
   clipPathUnits="userSpaceOnUse"
   id="clipPath8998">
  <rect
     id="rect9000"
     height="45.767651"
     width="38.139709"
     y="9.4719219"
     x="7.9999995"
     style="fill:#ff00bf" />
</clipPath>
<linearGradient
   id="XMLID_5_"
   gradientUnits="userSpaceOnUse"
   x1="28"
   y1="56"
   x2="28"
   y2="8.0005"
   gradientTransform="translate(0,1)">
	<stop
   offset="0"
   style="stop-color:#A4C0E4"
   id="stop8163" />

	<stop
   offset="1"
   style="stop-color:#6193CF"
   id="stop8165" />

</linearGradient>
<linearGradient
   id="linearGradient8707">
  <stop
     style="stop-color:#ffffff;stop-opacity:0;"
     offset="0"
     id="stop8709" />
  <stop
     style="stop-color:#ffffff;stop-opacity:1;"
     offset="1"
     id="stop8711" />
</linearGradient>
<linearGradient
   id="XMLID_2_"
   gradientUnits="userSpaceOnUse"
   x1="75.737198"
   y1="-17.413694"
   x2="75.7372"
   y2="69.5504"
   gradientTransform="translate(0,1)">
	<stop
   offset="0"
   style="stop-color:#FFFFFF"
   id="stop8154" />

	<stop
   offset="0.73608381"
   style="stop-color:#ffffff;stop-opacity:0;"
   id="stop8156" />

</linearGradient>
<radialGradient
   id="path5692_2_"
   cx="-5.314"
   cy="654.0664"
   r="20.3231"
   gradientTransform="matrix(0.4137,-0.5587,0.499,0.3694,-218.5837,-230.0567)"
   gradientUnits="userSpaceOnUse">
	<stop
   offset="0"
   style="stop-color:#2C72C7"
   id="stop8148" />

	<stop
   offset="1"
   style="stop-color:#6193CF"
   id="stop8150" />

</radialGradient>
<linearGradient
   y2="70"
   x2="60.0005"
   y1="72"
   x1="60.0005"
   gradientUnits="userSpaceOnUse"
   id="XMLID_14_">
		<stop
   id="stop8131"
   style="stop-color:#BBBBBB"
   offset="0" />

		<stop
   id="stop8133"
   style="stop-color:#555555"
   offset="1" />

	</linearGradient>
<linearGradient
   y2="-35.0556"
   x2="58.6767"
   y1="84.9443"
   x1="155.6768"
   gradientUnits="userSpaceOnUse"
   id="XMLID_12_">
		<stop
   id="stop8122"
   style="stop-color:#2C72C7"
   offset="0" />

		<stop
   id="stop8124"
   style="stop-color:#A4C0E4"
   offset="1" />

	</linearGradient>
<linearGradient
   y2="-13.1904"
   x2="31.6279"
   y1="106.8096"
   x1="128.6279"
   gradientUnits="userSpaceOnUse"
   id="XMLID_11_">
		<stop
   id="stop8115"
   style="stop-color:#2C72C7"
   offset="0" />

		<stop
   id="stop8117"
   style="stop-color:#A4C0E4"
   offset="1" />

	</linearGradient>
<linearGradient
   id="XMLID_10_"
   gradientUnits="userSpaceOnUse"
   x1="26.27"
   y1="-19.9668"
   x2="109.9365"
   y2="138.7002"
   gradientTransform="translate(0,1)">
	<stop
   offset="0"
   style="stop-color:#D9DEE4"
   id="stop8104" />

	<stop
   offset="0.2899"
   style="stop-color:#FFFFFF"
   id="stop8106" />

	<stop
   offset="1"
   style="stop-color:#C5C9CF"
   id="stop8108" />

</linearGradient>
<filter
   id="AI_Sfocatura_3">
	<feGaussianBlur
   stdDeviation="3"
   id="feGaussianBlur8095" />

</filter>
<filter
   inkscape:collect="always"
   id="filter10509">
  <feGaussianBlur
     inkscape:collect="always"
     stdDeviation="1.1949474"
     id="feGaussianBlur10511" />
</filter>
<linearGradient
   inkscape:collect="always"
   xlink:href="#XMLID_5_"
   id="linearGradient10546"
   gradientUnits="userSpaceOnUse"
   gradientTransform="translate(4,24.000001)"
   x1="28"
   y1="56"
   x2="28"
   y2="8.0005" />
<linearGradient
   inkscape:collect="always"
   xlink:href="#XMLID_2_"
   id="linearGradient10549"
   gradientUnits="userSpaceOnUse"
   gradientTransform="translate(4,24.000001)"
   x1="75.737198"
   y1="-17.413694"
   x2="75.7372"
   y2="69.5504" />
<linearGradient
   inkscape:collect="always"
   xlink:href="#linearGradient8707"
   id="linearGradient10551"
   gradientUnits="userSpaceOnUse"
   gradientTransform="translate(4,24.000001)"
   x1="2"
   y1="38.9535"
   x2="118"
   y2="38.9535" />
<radialGradient
   inkscape:collect="always"
   xlink:href="#path5692_2_"
   id="radialGradient10555"
   gradientUnits="userSpaceOnUse"
   gradientTransform="matrix(0.4137,-0.5587,0.499,0.3694,-214.5837,-207.0567)"
   cx="-5.314"
   cy="654.0664"
   r="20.3231" />
<linearGradient
   inkscape:collect="always"
   xlink:href="#XMLID_10_"
   id="linearGradient10577"
   gradientUnits="userSpaceOnUse"
   gradientTransform="translate(4,24.000001)"
   x1="26.27"
   y1="-19.9668"
   x2="109.9365"
   y2="138.7002" />

	
<linearGradient
   inkscape:collect="always"
   xlink:href="#linearGradient3163"
   id="linearGradient10602"
   gradientUnits="userSpaceOnUse"
   x1="412.78592"
   y1="400.84558"
   x2="412.78592"
   y2="422.63611" />
<linearGradient
   inkscape:collect="always"
   xlink:href="#linearGradient3433"
   id="linearGradient10604"
   gradientUnits="userSpaceOnUse"
   x1="324.65039"
   y1="398.85446"
   x2="325.7691"
   y2="370.57019" />
<linearGradient
   inkscape:collect="always"
   xlink:href="#linearGradient8914"
   id="linearGradient10606"
   gradientUnits="userSpaceOnUse"
   x1="414.41586"
   y1="458.62646"
   x2="461.90625"
   y2="458.62648" />
</defs>
  <sodipodi:namedview
     id="base"
     pagecolor="#ffffff"
     bordercolor="#666666"
     borderopacity="1.0"
     inkscape:pageopacity="0.0"
     inkscape:pageshadow="2"
     inkscape:zoom="3.1875"
     inkscape:cx="71.773198"
     inkscape:cy="63.843137"
     inkscape:document-units="px"
     inkscape:current-layer="layer1"
     height="128px"
     width="128px"
     inkscape:window-width="640"
     inkscape:window-height="620"
     inkscape:window-x="634"
     inkscape:window-y="302" />
  <metadata
     id="metadata9007">
    <rdf:RDF>
      <cc:Work
         rdf:about="">
        <dc:format>image/svg+xml</dc:format>
        <dc:type
           rdf:resource="http://purl.org/dc/dcmitype/StillImage" />
        <dc:title>actions/contact-new</dc:title>
        <dc:date>31/08/2007</dc:date>
        <dc:creator>
          <cc:Agent>
            <dc:title>David Vignoni</dc:title>
          </cc:Agent>
        </dc:creator>
        <dc:contributor>
          <cc:Agent>
            <dc:title>Nuno F. Pinheiro</dc:title>
          </cc:Agent>
        </dc:contributor>
      </cc:Work>
    </rdf:RDF>
  </metadata>
  <g
     inkscape:label="Livello 1"
     inkscape:groupmode="layer"
     id="layer1">
    <path
       transform="matrix(1.0333333,0,0,1.0454545,2,20.954549)"
       style="opacity:0.5;fill:#000000;fill-opacity:1;filter:url(#filter10509)"
       d="M 4,1 C 1.8,1 0,2.8 0,5 L 0,85 C 0,87.2 1.8,89 4,89 L 24,89 C 26.2,89 28,88.1 28,87 C 28,85.9 26.2,85 24,85 L 24,85 C 21.8,85 20,83.2 20,81 L 20,81 C 20,78.8 21.8,77 24,77 L 40,77 C 42.2,77 43.032258,78.8 43.032258,81 L 43.032258,81 C 43.032258,83.2 42.2,85 40,85 L 40,85 C 37.8,85 36,85.9 36,87 C 36,88.1 37.8,89 40,89 L 80,89 C 82.2,89 84,88.1 84,87 C 84,85.9 82.2,85 80,85 L 80,85 C 77.8,85 76,83.2 76,81 L 76,81 C 76,78.8 77.8,77 80,77 L 96,77 C 98.2,77 99.032258,78.8 99.032258,81 L 99.032258,81 C 99.032258,83.2 98.2,85 96,85 L 96,85 C 93.8,85 92,85.9 92,87 C 92,88.1 93.8,89 96,89 L 116,89 C 118.2,89 120,87.2 120,85 L 120,5 C 120,2.8 118.2,1 116,1 L 4,1 z"
       id="path8099"
       sodipodi:nodetypes="cccccsccccccccccsccsccccccccccscccccc" />
    <path
       style="fill:#ffffff"
       d="M 8,24.000001 C 5.8,24.000001 4,25.800001 4,28.000001 L 4,108 C 4,110.2 5.8,112 8,112 L 28,112 C 30.2,112 32,111.1 32,110 C 32,108.9 30.2,108 28,108 L 28,108 C 25.8,108 24,106.2 24,104 L 24,104 C 24,101.8 25.8,100 28,100 L 44,100 C 46.2,100 48,101.8 48,104 L 48,104 C 48,106.2 46.2,108 44,108 L 44,108 C 41.8,108 40,108.9 40,110 C 40,111.1 41.8,112 44,112 L 84,112 C 86.2,112 88,111.1 88,110 C 88,108.9 86.2,108 84,108 L 84,108 C 81.8,108 80,106.2 80,104 L 80,104 C 80,101.8 81.8,100 84,100 L 100,100 C 102.2,100 104,101.8 104,104 L 104,104 C 104,106.2 102.2,108 100,108 L 100,108 C 97.8,108 96,108.9 96,110 C 96,111.1 97.8,112 100,112 L 120,112 C 122.2,112 124,110.2 124,108 L 124,28.000001 C 124,25.800001 122.2,24.000001 120,24.000001 L 8,24.000001 z"
       id="path8101" />
    <path
       style="fill:url(#linearGradient10577)"
       d="M 8,25.000001 C 6.346,25.000001 5,26.346001 5,28.000001 L 5,108 C 5,109.654 6.346,111 8,111 L 28,111 C 30.035,111 31,110.198 31,110 C 31,109.802 30.035,109 28,109 C 25.243,109 23,106.757 23,104 C 23,101.243 25.243,99.000001 28,99.000001 L 44,99.000001 C 46.757,99.000001 49,101.243 49,104 C 49,106.757 46.757,109 44,109 C 41.965,109 41,109.802 41,110 C 41,110.198 41.965,111 44,111 L 84,111 C 86.035,111 87,110.198 87,110 C 87,109.802 86.035,109 84,109 C 81.243,109 79,106.757 79,104 C 79,101.243 81.243,99.000001 84,99.000001 L 100,99.000001 C 102.757,99.000001 105,101.243 105,104 C 105,106.757 102.757,109 100,109 C 97.965,109 97,109.802 97,110 C 97,110.198 97.965,111 100,111 L 120,111 C 121.654,111 123,109.654 123,108 L 123,28.000001 C 123,26.346001 121.654,25.000001 120,25.000001 L 8,25.000001 z"
       id="path8110" />
    <g
       transform="translate(4,24.000001)"
       style="opacity:0.2"
       id="g8112">
	<linearGradient
   id="linearGradient9234"
   gradientUnits="userSpaceOnUse"
   x1="128.6279"
   y1="106.8096"
   x2="31.627899"
   y2="-13.1904">
		<stop
   offset="0"
   style="stop-color:#2C72C7"
   id="stop9236" />

		<stop
   offset="1"
   style="stop-color:#A4C0E4"
   id="stop9238" />

	</linearGradient>

	<path
   style="fill:url(#XMLID_11_)"
   d="M 119,65.969 L 119,57.018 C 114.712,58.893 109.98,59.941 105.004,59.941 C 85.733,59.941 70.088,44.299 70.088,25.016 C 70.088,15.696 73.769,7.255 79.73,1 L 66.62,1 L 67.798,2.943 C 66.005,5.949 64.552,9.172 63.527,12.593 L 45.01,16.432 C 44.494,16.543 44.119,17.036 44.119,17.56 L 44.119,29.748 C 44.119,30.264 44.512,30.712 45.01,30.829 L 62.963,35.191 C 63.924,39.149 65.406,42.94 67.363,46.394 L 56.969,62.234 C 56.676,62.679 56.735,63.271 57.11,63.637 L 65.735,72.265 C 66.092,72.625 66.649,72.669 67.083,72.406 L 83.4,62.519 C 86.599,64.368 90.068,65.841 93.712,66.826 L 95.408,75 L 96,75 C 98.757,75 101,77.243 101,80 C 101,82.256 99.488,84.145 97.433,84.766 L 97.504,85.11 C 97.615,85.625 98.061,86 98.588,86 L 110.776,86 C 111.286,86 111.731,85.657 111.854,85.156 L 116.348,66.781 C 117.246,66.539 118.129,66.266 119,65.969 z"
   id="path8119" />

	<linearGradient
   id="linearGradient9241"
   gradientUnits="userSpaceOnUse"
   x1="155.6768"
   y1="84.944298"
   x2="58.676701"
   y2="-35.055599">
		<stop
   offset="0"
   style="stop-color:#2C72C7"
   id="stop9243" />

		<stop
   offset="1"
   style="stop-color:#A4C0E4"
   id="stop9245" />

	</linearGradient>

	<path
   style="fill:url(#XMLID_12_)"
   d="M 94.979,46.484 L 116.688,43.206 L 116.688,4.669 L 119,8.055 L 119,4 C 119,2.346 117.654,1 116,1 L 94.979,1 L 94.979,46.484 z"
   id="path8126" />

</g>
    <g
       transform="translate(4,24.000001)"
       id="g8128">
	<linearGradient
   id="linearGradient9249"
   gradientUnits="userSpaceOnUse"
   x1="60.0005"
   y1="72"
   x2="60.0005"
   y2="70">
		<stop
   offset="0"
   style="stop-color:#BBBBBB"
   id="stop9251" />

		<stop
   offset="1"
   style="stop-color:#555555"
   id="stop9253" />

	</linearGradient>

	<path
   style="fill:url(#XMLID_14_)"
   d="M 118,71 C 118,71.55 117.55,72 117,72 L 3,72 C 2.45,72 2,71.55 2,71 L 2,71 C 2,70.45 2.45,70 3,70 L 117,70 C 117.55,70 118,70.45 118,71 L 118,71 z"
   id="path8135" />

</g>
    <text
       y="42.127399"
       x="59.667"
       id="text8137">
      <tspan
         style="font-size:12px;fill:#555555;font-family:LiberationSans-Bold"
         x="59.667"
         y="42.127399"
         font-size="12"
         id="tspan8139">KDE</tspan>
      <tspan
         style="font-size:7px;fill:#555555;font-family:LiberationSans"
         x="59.667"
         y="58.927399"
         font-size="7"
         id="tspan8141">David Vignoni</tspan>
      <tspan
         style="font-size:7px;fill:#555555;font-family:LiberationSans"
         x="59.667"
         y="67.3274"
         font-size="7"
         id="tspan8143">Designer</tspan>
      <tspan
         style="font-size:7px;fill:#555555;font-family:LiberationSans"
         x="59.667"
         y="75.726395"
         font-size="7"
         id="tspan8145">davigno@kde.org</tspan>
    </text>
    <path
       style="opacity:0.9;fill:url(#radialGradient10555)"
       id="path5692_1_"
       d="M 111.319,28.000001 L 107.663,28.351001 L 107.663,43.414001 L 111.281,42.868001 L 111.281,36.445001 L 116.147,43.571001 L 119.959,42.359001 L 114.975,35.508001 L 120,29.047001 L 116.108,28.155001 L 111.281,34.616001 L 111.319,28.000001 z M 103.03,31.672001 C 102.989,31.675001 102.944,31.688001 102.913,31.718001 L 101.475,33.156002 C 101.416,33.217001 101.409,33.309001 101.453,33.383001 L 103.134,36.157001 C 102.835,36.658001 102.593,37.195002 102.422,37.765002 L 99.336,38.405001 C 99.25,38.424001 99.188,38.506001 99.188,38.593001 L 99.188,40.624001 C 99.188,40.710001 99.253,40.785001 99.336,40.804001 L 102.328,41.531001 C 102.488,42.191001 102.735,42.823001 103.061,43.398001 L 101.329,46.038002 C 101.28,46.112001 101.29,46.211001 101.352,46.272002 L 102.79,47.710001 C 102.85,47.770001 102.942,47.777001 103.015,47.733002 L 105.735,46.085001 C 106.268,46.393001 106.846,46.639001 107.454,46.803001 L 108.086,49.850001 C 108.105,49.936001 108.179,49.998002 108.267,49.998002 L 110.298,49.998002 C 110.383,49.998002 110.457,49.941001 110.478,49.857001 L 111.227,46.795002 C 111.856,46.626002 112.446,46.374001 112.994,46.052001 L 115.673,47.810001 C 115.747,47.858001 115.845,47.850001 115.907,47.787001 L 117.338,46.349001 C 117.4,46.288002 117.413,46.196002 117.368,46.122002 L 116.392,44.514001 L 116.072,44.615001 C 116.026,44.630001 115.974,44.609001 115.947,44.568002 C 115.947,44.568002 115.331,43.661001 114.526,42.483001 C 113.562,44.367001 111.598,45.655001 109.337,45.655001 C 106.125,45.655001 103.518,43.048001 103.518,39.834001 C 103.518,37.471001 104.932,35.440001 106.956,34.529001 L 106.956,33.029001 C 106.587,33.158001 106.23,33.314002 105.893,33.498001 L 105.893,33.493001 L 103.151,31.696001 C 103.11,31.671001 103.071,31.667001 103.03,31.672001 z" />
    <rect
       style="fill:#ffffff"
       x="11"
       y="31.000002"
       width="42"
       height="50"
       id="rect8160" />
    <path
       sodipodi:nodetypes="ccccccc"
       d="M 120,26.000001 L 8,26.000001 C 6.897,26.000001 6,26.897001 6,28.000001 L 6,69.907002 C 36.042,62.664001 82.189,67.995002 122,30.140001 L 122,28.000001 C 122,26.897001 121.103,26.000001 120,26.000001 z"
       id="path8158"
       style="fill:url(#linearGradient10549);stroke:url(#linearGradient10551)" />
    <rect
       style="opacity:0.5;fill:url(#linearGradient10546)"
       x="12"
       y="32"
       width="40"
       height="48"
       id="rect8167" />
    <g
       id="g8920"
       transform="matrix(1.0487757,0,0,1.0487757,3.6097947,22.06608)"
       clip-path="url(#clipPath8998)">
      <path
         id="path8719"
         d="M 28.625,14.25 C 23.771729,14.25 19.843754,18.181163 19.84375,23.03125 C 19.843751,24.189223 19.715125,25.349784 20.03125,26.375 C 19.706273,26.132731 19.127324,26.330497 19.1875,26.9375 C 19.947074,30.499046 20.606281,31.228381 21.28125,31.375 C 21.851709,33.014209 22.619906,34.576861 23.375,35.84375 C 23.805817,38.245607 24.040317,40.840075 23.21875,42.125 C 22.893482,42.277014 22.708325,42.574164 22.71875,42.8125 C 19.981271,43.907366 16.687993,45.029441 13.75,46.5 C 12.659457,47.04586 11.38651,48.682066 11.0625,49.5625 C 10.074308,52.247683 9,56.03125 9,56.03125 L 9.59375,56.71875 C 15.639954,60.160753 23.832596,60 29,60 C 34.167405,60.000001 42.360049,60.160752 48.40625,56.71875 L 49,56.03125 C 49,56.031249 47.925691,52.247684 46.9375,49.5625 C 46.613489,48.682065 45.371794,47.04586 44.28125,46.5 C 41.343257,45.029441 38.018732,43.907367 35.28125,42.8125 C 35.294326,42.513624 34.993826,42.112376 34.5,42.03125 C 33.660267,40.566803 34.030182,37.601982 34.53125,35.0625 C 35.246229,33.764974 35.928326,32.249765 36.40625,30.6875 C 36.95953,30.332097 37.503185,29.321871 38.125,26.40625 C 38.181833,25.832971 37.676049,25.629489 37.34375,25.8125 C 37.522089,24.937361 37.5,24.007308 37.5,23.03125 C 37.500001,19.069515 34.857845,15.720023 31.25,14.625 C 30.993852,14.545327 30.734326,14.462531 30.46875,14.40625 C 30.448724,14.402151 30.426325,14.410212 30.40625,14.40625 C 30.140188,14.351796 29.867952,14.311066 29.59375,14.28125 C 29.573399,14.279182 29.551642,14.283178 29.53125,14.28125 C 29.235803,14.251235 28.92833,14.25 28.625,14.25 z"
         style="opacity:0.8;fill:#00316e;fill-opacity:1;fill-rule:evenodd;stroke:none;stroke-width:1px;stroke-linecap:butt;stroke-linejoin:miter;stroke-opacity:1;filter:url(#filter8878)"
         transform="matrix(0.8751805,0,0,0.8751805,3.0801997,5.5820406)" />
      <g
         id="g6403"
         transform="matrix(0.3361031,0,0,0.3361031,8.7272044,16.371561)">
        <path
           d="M -98.9545,147.40533 L -97.80806,148.625 C -82.1633,157.53715 -61.37084,157.125 -48,157.125 C -34.62916,157.125 -13.39476,157.53715 2.25,148.625 L 3.75,146.875 C -29.1808,121.09132 -85.02254,99.65662 -98.9545,147.40533 z"
           transform="matrix(1.0059645,0,0,1.0053055,103.05489,-34.059089)"
           sodipodi:nodetypes="ccsccc"
           style="fill:#c8cddc;fill-opacity:1;fill-rule:evenodd;stroke:none;stroke-width:1px;stroke-linecap:butt;stroke-linejoin:miter;stroke-opacity:1;filter:url(#filter3624)"
           id="path3259" />
        <path
           id="path3845"
           d="M 73.403249,48.295662 C 75.326591,48.132728 77.202494,46.774382 79.36058,36.655358 C 79.569427,34.548685 76.758714,34.349249 76.604207,36.21107 C 74.514395,40.239272 73.598719,44.267481 73.403249,48.295662 z"
           style="fill:#ddc2a4;fill-opacity:1;fill-rule:evenodd;stroke:none;stroke-width:1px;stroke-linecap:butt;stroke-linejoin:miter;stroke-opacity:1"
           sodipodi:nodetypes="cccc" />
        <path
           d="M 35.980896,49.717379 C 34.05755,49.554445 32.181647,48.196065 30.023562,38.077086 C 29.814714,35.970412 32.625427,35.770949 32.779934,37.632798 C 34.869746,41.661 35.785426,45.689164 35.980896,49.717379 z"
           id="path3715"
           style="fill:#ddc2a4;fill-opacity:1;fill-rule:evenodd;stroke:none;stroke-width:1px;stroke-linecap:butt;stroke-linejoin:miter;stroke-opacity:1"
           sodipodi:nodetypes="cccc" />
        <path
           d="M 38.924665,51.517533 C 40.446902,58.75809 44.700149,75.038049 39.427648,78.912104 C 40.077973,85.949027 46.548466,88.607199 54.517111,90.158961 L 56.026059,90.158961 C 63.994707,88.607199 70.465197,85.949027 71.115526,78.912104 C 65.843025,75.038049 70.096272,58.75809 71.618505,51.517533 L 55.271589,58.963065 L 38.924665,51.517533 z"
           id="path3629"
           style="fill:#cbb7a2;fill-opacity:1;fill-rule:evenodd;stroke:none;stroke-width:1px;stroke-linecap:butt;stroke-linejoin:miter;stroke-opacity:1"
           sodipodi:nodetypes="cccccccc" />
        <path
           id="path3634"
           d="M 38.924665,51.517533 C 40.446902,58.75809 44.700149,75.038049 39.427648,78.912104 C 40.077973,85.949027 46.548466,88.607199 54.517111,90.158961 L 56.026059,90.158961 C 63.994707,88.607199 70.465197,85.949027 71.115526,78.912104 C 65.843025,75.038049 70.096272,58.75809 71.618505,51.517533 L 55.271589,58.963065 L 38.924665,51.517533 z"
           style="fill:url(#radialGradient8952);fill-opacity:1;fill-rule:evenodd;stroke:none;stroke-width:1px;stroke-linecap:butt;stroke-linejoin:miter;stroke-opacity:1"
           sodipodi:nodetypes="cccccccc" />
        <path
           d="M 71.618505,51.517533 C 70.096272,58.75809 65.843025,75.038049 71.115526,78.912104 C 70.465197,85.949027 63.994707,88.607199 56.026059,90.158961 L 54.517111,90.158961 C 46.548466,88.607199 40.077973,85.949027 39.427648,78.912104 C 44.700149,75.038049 40.446902,58.75809 38.924665,51.517533 L 55.271589,58.963065 L 71.618505,51.517533 z"
           id="path3672"
           style="opacity:0.74906365;fill:url(#radialGradient8954);fill-opacity:1;fill-rule:evenodd;stroke:none;stroke-width:1px;stroke-linecap:butt;stroke-linejoin:miter;stroke-opacity:1"
           sodipodi:nodetypes="cccccccc" />
        <path
           id="path3676"
           transform="matrix(1.0059645,0,0,1.0053055,-271.46562,-360.28069)"
           sodipodi:nodetypes="csssssssscc"
           clip-path="url(#clipPath3705)"
           d="M 324.17882,363.78125 C 316.40226,363.98625 310.30111,369.64178 307.17257,376.59375 C 303.98585,383.67496 304.44976,392.13001 306.36007,401.90625 C 308.27039,411.68248 311.64834,421.85281 314.83507,425.53125 C 317.85547,429.0177 321.72431,428.38757 324.17882,428.3125 C 324.30462,428.3125 324.48116,428.30837 324.61632,428.3125 C 327.07083,428.38757 330.93967,429.0177 333.96007,425.53125 C 337.1468,421.85281 341.52475,411.68248 343.43507,401.90625 C 345.3454,392.13001 345.80929,383.67496 342.62257,376.59375 C 339.49402,369.64178 332.39288,363.98625 324.61632,363.78125 L 324.17882,363.78125 z"
           style="fill:#382509;fill-opacity:1;fill-rule:evenodd;stroke:none;stroke-width:1px;stroke-linecap:butt;stroke-linejoin:miter;stroke-opacity:1;filter:url(#filter3694)" />
        <path
           d="M 54.665563,5.3991564 C 46.842622,5.6052254 37.787786,11.290762 34.640587,18.279618 C 31.43486,25.39839 31.901537,33.898301 33.823241,43.72642 C 35.744955,53.554519 42.060349,63.778772 45.266082,67.47675 C 48.304499,70.981692 52.196412,70.348223 54.665563,70.272743 C 54.792112,70.272743 54.969705,70.268614 55.105673,70.272743 C 57.574824,70.348223 61.466737,70.981692 64.505154,67.47675 C 67.710887,63.778772 74.026281,53.554519 75.947995,43.72642 C 77.869723,33.898301 78.336376,25.39839 75.130649,18.279618 C 71.98344,11.290762 62.928614,5.6052254 55.105673,5.3991564 L 54.665563,5.3991564 z"
           id="path2169"
           style="fill:url(#radialGradient8956);fill-opacity:1;fill-rule:evenodd;stroke:none;stroke-width:1px;stroke-linecap:butt;stroke-linejoin:miter;stroke-opacity:1"
           sodipodi:nodetypes="csssssssscc" />
        <path
           id="path3157"
           transform="matrix(1.0059645,0,0,1.0053055,-360.33441,-359.22512)"
           mask="url(#mask3287)"
           sodipodi:nodetypes="csssscc"
           d="M 391.84841,400.84559 C 395.5265,410.97537 400.03668,420.79215 403.22341,424.47059 C 406.24381,427.95704 410.11265,427.32691 412.56716,427.25184 C 412.69296,427.25184 412.8695,427.24771 413.00466,427.25184 C 415.45917,427.32691 419.32801,427.95704 422.34841,424.47059 C 425.53514,420.79215 430.39888,410.62182 433.72341,400.84559 L 391.84841,400.84559 z"
           style="fill:url(#linearGradient10602);fill-opacity:1;fill-rule:evenodd;stroke:none;stroke-width:1px;stroke-linecap:butt;stroke-linejoin:miter;stroke-opacity:1" />
        <path
           id="path3161"
           transform="matrix(1.0059645,0,0,1.0053055,103.05489,-34.059089)"
           style="opacity:1;fill:url(#linearGradient8960);fill-opacity:1;fill-rule:evenodd;stroke:none;stroke-width:1px;stroke-linecap:butt;stroke-linejoin:miter;stroke-opacity:1;filter:url(#filter3325)"
           sodipodi:nodetypes="ccssscssssc"
           d="M -34.57938,94.15885 C -36.60974,97.79098 -37.62278,97.4605 -39.6875,99.96875 C -42.55362,103.27713 -46.48338,102.22748 -48.8125,102.15625 C -48.94075,102.15234 -49.09939,102.15624 -49.21875,102.15625 C -51.5479,102.22749 -55.52764,102.8396 -58.39375,99.53125 C -58.7164,99.15883 -59.10666,98.69226 -59.4875,98.1875 C -58.74735,99.25458 -58.00114,100.20997 -57.425,100.875 C -54.55888,104.18335 -50.61038,103.57124 -48.28125,103.5 C -48.16189,103.50001 -47.97201,103.49608 -47.84375,103.5 C -45.51464,103.57125 -41.86612,104.18336 -39,100.875 C -37.5985,99.25724 -36.58252,97.77257 -34.57938,94.15885 z" />
        <path
           d="M 347.29991,395.43789 C 347.20744,394.69928 346.14533,395.38264 346.06247,396.32177 C 345.97961,397.2609 346.81711,399.53599 346.96846,399.19439 C 348.18061,396.45862 347.43118,396.48647 347.29991,395.43789 z"
           transform="matrix(-1.0059645,0,0,1.0053055,424.44171,-361.70241)"
           sodipodi:nodetypes="csss"
           style="fill:url(#radialGradient8962);fill-opacity:1;fill-rule:evenodd;stroke:none;stroke-width:1px;stroke-linecap:butt;stroke-linejoin:miter;stroke-opacity:1;filter:url(#filter3833)"
           id="path3849" />
        <path
           id="path3779"
           transform="matrix(1.0059645,0,0,1.0053055,103.05489,-34.059089)"
           style="fill:url(#radialGradient8964);fill-opacity:1;fill-rule:evenodd;stroke:none;stroke-width:1px;stroke-linecap:butt;stroke-linejoin:miter;stroke-opacity:1;filter:url(#filter3833)"
           sodipodi:nodetypes="csss"
           d="M -68.3336,70.93789 C -68.42607,70.19928 -69.48818,70.88264 -69.57104,71.82177 C -69.6539,72.7609 -68.8164,75.03599 -68.66505,74.69439 C -67.4529,71.95862 -68.20233,71.98647 -68.3336,70.93789 z" />
        <path
           id="path3380"
           transform="matrix(1.0059645,0,0,1.0053055,-271.84166,-360.28069)"
           sodipodi:nodetypes="cscccssssccsc"
           clip-path="url(#clipPath3429)"
           d="M 324.5,363.375 C 311.942,363.375 301.75001,373.56701 301.75,386.125 C 301.75,389.62206 301.40798,393.09067 302.8197,396.05178 L 304,396.91529 C 306.57247,392.37122 304.92256,388.81578 306,384.875 C 307,382.375 308.58874,380.212 311,379.375 C 315.29826,377.88299 321.81729,383.55368 324.5,383.625 C 327.40006,383.70209 333.55852,378.27854 337.96875,379.575 C 340.40504,380.29118 342.40902,382.5821 342.96875,385.075 C 344.01673,389.74243 344.56428,391.33155 344.97135,396.35463 L 346.15441,395.75 C 347.52866,392.82109 347.25,389.57242 347.25,386.125 C 347.25,373.567 337.05801,363.37501 324.5,363.375 z"
           style="opacity:1;fill:url(#linearGradient10604);fill-opacity:1;stroke:none;stroke-width:0;stroke-linecap:round;stroke-linejoin:round;stroke-miterlimit:4;stroke-dasharray:none;stroke-dashoffset:1.08779998;stroke-opacity:1;filter:url(#filter3420)" />
        <path
           d="M 54.768603,5.0221546 C 42.135704,5.0221546 31.882927,15.26824 31.882916,27.892857 C 31.882916,31.408457 31.538854,34.895464 32.958997,37.87231 L 34.146335,38.740385 C 36.734148,34.172199 35.074397,30.095258 36.158265,26.133565 C 37.16423,23.620296 38.762444,21.445824 41.188084,20.604384 C 45.511983,19.104468 52.069894,24.805242 54.768603,24.876946 C 57.685961,24.954449 63.88115,22.741394 68.317684,24.044716 C 70.768506,24.764708 72.78444,27.067776 73.347506,29.573896 C 74.401737,34.266089 74.952554,33.127016 75.362053,38.176749 L 76.552169,37.568904 C 77.934615,34.624465 77.654292,31.358569 77.654292,27.892857 C 77.654292,15.26824 67.401515,5.0221546 54.768603,5.0221546 z"
           id="path3347"
           style="opacity:1;fill:#b09278;fill-opacity:1;stroke:none;stroke-width:0;stroke-linecap:round;stroke-linejoin:round;stroke-miterlimit:4;stroke-dasharray:none;stroke-dashoffset:1.08779998;stroke-opacity:1"
           sodipodi:nodetypes="cscccssssccsc" />
        <path
           id="path3358"
           d="M 54.768603,5.0221546 C 46.69594,9.4065202 45.000549,12.012847 41.188084,20.604384 C 45.511983,19.104468 52.069894,24.805242 54.768603,24.876946 C 57.685961,24.954449 64.472845,22.365108 68.909379,23.668429 C 71.360201,24.388422 73.376135,26.69149 73.939201,29.19761 C 74.993431,33.889803 74.952554,33.127016 75.362053,38.176749 L 76.552169,37.568904 C 77.934615,34.624465 77.654292,31.358569 77.654292,27.892857 C 77.654292,15.26824 67.401515,5.0221546 54.768603,5.0221546 z"
           style="opacity:1;fill:url(#radialGradient8968);fill-opacity:1;stroke:none;stroke-width:0;stroke-linecap:round;stroke-linejoin:round;stroke-miterlimit:4;stroke-dasharray:none;stroke-dashoffset:1.08779998;stroke-opacity:1"
           sodipodi:nodetypes="ccsssccsc" />
        <path
           id="path3441"
           transform="matrix(1.0059645,0,0,1.0053055,-272.17782,-360.28069)"
           mask="none"
           sodipodi:nodetypes="cscccsssccssc"
           clip-path="none"
           d="M 312.54197,377.13598 C 311.94712,377.10972 311.3605,377.18074 310.82322,377.35473 C 308.41196,378.1356 306.38128,380.96011 305.38128,383.43684 C 304.45516,387.61524 305.77474,389.38257 304.88664,394.59185 C 305.73369,391.56142 305.58479,385.07509 305.82322,384.16723 C 306.82322,381.66722 308.41196,379.50423 310.82322,378.66723 C 315.12148,377.17521 321.64051,382.84591 324.32322,382.91723 C 327.22328,382.99431 333.38174,380.79295 337.79197,382.08941 C 340.22826,382.80558 342.23224,385.09651 342.79197,387.58941 L 342.79197,387.02691 C 342.23224,384.52098 340.22826,382.17481 337.79197,381.40191 C 333.38174,380.00277 327.66522,380.73602 324.76516,380.5914 C 322.41779,380.47435 316.70593,377.31977 312.54197,377.13598 z"
           style="opacity:1;fill:url(#linearGradient8970);fill-opacity:1;stroke:none;stroke-width:0;stroke-linecap:round;stroke-linejoin:round;stroke-miterlimit:4;stroke-dasharray:none;stroke-dashoffset:1.08779998;stroke-opacity:1;filter:url(#filter3479)" />
        <path
           id="path3497"
           transform="matrix(1.0059645,0,0,1.0053055,103.05489,-34.059089)"
           style="opacity:0.88014981;fill:url(#linearGradient8972);fill-opacity:1;fill-rule:evenodd;stroke:none;stroke-width:1px;stroke-linecap:butt;stroke-linejoin:miter;stroke-opacity:1;filter:url(#filter3625)"
           sodipodi:nodetypes="csscccc"
           d="M -39.6875,56.221855 C -34.197148,56.024377 -45.05967,54.50166 -48.70706,53.9205 C -54.598622,52.981763 -62.45595,49.86348 -63.54855,46.95471 C -64.26371,45.0508 -58.65655,42.18952 -59,43.11218 C -59.65577,44.97451 -60.47583,46.68051 -55.875,50.73718 C -53.57302,52.51447 -50.99506,54.57645 -47.5,54.86218 C -45,55.12995 -42.1875,56.694245 -39.6875,56.221855 z" />
        <path
           id="path3535"
           transform="matrix(1.0059645,0,0,1.0053055,102.2077,-34.059089)"
           style="fill:url(#linearGradient8974);fill-opacity:1;fill-rule:evenodd;stroke:none;stroke-width:1px;stroke-linecap:butt;stroke-linejoin:miter;stroke-opacity:1;filter:url(#filter3569)"
           sodipodi:nodetypes="cccccc"
           d="M -29.75,50.61218 L -27.5,55.11218 C -25.97108,61.25336 -26.57755,60.4695 -26.76517,63.44536 C -28.54202,59.02869 -27.22154,56.27885 -33,53.11218 L -39.25,49.11218 L -29.75,50.61218 z" />
        <path
           id="path3717"
           transform="matrix(1.0059645,0,0,1.0053055,103.05489,-34.059089)"
           style="opacity:0.33333333;fill:url(#linearGradient8976);fill-opacity:1;fill-rule:evenodd;stroke:none;stroke-width:1px;stroke-linecap:butt;stroke-linejoin:miter;stroke-opacity:1;filter:url(#filter3775)"
           sodipodi:nodetypes="ccsccc"
           d="M -68.53033,81.05152 L -67.15533,78.55152 C -67.15533,78.55152 -68.40533,75.42652 -68.40533,74.55152 C -68.40533,73.67652 -69.29419,71.09702 -69.29419,71.09702 L -70.0221,71.56734 L -68.53033,81.05152 z" />
        <path
           d="M 55.570237,85.133393 C 45.266337,85.421039 42.123018,81.158743 41.235247,77.400215 C 39.949833,77.611383 39.189287,78.632852 39.223317,79.410814 C 32.097741,82.260716 23.482148,85.133393 15.834648,88.96121 C 12.995998,90.382067 9.762032,94.71193 8.918643,97.003673 C 6.346411,103.99312 3.511582,113.84251 3.511582,113.84251 L 5.02053,115.60183 C 20.7586,124.56125 42.119651,124.14693 55.570237,124.14693 C 69.020825,124.14693 90.381876,124.56125 106.11994,115.60183 L 107.62889,113.84251 C 107.62889,113.84251 104.79406,103.99312 102.22183,97.003673 C 101.37844,94.71193 98.14448,90.382067 95.30583,88.96121 C 87.658325,85.133393 79.042732,82.260716 71.917156,79.410814 C 71.95119,78.632852 71.19064,77.611383 69.905226,77.400215 C 67.477204,81.1627 65.874139,84.845747 55.570237,85.133393 z"
           id="path3875"
           style="fill:url(#linearGradient8978);fill-opacity:1;fill-rule:evenodd;stroke:none;stroke-width:1px;stroke-linecap:butt;stroke-linejoin:miter;stroke-opacity:1"
           sodipodi:nodetypes="cccssccsccssccz" />
        <path
           id="path3451"
           transform="matrix(1.0059645,0,0,1.0053055,103.05489,-34.059089)"
           style="opacity:0.32209742;fill:url(#linearGradient8980);fill-opacity:1;fill-rule:evenodd;stroke:none;stroke-width:1px;stroke-linecap:butt;stroke-linejoin:miter;stroke-opacity:1;filter:url(#filter3493)"
           sodipodi:nodetypes="ccccccscc"
           d="M -78.34358,152.98437 C -82.26083,139.96479 -83.8395,133.15234 -74.80805,126.11431 L -55.71616,120.45745 L -64.20144,114.0935 L -84.00043,121.87167 L -94.60703,134.59959 C -94.60703,134.59959 -98.84968,144.49909 -96.02125,145.9133 C -93.19282,147.32752 -86.12175,151.57016 -86.12175,151.57016 L -78.34358,152.98437 z" />
        <path
           id="path3885"
           transform="matrix(1.0059645,0,0,1.0053055,-357.03287,-360.28069)"
           sodipodi:nodetypes="ccssccsccssccscsccssccsccssccc"
           clip-path="url(#clipPath4063)"
           d="M 395.90625,435.375 C 394.62847,435.58506 393.87242,436.60113 393.90625,437.375 C 386.82293,440.20988 378.25841,443.06735 370.65625,446.875 C 367.83444,448.28835 364.61964,452.59537 363.78125,454.875 C 361.22428,461.82756 358.40625,471.625 358.40625,471.625 L 359.90625,473.375 C 375.55102,482.28715 396.78541,481.875 410.15625,481.875 C 423.5271,481.875 444.76149,482.28715 460.40625,473.375 L 461.90625,471.625 C 461.90626,471.625 459.08823,461.82756 456.53125,454.875 C 455.69287,452.59537 452.47807,448.28835 449.65625,446.875 C 442.0541,443.06735 433.48958,440.20988 426.40625,437.375 C 426.44009,436.60113 425.68404,435.58506 424.40625,435.375 C 421.99263,439.11764 420.39906,442.77637 410.15625,443.0625 C 409.51607,443.08038 408.89826,443.07875 408.3125,443.0625 C 409.11493,443.10929 409.95672,443.15082 410.875,443.125 C 420.66635,442.84975 422.19276,439.31912 424.5,435.71875 C 425.72147,435.92083 426.43858,436.91179 426.40625,437.65625 C 433.17737,440.38336 441.3579,443.11836 448.625,446.78125 C 451.32245,448.14088 454.41732,452.30704 455.21875,454.5 C 457.66304,461.18826 460.34374,470.59377 460.34375,470.59375 L 458.90625,472.28125 C 443.95103,480.85461 423.65651,480.46874 410.875,480.46875 C 398.09347,480.46875 376.29635,482.09204 361.34115,473.51869 L 359.81526,470.50536 C 359.81526,470.50536 363.55664,455.53141 366.70803,453.26256 C 368.60286,451.89837 370.42755,448.14089 373.125,446.78125 C 380.3921,443.11835 388.57262,440.38336 395.34375,437.65625 C 395.32311,437.18111 395.59714,436.5903 396.125,436.1875 C 396.03832,435.91957 395.96873,435.63969 395.90625,435.375 z"
           style="fill:url(#linearGradient10606);fill-opacity:1;fill-rule:evenodd;stroke:none;stroke-width:1px;stroke-linecap:butt;stroke-linejoin:miter;stroke-opacity:1;filter:url(#filter4059)" />
        <path
           id="path3880"
           transform="matrix(1.0059645,0,0,1.0053055,103.05489,-34.059089)"
           style="fill:url(#linearGradient8984);fill-opacity:1;fill-rule:evenodd;stroke:none;stroke-width:1px;stroke-linecap:butt;stroke-linejoin:miter;stroke-opacity:1;filter:url(#filter3393)"
           sodipodi:nodetypes="cccccscccscc"
           d="M -84.125,124.875 L -85.125,126.625 C -81.08786,134.7426 -79.91837,144.77197 -77.6875,154.09375 C -84.67104,152.87559 -91.41593,150.84084 -97.5,147.375 L -97.5,147.8125 C -81.85523,156.72466 -60.62084,156.3125 -47.25,156.3125 C -33.87915,156.31251 -12.64476,156.72465 3,147.8125 L 4.5,146.0625 L 2.666559,147.54655 C -12.978191,156.45871 -33.87916,156.00881 -47.25,156.00881 C -54.70098,156.00881 -64.58699,155.42889 -74.59375,154 C -77.77083,139.60839 -80.94792,131.83413 -84.125,124.875 z" />
        <path
           id="path3261"
           transform="matrix(1.0059645,0,0,1.0053055,-425.2807,-360.27676)"
           sodipodi:nodetypes="cccscccsccccc"
           clip-path="url(#clipPath3289)"
           d="M 463.75,435.375 C 462.47221,435.58506 461.71617,436.60113 461.75,437.375 C 461.67075,437.40672 461.57962,437.43703 461.5,437.46875 C 462.75202,441.47055 466.65727,445.74083 478.25,445.4375 C 489.75018,445.1366 492.07799,441.47873 494.71875,437.5625 C 494.5676,437.5025 494.39985,437.43497 494.25,437.375 C 494.28383,436.60113 493.52779,435.58506 492.25,435.375 C 489.83637,439.11764 488.24281,442.77637 478,443.0625 C 467.75719,443.34864 464.63251,439.11371 463.75,435.375 z M 497.46875,438.625 C 497.52198,438.79302 497.56984,438.93659 497.5625,439.09375 C 501.77057,440.67121 506.39991,442.24968 511.125,443.96875 C 506.49146,442.00962 501.81994,440.29346 497.46875,438.625 z"
           style="fill:#f9ccca;fill-opacity:1;fill-rule:evenodd;stroke:#9c0f0f;stroke-width:0.14528722;stroke-linecap:butt;stroke-linejoin:miter;stroke-miterlimit:4;stroke-dasharray:none;stroke-opacity:1;filter:url(#filter3283)" />
        <path
           id="path3293"
           transform="matrix(1.0059645,0,0,1.0053055,103.05489,-34.059089)"
           style="fill:url(#linearGradient8986);fill-opacity:1;fill-rule:evenodd;stroke:none;stroke-width:1px;stroke-linecap:butt;stroke-linejoin:miter;stroke-opacity:1;filter:url(#filter3339)"
           sodipodi:nodetypes="cccc"
           d="M -59.25169,118.68969 L -76.57581,119.3968 L -61.37302,117.27548 L -59.25169,118.68969 z" />
        <path
           d="M 371.74831,469.68969 L 354.42419,470.3968 L 369.62698,468.27548 L 371.74831,469.68969 z"
           transform="matrix(0.3417414,0.9455184,0.9461381,-0.3415175,-540.77608,-70.969975)"
           id="path3357"
           style="fill:url(#linearGradient8988);fill-opacity:1;fill-rule:evenodd;stroke:none;stroke-width:1px;stroke-linecap:butt;stroke-linejoin:miter;stroke-opacity:1;filter:url(#filter3339)"
           sodipodi:nodetypes="cccc" />
        <path
           d="M 294.15642,477.48437 C 290.23917,464.46479 288.6605,457.65234 297.69195,450.61431 L 316.78384,444.95745 L 308.29856,438.5935 L 288.49957,446.37167 L 277.89297,459.09959 C 277.89297,459.09959 273.65032,468.99909 276.47875,470.4133 C 279.30718,471.82752 286.37825,476.07016 286.37825,476.07016 L 294.15642,477.48437 z"
           transform="matrix(-1.0059645,0,0,1.0053055,383.00502,-360.28069)"
           sodipodi:nodetypes="ccccccscc"
           style="opacity:0.5;fill:url(#linearGradient8990);fill-opacity:1;fill-rule:evenodd;stroke:none;stroke-width:1px;stroke-linecap:butt;stroke-linejoin:miter;stroke-opacity:1;filter:url(#filter3493)"
           id="path3498" />
        <path
           id="path3524"
           transform="matrix(1.0059645,0,0,1.0053055,103.05489,-34.059089)"
           style="opacity:0.06367044;fill:url(#linearGradient8992);fill-opacity:1;fill-rule:evenodd;stroke:url(#linearGradient8994);stroke-width:0.29057443px;stroke-linecap:butt;stroke-linejoin:miter;stroke-opacity:1;filter:url(#filter3574)"
           d="M -59.2517,120.45746 L -66.32276,138.13513 L -59.2517,120.45746 z" />
      </g>
    </g>
  </g>
</svg>
