<?xml version="1.0" encoding="UTF-8" standalone="no"?>
<!-- Generator: Adobe Illustrator 12.0.0, SVG Export Plug-In . SVG Version: 6.00 Build 51448)  --><svg enable-background="new 0 0 128 128" height="128" id="Layer_1" inkscape:export-filename="/Users/david/Desktop/sandbox/document-new2.png" inkscape:export-xdpi="22.5" inkscape:export-ydpi="22.5" inkscape:output_extension="org.inkscape.output.svgz.inkscape" inkscape:version="0.45+devel" overflow="visible" sodipodi:docbase="/Users/david/Desktop/sandbox" sodipodi:docname="document-new.svgz" sodipodi:version="0.32" space="preserve" version="1.1" viewBox="0 0 128 128" width="128" xmlns="http://www.w3.org/2000/svg" xmlns:cc="http://web.resource.org/cc/" xmlns:dc="http://purl.org/dc/elements/1.1/" xmlns:inkscape="http://www.inkscape.org/namespaces/inkscape" xmlns:ns="http://ns.adobe.com/SaveForWeb/1.0/" xmlns:rdf="http://www.w3.org/1999/02/22-rdf-syntax-ns#" xmlns:sodipodi="http://sodipodi.sourceforge.net/DTD/sodipodi-0.dtd" xmlns:svg="http://www.w3.org/2000/svg" xmlns:xlink="http://www.w3.org/1999/xlink">
  <metadata>
    <rdf:RDF xmlns:cc="http://web.resource.org/cc/" xmlns:dc="http://purl.org/dc/elements/1.1/" xmlns:rdf="http://www.w3.org/1999/02/22-rdf-syntax-ns#">
      <cc:Work rdf:about="">
        <dc:title></dc:title>
        <dc:description></dc:description>
        <dc:subject>
          <rdf:Bag>
            <rdf:li>unsorted</rdf:li>
          </rdf:Bag>
        </dc:subject>
        <dc:publisher>
          <cc:Agent rdf:about="http://www.openclipart.org/">
            <dc:title>Open Clip Art Library, Source: Oxygen Icons, Source: Oxygen Icons, Source: Oxygen Icons, Source: Oxygen Icons</dc:title>
          </cc:Agent>
        </dc:publisher>
        <dc:creator>
          <cc:Agent>
            <dc:title></dc:title>
          </cc:Agent>
        </dc:creator>
        <dc:rights>
          <cc:Agent>
            <dc:title></dc:title>
          </cc:Agent>
        </dc:rights>
        <dc:date></dc:date>
        <dc:format>image/svg+xml</dc:format>
        <dc:type rdf:resource="http://purl.org/dc/dcmitype/StillImage"/>
        <cc:license rdf:resource="http://creativecommons.org/licenses/by-sa/3.0/ or http://creativecommons.org/licenses/LGPL/2.1/"/>
        <dc:language>en</dc:language>
      </cc:Work>
    </rdf:RDF>
  </metadata>
  <defs id="defs105">
    <filter id="filter5943" inkscape:collect="always">
      <feGaussianBlur id="feGaussianBlur5945" inkscape:collect="always" stdDeviation="1.04"/>
    </filter>
    <linearGradient id="linearGradient6740">
      <stop id="stop6742" offset="0" style="stop-color:#004d00;stop-opacity:0;"/>
      <stop id="stop6748" offset="0.5" style="stop-color:#004d00;stop-opacity:1;"/>
      <stop id="stop6744" offset="1" style="stop-color:#004d00;stop-opacity:0;"/>
    </linearGradient>
    <linearGradient gradientTransform="translate(20.000035,-56.000003)" gradientUnits="userSpaceOnUse" id="linearGradient6930" inkscape:collect="always" x1="102" x2="102" xlink:href="#linearGradient6740" y1="118" y2="65.932846"/>
    <linearGradient gradientTransform="matrix(0,1,-1,0,-39.9985,140.0029)" gradientUnits="userSpaceOnUse" id="linearGradient3711" x1="-84.002403" x2="-23.516129" y1="-383.9971" y2="-383.9975">
      <stop id="stop3713" offset="0" style="stop-color:white;stop-opacity:1;"/>
      <stop id="stop3715" offset="1" style="stop-color:white;stop-opacity:0;"/>
    </linearGradient>
    <linearGradient gradientTransform="matrix(0,0.7388168,-0.7388168,0,-1.5226652,63.255682)" gradientUnits="userSpaceOnUse" id="linearGradient8927" inkscape:collect="always" x1="-80.00296" x2="-45.096584" xlink:href="#linearGradient3711" y1="-131.93112" y2="-131.93112"/>
    <filter id="filter7317" inkscape:collect="always">
      <feGaussianBlur id="feGaussianBlur7319" inkscape:collect="always" stdDeviation="2.8805897"/>
    </filter>
    <clipPath clipPathUnits="userSpaceOnUse" id="clipPath5163">
      <circle cx="343.99899" cy="92" id="circle5165" r="36" rx="8.0010004" ry="8.0010004" sodipodi:cx="343.99899" sodipodi:cy="92" sodipodi:rx="36" sodipodi:ry="36" style="fill:url(#linearGradient5167);fill-opacity:1"/>
    </clipPath>
    <linearGradient id="linearGradient4296">
      <stop id="stop4298" offset="0" style="stop-color:#00ff00;stop-opacity:1"/>
      <stop id="stop4300" offset="1" style="stop-color:#006500;stop-opacity:1"/>
    </linearGradient>
    <linearGradient gradientUnits="userSpaceOnUse" id="linearGradient4272" inkscape:collect="always" x1="328.12448" x2="336.98077" xlink:href="#linearGradient4296" y1="120.81158" y2="87.759453"/>
    <linearGradient gradientTransform="matrix(0,1,-1,0,-39.9985,140.0029)" gradientUnits="userSpaceOnUse" id="linearGradient4770" x1="-84.002403" x2="-12.0029" y1="-383.9971" y2="-383.9971">
      <stop id="stop4772" offset="0" style="stop-color:#e5ff00;stop-opacity:1"/>
      <stop id="stop4774" offset="1" style="stop-color:#bff500;stop-opacity:0;"/>
    </linearGradient>
    <radialGradient cx="343.99899" cy="92" fx="343.99899" fy="92" gradientUnits="userSpaceOnUse" id="radialGradient8920" inkscape:collect="always" r="36" xlink:href="#linearGradient4770"/>
    <linearGradient gradientTransform="matrix(0,1,-1,0,-39.9985,140.0029)" gradientUnits="userSpaceOnUse" id="linearGradient5958" x1="-84.002403" x2="-12.0029" y1="-383.9971" y2="-383.9971">
      <stop id="stop5960" offset="0" style="stop-color:#008c00;stop-opacity:1"/>
      <stop id="stop5962" offset="1" style="stop-color:#00bf00;stop-opacity:1"/>
    </linearGradient>
    <linearGradient gradientTransform="matrix(0,1,-1,0,-39.9985,140.0029)" gradientUnits="userSpaceOnUse" id="linearGradient8916" inkscape:collect="always" x1="-86.120354" x2="-56.357521" xlink:href="#linearGradient5958" y1="-381.09921" y2="-373.1243"/>
    <filter id="filter4292" inkscape:collect="always">
      <feGaussianBlur id="feGaussianBlur4294" inkscape:collect="always" stdDeviation="2.1604423"/>
    </filter>
    <linearGradient gradientUnits="userSpaceOnUse" id="linearGradient18668" x1="28" x2="28" y1="57.5" y2="0">
      <stop id="stop18670" offset="0" style="stop-color:#fffccf;stop-opacity:1;"/>
      <stop id="stop18672" offset="1" style="stop-color:white;stop-opacity:0;"/>
    </linearGradient>
    <linearGradient gradientUnits="userSpaceOnUse" id="XMLID_2_" x1="28" x2="28" y1="57.5" y2="0">
      <stop id="stop12" offset="0" style="stop-color:#FFEA00"/>
      <stop id="stop14" offset="1" style="stop-color:#FFCC00"/>
    </linearGradient>
    <linearGradient gradientUnits="userSpaceOnUse" id="linearGradient2291" inkscape:collect="always" x1="94.3438" x2="86.5356" xlink:href="#XMLID_9_" y1="102.3447" y2="94.5366"/>
    <linearGradient gradientUnits="userSpaceOnUse" id="linearGradient2293" inkscape:collect="always" x1="95" x2="86.5865" xlink:href="#XMLID_10_" y1="103" y2="94.5865"/>
    <linearGradient gradientUnits="userSpaceOnUse" id="linearGradient2295" inkscape:collect="always" x1="95" x2="87.293" xlink:href="#XMLID_11_" y1="103" y2="95.293"/>
    <linearGradient gradientUnits="userSpaceOnUse" id="linearGradient2297" inkscape:collect="always" x1="96" x2="88.0002" xlink:href="#XMLID_12_" y1="104" y2="96.0002"/>
    <linearGradient gradientUnits="userSpaceOnUse" id="linearGradient2299" inkscape:collect="always" x1="28" x2="28" xlink:href="#XMLID_2_" y1="57.5" y2="0"/>
    <radialGradient cx="102" cy="112.3047" gradientTransform="matrix(0.9787234,0,0,0.9818182,1.3617045,1.1636364)" gradientUnits="userSpaceOnUse" id="radialGradient2272" inkscape:collect="always" r="139.55859" xlink:href="#XMLID_8_"/>
    <radialGradient cx="102" cy="112.3047" gradientTransform="translate(2.4e-6,0)" gradientUnits="userSpaceOnUse" id="radialGradient2275" inkscape:collect="always" r="139.5585" xlink:href="#XMLID_7_"/>
    <radialGradient cx="30.010139" cy="34.750149" fx="30.010139" fy="34.750149" gradientTransform="matrix(1,0,0,1.2916104,-4,-19.57938)" gradientUnits="userSpaceOnUse" id="radialGradient3239" inkscape:collect="always" r="20.78125" xlink:href="#linearGradient18668"/>
    <filter id="filter3241" inkscape:collect="always">
      <feGaussianBlur id="feGaussianBlur3243" inkscape:collect="always" stdDeviation="1.0394514"/>
    </filter>
  </defs>
  <sodipodi:namedview bordercolor="#666666" borderopacity="1.0" gridempspacing="2" gridspacingx="4px" gridspacingy="4px" gridtolerance="10.0" guidetolerance="10.0" id="base" inkscape:current-layer="Layer_1" inkscape:cx="63.856972" inkscape:cy="57.431611" inkscape:guide-bbox="true" inkscape:pageopacity="0.0" inkscape:pageshadow="2" inkscape:window-height="670" inkscape:window-width="1022" inkscape:window-x="2" inkscape:window-y="27" inkscape:zoom="2.8284271" objecttolerance="10.0" pagecolor="#ffffff" showgrid="true" showguides="true"/>
  <radialGradient cx="102" cy="112.3047" gradientUnits="userSpaceOnUse" id="XMLID_7_" r="139.5585">
    <stop id="stop16" offset="0" style="stop-color:#00537D"/>
    <stop id="stop18" offset="0.0151" style="stop-color:#186389"/>
    <stop id="stop20" offset="0.0558" style="stop-color:#558CA8"/>
    <stop id="stop22" offset="0.0964" style="stop-color:#89AFC3"/>
    <stop id="stop24" offset="0.1357" style="stop-color:#B3CCD8"/>
    <stop id="stop26" offset="0.1737" style="stop-color:#D4E2E9"/>
    <stop id="stop28" offset="0.2099" style="stop-color:#ECF2F5"/>
    <stop id="stop30" offset="0.2435" style="stop-color:#FAFCFD"/>
    <stop id="stop32" offset="0.2722" style="stop-color:#FFFFFF"/>
  </radialGradient>
  <radialGradient cx="102" cy="112.3047" gradientUnits="userSpaceOnUse" id="XMLID_8_" r="139.55859">
    <stop id="stop37" offset="0" style="stop-color:#535557"/>
    <stop id="stop41" offset="0.11366145" style="stop-color:#898A8C"/>
    <stop id="stop47" offset="0.20296688" style="stop-color:#ECECEC"/>
    <stop id="stop49" offset="0.2363" style="stop-color:#FAFAFA"/>
    <stop id="stop51" offset="0.2722" style="stop-color:#FFFFFF"/>
    <stop id="stop53" offset="0.5313" style="stop-color:#FAFAFA"/>
    <stop id="stop55" offset="0.8449" style="stop-color:#EBECEC"/>
    <stop id="stop57" offset="1" style="stop-color:#E1E2E3"/>
  </radialGradient>
  <linearGradient gradientUnits="userSpaceOnUse" id="XMLID_9_" x1="94.3438" x2="86.5356" y1="102.3447" y2="94.5366">
    <stop id="stop62" offset="0" style="stop-color:#FFFFFF"/>
    <stop id="stop64" offset="1" style="stop-color:#555753"/>
  </linearGradient>
  <linearGradient gradientUnits="userSpaceOnUse" id="XMLID_10_" x1="95" x2="86.5865" y1="103" y2="94.5865">
    <stop id="stop69" offset="0" style="stop-color:#FFFFFF"/>
    <stop id="stop71" offset="1" style="stop-color:#555753"/>
  </linearGradient>
  <linearGradient gradientUnits="userSpaceOnUse" id="XMLID_11_" x1="95" x2="87.293" y1="103" y2="95.293">
    <stop id="stop76" offset="0" style="stop-color:#FFFFFF"/>
    <stop id="stop78" offset="1" style="stop-color:#393B38"/>
  </linearGradient>
  <linearGradient gradientUnits="userSpaceOnUse" id="XMLID_12_" x1="96" x2="88.0002" y1="104" y2="96.0002">
    <stop id="stop83" offset="0" style="stop-color:#888A85"/>
    <stop id="stop85" offset="0.0072" style="stop-color:#8C8E89"/>
    <stop id="stop87" offset="0.0673" style="stop-color:#ABACA9"/>
    <stop id="stop89" offset="0.1347" style="stop-color:#C5C6C4"/>
    <stop id="stop91" offset="0.2115" style="stop-color:#DBDBDA"/>
    <stop id="stop93" offset="0.3012" style="stop-color:#EBEBEB"/>
    <stop id="stop95" offset="0.4122" style="stop-color:#F7F7F6"/>
    <stop id="stop97" offset="0.5679" style="stop-color:#FDFDFD"/>
    <stop id="stop99" offset="1" style="stop-color:#FFFFFF"/>
  </linearGradient>
  <path d="M 23,9 L 23.040816,121 L 84.172,121 C 84.702,121 85.211,120.789 85.586,120.414 L 118.414,87.586 C 118.789,87.211 119,86.702 119,86.172 L 119,9 L 23,9 z " id="path6594" sodipodi:nodetypes="cccccccc" style="opacity:0.5;fill:#000000;fill-opacity:1;filter:url(#filter3241)" transform="matrix(1.0416667,0,0,1.0357143,-9.9583333,-3.3215342)"/>
  <path d="M 16.000002,8 L 16.000002,120 L 77.172002,120 C 77.702002,120 78.211002,119.789 78.586002,119.414 L 111.414,86.586 C 111.789,86.211 112,85.702 112,85.172 L 112,8 L 16.000002,8 z " id="path34" sodipodi:nodetypes="cccccccc" style="fill:url(#radialGradient2275)"/>
  <path d="M 18.978725,10 C 18.439449,10 18.000002,10.440836 18.000002,10.981818 L 18.000002,117.01818 C 18.000002,117.56015 18.439449,118 18.978725,118 L 76.891747,118 C 77.149151,118 77.401662,117.89593 77.583704,117.71233 L 109.71323,85.4812 C 109.89626,85.2976 110,85.045273 110,84.787055 L 110,10.981818 C 110,10.440836 109.56153,10 109.02128,10 L 18.978725,10 z " id="path59" style="fill:url(#radialGradient2272);fill-opacity:1"/>
  <g id="g1973" transform="translate(2.4e-6,0)">
    <path d="M 111.414,86.586 C 111.664,86.336 93.035,93 88,93 C 86.346,93 85,94.346 85,96 C 85,101.035 78.336,119.664 78.586,119.414 L 111.414,86.586 z " id="path66" style="opacity:0.1;fill:url(#linearGradient2291)"/>
    <path d="M 111.414,86.586 C 111.789,86.211 97.444,94 88,94 C 86.897,94 86,94.897 86,96 C 86,105.444 78.211,119.789 78.586,119.414 L 111.414,86.586 z " id="path73" style="opacity:0.1;fill:url(#linearGradient2293)"/>
    <path d="M 111.414,86.586 C 111.653,86.347 97.807,95 88,95 C 87.447,95 87,95.447 87,96 C 87,105.807 78.347,119.653 78.586,119.414 L 111.414,86.586 z " id="path80" style="opacity:0.1;fill:url(#linearGradient2295)"/>
    <path d="M 78.586,119.414 C 78.586,119.414 90.5,109.5 96,104 C 101.5,98.5 111.414,86.586 111.414,86.586 C 111.414,86.586 98.25,96 88,96 C 88,106.25 78.586,119.414 78.586,119.414 z " id="path101" style="fill:url(#linearGradient2297)"/>
  </g>
  <g id="g3640" transform="translate(9.545815e-6,1.710865e-5)">
    <circle cx="343.99899" cy="92" id="circle4274" r="36" rx="8.0010004" ry="8.0010004" sodipodi:cx="343.99899" sodipodi:cy="92" sodipodi:rx="36" sodipodi:ry="36" style="opacity:0.5;fill:#000000;fill-opacity:1;filter:url(#filter4292)" transform="matrix(-0.858425,0.2300143,-0.2300143,-0.858425,412.45864,35.85043)"/>
    <circle cx="343.99899" cy="92" id="circle3581_2_" r="36" rx="8.0010004" ry="8.0010004" sodipodi:cx="343.99899" sodipodi:cy="92" sodipodi:rx="36" sodipodi:ry="36" style="fill:url(#linearGradient8916);fill-opacity:1" transform="matrix(-0.858425,0.2300143,-0.2300143,-0.858425,412.45864,31.85043)"/>
    <circle cx="343.99899" cy="92" id="circle4383" r="36" rx="8.0010004" ry="8.0010004" sodipodi:cx="343.99899" sodipodi:cy="92" sodipodi:rx="36" sodipodi:ry="36" style="fill:url(#radialGradient8920);fill-opacity:1" transform="matrix(-0.6438188,0.1725107,-0.1725107,-0.6438188,333.34401,31.887831)"/>
    <circle clip-path="url(#clipPath5163)" cx="343.99899" cy="92" id="circle4776" r="36" rx="8.0010004" ry="8.0010004" sodipodi:cx="343.99899" sodipodi:cy="92" sodipodi:rx="36" sodipodi:ry="36" style="opacity:0.8;fill:none;fill-opacity:1;stroke:url(#linearGradient4272);stroke-width:6.75138187;stroke-miterlimit:4;stroke-dasharray:none;stroke-opacity:1;filter:url(#filter7317)" transform="matrix(-0.858425,-0.2300143,-0.2300143,0.858425,412.45864,32.149572)"/>
    <path d="M 96.000027,4.1481901 C 84.654311,4.1481901 75.173932,12.159796 72.888913,22.826405 C 77.443574,27.0723 86.085806,29.937514 96.000027,29.937514 C 105.91426,29.937514 114.55648,27.0723 119.11114,22.826405 C 116.82613,12.159796 107.34574,4.1481901 96.000027,4.1481901 z" id="circle16776" style="opacity:0.8;fill:url(#linearGradient8927);fill-opacity:1"/>
    <g id="g6850" transform="translate(-26.000031,-3.999996)">
      <path d="M 118.00003,15.999997 L 118.00003,31.999997 L 102.00003,31.999997 L 102.00003,39.999997 L 118.00003,39.999997 L 118.00003,55.999997 L 126.00003,55.999997 L 126.00003,39.999997 L 142.00003,39.999997 L 142.00003,31.999997 L 126.00003,31.999997 L 126.00003,15.999997 L 118.00003,15.999997 z" id="path4123" sodipodi:nodetypes="ccccccccccccc" style="fill:none;fill-opacity:1;fill-rule:evenodd;stroke:url(#linearGradient6930);stroke-width:4;stroke-linecap:round;stroke-linejoin:round;stroke-miterlimit:4;stroke-opacity:1;filter:url(#filter5943)"/>
      <path d="M 118.00003,15.999997 L 118.00003,31.999997 L 102.00003,31.999997 L 102.00003,39.999997 L 118.00003,39.999997 L 118.00003,55.999997 L 126.00003,55.999997 L 126.00003,39.999997 L 142.00003,39.999997 L 142.00003,31.999997 L 126.00003,31.999997 L 126.00003,15.999997 L 118.00003,15.999997 z" id="rect3232" sodipodi:nodetypes="ccccccccccccc" style="fill:#ffffff;fill-opacity:1;fill-rule:evenodd;stroke:none;stroke-width:4;stroke-linecap:round;stroke-linejoin:round;stroke-miterlimit:4;stroke-opacity:1"/>
    </g>
  </g>
</svg>
