<?xml version="1.0" encoding="UTF-8" standalone="no"?>
<!-- Created with Inkscape (http://www.inkscape.org/) -->

<svg
   xmlns:dc="http://purl.org/dc/elements/1.1/"
   xmlns:cc="http://creativecommons.org/ns#"
   xmlns:rdf="http://www.w3.org/1999/02/22-rdf-syntax-ns#"
   xmlns:svg="http://www.w3.org/2000/svg"
   xmlns="http://www.w3.org/2000/svg"
   xmlns:sodipodi="http://sodipodi.sourceforge.net/DTD/sodipodi-0.dtd"
   xmlns:inkscape="http://www.inkscape.org/namespaces/inkscape"
   width="210mm"
   height="297mm"
   viewBox="0 0 744.09448819 1052.3622047"
   id="svg2"
   version="1.1"
   inkscape:version="0.91 r13725"
   sodipodi:docname="mono.svg"
   inkscape:export-filename="/Users/idv/SpiderOakOne/stuff/Development/qn_query/icons/mono_512.png"
   inkscape:export-xdpi="71.947227"
   inkscape:export-ydpi="71.947227">
  <defs
     id="defs4">
    <inkscape:perspective
       sodipodi:type="inkscape:persp3d"
       inkscape:vp_x="0 : 526.1811 : 1"
       inkscape:vp_y="0 : 1000 : 0"
       inkscape:vp_z="744.09449 : 526.1811 : 1"
       inkscape:persp3d-origin="372.04724 : 350.7874 : 1"
       id="perspective4165" />
  </defs>
  <sodipodi:namedview
     id="base"
     pagecolor="#ffffff"
     bordercolor="#666666"
     borderopacity="1.0"
     inkscape:pageopacity="0.0"
     inkscape:pageshadow="2"
     inkscape:zoom="1.8290688"
     inkscape:cx="372.04724"
     inkscape:cy="400.01097"
     inkscape:document-units="px"
     inkscape:current-layer="layer1"
     showgrid="false"
     inkscape:window-width="1920"
     inkscape:window-height="1036"
     inkscape:window-x="0"
     inkscape:window-y="0"
     inkscape:window-maximized="1" />
  <metadata
     id="metadata7">
    <rdf:RDF>
      <cc:Work
         rdf:about="">
        <dc:format>image/svg+xml</dc:format>
        <dc:type
           rdf:resource="http://purl.org/dc/dcmitype/StillImage" />
        <dc:title></dc:title>
      </cc:Work>
    </rdf:RDF>
  </metadata>
  <g
     inkscape:label="Layer 1"
     inkscape:groupmode="layer"
     id="layer1">
    <path
       style="fill:none;fill-rule:evenodd;stroke:#3b3b3b;stroke-width:40;stroke-linecap:butt;stroke-linejoin:round;stroke-miterlimit:4;stroke-dasharray:none;stroke-opacity:1"
       d="m 150.70346,322.7275 c 24.40646,28.37167 43.14837,69.16221 52.92193,113.57287 7.52365,34.18721 6.47279,46.96505 7.60873,78.24981 1.215,33.4623 -0.0358,36.93728 -2.71142,68.05235 7.23326,10.39995 26.14301,48.50137 70.94119,60.89958 44.79818,12.39822 72.45575,16.66931 124.13302,8.64414 47.22625,-7.33396 106.35141,-48.21056 109.2401,-67.50427 2.07441,-17.14005 11.81168,-72.98612 11.67704,-156.73098 -0.13427,-83.51337 -25.5876,-150.24597 -25.20327,-162.65262 0,0 -46.49447,39.68184 -93.97037,53.25815 -52.1989,14.92691 -75.08871,13.45617 -129.3257,15.8825 -46.12709,2.06353 -125.31125,-11.67153 -125.31125,-11.67153 z"
       id="path3336"
       inkscape:connector-curvature="0"
       sodipodi:nodetypes="csscsscscssc" />
    <path
       style="fill:none;fill-rule:evenodd;stroke:#3b3b3b;stroke-width:40;stroke-linecap:butt;stroke-linejoin:round;stroke-miterlimit:4;stroke-dasharray:none;stroke-opacity:1"
       d="m 206.79076,582.36105 c -49.49747,5.05076 -75.83798,36.75452 -71.83131,91.19395 3.29268,44.73831 38.94825,92.04797 92.93402,128.28937 54.52303,36.60207 96.69817,44.64876 167.68533,50.50763 71.36711,5.89023 126.59953,-10.94152 164.23644,-45.19689 38.6082,-35.1394 52.17496,-74.91105 49.91589,-122.48843 -2.31688,-48.79507 -18.76116,-70.49591 -45.90501,-91.43367 -28.97706,-22.35183 -54.20161,-19.09138 -54.20161,-19.09138"
       id="path3338"
       inkscape:connector-curvature="0"
       sodipodi:nodetypes="cssssssc" />
    <path
       style="fill:none;fill-rule:evenodd;stroke:#3b3b3b;stroke-width:40;stroke-linecap:butt;stroke-linejoin:round;stroke-opacity:1;stroke-miterlimit:4;stroke-dasharray:none"
       d="m 190.57911,772.48867 c 0,0 -3.2725,30.19697 -6.59663,44.98242 -3.67091,16.32788 -14.67785,48.01289 -14.67785,48.01289 0,0 35.5237,-19.52961 53.03301,-25.75889 17.50931,-6.22927 52.02285,-11.61675 52.02285,-11.61675"
       id="path3340"
       inkscape:connector-curvature="0"
       sodipodi:nodetypes="cscsc" />
    <text
       xml:space="preserve"
       style="font-style:normal;font-weight:normal;font-size:40px;line-height:125%;font-family:sans-serif;letter-spacing:0px;word-spacing:0px;fill:#000000;fill-opacity:1;stroke:none;stroke-width:1px;stroke-linecap:butt;stroke-linejoin:miter;stroke-opacity:1"
       x="295.71429"
       y="463.79077"
       id="text4185"
       sodipodi:linespacing="125%"><tspan
         sodipodi:role="line"
         id="tspan4187"
         x="295.71429"
         y="463.79077"></tspan></text>
    <path
       style="fill:none;fill-rule:evenodd;stroke:#3b3b3b;stroke-width:40;stroke-linecap:butt;stroke-linejoin:miter;stroke-opacity:1;stroke-miterlimit:4;stroke-dasharray:none"
       d="m 207.71262,587.21852 c -20.19948,17.19505 -29.0627,49.76243 -20.45131,71.50622 8.58418,21.67507 22.58297,42.12249 65.23717,59.88143 47.27521,19.68289 97.22193,33.58721 156.29763,27.71138 54.16633,-5.38753 88.6209,-20.26387 112.69514,-46.40388 22.32447,-24.2401 23.97582,-42.30817 23.20195,-65.73884 -0.75668,-22.91017 -14.36312,-39.22233 -14.36312,-39.22233"
       id="path4231"
       inkscape:connector-curvature="0"
       sodipodi:nodetypes="csssssc" />
    <path
       style="fill:#cccccc;fill-opacity:1;stroke:none;stroke-width:40;stroke-linejoin:round;stroke-miterlimit:4;stroke-dasharray:none;stroke-opacity:1"
       d="m 355.12368,725.92228 c -27.75735,-3.17727 -57.05506,-10.94516 -87.24221,-23.1311 -34.48663,-13.92153 -49.64867,-25.75933 -59.2585,-46.26617 -4.80442,-10.25236 -5.29178,-20.21073 -1.56779,-32.03531 l 1.67525,-5.31933 5.16275,5.57625 c 16.10933,17.39956 29.42235,26.87547 48.28604,34.36893 14.06319,5.5865 48.87926,13.62589 69.11633,15.95967 25.18132,2.90396 63.79842,0.48956 88.28125,-5.51949 30.97603,-7.60274 70.97815,-29.21993 93.45588,-50.50367 l 5.58488,-5.28822 1.94741,4.89759 c 1.07109,2.69368 2.3416,6.7606 2.82338,9.03761 1.24454,5.88209 1.07132,22.92522 -0.29936,29.45374 -2.32213,11.06029 -9.03411,21.56157 -21.3466,33.39797 -19.20747,18.4648 -45.45974,28.976 -86.46246,34.61887 -12.8494,1.76836 -47.49588,2.20185 -60.15625,0.75266 z"
       id="path4237"
       inkscape:connector-curvature="0" />
    <path
       style="fill:#999999;fill-opacity:1;stroke:none;stroke-width:40;stroke-linejoin:round;stroke-miterlimit:4;stroke-dasharray:none;stroke-opacity:1"
       d="m 402.3893,832.44581 c -24.7056,-1.65556 -54.58437,-5.35158 -72.35498,-8.95034 -34.86965,-7.06151 -64.87014,-20.33241 -96.74426,-42.79541 -38.93082,-27.43613 -65.8226,-60.56077 -75.06899,-92.46814 -4.1963,-14.48054 -4.31208,-35.28759 -0.26928,-48.39282 1.58303,-5.13156 5.99736,-14.77929 6.50214,-14.21069 0.13396,0.1509 -0.0333,3.43843 -0.37173,7.30562 -1.64098,18.75228 3.68544,37.35665 15.98444,55.83119 14.8677,22.33303 36.32669,37.53919 73.79982,52.29563 34.3071,13.50969 63.36071,21.18957 95.39784,25.21696 5.31175,0.66774 17.01495,1.02262 33.20313,1.00681 21.4496,-0.0209 26.83067,-0.27309 37.89062,-1.77546 52.1562,-7.08485 84.6397,-20.90875 111.4252,-47.41888 13.67544,-13.53486 21.84203,-25.28699 27.14728,-39.06632 4.66948,-12.12804 5.56815,-18.11665 5.56815,-37.10556 0,-9.23828 -0.26989,-18.01443 -0.59974,-19.50256 l -0.59973,-2.70569 2.82614,2.70569 c 7.45303,7.13539 13.72104,17.37918 17.4328,28.49036 6.47332,19.37791 7.8269,50.19563 3.19373,72.71319 -4.04938,19.6803 -12.61682,37.15645 -26.25201,53.54969 -34.00635,40.88501 -88.51203,59.94063 -158.11057,55.27673 z"
       id="path4239"
       inkscape:connector-curvature="0" />
  </g>
</svg>
