<?xml version="1.0" encoding="UTF-8" standalone="no"?>
<!-- Created with Inkscape (http://www.inkscape.org/) -->
<svg
   xmlns:dc="http://purl.org/dc/elements/1.1/"
   xmlns:cc="http://web.resource.org/cc/"
   xmlns:rdf="http://www.w3.org/1999/02/22-rdf-syntax-ns#"
   xmlns:svg="http://www.w3.org/2000/svg"
   xmlns="http://www.w3.org/2000/svg"
   xmlns:xlink="http://www.w3.org/1999/xlink"
   xmlns:sodipodi="http://sodipodi.sourceforge.net/DTD/sodipodi-0.dtd"
   xmlns:inkscape="http://www.inkscape.org/namespaces/inkscape"
   width="128"
   height="128"
   id="svg1307"
   sodipodi:version="0.32"
   inkscape:version="0.45.1"
   version="1.0"
   sodipodi:docbase="/home/david/Oxygen/trunk/scalable/status"
   sodipodi:docname="dialog-password.svgz"
   inkscape:output_extension="org.inkscape.output.svgz.inkscape"
   inkscape:export-filename="/home/david/Oxygen/dialog-password.png"
   inkscape:export-xdpi="90"
   inkscape:export-ydpi="90">
  <defs
     id="defs1309">
    <linearGradient
       inkscape:collect="always"
       id="linearGradient3779">
      <stop
         style="stop-color:#ffffff;stop-opacity:1;"
         offset="0"
         id="stop3781" />
      <stop
         style="stop-color:#ffffff;stop-opacity:0;"
         offset="1"
         id="stop3783" />
    </linearGradient>
    <linearGradient
       inkscape:collect="always"
       id="linearGradient3771">
      <stop
         style="stop-color:#ffffff;stop-opacity:1;"
         offset="0"
         id="stop3773" />
      <stop
         style="stop-color:#ffffff;stop-opacity:0;"
         offset="1"
         id="stop3775" />
    </linearGradient>
    <linearGradient
       inkscape:collect="always"
       id="linearGradient3737">
      <stop
         style="stop-color:#000000;stop-opacity:1;"
         offset="0"
         id="stop3739" />
      <stop
         style="stop-color:#000000;stop-opacity:0;"
         offset="1"
         id="stop3741" />
    </linearGradient>
    <linearGradient
       inkscape:collect="always"
       id="linearGradient3698">
      <stop
         style="stop-color:#ffffff;stop-opacity:1;"
         offset="0"
         id="stop3700" />
      <stop
         style="stop-color:#ffffff;stop-opacity:0;"
         offset="1"
         id="stop3702" />
    </linearGradient>
    <linearGradient
       inkscape:collect="always"
       id="linearGradient3688">
      <stop
         style="stop-color:#000000;stop-opacity:1;"
         offset="0"
         id="stop3690" />
      <stop
         style="stop-color:#000000;stop-opacity:0;"
         offset="1"
         id="stop3692" />
    </linearGradient>
    <linearGradient
       inkscape:collect="always"
       id="linearGradient3678">
      <stop
         style="stop-color:#ffffff;stop-opacity:1;"
         offset="0"
         id="stop3680" />
      <stop
         style="stop-color:#ffffff;stop-opacity:0;"
         offset="1"
         id="stop3682" />
    </linearGradient>
    <linearGradient
       inkscape:collect="always"
       id="linearGradient3668">
      <stop
         style="stop-color:#000000;stop-opacity:1;"
         offset="0"
         id="stop3670" />
      <stop
         style="stop-color:#cecece;stop-opacity:0"
         offset="1"
         id="stop3672" />
    </linearGradient>
    <linearGradient
       inkscape:collect="always"
       id="linearGradient5022">
      <stop
         style="stop-color:white;stop-opacity:1;"
         offset="0"
         id="stop5024" />
      <stop
         style="stop-color:white;stop-opacity:0;"
         offset="1"
         id="stop5026" />
    </linearGradient>
    <linearGradient
       inkscape:collect="always"
       id="linearGradient3205">
      <stop
         style="stop-color:black;stop-opacity:1;"
         offset="0"
         id="stop3207" />
      <stop
         style="stop-color:black;stop-opacity:0;"
         offset="1"
         id="stop3210" />
    </linearGradient>
    <linearGradient
       id="linearGradient3146">
      <stop
         style="stop-color:white;stop-opacity:1;"
         offset="0"
         id="stop3148" />
      <stop
         id="stop3183"
         offset="0"
         style="stop-color:white;stop-opacity:0.49803922;" />
      <stop
         style="stop-color:#ccc;stop-opacity:0.24705882;"
         offset="0.75"
         id="stop3185" />
      <stop
         style="stop-color:white;stop-opacity:0;"
         offset="1"
         id="stop3150" />
    </linearGradient>
    <linearGradient
       inkscape:collect="always"
       id="linearGradient3134">
      <stop
         style="stop-color:white;stop-opacity:1;"
         offset="0"
         id="stop3136" />
      <stop
         style="stop-color:white;stop-opacity:0;"
         offset="1"
         id="stop3138" />
    </linearGradient>
    <linearGradient
       inkscape:collect="always"
       id="linearGradient3092">
      <stop
         style="stop-color:white;stop-opacity:1;"
         offset="0"
         id="stop3094" />
      <stop
         style="stop-color:white;stop-opacity:0;"
         offset="1"
         id="stop3096" />
    </linearGradient>
    <linearGradient
       id="linearGradient2930">
      <stop
         style="stop-color:black;stop-opacity:0.50180507;"
         offset="0"
         id="stop2932" />
      <stop
         id="stop2938"
         offset="0.13736264"
         style="stop-color:black;stop-opacity:0;" />
      <stop
         style="stop-color:white;stop-opacity:0;"
         offset="0.29486871"
         id="stop2940" />
      <stop
         id="stop2942"
         offset="0.58544481"
         style="stop-color:white;stop-opacity:0.79061371;" />
      <stop
         style="stop-color:black;stop-opacity:0;"
         offset="1"
         id="stop2934" />
    </linearGradient>
    <linearGradient
       inkscape:collect="always"
       id="linearGradient2917">
      <stop
         style="stop-color:black;stop-opacity:1;"
         offset="0"
         id="stop2919" />
      <stop
         style="stop-color:black;stop-opacity:0;"
         offset="1"
         id="stop2921" />
    </linearGradient>
    <linearGradient
       id="linearGradient2890">
      <stop
         style="stop-color:#434542;stop-opacity:1;"
         offset="0"
         id="stop2892" />
      <stop
         id="stop2898"
         offset="0.07692308"
         style="stop-color:#cecfce;stop-opacity:1;" />
      <stop
         style="stop-color:white;stop-opacity:1;"
         offset="1"
         id="stop2894" />
    </linearGradient>
    <linearGradient
       id="linearGradient3225">
      <stop
         style="stop-color:#ffffff;stop-opacity:1;"
         offset="0"
         id="stop3227" />
      <stop
         style="stop-color:#aeaeae;stop-opacity:1;"
         offset="1"
         id="stop3229" />
    </linearGradient>
    <filter
       inkscape:collect="always"
       id="filter3753">
      <feGaussianBlur
         inkscape:collect="always"
         stdDeviation="0.59349418"
         id="feGaussianBlur3755" />
    </filter>
    <filter
       inkscape:collect="always"
       id="filter3829">
      <feGaussianBlur
         inkscape:collect="always"
         stdDeviation="0.57079104"
         id="feGaussianBlur3831" />
    </filter>
    <filter
       inkscape:collect="always"
       id="filter3833">
      <feGaussianBlur
         inkscape:collect="always"
         stdDeviation="0.51442491"
         id="feGaussianBlur3835" />
    </filter>
    <linearGradient
       inkscape:collect="always"
       xlink:href="#linearGradient3771"
       id="linearGradient3838"
       gradientUnits="userSpaceOnUse"
       x1="2.8306181"
       y1="59.085014"
       x2="72.203644"
       y2="40.496567" />
    <linearGradient
       inkscape:collect="always"
       xlink:href="#linearGradient3779"
       id="linearGradient3841"
       gradientUnits="userSpaceOnUse"
       x1="93.33567"
       y1="106.69383"
       x2="74.893776"
       y2="37.005783" />
    <radialGradient
       inkscape:collect="always"
       xlink:href="#linearGradient3737"
       id="radialGradient3844"
       gradientUnits="userSpaceOnUse"
       gradientTransform="matrix(1,0,0,1.1322208,0,-5.7392089)"
       cx="45.357376"
       cy="86.038712"
       fx="45.357376"
       fy="86.038712"
       r="36.515625" />
    <linearGradient
       inkscape:collect="always"
       xlink:href="#linearGradient3698"
       id="linearGradient3847"
       gradientUnits="userSpaceOnUse"
       x1="161.70087"
       y1="-29.581095"
       x2="114.86171"
       y2="-76.33387"
       gradientTransform="matrix(0.986833,0,0,0.984047,-49.34941,113.3279)" />
    <radialGradient
       inkscape:collect="always"
       xlink:href="#linearGradient5022"
       id="radialGradient3850"
       gradientUnits="userSpaceOnUse"
       gradientTransform="matrix(0.8237677,-0.8214874,0.2309977,0.2303582,-9.6375725,82.613254)"
       cx="29.341269"
       cy="2.4504917"
       fx="29.341269"
       fy="2.4504917"
       r="63.399038" />
    <radialGradient
       inkscape:collect="always"
       xlink:href="#linearGradient3146"
       id="radialGradient3853"
       gradientUnits="userSpaceOnUse"
       gradientTransform="matrix(0.8237677,-0.8214874,7.2779393e-3,7.2577923e-3,17.987705,110.3931)"
       cx="96.350143"
       cy="66.806999"
       fx="96.350143"
       fy="66.806999"
       r="31.649858" />
    <radialGradient
       inkscape:collect="always"
       xlink:href="#linearGradient3205"
       id="radialGradient3856"
       gradientUnits="userSpaceOnUse"
       gradientTransform="matrix(0.8237677,-0.8214874,2.8479339e-3,2.8400502e-3,14.645972,106.82958)"
       cx="96.094643"
       cy="62.475086"
       fx="96.094643"
       fy="62.475086"
       r="30.94986" />
    <radialGradient
       inkscape:collect="always"
       xlink:href="#linearGradient3146"
       id="radialGradient3859"
       gradientUnits="userSpaceOnUse"
       gradientTransform="matrix(1.2030807,-1.1997502,0.1431824,0.142786,-17.700767,144.51639)"
       cx="92.454208"
       cy="71.239235"
       fx="109.07122"
       fy="64.119919"
       r="29.344931" />
    <radialGradient
       inkscape:collect="always"
       xlink:href="#linearGradient3146"
       id="radialGradient3862"
       gradientUnits="userSpaceOnUse"
       gradientTransform="matrix(0.4797071,-0.1251117,4.6075092e-2,0.1756849,3.4169877,58.561962)"
       cx="32.381508"
       cy="14.567998"
       fx="32.381508"
       fy="14.567998"
       r="63.893538" />
    <radialGradient
       inkscape:collect="always"
       xlink:href="#linearGradient3146"
       id="radialGradient3865"
       gradientUnits="userSpaceOnUse"
       gradientTransform="matrix(0.7655545,-0.7634353,0.1287649,0.1284082,-3.8506732,92.929759)"
       cx="98.227898"
       cy="44.293781"
       fx="98.227898"
       fy="44.293781"
       r="63.893538" />
    <radialGradient
       inkscape:collect="always"
       xlink:href="#linearGradient3146"
       id="radialGradient3868"
       gradientUnits="userSpaceOnUse"
       gradientTransform="matrix(0.7655545,-0.7634353,0.1287649,0.1284082,-3.8506732,92.929759)"
       cx="98.227898"
       cy="44.293781"
       fx="98.227898"
       fy="44.293781"
       r="63.893538" />
    <linearGradient
       inkscape:collect="always"
       xlink:href="#linearGradient3134"
       id="linearGradient3872"
       gradientUnits="userSpaceOnUse"
       gradientTransform="matrix(1.2951856,0,0,1.2951856,-97.588168,5.8864649)"
       x1="-11.687261"
       y1="43.783871"
       x2="66.459869"
       y2="88.829872" />
    <linearGradient
       inkscape:collect="always"
       xlink:href="#linearGradient3092"
       id="linearGradient3875"
       gradientUnits="userSpaceOnUse"
       gradientTransform="matrix(0.7507259,-0.7486477,0.7507259,0.7486477,-31.208642,59.856941)"
       x1="79.971962"
       y1="-4.4959302"
       x2="-8.2177124"
       y2="148.00919" />
    <linearGradient
       inkscape:collect="always"
       xlink:href="#linearGradient2930"
       id="linearGradient3878"
       gradientUnits="userSpaceOnUse"
       gradientTransform="matrix(0.8967396,-0.8942571,0.8967396,0.8942571,-49.678005,60.897006)"
       x1="94.15625"
       y1="58.84375"
       x2="94.15625"
       y2="50.607132" />
    <linearGradient
       inkscape:collect="always"
       xlink:href="#linearGradient2917"
       id="linearGradient3881"
       gradientUnits="userSpaceOnUse"
       gradientTransform="matrix(0.8967396,-0.8942571,0.8967396,0.8942571,-49.678005,60.897006)"
       x1="94.478127"
       y1="67.146591"
       x2="94.478127"
       y2="64.642754" />
    <linearGradient
       inkscape:collect="always"
       xlink:href="#linearGradient2890"
       id="linearGradient3884"
       gradientUnits="userSpaceOnUse"
       gradientTransform="matrix(0.8967396,-0.8942571,0.8967396,0.8942571,-49.678005,60.897006)"
       x1="64.15625"
       y1="63.796875"
       x2="127.31514"
       y2="63.796875" />
    <linearGradient
       inkscape:collect="always"
       xlink:href="#linearGradient2890"
       id="linearGradient3887"
       gradientUnits="userSpaceOnUse"
       gradientTransform="matrix(0.8967396,-0.8942571,0.8967396,0.8942571,-49.678005,60.897006)"
       x1="63.498344"
       y1="49.15625"
       x2="124.625"
       y2="49.15625" />
    <linearGradient
       inkscape:collect="always"
       xlink:href="#linearGradient3225"
       id="linearGradient3890"
       gradientUnits="userSpaceOnUse"
       gradientTransform="matrix(0.8967391,-0.8942557,0.8967391,0.8942557,-49.678006,60.897)"
       x1="132.77945"
       y1="22.707912"
       x2="-20.653816"
       y2="91.103127" />
    <radialGradient
       inkscape:collect="always"
       xlink:href="#linearGradient3678"
       id="radialGradient3893"
       gradientUnits="userSpaceOnUse"
       gradientTransform="matrix(1.3348785,-1.3348786,0.3564955,0.3564955,-75.341094,227.72298)"
       cx="92.813255"
       cy="-54.063927"
       fx="92.813255"
       fy="-54.063927"
       r="60.286509" />
    <radialGradient
       inkscape:collect="always"
       xlink:href="#linearGradient3688"
       id="radialGradient3896"
       gradientUnits="userSpaceOnUse"
       gradientTransform="matrix(0.5151236,0,0,0.4976768,-15.266544,92.164288)"
       cx="72.253944"
       cy="-43.000839"
       fx="72.253944"
       fy="-43.000839"
       r="60.286509" />
    <radialGradient
       inkscape:collect="always"
       xlink:href="#linearGradient3668"
       id="radialGradient3899"
       gradientUnits="userSpaceOnUse"
       gradientTransform="matrix(0.8657738,-0.2319834,0.4758513,1.7759007,-24.284936,157.05156)"
       cx="119.93565"
       cy="-20.059092"
       fx="119.93565"
       fy="-20.059092"
       r="60.286509" />
    <filter
       inkscape:collect="always"
       id="filter3908">
      <feGaussianBlur
         inkscape:collect="always"
         stdDeviation="2.4348633"
         id="feGaussianBlur3910" />
    </filter>
  </defs>
  <sodipodi:namedview
     id="base"
     pagecolor="#ffffff"
     bordercolor="#666666"
     borderopacity="1.0"
     inkscape:pageopacity="0.0"
     inkscape:pageshadow="2"
     inkscape:zoom="4.640625"
     inkscape:cx="64"
     inkscape:cy="64"
     inkscape:current-layer="layer1"
     showgrid="false"
     inkscape:document-units="px"
     inkscape:grid-bbox="true"
     guidetolerance="0.1px"
     showguides="true"
     inkscape:guide-bbox="true"
     inkscape:window-width="703"
     inkscape:window-height="694"
     inkscape:window-x="40"
     inkscape:window-y="14"
     showborder="false"
     inkscape:grid-points="true"
     gridtolerance="10000" />
  <metadata
     id="metadata1312">
    <rdf:RDF>
      <cc:Work
         rdf:about="">
        <dc:format>image/svg+xml</dc:format>
        <dc:type
           rdf:resource="http://purl.org/dc/dcmitype/StillImage" />
        <cc:license
           rdf:resource="http://creativecommons.org/licenses/GPL/2.0/" />
        <dc:contributor>
          <cc:Agent>
            <dc:title>Oxygen team</dc:title>
          </cc:Agent>
        </dc:contributor>
      </cc:Work>
      <cc:License
         rdf:about="http://creativecommons.org/licenses/LGPL/2.1/">
        <cc:permits
           rdf:resource="http://web.resource.org/cc/Reproduction" />
        <cc:permits
           rdf:resource="http://web.resource.org/cc/Distribution" />
        <cc:requires
           rdf:resource="http://web.resource.org/cc/Notice" />
        <cc:permits
           rdf:resource="http://web.resource.org/cc/DerivativeWorks" />
        <cc:requires
           rdf:resource="http://web.resource.org/cc/ShareAlike" />
        <cc:requires
           rdf:resource="http://web.resource.org/cc/SourceCode" />
      </cc:License>
    </rdf:RDF>
  </metadata>
  <g
     id="layer1"
     inkscape:label="Layer 1"
     inkscape:groupmode="layer">
    <path
       style="opacity:0.5;fill:#000000;fill-opacity:1;fill-rule:nonzero;stroke:#000000;stroke-width:3.04432845;stroke-linecap:round;stroke-linejoin:round;stroke-miterlimit:4;stroke-dasharray:none;stroke-dashoffset:4;stroke-opacity:1;filter:url(#filter3908)"
       d="M 64.966776,-54.053699 C 51.180115,-40.266287 51.180115,-17.857509 64.966776,-4.0700883 C 78.753439,9.7173084 101.13174,9.6880484 114.91839,-4.0993593 C 121.13538,-10.316671 124.54922,-18.276047 125.16039,-26.398834 C 125.1648,-26.457589 125.15625,-26.515658 125.16038,-26.574427 C 125.15467,-26.689883 125.16707,-26.810176 125.16038,-26.925595 C 125.00992,-29.523837 124.60453,-32.086232 123.9606,-34.622135 L 172.39057,-83.054726 C 172.78083,-83.445013 173.14339,-83.866295 173.41477,-84.313092 C 174.51598,-85.426679 175.1998,-87.010068 175.1998,-88.790555 L 175.17054,-104.44701 C 175.17053,-107.82777 172.72056,-110.56327 169.63986,-110.56327 L 158.08105,-110.53401 C 158.08105,-110.073 157.93681,-109.62889 157.58357,-109.27563 L 156.4716,-108.1636 L 151.43839,-108.1636 C 150.43927,-108.16359 149.62408,-107.34835 149.62409,-106.34919 L 149.68262,-102.66189 L 144.12269,-102.66189 C 143.84352,-102.66188 143.56795,-102.56925 143.33258,-102.45703 C 143.24962,-102.42328 143.17676,-102.38664 143.09849,-102.33998 C 143.07489,-102.32407 143.06274,-102.29842 143.03995,-102.28145 C 142.93986,-102.21521 142.86491,-102.16492 142.7766,-102.0766 L 139.44063,-98.740446 C 139.39109,-98.690906 139.36617,-98.618346 139.32358,-98.564866 C 138.92212,-98.234836 138.65054,-97.752421 138.65054,-97.189434 L 138.6798,-90.370828 L 132.65166,-84.34236 L 125.80417,-84.34236 C 124.80507,-84.34236 123.98987,-83.527116 123.98987,-82.527968 L 123.98987,-78.606537 L 118.72256,-78.606537 C 117.72347,-78.606535 116.90826,-77.791284 116.90826,-76.792143 L 116.93753,-68.627374 L 113.95272,-65.642404 C 113.24627,-64.935905 112.11332,-64.965168 111.40685,-65.671669 L 109.35846,-67.720177 C 108.2135,-68.865205 107.02329,-68.486913 106.19808,-67.661647 L 100.55035,-62.013618 C 98.682012,-62.820923 96.762,-63.487612 94.814844,-64.003597 C 94.748196,-64.02126 94.676724,-64.015542 94.610005,-64.032863 C 84.083692,-65.432662 73.049773,-62.137137 64.966776,-54.053699 z M 65.871044,-39.857583 C 69.782012,-43.768756 76.094021,-43.798022 80.004983,-39.886848 C 83.915945,-35.975672 83.945208,-29.604786 80.034246,-25.69361 C 76.123281,-21.78244 69.752743,-21.811702 65.841782,-25.722875 C 61.930823,-29.634047 61.960083,-35.946409 65.871044,-39.857583 z "
       id="path3708"
       sodipodi:nodetypes="cssssscccccccccccccsssccsccccccccccccccscccsssc"
       inkscape:transform-center-x="-6.7434713"
       inkscape:transform-center-y="-14.299617"
       transform="matrix(0.986833,0,0,0.984047,-49.34941,115.3279)" />
    <path
       inkscape:transform-center-y="-14.299617"
       inkscape:transform-center-x="-6.7434713"
       sodipodi:nodetypes="cssssscccccccccccccsssccsccccccccccccccscccsssc"
       id="path3747"
       d="M 65.980119,-53.037487 C 52.193458,-39.250075 52.193458,-16.841297 65.980119,-3.0538767 C 79.766782,10.73352 102.14508,10.70426 115.93173,-3.0831477 C 122.14872,-9.3004594 125.56256,-17.259835 126.17373,-25.382622 C 126.17814,-25.441377 126.16959,-25.499446 126.17372,-25.558215 C 126.16801,-25.673671 126.18041,-25.793964 126.17372,-25.909383 C 126.02326,-28.507625 125.61787,-31.07002 124.97394,-33.605923 L 172.39057,-83.054725 C 172.78083,-83.445012 173.14339,-83.866294 173.41477,-84.313091 C 174.51598,-85.426678 175.1998,-87.010067 175.1998,-88.790554 L 175.17054,-104.44701 C 175.17053,-107.82777 172.72056,-110.56327 169.63986,-110.56327 L 159.09439,-109.5178 C 159.09439,-109.05679 158.95015,-108.61268 158.59691,-108.25942 L 157.48494,-107.14739 L 152.45173,-107.14739 C 151.45261,-107.14738 150.63742,-106.33214 150.63743,-105.33298 L 150.69596,-101.64568 L 145.13603,-101.64568 C 144.85686,-101.64567 144.58129,-101.55304 144.34592,-101.44082 C 144.26296,-101.40707 144.1901,-101.37043 144.11183,-101.32377 C 144.08823,-101.30786 144.07608,-101.28221 144.05329,-101.26524 C 143.9532,-101.199 143.87825,-101.14871 143.78994,-101.06039 L 140.45397,-97.724234 C 140.40443,-97.674694 140.37951,-97.602134 140.33692,-97.548654 C 139.93546,-97.218624 139.66388,-96.736209 139.66388,-96.173222 L 139.69314,-89.354616 L 133.665,-83.326148 L 126.81751,-83.326148 C 125.81841,-83.326148 125.00321,-82.510904 125.00321,-81.511756 L 125.00321,-77.590325 L 119.7359,-77.590325 C 118.73681,-77.590323 117.9216,-76.775072 117.9216,-75.775931 L 117.95087,-67.611162 L 114.96606,-64.626192 C 114.25961,-63.919693 113.12666,-63.948956 112.42019,-64.655457 L 110.3718,-66.703965 C 109.22684,-67.848993 108.03663,-67.470701 107.21142,-66.645435 L 101.56369,-60.997406 C 99.695355,-61.804711 97.775343,-62.4714 95.828187,-62.987385 C 95.761539,-63.005048 95.690067,-62.99933 95.623348,-63.016651 C 85.097035,-64.41645 74.063116,-61.120925 65.980119,-53.037487 z M 66.884387,-38.841371 C 70.795355,-42.752544 77.107364,-42.78181 81.018326,-38.870636 C 84.929288,-34.95946 84.958551,-28.588574 81.047589,-24.677398 C 77.136624,-20.766228 70.766086,-20.79549 66.855125,-24.706663 C 62.944166,-28.617835 62.973426,-34.930197 66.884387,-38.841371 z "
       style="opacity:0.80748668;fill:#000000;fill-opacity:1;fill-rule:nonzero;stroke:none;stroke-width:4.05910444;stroke-linecap:round;stroke-linejoin:round;stroke-miterlimit:4;stroke-dasharray:none;stroke-dashoffset:4;stroke-opacity:1;filter:url(#filter3753)"
       transform="matrix(0.986833,0,0,0.984047,-49.34941,113.3279)" />
    <path
       inkscape:transform-center-y="-14.299617"
       inkscape:transform-center-x="-6.7434713"
       sodipodi:nodetypes="cssssscccccccccccccsssccsccccccccccccccscccsssc"
       id="path2677"
       d="M 15.761949,61.13652 C 2.1568167,74.703981 2.1568167,96.755272 15.761949,110.32274 C 29.367083,123.89019 51.450726,123.86139 65.055847,110.29394 C 71.190978,104.17581 74.559868,96.343411 75.16299,88.350207 C 75.167342,88.292389 75.158905,88.235247 75.162981,88.177415 C 75.157346,88.063801 75.169583,87.945427 75.162981,87.831849 C 75.014502,85.275057 74.61445,80.75354 73.978998,78.258093 L 121.77129,30.598147 C 122.15641,30.214086 122.5142,29.799525 122.78201,29.359855 C 123.86872,28.264033 124.54353,26.705904 124.54353,24.953821 L 124.51466,9.5471347 C 124.51465,6.220308 122.09694,3.5284474 119.0568,3.5284474 L 107.65018,5.5572375 C 107.65018,6.010893 107.50784,6.4479181 107.15925,6.7955425 L 106.06193,7.8898323 L 101.09499,7.8898323 C 100.10902,7.8898422 99.304567,8.6920766 99.304577,9.675297 L 99.362336,13.303774 L 93.875614,13.303774 C 93.60012,13.303783 93.328178,13.394936 93.095907,13.505365 C 93.01404,13.538577 92.942139,13.574632 92.8649,13.620548 C 92.84161,13.636204 92.82962,13.661445 92.80713,13.678144 C 92.708358,13.743328 92.634395,13.792815 92.547248,13.879726 L 89.255203,17.162656 C 89.206315,17.211409 89.181723,17.282809 89.139694,17.33544 C 88.74352,17.660208 88.475516,18.134924 88.475516,18.688929 L 88.50439,25.398758 L 82.555623,31.331054 L 75.798294,31.331054 C 74.812349,31.331054 74.007883,32.133292 74.007883,33.116501 L 74.007883,36.975373 L 68.809927,36.975373 C 67.823992,36.975375 67.019516,37.777621 67.019516,38.760822 L 67.048401,46.795339 L 64.102892,49.73269 C 63.405744,50.427918 62.287711,50.399122 61.590543,49.703892 L 59.569125,47.688063 C 58.43924,46.561302 57.264702,46.933559 56.450357,47.74566 L 50.876991,53.303586 C 49.033256,52.50916 47.138525,51.853106 45.217007,51.345353 C 45.151237,51.327972 45.080706,51.333598 45.014865,51.316554 C 34.627152,49.939086 23.738517,53.182037 15.761949,61.13652 z M 16.65431,75.106165 C 20.513783,71.257387 26.742681,71.228588 30.602148,75.077367 C 34.461614,78.926148 34.490492,85.1954 30.631025,89.044181 C 26.771556,92.892956 20.484899,92.86416 16.625434,89.015382 C 12.76597,85.166605 12.794845,78.954944 16.65431,75.106165 z "
       style="fill:#bbbbbb;fill-opacity:1;fill-rule:nonzero;stroke:none;stroke-width:0.48889723;stroke-linecap:round;stroke-linejoin:round;stroke-miterlimit:4;stroke-dasharray:none;stroke-dashoffset:4;stroke-opacity:1" />
    <path
       style="opacity:0.28877007;fill:url(#radialGradient3899);fill-opacity:1;fill-rule:nonzero;stroke:none;stroke-width:0.48889723;stroke-linecap:round;stroke-linejoin:round;stroke-miterlimit:4;stroke-dasharray:none;stroke-dashoffset:4;stroke-opacity:1"
       d="M 15.761949,61.13652 C 2.1568167,74.703981 2.1568167,96.755272 15.761949,110.32274 C 29.367083,123.89019 51.450726,123.86139 65.055847,110.29394 C 71.190978,104.17581 74.559868,96.343411 75.16299,88.350207 C 75.167342,88.292389 75.158905,88.235247 75.162981,88.177415 C 75.157346,88.063801 75.169583,87.945427 75.162981,87.831849 C 75.014502,85.275057 74.61445,80.75354 73.978998,78.258093 L 121.77129,30.598147 C 122.15641,30.214086 122.5142,29.799525 122.78201,29.359855 C 123.86872,28.264033 124.54353,26.705904 124.54353,24.953821 L 124.51466,9.5471347 C 124.51465,6.220308 122.09694,3.5284474 119.0568,3.5284474 L 107.65018,5.5572375 C 107.65018,6.010893 107.50784,6.4479181 107.15925,6.7955425 L 106.06193,7.8898323 L 101.09499,7.8898323 C 100.10902,7.8898422 99.304567,8.6920766 99.304577,9.675297 L 99.362336,13.303774 L 93.875614,13.303774 C 93.60012,13.303783 93.328178,13.394936 93.095907,13.505365 C 93.01404,13.538577 92.942139,13.574632 92.8649,13.620548 C 92.84161,13.636204 92.82962,13.661445 92.80713,13.678144 C 92.708358,13.743328 92.634395,13.792815 92.547248,13.879726 L 89.255203,17.162656 C 89.206315,17.211409 89.181723,17.282809 89.139694,17.33544 C 88.74352,17.660208 88.475516,18.134924 88.475516,18.688929 L 88.50439,25.398758 L 82.555623,31.331054 L 75.798294,31.331054 C 74.812349,31.331054 74.007883,32.133292 74.007883,33.116501 L 74.007883,36.975373 L 68.809927,36.975373 C 67.823992,36.975375 67.019516,37.777621 67.019516,38.760822 L 67.048401,46.795339 L 64.102892,49.73269 C 63.405744,50.427918 62.287711,50.399122 61.590543,49.703892 L 59.569125,47.688063 C 58.43924,46.561302 57.264702,46.933559 56.450357,47.74566 L 50.876991,53.303586 C 49.033256,52.50916 47.138525,51.853106 45.217007,51.345353 C 45.151237,51.327972 45.080706,51.333598 45.014865,51.316554 C 34.627152,49.939086 23.738517,53.182037 15.761949,61.13652 z M 16.65431,75.106165 C 20.513783,71.257387 26.742681,71.228588 30.602148,75.077367 C 34.461614,78.926148 34.490492,85.1954 30.631025,89.044181 C 26.771556,92.892956 20.484899,92.86416 16.625434,89.015382 C 12.76597,85.166605 12.794845,78.954944 16.65431,75.106165 z "
       id="path3666"
       sodipodi:nodetypes="cssssscccccccccccccsssccsccccccccccccccscccsssc"
       inkscape:transform-center-x="-6.7434713"
       inkscape:transform-center-y="-14.299617" />
    <path
       style="fill:url(#radialGradient3896);fill-opacity:1;fill-rule:nonzero;stroke:none;stroke-width:0.48889723;stroke-linecap:round;stroke-linejoin:round;stroke-miterlimit:4;stroke-dasharray:none;stroke-dashoffset:4;stroke-opacity:1"
       d="M 15.761949,61.13652 C 2.1568167,74.703981 2.1568167,96.755272 15.761949,110.32274 C 29.367083,123.89019 51.450726,123.86139 65.055847,110.29394 C 71.190978,104.17581 74.559868,96.343411 75.16299,88.350207 C 75.167342,88.292389 75.158905,88.235247 75.162981,88.177415 C 75.157346,88.063801 75.169583,87.945427 75.162981,87.831849 C 75.014502,85.275057 74.61445,79.75354 73.978998,77.258092 L 121.77129,29.598146 C 122.15641,29.214086 122.5142,28.799524 122.78201,28.359855 C 123.86872,27.264033 124.54353,25.705904 124.54353,23.953821 L 124.51466,8.5471363 C 124.51465,5.2203096 122.09694,2.528449 119.0568,2.528449 L 107.65018,5.5572375 C 107.65018,6.010893 107.50784,6.4479181 107.15925,6.7955425 L 106.06193,7.8898323 L 101.09499,7.8898323 C 100.10902,7.8898422 99.304567,8.6920766 99.304577,9.675297 L 99.362336,13.303774 L 93.875614,13.303774 C 93.60012,13.303783 93.328178,13.394936 93.095907,13.505365 C 93.01404,13.538577 92.942139,13.574632 92.8649,13.620548 C 92.84161,13.636204 92.82962,13.661445 92.80713,13.678144 C 92.708358,13.743328 92.634395,13.792815 92.547248,13.879726 L 89.255203,17.162661 C 89.206315,17.21141 89.181723,17.282813 89.139694,17.33544 C 88.74352,17.660205 88.475516,18.134924 88.475516,18.688929 L 88.50439,25.398758 L 82.555623,31.331054 L 75.798294,31.331054 C 74.812349,31.331054 74.007883,32.133292 74.007883,33.116501 L 74.007883,36.975373 L 68.809927,36.975373 C 67.823992,36.975375 67.019516,37.777621 67.019516,38.760822 L 67.048401,46.795339 L 64.102892,49.73269 C 63.405744,50.427918 62.287711,50.399122 61.590543,49.703892 L 59.569125,47.688063 C 58.43924,46.561302 57.264702,46.933559 56.450357,47.74566 L 50.876991,53.303586 C 49.033256,52.50916 47.138525,51.853106 45.217007,51.345353 C 45.151237,51.327972 45.080706,51.333598 45.014865,51.316554 C 34.627152,49.939086 23.738517,53.182037 15.761949,61.13652 z M 16.65431,75.106165 C 20.513783,71.257387 26.742681,71.228588 30.602148,75.077367 C 34.461614,78.926148 34.490492,85.1954 30.631025,89.044181 C 26.771556,92.892956 20.484899,92.86416 16.625434,89.015382 C 12.76597,85.166605 12.794845,78.954944 16.65431,75.106165 z "
       id="path3686"
       sodipodi:nodetypes="cssssscccccccccccccsssccsccccccccccccccscccsssc"
       inkscape:transform-center-x="-6.7434713"
       inkscape:transform-center-y="-14.299617" />
    <path
       inkscape:transform-center-y="-14.299617"
       inkscape:transform-center-x="-6.7434713"
       sodipodi:nodetypes="cssssscccccccccccccsssccsccccccccccccccscccsssc"
       id="path3676"
       d="M 15.761949,61.13652 C 2.1568167,74.703981 2.1568167,96.755272 15.761949,110.32274 C 29.367083,123.89019 51.450726,123.86139 65.055847,110.29394 C 71.190978,104.17581 74.559868,96.343411 75.16299,88.350207 C 75.167342,88.292389 75.158905,88.235247 75.162981,88.177415 C 75.157346,88.063801 75.169583,87.945427 75.162981,87.831849 C 75.014502,85.275057 74.61445,79.75354 73.978998,77.258092 L 121.77129,29.598146 C 122.15641,29.214086 122.5142,28.799524 122.78201,28.359855 C 123.86872,27.264033 124.54353,25.705904 124.54353,23.953821 L 124.51466,8.5471363 C 124.51465,5.2203096 122.09694,2.528449 119.0568,2.528449 L 107.65018,5.5572375 C 107.65018,6.010893 107.50784,6.4479181 107.15925,6.7955425 L 106.06193,7.8898323 L 101.09499,7.8898323 C 100.10902,7.8898422 99.304567,8.6920766 99.304577,9.675297 L 99.362336,13.303774 L 93.875614,13.303774 C 93.60012,13.303783 93.328178,13.394936 93.095907,13.505365 C 93.01404,13.538577 92.942139,13.574632 92.8649,13.620548 C 92.84161,13.636204 92.82962,13.661445 92.80713,13.678144 C 92.708358,13.743328 92.634395,13.792815 92.547248,13.879726 L 89.255203,17.162661 C 89.206315,17.21141 89.181723,17.282813 89.139694,17.33544 C 88.74352,17.660205 88.475516,18.134924 88.475516,18.688929 L 88.50439,25.398758 L 82.555623,31.331054 L 75.798294,31.331054 C 74.812349,31.331054 74.007883,32.133292 74.007883,33.116501 L 74.007883,36.975373 L 68.809927,36.975373 C 67.823992,36.975375 67.019516,37.777621 67.019516,38.760822 L 67.048401,46.795339 L 64.102892,49.73269 C 63.405744,50.427918 62.287711,50.399122 61.590543,49.703892 L 59.569125,47.688063 C 58.43924,46.561302 57.264702,46.933559 56.450357,47.74566 L 50.876991,53.303586 C 49.033256,52.50916 47.138525,51.853106 45.217007,51.345353 C 45.151237,51.327972 45.080706,51.333598 45.014865,51.316554 C 34.627152,49.939086 23.738517,53.182037 15.761949,61.13652 z M 16.65431,75.106165 C 20.513783,71.257387 26.742681,71.228588 30.602148,75.077367 C 34.461614,78.926148 34.490492,85.1954 30.631025,89.044181 C 26.771556,92.892956 20.484899,92.86416 16.625434,89.015382 C 12.76597,85.166605 12.794845,78.954944 16.65431,75.106165 z "
       style="opacity:0.79144383;fill:url(#radialGradient3893);fill-opacity:1;fill-rule:nonzero;stroke:none;stroke-width:0.48889723;stroke-linecap:round;stroke-linejoin:round;stroke-miterlimit:4;stroke-dasharray:none;stroke-dashoffset:4;stroke-opacity:1" />
    <path
       style="fill:url(#linearGradient3890);fill-opacity:1;fill-rule:nonzero;stroke:none;stroke-width:0.48889723;stroke-linecap:round;stroke-linejoin:round;stroke-miterlimit:4;stroke-dasharray:none;stroke-dashoffset:4;stroke-opacity:1"
       d="M 15.083112,57.258577 C 1.5806819,70.723621 1.5806819,92.608452 15.083112,106.07351 C 28.585545,119.53854 50.502488,119.50996 64.004909,106.04492 C 70.093728,99.972975 73.437187,92.199699 74.035751,84.266834 C 74.040073,84.209453 74.031695,84.152742 74.035741,84.095347 C 74.030156,83.98259 74.042294,83.86511 74.035741,83.752389 C 73.888387,81.214898 73.491355,78.712415 72.860699,76.235805 L 120.29222,28.935632 C 120.67444,28.55447 121.02952,28.143038 121.2953,27.706688 C 122.37381,26.619138 123.04354,25.072771 123.04354,23.333914 L 123.01488,8.0435306 C 123.01487,4.7418168 120.6154,2.0702768 117.59822,2.0702768 L 106.27771,2.0988535 C 106.27771,2.5490845 106.13644,2.9828131 105.79049,3.3278101 L 104.70144,4.4138437 L 99.772,4.4138437 C 98.793476,4.4138536 97.995089,5.2100263 97.995099,6.185827 L 98.052424,9.7869175 L 92.607119,9.7869175 C 92.333707,9.7869273 92.063818,9.8773908 91.833304,9.9869841 C 91.752048,10.01995 91.68069,10.05573 91.604033,10.101301 C 91.580921,10.116839 91.56902,10.141883 91.546708,10.158464 C 91.448676,10.223155 91.375275,10.272269 91.288779,10.358521 L 88.021592,13.616661 C 87.97307,13.665047 87.948665,13.735908 87.906952,13.788141 C 87.513768,14.110456 87.247787,14.581588 87.247787,15.131412 L 87.276445,21.790589 L 81.372578,27.678104 L 74.666258,27.678104 C 73.687764,27.678104 72.889367,28.474287 72.889367,29.450074 L 72.889367,33.279816 L 67.730648,33.279816 C 66.752154,33.279818 65.953756,34.076008 65.953756,35.051787 L 65.982424,43.025654 L 63.059148,45.940831 C 62.36726,46.630811 61.257665,46.602231 60.565767,45.91225 L 58.559604,43.911638 C 57.438246,42.793383 56.272579,43.16283 55.464373,43.9688 L 49.933085,49.484771 C 48.103265,48.696342 46.222835,48.045241 44.315822,47.54132 C 44.250548,47.52407 44.18055,47.529654 44.115206,47.512739 C 33.805908,46.145668 22.999468,49.364139 15.083112,57.258577 z M 15.968738,71.122769 C 19.799076,67.303044 25.980955,67.274462 29.811287,71.094188 C 33.641619,74.913915 33.670279,81.135842 29.839947,84.95557 C 26.009611,88.775291 19.77041,88.746713 15.940079,84.926988 C 12.10975,81.107265 12.138407,74.942494 15.968738,71.122769 z "
       id="path1969"
       sodipodi:nodetypes="cssssscccccccccccccsssccsccccccccccccccscccsssc"
       inkscape:transform-center-x="-6.692567"
       inkscape:transform-center-y="-14.191674" />
    <path
       id="path2944"
       d="M 51.541524,47.874385 C 51.606389,47.972146 51.679217,48.06759 51.765713,48.153839 L 58.939634,55.3079 C 59.631542,55.997897 60.741778,56.025843 61.433686,55.335846 L 114.84577,2.0716249 L 106.29872,2.0995718 C 106.29872,2.549793 106.14024,2.9841907 105.7943,3.3291779 L 104.70139,4.4190592 L 99.769316,4.4190592 C 98.790812,4.4190493 98.003862,5.2038268 98.003872,6.1796177 L 98.031888,9.7845951 L 92.595405,9.7845951 C 92.321993,9.7845951 92.069285,9.8706304 91.838771,9.9802237 C 91.757515,10.013189 91.691269,10.046421 91.614602,10.091992 C 91.59148,10.10754 91.580852,10.131304 91.55854,10.147905 C 91.460508,10.212587 91.364815,10.2852 91.278319,10.371451 L 88.027642,13.613128 C 87.979109,13.661524 87.957251,13.728577 87.915537,13.78081 C 87.522353,14.103125 87.242991,14.572377 87.242991,15.122195 L 87.271007,21.801185 L 81.386157,27.669751 L 74.660604,27.669751 C 73.682109,27.669751 72.89515,28.454533 72.89515,29.430321 L 72.89515,33.286805 L 67.738888,33.286807 C 66.760404,33.286807 65.973434,34.071596 65.973434,35.047376 L 65.973434,43.039804 L 63.05903,45.946141 C 62.367132,46.636124 61.256866,46.608179 60.564967,45.918197 L 58.547308,43.906116 C 57.42595,42.787862 56.272974,43.156037 55.464768,43.962007 L 51.541524,47.874385 z "
       style="fill:url(#linearGradient3887);fill-opacity:1;fill-rule:nonzero;stroke:none;stroke-width:0.2;stroke-linecap:round;stroke-linejoin:round;stroke-miterlimit:4;stroke-dasharray:none;stroke-dashoffset:4;stroke-opacity:1" />
    <path
       style="fill:url(#linearGradient3884);fill-opacity:1;fill-rule:nonzero;stroke:none;stroke-width:0.2;stroke-linecap:round;stroke-linejoin:round;stroke-miterlimit:4;stroke-dasharray:none;stroke-dashoffset:4;stroke-opacity:1"
       d="M 67.459861,54.524229 C 66.767953,55.214225 63.229278,58.747302 64.759264,60.273058 L 65.267631,60.780019 C 66.700542,62.208961 70.366696,58.947173 71.058604,58.257177 L 122.77072,6.6882224 C 122.35186,4.8169291 121.12194,3.3191406 119.52002,2.6081765 L 67.459861,54.524229 z "
       id="path2900"
       sodipodi:nodetypes="ccccccc" />
    <path
       sodipodi:nodetypes="ccccccc"
       id="path2915"
       d="M 69.253341,56.312743 C 68.561433,57.00274 63.814233,59.330646 65.048386,60.561382 L 65.267631,60.780019 C 66.682355,62.190827 70.366696,58.947173 71.058604,58.257177 L 122.86039,6.5987922 C 122.44155,4.7274989 121.21162,3.2297105 119.6097,2.5187562 L 69.253341,56.312743 z "
       style="fill:url(#linearGradient3881);fill-opacity:1;fill-rule:nonzero;stroke:none;stroke-width:0.2;stroke-linecap:round;stroke-linejoin:round;stroke-miterlimit:4;stroke-dasharray:none;stroke-dashoffset:4;stroke-opacity:1" />
    <path
       style="fill:url(#linearGradient3878);fill-opacity:1;fill-rule:nonzero;stroke:none;stroke-width:0.2;stroke-linecap:round;stroke-linejoin:round;stroke-miterlimit:4;stroke-dasharray:none;stroke-dashoffset:4;stroke-opacity:1"
       d="M 51.541524,47.874385 C 51.606389,47.972146 51.679217,48.06759 51.765713,48.153839 L 58.939634,55.3079 C 59.631542,55.997897 60.741778,56.025843 61.433686,55.335846 L 114.84577,2.0716249 L 106.29872,2.0995718 C 106.29872,2.549793 106.14024,2.9841907 105.7943,3.3291779 L 104.70139,4.4190592 L 99.769316,4.4190592 C 98.790812,4.4190493 98.003862,5.2038268 98.003872,6.1796177 L 98.031888,9.7845951 L 92.595405,9.7845951 C 92.321993,9.7845951 92.069285,9.8706304 91.838771,9.9802237 C 91.757515,10.013189 91.691269,10.046421 91.614602,10.091992 C 91.59148,10.10754 91.580852,10.131304 91.55854,10.147905 C 91.460508,10.212587 91.364815,10.2852 91.278319,10.371451 L 88.027642,13.613128 C 87.979109,13.661524 87.957251,13.728577 87.915537,13.78081 C 87.522353,14.103125 87.242991,14.572377 87.242991,15.122195 L 87.271007,21.801185 L 81.386157,27.669751 L 74.660604,27.669751 C 73.682109,27.669751 72.89515,28.454533 72.89515,29.430321 L 72.89515,33.286805 L 67.738888,33.286807 C 66.760404,33.286807 65.973434,34.071596 65.973434,35.047376 L 65.973434,43.039804 L 63.05903,45.946141 C 62.367132,46.636124 61.256866,46.608179 60.564967,45.918197 L 58.547308,43.906116 C 57.42595,42.787862 56.272974,43.156037 55.464768,43.962007 L 51.541524,47.874385 z "
       id="path2927" />
    <path
       style="fill:url(#linearGradient3875);fill-opacity:1;fill-rule:nonzero;stroke:none;stroke-width:0.2;stroke-linecap:round;stroke-linejoin:round;stroke-miterlimit:4;stroke-dasharray:none;stroke-dashoffset:4;stroke-opacity:1"
       d="M 18.923502,63.260409 C 18.694536,63.512034 18.511437,63.803222 18.292992,64.060655 L 18.923501,64.689419 L 19.439374,62.803127 L 19.410714,62.774546 C 19.253183,62.939819 19.076348,63.092439 18.923502,63.260409 z M 20.471117,61.717079 L 20.241839,62.574485 L 21.904092,64.232136 L 22.5346,62.002881 L 21.41688,60.888254 C 21.10052,61.163679 20.778262,61.425625 20.471117,61.717079 z M 21.99007,60.430971 L 22.735218,61.174057 L 23.193771,59.459244 C 22.77506,59.769514 22.395653,60.09514 21.99007,60.430971 z M 17.83444,64.632259 C 17.611476,64.908774 17.385505,65.172614 17.175271,65.461084 C 17.529572,65.298398 17.900299,65.192878 18.264333,65.060962 L 17.83444,64.632259 z M 24.139536,58.8019 L 24.053555,59.059122 L 25.429213,60.430971 L 26.031064,58.173135 L 25.68715,57.830174 C 25.165104,58.139912 24.646041,58.456193 24.139536,58.8019 z M 20.041224,63.40331 L 19.69731,64.603679 C 20.124381,64.498909 20.553519,64.411038 20.986989,64.346457 L 20.041224,63.40331 z M 23.852939,59.887947 L 23.308408,61.74566 L 24.712725,63.146089 L 25.199938,61.231217 L 23.852939,59.887947 z M 27.091468,57.001348 L 26.83353,57.944495 L 28.524443,59.630725 L 29.011654,57.773013 L 27.865273,56.629806 C 27.602256,56.756005 27.351537,56.866613 27.091468,57.001348 z M 28.553102,56.286844 L 29.212271,56.944189 L 29.498866,55.915301 C 29.190387,56.040572 28.858241,56.150287 28.553102,56.286844 z M 26.632914,58.77332 L 26.031063,61.031155 L 27.693316,62.688807 L 28.295166,60.430971 L 26.632914,58.77332 z M 23.107793,62.574486 L 22.6779,64.203555 C 23.252469,64.186467 23.824651,64.208406 24.397471,64.260716 L 24.483449,63.946334 L 23.107793,62.574486 z M 30.358653,55.572338 L 29.814121,57.544372 L 31.189778,58.916221 L 31.791628,56.658386 L 30.616588,55.486598 C 30.522577,55.520191 30.452402,55.537721 30.358653,55.572338 z M 31.390395,55.229376 L 32.020905,55.85814 L 32.25018,54.943574 C 31.962476,55.027295 31.676153,55.136304 31.390395,55.229376 z M 25.801787,61.831401 L 25.285916,63.717693 L 26.031063,64.460777 C 26.398455,64.538024 26.75867,64.639959 27.120125,64.74658 L 27.492699,63.517631 L 25.801787,61.831401 z M 33.081307,54.686353 L 32.594096,56.429745 L 34.256348,58.087394 L 34.800877,56.229683 L 33.224604,54.657773 C 33.170945,54.671315 33.13491,54.672489 33.081307,54.686353 z M 29.584845,58.344617 L 29.097633,60.20233 L 30.473291,61.574179 L 30.960502,59.716466 L 29.584845,58.344617 z M 34.084391,54.486291 L 35.001496,55.400857 L 35.31675,54.22907 C 34.911217,54.299784 34.487749,54.397569 34.084391,54.486291 z M 32.393479,57.258571 L 31.762969,59.487825 L 33.453881,61.174057 L 34.055731,58.916221 L 32.393479,57.258571 z M 28.897017,61.031155 L 28.266505,63.260409 L 29.670823,64.660839 L 30.244014,62.374424 L 28.897017,61.031155 z M 36.090557,54.143329 L 35.574686,55.972461 L 36.979003,57.372891 L 37.552192,55.086475 L 36.52045,54.057588 C 36.371994,54.076827 36.23884,54.121693 36.090557,54.143329 z M 37.466215,53.971848 L 37.781469,54.28623 L 37.867448,53.914689 C 37.723967,53.926093 37.609626,53.958216 37.466215,53.971848 z M 31.562352,60.31665 L 31.075141,62.174363 L 32.737393,63.832013 L 33.224605,61.974301 L 31.562352,60.31665 z M 28.065889,64.089236 L 27.807955,64.975221 C 28.338074,65.161081 28.846392,65.410421 29.355568,65.661146 L 29.412888,65.432504 L 28.065889,64.089236 z M 35.374068,56.801287 L 34.858198,58.687579 L 36.233855,60.059427 L 36.721067,58.144557 L 35.374068,56.801287 z M 38.641255,53.886107 L 38.383319,54.886414 L 40.045571,56.544065 L 40.532783,54.629192 L 39.730317,53.828947 C 39.375787,53.833911 38.99597,53.867492 38.641255,53.886107 z M 30.845864,62.974608 L 30.244014,65.232443 L 31.906266,66.890094 L 32.536777,64.660839 L 30.845864,62.974608 z M 38.154043,55.686659 L 37.552193,57.944495 L 39.214446,59.602145 L 39.844956,57.372892 L 38.154043,55.686659 z M 34.628922,59.487825 L 34.027071,61.74566 L 35.402729,63.11751 L 36.004578,60.859674 L 34.628922,59.487825 z M 41.507207,53.886108 L 41.36391,54.429131 L 42.739568,55.800981 L 43.22678,54.000429 C 42.652513,53.934172 42.085447,53.915708 41.507207,53.886108 z M 37.351576,58.77332 L 36.807046,60.631032 L 38.497957,62.317262 L 39.013828,60.430971 L 37.351576,58.77332 z M 41.134633,55.229376 L 40.618763,57.11567 L 42.023079,58.516097 L 42.510291,56.601226 L 41.134633,55.229376 z M 33.826456,62.574486 L 33.310584,64.403618 L 34.7149,65.804046 L 35.173452,63.917754 L 33.826456,62.574486 z M 43.914608,54.114749 L 43.341417,56.401164 L 45.00367,58.058815 L 45.57686,55.7724 L 43.914608,54.114749 z M 36.606428,61.459858 L 36.004578,63.717692 L 37.666831,65.375344 L 38.268682,63.11751 L 36.606428,61.459858 z M 33.109967,65.232442 L 32.508116,67.490277 L 33.883773,68.862127 L 34.485624,66.604292 L 33.109967,65.232442 z M 40.418146,57.944495 L 39.816295,60.202329 L 41.191953,61.574178 L 41.793803,59.316343 L 40.418146,57.944495 z M 45.089649,54.25765 L 45.834796,55.000734 L 45.949434,54.429133 C 45.663924,54.366075 45.377066,54.311292 45.089649,54.25765 z M 35.775302,64.517938 L 35.288092,66.375651 L 36.950343,68.033301 L 37.466214,66.204168 L 35.775302,64.517938 z M 43.112141,57.201409 L 42.59627,59.087703 L 44.258522,60.745353 L 44.774394,58.85906 L 43.112141,57.201409 z M 12.188513,88.153755 C 12.257218,88.460296 12.309465,88.792859 12.38913,89.096901 L 12.532427,88.496717 L 12.188513,88.153755 z M 39.587018,61.002575 L 39.071149,62.888868 L 40.446806,64.260716 L 40.962676,62.374425 L 39.587018,61.002575 z M 46.665922,54.629193 L 46.407987,55.572338 L 47.783644,56.944188 L 48.299514,55.057895 C 47.765557,54.887432 47.208946,54.765127 46.665922,54.629193 z M 13.134278,89.096901 L 12.761703,90.383009 C 12.967848,91.029776 13.220956,91.667095 13.478192,92.297883 L 14.19468,93.012386 L 14.796531,90.754553 L 13.134278,89.096901 z M 35.087474,67.204476 L 34.456964,69.433731 L 36.147876,71.119962 L 36.749727,68.862127 L 35.087474,67.204476 z M 42.395653,59.916527 L 41.765143,62.145782 L 43.456055,63.832013 L 44.057906,61.574179 L 42.395653,59.916527 z M 46.17871,56.372584 L 45.57686,58.630419 L 46.981177,60.030848 L 47.554367,57.744432 L 46.17871,56.372584 z M 38.870531,63.717693 L 38.240022,65.946948 L 39.644338,67.347377 L 40.217528,65.060961 L 38.870531,63.717693 z M 14.624572,89.554184 L 14.997146,89.925726 L 15.025806,89.839985 C 14.892782,89.74745 14.755042,89.651807 14.624572,89.554184 z M 48.872704,55.629499 L 48.385495,57.544372 L 50.047745,59.202021 L 50.534955,57.287151 L 48.872704,55.629499 z M 41.564526,62.974608 L 41.048656,64.860901 L 42.710907,66.518551 L 43.226778,64.632259 L 41.564526,62.974608 z M 45.347583,59.430664 L 44.860372,61.345537 L 46.23603,62.717386 L 46.723241,60.802513 L 45.347583,59.430664 z M 38.039406,66.775774 L 37.552192,68.633485 L 38.92785,70.005334 L 39.386402,68.119042 L 38.039406,66.775774 z M 49.961772,55.686659 L 50.792893,56.515485 L 50.878876,56.086782 C 50.568941,55.949632 50.276138,55.811282 49.961772,55.686659 z M 15.684976,90.268688 L 15.598996,90.52591 L 16.974654,91.897759 L 17.17527,91.068934 C 16.663351,90.833875 16.171384,90.567984 15.684976,90.268688 z M 40.819378,65.661146 L 40.217529,67.91898 L 41.879781,69.576631 L 42.510291,67.347378 L 40.819378,65.661146 z M 48.156217,58.344617 L 47.583026,60.631032 L 49.21662,62.260103 L 49.818474,60.002268 L 48.156217,58.344617 z M 15.36972,91.326155 L 14.767869,93.58399 L 16.143528,94.95584 L 16.774038,92.726585 L 15.36972,91.326155 z M 37.322917,69.433731 L 36.721066,71.691566 L 38.096724,73.063416 L 38.698574,70.805579 L 37.322917,69.433731 z M 44.631096,62.145782 L 44.029245,64.403616 L 45.404903,65.775466 L 46.035414,63.546212 L 44.631096,62.145782 z M 35.460047,71.462925 C 35.598179,71.712229 35.739434,71.950496 35.861281,72.206009 L 35.9186,71.920208 L 35.460047,71.462925 z M 51.538041,56.344004 L 51.366085,57.087088 L 52.74174,58.458938 L 53.056994,57.17283 C 52.551725,56.8892 52.058309,56.591509 51.538041,56.344004 z M 40.016912,68.747807 L 39.5297,70.605518 L 41.191952,72.263169 L 41.679165,70.405458 L 40.016912,68.747807 z M 47.353751,61.431278 L 46.837878,63.31757 L 48.500131,64.97522 L 48.987344,63.060348 L 47.353751,61.431278 z M 51.136804,57.887334 L 50.620937,59.773627 L 52.02525,61.174055 L 52.512469,59.259183 L 51.136804,57.887334 z M 14.567254,94.412816 L 14.481275,94.555717 C 14.8462,95.250878 15.281617,95.919834 15.713634,96.58491 L 15.942911,95.784665 L 14.567254,94.412816 z M 36.52045,72.520392 L 36.319833,73.234896 C 36.580722,73.918962 36.771325,74.61161 36.921683,75.32125 L 37.380235,75.778532 L 37.867447,73.86366 L 36.52045,72.520392 z M 43.828629,65.232443 L 43.284098,67.090155 L 44.688414,68.490583 L 45.204286,66.604293 L 43.828629,65.232443 z M 17.8631,91.354736 L 17.576504,92.497943 L 19.238756,94.155594 L 19.725968,92.297883 L 19.238756,91.812019 C 18.780612,91.682155 18.308724,91.531559 17.8631,91.354736 z M 17.347228,93.298188 L 16.745378,95.556024 L 18.40763,97.213674 L 19.009481,94.95584 L 17.347228,93.298188 z M 39.300424,71.405763 L 38.698574,73.663599 L 40.360826,75.32125 L 40.962676,73.063415 L 39.300424,71.405763 z M 46.608603,64.117815 L 46.035414,66.404231 L 47.669005,68.033301 L 48.270856,65.775466 L 46.608603,64.117815 z M 50.391657,60.573871 L 49.818464,62.860286 L 51.194129,64.232136 L 51.795979,61.974301 L 50.391657,60.573871 z M 43.083481,67.91898 L 42.481631,70.176815 L 43.857289,71.548665 L 44.459138,69.29083 L 43.083481,67.91898 z M 53.744826,57.572952 L 53.372247,59.087702 L 55.005841,60.716772 L 55.550375,58.744741 C 54.973098,58.327881 54.348354,57.936621 53.744826,57.572952 z M 20.585754,92.126402 L 21.904092,93.44109 L 22.219348,92.326461 C 21.674743,92.292995 21.124263,92.222365 20.585754,92.126402 z M 16.516101,96.356269 L 16.258166,97.413735 C 16.742744,98.1011 17.246382,98.7678 17.80578,99.414349 L 18.207014,98.0425 L 16.516101,96.356269 z M 38.469298,74.463844 L 37.953426,76.350138 L 39.615678,78.007787 L 40.16021,76.150076 L 38.469298,74.463844 z M 45.777476,67.175896 L 45.290265,69.090768 L 46.923858,70.719839 L 47.468389,68.862127 L 45.777476,67.175896 z M 53.114319,59.859368 L 52.6271,61.774239 L 54.260693,63.40331 L 54.805228,61.545598 L 53.114319,59.859368 z M 20.299159,92.869486 L 19.811947,94.727199 L 21.187604,96.099048 L 21.703475,94.269915 L 20.299159,92.869486 z M 42.252356,70.977061 L 41.765143,72.834773 L 43.1408,74.206622 L 43.656671,72.37749 L 42.252356,70.977061 z M 49.589194,63.660533 L 49.073323,65.546825 L 50.448982,66.918674 L 50.964849,65.032381 L 49.589194,63.660533 z M 37.09364,76.521618 C 37.099499,76.568754 37.116919,76.617337 37.1223,76.664519 L 37.15096,76.578779 L 37.09364,76.521618 z M 37.752809,77.178962 L 37.208279,79.150995 C 37.201885,79.254439 37.188284,79.362066 37.17962,79.465377 L 38.813211,81.094448 L 39.415062,78.836614 L 37.752809,77.178962 z M 45.060988,69.891013 L 44.459137,72.148848 L 46.12139,73.806499 L 46.723241,71.548665 L 45.060988,69.891013 z M 52.397829,62.574485 L 51.795979,64.832319 L 53.45823,66.489971 L 54.06008,64.232136 L 52.397829,62.574485 z M 19.611331,95.556023 L 18.98082,97.785278 L 20.385137,99.185707 L 20.986988,96.927873 L 19.611331,95.556023 z M 41.564526,73.663599 L 40.934017,75.892854 L 42.338333,77.293283 L 42.940184,75.035448 L 41.564526,73.663599 z M 48.872705,66.37565 L 48.242196,68.604904 L 49.646509,70.005333 L 50.248359,67.747499 L 48.872705,66.37565 z M 56.123567,59.202021 L 55.579033,61.288376 L 56.983356,62.688805 L 57.585205,60.430971 L 57.126654,59.973687 C 56.802696,59.698687 56.457926,59.458527 56.123567,59.202021 z M 22.935835,92.355043 L 22.477282,94.012694 L 24.168194,95.698924 L 24.770046,93.441089 L 23.680983,92.355042 C 23.432264,92.365103 23.184707,92.357994 22.935835,92.355043 z M 24.655406,92.297882 L 24.970662,92.612264 L 25.085299,92.212142 C 24.941002,92.232468 24.800159,92.282 24.655406,92.297882 z M 22.276666,94.841519 L 21.789455,96.699232 L 23.451707,98.356883 L 23.938918,96.49917 L 22.276666,94.841519 z M 44.229862,72.949094 L 43.77131,74.835386 L 45.404903,76.464458 L 45.892115,74.606745 L 44.229862,72.949094 z M 51.566698,65.632566 L 51.079489,67.547438 L 52.713083,69.17651 L 53.228949,67.290216 L 51.566698,65.632566 z M 55.349762,62.088622 L 54.862543,64.003495 L 56.266866,65.403923 L 56.754075,63.489051 L 55.349762,62.088622 z M 18.780204,98.614104 L 18.378971,100.04311 C 18.613614,100.29663 18.84874,100.51158 19.095459,100.75762 C 19.313016,100.97457 19.531224,101.20737 19.754628,101.41496 L 20.155861,99.985953 L 18.780204,98.614104 z M 37.064982,80.379943 C 36.966305,81.038596 36.798668,81.681386 36.606428,82.323396 L 38.068065,83.780986 L 38.583936,81.894692 L 37.064982,80.379943 z M 40.733401,76.721679 L 40.217529,78.607972 L 41.593186,79.979821 L 42.109057,78.093528 L 40.733401,76.721679 z M 48.041579,69.433731 L 47.525709,71.320023 L 48.901365,72.691872 L 49.417238,70.80558 L 48.041579,69.433731 z M 25.887766,92.097821 L 25.572512,93.212448 L 26.948169,94.584297 L 27.46404,92.698004 L 26.661574,91.897758 C 26.403061,91.964693 26.149006,92.04569 25.887766,92.097821 z M 21.560178,97.499476 L 20.958328,99.757311 L 22.620581,101.41496 L 23.251091,99.185708 L 21.560178,97.499476 z M 43.513374,75.607051 L 42.940183,77.893467 L 44.573777,79.522538 L 45.204287,77.293283 L 43.513374,75.607051 z M 58.158388,61.002574 L 57.585205,63.288989 L 59.218799,64.91806 L 59.849306,62.688806 L 58.158388,61.002574 z M 27.46404,91.669118 L 27.693316,91.897758 L 27.779295,91.583376 C 27.675669,91.619564 27.568321,91.635407 27.46404,91.669118 z M 50.850208,68.347683 L 50.248359,70.605518 L 51.881952,72.234589 L 52.512469,70.005334 L 50.850208,68.347683 z M 25.343235,94.012693 L 24.741385,96.270529 L 26.117042,97.642378 L 26.747552,95.413123 L 25.343235,94.012693 z M 39.988252,79.408217 L 39.386402,81.666052 L 40.76206,83.037901 L 41.39257,80.808647 L 39.988252,79.408217 z M 47.296431,72.120269 L 46.694581,74.378103 L 48.070239,75.749953 L 48.700748,73.520698 L 47.296431,72.120269 z M 54.633272,64.803739 L 54.031422,67.061574 L 55.435735,68.462004 L 56.037585,66.204169 L 54.633272,64.803739 z M 36.377153,83.123641 C 36.188429,83.639475 35.969053,84.143097 35.717984,84.638392 L 35.574686,85.181414 L 37.236939,86.839066 L 37.867448,84.609812 L 36.377153,83.123641 z M 28.581762,91.297574 L 28.266506,92.469363 L 29.92876,94.127015 L 30.559269,91.897759 L 29.498866,90.840293 C 29.201447,90.99038 28.886997,91.169789 28.581762,91.297574 z M 30.158035,90.46875 L 30.759886,91.068935 L 31.075141,89.897146 C 30.77276,90.103699 30.472183,90.28825 30.158035,90.46875 z M 34.428305,86.667585 C 34.322055,86.809707 34.254024,86.985929 34.141709,87.124867 L 34.285007,87.267768 L 34.428305,86.667585 z M 32.192861,89.06832 L 33.453881,90.32585 L 34.084391,88.096593 L 33.625839,87.639311 C 33.447411,87.838525 33.273059,88.048274 33.081306,88.239496 C 32.785605,88.534379 32.507253,88.805034 32.192861,89.06832 z M 20.757712,100.58614 L 20.356477,101.95799 C 20.923748,102.45372 21.5052,102.92042 22.104708,103.35841 L 22.419964,102.24379 L 20.757712,100.58614 z M 28.06589,93.298188 L 27.550019,95.184481 L 29.183612,96.813551 L 29.24093,96.756392 L 29.728142,94.955839 L 28.06589,93.298188 z M 35.374069,86.010241 L 34.886858,87.867953 L 36.52045,89.497023 L 36.577769,89.439863 L 37.036322,87.66789 L 35.374069,86.010241 z M 42.710907,78.693712 L 42.195035,80.580006 L 43.828628,82.209076 L 43.885948,82.151914 L 44.373159,80.351363 L 42.710907,78.693712 z M 57.355925,64.089236 L 56.840058,65.975528 L 58.502309,67.633178 L 59.018176,65.746887 L 57.355925,64.089236 z M 50.047745,71.434345 L 49.503211,73.292056 L 51.136804,74.921126 L 51.194129,74.863967 L 51.681339,73.063415 L 50.047745,71.434345 z M 53.802142,67.86182 L 53.286275,69.748113 L 54.719245,71.177122 L 55.206464,69.262249 L 53.802142,67.86182 z M 24.540769,97.099354 L 24.024897,98.928486 L 25.429215,100.32892 L 25.916425,98.471203 L 24.540769,97.099354 z M 31.877607,89.782826 L 31.333076,91.640538 L 32.737393,93.040968 L 33.253264,91.154674 L 31.877607,89.782826 z M 39.185787,82.494876 L 38.641255,84.35259 L 40.045572,85.75302 L 40.561444,83.866725 L 39.185787,82.494876 z M 46.493965,75.206929 L 45.978093,77.036061 L 47.382411,78.43649 L 47.869621,76.578778 L 46.493965,75.206929 z M 27.320742,95.984726 L 26.718892,98.242562 L 27.234764,98.757005 C 27.305683,98.644863 27.423211,98.569078 27.521359,98.471203 L 28.66774,97.327994 L 27.320742,95.984726 z M 34.657581,88.668197 L 34.055731,90.926033 L 34.571602,91.440477 L 36.004579,90.011466 L 34.657581,88.668197 z M 41.965759,81.380249 L 41.39257,83.666665 L 41.879781,84.152528 L 43.312757,82.723519 L 41.965759,81.380249 z M 56.610777,66.775773 L 56.037585,69.062188 L 56.524794,69.548051 L 57.212627,68.862126 C 57.505045,68.570521 57.836779,68.426866 58.215713,68.376263 L 56.610777,66.775773 z M 49.302598,74.120881 L 48.700748,76.378716 L 49.18796,76.86458 L 50.620937,75.43557 L 49.302598,74.120881 z M 23.824281,99.757311 L 23.222431,102.01515 L 24.598088,103.387 L 25.199938,101.12916 L 23.824281,99.757311 z M 31.132459,92.469363 L 30.53061,94.727199 L 30.903183,95.09874 L 32.336159,93.669731 L 31.132459,92.469363 z M 38.440638,85.181414 L 37.838789,87.43925 L 38.211362,87.810792 L 39.644338,86.381782 L 38.440638,85.181414 z M 45.777476,77.864886 L 45.175627,80.122723 L 45.548199,80.494264 L 46.981177,79.065254 L 45.777476,77.864886 z M 53.085651,70.576938 L 52.483812,72.834773 L 52.856381,73.206315 L 54.289351,71.777306 L 53.085651,70.576938 z M 60.393831,63.34615 L 59.820649,65.518245 L 61.224961,66.918673 L 61.683513,65.032381 C 61.281023,64.44456 60.85028,63.905297 60.393831,63.34615 z M 26.489616,99.042807 L 26.002405,100.90052 L 27.664657,102.55817 L 27.979912,101.5007 L 27.4927,101.01484 C 27.091019,100.61427 26.951143,100.07778 27.005488,99.557252 L 26.489616,99.042807 z M 33.826455,91.726278 L 33.654497,92.355042 L 34.055731,91.95492 L 33.826455,91.726278 z M 41.134634,84.438329 L 40.991336,85.038514 L 41.36391,84.66697 L 41.134634,84.438329 z M 55.779646,69.833853 L 55.636358,70.434036 L 56.008927,70.062494 L 55.779646,69.833853 z M 48.471472,77.178962 L 48.328174,77.721986 L 48.672088,77.379023 L 48.471472,77.178962 z M 22.993154,102.81539 L 22.73522,103.8157 C 23.220249,104.14816 23.694321,104.46285 24.196854,104.75884 L 24.397471,104.21582 L 22.993154,102.81539 z M 30.301333,95.527443 L 30.244014,95.756085 L 30.387311,95.613183 L 30.301333,95.527443 z M 37.609513,88.239495 L 37.552192,88.468136 L 37.69549,88.325235 L 37.609513,88.239495 z M 44.946351,80.922967 L 44.88903,81.151608 L 45.032328,81.008708 L 44.946351,80.922967 z M 52.254531,73.635019 L 52.197206,73.863659 L 52.340504,73.720759 L 52.254531,73.635019 z M 59.591368,66.31849 L 59.075501,68.204782 L 59.734666,68.862126 L 60.479813,69.605211 L 60.99568,67.718919 L 59.591368,66.31849 z M 25.801787,101.72934 L 25.171278,103.9586 L 26.862186,105.64483 L 27.46404,103.387 L 25.801787,101.72934 z M 62.228047,65.861207 L 61.798153,67.490277 L 63.460404,69.147923 L 63.661018,68.433425 C 63.240035,67.556118 62.752756,66.693779 62.228047,65.861207 z M 24.970662,104.78742 L 24.856023,105.13039 C 25.131849,105.28207 25.435511,105.3895 25.715809,105.53051 L 24.970662,104.78742 z M 61.568873,68.290523 L 61.081663,70.205395 L 62.743914,71.863044 L 63.231124,69.948171 L 61.568873,68.290523 z M 28.553102,102.07231 L 28.266506,103.15835 L 29.642165,104.5302 L 29.928762,103.44416 L 28.553102,102.07231 z M 28.037232,103.9586 L 27.43538,106.21643 L 27.636,106.4165 C 28.085393,106.59874 28.496632,106.77441 28.954334,106.93094 L 29.44155,105.35903 L 28.037232,103.9586 z M 64.119569,69.519472 L 64.062254,69.74811 L 64.34885,70.033914 C 64.277206,69.854169 64.195348,69.697781 64.119569,69.519472 z M 63.832973,70.548358 L 63.317106,72.434651 L 64.721429,73.835082 L 65.122656,72.234589 C 65.069692,72.056637 65.03614,71.868454 64.979357,71.691565 L 63.832973,70.548358 z M 30.530607,104.04434 L 30.24401,105.13038 L 31.906266,106.78804 L 32.364817,105.01606 C 31.876311,105.03804 31.392449,104.90379 31.017824,104.5302 L 30.530607,104.04434 z M 30.014735,105.93063 L 29.699479,107.15958 C 30.351759,107.36228 30.983239,107.52262 31.648332,107.67402 L 31.676991,107.58828 L 30.014735,105.93063 z M 63.746991,73.892236 C 63.696248,74.27012 63.5522,74.600939 63.259781,74.892546 L 62.571959,75.57847 L 63.890298,76.893161 L 64.463481,74.606742 L 63.746991,73.892236 z M 33.281921,104.78742 L 34.571604,106.07354 L 35.173449,103.81569 L 34.714899,103.35841 L 33.568517,104.50162 C 33.47037,104.5995 33.394376,104.7167 33.281921,104.78742 z M 35.23077,102.84397 L 35.402732,103.01546 L 35.517366,102.55817 L 35.23077,102.84397 z M 36.950342,101.12916 L 38.383318,102.55817 L 38.985171,100.30034 L 38.383318,99.70015 L 36.950342,101.12916 z M 38.899189,99.185706 L 39.214445,99.500089 L 39.44372,98.642682 L 38.899189,99.185706 z M 40.61876,97.470895 L 41.908443,98.757008 L 42.510288,96.499166 L 42.051737,96.041885 L 40.61876,97.470895 z M 42.567608,95.527441 L 42.73957,95.698927 L 42.854204,95.24164 L 42.567608,95.527441 z M 44.25852,93.841211 L 45.691497,95.27022 L 46.29335,93.012388 L 45.691496,92.412201 L 44.25852,93.841211 z M 46.207368,91.897758 L 46.522624,92.212142 L 46.7519,91.354734 L 46.207368,91.897758 z M 47.926939,90.182946 L 49.245281,91.497639 L 49.847122,89.239798 L 49.359913,88.753938 L 47.926939,90.182946 z M 49.87579,88.239494 L 50.076403,88.439559 L 50.219701,87.896532 L 49.87579,88.239494 z M 51.595356,86.524683 L 53.028336,87.953693 L 53.630186,85.695859 L 53.028336,85.095672 L 51.595356,86.524683 z M 53.544203,84.581229 L 53.859467,84.895613 L 54.088738,84.038206 L 53.544203,84.581229 z M 55.235122,82.894999 L 56.553462,84.20969 L 57.155301,81.95185 L 56.668092,81.465989 L 55.235122,82.894999 z M 57.183969,80.951545 L 57.384582,81.15161 L 57.52788,80.608584 L 57.183969,80.951545 z M 58.903535,79.236734 L 60.365173,80.694323 L 60.967023,78.43649 L 60.336515,77.807725 L 58.903535,79.236734 z M 60.852382,77.293281 L 61.167646,77.607664 L 61.396917,76.750257 L 60.852382,77.293281 z M 36.520447,101.72934 L 36.004576,103.61563 L 37.638173,105.24471 L 38.182703,103.387 L 36.520447,101.72934 z M 43.828626,94.441393 L 43.341415,96.299105 L 44.975012,97.92818 L 45.490882,96.099048 L 43.828626,94.441393 z M 51.165462,87.124865 L 50.649595,89.011158 L 52.283188,90.640233 L 52.827723,88.782519 L 51.165462,87.124865 z M 58.473641,79.836916 L 57.986432,81.751789 L 59.620025,83.380864 L 60.135902,81.494571 L 58.473641,79.836916 z M 32.966671,105.50193 L 32.47946,107.35965 L 33.081305,107.95982 C 33.401446,108.01492 33.676379,108.08783 33.998413,108.13131 L 34.370989,106.90236 L 32.966671,105.50193 z M 40.30351,98.185403 L 39.787639,100.0717 L 41.16329,101.44354 L 41.707827,99.585834 L 40.30351,98.185403 z M 47.61169,90.897454 L 47.095818,92.783749 L 48.500128,94.184171 L 49.044666,92.326464 L 47.61169,90.897454 z M 54.919868,83.609506 L 54.432659,85.46722 L 55.836962,86.867643 L 56.352848,85.038517 L 54.919868,83.609506 z M 62.256705,76.292978 L 61.769496,78.207851 L 63.145141,79.579694 L 63.661028,77.693409 L 62.256705,76.292978 z M 65.466567,73.663594 L 65.294611,74.40668 L 65.753173,74.86397 C 65.677601,74.463591 65.560573,74.060148 65.466567,73.663594 z M 65.06534,75.206928 L 64.463481,77.464761 L 66.125742,79.122415 L 66.183057,78.893776 C 66.150067,77.94714 66.085587,77.028597 65.953776,76.092911 L 65.06534,75.206928 z M 35.803961,104.44446 L 35.173449,106.67371 L 36.835705,108.33137 L 37.437558,106.07354 L 35.803961,104.44446 z M 43.140799,97.127932 L 42.510288,99.357186 L 44.172544,101.01484 L 44.774397,98.757008 L 43.140799,97.127932 z M 50.448982,89.839985 L 49.818464,92.069237 L 51.480725,93.726892 L 52.082575,91.46906 L 50.448982,89.839985 z M 57.757161,82.552037 L 57.155301,84.809869 L 58.788905,86.438945 L 59.419412,84.209691 L 57.757161,82.552037 z M 39.587015,100.90052 L 38.956512,103.12978 L 40.360823,104.5302 L 40.962674,102.27237 L 39.587015,100.90052 z M 46.895195,93.612567 L 46.264691,95.841828 L 47.697669,97.270838 L 48.299512,95.012997 L 46.895195,93.612567 z M 54.232036,86.296038 L 53.601528,88.5253 L 55.034508,89.954311 L 55.636348,87.696469 L 54.232036,86.296038 z M 61.568882,79.036677 L 60.938365,81.265931 L 62.342688,82.666361 L 62.944528,80.408521 L 61.568882,79.036677 z M 64.23421,78.265007 L 63.747,80.179881 L 65.409252,81.837536 L 65.896471,79.922662 L 64.23421,78.265007 z M 34.972834,107.50254 L 34.77222,108.21705 C 35.110474,108.25308 35.435641,108.27946 35.775299,108.30278 L 34.972834,107.50254 z M 42.309672,100.18601 L 41.793802,102.07231 L 43.427399,103.70138 L 43.943269,101.81509 L 42.309672,100.18601 z M 49.617851,92.898064 L 49.10198,94.784358 L 50.735578,96.413433 L 51.251445,94.527139 L 49.617851,92.898064 z M 56.92603,85.610116 L 56.467479,87.496408 L 58.101072,89.125483 L 58.588282,87.267771 L 56.92603,85.610116 z M 38.755889,103.95859 L 38.240018,105.84489 L 39.615677,107.21674 L 40.131548,105.33045 L 38.755889,103.95859 z M 46.064068,96.670646 L 45.576857,98.52836 L 46.981175,99.92879 L 47.468386,98.071077 L 46.064068,96.670646 z M 53.400905,89.354119 L 52.885038,91.240412 L 54.289351,92.640843 L 54.805228,90.754549 L 53.400905,89.354119 z M 60.737752,82.094758 L 60.221875,83.981042 L 61.59753,85.352893 L 62.113407,83.466601 L 60.737752,82.094758 z M 41.564527,102.87255 L 40.962675,105.13039 L 42.596273,106.75946 L 43.226775,104.5302 L 41.564527,102.87255 z M 48.872706,95.584605 L 48.270854,97.842437 L 49.904447,99.471513 L 50.534955,97.242251 L 48.872706,95.584605 z M 56.20954,88.268076 L 55.636348,90.554489 L 57.269952,92.183564 L 57.871791,89.925722 L 56.20954,88.268076 z M 63.51772,80.980128 L 62.91587,83.237961 L 64.578131,84.895616 L 65.179971,82.637775 L 63.51772,80.980128 z M 38.010744,106.64514 L 37.609513,108.35995 C 38.188504,108.36116 38.749515,108.33807 39.329081,108.30279 L 39.415062,108.04557 L 38.010744,106.64514 z M 45.347583,99.328606 L 44.745729,101.58644 L 46.150048,102.98687 L 46.780559,100.75762 L 45.347583,99.328606 z M 52.655757,92.040659 L 52.053908,94.298492 L 53.45823,95.698922 L 54.088738,93.469669 L 52.655757,92.040659 z M 59.992594,84.78129 L 59.390745,87.039123 L 60.76641,88.410974 L 61.396917,86.181721 L 59.992594,84.78129 z M 40.76206,105.95921 L 40.217531,107.81693 L 40.590105,108.18847 C 41.153417,108.128 41.74888,108.0548 42.309675,107.95983 L 42.395649,107.58828 L 40.76206,105.95921 z M 48.070239,98.671264 L 47.554369,100.5004 L 49.216617,102.15804 L 49.703824,100.30033 L 48.070239,98.671264 z M 55.407077,91.354736 L 54.89121,93.24103 L 56.524794,94.870096 L 57.069328,93.01239 L 55.407077,91.354736 z M 62.715257,84.066788 L 62.170722,85.924501 L 63.832973,87.582147 L 64.377508,85.724443 L 62.715257,84.066788 z M 44.545114,102.41527 L 44.000585,104.27298 L 45.433562,105.70199 L 45.949433,103.8157 L 44.545114,102.41527 z M 51.853294,95.127317 L 51.30876,96.985032 L 52.74174,98.414042 L 53.257617,96.527748 L 51.853294,95.127317 z M 59.190131,87.867949 L 58.674264,89.697083 L 60.078577,91.097514 L 60.565786,89.2398 L 59.190131,87.867949 z M 66.154399,81.894695 L 65.982444,82.409134 L 66.068417,82.494873 C 66.087423,82.296076 66.139715,82.093613 66.154399,81.894695 z M 47.353753,101.32922 L 46.751901,103.58706 L 48.38549,105.21612 L 48.987343,102.95829 L 47.353753,101.32922 z M 54.66193,94.041276 L 54.06008,96.299109 L 55.722331,97.956755 L 56.324181,95.698923 L 54.66193,94.041276 z M 61.970109,86.753328 L 61.368259,89.011161 L 63.03051,90.668808 L 63.63236,88.410975 L 61.970109,86.753328 z M 43.799969,105.10181 L 43.198118,107.35964 L 43.570691,107.73118 C 44.042361,107.62902 44.50723,107.54361 44.975012,107.4168 L 45.204287,106.50224 L 43.799969,105.10181 z M 51.108147,97.813859 L 50.506297,100.07169 L 51.91061,101.47212 L 52.512469,99.21429 L 51.108147,97.813859 z M 58.473641,90.525909 L 57.871791,92.783743 L 59.247456,94.155594 L 59.849306,91.89776 L 58.473641,90.525909 z M 65.78182,83.237961 L 65.179971,85.495794 L 65.55255,85.867336 C 65.730209,85.064146 65.848165,84.219973 65.953776,83.409439 L 65.78182,83.237961 z M 46.522627,104.3873 L 46.006756,106.2736 L 46.608601,106.87378 C 47.101818,106.7073 47.61276,106.55385 48.098901,106.35934 L 48.184874,106.04495 L 46.522627,104.3873 z M 53.830809,97.099355 L 53.34359,99.014229 L 54.977183,100.6433 L 55.49305,98.757002 L 53.830809,97.099355 z M 61.138988,89.811408 L 60.651769,91.669121 L 62.31402,93.326767 L 62.80123,91.469054 L 61.138988,89.811408 z M 50.277026,100.87194 L 49.789807,102.72965 L 51.194129,104.13008 L 51.709996,102.30095 L 50.277026,100.87194 z M 57.642521,93.58399 L 57.126644,95.470283 L 58.502309,96.842134 L 59.046833,94.984421 L 57.642521,93.58399 z M 64.9507,86.296041 L 64.434823,88.182334 L 64.778744,88.525296 C 64.97617,87.921454 65.196629,87.308091 65.351926,86.696164 L 64.9507,86.296041 z M 45.806132,107.10242 L 45.777471,107.18816 C 45.8014,107.18091 45.810875,107.13832 45.834791,107.131 L 45.806132,107.10242 z M 60.451146,92.497939 L 59.820649,94.727202 L 61.081663,95.984726 C 61.391667,95.540869 61.688171,95.097663 61.970109,94.641454 L 62.113407,94.155594 L 60.451146,92.497939 z M 53.142967,99.843047 L 52.512469,102.07231 L 53.744826,103.30125 C 53.968018,103.14663 54.184145,102.97706 54.403991,102.81539 L 54.77657,101.47212 L 53.142967,99.843047 z M 49.589194,103.55848 L 48.958684,105.78773 L 49.101978,105.93063 C 49.741758,105.64616 50.341831,105.32158 50.964859,104.98749 L 50.993516,104.95891 L 49.589194,103.55848 z M 56.92603,96.29911 L 56.295523,98.528363 L 57.699836,99.928793 L 58.301695,97.67096 L 56.92603,96.29911 z M 64.23421,89.011162 L 63.603702,91.240415 L 63.718333,91.354733 C 64.019919,90.684566 64.302805,90.010887 64.549463,89.325545 L 64.23421,89.011162 z M 59.620025,95.556019 L 59.104149,97.442313 L 59.591368,97.928181 C 59.958075,97.487767 60.315456,97.040779 60.651769,96.584908 L 59.620025,95.556019 z M 52.311856,102.90113 L 51.853294,104.50162 C 52.280198,104.25244 52.697461,103.97453 53.114319,103.70138 L 52.311856,102.90113 z M 56.09491,99.357189 L 55.579033,101.24348 L 55.951612,101.61502 C 56.381871,101.25192 56.77016,100.83548 57.183969,100.44324 L 56.09491,99.357189 z M 58.874878,98.24256 L 58.674264,98.957067 C 58.816171,98.801817 58.994906,98.657286 59.132816,98.499784 L 58.874878,98.24256 z "
       id="path2967" />
    <text
       transform="matrix(0.7080875,-0.7061274,0.7080875,0.7061274,0,0)"
       xml:space="preserve"
       style="font-size:5.41852188px;font-style:normal;font-variant:normal;font-weight:normal;font-stretch:normal;text-align:start;line-height:125%;writing-mode:lr-tb;text-anchor:start;fill:url(#linearGradient3872);fill-opacity:1;stroke:none;stroke-width:0.08470561;stroke-linecap:butt;stroke-linejoin:miter;stroke-miterlimit:4;stroke-dasharray:none;stroke-opacity:1;font-family:Bitstream Vera Sans"
       x="-50.395638"
       y="95.378082"
       id="text3130"
       sodipodi:linespacing="125%"><tspan
         sodipodi:role="line"
         id="tspan3132"
         x="-50.395638"
         y="95.378082"
         style="fill:url(#linearGradient3872);fill-opacity:1;stroke:none;stroke-width:0.08470561;stroke-miterlimit:4;stroke-dasharray:none;stroke-opacity:1">OXYGEN</tspan></text>
    <path
       sodipodi:nodetypes="cscccccccccsssccsccccccccccccccscccsssc"
       id="path3154"
       d="M 15.083125,57.258571 C 1.5806918,70.723625 1.5806918,92.608477 15.083125,106.07353 L 123.0149,8.0434814 C 123.01489,4.7417676 121.02732,2.4809688 118.01012,2.4809688 L 106.68962,2.5095455 C 106.68962,2.9597765 106.54836,3.3935051 106.2024,3.7385021 L 105.11335,4.8245357 L 100.1839,4.8245456 C 99.20539,4.8245456 98.407003,5.6207282 98.407013,6.596519 L 98.464338,10.197619 L 93.019023,10.197619 C 92.745611,10.197629 92.475732,10.288093 92.245218,10.397686 C 92.163962,10.430642 92.092604,10.466431 92.015947,10.512003 C 91.992825,10.527541 91.980924,10.552575 91.958622,10.569166 C 91.86059,10.633847 91.787179,10.682971 91.700683,10.769223 L 88.433496,14.027363 C 88.384984,14.075749 88.360579,14.14661 88.318866,14.198843 C 87.925672,14.521158 87.659691,14.992294 87.659691,15.542115 L 87.688349,22.201298 L 81.784492,28.088818 L 75.078162,28.088818 C 74.099668,28.088818 73.301271,28.885002 73.301271,29.860789 L 73.301271,33.690535 L 68.142562,33.690535 C 67.164068,33.690537 66.36566,34.486726 66.36567,35.462506 L 66.394328,43.43638 L 63.471052,46.351559 C 62.779164,47.041541 61.669569,47.012962 60.977681,46.32298 L 58.971508,44.322365 C 57.85015,43.204109 56.684483,43.573556 55.876277,44.379526 L 49.933105,49.484759 C 48.103284,48.696329 46.222853,48.045227 44.31584,47.541306 C 44.250566,47.524056 44.180568,47.529642 44.115224,47.512725 C 33.805924,46.145654 22.999481,49.364128 15.083125,57.258571 z M 15.96875,71.122774 C 19.799088,67.303046 25.980969,67.274465 29.811301,71.094194 C 33.641634,74.913924 33.670294,81.135855 29.83996,84.955586 C 26.009626,88.775311 19.770423,88.746734 15.940091,84.927005 C 12.109762,81.107279 12.138418,74.942503 15.96875,71.122774 z "
       style="opacity:0.65163933;fill:none;fill-opacity:1;fill-rule:nonzero;stroke:url(#radialGradient3868);stroke-width:1.46731949;stroke-linecap:round;stroke-linejoin:round;stroke-miterlimit:4;stroke-dasharray:none;stroke-dashoffset:4;stroke-opacity:1" />
    <path
       style="opacity:0.84836067;fill:none;fill-opacity:1;fill-rule:nonzero;stroke:url(#radialGradient3865);stroke-width:0.58042383;stroke-linecap:round;stroke-linejoin:round;stroke-miterlimit:4;stroke-dasharray:none;stroke-dashoffset:4;stroke-opacity:1"
       d="M 15.083125,57.258571 C 1.5806918,70.723625 1.5806918,92.608477 15.083125,106.07353 L 123.0149,8.0434814 C 123.01489,4.7417676 120.61543,2.0702276 117.59824,2.0702276 L 106.27774,2.0988043 C 106.27774,2.5490353 106.13647,2.9827639 105.79052,3.3277609 L 104.70147,4.4137945 L 99.77202,4.4137945 C 98.793506,4.4138044 97.995119,5.2099771 97.995129,6.1857778 L 98.052454,9.7868781 L 92.607149,9.7868683 C 92.333727,9.786888 92.063848,9.8773514 91.833333,9.9869447 C 91.752078,10.0199 91.68072,10.05568 91.604062,10.101252 C 91.580941,10.1168 91.56904,10.141834 91.546737,10.158425 C 91.448705,10.223106 91.375295,10.27222 91.288799,10.358482 L 88.021612,13.616622 C 87.973099,13.665007 87.948695,13.735869 87.906981,13.788102 C 87.513798,14.110417 87.247807,14.581549 87.247807,15.131371 L 87.276474,21.790555 L 81.372608,27.678075 L 74.666278,27.678075 C 73.687784,27.678075 72.889396,28.474257 72.889386,29.450045 L 72.889386,33.279791 L 67.730677,33.279791 C 66.752183,33.279794 65.953776,34.075983 65.953786,35.051763 L 65.982444,43.025636 L 63.059168,45.940815 C 62.36728,46.630797 61.257685,46.602218 60.565796,45.912235 L 58.559624,43.911622 C 57.438266,42.793365 56.272599,43.162813 55.464393,43.968782 L 49.933105,49.484759 C 48.103284,48.696329 46.222853,48.045227 44.31584,47.541306 C 44.250566,47.524056 44.180568,47.529642 44.115224,47.512725 C 33.805924,46.145654 22.999481,49.364128 15.083125,57.258571 z M 15.96875,71.122774 C 19.799088,67.303046 25.980969,67.274465 29.811301,71.094194 C 33.641634,74.913924 33.670294,81.135855 29.83996,84.955586 C 26.009626,88.775311 19.770423,88.746734 15.940091,84.927005 C 12.109762,81.107279 12.138418,74.942503 15.96875,71.122774 z "
       id="path3158"
       sodipodi:nodetypes="cscccccccccsssccsccccccccccccccscccsssc" />
    <path
       style="fill:none;fill-opacity:1;fill-rule:nonzero;stroke:url(#radialGradient3862);stroke-width:0.77751178;stroke-linecap:round;stroke-linejoin:round;stroke-miterlimit:4;stroke-dasharray:none;stroke-dashoffset:4;stroke-opacity:1"
       d="M 15.165502,57.340719 C 1.6630687,70.805775 1.6630687,92.690627 15.165502,106.15568 L 123.09728,8.1256297 C 123.09727,4.8239158 120.69781,2.1523758 117.68062,2.1523758 L 106.36011,2.1809525 C 106.36012,2.6311835 106.21884,3.0649121 105.8729,3.4099091 L 104.78384,4.4959428 L 99.854401,4.4959428 C 98.875887,4.4959526 98.077499,5.2921254 98.077499,6.267926 L 98.134825,9.8690264 L 92.68952,9.8690165 C 92.416108,9.8690362 92.146229,9.9594996 91.915704,10.069093 C 91.834458,10.102049 91.7631,10.137829 91.686433,10.18341 C 91.663322,10.198948 91.651421,10.223982 91.629108,10.240573 C 91.531086,10.305254 91.457676,10.354368 91.37118,10.44063 L 88.103993,13.69877 C 88.05547,13.747156 88.031076,13.818017 87.989362,13.87025 C 87.596169,14.192565 87.330187,14.663697 87.330187,15.21352 L 87.358845,21.872703 L 81.454988,27.760223 L 74.748659,27.760223 C 73.770165,27.760223 72.971767,28.556407 72.971767,29.532194 L 72.971767,33.36194 L 67.813048,33.36194 C 66.834554,33.361942 66.036157,34.158132 66.036157,35.133912 L 66.064815,43.107785 L 63.141549,46.022964 C 62.44966,46.712946 61.340065,46.684367 60.648167,45.994385 L 58.642005,43.99377 C 57.520647,42.875514 56.35498,43.244961 55.546773,44.050931 L 50.015486,49.566907 C 48.18566,48.778477 46.305229,48.127376 44.398217,47.623455 C 44.332943,47.606205 44.262945,47.61179 44.197601,47.594873 C 33.888301,46.227803 23.081858,49.446276 15.165502,57.340719 z M 16.051127,71.204923 C 19.881464,67.385195 26.063346,67.356613 29.893678,71.176342 C 33.724011,74.996072 33.752671,81.218005 29.922337,85.037735 C 26.092003,88.85746 19.8528,88.828883 16.022468,85.009154 C 12.192139,81.189427 12.220795,75.024652 16.051127,71.204923 z "
       id="path3144"
       sodipodi:nodetypes="cscccccccccsssccsccccccccccccccscccsssc" />
    <path
       style="opacity:0.63934428;fill:url(#radialGradient3859);fill-opacity:1;fill-rule:nonzero;stroke:none;stroke-width:0.78899997;stroke-linecap:round;stroke-linejoin:round;stroke-miterlimit:4;stroke-dasharray:none;stroke-dashoffset:4;stroke-opacity:1"
       d="M 96.268714,41.539527 C 82.852827,54.918272 74.201914,68.469085 75.49432,73.603206 L 120.28669,28.934831 C 120.66891,28.553669 121.05063,28.138949 121.3164,27.7026 C 122.39491,26.615057 123.04115,25.051628 123.04116,23.312776 L 123.04116,21.669802 C 116.41611,24.201388 106.29873,31.537278 96.268714,41.539527 z "
       id="path3168" />
    <path
       style="fill:none;fill-opacity:0.75;fill-rule:evenodd;stroke:url(#radialGradient3856);stroke-width:0.21088405;stroke-linecap:butt;stroke-linejoin:miter;stroke-miterlimit:4;stroke-dasharray:none;stroke-opacity:1"
       d="M 68.576206,53.403492 L 119.39091,2.7294603"
       id="path3203" />
    <path
       id="path3214"
       d="M 72.436726,57.064583 L 123.25143,6.3905383"
       style="fill:none;fill-opacity:0.75;fill-rule:evenodd;stroke:url(#radialGradient3853);stroke-width:0.64619893;stroke-linecap:butt;stroke-linejoin:miter;stroke-miterlimit:4;stroke-dasharray:none;stroke-opacity:1" />
    <path
       sodipodi:nodetypes="cccccccccsssccscccccccccccccc"
       id="path5012"
       d="M 123.09728,8.1256297 C 123.09727,4.8239158 120.69781,2.1523758 117.68062,2.1523758 L 106.36011,2.1809525 C 106.36012,2.6311835 106.21884,3.0649121 105.8729,3.4099091 L 104.78384,4.4959428 L 99.854401,4.4959428 C 98.875887,4.4959526 98.077499,5.2921254 98.077499,6.267926 L 98.134825,9.8690264 L 92.68952,9.8690165 C 92.416108,9.8690362 92.146229,9.9594996 91.915704,10.069093 C 91.834458,10.102049 91.7631,10.137829 91.686433,10.18341 C 91.663322,10.198948 91.651421,10.223982 91.629108,10.240573 C 91.531086,10.305254 91.457676,10.354368 91.37118,10.44063 L 88.103993,13.69877 C 88.05547,13.747156 88.031076,13.818017 87.989362,13.87025 C 87.596169,14.192565 87.330187,14.663697 87.330187,15.21352 L 87.358845,21.872703 L 81.454988,27.760223 L 74.748659,27.760223 C 73.770165,27.760223 72.971767,28.556407 72.971767,29.532194 L 72.971767,33.36194 L 67.813048,33.36194 C 66.834554,33.361942 66.036157,34.158132 66.036157,35.133912 L 66.064815,43.107785 L 63.141549,46.022964 C 62.44966,46.712946 61.340065,46.684367 60.648167,45.994385 L 58.642005,43.99377 C 57.520647,42.875514 56.35498,43.244961 55.546773,44.050931 L 123.09728,8.1256297 z "
       style="fill:url(#radialGradient3850);fill-opacity:1;fill-rule:nonzero;stroke:none;stroke-width:0.66832721;stroke-linecap:round;stroke-linejoin:round;stroke-miterlimit:4;stroke-dasharray:none;stroke-dashoffset:4;stroke-opacity:1" />
    <path
       inkscape:transform-center-y="-14.191674"
       inkscape:transform-center-x="-6.692567"
       sodipodi:nodetypes="cssssscccccccccccccsssccsccccccccccccccscccsssc"
       id="path3696"
       d="M 15.083112,57.258577 C 1.5806819,70.723621 1.5806819,92.608452 15.083112,106.07351 C 28.585545,119.53854 50.502488,119.50996 64.004909,106.04492 C 70.093728,99.972975 73.437187,92.199699 74.035751,84.266834 C 74.040073,84.209453 74.031695,84.152742 74.035741,84.095347 C 74.030156,83.98259 74.042294,83.86511 74.035741,83.752389 C 73.888387,81.214898 73.491355,78.712415 72.860699,76.235805 L 120.29222,28.935632 C 120.67444,28.55447 121.02952,28.143038 121.2953,27.706688 C 122.37381,26.619138 123.04354,25.072771 123.04354,23.333914 L 123.01488,8.0435306 C 123.01487,4.7418168 120.6154,2.0702768 117.59822,2.0702768 L 106.27771,2.0988535 C 106.27771,2.5490845 106.13644,2.9828131 105.79049,3.3278101 L 104.70144,4.4138437 L 99.772,4.4138437 C 98.793476,4.4138536 97.995089,5.2100263 97.995099,6.185827 L 98.052424,9.7869175 L 92.607119,9.7869175 C 92.333707,9.7869273 92.063818,9.8773908 91.833304,9.9869841 C 91.752048,10.01995 91.68069,10.05573 91.604033,10.101301 C 91.580921,10.116839 91.56902,10.141883 91.546708,10.158464 C 91.448676,10.223155 91.375275,10.272269 91.288779,10.358521 L 88.021592,13.616661 C 87.97307,13.665047 87.948665,13.735908 87.906952,13.788141 C 87.513768,14.110456 87.247787,14.581588 87.247787,15.131412 L 87.276445,21.790589 L 81.372578,27.678104 L 74.666258,27.678104 C 73.687764,27.678104 72.889367,28.474287 72.889367,29.450074 L 72.889367,33.279816 L 67.730648,33.279816 C 66.752154,33.279818 65.953756,34.076008 65.953756,35.051787 L 65.982424,43.025654 L 63.059148,45.940831 C 62.36726,46.630811 61.257665,46.602231 60.565767,45.91225 L 58.559604,43.911638 C 57.438246,42.793383 56.272579,43.16283 55.464373,43.9688 L 49.933085,49.484771 C 48.103265,48.696342 46.222835,48.045241 44.315822,47.54132 C 44.250548,47.52407 44.18055,47.529654 44.115206,47.512739 C 33.805908,46.145668 22.999468,49.364139 15.083112,57.258577 z M 15.968738,71.122769 C 19.799076,67.303044 25.980955,67.274462 29.811287,71.094188 C 33.641619,74.913915 33.670279,81.135842 29.839947,84.95557 C 26.009611,88.775291 19.77041,88.746713 15.940079,84.926988 C 12.10975,81.107265 12.138407,74.942494 15.968738,71.122769 z "
       style="fill:url(#linearGradient3847);fill-opacity:1;fill-rule:nonzero;stroke:none;stroke-width:0.48889723;stroke-linecap:round;stroke-linejoin:round;stroke-miterlimit:4;stroke-dasharray:none;stroke-dashoffset:4;stroke-opacity:1" />
    <path
       id="path3722"
       d="M 117.59375,2.0625 L 106.28125,2.09375 C 106.28125,2.5439809 106.1272,2.967503 105.78125,3.3125 L 104.6875,4.40625 L 99.78125,4.40625 C 98.802725,4.4062601 97.99999,5.2116993 98,6.1875 L 98.0625,9.78125 L 92.59375,9.78125 C 92.320342,9.7812596 92.074264,9.8904067 91.84375,10 C 91.762495,10.032965 91.670407,10.048179 91.59375,10.09375 C 91.570639,10.109288 91.553562,10.139669 91.53125,10.15625 C 91.433221,10.220941 91.367746,10.257498 91.28125,10.34375 L 88.03125,13.625 C 87.98273,13.673386 87.947963,13.729017 87.90625,13.78125 C 87.513068,14.103565 87.25,14.575177 87.25,15.125 L 87.28125,21.78125 L 81.375,27.6875 L 74.65625,27.6875 C 73.677756,27.687501 72.875,28.461713 72.875,29.4375 L 72.875,33.28125 L 67.71875,33.28125 C 66.740261,33.281252 65.96875,34.086721 65.96875,35.0625 L 65.96875,43.03125 L 63.0625,45.9375 C 62.370614,46.627479 61.254398,46.596231 60.5625,45.90625 L 58.5625,43.90625 C 57.441142,42.787991 56.276956,43.16278 55.46875,43.96875 L 50,49.4375 L 50,50.34375 C 61.336518,54.598397 70.021917,64.262607 72.9375,76.1875 L 120.28125,28.9375 C 120.66347,28.55634 121.01547,28.1551 121.28125,27.71875 C 122.35976,26.631201 123.03125,25.082607 123.03125,23.34375 L 123,8.03125 C 122.99999,4.7295365 120.61093,2.0625 117.59375,2.0625 z M 73.96875,83.125 C 73.994565,83.661538 73.996396,84.207706 74,84.75 C 74.0141,84.592147 74.019329,84.439239 74.03125,84.28125 C 74.035574,84.22387 74.027204,84.151145 74.03125,84.09375 C 74.025664,83.980993 74.037803,83.862721 74.03125,83.75 C 74.019136,83.541379 73.983706,83.334126 73.96875,83.125 z "
       style="fill:url(#radialGradient3844);fill-opacity:1;fill-rule:nonzero;stroke:none;stroke-width:0.48889723;stroke-linecap:round;stroke-linejoin:round;stroke-miterlimit:4;stroke-dasharray:none;stroke-dashoffset:4;stroke-opacity:1" />
    <path
       id="path3757"
       d="M 98.03125,5.875 C 98.011507,5.9804236 97.999999,6.0765227 98,6.1875 L 98.03125,7.78125 L 98.0625,7.78125 L 98.03125,5.875 z M 123.03125,21.4375 C 123.00676,23.136678 122.33959,24.65154 121.28125,25.71875 C 121.01547,26.1551 120.66347,26.556338 120.28125,26.9375 L 72.875,74.25 C 73.014263,74.79689 73.133695,75.325489 73.25,75.875 L 120.28125,28.9375 C 120.66347,28.556339 121.01547,28.1551 121.28125,27.71875 C 122.35976,26.6312 123.03125,25.082607 123.03125,23.34375 L 123.03125,21.4375 z M 22.875,66.25 C 20.371946,66.257145 17.883919,67.215139 15.96875,69.125 C 13.797987,71.289752 12.843267,74.21383 13.125,77.03125 C 13.352092,74.876385 14.308509,72.780644 15.96875,71.125 C 19.799088,67.305271 25.982168,67.274024 29.8125,71.09375 C 31.472742,72.749397 32.429157,74.864217 32.65625,77.03125 C 32.937325,74.198553 31.982743,71.257985 29.8125,69.09375 C 27.897334,67.183887 25.378054,66.242855 22.875,66.25 z M 5,80.65625 C 4.7355594,89.824175 8.0877125,99.075856 15.09375,106.0625 C 28.596182,119.52753 50.497579,119.49629 64,106.03125 C 70.088822,99.959303 73.432686,92.214115 74.03125,84.28125 C 74.035572,84.223873 74.027204,84.151145 74.03125,84.09375 C 74.025662,83.980996 74.037803,83.862721 74.03125,83.75 C 74.016754,83.500383 73.988063,83.248948 73.96875,83 C 73.225701,90.679336 69.902566,98.145043 64,104.03125 C 50.497579,117.49629 28.596182,117.52753 15.09375,104.0625 C 8.5973572,97.58409 5.2452041,89.157267 5,80.65625 z "
       style="fill:url(#linearGradient3841);fill-opacity:1;fill-rule:nonzero;stroke:none;stroke-width:0.48889723;stroke-linecap:round;stroke-linejoin:round;stroke-miterlimit:4;stroke-dasharray:none;stroke-dashoffset:4;stroke-opacity:1;filter:url(#filter3829)" />
    <path
       id="path3762"
       d="M 117.59375,2.0625 L 106.28125,2.09375 C 106.28125,2.5439809 106.1272,2.967503 105.78125,3.3125 L 104.6875,4.40625 L 99.78125,4.40625 C 98.802723,4.4062599 97.99999,5.2116993 98,6.1875 L 98.03125,7.84375 C 98.197438,7.0376472 98.925039,6.4062584 99.78125,6.40625 L 104.6875,6.40625 L 105.78125,5.3125 C 106.1272,4.967503 106.28125,4.5439811 106.28125,4.09375 L 117.59375,4.0625 C 120.42236,4.0625 122.72533,6.4234673 123,9.4375 L 123,8.03125 C 122.99999,4.7295363 120.61093,2.0625 117.59375,2.0625 z M 92.59375,9.78125 C 92.32034,9.7812596 92.074264,9.8904067 91.84375,10 C 91.762493,10.032965 91.670407,10.048179 91.59375,10.09375 C 91.570637,10.109288 91.553562,10.139669 91.53125,10.15625 C 91.433219,10.220941 91.367746,10.257498 91.28125,10.34375 L 88.03125,13.625 C 87.982728,13.673386 87.947963,13.729017 87.90625,13.78125 C 87.513066,14.103565 87.25,14.575177 87.25,15.125 L 87.25,17.03125 C 87.280467,16.524969 87.537471,16.083561 87.90625,15.78125 C 87.947963,15.729017 87.982728,15.673385 88.03125,15.625 L 91.28125,12.34375 C 91.367746,12.257498 91.433219,12.220942 91.53125,12.15625 C 91.553562,12.139669 91.570637,12.109288 91.59375,12.09375 C 91.670407,12.048179 91.762493,12.032966 91.84375,12 C 92.074264,11.890407 92.32034,11.78126 92.59375,11.78125 L 98.0625,11.78125 L 98.03125,9.78125 L 92.59375,9.78125 z M 87.28125,21.78125 L 81.375,27.6875 L 74.65625,27.6875 C 73.677754,27.6875 72.875,28.461713 72.875,29.4375 L 72.875,31.4375 C 72.875,30.461713 73.677754,29.687501 74.65625,29.6875 L 81.375,29.6875 L 87.28125,23.78125 L 87.28125,21.78125 z M 67.71875,33.28125 C 66.740259,33.281253 65.96875,34.086721 65.96875,35.0625 L 65.96875,37.0625 C 65.96875,36.086721 66.740259,35.281253 67.71875,35.28125 L 72.875,35.28125 L 72.875,33.28125 L 67.71875,33.28125 z M 65.96875,43.03125 L 63.0625,45.9375 C 62.370613,46.627481 61.254398,46.596231 60.5625,45.90625 L 58.5625,43.90625 C 57.441141,42.787993 56.276956,43.16278 55.46875,43.96875 L 49.9375,49.5 C 48.107678,48.71157 46.219512,48.035171 44.3125,47.53125 C 44.247226,47.513999 44.190344,47.516916 44.125,47.5 C 33.8157,46.132931 23.010106,49.355563 15.09375,57.25 C 8.0877123,64.236639 4.7355595,73.488324 5,82.65625 C 5.2452042,74.155233 8.5973569,65.728404 15.09375,59.25 C 23.010106,51.355563 33.8157,48.132928 44.125,49.5 C 44.190344,49.516916 44.247226,49.514 44.3125,49.53125 C 46.219512,50.035171 48.107678,50.711571 49.9375,51.5 L 55.46875,45.96875 C 56.276956,45.16278 57.441141,44.787994 58.5625,45.90625 L 60.5625,47.90625 C 61.254398,48.596231 62.370613,48.627482 63.0625,47.9375 L 65.96875,45.03125 L 65.96875,43.03125 z M 73.25,77.875 L 72.875,78.25 C 73.443617,80.482982 73.79174,82.718257 73.96875,85 C 73.992197,84.757677 74.01294,84.523915 74.03125,84.28125 C 74.035572,84.223873 74.027204,84.151145 74.03125,84.09375 C 74.025662,83.980996 74.037803,83.862721 74.03125,83.75 C 73.916433,81.772843 73.660388,79.813971 73.25,77.875 z M 13.125,79.09375 C 12.847746,81.891584 13.78294,84.788907 15.9375,86.9375 C 19.767831,90.757225 26.013415,90.788467 29.84375,86.96875 C 31.998312,84.820153 32.933505,81.907409 32.65625,79.09375 C 32.4298,81.238946 31.488158,83.328894 29.84375,84.96875 C 26.013415,88.788474 19.767831,88.757225 15.9375,84.9375 C 14.294135,83.298686 13.352202,81.225493 13.125,79.09375 z "
       style="fill:url(#linearGradient3838);fill-opacity:1;fill-rule:nonzero;stroke:none;stroke-width:0.48889723;stroke-linecap:round;stroke-linejoin:round;stroke-miterlimit:4;stroke-dasharray:none;stroke-dashoffset:4;stroke-opacity:1;filter:url(#filter3833)" />
    <path
       sodipodi:nodetypes="ccc"
       id="path5780"
       d="M -70.472001,-43.149744 L -70.472001,-45.944453 L -70.472001,-43.149744 z "
       style="fill:white;fill-opacity:0.75688076;fill-rule:nonzero;stroke:none;stroke-width:0.5;stroke-linecap:round;stroke-linejoin:round;stroke-miterlimit:4;stroke-dasharray:none;stroke-dashoffset:4;stroke-opacity:1" />
    <path
       sodipodi:nodetypes="ccc"
       id="path3206"
       d="M -189.9742,-129.77999 L -189.9742,-132.5747 L -189.9742,-129.77999 z "
       style="fill:white;fill-opacity:0.75688076;fill-rule:nonzero;stroke:none;stroke-width:0.5;stroke-linecap:round;stroke-linejoin:round;stroke-miterlimit:4;stroke-dasharray:none;stroke-dashoffset:4;stroke-opacity:1" />
    <path
       sodipodi:nodetypes="ccc"
       id="path3946"
       d="M 56.6172,-64.024724 L 56.6172,-66.819433 L 56.6172,-64.024724 z "
       style="fill:white;fill-opacity:0.75688076;fill-rule:nonzero;stroke:none;stroke-width:0.5;stroke-linecap:round;stroke-linejoin:round;stroke-miterlimit:4;stroke-dasharray:none;stroke-dashoffset:4;stroke-opacity:1" />
    <path
       sodipodi:nodetypes="ccc"
       id="path1561"
       d="M -36.007246,9.868956 L -36.007246,8.34222 L -36.007246,9.868956 z "
       style="fill:white;fill-opacity:0.75688076;fill-rule:nonzero;stroke:none;stroke-width:0.5;stroke-linecap:round;stroke-linejoin:round;stroke-miterlimit:4;stroke-dasharray:none;stroke-dashoffset:4;stroke-opacity:1" />
    <rect
       style="opacity:0.57786889;fill:white;fill-opacity:1;fill-rule:nonzero;stroke:none;stroke-width:3.63199997;stroke-linecap:round;stroke-linejoin:round;stroke-miterlimit:4;stroke-dasharray:none;stroke-dashoffset:4;stroke-opacity:1"
       id="rect1327"
       width="1"
       height="0"
       x="-93.491989"
       y="-46.73103" />
    <path
       sodipodi:nodetypes="ccc"
       id="path2538"
       d="M -83.246101,-8.9245141 L -83.246101,-11.719223 L -83.246101,-8.9245141 z "
       style="fill:white;fill-opacity:0.75688076;fill-rule:nonzero;stroke:none;stroke-width:0.5;stroke-linecap:round;stroke-linejoin:round;stroke-miterlimit:4;stroke-dasharray:none;stroke-dashoffset:4;stroke-opacity:1" />
    <path
       sodipodi:nodetypes="ccc"
       id="path3103"
       d="M 48.5958,-82.189134 L 48.5958,-84.983843 L 48.5958,-82.189134 z "
       style="fill:white;fill-opacity:0.75688076;fill-rule:nonzero;stroke:none;stroke-width:0.5;stroke-linecap:round;stroke-linejoin:round;stroke-miterlimit:4;stroke-dasharray:none;stroke-dashoffset:4;stroke-opacity:1" />
    <rect
       style="opacity:0.57786889;fill:white;fill-opacity:1;fill-rule:nonzero;stroke:none;stroke-width:3.63199997;stroke-linecap:round;stroke-linejoin:round;stroke-miterlimit:4;stroke-dasharray:none;stroke-dashoffset:4;stroke-opacity:1"
       id="rect2543"
       width="1"
       height="0"
       x="53.728928"
       y="-96.403427" />
    <path
       sodipodi:nodetypes="ccc"
       id="path3995"
       d="M 76.2383,-125.37911 L 76.2383,-128.17382 L 76.2383,-125.37911 z "
       style="fill:white;fill-opacity:0.75688076;fill-rule:nonzero;stroke:none;stroke-width:0.5;stroke-linecap:round;stroke-linejoin:round;stroke-miterlimit:4;stroke-dasharray:none;stroke-dashoffset:4;stroke-opacity:1" />
    <path
       style="fill:white;fill-opacity:0.75688076;fill-rule:nonzero;stroke:none;stroke-width:0.5;stroke-linecap:round;stroke-linejoin:round;stroke-miterlimit:4;stroke-dasharray:none;stroke-dashoffset:4;stroke-opacity:1"
       d="M 119.29401,-45.90541 L 119.29401,-48.70012 L 119.29401,-45.90541 z "
       id="path2479"
       sodipodi:nodetypes="ccc"
       inkscape:r_cx="true"
       inkscape:r_cy="true" />
    <path
       style="fill:white;fill-opacity:0.75688076;fill-rule:nonzero;stroke:none;stroke-width:0.5;stroke-linecap:round;stroke-linejoin:round;stroke-miterlimit:4;stroke-dasharray:none;stroke-dashoffset:4;stroke-opacity:1"
       d="M 251.13591,-119.17003 L 251.13591,-121.96474 L 251.13591,-119.17003 z "
       id="path3365"
       sodipodi:nodetypes="ccc"
       inkscape:r_cx="true"
       inkscape:r_cy="true" />
    <rect
       y="-133.38432"
       x="256.26907"
       height="0"
       width="1"
       id="rect3367"
       style="opacity:0.57786889;fill:white;fill-opacity:1;fill-rule:nonzero;stroke:none;stroke-width:3.63199997;stroke-linecap:round;stroke-linejoin:round;stroke-miterlimit:4;stroke-dasharray:none;stroke-dashoffset:4;stroke-opacity:1"
       inkscape:r_cx="true"
       inkscape:r_cy="true" />
  </g>
</svg>
