<?xml version="1.0" encoding="UTF-8" standalone="no"?>
<!-- Created with Inkscape (http://www.inkscape.org/) -->

<svg
   xmlns:dc="http://purl.org/dc/elements/1.1/"
   xmlns:cc="http://creativecommons.org/ns#"
   xmlns:rdf="http://www.w3.org/1999/02/22-rdf-syntax-ns#"
   xmlns:svg="http://www.w3.org/2000/svg"
   xmlns="http://www.w3.org/2000/svg"
   xmlns:xlink="http://www.w3.org/1999/xlink"
   xmlns:sodipodi="http://sodipodi.sourceforge.net/DTD/sodipodi-0.dtd"
   xmlns:inkscape="http://www.inkscape.org/namespaces/inkscape"
   version="1.1"
   width="128"
   height="128"
   id="svg2"
   inkscape:version="0.48.3.1 r9886"
   sodipodi:docname="picmi.svgz">
  <sodipodi:namedview
     pagecolor="#ffffff"
     bordercolor="#666666"
     borderopacity="1"
     objecttolerance="10"
     gridtolerance="10"
     guidetolerance="10"
     inkscape:pageopacity="0"
     inkscape:pageshadow="2"
     inkscape:window-width="640"
     inkscape:window-height="480"
     id="namedview237"
     showgrid="false"
     inkscape:zoom="2.1750488"
     inkscape:cx="64"
     inkscape:cy="64"
     inkscape:window-x="0"
     inkscape:window-y="0"
     inkscape:window-maximized="0"
     inkscape:current-layer="svg2" />
  <defs
     id="defs4">
    <linearGradient
       id="linearGradient4351">
      <stop
         id="stop4353"
         style="stop-color:#e1ff8d;stop-opacity:1"
         offset="0" />
      <stop
         id="stop4355"
         style="stop-color:#e1ff8d;stop-opacity:0"
         offset="1" />
    </linearGradient>
    <linearGradient
       id="linearGradient4124">
      <stop
         id="stop4126"
         style="stop-color:#f8ead4;stop-opacity:1"
         offset="0" />
      <stop
         id="stop4128"
         style="stop-color:#f8ead4;stop-opacity:0"
         offset="1" />
    </linearGradient>
    <linearGradient
       id="linearGradient4103">
      <stop
         id="stop4105"
         style="stop-color:#ffe588;stop-opacity:1"
         offset="0" />
      <stop
         id="stop4107"
         style="stop-color:#c0811d;stop-opacity:1"
         offset="1" />
    </linearGradient>
    <linearGradient
       id="linearGradient4075">
      <stop
         id="stop4077"
         style="stop-color:#482205;stop-opacity:1"
         offset="0" />
      <stop
         id="stop4079"
         style="stop-color:#803d08;stop-opacity:0"
         offset="1" />
    </linearGradient>
    <linearGradient
       id="linearGradient4047">
      <stop
         id="stop4049"
         style="stop-color:#803d08;stop-opacity:1"
         offset="0" />
      <stop
         id="stop4051"
         style="stop-color:#803d08;stop-opacity:0"
         offset="1" />
    </linearGradient>
    <linearGradient
       id="linearGradient4037">
      <stop
         id="stop4039"
         style="stop-color:#c2851d;stop-opacity:1"
         offset="0" />
      <stop
         id="stop4041"
         style="stop-color:#ac6c16;stop-opacity:1"
         offset="0.74645573" />
      <stop
         id="stop4043"
         style="stop-color:#7f3c07;stop-opacity:1"
         offset="1" />
    </linearGradient>
    <linearGradient
       id="linearGradient4018">
      <stop
         id="stop4020"
         style="stop-color:#ffffff;stop-opacity:1"
         offset="0" />
      <stop
         id="stop4022"
         style="stop-color:#f0ff90;stop-opacity:0.37142858"
         offset="0.35964912" />
      <stop
         id="stop4024"
         style="stop-color:#efff82;stop-opacity:0"
         offset="1" />
    </linearGradient>
    <linearGradient
       id="linearGradient4004">
      <stop
         id="stop4006"
         style="stop-color:#095200;stop-opacity:1"
         offset="0" />
      <stop
         id="stop4008"
         style="stop-color:#095200;stop-opacity:0"
         offset="1" />
    </linearGradient>
    <linearGradient
       id="linearGradient3969">
      <stop
         id="stop3971"
         style="stop-color:#000000;stop-opacity:1"
         offset="0" />
      <stop
         id="stop3973"
         style="stop-color:#333333;stop-opacity:1"
         offset="1" />
    </linearGradient>
    <linearGradient
       id="linearGradient3951">
      <stop
         id="stop3953"
         style="stop-color:#ffd12d;stop-opacity:1"
         offset="0" />
      <stop
         id="stop3957"
         style="stop-color:#dfa925;stop-opacity:1"
         offset="0.74645573" />
      <stop
         id="stop3955"
         style="stop-color:#c0811d;stop-opacity:1"
         offset="1" />
    </linearGradient>
    <linearGradient
       id="linearGradient6186">
      <stop
         id="stop6188"
         style="stop-color:#555555;stop-opacity:1"
         offset="0" />
      <stop
         id="stop6194"
         style="stop-color:#979797;stop-opacity:1"
         offset="0.2" />
      <stop
         id="stop6196"
         style="stop-color:#b1b1b1;stop-opacity:1"
         offset="0.35152072" />
      <stop
         id="stop6198"
         style="stop-color:#eeeeee;stop-opacity:1"
         offset="0.40671435" />
      <stop
         id="stop6200"
         style="stop-color:#e6e6e6;stop-opacity:1"
         offset="0.51806325" />
      <stop
         id="stop6202"
         style="stop-color:#888888;stop-opacity:1"
         offset="0.77787733" />
      <stop
         id="stop6190"
         style="stop-color:#dddddd;stop-opacity:1"
         offset="1" />
    </linearGradient>
    <linearGradient
       x1="73.263016"
       y1="-2.7677612"
       x2="73.263016"
       y2="117.10693"
       id="linearGradient3933"
       xlink:href="#linearGradient4103"
       gradientUnits="userSpaceOnUse" />
    <filter
       color-interpolation-filters="sRGB"
       id="filter3947">
      <feGaussianBlur
         id="feGaussianBlur3949"
         stdDeviation="0.82756696" />
    </filter>
    <linearGradient
       x1="-18.538389"
       y1="45.930031"
       x2="6.9841185"
       y2="18.384565"
       id="linearGradient3967"
       xlink:href="#linearGradient3969"
       gradientUnits="userSpaceOnUse"
       spreadMethod="reflect" />
    <filter
       color-interpolation-filters="sRGB"
       id="filter3996">
      <feGaussianBlur
         id="feGaussianBlur3998"
         stdDeviation="1.162016" />
    </filter>
    <clipPath
       id="clipPath4000">
      <path
         d="m 70.370874,86.285545 c -10.930979,10.93098 -69.78004851,10.93098 -80.711028,0 -10.93098,-10.930979 -10.93098,-69.780049 -10e-7,-80.7110284 10.93098014,-10.9309799 69.780049,-10.9309801 80.711029,-3e-7 10.93098,10.9309797 10.93098,69.7800487 0,80.7110287 z"
         transform="matrix(1.1070577,0,0,0.87067559,175.63861,24.62229)"
         id="path4002"
         style="fill:#c0811d;fill-opacity:1;fill-rule:evenodd;stroke:none" />
    </clipPath>
    <linearGradient
       x1="78.569107"
       y1="-67.575584"
       x2="78.569107"
       y2="151.91983"
       id="linearGradient4010"
       xlink:href="#linearGradient4004"
       gradientUnits="userSpaceOnUse" />
    <linearGradient
       x1="35.025448"
       y1="113.158"
       x2="41.578056"
       y2="113.158"
       id="linearGradient4059"
       xlink:href="#linearGradient4037"
       gradientUnits="userSpaceOnUse"
       spreadMethod="reflect" />
    <linearGradient
       x1="41.578056"
       y1="117.02994"
       x2="41.578056"
       y2="109.81702"
       id="linearGradient4061"
       xlink:href="#linearGradient4047"
       gradientUnits="userSpaceOnUse" />
    <linearGradient
       x1="35.025448"
       y1="113.158"
       x2="41.578056"
       y2="113.158"
       id="linearGradient4069"
       xlink:href="#linearGradient4037"
       gradientUnits="userSpaceOnUse"
       spreadMethod="reflect" />
    <linearGradient
       x1="41.578056"
       y1="117.02994"
       x2="41.578056"
       y2="109.81702"
       id="linearGradient4071"
       xlink:href="#linearGradient4047"
       gradientUnits="userSpaceOnUse" />
    <radialGradient
       cx="66.642494"
       cy="114.04181"
       r="45.862629"
       fx="66.642494"
       fy="114.04181"
       id="radialGradient4081"
       xlink:href="#linearGradient4075"
       gradientUnits="userSpaceOnUse"
       gradientTransform="matrix(1,0,0,0.05263158,0,108.03961)" />
    <filter
       x="-0.02537594"
       y="-0.48214284"
       width="1.0507519"
       height="1.9642857"
       color-interpolation-filters="sRGB"
       id="filter4091">
      <feGaussianBlur
         id="feGaussianBlur4093"
         stdDeviation="0.96983943" />
    </filter>
    <radialGradient
       cx="66.642494"
       cy="114.04181"
       r="45.862629"
       fx="66.642494"
       fy="114.04181"
       id="radialGradient4097"
       xlink:href="#linearGradient4075"
       gradientUnits="userSpaceOnUse"
       gradientTransform="matrix(1,0,0,0.05263158,0,108.03961)" />
    <radialGradient
       cx="66.642494"
       cy="114.04181"
       r="45.862629"
       fx="66.642494"
       fy="114.04181"
       id="radialGradient4101"
       xlink:href="#linearGradient4075"
       gradientUnits="userSpaceOnUse"
       gradientTransform="matrix(1,0,0,0.05263158,0,108.03961)" />
    <filter
       color-interpolation-filters="sRGB"
       id="filter4116">
      <feGaussianBlur
         id="feGaussianBlur4118"
         stdDeviation="0.48947371" />
    </filter>
    <clipPath
       id="clipPath4120">
      <path
         d="m 70.370874,86.285545 c -10.930979,10.93098 -69.78004851,10.93098 -80.711028,0 -10.93098,-10.930979 -10.93098,-69.780049 -10e-7,-80.7110284 10.93098014,-10.9309799 69.780049,-10.9309801 80.711029,-3e-7 10.93098,10.9309797 10.93098,69.7800487 0,80.7110287 z"
         transform="matrix(1.0985675,0,0,0.86399822,242.66324,24.64214)"
         id="path4122"
         style="fill:#c0811d;fill-opacity:1;fill-rule:evenodd;stroke:none" />
    </clipPath>
    <linearGradient
       x1="283.2449"
       y1="18.593788"
       x2="283.2449"
       y2="99.073578"
       id="linearGradient4130"
       xlink:href="#linearGradient4124"
       gradientUnits="userSpaceOnUse" />
    <filter
       color-interpolation-filters="sRGB"
       id="filter4149">
      <feGaussianBlur
         id="feGaussianBlur4151"
         stdDeviation="1.9451837" />
    </filter>
    <clipPath
       id="clipPath4157">
      <path
         d="m 70.370874,86.285545 c -10.930979,10.93098 -69.78004851,10.93098 -80.711028,0 -10.93098,-10.930979 -10.93098,-69.780049 -10e-7,-80.7110284 10.93098014,-10.9309799 69.780049,-10.9309801 80.711029,-3e-7 10.93098,10.9309797 10.93098,69.7800487 0,80.7110287 z"
         transform="matrix(0.85199994,0,0,0.67007845,181.51323,40.83572)"
         id="path4159"
         style="opacity:0.87727272;fill:#000000;fill-opacity:1;fill-rule:evenodd;stroke:none" />
    </clipPath>
    <linearGradient
       x1="70.236679"
       y1="24.064802"
       x2="70.236679"
       y2="76.669022"
       id="linearGradient4175"
       xlink:href="#linearGradient4018"
       gradientUnits="userSpaceOnUse" />
    <linearGradient
       x1="76.724648"
       y1="11.819321"
       x2="80.875"
       y2="16.375"
       id="linearGradient4189"
       xlink:href="#linearGradient6186"
       gradientUnits="userSpaceOnUse" />
    <linearGradient
       x1="76.724648"
       y1="11.819321"
       x2="80.875"
       y2="16.375"
       id="linearGradient4193"
       xlink:href="#linearGradient6186"
       gradientUnits="userSpaceOnUse" />
    <radialGradient
       cx="65.59301"
       cy="14.760234"
       r="7.241468"
       fx="65.59301"
       fy="10.142487"
       id="radialGradient4197"
       xlink:href="#linearGradient3951"
       gradientUnits="userSpaceOnUse" />
    <radialGradient
       cx="65.59301"
       cy="14.760234"
       r="7.241468"
       fx="65.59301"
       fy="10.142487"
       id="radialGradient4201"
       xlink:href="#linearGradient3951"
       gradientUnits="userSpaceOnUse" />
    <filter
       x="-0.10518881"
       y="-0.31556642"
       width="1.2103776"
       height="1.6311328"
       color-interpolation-filters="sRGB"
       id="filter4219">
      <feGaussianBlur
         id="feGaussianBlur4221"
         stdDeviation="1.0683239" />
    </filter>
    <clipPath
       id="clipPath4225">
      <path
         d="m 72.834478,14.760234 a 7.241468,7.241468 0 1 1 -14.482936,0 7.241468,7.241468 0 1 1 14.482936,0 z"
         transform="matrix(0.60193786,0,0,1.176094,28.904711,14.39271)"
         id="path4227"
         style="fill:url(#radialGradient4229);fill-opacity:1;fill-rule:evenodd;stroke:none" />
    </clipPath>
    <radialGradient
       cx="65.59301"
       cy="14.760234"
       r="7.241468"
       fx="65.59301"
       fy="10.142487"
       id="radialGradient4229"
       xlink:href="#linearGradient3951"
       gradientUnits="userSpaceOnUse" />
    <filter
       color-interpolation-filters="sRGB"
       id="filter4240">
      <feGaussianBlur
         id="feGaussianBlur4242"
         stdDeviation="0.21680048" />
    </filter>
    <radialGradient
       cx="65.59301"
       cy="14.760234"
       r="7.241468"
       fx="65.59301"
       fy="10.142487"
       id="radialGradient4244"
       xlink:href="#linearGradient3951"
       gradientUnits="userSpaceOnUse" />
    <filter
       color-interpolation-filters="sRGB"
       id="filter4335">
      <feGaussianBlur
         id="feGaussianBlur4337"
         stdDeviation="0.62695319" />
    </filter>
    <mask
       id="mask4343">
      <g
         transform="matrix(1.173709,0,0,1.4923626,228.19621,-1423.2631)"
         id="g4345">
        <path
           d="m -224.75,951.61218 c -1.2465,0 -2.25,0.0904 -2.25,0.1875 0,0.0971 1.0035,0.15625 2.25,0.15625 l 116.25,0 c 1.2465,0 2.25,-0.0591 2.25,-0.15625 0,-0.0971 -1.0035,-0.1875 -2.25,-0.1875 l -116.25,0 z m 0,1.6875 c -1.2465,0 -2.25,0.0904 -2.25,0.1875 0,0.0971 1.0035,0.15625 2.25,0.15625 l 116.25,0 c 1.2465,0 2.25,-0.0591 2.25,-0.15625 0,-0.0971 -1.0035,-0.1875 -2.25,-0.1875 l -116.25,0 z m 0,1.6875 c -1.2465,0 -2.25,0.0904 -2.25,0.1875 0,0.0971 1.0035,0.15625 2.25,0.15625 l 116.25,0 c 1.2465,0 2.25,-0.0591 2.25,-0.15625 0,-0.0971 -1.0035,-0.1875 -2.25,-0.1875 l -116.25,0 z m 0,1.6875 c -1.2465,0 -2.25,0.0904 -2.25,0.1875 0,0.0971 1.0035,0.15625 2.25,0.15625 l 116.25,0 c 1.2465,0 2.25,-0.0591 2.25,-0.15625 0,-0.0971 -1.0035,-0.1875 -2.25,-0.1875 l -116.25,0 z m 0,1.6875 c -1.2465,0 -2.25,0.0904 -2.25,0.1875 0,0.0971 1.0035,0.1875 2.25,0.1875 l 116.25,0 c 1.2465,0 2.25,-0.0904 2.25,-0.1875 0,-0.0971 -1.0035,-0.1875 -2.25,-0.1875 l -116.25,0 z m 0,1.6875 c -1.2465,0 -2.25,0.0904 -2.25,0.1875 0,0.0971 1.0035,0.1875 2.25,0.1875 l 116.25,0 c 1.2465,0 2.25,-0.0904 2.25,-0.1875 0,-0.0971 -1.0035,-0.1875 -2.25,-0.1875 l -116.25,0 z m 0,1.6875 c -1.2465,0 -2.25,0.0904 -2.25,0.1875 0,0.0971 1.0035,0.1875 2.25,0.1875 l 116.25,0 c 1.2465,0 2.25,-0.0904 2.25,-0.1875 0,-0.0971 -1.0035,-0.1875 -2.25,-0.1875 l -116.25,0 z m 0,1.71875 c -1.2465,0 -2.25,0.0592 -2.25,0.15625 0,0.0971 1.0035,0.1875 2.25,0.1875 l 116.25,0 c 1.2465,0 2.25,-0.0904 2.25,-0.1875 0,-0.0971 -1.0035,-0.15625 -2.25,-0.15625 l -116.25,0 z m 0,1.6875 c -1.2465,0 -2.25,0.0592 -2.25,0.15625 0,0.0971 1.0035,0.1875 2.25,0.1875 l 116.25,0 c 1.2465,0 2.25,-0.0904 2.25,-0.1875 0,-0.0971 -1.0035,-0.15625 -2.25,-0.15625 l -116.25,0 z m 0,1.6875 c -1.2465,0 -2.25,0.0592 -2.25,0.15625 0,0.0971 1.0035,0.1875 2.25,0.1875 l 116.25,0 c 1.2465,0 2.25,-0.0904 2.25,-0.1875 0,-0.0971 -1.0035,-0.15625 -2.25,-0.15625 l -116.25,0 z m 0,1.6875 c -1.2465,0 -2.25,0.0592 -2.25,0.15625 0,0.0971 1.0035,0.1875 2.25,0.1875 l 116.25,0 c 1.2465,0 2.25,-0.0904 2.25,-0.1875 0,-0.0971 -1.0035,-0.15625 -2.25,-0.15625 l -116.25,0 z m 0,1.6875 c -1.2465,0 -2.25,0.0592 -2.25,0.15625 0,0.0971 1.0035,0.1875 2.25,0.1875 l 116.25,0 c 1.2465,0 2.25,-0.0904 2.25,-0.1875 0,-0.0971 -1.0035,-0.15625 -2.25,-0.15625 l -116.25,0 z m 0,1.6875 c -1.2465,0 -2.25,0.0592 -2.25,0.15625 0,0.0971 1.0035,0.1875 2.25,0.1875 l 116.25,0 c 1.2465,0 2.25,-0.0904 2.25,-0.1875 0,-0.0971 -1.0035,-0.15625 -2.25,-0.15625 l -116.25,0 z m 0,1.6875 c -1.2465,0 -2.25,0.0904 -2.25,0.1875 0,0.0971 1.0035,0.15625 2.25,0.15625 l 116.25,0 c 1.2465,0 2.25,-0.0591 2.25,-0.15625 0,-0.0971 -1.0035,-0.1875 -2.25,-0.1875 l -116.25,0 z m 0,1.6875 c -1.2465,0 -2.25,0.0904 -2.25,0.1875 0,0.0971 1.0035,0.15625 2.25,0.15625 l 116.25,0 c 1.2465,0 2.25,-0.0591 2.25,-0.15625 0,-0.0971 -1.0035,-0.1875 -2.25,-0.1875 l -116.25,0 z m 0,1.6875 c -1.2465,0 -2.25,0.0904 -2.25,0.1875 0,0.0971 1.0035,0.15625 2.25,0.15625 l 116.25,0 c 1.2465,0 2.25,-0.0591 2.25,-0.15625 0,-0.0971 -1.0035,-0.1875 -2.25,-0.1875 l -116.25,0 z m 0,1.6875 c -1.2465,0 -2.25,0.0904 -2.25,0.1875 0,0.0971 1.0035,0.15625 2.25,0.15625 l 116.25,0 c 1.2465,0 2.25,-0.0591 2.25,-0.15625 0,-0.0971 -1.0035,-0.1875 -2.25,-0.1875 l -116.25,0 z m 0,1.6875 c -1.2465,0 -2.25,0.0904 -2.25,0.1875 0,0.0971 1.0035,0.15625 2.25,0.15625 l 116.25,0 c 1.2465,0 2.25,-0.0591 2.25,-0.15625 0,-0.0971 -1.0035,-0.1875 -2.25,-0.1875 l -116.25,0 z m 0,1.6875 c -1.2465,0 -2.25,0.0904 -2.25,0.1875 0,0.0971 1.0035,0.1875 2.25,0.1875 l 116.25,0 c 1.2465,0 2.25,-0.0904 2.25,-0.1875 0,-0.0971 -1.0035,-0.1875 -2.25,-0.1875 l -116.25,0 z m 0,1.6875 c -1.2465,0 -2.25,0.0904 -2.25,0.1875 0,0.0971 1.0035,0.1875 2.25,0.1875 l 116.25,0 c 1.2465,0 2.25,-0.0904 2.25,-0.1875 0,-0.0971 -1.0035,-0.1875 -2.25,-0.1875 l -116.25,0 z m 0,1.6875 c -1.2465,0 -2.25,0.0904 -2.25,0.1875 0,0.0971 1.0035,0.1875 2.25,0.1875 l 116.25,0 c 1.2465,0 2.25,-0.0904 2.25,-0.1875 0,-0.0971 -1.0035,-0.1875 -2.25,-0.1875 l -116.25,0 z m 0,1.71875 c -1.2465,0 -2.25,0.0592 -2.25,0.15625 0,0.0971 1.0035,0.1875 2.25,0.1875 l 116.25,0 c 1.2465,0 2.25,-0.0904 2.25,-0.1875 0,-0.0971 -1.0035,-0.15625 -2.25,-0.15625 l -116.25,0 z m 0,1.6875 c -1.2465,0 -2.25,0.0592 -2.25,0.15625 0,0.0971 1.0035,0.1875 2.25,0.1875 l 116.25,0 c 1.2465,0 2.25,-0.0904 2.25,-0.1875 0,-0.0971 -1.0035,-0.15625 -2.25,-0.15625 l -116.25,0 z m -0.25,1.6875 c -1.2465,0 -2.25,0.0592 -2.25,0.15625 0,0.0971 1.0035,0.1875 2.25,0.1875 l 116.25,0 c 1.2465,0 2.25,-0.0904 2.25,-0.1875 0,-0.0971 -1.0035,-0.15625 -2.25,-0.15625 l -116.25,0 z m 0.25,1.6875 c -1.2465,0 -2.25,0.0592 -2.25,0.15625 0,0.0971 1.0035,0.1875 2.25,0.1875 l 116.25,0 c 1.2465,0 2.25,-0.0904 2.25,-0.1875 0,-0.0971 -1.0035,-0.15625 -2.25,-0.15625 l -116.25,0 z m -0.25,1.6875 c -1.2465,0 -2.25,0.0592 -2.25,0.15625 0,0.0971 1.0035,0.1875 2.25,0.1875 l 116.25,0 c 1.2465,0 2.25,-0.0904 2.25,-0.1875 0,-0.0971 -1.0035,-0.15625 -2.25,-0.15625 l -116.25,0 z m 0.25,1.6875 c -1.2465,0 -2.25,0.0592 -2.25,0.15625 0,0.0971 1.0035,0.1875 2.25,0.1875 l 116.25,0 c 1.2465,0 2.25,-0.0904 2.25,-0.1875 0,-0.0971 -1.0035,-0.15625 -2.25,-0.15625 l -116.25,0 z m -0.25,1.6875 c -1.2465,0 -2.25,0.0904 -2.25,0.1875 0,0.0971 1.0035,0.15625 2.25,0.15625 l 116.25,0 c 1.2465,0 2.25,-0.0591 2.25,-0.15625 0,-0.0971 -1.0035,-0.1875 -2.25,-0.1875 l -116.25,0 z m 0.25,1.6875 c -1.2465,0 -2.25,0.0904 -2.25,0.1875 0,0.0971 1.0035,0.15625 2.25,0.15625 l 116.25,0 c 1.2465,0 2.25,-0.0591 2.25,-0.15625 0,-0.0971 -1.0035,-0.1875 -2.25,-0.1875 l -116.25,0 z m -0.25,1.68752 c -1.2465,0 -2.25,0.09 -2.25,0.1875 0,0.097 1.0035,0.1562 2.25,0.1562 l 116.25,0 c 1.2465,0 2.25,-0.059 2.25,-0.1562 0,-0.097 -1.0035,-0.1875 -2.25,-0.1875 l -116.25,0 z m 0.25,1.6875 c -1.2465,0 -2.25,0.09 -2.25,0.1875 0,0.097 1.0035,0.1562 2.25,0.1562 l 116.25,0 c 1.2465,0 2.25,-0.059 2.25,-0.1562 0,-0.097 -1.0035,-0.1875 -2.25,-0.1875 l -116.25,0 z m -0.25,1.6875 c -1.2465,0 -2.25,0.09 -2.25,0.1875 0,0.097 1.0035,0.1562 2.25,0.1562 l 116.25,0 c 1.2465,0 2.25,-0.059 2.25,-0.1562 0,-0.097 -1.0035,-0.1875 -2.25,-0.1875 l -116.25,0 z m 0.25,1.6875 c -1.2465,0 -2.25,0.09 -2.25,0.1875 0,0.097 1.0035,0.1875 2.25,0.1875 l 116.25,0 c 1.2465,0 2.25,-0.09 2.25,-0.1875 0,-0.097 -1.0035,-0.1875 -2.25,-0.1875 l -116.25,0 z m -0.25,1.6875 c -1.2465,0 -2.25,0.09 -2.25,0.1875 0,0.097 1.0035,0.1875 2.25,0.1875 l 116.25,0 c 1.2465,0 2.25,-0.09 2.25,-0.1875 0,-0.097 -1.0035,-0.1875 -2.25,-0.1875 l -116.25,0 z m 0.25,1.6875 c -1.2465,0 -2.25,0.09 -2.25,0.1875 0,0.097 1.0035,0.1875 2.25,0.1875 l 116.25,0 c 1.2465,0 2.25,-0.09 2.25,-0.1875 0,-0.097 -1.0035,-0.1875 -2.25,-0.1875 l -116.25,0 z m -0.25,1.7187 c -1.2465,0 -2.25,0.059 -2.25,0.1563 0,0.097 1.0035,0.1875 2.25,0.1875 l 116.25,0 c 1.2465,0 2.25,-0.09 2.25,-0.1875 0,-0.097 -1.0035,-0.1563 -2.25,-0.1563 l -116.25,0 z m 0.25,1.6875 c -1.2465,0 -2.25,0.059 -2.25,0.1563 0,0.097 1.0035,0.1875 2.25,0.1875 l 116.25,0 c 1.2465,0 2.25,-0.09 2.25,-0.1875 0,-0.097 -1.0035,-0.1563 -2.25,-0.1563 l -116.25,0 z m -0.25,1.6875 c -1.2465,0 -2.25,0.059 -2.25,0.1563 0,0.097 1.0035,0.1875 2.25,0.1875 l 116.25,0 c 1.2465,0 2.25,-0.09 2.25,-0.1875 0,-0.097 -1.0035,-0.1563 -2.25,-0.1563 l -116.25,0 z m 0,1.6875 c -1.2465,0 -2.25,0.059 -2.25,0.1563 0,0.097 1.0035,0.1875 2.25,0.1875 l 116.25,0 c 1.2465,0 2.25,-0.09 2.25,-0.1875 0,-0.097 -1.0035,-0.1563 -2.25,-0.1563 l -116.25,0 z m 0,1.6875 c -1.2465,0 -2.25,0.059 -2.25,0.1563 0,0.097 1.0035,0.1875 2.25,0.1875 l 116.25,0 c 1.2465,0 2.25,-0.09 2.25,-0.1875 0,-0.097 -1.0035,-0.1563 -2.25,-0.1563 l -116.25,0 z"
           id="path4347"
           style="fill:#ffffff;fill-opacity:1;fill-rule:evenodd;stroke:none;filter:url(#filter4335)" />
        <path
           d="m -224.75,951.61218 c -1.2465,0 -2.25,0.0904 -2.25,0.1875 0,0.0971 1.0035,0.15625 2.25,0.15625 l 116.25,0 c 1.2465,0 2.25,-0.0591 2.25,-0.15625 0,-0.0971 -1.0035,-0.1875 -2.25,-0.1875 l -116.25,0 z m 0,1.6875 c -1.2465,0 -2.25,0.0904 -2.25,0.1875 0,0.0971 1.0035,0.15625 2.25,0.15625 l 116.25,0 c 1.2465,0 2.25,-0.0591 2.25,-0.15625 0,-0.0971 -1.0035,-0.1875 -2.25,-0.1875 l -116.25,0 z m 0,1.6875 c -1.2465,0 -2.25,0.0904 -2.25,0.1875 0,0.0971 1.0035,0.15625 2.25,0.15625 l 116.25,0 c 1.2465,0 2.25,-0.0591 2.25,-0.15625 0,-0.0971 -1.0035,-0.1875 -2.25,-0.1875 l -116.25,0 z m 0,1.6875 c -1.2465,0 -2.25,0.0904 -2.25,0.1875 0,0.0971 1.0035,0.15625 2.25,0.15625 l 116.25,0 c 1.2465,0 2.25,-0.0591 2.25,-0.15625 0,-0.0971 -1.0035,-0.1875 -2.25,-0.1875 l -116.25,0 z m 0,1.6875 c -1.2465,0 -2.25,0.0904 -2.25,0.1875 0,0.0971 1.0035,0.1875 2.25,0.1875 l 116.25,0 c 1.2465,0 2.25,-0.0904 2.25,-0.1875 0,-0.0971 -1.0035,-0.1875 -2.25,-0.1875 l -116.25,0 z m 0,1.6875 c -1.2465,0 -2.25,0.0904 -2.25,0.1875 0,0.0971 1.0035,0.1875 2.25,0.1875 l 116.25,0 c 1.2465,0 2.25,-0.0904 2.25,-0.1875 0,-0.0971 -1.0035,-0.1875 -2.25,-0.1875 l -116.25,0 z m 0,1.6875 c -1.2465,0 -2.25,0.0904 -2.25,0.1875 0,0.0971 1.0035,0.1875 2.25,0.1875 l 116.25,0 c 1.2465,0 2.25,-0.0904 2.25,-0.1875 0,-0.0971 -1.0035,-0.1875 -2.25,-0.1875 l -116.25,0 z m 0,1.71875 c -1.2465,0 -2.25,0.0592 -2.25,0.15625 0,0.0971 1.0035,0.1875 2.25,0.1875 l 116.25,0 c 1.2465,0 2.25,-0.0904 2.25,-0.1875 0,-0.0971 -1.0035,-0.15625 -2.25,-0.15625 l -116.25,0 z m 0,1.6875 c -1.2465,0 -2.25,0.0592 -2.25,0.15625 0,0.0971 1.0035,0.1875 2.25,0.1875 l 116.25,0 c 1.2465,0 2.25,-0.0904 2.25,-0.1875 0,-0.0971 -1.0035,-0.15625 -2.25,-0.15625 l -116.25,0 z m 0,1.6875 c -1.2465,0 -2.25,0.0592 -2.25,0.15625 0,0.0971 1.0035,0.1875 2.25,0.1875 l 116.25,0 c 1.2465,0 2.25,-0.0904 2.25,-0.1875 0,-0.0971 -1.0035,-0.15625 -2.25,-0.15625 l -116.25,0 z m 0,1.6875 c -1.2465,0 -2.25,0.0592 -2.25,0.15625 0,0.0971 1.0035,0.1875 2.25,0.1875 l 116.25,0 c 1.2465,0 2.25,-0.0904 2.25,-0.1875 0,-0.0971 -1.0035,-0.15625 -2.25,-0.15625 l -116.25,0 z m 0,1.6875 c -1.2465,0 -2.25,0.0592 -2.25,0.15625 0,0.0971 1.0035,0.1875 2.25,0.1875 l 116.25,0 c 1.2465,0 2.25,-0.0904 2.25,-0.1875 0,-0.0971 -1.0035,-0.15625 -2.25,-0.15625 l -116.25,0 z m 0,1.6875 c -1.2465,0 -2.25,0.0592 -2.25,0.15625 0,0.0971 1.0035,0.1875 2.25,0.1875 l 116.25,0 c 1.2465,0 2.25,-0.0904 2.25,-0.1875 0,-0.0971 -1.0035,-0.15625 -2.25,-0.15625 l -116.25,0 z m 0,1.6875 c -1.2465,0 -2.25,0.0904 -2.25,0.1875 0,0.0971 1.0035,0.15625 2.25,0.15625 l 116.25,0 c 1.2465,0 2.25,-0.0591 2.25,-0.15625 0,-0.0971 -1.0035,-0.1875 -2.25,-0.1875 l -116.25,0 z m 0,1.6875 c -1.2465,0 -2.25,0.0904 -2.25,0.1875 0,0.0971 1.0035,0.15625 2.25,0.15625 l 116.25,0 c 1.2465,0 2.25,-0.0591 2.25,-0.15625 0,-0.0971 -1.0035,-0.1875 -2.25,-0.1875 l -116.25,0 z m 0,1.6875 c -1.2465,0 -2.25,0.0904 -2.25,0.1875 0,0.0971 1.0035,0.15625 2.25,0.15625 l 116.25,0 c 1.2465,0 2.25,-0.0591 2.25,-0.15625 0,-0.0971 -1.0035,-0.1875 -2.25,-0.1875 l -116.25,0 z m 0,1.6875 c -1.2465,0 -2.25,0.0904 -2.25,0.1875 0,0.0971 1.0035,0.15625 2.25,0.15625 l 116.25,0 c 1.2465,0 2.25,-0.0591 2.25,-0.15625 0,-0.0971 -1.0035,-0.1875 -2.25,-0.1875 l -116.25,0 z m 0,1.6875 c -1.2465,0 -2.25,0.0904 -2.25,0.1875 0,0.0971 1.0035,0.15625 2.25,0.15625 l 116.25,0 c 1.2465,0 2.25,-0.0591 2.25,-0.15625 0,-0.0971 -1.0035,-0.1875 -2.25,-0.1875 l -116.25,0 z m 0,1.6875 c -1.2465,0 -2.25,0.0904 -2.25,0.1875 0,0.0971 1.0035,0.1875 2.25,0.1875 l 116.25,0 c 1.2465,0 2.25,-0.0904 2.25,-0.1875 0,-0.0971 -1.0035,-0.1875 -2.25,-0.1875 l -116.25,0 z m 0,1.6875 c -1.2465,0 -2.25,0.0904 -2.25,0.1875 0,0.0971 1.0035,0.1875 2.25,0.1875 l 116.25,0 c 1.2465,0 2.25,-0.0904 2.25,-0.1875 0,-0.0971 -1.0035,-0.1875 -2.25,-0.1875 l -116.25,0 z m 0,1.6875 c -1.2465,0 -2.25,0.0904 -2.25,0.1875 0,0.0971 1.0035,0.1875 2.25,0.1875 l 116.25,0 c 1.2465,0 2.25,-0.0904 2.25,-0.1875 0,-0.0971 -1.0035,-0.1875 -2.25,-0.1875 l -116.25,0 z m 0,1.71875 c -1.2465,0 -2.25,0.0592 -2.25,0.15625 0,0.0971 1.0035,0.1875 2.25,0.1875 l 116.25,0 c 1.2465,0 2.25,-0.0904 2.25,-0.1875 0,-0.0971 -1.0035,-0.15625 -2.25,-0.15625 l -116.25,0 z m 0,1.6875 c -1.2465,0 -2.25,0.0592 -2.25,0.15625 0,0.0971 1.0035,0.1875 2.25,0.1875 l 116.25,0 c 1.2465,0 2.25,-0.0904 2.25,-0.1875 0,-0.0971 -1.0035,-0.15625 -2.25,-0.15625 l -116.25,0 z m -0.25,1.6875 c -1.2465,0 -2.25,0.0592 -2.25,0.15625 0,0.0971 1.0035,0.1875 2.25,0.1875 l 116.25,0 c 1.2465,0 2.25,-0.0904 2.25,-0.1875 0,-0.0971 -1.0035,-0.15625 -2.25,-0.15625 l -116.25,0 z m 0.25,1.6875 c -1.2465,0 -2.25,0.0592 -2.25,0.15625 0,0.0971 1.0035,0.1875 2.25,0.1875 l 116.25,0 c 1.2465,0 2.25,-0.0904 2.25,-0.1875 0,-0.0971 -1.0035,-0.15625 -2.25,-0.15625 l -116.25,0 z m -0.25,1.6875 c -1.2465,0 -2.25,0.0592 -2.25,0.15625 0,0.0971 1.0035,0.1875 2.25,0.1875 l 116.25,0 c 1.2465,0 2.25,-0.0904 2.25,-0.1875 0,-0.0971 -1.0035,-0.15625 -2.25,-0.15625 l -116.25,0 z m 0.25,1.6875 c -1.2465,0 -2.25,0.0592 -2.25,0.15625 0,0.0971 1.0035,0.1875 2.25,0.1875 l 116.25,0 c 1.2465,0 2.25,-0.0904 2.25,-0.1875 0,-0.0971 -1.0035,-0.15625 -2.25,-0.15625 l -116.25,0 z m -0.25,1.6875 c -1.2465,0 -2.25,0.0904 -2.25,0.1875 0,0.0971 1.0035,0.15625 2.25,0.15625 l 116.25,0 c 1.2465,0 2.25,-0.0591 2.25,-0.15625 0,-0.0971 -1.0035,-0.1875 -2.25,-0.1875 l -116.25,0 z m 0.25,1.6875 c -1.2465,0 -2.25,0.0904 -2.25,0.1875 0,0.0971 1.0035,0.15625 2.25,0.15625 l 116.25,0 c 1.2465,0 2.25,-0.0591 2.25,-0.15625 0,-0.0971 -1.0035,-0.1875 -2.25,-0.1875 l -116.25,0 z m -0.25,1.68752 c -1.2465,0 -2.25,0.09 -2.25,0.1875 0,0.097 1.0035,0.1562 2.25,0.1562 l 116.25,0 c 1.2465,0 2.25,-0.059 2.25,-0.1562 0,-0.097 -1.0035,-0.1875 -2.25,-0.1875 l -116.25,0 z m 0.25,1.6875 c -1.2465,0 -2.25,0.09 -2.25,0.1875 0,0.097 1.0035,0.1562 2.25,0.1562 l 116.25,0 c 1.2465,0 2.25,-0.059 2.25,-0.1562 0,-0.097 -1.0035,-0.1875 -2.25,-0.1875 l -116.25,0 z m -0.25,1.6875 c -1.2465,0 -2.25,0.09 -2.25,0.1875 0,0.097 1.0035,0.1562 2.25,0.1562 l 116.25,0 c 1.2465,0 2.25,-0.059 2.25,-0.1562 0,-0.097 -1.0035,-0.1875 -2.25,-0.1875 l -116.25,0 z m 0.25,1.6875 c -1.2465,0 -2.25,0.09 -2.25,0.1875 0,0.097 1.0035,0.1875 2.25,0.1875 l 116.25,0 c 1.2465,0 2.25,-0.09 2.25,-0.1875 0,-0.097 -1.0035,-0.1875 -2.25,-0.1875 l -116.25,0 z m -0.25,1.6875 c -1.2465,0 -2.25,0.09 -2.25,0.1875 0,0.097 1.0035,0.1875 2.25,0.1875 l 116.25,0 c 1.2465,0 2.25,-0.09 2.25,-0.1875 0,-0.097 -1.0035,-0.1875 -2.25,-0.1875 l -116.25,0 z m 0.25,1.6875 c -1.2465,0 -2.25,0.09 -2.25,0.1875 0,0.097 1.0035,0.1875 2.25,0.1875 l 116.25,0 c 1.2465,0 2.25,-0.09 2.25,-0.1875 0,-0.097 -1.0035,-0.1875 -2.25,-0.1875 l -116.25,0 z m -0.25,1.7187 c -1.2465,0 -2.25,0.059 -2.25,0.1563 0,0.097 1.0035,0.1875 2.25,0.1875 l 116.25,0 c 1.2465,0 2.25,-0.09 2.25,-0.1875 0,-0.097 -1.0035,-0.1563 -2.25,-0.1563 l -116.25,0 z m 0.25,1.6875 c -1.2465,0 -2.25,0.059 -2.25,0.1563 0,0.097 1.0035,0.1875 2.25,0.1875 l 116.25,0 c 1.2465,0 2.25,-0.09 2.25,-0.1875 0,-0.097 -1.0035,-0.1563 -2.25,-0.1563 l -116.25,0 z m -0.25,1.6875 c -1.2465,0 -2.25,0.059 -2.25,0.1563 0,0.097 1.0035,0.1875 2.25,0.1875 l 116.25,0 c 1.2465,0 2.25,-0.09 2.25,-0.1875 0,-0.097 -1.0035,-0.1563 -2.25,-0.1563 l -116.25,0 z m 0,1.6875 c -1.2465,0 -2.25,0.059 -2.25,0.1563 0,0.097 1.0035,0.1875 2.25,0.1875 l 116.25,0 c 1.2465,0 2.25,-0.09 2.25,-0.1875 0,-0.097 -1.0035,-0.1563 -2.25,-0.1563 l -116.25,0 z m 0,1.6875 c -1.2465,0 -2.25,0.059 -2.25,0.1563 0,0.097 1.0035,0.1875 2.25,0.1875 l 116.25,0 c 1.2465,0 2.25,-0.09 2.25,-0.1875 0,-0.097 -1.0035,-0.1563 -2.25,-0.1563 l -116.25,0 z"
           id="path4349"
           style="fill:#ffffff;fill-opacity:1;fill-rule:evenodd;stroke:none" />
      </g>
    </mask>
    <radialGradient
       cx="30.01536"
       cy="45.930031"
       r="48.553749"
       fx="30.01536"
       fy="11.56121"
       id="radialGradient4357"
       xlink:href="#linearGradient4351"
       gradientUnits="userSpaceOnUse"
       gradientTransform="matrix(1.0704802,0,0,1.0704802,-2.1154874,-3.2371566)" />
    <filter
       color-interpolation-filters="sRGB"
       id="filter4363">
      <feGaussianBlur
         id="feGaussianBlur4365"
         stdDeviation="0.43664568" />
    </filter>
    <filter
       color-interpolation-filters="sRGB"
       id="filter4496">
      <feGaussianBlur
         id="feGaussianBlur4498"
         stdDeviation="0.041264801" />
    </filter>
    <radialGradient
       cx="66.642494"
       cy="114.04181"
       r="45.862629"
       fx="66.642494"
       fy="114.04181"
       id="radialGradient4500"
       xlink:href="#linearGradient4075"
       gradientUnits="userSpaceOnUse"
       gradientTransform="matrix(1,0,0,0.05263158,0,108.03961)" />
    <filter
       x="-0.033834588"
       y="-0.64285713"
       width="1.0676692"
       height="2.2857141"
       color-interpolation-filters="sRGB"
       id="filter4502">
      <feGaussianBlur
         id="feGaussianBlur4504"
         stdDeviation="1.2931192" />
    </filter>
    <linearGradient
       x1="283.2449"
       y1="18.593788"
       x2="283.2449"
       y2="99.073578"
       id="linearGradient4506"
       xlink:href="#linearGradient4124"
       gradientUnits="userSpaceOnUse" />
  </defs>
  <metadata
     id="metadata7">
    <rdf:RDF>
      <cc:Work
         rdf:about="">
        <dc:format>image/svg+xml</dc:format>
        <dc:type
           rdf:resource="http://purl.org/dc/dcmitype/StillImage" />
        <dc:title />
      </cc:Work>
    </rdf:RDF>
  </metadata>
  <g
     transform="translate(0,-924.36218)"
     id="layer1">
    <path
       d="m 112.50512,114.04181 a 45.862629,2.4138227 0 1 1 -91.725255,0 45.862629,2.4138227 0 1 1 91.725255,0 z"
       transform="matrix(1.0516258,0,0,1.0516258,-5.9988382,921.24979)"
       id="path4231"
       style="fill:url(#radialGradient4081);fill-opacity:1;fill-rule:evenodd;stroke:none;filter:url(#filter4091)" />
    <path
       d="M 88.59375,7.25 A 0.48961227,0.48961227 0 0 0 88.3125,7.375 c 0,0 -4.828267,4.156372 -9.71875,8.375 -2.445242,2.109314 -4.888939,4.246324 -6.78125,5.875 -0.946156,0.814338 -1.758044,1.497967 -2.34375,2 -0.585706,0.502033 -0.991198,0.842958 -1.03125,0.875 a 0.48961227,0.48961227 0 0 0 -0.03125,0.71875 l 2,1.875 a 0.48961227,0.48961227 0 0 0 0.6875,0 l 17.875,-19 A 0.48961227,0.48961227 0 0 0 88.59375,7.25 z"
       transform="matrix(-0.83988754,-0.11330958,-0.11330958,0.83988754,150.60599,936.5595)"
       id="path4191"
       style="fill:url(#linearGradient4193);fill-opacity:1;stroke:none" />
    <path
       d="M 88.59375,7.25 A 0.48961227,0.48961227 0 0 0 88.3125,7.375 c 0,0 -4.828267,4.156372 -9.71875,8.375 -2.445242,2.109314 -4.888939,4.246324 -6.78125,5.875 -0.946156,0.814338 -1.758044,1.497967 -2.34375,2 -0.585706,0.502033 -0.991198,0.842958 -1.03125,0.875 a 0.48961227,0.48961227 0 0 0 -0.03125,0.71875 l 2,1.875 a 0.48961227,0.48961227 0 0 0 0.6875,0 l 17.875,-19 A 0.48961227,0.48961227 0 0 0 88.59375,7.25 z"
       transform="matrix(0.84060478,0.10785986,-0.10785986,0.84060478,40.476987,921.99291)"
       id="path4187"
       style="fill:url(#linearGradient4189);fill-opacity:1;stroke:none" />
    <g
       transform="matrix(1.0516258,0,0,1.2232286,66.262691,-232.33523)"
       id="g4063">
      <rect
         width="12.48773"
         height="7.7178416"
         rx="2.25"
         ry="2.25"
         x="29.090326"
         y="109.29908"
         transform="translate(0,924.36218)"
         id="rect4065"
         style="fill:url(#linearGradient4069);fill-opacity:1;fill-rule:evenodd;stroke:none" />
      <rect
         width="12.48773"
         height="7.7178416"
         rx="2.25"
         ry="2.25"
         x="29.090326"
         y="109.29908"
         transform="translate(0,924.36218)"
         id="rect4067"
         style="fill:url(#linearGradient4071);fill-opacity:1;fill-rule:evenodd;stroke:none" />
    </g>
    <g
       transform="matrix(1.0516258,0,0,1.2232286,-10.685903,-232.33523)"
       id="g4055">
      <rect
         width="12.48773"
         height="7.7178416"
         rx="2.25"
         ry="2.25"
         x="29.090326"
         y="109.29908"
         transform="translate(0,924.36218)"
         id="rect4026"
         style="fill:url(#linearGradient4059);fill-opacity:1;fill-rule:evenodd;stroke:none" />
      <rect
         width="12.48773"
         height="7.7178416"
         rx="2.25"
         ry="2.25"
         x="29.090326"
         y="109.29908"
         transform="translate(0,924.36218)"
         id="rect4045"
         style="fill:url(#linearGradient4061);fill-opacity:1;fill-rule:evenodd;stroke:none" />
    </g>
    <path
       d="m 72.834478,14.760234 a 7.241468,7.241468 0 1 1 -14.482936,0 7.241468,7.241468 0 1 1 14.482936,0 z"
       transform="matrix(1.2267534,0.15740744,-0.15740744,1.2267534,14.338411,926.19153)"
       id="path3910"
       style="fill:url(#radialGradient4244);fill-opacity:1;fill-rule:evenodd;stroke:none" />
    <path
       d="m 80.625,34.4375 a 12.1875,4.0625 0 1 1 -24.375,0 12.1875,4.0625 0 1 1 24.375,0 z"
       transform="matrix(2.0380067,0.26150114,-0.13383916,1.0430743,-42.643275,903.62024)"
       clip-path="url(#clipPath4225)"
       id="path4209"
       style="fill:#845011;fill-opacity:1;fill-rule:evenodd;stroke:none;filter:url(#filter4219)" />
    <path
       d="m 70.370874,86.285545 c -10.930979,10.93098 -69.78004851,10.93098 -80.711028,0 -10.93098,-10.930979 -10.93098,-69.780049 -10e-7,-80.7110284 10.93098014,-10.9309799 69.780049,-10.9309801 80.711029,-3e-7 10.93098,10.9309797 10.93098,69.7800487 0,80.7110287 z"
       transform="matrix(1.1642105,0,0,0.91562495,29.956202,954.28388)"
       id="path3122"
       style="fill:#c0811d;fill-opacity:1;fill-rule:evenodd;stroke:none" />
    <path
       d="m 64.90625,24 c -9.588293,0 -19.173942,0.611575 -27.0625,1.78125 -7.888558,1.169675 -14.140228,3.070361 -16.59375,5 -2.454418,1.930343 -4.747824,6.632101 -6.21875,12.75 -1.470926,6.117899 -2.21875,13.608826 -2.21875,21.09375 0,7.484924 0.747824,14.944601 2.21875,21.0625 1.470926,6.117899 3.764332,10.819657 6.21875,12.75 2.454578,1.93047 8.677726,3.8584 16.5625,5.03125 7.884774,1.17285 17.47559,1.75 27.0625,1.75 9.58691,0 19.208976,-0.57715 27.09375,-1.75 7.884774,-1.17285 14.10792,-3.10078 16.5625,-5.03125 2.45442,-1.930343 4.74782,-6.632101 6.21875,-12.75 1.47093,-6.117899 2.21875,-13.577576 2.21875,-21.0625 0,-7.484924 -0.74782,-14.975851 -2.21875,-21.09375 -1.47093,-6.117899 -3.76433,-10.819657 -6.21875,-12.75 -2.45462,-1.9305 -8.681889,-3.830362 -16.5625,-5 C 84.088139,24.611612 74.494543,24 64.90625,24 z m 0,2.84375 c 8.314958,0 16.618004,0.499012 23.5625,1.53125 6.944496,1.032238 12.47033,2.425177 15.625,4.90625 3.15467,2.48108 5.07271,7.046287 6.40625,12.59375 1.33354,5.547463 1.96875,12.151543 1.96875,18.75 0,6.598457 -0.63521,13.171287 -1.96875,18.71875 -1.33354,5.547463 -3.25158,10.11267 -6.40625,12.59375 -3.1545,2.480943 -8.680634,3.873448 -15.625,4.90625 -6.944366,1.0328 -15.246871,1.53125 -23.5625,1.53125 -8.315629,0 -16.618134,-0.49845 -23.5625,-1.53125 C 34.399384,99.810948 28.873253,98.418443 25.71875,95.9375 22.564075,93.45642 20.646042,88.891213 19.3125,83.34375 17.978958,77.796287 17.34375,71.223457 17.34375,64.625 c 0,-6.598457 0.635208,-13.202537 1.96875,-18.75 1.333542,-5.547463 3.251575,-10.11267 6.40625,-12.59375 3.154667,-2.481073 8.680504,-3.874012 15.625,-4.90625 6.944496,-1.032238 15.247542,-1.53125 23.5625,-1.53125 z"
       transform="matrix(1.0516258,0,0,1.0516258,-3.3500331,928.39044)"
       id="path3925"
       style="fill:url(#linearGradient3933);fill-opacity:1;fill-rule:evenodd;stroke:none;filter:url(#filter3947)" />
    <path
       d="m 70.370874,86.285545 c -10.930979,10.93098 -69.78004851,10.93098 -80.711028,0 -10.93098,-10.930979 -10.93098,-69.780049 -10e-7,-80.7110284 10.93098014,-10.9309799 69.780049,-10.9309801 80.711029,-3e-7 10.93098,10.9309797 10.93098,69.7800487 0,80.7110287 z"
       transform="matrix(0.99425241,0,0,0.78195676,35.057557,960.42326)"
       id="path3124"
       style="fill:url(#linearGradient3967);fill-opacity:1;fill-rule:evenodd;stroke:none" />
    <path
       d="m 70.370874,86.285545 c -10.930979,10.93098 -69.78004851,10.93098 -80.711028,0 -10.93098,-10.930979 -10.93098,-69.780049 -10e-7,-80.7110284 10.93098014,-10.9309799 69.780049,-10.9309801 80.711029,-3e-7 10.93098,10.9309797 10.93098,69.7800487 0,80.7110287 z"
       transform="matrix(0.90211623,0,0,0.70949376,37.823058,963.75148)"
       id="path3975"
       style="fill:#000000;fill-opacity:1;fill-rule:evenodd;stroke:none" />
    <path
       d="m 70.370874,86.285545 c -10.930979,10.93098 -69.78004851,10.93098 -80.711028,0 -10.93098,-10.930979 -10.93098,-69.780049 -10e-7,-80.7110284 10.93098014,-10.9309799 69.780049,-10.9309801 80.711029,-3e-7 10.93098,10.9309797 10.93098,69.7800487 0,80.7110287 z"
       transform="matrix(0.89598515,0,0,0.70467181,38.007084,963.97296)"
       id="path3959"
       style="opacity:0.87727272;fill:url(#linearGradient4010);fill-opacity:1;fill-rule:evenodd;stroke:none" />
    <path
       d="m 208.875,18.78125 c -20.93993,0 -41.47706,2.559113 -48.0375,7.71875 -13.12088,10.319274 -13.12088,65.899476 0,76.21875 13.12088,10.31927 82.65412,10.31927 95.775,0 13.12088,-10.319274 13.12088,-65.899476 0,-76.21875 -6.56044,-5.159637 -26.79757,-7.71875 -47.7375,-7.71875 z m 0,2.5625 c 19.31264,0 37.90564,2.366331 43.95625,7.125 12.10123,9.517337 12.10123,60.763913 0,70.28125 -12.10123,9.51734 -76.14252,9.51734 -88.24375,0 -12.10123,-9.517337 -12.10123,-60.763913 0,-70.28125 6.05061,-4.758669 24.97486,-7.125 44.2875,-7.125 z"
       transform="matrix(1.0516258,0,0,1.0516258,-154.9315,928.39044)"
       clip-path="url(#clipPath4000)"
       id="path3979"
       style="fill:#692400;fill-opacity:1;fill-rule:evenodd;stroke:none;filter:url(#filter3996)" />
    <path
       d="m 70.370874,86.285545 c -10.930979,10.93098 -69.78004851,10.93098 -80.711028,0 -10.93098,-10.930979 -10.93098,-69.780049 -10e-7,-80.7110284 10.93098014,-10.9309799 69.780049,-10.9309801 80.711029,-3e-7 10.93098,10.9309797 10.93098,69.7800487 0,80.7110287 z"
       transform="matrix(0.87651195,0,0,0.68935659,38.359302,965.20714)"
       mask="url(#mask4343)"
       id="path4012"
       style="opacity:0.53636367;fill:url(#radialGradient4357);fill-opacity:1;fill-rule:evenodd;stroke:none;filter:url(#filter4363)" />
    <path
       d="m 112.50512,114.04181 a 45.862629,2.4138227 0 1 1 -91.725255,0 45.862629,2.4138227 0 1 1 91.725255,0 z"
       transform="matrix(1.0516258,0,0,1.0516258,-5.9988382,922.72207)"
       id="path4073"
       style="opacity:0.68636361;fill:url(#radialGradient4500);fill-opacity:1;fill-rule:evenodd;stroke:none;filter:url(#filter4502)" />
    <path
       d="m 112.50512,114.04181 a 45.862629,2.4138227 0 1 1 -91.725255,0 45.862629,2.4138227 0 1 1 91.725255,0 z"
       transform="matrix(0.26935164,0,0,0.39529493,8.5745037,996.53501)"
       id="path4095"
       style="fill:url(#radialGradient4097);fill-opacity:1;fill-rule:evenodd;stroke:none;filter:url(#filter4091)" />
    <path
       d="m 112.50512,114.04181 a 45.862629,2.4138227 0 1 1 -91.725255,0 45.862629,2.4138227 0 1 1 91.725255,0 z"
       transform="matrix(0.26935164,0,0,0.39529493,84.118356,996.53501)"
       id="path4099"
       style="fill:url(#radialGradient4101);fill-opacity:1;fill-rule:evenodd;stroke:none;filter:url(#filter4091)" />
    <path
       d="m 275.625,10.8125 c -22.05271,0 -44.09093,2.691172 -51,8.125 -13.81815,10.867656 -13.81815,69.382344 0,80.25 13.81815,10.86766 88.2131,10.86766 102.03125,0 13.81815,-10.867656 13.81815,-69.382344 0,-80.25 -6.90907,-5.433828 -28.97854,-8.125 -51.03125,-8.125 z m 0,12.75 c 18.8683,0 37.74485,2.319567 43.65625,6.96875 11.82281,9.298367 11.82281,59.357883 0,68.65625 -11.82281,9.29837 -75.45844,9.29837 -87.28125,0 -11.82281,-9.298367 -11.82281,-59.357883 0,-68.65625 5.9114,-4.649183 24.7567,-6.96875 43.625,-6.96875 z"
       transform="matrix(1.0516258,0,0,1.0516258,-224.98031,928.8365)"
       clip-path="url(#clipPath4120)"
       id="path4111"
       style="opacity:0.34545456;fill:url(#linearGradient4130);fill-opacity:1;fill-rule:evenodd;stroke:none;filter:url(#filter4116)" />
    <path
       d="m 203.4375,29 c -18.20773,0.281155 -35.68646,2.689015 -41.40625,7.1875 -12.20222,9.596768 -12.20222,61.246982 0,70.84375 12.20222,9.59677 77.89153,9.59677 90.09375,0 12.20222,-9.596768 12.20222,-61.246982 0,-70.84375 C 245.64257,31.089217 224.07293,28.681357 203.4375,29 z m 3.65625,10.5625 c 13.53014,0 27.04228,1.666149 31.28125,5 8.47794,6.667702 8.47794,42.582298 0,49.25 -8.47794,6.6677 -54.11581,6.6677 -62.59375,0 -8.47794,-6.667702 -8.47794,-42.582298 0,-49.25 4.23897,-3.333851 17.78236,-5 31.3125,-5 z"
       transform="matrix(1.0516258,0,0,1.0516258,-152.88024,921.02906)"
       clip-path="url(#clipPath4157)"
       id="path4136"
       style="opacity:0.77727272;fill:#000000;fill-opacity:1;fill-rule:evenodd;stroke:none;filter:url(#filter4149)" />
    <path
       d="m 72.834478,14.760234 a 7.241468,7.241468 0 1 1 -14.482936,0 7.241468,7.241468 0 1 1 14.482936,0 z"
       transform="matrix(0.3811641,0.04890801,-0.04890801,0.3811641,90.923819,928.55543)"
       id="path4195"
       style="fill:url(#radialGradient4197);fill-opacity:1;fill-rule:evenodd;stroke:none" />
    <path
       d="m 72.834478,14.760234 a 7.241468,7.241468 0 1 1 -14.482936,0 7.241468,7.241468 0 1 1 14.482936,0 z"
       transform="matrix(0.38396373,0.04926723,-0.04926723,0.38396373,50.465448,923.30151)"
       id="path4199"
       style="fill:url(#radialGradient4201);fill-opacity:1;fill-rule:evenodd;stroke:none" />
    <g
       transform="matrix(1.0516258,0,0,1.0516258,-3.3500331,-51.054097)"
       id="g4237"
       style="filter:url(#filter4240)">
      <path
         d="m 275.625,10.8125 c -22.05271,0 -44.09093,2.691172 -51,8.125 -13.81815,10.867656 -13.81815,69.382344 0,80.25 13.81815,10.86766 88.2131,10.86766 102.03125,0 13.81815,-10.867656 13.81815,-69.382344 0,-80.25 -6.90907,-5.433828 -28.97854,-8.125 -51.03125,-8.125 z m 0,12.75 c 18.8683,0 37.74485,2.319567 43.65625,6.96875 11.82281,9.298367 11.82281,59.357883 0,68.65625 -11.82281,9.29837 -75.45844,9.29837 -87.28125,0 -11.82281,-9.298367 -11.82281,-59.357883 0,-68.65625 5.9114,-4.649183 24.7567,-6.96875 43.625,-6.96875 z"
         transform="matrix(0.88585139,0,0,-0.88585139,-179.28656,1053.3753)"
         clip-path="url(#clipPath4120)"
         id="path4233"
         style="opacity:0.34545456;fill:url(#linearGradient4506);fill-opacity:1;fill-rule:evenodd;stroke:none;filter:url(#filter4116)" />
    </g>
    <g
       transform="translate(0,-1)"
       id="g4554">
      <rect
         width="3.9591272"
         height="3.9591246"
         rx="0"
         ry="0"
         x="-88.959122"
         y="990.66211"
         transform="scale(-1,1)"
         id="rect4359"
         style="opacity:0.85909095;fill:#000000;fill-opacity:1;fill-rule:evenodd;stroke:none" />
      <rect
         width="3.9591272"
         height="3.9591246"
         rx="0"
         ry="0"
         x="-84.959122"
         y="990.66211"
         transform="scale(-1,1)"
         id="rect4369"
         style="opacity:0.85909095;fill:#000000;fill-opacity:1;fill-rule:evenodd;stroke:none" />
      <rect
         width="3.9591272"
         height="3.9591246"
         rx="0"
         ry="0"
         x="-80.959122"
         y="990.66211"
         transform="scale(-1,1)"
         id="rect4373"
         style="opacity:0.85909095;fill:#000000;fill-opacity:1;fill-rule:evenodd;stroke:none" />
      <rect
         width="3.9591272"
         height="3.9591246"
         rx="0"
         ry="0"
         x="-54.959122"
         y="990.66211"
         transform="scale(-1,1)"
         id="rect4375"
         style="opacity:0.85909095;fill:#000000;fill-opacity:1;fill-rule:evenodd;stroke:none" />
      <rect
         width="3.9591272"
         height="3.9591246"
         rx="0"
         ry="0"
         x="-50.959122"
         y="990.66211"
         transform="scale(-1,1)"
         id="rect4377"
         style="opacity:0.85909095;fill:#000000;fill-opacity:1;fill-rule:evenodd;stroke:none" />
      <rect
         width="3.9591272"
         height="3.9591246"
         rx="0"
         ry="0"
         x="-46.959122"
         y="990.66211"
         transform="scale(-1,1)"
         id="rect4379"
         style="opacity:0.85909095;fill:#000000;fill-opacity:1;fill-rule:evenodd;stroke:none" />
      <rect
         width="3.9591272"
         height="3.9591246"
         rx="0"
         ry="0"
         x="-79.959122"
         y="1011.662"
         transform="scale(-1,1)"
         id="rect4381"
         style="opacity:0.85909095;fill:#000000;fill-opacity:1;fill-rule:evenodd;stroke:none" />
      <rect
         width="3.9591272"
         height="3.9591246"
         rx="0"
         ry="0"
         x="-50.959126"
         y="978.66211"
         transform="scale(-1,1)"
         id="rect4383"
         style="opacity:0.85909095;fill:#000000;fill-opacity:1;fill-rule:evenodd;stroke:none" />
      <rect
         width="3.9591272"
         height="3.9591246"
         rx="0"
         ry="0"
         x="-55.959122"
         y="1011.6622"
         transform="scale(-1,1)"
         id="rect4385"
         style="opacity:0.85909095;fill:#000000;fill-opacity:1;fill-rule:evenodd;stroke:none" />
      <rect
         width="3.9591272"
         height="3.9591246"
         rx="0"
         ry="0"
         x="-59.959126"
         y="1015.6622"
         transform="scale(-1,1)"
         id="rect4387"
         style="opacity:0.85909095;fill:#000000;fill-opacity:1;fill-rule:evenodd;stroke:none" />
      <rect
         width="3.9591272"
         height="3.9591246"
         rx="0"
         ry="0"
         x="-63.959122"
         y="1015.6622"
         transform="scale(-1,1)"
         id="rect4389"
         style="opacity:0.85909095;fill:#000000;fill-opacity:1;fill-rule:evenodd;stroke:none" />
      <rect
         width="3.9591272"
         height="3.9591246"
         rx="0"
         ry="0"
         x="-75.959122"
         y="1015.6622"
         transform="scale(-1,1)"
         id="rect4391"
         style="opacity:0.85909095;fill:#000000;fill-opacity:1;fill-rule:evenodd;stroke:none" />
      <rect
         width="3.9591272"
         height="3.9591246"
         rx="0"
         ry="0"
         x="-67.959122"
         y="1015.6622"
         transform="scale(-1,1)"
         id="rect4393"
         style="opacity:0.85909095;fill:#000000;fill-opacity:1;fill-rule:evenodd;stroke:none" />
      <rect
         width="3.9591272"
         height="3.9591246"
         rx="0"
         ry="0"
         x="-71.959122"
         y="1015.6622"
         transform="scale(-1,1)"
         id="rect4395"
         style="opacity:0.85909095;fill:#000000;fill-opacity:1;fill-rule:evenodd;stroke:none" />
      <rect
         width="3.9591272"
         height="3.9591246"
         rx="0"
         ry="0"
         x="-54.959122"
         y="982.66211"
         transform="scale(-1,1)"
         id="rect4397"
         style="opacity:0.85909095;fill:#000000;fill-opacity:1;fill-rule:evenodd;stroke:none" />
      <rect
         width="3.9591272"
         height="3.9591246"
         rx="0"
         ry="0"
         x="-46.959122"
         y="982.66211"
         transform="scale(-1,1)"
         id="rect4399"
         style="opacity:0.85909095;fill:#000000;fill-opacity:1;fill-rule:evenodd;stroke:none" />
      <rect
         width="3.9591272"
         height="3.9591246"
         rx="0"
         ry="0"
         x="-54.959122"
         y="986.66211"
         transform="scale(-1,1)"
         id="rect4401"
         style="opacity:0.85909095;fill:#000000;fill-opacity:1;fill-rule:evenodd;stroke:none" />
      <rect
         width="3.9591272"
         height="3.9591246"
         rx="0"
         ry="0"
         x="-46.959122"
         y="986.66211"
         transform="scale(-1,1)"
         id="rect4403"
         style="opacity:0.85909095;fill:#000000;fill-opacity:1;fill-rule:evenodd;stroke:none" />
      <rect
         width="3.9591272"
         height="3.9591246"
         rx="0"
         ry="0"
         x="-84.959122"
         y="978.66211"
         transform="scale(-1,1)"
         id="rect4405"
         style="opacity:0.85909095;fill:#000000;fill-opacity:1;fill-rule:evenodd;stroke:none" />
      <rect
         width="3.9591272"
         height="3.9591246"
         rx="0"
         ry="0"
         x="-88.959122"
         y="982.66211"
         transform="scale(-1,1)"
         id="rect4407"
         style="opacity:0.85909095;fill:#000000;fill-opacity:1;fill-rule:evenodd;stroke:none" />
      <rect
         width="3.9591272"
         height="3.9591246"
         rx="0"
         ry="0"
         x="-80.959122"
         y="982.66211"
         transform="scale(-1,1)"
         id="rect4409"
         style="opacity:0.85909095;fill:#000000;fill-opacity:1;fill-rule:evenodd;stroke:none" />
      <rect
         width="3.9591272"
         height="3.9591246"
         rx="0"
         ry="0"
         x="-88.959122"
         y="986.66211"
         transform="scale(-1,1)"
         id="rect4411"
         style="opacity:0.85909095;fill:#000000;fill-opacity:1;fill-rule:evenodd;stroke:none" />
      <rect
         width="3.9591272"
         height="3.9591246"
         rx="0"
         ry="0"
         x="-80.959122"
         y="986.66211"
         transform="scale(-1,1)"
         id="rect4413"
         style="opacity:0.85909095;fill:#000000;fill-opacity:1;fill-rule:evenodd;stroke:none" />
      <rect
         width="3.7647681"
         height="3.7647655"
         rx="0"
         ry="0"
         x="-85.764771"
         y="988.36212"
         transform="matrix(-1.0516258,0,0,1.0516258,-1.2333221,-48.72493)"
         id="rect4442"
         style="opacity:0.35925622;fill:#000000;fill-opacity:1;fill-rule:evenodd;stroke:none;filter:url(#filter4496)" />
      <rect
         width="3.7647681"
         height="3.7647655"
         rx="0"
         ry="0"
         x="-81.764771"
         y="988.36212"
         transform="matrix(-1.0516258,0,0,1.0516258,-1.0268121,-48.724929)"
         id="rect4444"
         style="opacity:0.35925622;fill:#000000;fill-opacity:1;fill-rule:evenodd;stroke:none;filter:url(#filter4496)" />
      <rect
         width="3.7647681"
         height="3.7647655"
         rx="0"
         ry="0"
         x="-77.764771"
         y="988.36212"
         transform="matrix(-1.0516258,0,0,1.0516258,-0.8203121,-48.724929)"
         id="rect4446"
         style="opacity:0.35925622;fill:#000000;fill-opacity:1;fill-rule:evenodd;stroke:none;filter:url(#filter4496)" />
      <rect
         width="3.7647681"
         height="3.7647655"
         rx="0"
         ry="0"
         x="-53.764763"
         y="988.36212"
         transform="matrix(-1.0516258,0,0,1.0516258,-1.5812821,-48.72493)"
         id="rect4448"
         style="opacity:0.35925622;fill:#000000;fill-opacity:1;fill-rule:evenodd;stroke:none;filter:url(#filter4496)" />
      <rect
         width="3.7647681"
         height="3.7647655"
         rx="0"
         ry="0"
         x="-49.764763"
         y="988.36212"
         transform="matrix(-1.0516258,0,0,1.0516258,-1.3747821,-48.724929)"
         id="rect4450"
         style="opacity:0.35925622;fill:#000000;fill-opacity:1;fill-rule:evenodd;stroke:none;filter:url(#filter4496)" />
      <rect
         width="3.7647681"
         height="3.7647655"
         rx="0"
         ry="0"
         x="-45.764763"
         y="988.36212"
         transform="matrix(-1.0516258,0,0,1.0516258,-1.1682821,-48.72493)"
         id="rect4452"
         style="opacity:0.35925622;fill:#000000;fill-opacity:1;fill-rule:evenodd;stroke:none;filter:url(#filter4496)" />
      <rect
         width="3.7647681"
         height="3.7647655"
         rx="0"
         ry="0"
         x="-77.764771"
         y="1007.3622"
         transform="matrix(-1.0516258,0,0,1.0516258,-1.8203121,-47.705884)"
         id="rect4454"
         style="opacity:0.35925622;fill:#000000;fill-opacity:1;fill-rule:evenodd;stroke:none;filter:url(#filter4496)" />
      <rect
         width="3.7647681"
         height="3.7647655"
         rx="0"
         ry="0"
         x="-49.764763"
         y="976.36212"
         transform="matrix(-1.0516258,0,0,1.0516258,-1.3747821,-48.10542)"
         id="rect4456"
         style="opacity:0.35925622;fill:#000000;fill-opacity:1;fill-rule:evenodd;stroke:none;filter:url(#filter4496)" />
      <rect
         width="3.7647681"
         height="3.7647655"
         rx="0"
         ry="0"
         x="-53.764763"
         y="1007.3622"
         transform="matrix(-1.0516258,0,0,1.0516258,-0.5812821,-47.705826)"
         id="rect4458"
         style="opacity:0.35925622;fill:#000000;fill-opacity:1;fill-rule:evenodd;stroke:none;filter:url(#filter4496)" />
      <rect
         width="3.7647681"
         height="3.7647655"
         rx="0"
         ry="0"
         x="-57.764763"
         y="1011.3622"
         transform="matrix(-1.0516258,0,0,1.0516258,-0.7877921,-47.912329)"
         id="rect4460"
         style="opacity:0.35925622;fill:#000000;fill-opacity:1;fill-rule:evenodd;stroke:none;filter:url(#filter4496)" />
      <rect
         width="3.7647681"
         height="3.7647655"
         rx="0"
         ry="0"
         x="-61.764763"
         y="1011.3622"
         transform="matrix(-1.0516258,0,0,1.0516258,-0.9942921,-47.912329)"
         id="rect4462"
         style="opacity:0.35925622;fill:#000000;fill-opacity:1;fill-rule:evenodd;stroke:none;filter:url(#filter4496)" />
      <rect
         width="3.7647681"
         height="3.7647655"
         rx="0"
         ry="0"
         x="-73.764771"
         y="1011.3622"
         transform="matrix(-1.0516258,0,0,1.0516258,-1.6138121,-47.912387)"
         id="rect4464"
         style="opacity:0.35925622;fill:#000000;fill-opacity:1;fill-rule:evenodd;stroke:none;filter:url(#filter4496)" />
      <rect
         width="3.7647681"
         height="3.7647655"
         rx="0"
         ry="0"
         x="-65.764771"
         y="1011.3622"
         transform="matrix(-1.0516258,0,0,1.0516258,-1.2008021,-47.91231)"
         id="rect4466"
         style="opacity:0.35925622;fill:#000000;fill-opacity:1;fill-rule:evenodd;stroke:none;filter:url(#filter4496)" />
      <rect
         width="3.7647681"
         height="3.7647655"
         rx="0"
         ry="0"
         x="-69.764771"
         y="1011.3622"
         transform="matrix(-1.0516258,0,0,1.0516258,-1.4073121,-47.912387)"
         id="rect4468"
         style="opacity:0.35925622;fill:#000000;fill-opacity:1;fill-rule:evenodd;stroke:none;filter:url(#filter4496)" />
      <rect
         width="3.7647681"
         height="3.7647655"
         rx="0"
         ry="0"
         x="-53.764763"
         y="980.36212"
         transform="matrix(-1.0516258,0,0,1.0516258,-1.5812821,-48.311923)"
         id="rect4470"
         style="opacity:0.35925622;fill:#000000;fill-opacity:1;fill-rule:evenodd;stroke:none;filter:url(#filter4496)" />
      <rect
         width="3.7647681"
         height="3.7647655"
         rx="0"
         ry="0"
         x="-45.764763"
         y="980.36212"
         transform="matrix(-1.0516258,0,0,1.0516258,-1.1682821,-48.311923)"
         id="rect4472"
         style="opacity:0.35925622;fill:#000000;fill-opacity:1;fill-rule:evenodd;stroke:none;filter:url(#filter4496)" />
      <rect
         width="3.7647681"
         height="3.7647655"
         rx="0"
         ry="0"
         x="-53.764763"
         y="984.36212"
         transform="matrix(-1.0516258,0,0,1.0516258,-1.5812821,-48.518427)"
         id="rect4474"
         style="opacity:0.35925622;fill:#000000;fill-opacity:1;fill-rule:evenodd;stroke:none;filter:url(#filter4496)" />
      <rect
         width="3.7647681"
         height="3.7647655"
         rx="0"
         ry="0"
         x="-45.764763"
         y="984.36212"
         transform="matrix(-1.0516258,0,0,1.0516258,-1.1682821,-48.518427)"
         id="rect4476"
         style="opacity:0.35925622;fill:#000000;fill-opacity:1;fill-rule:evenodd;stroke:none;filter:url(#filter4496)" />
      <rect
         width="3.7647681"
         height="3.7647655"
         rx="0"
         ry="0"
         x="-81.764771"
         y="976.36212"
         transform="matrix(-1.0516258,0,0,1.0516258,-1.0268121,-48.105423)"
         id="rect4478"
         style="opacity:0.35925622;fill:#000000;fill-opacity:1;fill-rule:evenodd;stroke:none;filter:url(#filter4496)" />
      <rect
         width="3.7647681"
         height="3.7647655"
         rx="0"
         ry="0"
         x="-85.764771"
         y="980.36212"
         transform="matrix(-1.0516258,0,0,1.0516258,-1.2333221,-48.311905)"
         id="rect4480"
         style="opacity:0.35925622;fill:#000000;fill-opacity:1;fill-rule:evenodd;stroke:none;filter:url(#filter4496)" />
      <rect
         width="3.7647681"
         height="3.7647655"
         rx="0"
         ry="0"
         x="-77.764771"
         y="980.36212"
         transform="matrix(-1.0516258,0,0,1.0516258,-0.8203121,-48.311905)"
         id="rect4482"
         style="opacity:0.35925622;fill:#000000;fill-opacity:1;fill-rule:evenodd;stroke:none;filter:url(#filter4496)" />
      <rect
         width="3.7647681"
         height="3.7647655"
         rx="0"
         ry="0"
         x="-85.764771"
         y="984.36212"
         transform="matrix(-1.0516258,0,0,1.0516258,-1.2333221,-48.518427)"
         id="rect4484"
         style="opacity:0.35925622;fill:#000000;fill-opacity:1;fill-rule:evenodd;stroke:none;filter:url(#filter4496)" />
      <rect
         width="3.7647681"
         height="3.7647655"
         rx="0"
         ry="0"
         x="-77.764771"
         y="984.36212"
         transform="matrix(-1.0516258,0,0,1.0516258,-0.8203121,-48.518427)"
         id="rect4486"
         style="opacity:0.35925622;fill:#000000;fill-opacity:1;fill-rule:evenodd;stroke:none;filter:url(#filter4496)" />
    </g>
    <path
       d="m 203.4375,29 c -18.20773,0.281155 -35.68646,2.689015 -41.40625,7.1875 -12.20222,9.596768 -12.20222,61.246982 0,70.84375 12.20222,9.59677 77.89153,9.59677 90.09375,0 12.20222,-9.596768 12.20222,-61.246982 0,-70.84375 C 245.64257,31.089217 224.07293,28.681357 203.4375,29 z m 3.65625,10.5625 c 13.53014,0 27.04228,1.666149 31.28125,5 8.47794,6.667702 8.47794,42.582298 0,49.25 -8.47794,6.6677 -54.11581,6.6677 -62.59375,0 -8.47794,-6.667702 -8.47794,-42.582298 0,-49.25 4.23897,-3.333851 17.78236,-5 31.3125,-5 z"
       transform="matrix(1.0516258,0,0,1.0516258,-152.88024,921.02906)"
       clip-path="url(#clipPath4157)"
       id="path4327"
       style="opacity:0.77727272;fill:#000000;fill-opacity:1;fill-rule:evenodd;stroke:none;filter:url(#filter4149)" />
    <path
       d="m 64.75,39.40625 c -6.405552,0 -12.803008,0.384218 -18.21875,1.1875 -5.415742,0.803282 -9.713842,1.719227 -12.8125,4.15625 -3.527696,2.774452 -4.998432,7.336556 -6.03125,12.59375 a 3.3090286,3.3090286 0 0 0 2.375,3.8125 c 9.37007,2.553907 21.117833,4.03125 33.90625,4.03125 13.499974,0 25.833278,-1.648556 35.4375,-4.46875 a 3.3090286,3.3090286 0 0 0 2.3125,-3.84375 C 100.67767,51.838951 99.249245,47.452921 95.8125,44.75 92.710492,42.310342 88.391891,41.396921 82.96875,40.59375 77.545609,39.790579 71.155552,39.40625 64.75,39.40625 z"
       transform="matrix(1.0516258,0,0,1.0516258,-3.6655209,921.7652)"
       id="path4173"
       style="opacity:0.87727272;fill:url(#linearGradient4175);fill-opacity:1;fill-rule:evenodd;stroke:none" />
  </g>
</svg>
