<?xml version="1.0" encoding="UTF-8" standalone="no"?>
<!-- Created with Inkscape (http://www.inkscape.org/) -->

<svg
   xmlns:dc="http://purl.org/dc/elements/1.1/"
   xmlns:cc="http://creativecommons.org/ns#"
   xmlns:rdf="http://www.w3.org/1999/02/22-rdf-syntax-ns#"
   xmlns:svg="http://www.w3.org/2000/svg"
   xmlns="http://www.w3.org/2000/svg"
   xmlns:xlink="http://www.w3.org/1999/xlink"
   xmlns:sodipodi="http://sodipodi.sourceforge.net/DTD/sodipodi-0.dtd"
   xmlns:inkscape="http://www.inkscape.org/namespaces/inkscape"
   width="128"
   height="128"
   id="svg2"
   version="1.1"
   inkscape:version="0.48.1 r9760"
   sodipodi:docname="kde-thelapathy.svgz"
   inkscape:export-filename="/home/pinheiro/pics/oxygen-icons/scalable/apps/small/32x32/kde-telapathy.png"
   inkscape:export-xdpi="360"
   inkscape:export-ydpi="360">
  <defs
     id="defs4">
    <linearGradient
       id="linearGradient3904">
      <stop
         id="stop3906"
         offset="0"
         style="stop-color:#7cd4ff;stop-opacity:1;" />
      <stop
         style="stop-color:#3e8fb4;stop-opacity:1;"
         offset="0.60811019"
         id="stop3908" />
      <stop
         id="stop3910"
         offset="1"
         style="stop-color:#004b69;stop-opacity:1;" />
    </linearGradient>
    <linearGradient
       inkscape:collect="always"
       id="linearGradient5463">
      <stop
         style="stop-color:#96daf9;stop-opacity:1;"
         offset="0"
         id="stop5465" />
      <stop
         style="stop-color:#96daf9;stop-opacity:0;"
         offset="1"
         id="stop5467" />
    </linearGradient>
    <linearGradient
       id="linearGradient5071">
      <stop
         id="stop5073"
         offset="0"
         style="stop-color:#171c00;stop-opacity:1;" />
      <stop
         id="stop5075"
         offset="1"
         style="stop-color:#111c00;stop-opacity:0;" />
    </linearGradient>
    <linearGradient
       id="linearGradient5065">
      <stop
         id="stop5067"
         offset="0"
         style="stop-color:#eeff9f;stop-opacity:1;" />
      <stop
         id="stop5069"
         offset="1"
         style="stop-color:#dfff9f;stop-opacity:0;" />
    </linearGradient>
    <linearGradient
       id="linearGradient5059">
      <stop
         id="stop5061"
         offset="0"
         style="stop-color:#9bca00;stop-opacity:1;" />
      <stop
         id="stop5063"
         offset="1"
         style="stop-color:#bcff11;stop-opacity:0;" />
    </linearGradient>
    <linearGradient
       id="linearGradient5051">
      <stop
         id="stop5053"
         offset="0"
         style="stop-color:#386114;stop-opacity:1;" />
      <stop
         id="stop5055"
         offset="1"
         style="stop-color:#476114;stop-opacity:0;" />
    </linearGradient>
    <linearGradient
       id="linearGradient5045">
      <stop
         id="stop5047"
         offset="0"
         style="stop-color:#e9ff9f;stop-opacity:1;" />
      <stop
         id="stop5049"
         offset="1"
         style="stop-color:#eeff9f;stop-opacity:0;" />
    </linearGradient>
    <linearGradient
       id="linearGradient5039">
      <stop
         style="stop-color:#daff32;stop-opacity:1;"
         offset="0"
         id="stop5041" />
      <stop
         style="stop-color:#3b6900;stop-opacity:1;"
         offset="1"
         id="stop5043" />
    </linearGradient>
    <linearGradient
       inkscape:collect="always"
       id="linearGradient4901">
      <stop
         style="stop-color:#042833;stop-opacity:1;"
         offset="0"
         id="stop4903" />
      <stop
         style="stop-color:#042833;stop-opacity:0;"
         offset="1"
         id="stop4905" />
    </linearGradient>
    <linearGradient
       id="linearGradient4882">
      <stop
         style="stop-color:#143461;stop-opacity:1;"
         offset="0"
         id="stop4884" />
      <stop
         style="stop-color:#143461;stop-opacity:0;"
         offset="1"
         id="stop4886" />
    </linearGradient>
    <linearGradient
       inkscape:collect="always"
       id="linearGradient4824">
      <stop
         style="stop-color:#00171c;stop-opacity:1;"
         offset="0"
         id="stop4826" />
      <stop
         style="stop-color:#00171c;stop-opacity:0;"
         offset="1"
         id="stop4828" />
    </linearGradient>
    <linearGradient
       id="linearGradient4749">
      <stop
         style="stop-color:#0091ca;stop-opacity:1;"
         offset="0"
         id="stop4751" />
      <stop
         style="stop-color:#11dcff;stop-opacity:0"
         offset="1"
         id="stop4753" />
    </linearGradient>
    <linearGradient
       id="linearGradient4609"
       inkscape:collect="always">
      <stop
         id="stop4611"
         offset="0"
         style="stop-color:#89d7e4;stop-opacity:1" />
      <stop
         id="stop4613"
         offset="1"
         style="stop-color:#2fb8d0;stop-opacity:0;" />
    </linearGradient>
    <linearGradient
       id="linearGradient4539">
      <stop
         style="stop-color:#7cd4ff;stop-opacity:1;"
         offset="0"
         id="stop4541" />
      <stop
         id="stop3902"
         offset="0.5"
         style="stop-color:#3e8fb4;stop-opacity:1;" />
      <stop
         style="stop-color:#004b69;stop-opacity:1;"
         offset="1"
         id="stop4543" />
    </linearGradient>
    <linearGradient
       id="linearGradient4497">
      <stop
         style="stop-color:#9fdfff;stop-opacity:1;"
         offset="0"
         id="stop4499" />
      <stop
         style="stop-color:#9ff0ff;stop-opacity:0;"
         offset="1"
         id="stop4501" />
    </linearGradient>
    <linearGradient
       id="linearGradient4299">
      <stop
         style="stop-color:#bef3ff;stop-opacity:0.98290598;"
         offset="0"
         id="stop4301" />
      <stop
         style="stop-color:#75e6ff;stop-opacity:0;"
         offset="1"
         id="stop4303" />
    </linearGradient>
    <linearGradient
       id="linearGradient4268">
      <stop
         style="stop-color:#55e0ff;stop-opacity:1;"
         offset="0"
         id="stop4270" />
      <stop
         id="stop4276"
         offset="0.5"
         style="stop-color:#2ac0e1;stop-opacity:1;" />
      <stop
         style="stop-color:#00a1c4;stop-opacity:1;"
         offset="1"
         id="stop4272" />
    </linearGradient>
    <filter
       id="filter7860"
       inkscape:label="filter12">
      <feBlend
         blend="normal"
         id="feBlend7862"
         in2="SourceGraphic"
         mode="screen" />
    </filter>
    <linearGradient
       inkscape:collect="always"
       xlink:href="#linearGradient4299"
       id="linearGradient4305"
       x1="55.079174"
       y1="12.232768"
       x2="55.079174"
       y2="90.026535"
       gradientUnits="userSpaceOnUse" />
    <radialGradient
       inkscape:collect="always"
       xlink:href="#linearGradient4268"
       id="radialGradient4390"
       gradientUnits="userSpaceOnUse"
       gradientTransform="matrix(1,0,0,0.63840893,105,353.22334)"
       cx="64.215409"
       cy="988.61219"
       fx="64.465408"
       fy="989.78699"
       r="54.432211" />
    <radialGradient
       inkscape:collect="always"
       xlink:href="#linearGradient4539"
       id="radialGradient4545"
       cx="65.125"
       cy="60.999791"
       fx="87.516037"
       fy="67.562584"
       r="56.841491"
       gradientTransform="matrix(1.2906724,0,0,1.1949353,-18.926133,912.47117)"
       gradientUnits="userSpaceOnUse" />
    <linearGradient
       inkscape:collect="always"
       xlink:href="#linearGradient4497"
       id="linearGradient4564"
       x1="7.4941335"
       y1="-7.3202844"
       x2="10.346652"
       y2="61.587627"
       gradientUnits="userSpaceOnUse"
       gradientTransform="matrix(0.74732747,-0.06577944,0,0.93552974,55.810948,939.5075)" />
    <clipPath
       clipPathUnits="userSpaceOnUse"
       id="clipPath4633">
      <path
         sodipodi:nodetypes="ssssccsss"
         inkscape:connector-curvature="0"
         id="path4635"
         d="m 69.65625,932.73718 c -3.765618,0.0129 -7.605084,0.33656 -11.5,0.96875 -31.159331,5.0575 -53.2882786,28.7562 -49.4375,52.9375 2.068601,12.98996 12.075692,21.90467 24.0625,29.59377 4.324976,2.7743 0.03545,17.7964 -9.09375,21.75 18.630389,-0.5848 28.25302,-8.1707 33.40625,-15.8438 4.863182,0.2239 9.890802,-0.046 15,-0.875 31.15933,-5.0575 53.28828,-28.75617 49.4375,-52.93747 -3.36943,-21.15864 -25.515677,-35.68392 -51.875,-35.59375 z"
         style="fill:url(#radialGradient4637);fill-opacity:1;stroke:none" />
    </clipPath>
    <radialGradient
       inkscape:collect="always"
       xlink:href="#linearGradient4539"
       id="radialGradient4637"
       gradientUnits="userSpaceOnUse"
       gradientTransform="matrix(1.2906724,0,0,1.1949353,-18.930039,912.47117)"
       cx="65.125"
       cy="60.999791"
       fx="65.125"
       fy="74.771309"
       r="56.841491" />
    <filter
       inkscape:collect="always"
       id="filter4639">
      <feGaussianBlur
         inkscape:collect="always"
         stdDeviation="2.2692724"
         id="feGaussianBlur4641" />
    </filter>
    <clipPath
       clipPathUnits="userSpaceOnUse"
       id="clipPath4676">
      <path
         sodipodi:nodetypes="ssssccsss"
         inkscape:connector-curvature="0"
         id="path4678"
         d="m -24.34375,863.23718 c -3.765618,0.0129 -7.605084,0.33656 -11.5,0.96875 -31.159331,5.0575 -53.288279,28.75619 -49.4375,52.9375 2.068601,12.98996 12.075692,21.90469 24.0625,29.59375 4.324976,2.7743 0.03545,17.7964 -9.09375,21.75 18.630389,-0.58483 28.25302,-8.1707 33.40625,-15.84375 4.863182,0.22384 9.890802,-0.0457 15,-0.875 31.15933,-5.0575 53.28828,-28.7562 49.4375,-52.9375 -3.36943,-21.15864 -25.515677,-35.68392 -51.875,-35.59375 z"
         style="fill:url(#radialGradient4680);fill-opacity:1;stroke:none" />
    </clipPath>
    <radialGradient
       inkscape:collect="always"
       xlink:href="#linearGradient4539"
       id="radialGradient4680"
       gradientUnits="userSpaceOnUse"
       gradientTransform="matrix(1.2906724,0,0,1.1949353,-112.93004,842.97117)"
       cx="65.125"
       cy="60.999791"
       fx="65.125"
       fy="74.771309"
       r="56.841491" />
    <filter
       inkscape:collect="always"
       id="filter4686">
      <feGaussianBlur
         inkscape:collect="always"
         stdDeviation="3.3496307"
         id="feGaussianBlur4688" />
    </filter>
    <radialGradient
       inkscape:collect="always"
       xlink:href="#linearGradient4749"
       id="radialGradient4755"
       cx="48.575001"
       cy="97.567253"
       fx="48.575001"
       fy="97.567253"
       r="17.737136"
       gradientTransform="matrix(3.2308548,-0.09161569,0.07698348,2.7148454,-109.95842,-165.83321)"
       gradientUnits="userSpaceOnUse" />
    <filter
       inkscape:collect="always"
       id="filter4779"
       x="-0.095551766"
       width="1.1911035"
       y="-0.15901147"
       height="1.3180229">
      <feGaussianBlur
         inkscape:collect="always"
         stdDeviation="3.0073066"
         id="feGaussianBlur4781" />
    </filter>
    <filter
       inkscape:collect="always"
       id="filter4794">
      <feGaussianBlur
         inkscape:collect="always"
         stdDeviation="0.55423086"
         id="feGaussianBlur4796" />
    </filter>
    <filter
       inkscape:collect="always"
       id="filter4820">
      <feGaussianBlur
         inkscape:collect="always"
         stdDeviation="3.4515838"
         id="feGaussianBlur4822" />
    </filter>
    <clipPath
       clipPathUnits="userSpaceOnUse"
       id="clipPath4856">
      <path
         sodipodi:nodetypes="ssssccsss"
         inkscape:connector-curvature="0"
         id="path4858"
         d="m -66.104346,932.73718 c -3.765618,0.0129 -7.605084,0.33656 -11.5,0.96875 -31.159334,5.0575 -53.288274,28.7562 -49.437504,52.9375 2.0686,12.98996 12.0757,21.90467 24.0625,29.59377 4.32498,2.7743 0.0354,17.7964 -9.09375,21.75 18.630393,-0.5848 28.253024,-8.1707 33.406254,-15.8438 4.863182,0.2239 9.890802,-0.046 15,-0.875 31.159334,-5.0575 53.288284,-28.75616 49.437504,-52.93747 -3.36943,-21.15864 -25.515681,-35.68392 -51.875004,-35.59375 z"
         style="fill:url(#radialGradient4860);fill-opacity:1;stroke:none" />
    </clipPath>
    <radialGradient
       inkscape:collect="always"
       xlink:href="#linearGradient4539"
       id="radialGradient4860"
       gradientUnits="userSpaceOnUse"
       gradientTransform="matrix(1.2906724,0,0,1.1949353,-154.69064,912.47117)"
       cx="65.125"
       cy="60.999791"
       fx="87.516037"
       fy="67.562584"
       r="56.841491" />
    <filter
       inkscape:collect="always"
       id="filter4870">
      <feGaussianBlur
         inkscape:collect="always"
         stdDeviation="0.87698459"
         id="feGaussianBlur4872" />
    </filter>
    <linearGradient
       inkscape:collect="always"
       xlink:href="#linearGradient4882"
       id="linearGradient4888"
       x1="-82.577522"
       y1="1054.1454"
       x2="-82.577522"
       y2="945.20435"
       gradientUnits="userSpaceOnUse" />
    <filter
       inkscape:collect="always"
       id="filter4897"
       x="-0.089651105"
       width="1.1793022"
       y="-0.20998193"
       height="1.4199639">
      <feGaussianBlur
         inkscape:collect="always"
         stdDeviation="0.62072217"
         id="feGaussianBlur4899" />
    </filter>
    <linearGradient
       inkscape:collect="always"
       xlink:href="#linearGradient4882"
       id="linearGradient4959"
       gradientUnits="userSpaceOnUse"
       x1="-82.577522"
       y1="1054.1454"
       x2="-82.577522"
       y2="945.20435" />
    <linearGradient
       inkscape:collect="always"
       xlink:href="#linearGradient4882"
       id="linearGradient4969"
       gradientUnits="userSpaceOnUse"
       x1="-82.577522"
       y1="1054.1454"
       x2="-82.577522"
       y2="945.20435" />
    <linearGradient
       inkscape:collect="always"
       xlink:href="#linearGradient4882"
       id="linearGradient5011"
       gradientUnits="userSpaceOnUse"
       x1="-82.577522"
       y1="1054.1454"
       x2="-82.577522"
       y2="945.20435" />
    <linearGradient
       inkscape:collect="always"
       xlink:href="#linearGradient5051"
       id="linearGradient5057"
       gradientUnits="userSpaceOnUse"
       x1="-82.577522"
       y1="1054.1454"
       x2="-82.577522"
       y2="945.20435" />
    <linearGradient
       inkscape:collect="always"
       xlink:href="#linearGradient4824"
       id="linearGradient5326"
       gradientUnits="userSpaceOnUse"
       x1="79.752075"
       y1="115.83942"
       x2="79.752075"
       y2="62.532864" />
    <radialGradient
       inkscape:collect="always"
       xlink:href="#linearGradient3904"
       id="radialGradient5328"
       gradientUnits="userSpaceOnUse"
       gradientTransform="matrix(1.2906724,0,0,1.1949353,-18.926133,912.47117)"
       cx="65.125"
       cy="60.999791"
       fx="87.516037"
       fy="67.562584"
       r="56.841491" />
    <linearGradient
       inkscape:collect="always"
       xlink:href="#linearGradient4497"
       id="linearGradient5330"
       gradientUnits="userSpaceOnUse"
       gradientTransform="matrix(0.74732747,-0.06577944,0,0.93552974,55.810948,939.5075)"
       x1="7.4941335"
       y1="-7.3202844"
       x2="10.346652"
       y2="61.587627" />
    <radialGradient
       inkscape:collect="always"
       xlink:href="#linearGradient4609"
       id="radialGradient5332"
       gradientUnits="userSpaceOnUse"
       gradientTransform="matrix(1.6579738,0,0,0.79259383,-90.71814,39.13084)"
       cx="142.92635"
       cy="205.0354"
       fx="142.92635"
       fy="205.0354"
       r="61.999102" />
    <radialGradient
       inkscape:collect="always"
       xlink:href="#linearGradient4749"
       id="radialGradient5334"
       gradientUnits="userSpaceOnUse"
       gradientTransform="matrix(3.2308548,-0.09161569,0.07698348,2.7148454,-109.95842,-165.83321)"
       cx="48.575001"
       cy="97.567253"
       fx="48.575001"
       fy="97.567253"
       r="17.737136" />
    <radialGradient
       inkscape:collect="always"
       xlink:href="#linearGradient4497"
       id="radialGradient5336"
       gradientUnits="userSpaceOnUse"
       gradientTransform="matrix(0.94745138,0,0,0.54341473,3.4522461,438.27667)"
       cx="65.032387"
       cy="963.30902"
       fx="64.325279"
       fy="921.39209"
       r="51.628277" />
    <linearGradient
       inkscape:collect="always"
       xlink:href="#linearGradient4882"
       id="linearGradient5338"
       gradientUnits="userSpaceOnUse"
       x1="-82.577522"
       y1="1054.1454"
       x2="-82.577522"
       y2="945.20435" />
    <linearGradient
       inkscape:collect="always"
       xlink:href="#linearGradient4901"
       id="linearGradient5340"
       gradientUnits="userSpaceOnUse"
       gradientTransform="translate(1,924.36218)"
       x1="22.198344"
       y1="112.47586"
       x2="37.614532"
       y2="108.34511" />
    <linearGradient
       inkscape:collect="always"
       xlink:href="#linearGradient5051"
       id="linearGradient5342"
       gradientUnits="userSpaceOnUse"
       x1="-82.577522"
       y1="1054.1454"
       x2="-82.577522"
       y2="945.20435" />
    <radialGradient
       inkscape:collect="always"
       xlink:href="#linearGradient5463"
       id="radialGradient5469"
       cx="98.684631"
       cy="66"
       fx="98.779564"
       fy="70.115265"
       r="18.68463"
       gradientTransform="matrix(2.6333862,0,0,3.5234657,-161.19012,-166.54874)"
       gradientUnits="userSpaceOnUse" />
    <radialGradient
       inkscape:collect="always"
       xlink:href="#linearGradient5463"
       id="radialGradient5481"
       gradientUnits="userSpaceOnUse"
       gradientTransform="matrix(2.6333862,0,0,3.5234657,-161.19012,-166.54874)"
       cx="98.684631"
       cy="66"
       fx="98.684631"
       fy="66"
       r="18.68463" />
    <filter
       inkscape:collect="always"
       id="filter3894">
      <feGaussianBlur
         inkscape:collect="always"
         stdDeviation="0.84727793"
         id="feGaussianBlur3896" />
    </filter>
    <filter
       inkscape:collect="always"
       id="filter3898"
       x="-0.11016745"
       width="1.2203349"
       y="-0.082337523"
       height="1.164675">
      <feGaussianBlur
         inkscape:collect="always"
         stdDeviation="1.7153651"
         id="feGaussianBlur3900" />
    </filter>
  </defs>
  <sodipodi:namedview
     id="base"
     pagecolor="#ffffff"
     bordercolor="#666666"
     borderopacity="1.0"
     inkscape:pageopacity="0.0"
     inkscape:pageshadow="2"
     inkscape:zoom="2"
     inkscape:cx="-65.280875"
     inkscape:cy="68.303024"
     inkscape:document-units="px"
     inkscape:current-layer="layer1"
     showgrid="false"
     inkscape:window-width="1224"
     inkscape:window-height="1117"
     inkscape:window-x="379"
     inkscape:window-y="200"
     inkscape:window-maximized="0"
     inkscape:snap-global="false" />
  <metadata
     id="metadata7">
    <rdf:RDF>
      <cc:Work
         rdf:about="">
        <dc:format>image/svg+xml</dc:format>
        <dc:type
           rdf:resource="http://purl.org/dc/dcmitype/StillImage" />
        <dc:title></dc:title>
      </cc:Work>
    </rdf:RDF>
  </metadata>
  <g
     inkscape:label="Layer 1"
     inkscape:groupmode="layer"
     id="layer1"
     transform="translate(0,-924.36218)">
    <g
       id="g5310"
       transform="matrix(1.0086532,0,0,1.0086532,-3.2152946,-7.6513378)">
      <path
         transform="matrix(1.0097349,0,0,0.90260959,-0.62226627,937.61157)"
         style="opacity:0.58288772;fill:url(#linearGradient5326);fill-opacity:1;stroke:none;filter:url(#filter4820)"
         d="m 69.65625,8.375 c -3.765618,0.012882 -7.605084,0.3365625 -11.5,0.96875 -31.159331,5.0575 -53.2882786,28.756195 -49.4375,52.9375 2.068601,12.989963 12.075692,21.904692 24.0625,29.59375 4.324976,2.7743 0.03545,17.7964 -9.09375,21.75 18.630389,-0.58483 28.25302,-8.1707 33.40625,-15.84375 4.863182,0.223844 9.890802,-0.04572 15,-0.875 31.15933,-5.0575 53.28828,-28.756195 49.4375,-52.9375 C 118.16182,22.810108 96.015573,8.2848275 69.65625,8.375 z"
         id="path4547"
         inkscape:connector-curvature="0"
         sodipodi:nodetypes="ssssccsss" />
      <g
         id="g4909">
        <path
           style="fill:url(#radialGradient5328);fill-opacity:1;stroke:none"
           d="m 69.660156,932.73718 c -3.765618,0.0129 -7.605084,0.33656 -11.5,0.96875 -31.159331,5.0575 -53.2882783,28.7562 -49.4374997,52.9375 2.0686007,12.98996 12.0756917,21.90467 24.0624997,29.59377 4.324976,2.7743 0.03545,17.7964 -9.09375,21.75 18.630389,-0.5848 28.25302,-8.1707 33.40625,-15.8438 4.863182,0.2239 9.890802,-0.046 15,-0.875 31.159334,-5.0575 53.288284,-28.75616 49.437504,-52.93747 -3.36943,-21.15864 -25.515681,-35.68392 -51.875004,-35.59375 z"
           id="path4533"
           inkscape:connector-curvature="0"
           sodipodi:nodetypes="ssssccsss" />
        <g
           id="g4693">
          <g
             id="g4690">
            <path
               sodipodi:type="inkscape:offset"
               inkscape:radius="2.1296923"
               inkscape:original="M -23.375 856.125 C -27.531715 856.1392 -31.723035 856.49837 -35.96875 857.1875 C -53.020201 859.95514 -67.767513 867.79929 -77.90625 878.65625 C -88.044987 889.51321 -93.627517 903.74389 -91.3125 918.28125 C -88.880493 933.55325 -77.687682 943.62558 -65.75 951.53125 C -65.78892 952.2622 -65.905665 953.37459 -66.40625 954.75 C -67.57179 957.95246 -70.202916 961.13635 -72.125 961.96875 A 7.1152744 7.1152744 0 0 0 -69.09375 975.625 C -50.93516 975.05498 -39.156359 967.83754 -32.375 959.75 C -28.233032 959.7389 -24.054471 959.50611 -19.78125 958.8125 C -2.729799 956.04486 12.017513 948.20071 22.15625 937.34375 C 32.294987 926.48679 37.877518 912.2561 35.5625 897.71875 C 31.511178 872.27811 5.6115574 856.02584 -23.375 856.125 z M -23.34375 863.25 C 3.015573 863.1598 25.16182 877.68511 28.53125 898.84375 C 32.38203 923.02505 10.25308 946.72375 -20.90625 951.78125 C -26.015448 952.61055 -31.043068 952.88009 -35.90625 952.65625 C -41.05948 960.3293 -50.682111 967.91517 -69.3125 968.5 C -60.1833 964.5464 -55.893774 949.5243 -60.21875 946.75 C -72.205558 939.06094 -82.212649 930.14621 -84.28125 917.15625 C -88.132029 892.97494 -66.003081 869.27625 -34.84375 864.21875 C -30.948834 863.58656 -27.109368 863.2629 -23.34375 863.25 z "
               style="opacity:0.5721925;fill:#09252a;fill-opacity:1;stroke:none;filter:url(#filter4686)"
               id="path4674"
               d="m -23.375,854 c -4.274503,0.0146 -8.588505,0.38786 -12.9375,1.09375 -17.487927,2.83848 -32.66365,10.85786 -43.15625,22.09375 -10.506172,11.25042 -16.370086,26.16185 -13.9375,41.4375 2.485315,15.60675 13.614352,25.9167 25.3125,33.84375 -0.07201,0.48593 -0.06811,0.89101 -0.3125,1.5625 -0.484203,1.33041 -1.344419,2.74679 -2.25,3.875 -0.905581,1.12821 -1.934924,1.93023 -2.3125,2.09375 -0.132435,0.0565 -0.591698,0.27603 -0.71875,0.34375 -0.127052,0.0677 -0.566784,0.32779 -0.6875,0.40625 -0.120716,0.0785 -0.542776,0.38014 -0.65625,0.46875 -0.113474,0.0886 -0.488369,0.43315 -0.59375,0.53125 -0.105381,0.0981 -0.466002,0.45565 -0.5625,0.5625 -0.0965,0.10685 -0.444359,0.5102 -0.53125,0.625 -0.08689,0.1148 -0.360867,0.53437 -0.4375,0.65625 -0.07663,0.12188 -0.340451,0.55944 -0.40625,0.6875 -0.0658,0.12806 -0.289278,0.61673 -0.34375,0.75 -0.05447,0.13327 -0.207264,0.61252 -0.25,0.75 -0.04274,0.13748 -0.18807,0.60933 -0.21875,0.75 -0.03068,0.14067 -0.106606,0.66971 -0.125,0.8125 -0.01839,0.14279 -0.05653,0.6374 -0.0625,0.78125 -0.006,0.14385 -0.0065,0.66867 0,0.8125 0.0065,0.14383 0.04358,0.63853 0.0625,0.78125 0.01892,0.14272 0.125052,0.67195 0.15625,0.8125 0.0312,0.14055 0.144257,0.61267 0.1875,0.75 0.04324,0.13733 0.226287,0.61693 0.28125,0.75 0.05496,0.13307 0.27748,0.62219 0.34375,0.75 0.06627,0.12781 0.297919,0.5659 0.375,0.6875 0.07708,0.1216 0.381436,0.54177 0.46875,0.65625 0.08731,0.11448 0.403109,0.51851 0.5,0.625 0.09689,0.10649 0.488008,0.46479 0.59375,0.5625 0.105742,0.0977 0.47995,0.41181 0.59375,0.5 0.1138,0.0882 0.535246,0.39073 0.65625,0.46875 0.121004,0.078 0.5602,0.339 0.6875,0.40625 0.1273,0.0672 0.586108,0.28776 0.71875,0.34375 0.132642,0.056 0.613011,0.23695 0.75,0.28125 0.136989,0.0443 0.640942,0.18647 0.78125,0.21875 0.140308,0.0323 0.638675,0.10498 0.78125,0.125 0.142575,0.02 0.668728,0.0861 0.8125,0.0937 0.143772,0.008 0.637359,0.005 0.78125,0 18.144084,-0.56956 30.279618,-7.68096 37.53125,-15.90625 3.939945,-0.0404 7.948504,-0.26973 12.0625,-0.9375 C -1.949573,958.06777 13.22615,950.04839 23.71875,938.8125 34.224923,927.56208 40.088837,912.65064 37.65625,897.375 33.405391,870.68135 6.4119379,853.8981 -23.375,854 z m 0.03125,11.375 c 25.5728767,-0.0875 46.615939,13.93565 49.78125,33.8125 1.808758,11.35825 -2.473789,22.64662 -11.0625,31.84375 -8.5887113,9.19713 -21.4859034,16.19901 -36.625,18.65625 -4.963136,0.80559 -9.845105,1.06088 -14.5625,0.84375 a 2.1299053,2.1299053 0 0 0 -1.875,0.9375 c -4.152882,6.18355 -11.268303,12.31704 -24.65625,14.28125 2.046149,-2.35376 3.627515,-5.10305 4.625,-7.84375 0.912393,-2.50691 1.38872,-4.98282 1.3125,-7.21875 -0.07622,-2.23593 -0.705143,-4.46719 -2.65625,-5.71875 -11.810535,-7.57599 -21.200357,-16.07029 -23.125,-28.15625 -1.808757,-11.35825 2.473789,-22.64662 11.0625,-31.84375 8.588711,-9.19713 21.485903,-16.19901 36.625,-18.65625 3.789907,-0.61515 7.507704,-0.925 11.15625,-0.9375 z"
               clip-path="url(#clipPath4676)"
               transform="translate(94.017068,69.500384)" />
          </g>
        </g>
        <path
           style="opacity:0.90374331;fill:url(#linearGradient5330);fill-opacity:1;stroke:none"
           d="m 113.68452,960.75243 c 3.27435,15.13043 -20.945992,25.97472 -47.361196,28.29978 -30.34021,2.67053 -52.740488,-1.24135 -49.933899,-19.64613 2.492453,-16.34477 20.593675,-33.11261 47.008879,-35.43766 26.415204,-2.32506 46.789126,10.62436 50.286216,26.78401 z"
           id="path4555"
           inkscape:connector-curvature="0"
           sodipodi:nodetypes="sssss" />
        <g
           id="g4627"
           clip-path="url(#clipPath4633)">
          <path
             transform="matrix(1.0276391,0,0,1.0276391,-86.354161,812.39676)"
             style="fill:url(#radialGradient5332);fill-opacity:1;stroke:none;filter:url(#filter4639)"
             d="m 94.625,152.6875 c -2.0033,5.46631 -2.730365,11.20494 -1.8125,16.96875 1.908011,11.98156 11.20982,20.40578 23,27.96875 2.01689,1.61931 1.06129,-0.11569 -0.0559,-0.87412 -12.97769,-7.8063 -21.921637,-17.6888 -21.91281,-29.84463 0.0035,-4.87713 -0.421344,-9.5942 0.78125,-14.21875 z M 184.5,188.625 c -7.96129,5.87865 -17.9141,10.18548 -29.09375,12 -4.89333,0.79437 -9.6978,1.07926 -14.375,0.875 -0.38003,0.55723 -0.9116,1.10279 -1.34375,1.65625 4.47109,0.15777 9.09287,-0.083 13.78125,-0.84375 12.21798,-1.98311 22.84318,-7.0163 31.03125,-13.6875 z m -54.0625,22.5 c -3.96905,2.29376 -8.75465,4.15247 -14.90625,5.03125 -0.31251,0.0416 -0.63328,0.0203 -0.9375,-0.0625 -0.45885,0.71723 -0.86795,1.45738 -1.40625,2.125 7.66501,-1.24915 13.19503,-3.87804 17.25,-7.09375 z"
             id="path4605"
             inkscape:connector-curvature="0"
             sodipodi:nodetypes="csccscccccccccccc" />
        </g>
        <path
           style="fill:url(#radialGradient5334);fill-opacity:1;stroke:none;filter:url(#filter4779)"
           d="m 113.63288,68.653544 c -2.93926,12.314586 -39.449202,26.915383 -49.484616,25.102008 -7.836422,-1.416023 -7.001413,-0.725885 -9.75963,2.922213 -5.177198,6.847515 -12.099919,12.333655 -23.541101,14.174895 0,0 10.134556,-4.77654 14.574432,-8.88141 3.502797,-3.2385 5.209681,-6.34439 7.428447,-8.360759 2.434894,-2.212781 6.775747,-3.093343 9.104965,-2.938857 3.442264,0.228309 9.902539,-2.337115 15.686409,-5.232224 23.501184,-11.763485 6.926106,-17.904359 11.943886,-19.757669 5.413619,-1.999513 20.786708,5.330976 24.047208,2.971803 z"
           id="path4731"
           inkscape:connector-curvature="0"
           transform="translate(0,924.36218)"
           sodipodi:nodetypes="csscsssssc" />
        <path
           style="opacity:0.90374331;fill:#e0faff;fill-opacity:1;stroke:none;filter:url(#filter4794)"
           d="m 110.40625,950.30938 c 2.87122,3.58267 4.84634,7.57427 5.75,11.75 3.45596,15.96961 -22.119726,27.42099 -50,29.875 -21.825384,1.92106 -39.761212,0.61418 -48.03125,-6.5625 8.171677,7.34282 26.202956,8.68782 48.21875,6.75 27.880274,-2.45401 53.45596,-13.90539 50,-29.875 -0.92276,-4.26398 -2.96682,-8.29602 -5.9375,-11.9375 z"
           id="path4783"
           inkscape:connector-curvature="0"
           transform="matrix(0.94745138,0,0,0.94745138,3.4522461,49.064514)" />
        <path
           sodipodi:nodetypes="sssss"
           inkscape:connector-curvature="0"
           id="path4812"
           d="m 113.68452,960.75243 c 3.27435,15.13043 -20.945992,25.97472 -47.361196,28.29978 -30.34021,2.67053 -52.740488,-1.24135 -49.933899,-19.64613 2.492453,-16.34477 20.593675,-33.11261 47.008879,-35.43766 26.415204,-2.32506 46.789126,10.62436 50.286216,26.78401 z"
           style="opacity:0.90374331;fill:url(#radialGradient5336);fill-opacity:1;stroke:none" />
        <path
           style="font-size:medium;font-style:normal;font-variant:normal;font-weight:normal;font-stretch:normal;text-indent:0;text-align:start;text-decoration:none;line-height:normal;letter-spacing:normal;word-spacing:normal;text-transform:none;direction:ltr;block-progression:tb;writing-mode:lr-tb;text-anchor:start;baseline-shift:baseline;color:#000000;fill:url(#linearGradient5338);fill-opacity:1;fill-rule:nonzero;stroke:none;stroke-width:2;marker:none;visibility:visible;display:inline;overflow:visible;filter:url(#filter4870);enable-background:accumulate;font-family:Sans;-inkscape-font-specification:Sans"
           d="m -66.09375,931.75 c -3.820589,0.0131 -7.712027,0.32856 -11.65625,0.96875 -15.786536,2.56233 -29.32402,9.83467 -38.4375,19.59375 -9.11348,9.75908 -13.8239,22.06545 -11.84375,34.5 2.1362,13.4144 12.43043,22.5391 24.5,30.2813 0.6728,0.4315 1.1926,1.5036 1.25,3.1874 0.0574,1.6839 -0.3242,3.831 -1.125,6.0313 -1.6016,4.4006 -4.86935,8.9341 -9.0625,10.75 -6.68055,1.7945 -10.05897,3.0334 0.4375,1.9375 18.505553,-0.5809 28.395353,-8.1136 33.78125,-15.8438 4.788103,0.1898 9.733419,-0.092 14.75,-0.9062 15.786536,-2.5623 29.292769,-9.8347 38.40625,-19.5938 9.113481,-9.75902 13.823905,-22.03414 11.84375,-34.4687 -3.465275,-21.7605 -26.115151,-36.52893 -52.84375,-36.4375 z m 0,2 c 25.990047,-0.0889 47.601415,14.19322 50.875,34.75 1.870625,11.74675 -2.565618,23.38129 -11.34375,32.7812 -8.778132,9.4 -21.877202,16.5049 -37.25,19 -5.040695,0.8179 -10.01783,1.0958 -14.8125,0.875 l -0.5625,-0.031 -0.3125,0.4688 c -4.618565,6.8769 -12.930034,13.635 -28.625,15.0937 3.06468,-2.5187 5.30474,-6.1458 6.59375,-9.6875 0.87212,-2.3962 1.31942,-4.7446 1.25,-6.7812 -0.0694,-2.0367 -0.66656,-3.857 -2.15625,-4.8126 -11.90403,-7.636 -21.624,-16.34071 -23.625,-28.9062 -1.87062,-11.74675 2.56562,-23.41253 11.34375,-32.8125 8.77813,-9.39997 21.908452,-16.50483 37.28125,-19 3.845609,-0.62419 7.633103,-0.92479 11.34375,-0.9375 z"
           id="path4836"
           inkscape:connector-curvature="0"
           sodipodi:nodetypes="sssscsscccsssscsscccccscsssscc"
           clip-path="url(#clipPath4856)"
           transform="translate(135.75,0)" />
        <path
           style="fill:url(#linearGradient5340);fill-opacity:1;stroke:none;filter:url(#filter4897)"
           d="m 41.305086,1036.6291 c 0,2.0502 -3.29899,2.2748 -7.985281,2.2748 -4.686291,0 -11.875021,0.5668 -8.631728,-0.1535 3.243293,-0.7204 3.752885,-1.8145 7.954951,-3.8891 7.161165,-3.5355 8.662058,-0.2825 8.662058,1.7678 z"
           id="path4890"
           inkscape:connector-curvature="0"
           sodipodi:nodetypes="sszss" />
      </g>
    </g>
    <path
       style="fill:url(#radialGradient5469);fill-opacity:1;stroke:none;filter:url(#filter3898)"
       d="M 116.25,41 C 124.05315,62.494544 100.98853,88.60434 80,91 94.355886,84.862547 117.91118,65.07897 116.25,41 z"
       id="path5441"
       inkscape:connector-curvature="0"
       transform="translate(0,924.36218)"
       sodipodi:nodetypes="ccc" />
    <path
       sodipodi:nodetypes="ccc"
       transform="matrix(-1,0,0,1,124.49426,930.23718)"
       inkscape:connector-curvature="0"
       id="path5479"
       d="m 116.25,41 c 8.90243,23.519448 -11.47281,40.06295 -26,43.75 11.60589,-6.012453 27.66118,-19.67103 26,-43.75 z"
       style="fill:url(#radialGradient5481);fill-opacity:1;stroke:none;opacity:0.21390374000000001;filter:url(#filter3894)" />
  </g>
</svg>
