<?xml version="1.0" encoding="UTF-8" standalone="no"?>
<!-- Created with Inkscape (http://www.inkscape.org/) -->
<svg
   xmlns:dc="http://purl.org/dc/elements/1.1/"
   xmlns:cc="http://creativecommons.org/ns#"
   xmlns:rdf="http://www.w3.org/1999/02/22-rdf-syntax-ns#"
   xmlns:svg="http://www.w3.org/2000/svg"
   xmlns="http://www.w3.org/2000/svg"
   xmlns:xlink="http://www.w3.org/1999/xlink"
   xmlns:sodipodi="http://sodipodi.sourceforge.net/DTD/sodipodi-0.dtd"
   xmlns:inkscape="http://www.inkscape.org/namespaces/inkscape"
   id="svg2"
   sodipodi:version="0.32"
   inkscape:version="0.45+devel"
   width="128"
   height="128"
   sodipodi:docname="okular.svgz"
   inkscape:output_extension="org.inkscape.output.svgz.inkscape"
   version="1.0"
   inkscape:export-filename="/home/pinheiro/pics/oxygen/scalable/apps/okular.png"
   inkscape:export-xdpi="180"
   inkscape:export-ydpi="180">
  <metadata
     id="metadata7">
    <rdf:RDF>
      <cc:Work
         rdf:about="">
        <dc:format>image/svg+xml</dc:format>
        <dc:type
           rdf:resource="http://purl.org/dc/dcmitype/StillImage" />
      </cc:Work>
    </rdf:RDF>
  </metadata>
  <defs
     id="defs5">
    <linearGradient
       inkscape:collect="always"
       id="linearGradient4534">
      <stop
         style="stop-color:#ffffff;stop-opacity:1;"
         offset="0"
         id="stop4536" />
      <stop
         style="stop-color:#ffffff;stop-opacity:0;"
         offset="1"
         id="stop4538" />
    </linearGradient>
    <linearGradient
       id="linearGradient4162">
      <stop
         style="stop-color:#000000;stop-opacity:0.28;"
         offset="0"
         id="stop4164" />
      <stop
         style="stop-color:#000000;stop-opacity:0;"
         offset="1"
         id="stop4166" />
    </linearGradient>
    <linearGradient
       inkscape:collect="always"
       id="linearGradient3794">
      <stop
         style="stop-color:#000000;stop-opacity:1;"
         offset="0"
         id="stop3796" />
      <stop
         style="stop-color:#000000;stop-opacity:0;"
         offset="1"
         id="stop3798" />
    </linearGradient>
    <linearGradient
       id="linearGradient3137">
      <stop
         style="stop-color:#fefefe;stop-opacity:1;"
         offset="0"
         id="stop3139" />
      <stop
         style="stop-color:#a2a2a2;stop-opacity:1;"
         offset="1"
         id="stop3141" />
    </linearGradient>
    <linearGradient
       inkscape:collect="always"
       id="linearGradient3091">
      <stop
         style="stop-color:#fefefe;stop-opacity:1;"
         offset="0"
         id="stop3093" />
      <stop
         style="stop-color:#fefefe;stop-opacity:0;"
         offset="1"
         id="stop3095" />
    </linearGradient>
    <linearGradient
       inkscape:collect="always"
       id="linearGradient2948">
      <stop
         style="stop-color:#000000;stop-opacity:1;"
         offset="0"
         id="stop2950" />
      <stop
         style="stop-color:#000000;stop-opacity:0;"
         offset="1"
         id="stop2952" />
    </linearGradient>
    <linearGradient
       id="linearGradient2886">
      <stop
         id="stop2888"
         offset="0"
         style="stop-color:#ffffff;stop-opacity:1;" />
      <stop
         style="stop-color:#c0c0c0;stop-opacity:1;"
         offset="0.69"
         id="stop3000" />
      <stop
         id="stop2890"
         offset="1"
         style="stop-color:#d8d8d8;stop-opacity:1;" />
    </linearGradient>
    <linearGradient
       id="linearGradient2870">
      <stop
         style="stop-color:#e2e2e2;stop-opacity:1;"
         offset="0"
         id="stop2872" />
      <stop
         style="stop-color:#212121;stop-opacity:1;"
         offset="1"
         id="stop2874" />
    </linearGradient>
    <clipPath
       clipPathUnits="userSpaceOnUse"
       id="clipPath2936">
      <path
         sodipodi:nodetypes="cssssssssccssssssssc"
         id="path2938"
         d="M -2267.1314,169.8125 C -2372.2512,169.70607 -2466.0016,194.31397 -2548.6314,231.84375 C -2574.0564,243.39161 -2596.0472,262.37648 -2601.4751,285.90625 C -2610.6877,325.8423 -2610.3583,368.57734 -2594.2876,420.46875 C -2582.2564,459.3171 -2563.027,483.09526 -2539.0064,499.75 C -2418.8895,583.03332 -2123.7009,602.94353 -1974.3814,480.53125 C -1933.0814,446.67347 -1929.7754,387.34383 -1927.5376,330.375 C -1926.6263,307.17444 -1934.0151,279.43438 -1943.1626,269.09375 C -1976.1674,231.78439 -2012.6308,203.60012 -2148.5689,180.1875 C -2189.5765,173.12476 -2229.1093,169.851 -2267.1314,169.8125 z M -2267.1314,182.4375 C -2230.9481,182.47414 -2193.3746,185.59132 -2154.3501,192.3125 C -2024.9861,214.59286 -1993.2588,241.4012 -1961.8501,276.90625 C -1953.145,286.7468 -1946.1079,310.14021 -1946.9751,332.21875 C -1949.1046,386.4325 -1952.2662,439.90462 -1991.5689,472.125 C -2133.6671,588.61728 -2408.5735,569.66189 -2522.8814,490.40625 C -2545.7403,474.55695 -2564.0257,451.93834 -2575.4751,414.96875 C -2590.7687,365.58687 -2591.0859,327.91094 -2582.3189,289.90625 C -2577.1535,267.51441 -2556.2331,252.45814 -2532.0376,241.46875 C -2453.4039,205.75395 -2367.1675,182.33621 -2267.1314,182.4375 z"
         style="fill:none;fill-opacity:1;fill-rule:evenodd;stroke:#000000;stroke-width:3;stroke-linecap:butt;stroke-linejoin:miter;stroke-miterlimit:4;stroke-dasharray:none;stroke-opacity:1" />
    </clipPath>
    <filter
       inkscape:collect="always"
       id="filter2944">
      <feGaussianBlur
         inkscape:collect="always"
         stdDeviation="2.6939445"
         id="feGaussianBlur2946" />
    </filter>
    <linearGradient
       inkscape:collect="always"
       xlink:href="#linearGradient2948"
       id="linearGradient2954"
       x1="-2255.8958"
       y1="169.81215"
       x2="-2255.8958"
       y2="323.11444"
       gradientUnits="userSpaceOnUse" />
    <linearGradient
       inkscape:collect="always"
       xlink:href="#linearGradient2948"
       id="linearGradient2958"
       gradientUnits="userSpaceOnUse"
       x1="-2266.7681"
       y1="568.77667"
       x2="-2266.7681"
       y2="-39.337055" />
    <filter
       inkscape:collect="always"
       id="filter2960">
      <feGaussianBlur
         inkscape:collect="always"
         stdDeviation="1.3469723"
         id="feGaussianBlur2962" />
    </filter>
    <filter
       inkscape:collect="always"
       id="filter2974">
      <feGaussianBlur
         inkscape:collect="always"
         stdDeviation="3.5021279"
         id="feGaussianBlur2976" />
    </filter>
    <linearGradient
       inkscape:collect="always"
       xlink:href="#linearGradient2948"
       id="linearGradient2982"
       gradientUnits="userSpaceOnUse"
       x1="-2255.8958"
       y1="169.81215"
       x2="-2255.8958"
       y2="323.11444" />
    <linearGradient
       inkscape:collect="always"
       xlink:href="#linearGradient2948"
       id="linearGradient2984"
       gradientUnits="userSpaceOnUse"
       x1="-2255.8958"
       y1="169.81215"
       x2="-2255.8958"
       y2="428.47058" />
    <linearGradient
       inkscape:collect="always"
       xlink:href="#linearGradient2948"
       id="linearGradient3004"
       gradientUnits="userSpaceOnUse"
       x1="-2266.7681"
       y1="568.77667"
       x2="-2266.7681"
       y2="-90.974693" />
    <filter
       inkscape:collect="always"
       id="filter3022">
      <feGaussianBlur
         inkscape:collect="always"
         stdDeviation="1.7066981"
         id="feGaussianBlur3024" />
    </filter>
    <filter
       inkscape:collect="always"
       id="filter3030">
      <feGaussianBlur
         inkscape:collect="always"
         stdDeviation="1.694685"
         id="feGaussianBlur3032" />
    </filter>
    <clipPath
       clipPathUnits="userSpaceOnUse"
       id="clipPath3087">
      <path
         sodipodi:nodetypes="csssssccsssss"
         id="path3089"
         d="M -1953.8977,1026.4197 C -1951.9099,1027.706 -1952.6123,1031.1685 -1952.9771,1033.5142 C -1956.177,1054.0902 -1965.7481,1073.2893 -1979.672,1090.1581 C -1981.046,1091.8227 -1983.2723,1094.7661 -1985.1322,1093.694 C -2086.3016,1035.3753 -2186.3972,976.59555 -2302.2824,925.50821 C -2384.2507,889.37297 -2465.423,865.95204 -2550.9571,852.22729 C -2786.1789,814.48373 -3054.588,813.28087 -3304.8737,791.00368 C -3314.5977,791.00368 -3322.2088,783.99305 -3322.2088,776.5437 C -3322.2088,766.2233 -3321.1533,757.64495 -3321.1533,747.85761 C -3321.1533,742.51898 -3314.2338,735.46539 -3306.5916,735.6986 C -3056.0603,743.3438 -2791.4402,769.20527 -2544.9504,789.7583 C -2431.1908,799.24391 -2353.0766,824.2877 -2273.4506,857.03259 C -2160.9957,903.27779 -2052.4822,962.62665 -1953.8977,1026.4197 z"
         style="fill:#282828;fill-opacity:1;fill-rule:evenodd;stroke:none;stroke-width:1px;stroke-linecap:butt;stroke-linejoin:miter;stroke-opacity:1" />
    </clipPath>
    <linearGradient
       inkscape:collect="always"
       xlink:href="#linearGradient3091"
       id="linearGradient3097"
       x1="-1898.5033"
       y1="890.18469"
       x2="-4511.1455"
       y2="924.16333"
       gradientUnits="userSpaceOnUse" />
    <filter
       inkscape:collect="always"
       id="filter3131">
      <feGaussianBlur
         inkscape:collect="always"
         stdDeviation="9.1365611"
         id="feGaussianBlur3133" />
    </filter>
    <linearGradient
       inkscape:collect="always"
       xlink:href="#linearGradient2948"
       id="linearGradient3195"
       gradientUnits="userSpaceOnUse"
       x1="-2255.8958"
       y1="169.81215"
       x2="-2255.8958"
       y2="428.47058" />
    <linearGradient
       inkscape:collect="always"
       xlink:href="#linearGradient2948"
       id="linearGradient3197"
       gradientUnits="userSpaceOnUse"
       x1="-2255.8958"
       y1="169.81215"
       x2="-2255.8958"
       y2="323.11444" />
    <filter
       inkscape:collect="always"
       id="filter3790">
      <feGaussianBlur
         inkscape:collect="always"
         stdDeviation="1.860933"
         id="feGaussianBlur3792" />
    </filter>
    <clipPath
       clipPathUnits="userSpaceOnUse"
       id="clipPath3804">
      <path
         sodipodi:nodetypes="cccccs"
         id="path3806"
         d="M -2318.8543,305.64517 C -2308.1865,301.31133 -2265.137,291.06904 -2239.1623,290.39096 C -2245.3971,305.68315 -2243.2516,318.1819 -2240.0118,330.31587 L -2307.1196,332.86427 C -2311.0838,335.11429 -2315.0479,336.1956 -2319.0121,342.2084 C -2327.335,333.85087 -2327.6718,309.22732 -2318.8543,305.64517 z"
         style="fill:none;fill-opacity:1;fill-rule:evenodd;stroke:url(#linearGradient3808);stroke-width:4.0999999;stroke-linecap:butt;stroke-linejoin:miter;stroke-miterlimit:4;stroke-dasharray:none;stroke-opacity:1;filter:url(#filter3790)" />
    </clipPath>
    <linearGradient
       inkscape:collect="always"
       xlink:href="#linearGradient3794"
       id="linearGradient3808"
       gradientUnits="userSpaceOnUse"
       x1="-2282.2617"
       y1="275.5253"
       x2="-2305.0696"
       y2="344.25839" />
    <linearGradient
       inkscape:collect="always"
       xlink:href="#linearGradient3794"
       id="linearGradient3810"
       gradientUnits="userSpaceOnUse"
       x1="-2282.2617"
       y1="275.5253"
       x2="-2305.0696"
       y2="344.25839" />
    <filter
       inkscape:collect="always"
       id="filter3848">
      <feGaussianBlur
         inkscape:collect="always"
         stdDeviation="1.1292232"
         id="feGaussianBlur3850" />
    </filter>
    <linearGradient
       inkscape:collect="always"
       xlink:href="#linearGradient3794"
       id="linearGradient3854"
       gradientUnits="userSpaceOnUse"
       x1="-2325.3611"
       y1="122.62138"
       x2="-2309.3169"
       y2="723.96979" />
    <filter
       inkscape:collect="always"
       id="filter3876">
      <feGaussianBlur
         inkscape:collect="always"
         stdDeviation="0.10351212"
         id="feGaussianBlur3878" />
    </filter>
    <filter
       inkscape:collect="always"
       id="filter3902"
       x="-0.011990171"
       width="1.0239803"
       y="-0.12099185"
       height="1.2419837">
      <feGaussianBlur
         inkscape:collect="always"
         stdDeviation="1.430948"
         id="feGaussianBlur3904" />
    </filter>
    <filter
       inkscape:collect="always"
       id="filter3952"
       x="-0.017238028"
       width="1.034476"
       y="-0.13396002"
       height="1.2679201">
      <feGaussianBlur
         inkscape:collect="always"
         stdDeviation="2.6127722"
         id="feGaussianBlur3954" />
    </filter>
    <clipPath
       clipPathUnits="userSpaceOnUse"
       id="clipPath3958">
      <path
         sodipodi:nodetypes="ccsccsccc"
         id="path3960"
         d="M -2127.6998,482.33267 C -2116.3148,498.3349 -2097.4891,496.84163 -2089.6768,496.37711 C -1996.4295,485.02431 -1907.8678,488.69272 -1836.3511,489.97103 C -1807.7732,490.48184 -1784.5357,485.31639 -1769.7905,485.71911 L -1768.0312,460.26783 C -1783.2722,459.92126 -1806.9057,454.0229 -1835.3198,453.92864 C -1907.0929,453.69054 -2006.787,469.92267 -2084.9025,458.30613 L -2127.5496,458.30613 L -2127.6998,482.33267 z"
         style="fill:none;fill-opacity:1;fill-rule:evenodd;stroke:#000000;stroke-width:4.0999999;stroke-linecap:butt;stroke-linejoin:miter;stroke-miterlimit:4;stroke-dasharray:none;stroke-opacity:1;filter:url(#filter3952)" />
    </clipPath>
    <filter
       inkscape:collect="always"
       id="filter4014"
       x="-0.057282627"
       width="1.1145653"
       y="-0.10522456"
       height="1.2104491">
      <feGaussianBlur
         inkscape:collect="always"
         stdDeviation="1.1587495"
         id="feGaussianBlur4016" />
    </filter>
    <linearGradient
       inkscape:collect="always"
       xlink:href="#linearGradient3091"
       id="linearGradient4074"
       gradientUnits="userSpaceOnUse"
       x1="-1898.5033"
       y1="890.18469"
       x2="-4511.1455"
       y2="924.16333" />
    <linearGradient
       inkscape:collect="always"
       xlink:href="#linearGradient2948"
       id="linearGradient4078"
       gradientUnits="userSpaceOnUse"
       x1="-2255.8958"
       y1="169.81215"
       x2="-2255.8958"
       y2="323.11444" />
    <linearGradient
       inkscape:collect="always"
       xlink:href="#linearGradient2948"
       id="linearGradient4080"
       gradientUnits="userSpaceOnUse"
       x1="-2255.8958"
       y1="169.81215"
       x2="-2255.8958"
       y2="428.47058" />
    <linearGradient
       inkscape:collect="always"
       xlink:href="#linearGradient2948"
       id="linearGradient4082"
       gradientUnits="userSpaceOnUse"
       x1="-2266.7681"
       y1="568.77667"
       x2="-2266.7681"
       y2="-39.337055" />
    <linearGradient
       inkscape:collect="always"
       xlink:href="#linearGradient2948"
       id="linearGradient4084"
       gradientUnits="userSpaceOnUse"
       x1="-2266.7681"
       y1="568.77667"
       x2="-2266.7681"
       y2="-39.337055" />
    <linearGradient
       inkscape:collect="always"
       xlink:href="#linearGradient3794"
       id="linearGradient4088"
       gradientUnits="userSpaceOnUse"
       x1="-2282.2617"
       y1="275.5253"
       x2="-2305.0696"
       y2="344.25839" />
    <linearGradient
       inkscape:collect="always"
       xlink:href="#linearGradient3794"
       id="linearGradient4090"
       gradientUnits="userSpaceOnUse"
       x1="-2325.3611"
       y1="122.62138"
       x2="-2309.3169"
       y2="723.96979" />
    <linearGradient
       inkscape:collect="always"
       xlink:href="#linearGradient3091"
       id="linearGradient4112"
       gradientUnits="userSpaceOnUse"
       x1="-3230.7649"
       y1="515.37079"
       x2="-2050.8284"
       y2="1340.8041" />
    <linearGradient
       inkscape:collect="always"
       xlink:href="#linearGradient3091"
       id="linearGradient4193"
       gradientUnits="userSpaceOnUse"
       x1="-3230.7649"
       y1="515.37079"
       x2="-2050.8284"
       y2="1340.8041" />
    <linearGradient
       inkscape:collect="always"
       xlink:href="#linearGradient3091"
       id="linearGradient4199"
       gradientUnits="userSpaceOnUse"
       x1="-1898.5033"
       y1="890.18469"
       x2="-4511.1455"
       y2="924.16333" />
    <linearGradient
       inkscape:collect="always"
       xlink:href="#linearGradient2948"
       id="linearGradient4203"
       gradientUnits="userSpaceOnUse"
       x1="-2255.8958"
       y1="169.81215"
       x2="-2255.8958"
       y2="323.11444" />
    <linearGradient
       inkscape:collect="always"
       xlink:href="#linearGradient2948"
       id="linearGradient4205"
       gradientUnits="userSpaceOnUse"
       x1="-2255.8958"
       y1="169.81215"
       x2="-2255.8958"
       y2="428.47058" />
    <linearGradient
       inkscape:collect="always"
       xlink:href="#linearGradient2948"
       id="linearGradient4207"
       gradientUnits="userSpaceOnUse"
       x1="-2266.7681"
       y1="568.77667"
       x2="-2266.7681"
       y2="-39.337055" />
    <linearGradient
       inkscape:collect="always"
       xlink:href="#linearGradient2948"
       id="linearGradient4209"
       gradientUnits="userSpaceOnUse"
       x1="-2266.7681"
       y1="568.77667"
       x2="-2266.7681"
       y2="-39.337055" />
    <linearGradient
       inkscape:collect="always"
       xlink:href="#linearGradient3794"
       id="linearGradient4213"
       gradientUnits="userSpaceOnUse"
       x1="-2282.2617"
       y1="275.5253"
       x2="-2305.0696"
       y2="344.25839" />
    <linearGradient
       inkscape:collect="always"
       xlink:href="#linearGradient3794"
       id="linearGradient4215"
       gradientUnits="userSpaceOnUse"
       x1="-2325.3611"
       y1="122.62138"
       x2="-2309.3169"
       y2="723.96979" />
    <linearGradient
       inkscape:collect="always"
       xlink:href="#linearGradient2948"
       id="linearGradient4223"
       gradientUnits="userSpaceOnUse"
       x1="-2255.8958"
       y1="169.81215"
       x2="-2255.8958"
       y2="323.11444" />
    <linearGradient
       inkscape:collect="always"
       xlink:href="#linearGradient2948"
       id="linearGradient4225"
       gradientUnits="userSpaceOnUse"
       x1="-2255.8958"
       y1="169.81215"
       x2="-2255.8958"
       y2="428.47058" />
    <linearGradient
       inkscape:collect="always"
       xlink:href="#linearGradient2948"
       id="linearGradient4227"
       gradientUnits="userSpaceOnUse"
       x1="-2266.7681"
       y1="568.77667"
       x2="-2266.7681"
       y2="-39.337055" />
    <linearGradient
       inkscape:collect="always"
       xlink:href="#linearGradient2948"
       id="linearGradient4229"
       gradientUnits="userSpaceOnUse"
       x1="-2266.7681"
       y1="568.77667"
       x2="-2266.7681"
       y2="-39.337055" />
    <linearGradient
       inkscape:collect="always"
       xlink:href="#linearGradient3794"
       id="linearGradient4233"
       gradientUnits="userSpaceOnUse"
       x1="-2282.2617"
       y1="275.5253"
       x2="-2305.0696"
       y2="344.25839" />
    <linearGradient
       inkscape:collect="always"
       xlink:href="#linearGradient3794"
       id="linearGradient4235"
       gradientUnits="userSpaceOnUse"
       x1="-2325.3611"
       y1="122.62138"
       x2="-2309.3169"
       y2="723.96979" />
    <linearGradient
       inkscape:collect="always"
       xlink:href="#linearGradient3091"
       id="linearGradient4283"
       gradientUnits="userSpaceOnUse"
       x1="-1898.5033"
       y1="890.18469"
       x2="-4511.1455"
       y2="924.16333" />
    <linearGradient
       inkscape:collect="always"
       xlink:href="#linearGradient2948"
       id="linearGradient4287"
       gradientUnits="userSpaceOnUse"
       x1="-2255.8958"
       y1="169.81215"
       x2="-2255.8958"
       y2="323.11444" />
    <linearGradient
       inkscape:collect="always"
       xlink:href="#linearGradient2948"
       id="linearGradient4289"
       gradientUnits="userSpaceOnUse"
       x1="-2255.8958"
       y1="169.81215"
       x2="-2255.8958"
       y2="428.47058" />
    <linearGradient
       inkscape:collect="always"
       xlink:href="#linearGradient2948"
       id="linearGradient4291"
       gradientUnits="userSpaceOnUse"
       x1="-2266.7681"
       y1="568.77667"
       x2="-2266.7681"
       y2="-39.337055" />
    <linearGradient
       inkscape:collect="always"
       xlink:href="#linearGradient2948"
       id="linearGradient4293"
       gradientUnits="userSpaceOnUse"
       x1="-2266.7681"
       y1="568.77667"
       x2="-2266.7681"
       y2="-39.337055" />
    <linearGradient
       inkscape:collect="always"
       xlink:href="#linearGradient3794"
       id="linearGradient4297"
       gradientUnits="userSpaceOnUse"
       x1="-2282.2617"
       y1="275.5253"
       x2="-2305.0696"
       y2="344.25839" />
    <linearGradient
       inkscape:collect="always"
       xlink:href="#linearGradient3794"
       id="linearGradient4299"
       gradientUnits="userSpaceOnUse"
       x1="-2325.3611"
       y1="122.62138"
       x2="-2309.3169"
       y2="723.96979" />
    <linearGradient
       inkscape:collect="always"
       xlink:href="#linearGradient3091"
       id="linearGradient4397"
       gradientUnits="userSpaceOnUse"
       x1="-3230.7649"
       y1="515.37079"
       x2="-2050.8284"
       y2="1340.8041" />
    <linearGradient
       inkscape:collect="always"
       xlink:href="#linearGradient3091"
       id="linearGradient4403"
       gradientUnits="userSpaceOnUse"
       x1="-1898.5033"
       y1="890.18469"
       x2="-4511.1455"
       y2="924.16333" />
    <linearGradient
       inkscape:collect="always"
       xlink:href="#linearGradient2948"
       id="linearGradient4407"
       gradientUnits="userSpaceOnUse"
       x1="-2255.8958"
       y1="169.81215"
       x2="-2255.8958"
       y2="323.11444" />
    <linearGradient
       inkscape:collect="always"
       xlink:href="#linearGradient2948"
       id="linearGradient4409"
       gradientUnits="userSpaceOnUse"
       x1="-2255.8958"
       y1="169.81215"
       x2="-2255.8958"
       y2="428.47058" />
    <linearGradient
       inkscape:collect="always"
       xlink:href="#linearGradient2948"
       id="linearGradient4411"
       gradientUnits="userSpaceOnUse"
       x1="-2266.7681"
       y1="568.77667"
       x2="-2266.7681"
       y2="-39.337055" />
    <linearGradient
       inkscape:collect="always"
       xlink:href="#linearGradient2948"
       id="linearGradient4413"
       gradientUnits="userSpaceOnUse"
       x1="-2266.7681"
       y1="568.77667"
       x2="-2266.7681"
       y2="-39.337055" />
    <linearGradient
       inkscape:collect="always"
       xlink:href="#linearGradient3794"
       id="linearGradient4417"
       gradientUnits="userSpaceOnUse"
       x1="-2282.2617"
       y1="275.5253"
       x2="-2305.0696"
       y2="344.25839" />
    <linearGradient
       inkscape:collect="always"
       xlink:href="#linearGradient3794"
       id="linearGradient4419"
       gradientUnits="userSpaceOnUse"
       x1="-2325.3611"
       y1="122.62138"
       x2="-2309.3169"
       y2="723.96979" />
    <linearGradient
       inkscape:collect="always"
       xlink:href="#linearGradient2948"
       id="linearGradient4427"
       gradientUnits="userSpaceOnUse"
       x1="-2255.8958"
       y1="169.81215"
       x2="-2255.8958"
       y2="323.11444" />
    <linearGradient
       inkscape:collect="always"
       xlink:href="#linearGradient2948"
       id="linearGradient4429"
       gradientUnits="userSpaceOnUse"
       x1="-2255.8958"
       y1="169.81215"
       x2="-2255.8958"
       y2="428.47058" />
    <linearGradient
       inkscape:collect="always"
       xlink:href="#linearGradient2948"
       id="linearGradient4431"
       gradientUnits="userSpaceOnUse"
       x1="-2266.7681"
       y1="568.77667"
       x2="-2266.7681"
       y2="-39.337055" />
    <linearGradient
       inkscape:collect="always"
       xlink:href="#linearGradient2948"
       id="linearGradient4433"
       gradientUnits="userSpaceOnUse"
       x1="-2266.7681"
       y1="568.77667"
       x2="-2266.7681"
       y2="-39.337055" />
    <linearGradient
       inkscape:collect="always"
       xlink:href="#linearGradient3794"
       id="linearGradient4437"
       gradientUnits="userSpaceOnUse"
       x1="-2282.2617"
       y1="275.5253"
       x2="-2305.0696"
       y2="344.25839" />
    <linearGradient
       inkscape:collect="always"
       xlink:href="#linearGradient3794"
       id="linearGradient4439"
       gradientUnits="userSpaceOnUse"
       x1="-2325.3611"
       y1="122.62138"
       x2="-2309.3169"
       y2="723.96979" />
    <filter
       inkscape:collect="always"
       id="filter4520">
      <feGaussianBlur
         inkscape:collect="always"
         stdDeviation="13.268534"
         id="feGaussianBlur4522" />
    </filter>
    <linearGradient
       inkscape:collect="always"
       xlink:href="#linearGradient3091"
       id="linearGradient4999"
       gradientUnits="userSpaceOnUse"
       x1="-3230.7649"
       y1="515.37079"
       x2="-2050.8284"
       y2="1340.8041" />
    <linearGradient
       inkscape:collect="always"
       xlink:href="#linearGradient3091"
       id="linearGradient5005"
       gradientUnits="userSpaceOnUse"
       x1="-1898.5033"
       y1="890.18469"
       x2="-4511.1455"
       y2="924.16333" />
    <linearGradient
       inkscape:collect="always"
       xlink:href="#linearGradient2948"
       id="linearGradient5009"
       gradientUnits="userSpaceOnUse"
       x1="-2255.8958"
       y1="169.81215"
       x2="-2255.8958"
       y2="323.11444" />
    <linearGradient
       inkscape:collect="always"
       xlink:href="#linearGradient2948"
       id="linearGradient5011"
       gradientUnits="userSpaceOnUse"
       x1="-2255.8958"
       y1="169.81215"
       x2="-2255.8958"
       y2="428.47058" />
    <linearGradient
       inkscape:collect="always"
       xlink:href="#linearGradient2948"
       id="linearGradient5013"
       gradientUnits="userSpaceOnUse"
       x1="-2266.7681"
       y1="568.77667"
       x2="-2266.7681"
       y2="-39.337055" />
    <linearGradient
       inkscape:collect="always"
       xlink:href="#linearGradient2948"
       id="linearGradient5015"
       gradientUnits="userSpaceOnUse"
       x1="-2266.7681"
       y1="568.77667"
       x2="-2266.7681"
       y2="-39.337055" />
    <linearGradient
       inkscape:collect="always"
       xlink:href="#linearGradient3794"
       id="linearGradient5019"
       gradientUnits="userSpaceOnUse"
       x1="-2282.2617"
       y1="275.5253"
       x2="-2305.0696"
       y2="344.25839" />
    <linearGradient
       inkscape:collect="always"
       xlink:href="#linearGradient3794"
       id="linearGradient5021"
       gradientUnits="userSpaceOnUse"
       x1="-2325.3611"
       y1="122.62138"
       x2="-2309.3169"
       y2="723.96979" />
    <linearGradient
       inkscape:collect="always"
       xlink:href="#linearGradient2948"
       id="linearGradient5029"
       gradientUnits="userSpaceOnUse"
       x1="-2255.8958"
       y1="169.81215"
       x2="-2255.8958"
       y2="323.11444" />
    <linearGradient
       inkscape:collect="always"
       xlink:href="#linearGradient2948"
       id="linearGradient5031"
       gradientUnits="userSpaceOnUse"
       x1="-2255.8958"
       y1="169.81215"
       x2="-2255.8958"
       y2="428.47058" />
    <linearGradient
       inkscape:collect="always"
       xlink:href="#linearGradient2948"
       id="linearGradient5033"
       gradientUnits="userSpaceOnUse"
       x1="-2266.7681"
       y1="568.77667"
       x2="-2266.7681"
       y2="-39.337055" />
    <linearGradient
       inkscape:collect="always"
       xlink:href="#linearGradient2948"
       id="linearGradient5035"
       gradientUnits="userSpaceOnUse"
       x1="-2266.7681"
       y1="568.77667"
       x2="-2266.7681"
       y2="-39.337055" />
    <linearGradient
       inkscape:collect="always"
       xlink:href="#linearGradient3794"
       id="linearGradient5039"
       gradientUnits="userSpaceOnUse"
       x1="-2282.2617"
       y1="275.5253"
       x2="-2305.0696"
       y2="344.25839" />
    <linearGradient
       inkscape:collect="always"
       xlink:href="#linearGradient3794"
       id="linearGradient5041"
       gradientUnits="userSpaceOnUse"
       x1="-2325.3611"
       y1="122.62138"
       x2="-2309.3169"
       y2="723.96979" />
    <linearGradient
       y2="-37.855988"
       x2="729.10187"
       y1="-52.91481"
       x1="679.65686"
       gradientUnits="userSpaceOnUse"
       id="linearGradient6385"
       xlink:href="#linearGradient6006"
       inkscape:collect="always" />
    <filter
       id="filter6070"
       inkscape:collect="always">
      <feGaussianBlur
         id="feGaussianBlur6072"
         stdDeviation="0.50819632"
         inkscape:collect="always" />
    </filter>
    <linearGradient
       y2="-37.855988"
       x2="729.10187"
       y1="-52.91481"
       x1="679.65686"
       gradientUnits="userSpaceOnUse"
       id="linearGradient6050"
       xlink:href="#linearGradient6006"
       inkscape:collect="always" />
    <filter
       id="filter6040"
       inkscape:collect="always">
      <feGaussianBlur
         id="feGaussianBlur6042"
         stdDeviation="0.25409816"
         inkscape:collect="always" />
    </filter>
    <filter
       id="filter5919"
       inkscape:collect="always">
      <feGaussianBlur
         id="feGaussianBlur5921"
         stdDeviation="1.4498712"
         inkscape:collect="always" />
    </filter>
    <radialGradient
       gradientUnits="userSpaceOnUse"
       id="radialGradient3731"
       r="137.8933"
       cy="111.1299"
       cx="101.1562">
			<stop
   offset="0.1006"
   style="stop-color:#f0f0f0;stop-opacity:1"
   id="stop3733" />

			
			
			
			
			
			
			<stop
   offset="0.4005"
   style="stop-color:#fafafa;stop-opacity:1"
   id="stop3750" />

			<stop
   offset="0.47929999"
   style="stop-color:#ffffff;stop-opacity:1"
   id="stop3752" />

			<stop
   offset="0.59969997"
   style="stop-color:#fafafa;stop-opacity:1"
   id="stop3754" />

			<stop
   offset="0.72189999"
   style="stop-color:#eeeeee;stop-opacity:1"
   id="stop3757" />

			<stop
   offset="0.8876"
   style="stop-color:#dddddd;stop-opacity:1"
   id="stop3759" />

		</radialGradient>
    <linearGradient
       id="linearGradient5934">
      <stop
         id="stop5936"
         offset="0"
         style="stop-color:#18689a;stop-opacity:1;" />
      <stop
         id="stop5938"
         offset="1"
         style="stop-color:#3ba1e1;stop-opacity:1;" />
    </linearGradient>
    <linearGradient
       id="linearGradient6006">
      <stop
         id="stop6008"
         offset="0"
         style="stop-color:#5b3b07;stop-opacity:1;" />
      <stop
         id="stop6010"
         offset="1"
         style="stop-color:#fef4e6;stop-opacity:1;" />
    </linearGradient>
    <linearGradient
       inkscape:collect="always"
       xlink:href="#linearGradient4162"
       id="linearGradient6099"
       gradientUnits="userSpaceOnUse"
       gradientTransform="matrix(1.0833333,0,0,1.2956349,1053.8042,-153.14233)"
       x1="-2180.8767"
       y1="-260.6424"
       x2="-1234.0055"
       y2="686.2287" />
    <linearGradient
       inkscape:collect="always"
       xlink:href="#linearGradient3091"
       id="linearGradient6101"
       gradientUnits="userSpaceOnUse"
       x1="-3230.7649"
       y1="515.37079"
       x2="-2050.8284"
       y2="1340.8041" />
    <radialGradient
       inkscape:collect="always"
       xlink:href="#linearGradient2886"
       id="radialGradient6103"
       gradientUnits="userSpaceOnUse"
       gradientTransform="matrix(1,5.4112362e-7,-2.012705e-7,0.3719492,6.6810889e-5,208.48054)"
       cx="-1732.9094"
       cy="331.94702"
       fx="-1732.9094"
       fy="331.94702"
       r="143.2121" />
    <linearGradient
       inkscape:collect="always"
       xlink:href="#linearGradient3137"
       id="linearGradient6105"
       gradientUnits="userSpaceOnUse"
       x1="-1893.7939"
       y1="331.26584"
       x2="-1876.7727"
       y2="350.78738" />
    <linearGradient
       inkscape:collect="always"
       xlink:href="#linearGradient3091"
       id="linearGradient6107"
       gradientUnits="userSpaceOnUse"
       x1="-1898.5033"
       y1="890.18469"
       x2="-4511.1455"
       y2="924.16333" />
    <radialGradient
       inkscape:collect="always"
       xlink:href="#linearGradient2886"
       id="radialGradient6109"
       gradientUnits="userSpaceOnUse"
       gradientTransform="matrix(1,0,0,0.5862344,0,152.49099)"
       spreadMethod="reflect"
       cx="-1629.0024"
       cy="98.046616"
       fx="-1629.0024"
       fy="98.046616"
       r="341.55664" />
    <linearGradient
       inkscape:collect="always"
       xlink:href="#linearGradient2948"
       id="linearGradient6111"
       gradientUnits="userSpaceOnUse"
       x1="-2255.8958"
       y1="169.81215"
       x2="-2255.8958"
       y2="323.11444" />
    <linearGradient
       inkscape:collect="always"
       xlink:href="#linearGradient2948"
       id="linearGradient6113"
       gradientUnits="userSpaceOnUse"
       x1="-2255.8958"
       y1="169.81215"
       x2="-2255.8958"
       y2="428.47058" />
    <linearGradient
       inkscape:collect="always"
       xlink:href="#linearGradient2948"
       id="linearGradient6115"
       gradientUnits="userSpaceOnUse"
       x1="-2266.7681"
       y1="568.77667"
       x2="-2266.7681"
       y2="-39.337055" />
    <linearGradient
       inkscape:collect="always"
       xlink:href="#linearGradient2948"
       id="linearGradient6117"
       gradientUnits="userSpaceOnUse"
       x1="-2266.7681"
       y1="568.77667"
       x2="-2266.7681"
       y2="-39.337055" />
    <radialGradient
       inkscape:collect="always"
       xlink:href="#linearGradient2886"
       id="radialGradient6119"
       gradientUnits="userSpaceOnUse"
       gradientTransform="matrix(1,2.6562553e-7,-2.2224032e-6,8.3666767,7.0294537e-4,-2330.077)"
       cx="-1915.2924"
       cy="316.29968"
       fx="-1915.2924"
       fy="316.29968"
       r="43.099361" />
    <linearGradient
       inkscape:collect="always"
       xlink:href="#linearGradient3794"
       id="linearGradient6121"
       gradientUnits="userSpaceOnUse"
       x1="-2282.2617"
       y1="275.5253"
       x2="-2305.0696"
       y2="344.25839" />
    <linearGradient
       inkscape:collect="always"
       xlink:href="#linearGradient3794"
       id="linearGradient6123"
       gradientUnits="userSpaceOnUse"
       x1="-2325.3611"
       y1="122.62138"
       x2="-2309.3169"
       y2="723.96979" />
    <radialGradient
       inkscape:collect="always"
       xlink:href="#linearGradient2886"
       id="radialGradient6125"
       gradientUnits="userSpaceOnUse"
       gradientTransform="matrix(1,5.4112362e-7,-2.012705e-7,0.3719492,6.6810889e-5,208.48054)"
       cx="-1732.9094"
       cy="331.94702"
       fx="-1732.9094"
       fy="331.94702"
       r="143.2121" />
    <linearGradient
       inkscape:collect="always"
       xlink:href="#linearGradient3137"
       id="linearGradient6127"
       gradientUnits="userSpaceOnUse"
       x1="-1893.7939"
       y1="331.26584"
       x2="-1876.7727"
       y2="350.78738" />
    <radialGradient
       inkscape:collect="always"
       xlink:href="#linearGradient2886"
       id="radialGradient6129"
       gradientUnits="userSpaceOnUse"
       gradientTransform="matrix(-1,0,0,0.5862344,-2188.8406,152.49099)"
       spreadMethod="reflect"
       cx="-1629.0024"
       cy="98.046616"
       fx="-1629.0024"
       fy="98.046616"
       r="341.55664" />
    <linearGradient
       inkscape:collect="always"
       xlink:href="#linearGradient2948"
       id="linearGradient6131"
       gradientUnits="userSpaceOnUse"
       x1="-2255.8958"
       y1="169.81215"
       x2="-2255.8958"
       y2="323.11444" />
    <linearGradient
       inkscape:collect="always"
       xlink:href="#linearGradient2948"
       id="linearGradient6133"
       gradientUnits="userSpaceOnUse"
       x1="-2255.8958"
       y1="169.81215"
       x2="-2255.8958"
       y2="428.47058" />
    <linearGradient
       inkscape:collect="always"
       xlink:href="#linearGradient2948"
       id="linearGradient6135"
       gradientUnits="userSpaceOnUse"
       x1="-2266.7681"
       y1="568.77667"
       x2="-2266.7681"
       y2="-39.337055" />
    <linearGradient
       inkscape:collect="always"
       xlink:href="#linearGradient2948"
       id="linearGradient6137"
       gradientUnits="userSpaceOnUse"
       x1="-2266.7681"
       y1="568.77667"
       x2="-2266.7681"
       y2="-39.337055" />
    <radialGradient
       inkscape:collect="always"
       xlink:href="#linearGradient2886"
       id="radialGradient6139"
       gradientUnits="userSpaceOnUse"
       gradientTransform="matrix(-1,2.6562553e-7,2.2224032e-6,8.3666767,-2188.8413,-2330.077)"
       cx="-1915.2924"
       cy="316.29968"
       fx="-1915.2924"
       fy="316.29968"
       r="43.099361" />
    <linearGradient
       inkscape:collect="always"
       xlink:href="#linearGradient3794"
       id="linearGradient6141"
       gradientUnits="userSpaceOnUse"
       x1="-2282.2617"
       y1="275.5253"
       x2="-2305.0696"
       y2="344.25839" />
    <linearGradient
       inkscape:collect="always"
       xlink:href="#linearGradient3794"
       id="linearGradient6143"
       gradientUnits="userSpaceOnUse"
       x1="-2325.3611"
       y1="122.62138"
       x2="-2309.3169"
       y2="723.96979" />
    <radialGradient
       inkscape:collect="always"
       xlink:href="#linearGradient3137"
       id="radialGradient6145"
       gradientUnits="userSpaceOnUse"
       gradientTransform="matrix(1,3.781366e-7,-3.2292777e-7,0.8539977,8.9288564e-5,37.369658)"
       cx="-1092.8789"
       cy="276.49725"
       fx="-1092.8789"
       fy="276.49725"
       r="127.73754" />
    <radialGradient
       inkscape:collect="always"
       xlink:href="#linearGradient2870"
       id="radialGradient6147"
       gradientUnits="userSpaceOnUse"
       gradientTransform="matrix(0.7746364,0.4472365,-0.4660621,0.8072432,-144.92805,587.20425)"
       cx="-1093.5826"
       cy="217.83733"
       fx="-1093.5826"
       fy="217.83733"
       r="123.63598" />
    <linearGradient
       inkscape:collect="always"
       xlink:href="#linearGradient4162"
       id="linearGradient6149"
       gradientUnits="userSpaceOnUse"
       gradientTransform="matrix(1,0,0,0.7247709,2807.0235,194.64859)"
       x1="-3887.8772"
       y1="877.09351"
       x2="-3887.8772"
       y2="63.463501" />
    <linearGradient
       inkscape:collect="always"
       xlink:href="#linearGradient4162"
       id="linearGradient6151"
       gradientUnits="userSpaceOnUse"
       gradientTransform="matrix(1,0,0,0.7247709,2807.0235,194.64859)"
       x1="-3887.8772"
       y1="746.12317"
       x2="-3887.8772"
       y2="587.34491" />
    <linearGradient
       inkscape:collect="always"
       xlink:href="#linearGradient4534"
       id="linearGradient6153"
       gradientUnits="userSpaceOnUse"
       x1="-2180.8767"
       y1="-260.6424"
       x2="-1234.0055"
       y2="686.2287" />
    <linearGradient
       inkscape:collect="always"
       xlink:href="#linearGradient4534"
       id="linearGradient6155"
       gradientUnits="userSpaceOnUse"
       x1="-2160.2458"
       y1="-240.01169"
       x2="-1234.0055"
       y2="686.2287" />
    <linearGradient
       inkscape:collect="always"
       xlink:href="#linearGradient4162"
       id="linearGradient6157"
       gradientUnits="userSpaceOnUse"
       gradientTransform="matrix(1.0833333,0,0,1.2956349,149.4705,-161.14233)"
       x1="-2180.8767"
       y1="-260.6424"
       x2="-1234.0055"
       y2="686.2287" />
    <radialGradient
       inkscape:collect="always"
       xlink:href="#radialGradient3731"
       id="radialGradient6203"
       gradientUnits="userSpaceOnUse"
       gradientTransform="matrix(0.9104798,-0.1821715,0.1822063,0.9105158,-4.4292129,18.296461)"
       cx="102.86758"
       cy="110.30446"
       fx="102.86758"
       fy="110.30446"
       r="137.8933" />
    <radialGradient
       inkscape:collect="always"
       xlink:href="#radialGradient3731"
       id="radialGradient6206"
       gradientUnits="userSpaceOnUse"
       gradientTransform="matrix(0.9104798,-0.1821715,0.1822063,0.9105158,-4.4292129,18.296461)"
       cx="102.86758"
       cy="110.30446"
       fx="102.86758"
       fy="110.30446"
       r="137.8933" />
    <filter
       id="filter6697"
       height="1.3839999"
       y="-0.19199999"
       width="1.3839999"
       x="-0.19200002"
       inkscape:collect="always">
      <feGaussianBlur
         id="feGaussianBlur6699"
         stdDeviation="1.9447689"
         inkscape:collect="always" />
    </filter>
    <linearGradient
       inkscape:collect="always"
       xlink:href="#linearGradient3091"
       id="linearGradient7256"
       gradientUnits="userSpaceOnUse"
       x1="-3230.7649"
       y1="515.37079"
       x2="-2050.8284"
       y2="1340.8041" />
    <linearGradient
       inkscape:collect="always"
       xlink:href="#linearGradient3091"
       id="linearGradient7258"
       gradientUnits="userSpaceOnUse"
       x1="-1898.5033"
       y1="890.18469"
       x2="-4511.1455"
       y2="924.16333" />
    <linearGradient
       inkscape:collect="always"
       xlink:href="#linearGradient2948"
       id="linearGradient7260"
       gradientUnits="userSpaceOnUse"
       x1="-2255.8958"
       y1="169.81215"
       x2="-2255.8958"
       y2="323.11444" />
    <linearGradient
       inkscape:collect="always"
       xlink:href="#linearGradient2948"
       id="linearGradient7262"
       gradientUnits="userSpaceOnUse"
       x1="-2255.8958"
       y1="169.81215"
       x2="-2255.8958"
       y2="428.47058" />
    <linearGradient
       inkscape:collect="always"
       xlink:href="#linearGradient2948"
       id="linearGradient7264"
       gradientUnits="userSpaceOnUse"
       x1="-2266.7681"
       y1="568.77667"
       x2="-2266.7681"
       y2="-39.337055" />
    <linearGradient
       inkscape:collect="always"
       xlink:href="#linearGradient2948"
       id="linearGradient7266"
       gradientUnits="userSpaceOnUse"
       x1="-2266.7681"
       y1="568.77667"
       x2="-2266.7681"
       y2="-39.337055" />
    <linearGradient
       inkscape:collect="always"
       xlink:href="#linearGradient3794"
       id="linearGradient7268"
       gradientUnits="userSpaceOnUse"
       x1="-2282.2617"
       y1="275.5253"
       x2="-2305.0696"
       y2="344.25839" />
    <linearGradient
       inkscape:collect="always"
       xlink:href="#linearGradient3794"
       id="linearGradient7270"
       gradientUnits="userSpaceOnUse"
       x1="-2325.3611"
       y1="122.62138"
       x2="-2309.3169"
       y2="723.96979" />
    <linearGradient
       inkscape:collect="always"
       xlink:href="#linearGradient2948"
       id="linearGradient7272"
       gradientUnits="userSpaceOnUse"
       x1="-2255.8958"
       y1="169.81215"
       x2="-2255.8958"
       y2="323.11444" />
    <linearGradient
       inkscape:collect="always"
       xlink:href="#linearGradient2948"
       id="linearGradient7274"
       gradientUnits="userSpaceOnUse"
       x1="-2255.8958"
       y1="169.81215"
       x2="-2255.8958"
       y2="428.47058" />
    <linearGradient
       inkscape:collect="always"
       xlink:href="#linearGradient2948"
       id="linearGradient7276"
       gradientUnits="userSpaceOnUse"
       x1="-2266.7681"
       y1="568.77667"
       x2="-2266.7681"
       y2="-39.337055" />
    <linearGradient
       inkscape:collect="always"
       xlink:href="#linearGradient2948"
       id="linearGradient7278"
       gradientUnits="userSpaceOnUse"
       x1="-2266.7681"
       y1="568.77667"
       x2="-2266.7681"
       y2="-39.337055" />
    <linearGradient
       inkscape:collect="always"
       xlink:href="#linearGradient3794"
       id="linearGradient7280"
       gradientUnits="userSpaceOnUse"
       x1="-2282.2617"
       y1="275.5253"
       x2="-2305.0696"
       y2="344.25839" />
    <linearGradient
       inkscape:collect="always"
       xlink:href="#linearGradient3794"
       id="linearGradient7282"
       gradientUnits="userSpaceOnUse"
       x1="-2325.3611"
       y1="122.62138"
       x2="-2309.3169"
       y2="723.96979" />
    <radialGradient
       inkscape:collect="always"
       xlink:href="#linearGradient5934"
       id="radialGradient7289"
       gradientUnits="userSpaceOnUse"
       gradientTransform="matrix(0.9104798,-0.1821715,0.1822063,0.9105158,-4.4292097,18.296461)"
       cx="102.86758"
       cy="110.30446"
       fx="102.86758"
       fy="110.30446"
       r="137.8933" />
  </defs>
  <sodipodi:namedview
     inkscape:window-height="775"
     inkscape:window-width="1461"
     inkscape:pageshadow="2"
     inkscape:pageopacity="0.0"
     guidetolerance="10.0"
     gridtolerance="10.0"
     objecttolerance="10.0"
     borderopacity="1.0"
     bordercolor="#666666"
     pagecolor="#ffffff"
     id="base"
     showguides="true"
     inkscape:guide-bbox="true"
     inkscape:zoom="1.668627"
     inkscape:cx="-34.419936"
     inkscape:cy="109.18877"
     inkscape:window-x="228"
     inkscape:window-y="183"
     inkscape:current-layer="svg2"
     height="128px"
     width="128px" />
  <g
     transform="matrix(0.95275,-0.191568,0.191568,0.95275,117.49885,11.469302)"
     id="g5369" />
  <g
     transform="matrix(0.95275,-0.191568,0.191568,0.95275,117.49885,11.469302)"
     id="g7051" />
  <path
     d="M 24.940365,125.00411 C 28.455749,124.29785 79.810613,113.98034 81.332306,113.67462 L 108.645,107.76532 L 103.11279,79.774861 C 102.8194,78.302655 88.333442,5.6155824 87.617724,2.0242786 C 84.054958,2.740061 7.3516027,18.150253 3.7879253,18.866218 C 4.5071081,22.474907 24.221182,121.39543 24.940365,125.00411 z"
     id="path5645"
     style="opacity:0.53932585;fill:#131313;fill-opacity:1;filter:url(#filter5919)"
     inkscape:export-filename="/home/pinheiro/pics/oxygen/scalable/apps/rect2875.png"
     inkscape:export-xdpi="1800.0059"
     inkscape:export-ydpi="1800.0059"
     transform="matrix(0.9992167,0,0,0.9951188,9.0854973,0.7958312)" />
  <path
     d="M 34.006327,125.18976 C 37.518957,124.48695 88.833587,114.2198 90.354097,113.91557 L 115.37401,106.38099 L 112.11753,80.181291 C 111.82437,78.716271 97.349747,6.3840012 96.634587,2.8102312 C 93.074617,3.5225212 16.431337,18.857491 12.870457,19.569961 C 13.589077,23.161031 33.287707,121.5987 34.006327,125.18976 z"
     id="path5971"
     style="fill:#ffffff"
     inkscape:export-filename="/home/pinheiro/pics/oxygen/scalable/apps/rect2875.png"
     inkscape:export-xdpi="1800.0059"
     inkscape:export-ydpi="1800.0059" />
  <path
     d="M 13.963137,20.298301 C 14.318257,22.072901 34.379657,122.32339 34.734597,124.09707 C 36.484537,123.74695 89.039247,113.23167 89.786757,113.08211 C 90.200047,112.4407 110.73616,80.608251 111.13307,79.993801 C 110.98841,79.270851 96.260517,5.6729612 95.906317,3.9029212 C 94.143627,4.2556012 15.724917,19.945801 13.963137,20.298301 z"
     id="path3854"
     style="fill:url(#radialGradient6206);fill-opacity:1"
     inkscape:export-filename="/home/pinheiro/pics/oxygen/scalable/apps/rect2875.png"
     inkscape:export-xdpi="1800.0059"
     inkscape:export-ydpi="1800.0059" />
  <path
     d="M 13.963137,20.298301 C 14.318257,22.072901 34.379657,122.32339 34.734597,124.09707 C 36.484537,123.74695 89.039247,113.23167 89.786757,113.08211 L 114.58904,105.88369 L 111.13307,79.993801 C 110.98841,79.270851 96.260517,5.6729612 95.906317,3.9029212 C 94.143627,4.2556012 15.724917,19.945801 13.963137,20.298301 z"
     id="path3856"
     style="fill:url(#radialGradient6203);fill-opacity:1"
     inkscape:export-filename="/home/pinheiro/pics/oxygen/scalable/apps/rect2875.png"
     inkscape:export-xdpi="1800.0059"
     inkscape:export-ydpi="1800.0059" />
  <path
     style="fill:url(#radialGradient7289);fill-opacity:1.0"
     d="M 67.87175,9.53125 C 61.63393,10.779328 60.66766,10.965252 53.778,12.34375 C 49.06683,18.901227 45.50219,26.68695 43.0905,35.6875 C 39.36661,49.585206 39.9618,60.606161 44.93425,68.78125 C 49.90666,76.956356 58.49941,81.03125 70.68425,81.03125 C 83.49185,81.031248 94.59665,77.027067 103.99675,68.96875 C 105.43466,67.736069 106.81446,66.40877 108.12175,65.03125 C 107.24173,60.633638 106.6135,57.48634 105.30925,50.96875 C 102.50429,56.974132 99.19357,62.041436 95.3405,66.15625 C 88.5237,73.435991 80.73216,77.062504 71.93425,77.0625 C 63.56446,77.062502 57.94621,73.388845 55.0905,66.03125 C 52.28409,58.634748 52.60656,48.510552 56.05925,35.625 C 58.89044,25.058804 62.81809,16.350785 67.87175,9.53125 z"
     id="path6210" />
  <path
     style="opacity:0.36329591;fill:#ffffff;fill-opacity:1;fill-rule:evenodd;stroke:none;stroke-width:1px;stroke-linecap:butt;stroke-linejoin:miter;stroke-opacity:1"
     d="M 22.672477,17.631531 L 22.790037,18.534051 L 67.715527,9.5154512 L 67.461407,8.6458212 C 52.871097,11.370701 37.772977,14.500171 22.672477,17.631531 z"
     id="path6389"
     sodipodi:nodetypes="ccccc"
     inkscape:export-filename="/home/pinheiro/pics/oxygen/scalable/apps/rect2875.png"
     inkscape:export-xdpi="1800.0059"
     inkscape:export-ydpi="1800.0059" />
  <g
     id="g4954"
     transform="matrix(6.7798127e-2,-1.8166453e-2,1.8166453e-2,6.7798127e-2,130.06974,46.053165)">
    <path
       style="opacity:0.82397;fill:url(#linearGradient6099);fill-opacity:1;stroke:none;stroke-width:4.0999999;stroke-linecap:butt;stroke-linejoin:round;stroke-miterlimit:4;stroke-dasharray:none;stroke-dashoffset:1.08779998;stroke-opacity:1"
       d="M -409.21195,237.84375 C -383.96015,263.64725 -369.46195,293.68292 -369.46195,325.71875 C -369.46185,421.9373 -500.05755,500 -660.96195,500 C -810.93165,499.99999 -934.56915,432.18746 -950.68075,345.0625 C -951.19345,349.40773 -951.46205,353.79593 -951.46195,358.21875 C -951.46195,460.05133 -813.25485,542.6875 -642.96195,542.6875 C -472.66925,542.6875 -334.46195,460.05133 -334.46195,358.21875 C -334.46195,312.2403 -362.62945,270.1584 -409.21195,237.84375 z"
       id="path4936" />
    <path
       style="fill:#282828;fill-opacity:1;fill-rule:evenodd;stroke:none;stroke-width:1px;stroke-linecap:butt;stroke-linejoin:miter;stroke-opacity:1"
       d="M -1954.2626,594.89081 C -1956.2504,596.17712 -1955.548,599.63962 -1955.1832,601.98525 C -1951.9833,622.56134 -1942.4122,641.76035 -1928.4883,658.62918 C -1927.1143,660.29381 -1924.888,663.23723 -1923.0281,662.1651 C -1821.8587,603.84643 -1721.7631,545.06668 -1605.8779,493.97936 C -1523.9096,457.84412 -1442.7373,434.42319 -1357.2032,420.69844 C -1121.9814,382.95488 -853.5723,381.75202 -603.2866,359.47483 C -593.5626,359.47483 -585.9515,352.4642 -585.9515,345.01485 C -585.9515,334.69445 -587.007,326.1161 -587.007,316.32876 C -587.007,310.99013 -593.9265,303.93654 -601.5687,304.16975 C -852.1,311.81495 -1116.7201,337.67642 -1363.2099,358.22945 C -1476.9695,367.71506 -1555.0837,392.75885 -1634.7097,425.50374 C -1747.1646,471.74894 -1855.6781,531.09784 -1954.2626,594.89081 z"
       id="path4046"
       sodipodi:nodetypes="csssssccsssss" />
    <path
       style="fill:url(#linearGradient7256);fill-opacity:1;fill-rule:evenodd;stroke:none;stroke-width:1px;stroke-linecap:butt;stroke-linejoin:miter;stroke-opacity:1;filter:url(#filter3131)"
       d="M -3306.5938,737.5 C -3314.2359,737.26679 -3321.1562,744.31764 -3321.1562,749.65625 C -3321.1562,759.44359 -3322.2188,768.02336 -3322.2188,778.34375 C -3322.2188,779.34143 -3322.0723,780.34635 -3321.8125,781.3125 C -3321.5116,775.78859 -3321.1562,760.41611 -3321.1562,754.65625 C -3321.1562,749.31764 -3314.2359,742.26679 -3306.5938,742.5 C -3056.0625,750.14521 -2791.4273,776.00947 -2544.9375,796.5625 C -2431.1779,806.04812 -2353.0635,841.09886 -2273.4375,873.84375 C -2161.1845,920.00589 -2052.8805,979.21255 -1954.4375,1042.875 C -1953.8522,1040.3791 -1953.3637,1037.8521 -1952.9688,1035.3125 C -1952.6039,1032.9669 -1951.9184,1029.5051 -1953.9062,1028.2188 C -2052.4907,964.42575 -2160.9825,905.08896 -2273.4375,858.84375 C -2353.0635,826.09886 -2431.1779,801.04812 -2544.9375,791.5625 C -2791.4273,771.00947 -3056.0625,745.14521 -3306.5938,737.5 z"
       id="path4048"
       clip-path="url(#clipPath3087)"
       transform="matrix(-1,0,0,1,-3910.956,-429.13099)"
       sodipodi:nodetypes="csscsssscssssc" />
    <path
       sodipodi:nodetypes="ccsccsccc"
       id="path2290"
       d="M -1952.9068,341.17678 C -1941.5218,357.17901 -1922.6961,355.68574 -1914.8838,355.22122 C -1821.6365,343.86842 -1733.0748,347.53683 -1661.5581,348.81514 C -1632.9802,349.32595 -1609.7427,344.1605 -1594.9975,344.56322 L -1593.2382,319.11194 C -1608.4792,318.76537 -1632.1127,312.86701 -1660.5268,312.77275 C -1732.2999,312.53465 -1831.994,328.76678 -1910.1095,317.15024 L -1952.7566,317.15024 L -1952.9068,341.17678 z"
       style="fill:#858585;fill-opacity:1;fill-rule:evenodd;stroke:#000000;stroke-width:1px;stroke-linecap:butt;stroke-linejoin:miter;stroke-opacity:1" />
    <path
       transform="translate(174.99005,-141.0114)"
       clip-path="url(#clipPath3958)"
       sodipodi:nodetypes="ccsccsccc"
       id="path3956"
       d="M -2127.6998,482.33267 C -2116.3148,498.3349 -2097.4891,496.84163 -2089.6768,496.37711 C -1996.4295,485.02431 -1907.8678,488.69272 -1836.3511,489.97103 C -1807.7732,490.48184 -1784.5357,485.31639 -1769.7905,485.71911 L -1768.0312,460.26783 C -1783.2722,459.92126 -1806.9057,454.0229 -1835.3198,453.92864 C -1907.0929,453.69054 -2006.787,469.92267 -2084.9025,458.30613 L -2127.5496,458.30613 L -2127.6998,482.33267 z"
       style="fill:none;fill-opacity:1;fill-rule:evenodd;stroke:#000000;stroke-width:4.0999999;stroke-linecap:butt;stroke-linejoin:miter;stroke-miterlimit:4;stroke-dasharray:none;stroke-opacity:1;filter:url(#filter3952)" />
    <path
       sodipodi:nodetypes="csccscc"
       id="path3880"
       d="M -1875.6215,342.20839 C -1875.6215,342.20839 -1731.2123,346.03099 -1659.8571,345.60626 C -1588.5019,345.18153 -1590.2008,340.50946 -1590.2008,340.50946 L -1593.5987,323.52014 C -1593.5987,323.52014 -1584.6793,317.14914 -1654.7603,318.42334 C -1724.8413,319.69754 -1873.9226,328.61693 -1873.9226,328.61693 L -1875.6215,342.20839 z"
       style="fill:url(#radialGradient6103);fill-opacity:1;fill-rule:evenodd;stroke:#ffffff;stroke-width:1px;stroke-linecap:butt;stroke-linejoin:miter;stroke-opacity:1;filter:url(#filter3902)" />
    <path
       sodipodi:nodetypes="ccsc"
       id="path3135"
       d="M -1878.875,318.05124 L -1882.4789,344.48042 C -1898.8938,344.00724 -1910.48,344.21049 -1917.7732,342.38924 C -1940.1961,336.78987 -1922.0408,324.74681 -1878.875,318.05124 z"
       style="fill:url(#linearGradient6105);fill-opacity:1;fill-rule:evenodd;stroke:none;stroke-width:1px;stroke-linecap:butt;stroke-linejoin:miter;stroke-opacity:1;filter:url(#filter4014)" />
    <path
       sodipodi:nodetypes="csssssccsssss"
       id="path2264"
       d="M -234.578,594.89081 C -232.5902,596.17712 -233.2926,599.63962 -233.6574,601.98525 C -236.8573,622.56134 -246.42839,641.76035 -260.35229,658.62918 C -261.72629,660.29381 -263.95259,663.23723 -265.81249,662.1651 C -366.98189,603.84643 -467.07749,545.06668 -582.96269,493.97936 C -664.93099,457.84412 -746.10329,434.42319 -831.63739,420.69844 C -1066.8592,382.95488 -1335.2683,381.75202 -1585.554,359.47483 C -1595.278,359.47483 -1602.8891,352.4642 -1602.8891,345.01485 C -1602.8891,334.69445 -1601.8336,326.1161 -1601.8336,316.32876 C -1601.8336,310.99013 -1594.9141,303.93654 -1587.2719,304.16975 C -1336.7406,311.81495 -1072.1205,337.67642 -825.63069,358.22945 C -711.87109,367.71506 -633.75689,392.75885 -554.13089,425.50374 C -441.67599,471.74894 -333.16249,531.09784 -234.578,594.89081 z"
       style="fill:#282828;fill-opacity:1;fill-rule:evenodd;stroke:none;stroke-width:1px;stroke-linecap:butt;stroke-linejoin:miter;stroke-opacity:1" />
    <path
       sodipodi:nodetypes="csscsssscssssc"
       transform="translate(1722.1154,-429.13099)"
       clip-path="url(#clipPath3087)"
       id="path3036"
       d="M -3306.5938,737.5 C -3314.2359,737.26679 -3321.1562,744.31764 -3321.1562,749.65625 C -3321.1562,759.44359 -3322.2188,768.02336 -3322.2188,778.34375 C -3322.2188,779.34143 -3322.0723,780.34635 -3321.8125,781.3125 C -3321.5116,775.78859 -3321.1562,760.41611 -3321.1562,754.65625 C -3321.1562,749.31764 -3314.2359,742.26679 -3306.5938,742.5 C -3056.0625,750.14521 -2791.4273,776.00947 -2544.9375,796.5625 C -2431.1779,806.04812 -2353.0635,841.09886 -2273.4375,873.84375 C -2161.1845,920.00589 -2052.8805,979.21255 -1954.4375,1042.875 C -1953.8522,1040.3791 -1953.3637,1037.8521 -1952.9688,1035.3125 C -1952.6039,1032.9669 -1951.9184,1029.5051 -1953.9062,1028.2188 C -2052.4907,964.42575 -2160.9825,905.08896 -2273.4375,858.84375 C -2353.0635,826.09886 -2431.1779,801.04812 -2544.9375,791.5625 C -2791.4273,771.00947 -3056.0625,745.14521 -3306.5938,737.5 z"
       style="fill:url(#linearGradient7258);fill-opacity:1;fill-rule:evenodd;stroke:none;stroke-width:1px;stroke-linecap:butt;stroke-linejoin:miter;stroke-opacity:1;filter:url(#filter3131)" />
    <path
       sodipodi:nodetypes="cssssssssccssssssssc"
       id="path2272"
       d="M -1543.3215,169.8125 C -1648.4413,169.70607 -1742.1917,194.31397 -1824.8215,231.84375 C -1850.2465,243.39161 -1872.2373,262.37648 -1877.6652,285.90625 C -1886.8778,325.8423 -1886.5484,368.57734 -1870.4777,420.46875 C -1858.4465,459.3171 -1839.2171,483.09526 -1815.1965,499.75 C -1695.0796,583.03332 -1399.891,602.94353 -1250.5715,480.53125 C -1209.2715,446.67347 -1205.9655,387.34383 -1203.7277,330.375 C -1202.8164,307.17444 -1210.2052,279.43438 -1219.3527,269.09375 C -1252.3575,231.78439 -1288.8209,203.60012 -1424.759,180.1875 C -1465.7666,173.12476 -1505.2994,169.851 -1543.3215,169.8125 z M -1543.3215,182.4375 C -1507.1382,182.47414 -1469.5647,185.59132 -1430.5402,192.3125 C -1301.1762,214.59286 -1269.4489,241.4012 -1238.0402,276.90625 C -1229.3351,286.7468 -1222.298,310.14021 -1223.1652,332.21875 C -1225.2947,386.4325 -1228.4563,439.90462 -1267.759,472.125 C -1409.8572,588.61728 -1684.7636,569.66189 -1799.0715,490.40625 C -1821.9304,474.55695 -1840.2158,451.93834 -1851.6652,414.96875 C -1866.9588,365.58687 -1867.276,327.91094 -1858.509,289.90625 C -1853.3436,267.51441 -1832.4232,252.45814 -1808.2277,241.46875 C -1729.594,205.75395 -1643.3576,182.33621 -1543.3215,182.4375 z"
       style="fill:url(#radialGradient6109);fill-opacity:1;fill-rule:evenodd;stroke:none;stroke-width:3;stroke-linecap:butt;stroke-linejoin:miter;stroke-miterlimit:4;stroke-dasharray:none;stroke-opacity:1" />
    <path
       clip-path="url(#clipPath2936)"
       sodipodi:nodetypes="cssssssssc"
       id="path2906"
       d="M -2267.1314,169.8125 C -2372.2512,169.70607 -2466.0016,194.31397 -2548.6314,231.84375 C -2574.0564,243.39161 -2596.0472,262.37648 -2601.4751,285.90625 C -2610.6877,325.8423 -2610.3583,368.57734 -2594.2876,420.46875 C -2582.2564,459.3171 -2563.027,483.09526 -2539.0064,499.75 C -2418.8895,583.03332 -2123.7009,602.94353 -1974.3814,480.53125 C -1933.0814,446.67347 -1929.7754,387.34383 -1927.5376,330.375 C -1926.6263,307.17444 -1934.0151,279.43438 -1943.1626,269.09375 C -1976.1674,231.78439 -2012.6308,203.60012 -2148.5689,180.1875 C -2189.5765,173.12476 -2229.1093,169.851 -2267.1314,169.8125 z"
       style="fill:none;fill-opacity:1;fill-rule:evenodd;stroke:url(#linearGradient7260);stroke-width:3;stroke-linecap:butt;stroke-linejoin:miter;stroke-miterlimit:4;stroke-dasharray:none;stroke-opacity:1;filter:url(#filter2960)"
       transform="translate(723.80468,-0.114943)" />
    <path
       transform="translate(723.80468,0.1611764)"
       style="fill:none;fill-opacity:1;fill-rule:evenodd;stroke:url(#linearGradient7262);stroke-width:3;stroke-linecap:butt;stroke-linejoin:miter;stroke-miterlimit:4;stroke-dasharray:none;stroke-opacity:1;filter:url(#filter2974)"
       d="M -2267.1314,169.8125 C -2372.2512,169.70607 -2466.0016,194.31397 -2548.6314,231.84375 C -2574.0564,243.39161 -2596.0472,262.37648 -2601.4751,285.90625 C -2610.6877,325.8423 -2610.3583,368.57734 -2594.2876,420.46875 C -2582.2564,459.3171 -2563.027,483.09526 -2539.0064,499.75 C -2418.8895,583.03332 -2123.7009,602.94353 -1974.3814,480.53125 C -1933.0814,446.67347 -1929.7754,387.34383 -1927.5376,330.375 C -1926.6263,307.17444 -1934.0151,279.43438 -1943.1626,269.09375 C -1976.1674,231.78439 -2012.6308,203.60012 -2148.5689,180.1875 C -2189.5765,173.12476 -2229.1093,169.851 -2267.1314,169.8125 z"
       id="path2964"
       sodipodi:nodetypes="cssssssssc"
       clip-path="url(#clipPath2936)" />
    <path
       transform="translate(723.83411,1.3241336e-6)"
       style="fill:none;fill-opacity:1;fill-rule:evenodd;stroke:url(#linearGradient7264);stroke-width:3;stroke-linecap:butt;stroke-linejoin:miter;stroke-miterlimit:4;stroke-dasharray:none;stroke-opacity:1;filter:url(#filter2944)"
       d="M -2267.1314,169.8125 C -2372.2512,169.70607 -2466.0016,194.31397 -2548.6314,231.84375 C -2574.0564,243.39161 -2596.0472,262.37648 -2601.4751,285.90625 C -2610.6877,325.8423 -2610.3583,368.57734 -2594.2876,420.46875 C -2582.2564,459.3171 -2563.027,483.09526 -2539.0064,499.75 C -2418.8895,583.03332 -2123.7009,602.94353 -1974.3814,480.53125 C -1933.0814,446.67347 -1929.7754,387.34383 -1927.5376,330.375 C -1926.6263,307.17444 -1934.0151,279.43438 -1943.1626,269.09375 C -1976.1674,231.78439 -2012.6308,203.60012 -2148.5689,180.1875 C -2189.5765,173.12476 -2229.1093,169.851 -2267.1314,169.8125 z M -2267.1314,182.4375 C -2230.9481,182.47414 -2193.3746,185.59132 -2154.3501,192.3125 C -2024.9861,214.59286 -1993.2588,241.4012 -1961.8501,276.90625 C -1953.145,286.7468 -1946.1079,310.14021 -1946.9751,332.21875 C -1949.1046,386.4325 -1952.2662,439.90462 -1991.5689,472.125 C -2133.6671,588.61728 -2408.5735,569.66189 -2522.8814,490.40625 C -2545.7403,474.55695 -2564.0257,451.93834 -2575.4751,414.96875 C -2590.7687,365.58687 -2591.0859,327.91094 -2582.3189,289.90625 C -2577.1535,267.51441 -2556.2331,252.45814 -2532.0376,241.46875 C -2453.4039,205.75395 -2367.1675,182.33621 -2267.1314,182.4375 z"
       id="path2956"
       sodipodi:nodetypes="cssssssssccssssssssc"
       clip-path="url(#clipPath2936)" />
    <path
       sodipodi:nodetypes="ccc"
       id="path3006"
       d="M -1457.6841,178.26141 C -1369.0717,193.80122 -1276.7168,201.56832 -1216.4357,275.95002 C -1301.1227,200.97703 -1378.8423,194.07351 -1457.6841,178.26141 z"
       style="fill:#ffffff;fill-opacity:1;fill-rule:evenodd;stroke:none;stroke-width:1px;stroke-linecap:butt;stroke-linejoin:miter;stroke-opacity:1;filter:url(#filter3030)" />
    <path
       style="fill:#ffffff;fill-opacity:1;fill-rule:evenodd;stroke:none;stroke-width:1px;stroke-linecap:butt;stroke-linejoin:miter;stroke-opacity:1;filter:url(#filter3022)"
       d="M -1459.4861,552.85583 C -1364.8671,540.92 -1247.2843,503.72039 -1236.8583,434.144 C -1266.2842,499.50638 -1354.8158,532.23842 -1459.4861,552.85583 z"
       id="path3008"
       sodipodi:nodetypes="ccc" />
    <path
       clip-path="url(#clipPath2936)"
       sodipodi:nodetypes="cssssssssccssssssssc"
       id="path3582"
       d="M -2267.1314,169.8125 C -2372.2512,169.70607 -2466.0016,194.31397 -2548.6314,231.84375 C -2574.0564,243.39161 -2596.0472,262.37648 -2601.4751,285.90625 C -2610.6877,325.8423 -2610.3583,368.57734 -2594.2876,420.46875 C -2582.2564,459.3171 -2563.027,483.09526 -2539.0064,499.75 C -2418.8895,583.03332 -2123.7009,602.94353 -1974.3814,480.53125 C -1933.0814,446.67347 -1929.7754,387.34383 -1927.5376,330.375 C -1926.6263,307.17444 -1934.0151,279.43438 -1943.1626,269.09375 C -1976.1674,231.78439 -2012.6308,203.60012 -2148.5689,180.1875 C -2189.5765,173.12476 -2229.1093,169.851 -2267.1314,169.8125 z M -2267.1314,182.4375 C -2230.9481,182.47414 -2193.3746,185.59132 -2154.3501,192.3125 C -2024.9861,214.59286 -1993.2588,241.4012 -1961.8501,276.90625 C -1953.145,286.7468 -1946.1079,310.14021 -1946.9751,332.21875 C -1949.1046,386.4325 -1952.2662,439.90462 -1991.5689,472.125 C -2133.6671,588.61728 -2408.5735,569.66189 -2522.8814,490.40625 C -2545.7403,474.55695 -2564.0257,451.93834 -2575.4751,414.96875 C -2590.7687,365.58687 -2591.0859,327.91094 -2582.3189,289.90625 C -2577.1535,267.51441 -2556.2331,252.45814 -2532.0376,241.46875 C -2453.4039,205.75395 -2367.1675,182.33621 -2267.1314,182.4375 z"
       style="fill:none;fill-opacity:1;fill-rule:evenodd;stroke:url(#linearGradient7266);stroke-width:3;stroke-linecap:butt;stroke-linejoin:miter;stroke-miterlimit:4;stroke-dasharray:none;stroke-opacity:1"
       transform="translate(723.83411,1.3241336e-6)" />
    <path
       sodipodi:nodetypes="cccccs"
       id="path2268"
       d="M -1951.8849,305.64517 C -1941.2171,301.31133 -1898.1676,291.06904 -1872.1929,290.39096 C -1878.4277,305.68315 -1876.2822,318.1819 -1873.0424,330.31587 L -1940.1502,332.86427 C -1944.1144,335.11429 -1948.0785,336.1956 -1952.0427,342.2084 C -1960.3656,333.85087 -1960.7024,309.22732 -1951.8849,305.64517 z"
       style="fill:url(#radialGradient6119);fill-opacity:1;fill-rule:evenodd;stroke:none;stroke-width:2;stroke-linecap:butt;stroke-linejoin:miter;stroke-miterlimit:4;stroke-dasharray:none;stroke-opacity:1" />
    <path
       transform="translate(366.95772,0)"
       clip-path="url(#clipPath3804)"
       sodipodi:nodetypes="cccccs"
       id="path3802"
       d="M -2318.8543,305.64517 C -2308.1865,301.31133 -2265.137,291.06904 -2239.1623,290.39096 C -2245.3971,305.68315 -2243.2516,318.1819 -2240.0118,330.31587 L -2307.1196,332.86427 C -2311.0838,335.11429 -2315.0479,336.1956 -2319.0121,342.2084 C -2327.335,333.85087 -2327.6718,309.22732 -2318.8543,305.64517 z"
       style="fill:none;fill-opacity:1;fill-rule:evenodd;stroke:url(#linearGradient7268);stroke-width:7.19999981;stroke-linecap:butt;stroke-linejoin:miter;stroke-miterlimit:4;stroke-dasharray:none;stroke-opacity:1;filter:url(#filter3848)" />
    <path
       style="fill:none;fill-opacity:1;fill-rule:evenodd;stroke:url(#linearGradient7270);stroke-width:4;stroke-linecap:butt;stroke-linejoin:miter;stroke-miterlimit:4;stroke-dasharray:none;stroke-opacity:1;filter:url(#filter3876)"
       d="M -2318.8543,305.64517 C -2308.1865,301.31133 -2265.137,291.06904 -2239.1623,290.39096 C -2245.3971,305.68315 -2243.2516,318.1819 -2240.0118,330.31587 L -2307.1196,332.86427 C -2311.0838,335.11429 -2315.0479,336.1956 -2319.0121,342.2084 C -2327.335,333.85087 -2327.6718,309.22732 -2318.8543,305.64517 z"
       id="path3852"
       sodipodi:nodetypes="cccccs"
       clip-path="url(#clipPath3804)"
       transform="translate(366.95772,0)" />
    <path
       style="fill:#858585;fill-opacity:1;fill-rule:evenodd;stroke:#000000;stroke-width:1px;stroke-linecap:butt;stroke-linejoin:miter;stroke-opacity:1"
       d="M -235.9338,341.17678 C -247.3188,357.17901 -266.1445,355.68574 -273.9568,355.22122 C -367.2041,343.86842 -455.7658,347.53683 -527.2825,348.81514 C -555.8604,349.32595 -579.0979,344.1605 -593.8431,344.56322 L -595.6024,319.11194 C -580.3614,318.76537 -556.7279,312.86701 -528.3138,312.77275 C -456.5407,312.53465 -356.8466,328.76678 -278.7311,317.15024 L -236.084,317.15024 L -235.9338,341.17678 z"
       id="path4038"
       sodipodi:nodetypes="ccsccsccc" />
    <path
       style="fill:none;fill-opacity:1;fill-rule:evenodd;stroke:#000000;stroke-width:4.0999999;stroke-linecap:butt;stroke-linejoin:miter;stroke-miterlimit:4;stroke-dasharray:none;stroke-opacity:1;filter:url(#filter3952)"
       d="M -2127.6998,482.33267 C -2116.3148,498.3349 -2097.4891,496.84163 -2089.6768,496.37711 C -1996.4295,485.02431 -1907.8678,488.69272 -1836.3511,489.97103 C -1807.7732,490.48184 -1784.5357,485.31639 -1769.7905,485.71911 L -1768.0312,460.26783 C -1783.2722,459.92126 -1806.9057,454.0229 -1835.3198,453.92864 C -1907.0929,453.69054 -2006.787,469.92267 -2084.9025,458.30613 L -2127.5496,458.30613 L -2127.6998,482.33267 z"
       id="path4040"
       sodipodi:nodetypes="ccsccsccc"
       clip-path="url(#clipPath3958)"
       transform="matrix(-1,0,0,1,-2363.8306,-141.0114)" />
    <path
       transform="matrix(-1,0,0,1,-2188.8406,0)"
       style="fill:url(#radialGradient6125);fill-opacity:1;fill-rule:evenodd;stroke:#ffffff;stroke-width:1px;stroke-linecap:butt;stroke-linejoin:miter;stroke-opacity:1;filter:url(#filter3902)"
       d="M -1875.6215,342.20839 C -1875.6215,342.20839 -1731.2123,346.03099 -1659.8571,345.60626 C -1588.5019,345.18153 -1590.2008,340.50946 -1590.2008,340.50946 L -1593.5987,323.52014 C -1593.5987,323.52014 -1584.6793,317.14914 -1654.7603,318.42334 C -1724.8413,319.69754 -1873.9226,328.61693 -1873.9226,328.61693 L -1875.6215,342.20839 z"
       id="path4042"
       sodipodi:nodetypes="csccscc" />
    <path
       transform="matrix(-1,0,0,1,-2188.8406,0)"
       style="fill:url(#linearGradient6127);fill-opacity:1;fill-rule:evenodd;stroke:none;stroke-width:1px;stroke-linecap:butt;stroke-linejoin:miter;stroke-opacity:1;filter:url(#filter4014)"
       d="M -1878.875,318.05124 L -1882.4789,344.48042 C -1898.8938,344.00724 -1910.48,344.21049 -1917.7732,342.38924 C -1940.1961,336.78987 -1922.0408,324.74681 -1878.875,318.05124 z"
       id="path4044"
       sodipodi:nodetypes="ccsc" />
    <path
       style="fill:url(#radialGradient6129);fill-opacity:1;fill-rule:evenodd;stroke:none;stroke-width:3;stroke-linecap:butt;stroke-linejoin:miter;stroke-miterlimit:4;stroke-dasharray:none;stroke-opacity:1"
       d="M -645.5191,169.8125 C -540.3993,169.70607 -446.6489,194.31397 -364.0191,231.84375 C -338.5941,243.39161 -316.6033,262.37648 -311.1754,285.90625 C -301.9628,325.8423 -302.2922,368.57734 -318.3629,420.46875 C -330.3941,459.3171 -349.6235,483.09526 -373.6441,499.75 C -493.761,583.03332 -788.9496,602.94353 -938.2691,480.53125 C -979.5691,446.67347 -982.8751,387.34383 -985.1129,330.375 C -986.0242,307.17444 -978.6354,279.43438 -969.4879,269.09375 C -936.4831,231.78439 -900.0197,203.60012 -764.0816,180.1875 C -723.074,173.12476 -683.5412,169.851 -645.5191,169.8125 z M -645.5191,182.4375 C -681.7024,182.47414 -719.2759,185.59132 -758.3004,192.3125 C -887.6644,214.59286 -919.3917,241.4012 -950.8004,276.90625 C -959.5055,286.7468 -966.5426,310.14021 -965.6754,332.21875 C -963.5459,386.4325 -960.3843,439.90462 -921.0816,472.125 C -778.9834,588.61728 -504.077,569.66189 -389.7691,490.40625 C -366.9102,474.55695 -348.6248,451.93834 -337.1754,414.96875 C -321.8818,365.58687 -321.5646,327.91094 -330.3316,289.90625 C -335.497,267.51441 -356.4174,252.45814 -380.6129,241.46875 C -459.2466,205.75395 -545.483,182.33621 -645.5191,182.4375 z"
       id="path4050"
       sodipodi:nodetypes="cssssssssccssssssssc" />
    <path
       transform="matrix(-1,0,0,1,-2912.6453,-0.114943)"
       style="fill:none;fill-opacity:1;fill-rule:evenodd;stroke:url(#linearGradient7272);stroke-width:3;stroke-linecap:butt;stroke-linejoin:miter;stroke-miterlimit:4;stroke-dasharray:none;stroke-opacity:1;filter:url(#filter2960)"
       d="M -2267.1314,169.8125 C -2372.2512,169.70607 -2466.0016,194.31397 -2548.6314,231.84375 C -2574.0564,243.39161 -2596.0472,262.37648 -2601.4751,285.90625 C -2610.6877,325.8423 -2610.3583,368.57734 -2594.2876,420.46875 C -2582.2564,459.3171 -2563.027,483.09526 -2539.0064,499.75 C -2418.8895,583.03332 -2123.7009,602.94353 -1974.3814,480.53125 C -1933.0814,446.67347 -1929.7754,387.34383 -1927.5376,330.375 C -1926.6263,307.17444 -1934.0151,279.43438 -1943.1626,269.09375 C -1976.1674,231.78439 -2012.6308,203.60012 -2148.5689,180.1875 C -2189.5765,173.12476 -2229.1093,169.851 -2267.1314,169.8125 z"
       id="path4052"
       sodipodi:nodetypes="cssssssssc"
       clip-path="url(#clipPath2936)" />
    <path
       clip-path="url(#clipPath2936)"
       sodipodi:nodetypes="cssssssssc"
       id="path4054"
       d="M -2267.1314,169.8125 C -2372.2512,169.70607 -2466.0016,194.31397 -2548.6314,231.84375 C -2574.0564,243.39161 -2596.0472,262.37648 -2601.4751,285.90625 C -2610.6877,325.8423 -2610.3583,368.57734 -2594.2876,420.46875 C -2582.2564,459.3171 -2563.027,483.09526 -2539.0064,499.75 C -2418.8895,583.03332 -2123.7009,602.94353 -1974.3814,480.53125 C -1933.0814,446.67347 -1929.7754,387.34383 -1927.5376,330.375 C -1926.6263,307.17444 -1934.0151,279.43438 -1943.1626,269.09375 C -1976.1674,231.78439 -2012.6308,203.60012 -2148.5689,180.1875 C -2189.5765,173.12476 -2229.1093,169.851 -2267.1314,169.8125 z"
       style="fill:none;fill-opacity:1;fill-rule:evenodd;stroke:url(#linearGradient7274);stroke-width:3;stroke-linecap:butt;stroke-linejoin:miter;stroke-miterlimit:4;stroke-dasharray:none;stroke-opacity:1;filter:url(#filter2974)"
       transform="matrix(-1,0,0,1,-2912.6453,0.1611764)" />
    <path
       clip-path="url(#clipPath2936)"
       sodipodi:nodetypes="cssssssssccssssssssc"
       id="path4056"
       d="M -2267.1314,169.8125 C -2372.2512,169.70607 -2466.0016,194.31397 -2548.6314,231.84375 C -2574.0564,243.39161 -2596.0472,262.37648 -2601.4751,285.90625 C -2610.6877,325.8423 -2610.3583,368.57734 -2594.2876,420.46875 C -2582.2564,459.3171 -2563.027,483.09526 -2539.0064,499.75 C -2418.8895,583.03332 -2123.7009,602.94353 -1974.3814,480.53125 C -1933.0814,446.67347 -1929.7754,387.34383 -1927.5376,330.375 C -1926.6263,307.17444 -1934.0151,279.43438 -1943.1626,269.09375 C -1976.1674,231.78439 -2012.6308,203.60012 -2148.5689,180.1875 C -2189.5765,173.12476 -2229.1093,169.851 -2267.1314,169.8125 z M -2267.1314,182.4375 C -2230.9481,182.47414 -2193.3746,185.59132 -2154.3501,192.3125 C -2024.9861,214.59286 -1993.2588,241.4012 -1961.8501,276.90625 C -1953.145,286.7468 -1946.1079,310.14021 -1946.9751,332.21875 C -1949.1046,386.4325 -1952.2662,439.90462 -1991.5689,472.125 C -2133.6671,588.61728 -2408.5735,569.66189 -2522.8814,490.40625 C -2545.7403,474.55695 -2564.0257,451.93834 -2575.4751,414.96875 C -2590.7687,365.58687 -2591.0859,327.91094 -2582.3189,289.90625 C -2577.1535,267.51441 -2556.2331,252.45814 -2532.0376,241.46875 C -2453.4039,205.75395 -2367.1675,182.33621 -2267.1314,182.4375 z"
       style="fill:none;fill-opacity:1;fill-rule:evenodd;stroke:url(#linearGradient7276);stroke-width:3;stroke-linecap:butt;stroke-linejoin:miter;stroke-miterlimit:4;stroke-dasharray:none;stroke-opacity:1;filter:url(#filter2944)"
       transform="matrix(-1,0,0,1,-2912.6747,1.3241336e-6)" />
    <path
       transform="matrix(-1,0,0,1,-2188.8406,0)"
       style="fill:#ffffff;fill-opacity:1;fill-rule:evenodd;stroke:none;stroke-width:1px;stroke-linecap:butt;stroke-linejoin:miter;stroke-opacity:1;filter:url(#filter3030)"
       d="M -1457.6841,178.26141 C -1369.0717,193.80122 -1276.7168,201.56832 -1216.4357,275.95002 C -1301.1227,200.97703 -1378.8423,194.07351 -1457.6841,178.26141 z"
       id="path4058"
       sodipodi:nodetypes="ccc" />
    <path
       transform="matrix(-1,0,0,1,-2188.8406,0)"
       sodipodi:nodetypes="ccc"
       id="path4060"
       d="M -1459.4861,552.85583 C -1364.8671,540.92 -1247.2843,503.72039 -1236.8583,434.144 C -1266.2842,499.50638 -1354.8158,532.23842 -1459.4861,552.85583 z"
       style="fill:#ffffff;fill-opacity:1;fill-rule:evenodd;stroke:none;stroke-width:1px;stroke-linecap:butt;stroke-linejoin:miter;stroke-opacity:1;filter:url(#filter3022)" />
    <path
       transform="matrix(-1,0,0,1,-2912.6747,1.3241336e-6)"
       style="fill:none;fill-opacity:1;fill-rule:evenodd;stroke:url(#linearGradient7278);stroke-width:3;stroke-linecap:butt;stroke-linejoin:miter;stroke-miterlimit:4;stroke-dasharray:none;stroke-opacity:1"
       d="M -2267.1314,169.8125 C -2372.2512,169.70607 -2466.0016,194.31397 -2548.6314,231.84375 C -2574.0564,243.39161 -2596.0472,262.37648 -2601.4751,285.90625 C -2610.6877,325.8423 -2610.3583,368.57734 -2594.2876,420.46875 C -2582.2564,459.3171 -2563.027,483.09526 -2539.0064,499.75 C -2418.8895,583.03332 -2123.7009,602.94353 -1974.3814,480.53125 C -1933.0814,446.67347 -1929.7754,387.34383 -1927.5376,330.375 C -1926.6263,307.17444 -1934.0151,279.43438 -1943.1626,269.09375 C -1976.1674,231.78439 -2012.6308,203.60012 -2148.5689,180.1875 C -2189.5765,173.12476 -2229.1093,169.851 -2267.1314,169.8125 z M -2267.1314,182.4375 C -2230.9481,182.47414 -2193.3746,185.59132 -2154.3501,192.3125 C -2024.9861,214.59286 -1993.2588,241.4012 -1961.8501,276.90625 C -1953.145,286.7468 -1946.1079,310.14021 -1946.9751,332.21875 C -1949.1046,386.4325 -1952.2662,439.90462 -1991.5689,472.125 C -2133.6671,588.61728 -2408.5735,569.66189 -2522.8814,490.40625 C -2545.7403,474.55695 -2564.0257,451.93834 -2575.4751,414.96875 C -2590.7687,365.58687 -2591.0859,327.91094 -2582.3189,289.90625 C -2577.1535,267.51441 -2556.2331,252.45814 -2532.0376,241.46875 C -2453.4039,205.75395 -2367.1675,182.33621 -2267.1314,182.4375 z"
       id="path4062"
       sodipodi:nodetypes="cssssssssccssssssssc"
       clip-path="url(#clipPath2936)" />
    <path
       style="fill:url(#radialGradient6139);fill-opacity:1;fill-rule:evenodd;stroke:none;stroke-width:2;stroke-linecap:butt;stroke-linejoin:miter;stroke-miterlimit:4;stroke-dasharray:none;stroke-opacity:1"
       d="M -236.9557,305.64517 C -247.6235,301.31133 -290.673,291.06904 -316.6477,290.39096 C -310.4129,305.68315 -312.5584,318.1819 -315.7982,330.31587 L -248.6904,332.86427 C -244.7262,335.11429 -240.7621,336.1956 -236.7979,342.2084 C -228.475,333.85087 -228.1382,309.22732 -236.9557,305.64517 z"
       id="path4064"
       sodipodi:nodetypes="cccccs" />
    <path
       style="fill:none;fill-opacity:1;fill-rule:evenodd;stroke:url(#linearGradient7280);stroke-width:7.19999981;stroke-linecap:butt;stroke-linejoin:miter;stroke-miterlimit:4;stroke-dasharray:none;stroke-opacity:1;filter:url(#filter3848)"
       d="M -2318.8543,305.64517 C -2308.1865,301.31133 -2265.137,291.06904 -2239.1623,290.39096 C -2245.3971,305.68315 -2243.2516,318.1819 -2240.0118,330.31587 L -2307.1196,332.86427 C -2311.0838,335.11429 -2315.0479,336.1956 -2319.0121,342.2084 C -2327.335,333.85087 -2327.6718,309.22732 -2318.8543,305.64517 z"
       id="path4066"
       sodipodi:nodetypes="cccccs"
       clip-path="url(#clipPath3804)"
       transform="matrix(-1,0,0,1,-2555.7983,0)" />
    <path
       transform="matrix(-1,0,0,1,-2555.7983,0)"
       clip-path="url(#clipPath3804)"
       sodipodi:nodetypes="cccccs"
       id="path4068"
       d="M -2318.8543,305.64517 C -2308.1865,301.31133 -2265.137,291.06904 -2239.1623,290.39096 C -2245.3971,305.68315 -2243.2516,318.1819 -2240.0118,330.31587 L -2307.1196,332.86427 C -2311.0838,335.11429 -2315.0479,336.1956 -2319.0121,342.2084 C -2327.335,333.85087 -2327.6718,309.22732 -2318.8543,305.64517 z"
       style="fill:none;fill-opacity:1;fill-rule:evenodd;stroke:url(#linearGradient7282);stroke-width:4;stroke-linecap:butt;stroke-linejoin:miter;stroke-miterlimit:4;stroke-dasharray:none;stroke-opacity:1;filter:url(#filter3876)" />
    <path
       sodipodi:nodetypes="ccccc"
       id="path2867"
       d="M -1216.7186,297.33167 C -1152.5725,248.87196 -991.51583,260.54014 -970.44663,296.13035 L -965.64133,276.90912 C -1048.1101,238.76306 -1133.2619,241.88764 -1220.1164,278.68092 L -1216.7186,297.33167 z"
       style="fill:url(#radialGradient6145);fill-opacity:1;fill-rule:evenodd;stroke:#000000;stroke-width:1px;stroke-linecap:butt;stroke-linejoin:miter;stroke-opacity:1" />
    <path
       style="fill:url(#radialGradient6147);fill-opacity:1;fill-rule:evenodd;stroke:#000000;stroke-width:1px;stroke-linecap:butt;stroke-linejoin:miter;stroke-opacity:1"
       d="M -1216.7186,297.33167 C -1152.5725,248.87196 -991.51583,260.54014 -970.44663,296.13035 L -977.53383,301.11891 C -978.16973,300.18785 -981.45803,297.81987 -986.64183,294.12203 C -1023.1196,268.10076 -1156.3324,270.03706 -1198.002,297.28948 C -1203.3063,300.75855 -1208.5627,307.66183 -1209.4981,309.26171 L -1216.7186,297.33167 z"
       id="path2869"
       sodipodi:nodetypes="cccsscc" />
    <path
       style="fill:none;fill-opacity:0.75;fill-rule:evenodd;stroke:#000000;stroke-width:1px;stroke-linecap:butt;stroke-linejoin:miter;stroke-opacity:1"
       d="M -316.67745,273.27856 C -462.30405,176.17131 -616.15225,161.28042 -774.53895,191.77443 C -864.28345,217.89368 -978.28075,219.76005 -971.10775,342.79679 C -970.07725,408.74023 -953.77595,469.98498 -870.42615,510.59942 C -718.12775,579.50442 -558.46375,571.0699 -393.38725,505.80506 C -281.24165,418.34571 -321.06885,366.44057 -316.67745,273.27856 z"
       id="path4182"
       sodipodi:nodetypes="cccccc" />
    <path
       id="path4325"
       d="M -1529.7577,317.63316 C -1634.8777,317.55602 -1728.628,335.39111 -1811.2577,362.5916 C -1836.6829,370.96115 -1858.6736,384.72084 -1864.1015,401.77453 C -1864.4822,402.97049 -1864.8476,404.17252 -1865.1953,405.37573 C -1866.477,405.44468 -1867.7707,405.5097 -1869.1015,405.60222 C -1874.6186,405.98645 -1880.5217,406.55775 -1886.4765,407.25561 C -1890.4536,407.72171 -1894.4829,408.24445 -1898.414,408.79574 C -1902.3346,409.34579 -1906.2003,409.94855 -1909.8827,410.53973 C -1911.7287,410.83608 -1913.5391,411.12456 -1915.289,411.42305 C -1918.7775,412.01828 -1922.0767,412.61867 -1925.039,413.18967 C -1926.5245,413.47601 -1927.9407,413.75565 -1929.2577,414.02769 C -1930.5631,414.29748 -1931.7984,414.5701 -1932.914,414.82041 C -1935.1628,415.32496 -1937.0181,415.78672 -1938.3515,416.17935 C -1939.1677,416.42298 -1939.9106,416.80514 -1940.5703,417.28916 C -1941.9036,418.26753 -1942.9276,419.69446 -1943.6327,421.38865 C -1943.9853,422.23573 -1944.2469,423.14734 -1944.4453,424.10654 C -1944.842,426.02494 -1944.9349,428.12229 -1944.7265,430.22179 C -1944.5876,431.62145 -1944.3162,433.01845 -1943.914,434.36658 C -1943.6124,435.37766 -1943.2365,436.35819 -1942.789,437.28831 C -1942.6398,437.59834 -1942.4855,437.89654 -1942.3203,438.19427 C -1941.4068,439.84038 -1940.2488,441.27884 -1938.8515,442.38435 C -1938.8166,442.41193 -1938.7929,442.44779 -1938.7577,442.47495 C -1937.0981,444.07124 -1935.3108,445.4242 -1933.414,446.55179 C -1933.345,446.59345 -1933.2645,446.62394 -1933.1953,446.66503 C -1932.3204,447.17604 -1931.4465,447.66728 -1930.539,448.09192 C -1919.8455,453.18263 -1907.1865,452.47494 -1901.1327,452.21406 C -1890.6382,451.28802 -1880.2097,450.50414 -1869.8515,449.8359 C -1869.8468,449.89693 -1869.825,449.95605 -1869.8203,450.0171 C -1869.8123,450.11611 -1869.7972,450.21245 -1869.789,450.31153 C -1869.7865,450.34193 -1869.7915,450.37174 -1869.789,450.40213 C -1868.5459,465.6228 -1864.466,481.83191 -1856.914,499.50536 C -1844.8829,527.66153 -1825.6533,544.89523 -1801.6327,556.96611 C -1798.3928,558.59426 -1795.0274,560.18487 -1791.539,561.74507 C -1843.1299,581.87189 -1893.0646,603.48096 -1940.6953,625.81935 C -1941.7192,626.2996 -1942.0289,627.18377 -1942.039,628.17485 C -1942.5197,628.39994 -1942.9962,628.62908 -1943.4765,628.85433 C -1945.4643,629.7866 -1944.7789,632.29564 -1944.414,633.99567 C -1944.0191,635.8363 -1943.5306,637.66779 -1942.9453,639.47675 C -1941.8407,638.95906 -1940.7397,638.43083 -1939.6327,637.91396 C -1935.2881,650.19842 -1926.6446,661.7007 -1914.914,672.00084 C -1913.5401,673.20734 -1911.3364,675.33724 -1909.4765,674.56019 C -1840.6952,645.824 -1772.408,616.92747 -1699.3203,589.73934 C -1557.6974,618.65513 -1353.1954,612.0719 -1237.0077,543.03691 C -1220.1882,533.0433 -1209.6872,519.99042 -1202.9765,505.23558 C -1202.4767,504.14032 -1201.9978,503.04231 -1201.539,501.92882 C -1201.524,501.89221 -1201.5227,501.85219 -1201.5077,501.81557 C -1201.0502,500.70118 -1200.6139,499.57232 -1200.1953,498.44085 C -1199.7506,497.23489 -1199.3169,496.01836 -1198.914,494.79435 C -1198.5345,493.64549 -1198.165,492.49268 -1197.8203,491.32904 C -1197.8092,491.29148 -1197.8001,491.25336 -1197.789,491.2158 C -1197.4474,490.0584 -1197.1296,488.87605 -1196.8203,487.70518 C -1196.8084,487.66022 -1196.8008,487.61426 -1196.789,487.56929 C -1196.6349,486.98356 -1196.4979,486.39155 -1196.3515,485.80266 C -1158.3258,482.97972 -1119.7708,480.58502 -1080.8515,478.46435 C -1041.9474,480.58426 -1003.394,482.98105 -965.38271,485.80266 C -959.77411,508.45925 -948.59571,528.83606 -924.69531,543.03691 C -808.52401,612.06217 -604.06591,618.6637 -462.44531,589.76199 C -389.35301,616.95141 -321.04281,645.82245 -252.25771,674.56019 C -250.39781,675.33724 -248.16311,673.20734 -246.78901,672.00084 C -235.05841,661.7007 -226.44621,650.19842 -222.10151,637.91396 C -220.98711,638.43426 -219.86961,638.95562 -218.75771,639.47675 C -218.17241,637.66779 -217.68391,635.8363 -217.28901,633.99567 C -216.92411,632.29564 -216.23871,629.7866 -218.22651,628.85433 C -218.70561,628.62961 -219.18441,628.39941 -219.66401,628.17485 C -219.67411,627.18377 -219.98381,626.2996 -221.00771,625.81935 C -268.64241,603.47908 -318.59981,581.87334 -370.19531,561.74507 C -366.70681,560.18487 -363.31021,558.59426 -360.07031,556.96611 C -336.04971,544.89523 -316.82011,527.66153 -304.78901,499.50536 C -297.23701,481.83191 -293.18841,465.6228 -291.94531,450.40213 C -291.94271,450.37175 -291.94771,450.3419 -291.94531,450.31153 C -291.93711,450.21245 -291.92191,450.11611 -291.91401,450.0171 C -291.90921,449.95605 -291.88751,449.89693 -291.88271,449.8359 C -281.52461,450.50414 -271.09601,451.28802 -260.60151,452.21406 C -254.70031,452.46838 -242.52341,453.13585 -232.00771,448.4543 C -231.63651,448.29207 -231.28091,448.13172 -230.91401,447.95603 C -230.85231,447.92601 -230.78811,447.89585 -230.72651,447.86543 C -230.35831,447.68631 -229.99571,447.49255 -229.63271,447.29921 C -229.57271,447.26672 -229.50521,447.2415 -229.44531,447.20861 C -229.08701,447.01486 -228.73511,446.80533 -228.38271,446.59709 C -228.32101,446.56002 -228.25681,446.52136 -228.19531,446.48384 C -226.28691,445.33776 -224.48481,443.96356 -222.82031,442.33905 C -222.20391,441.84479 -221.62341,441.30062 -221.10151,440.68567 C -220.03661,439.43097 -219.17291,437.94046 -218.50771,436.33705 C -218.37471,436.01636 -218.24961,435.69282 -218.13271,435.36313 C -217.08131,432.396 -216.68651,429.10458 -216.97651,426.077 C -217.00871,425.74061 -217.05241,425.40933 -217.10151,425.08045 C -217.29811,423.76488 -217.63141,422.5181 -218.10151,421.38865 C -218.68911,419.97682 -219.48481,418.74545 -220.50771,417.81009 C -220.71231,417.62302 -220.91051,417.45222 -221.13271,417.28916 C -221.13831,417.28513 -221.15851,417.29318 -221.16401,417.28916 C -221.60231,416.96756 -222.06301,416.66981 -222.57031,416.45115 C -222.57841,416.44765 -222.59331,416.45461 -222.60151,416.45115 C -222.85921,416.34104 -223.10721,416.26049 -223.38271,416.17935 C -226.71231,415.19901 -233.21691,413.78005 -241.35151,412.30636 C -241.36101,412.30464 -241.37331,412.30806 -241.38271,412.30636 C -246.26351,411.42247 -251.73411,410.52126 -257.47651,409.65642 C -257.48631,409.65493 -257.49791,409.65791 -257.50771,409.65642 C -263.25161,408.79167 -269.27071,407.95398 -275.22651,407.25561 C -275.23671,407.25441 -275.24751,407.2568 -275.25771,407.25561 C -279.22441,406.79075 -283.15611,406.3918 -286.97651,406.0552 C -286.98701,406.05429 -286.99731,406.05613 -287.00771,406.0552 C -290.30621,405.7649 -293.48311,405.54011 -296.53901,405.37573 C -296.88661,404.17252 -297.22081,402.97049 -297.60151,401.77453 C -303.02941,384.72084 -325.02031,370.96115 -350.44531,362.5916 C -433.07511,335.39111 -526.82551,317.55602 -631.94531,317.63316 C -669.96741,317.66106 -709.50021,320.03378 -750.50771,325.15265 C -886.44591,342.12144 -922.90911,362.54858 -955.91401,389.58932 C -957.06971,390.53621 -958.20261,391.69193 -959.28901,393.00933 C -1037.7253,368.41321 -1118.5633,370.64345 -1200.9453,394.95715 C -1201.167,394.64594 -1201.4069,394.3482 -1201.6327,394.05119 C -1201.6487,394.03031 -1201.648,394.00406 -1201.664,393.98325 C -1202.9825,392.25712 -1204.3597,390.76035 -1205.789,389.58932 C -1238.7939,362.54858 -1275.2571,342.12144 -1411.1953,325.15265 C -1452.203,320.03378 -1491.7356,317.66106 -1529.7577,317.63316 z M -1068.7577,394.45888 C -1028.5403,394.59186 -990.16921,398.98147 -973.07031,407.82184 C -971.12631,408.82687 -969.56611,409.65133 -968.19531,410.38118 C -968.57901,411.57149 -968.93171,412.77915 -969.25771,414.00504 C -969.30641,414.18697 -969.36671,414.36603 -969.41401,414.54862 C -969.42201,414.57929 -969.43731,414.60851 -969.44531,414.63922 C -970.81831,419.96629 -971.63251,425.53743 -971.66401,430.90126 C -971.66471,431.01534 -971.66401,431.12714 -971.66401,431.24099 C -1008.1382,433.302 -1044.5538,435.47342 -1080.8515,437.67334 C -1117.1566,435.47295 -1153.5885,433.30243 -1190.0703,431.24099 C -1190.0697,429.02248 -1190.2252,426.77876 -1190.4765,424.51422 C -1190.4807,424.47692 -1190.4722,424.43827 -1190.4765,424.40098 C -1190.4799,424.37113 -1190.4731,424.34022 -1190.4765,424.31038 C -1190.5003,424.09922 -1190.5444,423.88743 -1190.5703,423.6762 C -1190.8149,421.69933 -1191.1255,419.721 -1191.539,417.76479 C -1191.5886,417.52878 -1191.6434,417.298 -1191.6953,417.06267 C -1191.7138,416.97901 -1191.7389,416.8971 -1191.7577,416.81353 C -1191.8769,416.28182 -1192.0021,415.75559 -1192.1327,415.22809 C -1189.9894,413.44744 -1187.2405,411.43439 -1184.4453,410.1094 C -1162.3083,399.61627 -1114.3375,394.30815 -1068.7577,394.45888 z"
       style="fill:url(#linearGradient6149);fill-opacity:1;fill-rule:evenodd;stroke:none;stroke-width:1px;stroke-linecap:butt;stroke-linejoin:miter;stroke-opacity:1;filter:url(#filter4520)" />
    <path
       style="fill:url(#linearGradient6151);fill-opacity:1;fill-rule:evenodd;stroke:none;stroke-width:1px;stroke-linecap:butt;stroke-linejoin:miter;stroke-opacity:1"
       d="M -1529.7577,317.63316 C -1634.8777,317.55602 -1728.628,335.39111 -1811.2577,362.5916 C -1836.6829,370.96115 -1858.6736,384.72084 -1864.1015,401.77453 C -1864.4822,402.97049 -1864.8476,404.17252 -1865.1953,405.37573 C -1866.477,405.44468 -1867.7707,405.5097 -1869.1015,405.60222 C -1874.6186,405.98645 -1880.5217,406.55775 -1886.4765,407.25561 C -1890.4536,407.72171 -1894.4829,408.24445 -1898.414,408.79574 C -1902.3346,409.34579 -1906.2003,409.94855 -1909.8827,410.53973 C -1911.7287,410.83608 -1913.5391,411.12456 -1915.289,411.42305 C -1918.7775,412.01828 -1922.0767,412.61867 -1925.039,413.18967 C -1926.5245,413.47601 -1927.9407,413.75565 -1929.2577,414.02769 C -1930.5631,414.29748 -1931.7984,414.5701 -1932.914,414.82041 C -1935.1628,415.32496 -1937.0181,415.78672 -1938.3515,416.17935 C -1939.1677,416.42298 -1939.9106,416.80514 -1940.5703,417.28916 C -1941.9036,418.26753 -1942.9276,419.69446 -1943.6327,421.38865 C -1943.9853,422.23573 -1944.2469,423.14734 -1944.4453,424.10654 C -1944.842,426.02494 -1944.9349,428.12229 -1944.7265,430.22179 C -1944.5876,431.62145 -1944.3162,433.01845 -1943.914,434.36658 C -1943.6124,435.37766 -1943.2365,436.35819 -1942.789,437.28831 C -1942.6398,437.59834 -1942.4855,437.89654 -1942.3203,438.19427 C -1941.4068,439.84038 -1940.2488,441.27884 -1938.8515,442.38435 C -1938.8166,442.41193 -1938.7929,442.44779 -1938.7577,442.47495 C -1937.0981,444.07124 -1935.3108,445.4242 -1933.414,446.55179 C -1933.345,446.59345 -1933.2645,446.62394 -1933.1953,446.66503 C -1932.3204,447.17604 -1931.4465,447.66728 -1930.539,448.09192 C -1919.8455,453.18263 -1907.1865,452.47494 -1901.1327,452.21406 C -1890.6382,451.28802 -1880.2097,450.50414 -1869.8515,449.8359 C -1869.8468,449.89693 -1869.825,449.95605 -1869.8203,450.0171 C -1869.8123,450.11611 -1869.7972,450.21245 -1869.789,450.31153 C -1869.7865,450.34193 -1869.7915,450.37174 -1869.789,450.40213 C -1868.5459,465.6228 -1864.466,481.83191 -1856.914,499.50536 C -1844.8829,527.66153 -1825.6533,544.89523 -1801.6327,556.96611 C -1798.3928,558.59426 -1795.0274,560.18487 -1791.539,561.74507 C -1843.1299,581.87189 -1893.0646,603.48096 -1940.6953,625.81935 C -1941.7192,626.2996 -1942.0289,627.18377 -1942.039,628.17485 C -1942.5197,628.39994 -1942.9962,628.62908 -1943.4765,628.85433 C -1945.4643,629.7866 -1944.7789,632.29564 -1944.414,633.99567 C -1944.0191,635.8363 -1943.5306,637.66779 -1942.9453,639.47675 C -1941.8407,638.95906 -1940.7397,638.43083 -1939.6327,637.91396 C -1935.2881,650.19842 -1926.6446,661.7007 -1914.914,672.00084 C -1913.5401,673.20734 -1911.3364,675.33724 -1909.4765,674.56019 C -1840.6952,645.824 -1772.408,616.92747 -1699.3203,589.73934 C -1557.6974,618.65513 -1353.1954,612.0719 -1237.0077,543.03691 C -1220.1882,533.0433 -1209.6872,519.99042 -1202.9765,505.23558 C -1202.4767,504.14032 -1201.9978,503.04231 -1201.539,501.92882 C -1201.524,501.89221 -1201.5227,501.85219 -1201.5077,501.81557 C -1201.0502,500.70118 -1200.6139,499.57232 -1200.1953,498.44085 C -1199.7506,497.23489 -1199.3169,496.01836 -1198.914,494.79435 C -1198.5345,493.64549 -1198.165,492.49268 -1197.8203,491.32904 C -1197.8092,491.29148 -1197.8001,491.25336 -1197.789,491.2158 C -1197.4474,490.0584 -1197.1296,488.87605 -1196.8203,487.70518 C -1196.8084,487.66022 -1196.8008,487.61426 -1196.789,487.56929 C -1196.6349,486.98356 -1196.4979,486.39155 -1196.3515,485.80266 C -1158.3258,482.97972 -1119.7708,480.58502 -1080.8515,478.46435 C -1041.9474,480.58426 -1003.394,482.98105 -965.38271,485.80266 C -959.77411,508.45925 -948.59571,528.83606 -924.69531,543.03691 C -808.52401,612.06217 -604.06591,618.6637 -462.44531,589.76199 C -389.35301,616.95141 -321.04281,645.82245 -252.25771,674.56019 C -250.39781,675.33724 -248.16311,673.20734 -246.78901,672.00084 C -235.05841,661.7007 -226.44621,650.19842 -222.10151,637.91396 C -220.98711,638.43426 -219.86961,638.95562 -218.75771,639.47675 C -218.17241,637.66779 -217.68391,635.8363 -217.28901,633.99567 C -216.92411,632.29564 -216.23871,629.7866 -218.22651,628.85433 C -218.70561,628.62961 -219.18441,628.39941 -219.66401,628.17485 C -219.67411,627.18377 -219.98381,626.2996 -221.00771,625.81935 C -268.64241,603.47908 -318.59981,581.87334 -370.19531,561.74507 C -366.70681,560.18487 -363.31021,558.59426 -360.07031,556.96611 C -336.04971,544.89523 -316.82011,527.66153 -304.78901,499.50536 C -297.23701,481.83191 -293.18841,465.6228 -291.94531,450.40213 C -291.94271,450.37175 -291.94771,450.3419 -291.94531,450.31153 C -291.93711,450.21245 -291.92191,450.11611 -291.91401,450.0171 C -291.90921,449.95605 -291.88751,449.89693 -291.88271,449.8359 C -281.52461,450.50414 -271.09601,451.28802 -260.60151,452.21406 C -254.70031,452.46838 -242.52341,453.13585 -232.00771,448.4543 C -231.63651,448.29207 -231.28091,448.13172 -230.91401,447.95603 C -230.85231,447.92601 -230.78811,447.89585 -230.72651,447.86543 C -230.35831,447.68631 -229.99571,447.49255 -229.63271,447.29921 C -229.57271,447.26672 -229.50521,447.2415 -229.44531,447.20861 C -229.08701,447.01486 -228.73511,446.80533 -228.38271,446.59709 C -228.32101,446.56002 -228.25681,446.52136 -228.19531,446.48384 C -226.28691,445.33776 -224.48481,443.96356 -222.82031,442.33905 C -222.20391,441.84479 -221.62341,441.30062 -221.10151,440.68567 C -220.03661,439.43097 -219.17291,437.94046 -218.50771,436.33705 C -218.37471,436.01636 -218.24961,435.69282 -218.13271,435.36313 C -217.08131,432.396 -216.68651,429.10458 -216.97651,426.077 C -217.00871,425.74061 -217.05241,425.40933 -217.10151,425.08045 C -217.29811,423.76488 -217.63141,422.5181 -218.10151,421.38865 C -218.68911,419.97682 -219.48481,418.74545 -220.50771,417.81009 C -220.71231,417.62302 -220.91051,417.45222 -221.13271,417.28916 C -221.13831,417.28513 -221.15851,417.29318 -221.16401,417.28916 C -221.60231,416.96756 -222.06301,416.66981 -222.57031,416.45115 C -222.57841,416.44765 -222.59331,416.45461 -222.60151,416.45115 C -222.85921,416.34104 -223.10721,416.26049 -223.38271,416.17935 C -226.71231,415.19901 -233.21691,413.78005 -241.35151,412.30636 C -241.36101,412.30464 -241.37331,412.30806 -241.38271,412.30636 C -246.26351,411.42247 -251.73411,410.52126 -257.47651,409.65642 C -257.48631,409.65493 -257.49791,409.65791 -257.50771,409.65642 C -263.25161,408.79167 -269.27071,407.95398 -275.22651,407.25561 C -275.23671,407.25441 -275.24751,407.2568 -275.25771,407.25561 C -279.22441,406.79075 -283.15611,406.3918 -286.97651,406.0552 C -286.98701,406.05429 -286.99731,406.05613 -287.00771,406.0552 C -290.30621,405.7649 -293.48311,405.54011 -296.53901,405.37573 C -296.88661,404.17252 -297.22081,402.97049 -297.60151,401.77453 C -303.02941,384.72084 -325.02031,370.96115 -350.44531,362.5916 C -433.07511,335.39111 -526.82551,317.55602 -631.94531,317.63316 C -669.96741,317.66106 -709.50021,320.03378 -750.50771,325.15265 C -886.44591,342.12144 -922.90911,362.54858 -955.91401,389.58932 C -957.06971,390.53621 -958.20261,391.69193 -959.28901,393.00933 C -1037.7253,368.41321 -1118.5633,370.64345 -1200.9453,394.95715 C -1201.167,394.64594 -1201.4069,394.3482 -1201.6327,394.05119 C -1201.6487,394.03031 -1201.648,394.00406 -1201.664,393.98325 C -1202.9825,392.25712 -1204.3597,390.76035 -1205.789,389.58932 C -1238.7939,362.54858 -1275.2571,342.12144 -1411.1953,325.15265 C -1452.203,320.03378 -1491.7356,317.66106 -1529.7577,317.63316 z M -1068.7577,394.45888 C -1028.5403,394.59186 -990.16921,398.98147 -973.07031,407.82184 C -971.12631,408.82687 -969.56611,409.65133 -968.19531,410.38118 C -968.57901,411.57149 -968.93171,412.77915 -969.25771,414.00504 C -969.30641,414.18697 -969.36671,414.36603 -969.41401,414.54862 C -969.42201,414.57929 -969.43731,414.60851 -969.44531,414.63922 C -970.81831,419.96629 -971.63251,425.53743 -971.66401,430.90126 C -971.66471,431.01534 -971.66401,431.12714 -971.66401,431.24099 C -1008.1382,433.302 -1044.5538,435.47342 -1080.8515,437.67334 C -1117.1566,435.47295 -1153.5885,433.30243 -1190.0703,431.24099 C -1190.0697,429.02248 -1190.2252,426.77876 -1190.4765,424.51422 C -1190.4807,424.47692 -1190.4722,424.43827 -1190.4765,424.40098 C -1190.4799,424.37113 -1190.4731,424.34022 -1190.4765,424.31038 C -1190.5003,424.09922 -1190.5444,423.88743 -1190.5703,423.6762 C -1190.8149,421.69933 -1191.1255,419.721 -1191.539,417.76479 C -1191.5886,417.52878 -1191.6434,417.298 -1191.6953,417.06267 C -1191.7138,416.97901 -1191.7389,416.8971 -1191.7577,416.81353 C -1191.8769,416.28182 -1192.0021,415.75559 -1192.1327,415.22809 C -1189.9894,413.44744 -1187.2405,411.43439 -1184.4453,410.1094 C -1162.3083,399.61627 -1114.3375,394.30815 -1068.7577,394.45888 z"
       id="path4524" />
    <path
       transform="translate(0,-47.46175)"
       d="M -1281.4673,394.67795 A 284.77051,142.38525 0 1 1 -1851.0083,394.67795 A 284.77051,142.38525 0 1 1 -1281.4673,394.67795 z"
       sodipodi:ry="142.38525"
       sodipodi:rx="284.77051"
       sodipodi:cy="394.67795"
       sodipodi:cx="-1566.2378"
       id="path4532"
       style="opacity:0.82397;fill:url(#linearGradient6153);fill-opacity:1;stroke:none;stroke-width:4.0999999;stroke-linecap:butt;stroke-linejoin:round;stroke-miterlimit:4;stroke-dasharray:none;stroke-dashoffset:1.08779998;stroke-opacity:1"
       sodipodi:type="arc" />
    <path
       sodipodi:type="arc"
       style="opacity:0.82397;fill:url(#linearGradient6155);fill-opacity:1;stroke:none;stroke-width:4.0999999;stroke-linecap:butt;stroke-linejoin:round;stroke-miterlimit:4;stroke-dasharray:none;stroke-dashoffset:1.08779998;stroke-opacity:1"
       id="path4542"
       sodipodi:cx="-1566.2378"
       sodipodi:cy="394.67795"
       sodipodi:rx="284.77051"
       sodipodi:ry="142.38525"
       d="M -1281.4673,394.67795 A 284.77051,142.38525 0 1 1 -1851.0083,394.67795 A 284.77051,142.38525 0 1 1 -1281.4673,394.67795 z"
       transform="translate(908.5535,-47.46175)" />
    <path
       id="path4546"
       d="M -1313.5457,229.84375 C -1288.2939,255.64725 -1273.7957,285.68292 -1273.7957,317.71875 C -1273.7956,413.9373 -1404.3913,492 -1565.2957,492 C -1715.2654,491.99999 -1838.9029,424.18746 -1855.0145,337.0625 C -1855.5272,341.40773 -1855.7958,345.79593 -1855.7957,350.21875 C -1855.7957,452.05133 -1717.5886,534.6875 -1547.2957,534.6875 C -1377.003,534.6875 -1238.7957,452.05133 -1238.7957,350.21875 C -1238.7957,304.2403 -1266.9632,262.1584 -1313.5457,229.84375 z"
       style="opacity:0.82397;fill:url(#linearGradient6157);fill-opacity:1;stroke:none;stroke-width:4.0999999;stroke-linecap:butt;stroke-linejoin:round;stroke-miterlimit:4;stroke-dasharray:none;stroke-dashoffset:1.08779998;stroke-opacity:1" />
  </g>
</svg>
