<?xml version="1.0" encoding="UTF-8" standalone="no"?>
<!-- Generator: Adobe Illustrator 12.0.0, SVG Export Plug-In . SVG Version: 6.00 Build 51448)  -->
<svg
   xmlns:ns="http://ns.adobe.com/SaveForWeb/1.0/"
   xmlns:dc="http://purl.org/dc/elements/1.1/"
   xmlns:cc="http://creativecommons.org/ns#"
   xmlns:rdf="http://www.w3.org/1999/02/22-rdf-syntax-ns#"
   xmlns:svg="http://www.w3.org/2000/svg"
   xmlns="http://www.w3.org/2000/svg"
   xmlns:xlink="http://www.w3.org/1999/xlink"
   xmlns:sodipodi="http://sodipodi.sourceforge.net/DTD/sodipodi-0.dtd"
   xmlns:inkscape="http://www.inkscape.org/namespaces/inkscape"
   version="1.1"
   id="svg1877"
   sodipodi:docbase="/home/pinheiro/artwork/Oxygen/Pinheiro"
   inkscape:version="0.46"
   inkscape:output_extension="org.inkscape.output.svgz.inkscape"
   sodipodi:docname="kthesaurus.svgz"
   sodipodi:version="0.32"
   width="128"
   height="128"
   viewBox="0 0 128 128"
   overflow="visible"
   enable-background="new 0 0 128 128"
   xml:space="preserve"><defs
   id="defs282"><linearGradient
     inkscape:collect="always"
     id="linearGradient3435"><stop
       style="stop-color:#000000;stop-opacity:1;"
       offset="0"
       id="stop3437" /><stop
       style="stop-color:#000000;stop-opacity:0;"
       offset="1"
       id="stop3439" /></linearGradient><linearGradient
     inkscape:collect="always"
     id="linearGradient3388"><stop
       style="stop-color:#f7f7f7;stop-opacity:1;"
       offset="0"
       id="stop3390" /><stop
       style="stop-color:#f7f7f7;stop-opacity:0;"
       offset="1"
       id="stop3392" /></linearGradient><linearGradient
     inkscape:collect="always"
     id="linearGradient3372"><stop
       style="stop-color:#1c4f77;stop-opacity:1;"
       offset="0"
       id="stop3374" /><stop
       style="stop-color:#4a98d5;stop-opacity:1"
       offset="1"
       id="stop3376" /></linearGradient><inkscape:perspective
     sodipodi:type="inkscape:persp3d"
     inkscape:vp_x="0 : 64 : 1"
     inkscape:vp_y="0 : 1000 : 0"
     inkscape:vp_z="128 : 64 : 1"
     inkscape:persp3d-origin="64 : 42.666667 : 1"
     id="perspective225" /><linearGradient
     id="linearGradient4202"><stop
       style="stop-color:#ffffff;stop-opacity:1;"
       offset="0"
       id="stop4204" /><stop
       style="stop-color:#ffffff;stop-opacity:0.55696201;"
       offset="1"
       id="stop4206" /></linearGradient><linearGradient
     id="linearGradient4194"><stop
       style="stop-color:#8c0000;stop-opacity:1;"
       offset="0"
       id="stop4196" /><stop
       style="stop-color:#8c0000;stop-opacity:0.74683547;"
       offset="1"
       id="stop4198" /></linearGradient><linearGradient
     id="linearGradient3717"><stop
       id="stop3719"
       offset="0"
       style="stop-color:#696969;stop-opacity:0.15189873;" /><stop
       style="stop-color:#919191;stop-opacity:1;"
       offset="0.6046198"
       id="stop3721" /><stop
       id="stop3723"
       offset="1"
       style="stop-color:#bdbdbd;stop-opacity:0.39240506;" /></linearGradient><linearGradient
     id="linearGradient3709"><stop
       id="stop3711"
       offset="0"
       style="stop-color:#b3b3b3;stop-opacity:0.14901961;" /><stop
       style="stop-color:#919191;stop-opacity:1;"
       offset="0.66884249"
       id="stop3713" /><stop
       id="stop3715"
       offset="1"
       style="stop-color:#bdbdbd;stop-opacity:0.39240506;" /></linearGradient><linearGradient
     id="linearGradient3869"><stop
       id="stop3871"
       offset="0"
       style="stop-color:#696969;stop-opacity:0.15189873;" /><stop
       style="stop-color:#919191;stop-opacity:1;"
       offset="0.67074138"
       id="stop3873" /><stop
       id="stop3875"
       offset="1"
       style="stop-color:#bdbdbd;stop-opacity:0.39240506;" /></linearGradient><linearGradient
     id="linearGradient3851"><stop
       style="stop-color:#696969;stop-opacity:0.15189873;"
       offset="0"
       id="stop3853" /><stop
       id="stop3859"
       offset="0.5"
       style="stop-color:#919191;stop-opacity:1;" /><stop
       style="stop-color:#bdbdbd;stop-opacity:0.39240506;"
       offset="1"
       id="stop3855" /></linearGradient><linearGradient
     id="linearGradient3081"><stop
       style="stop-color:#003961;stop-opacity:1;"
       offset="0"
       id="stop3083" /><stop
       style="stop-color:#002954;stop-opacity:1;"
       offset="1"
       id="stop3085" /></linearGradient><filter
     inkscape:collect="always"
     id="filter3031"><feGaussianBlur
       inkscape:collect="always"
       stdDeviation="0.26804993"
       id="feGaussianBlur3033" /></filter><filter
     inkscape:collect="always"
     id="filter3035"><feGaussianBlur
       inkscape:collect="always"
       stdDeviation="0.26774803"
       id="feGaussianBlur3037" /></filter><filter
     inkscape:collect="always"
     id="filter3051"><feGaussianBlur
       inkscape:collect="always"
       stdDeviation="0.12874266"
       id="feGaussianBlur3053" /></filter><clipPath
     clipPathUnits="userSpaceOnUse"
     id="clipPath3069"><path
       id="path3071"
       d="M 115.446,90.505 L 107.6565,47.931 C 107.6565,47.931 12.50575,38.7485 15.292875,67.0105 C 18.08,95.2725 20.838,102.044 24.712,101.703 L 111.705,93.216 L 113.066,93.083 C 115.187,92.69 115.683,92.251 115.446,90.505 z"
       style="fill:#e20071"
       sodipodi:nodetypes="ccscccc" /></clipPath><filter
     inkscape:collect="always"
     id="filter3077"><feGaussianBlur
       inkscape:collect="always"
       stdDeviation="0.39699429"
       id="feGaussianBlur3079" /></filter><linearGradient
     inkscape:collect="always"
     xlink:href="#linearGradient3081"
     id="linearGradient3087"
     x1="20.673505"
     y1="96.192035"
     x2="115.49258"
     y2="96.192035"
     gradientUnits="userSpaceOnUse" /><filter
     inkscape:collect="always"
     id="filter4128"><feGaussianBlur
       inkscape:collect="always"
       stdDeviation="0.1344975"
       id="feGaussianBlur4130" /></filter><filter
     inkscape:collect="always"
     x="-0.0627307"
     width="1.1254614"
     y="-0.20440804"
     height="1.4088161"
     id="filter4132"><feGaussianBlur
       inkscape:collect="always"
       stdDeviation="2.3882525"
       id="feGaussianBlur4134" /></filter><filter
     inkscape:collect="always"
     id="filter4188"><feGaussianBlur
       inkscape:collect="always"
       stdDeviation="2.2899436"
       id="feGaussianBlur4190" /></filter><linearGradient
     inkscape:collect="always"
     xlink:href="#linearGradient3081"
     id="linearGradient4192"
     gradientUnits="userSpaceOnUse"
     x1="20.673505"
     y1="96.192035"
     x2="115.49258"
     y2="96.192035" /><linearGradient
     inkscape:collect="always"
     xlink:href="#linearGradient3081"
     id="linearGradient4200"
     x1="20"
     y1="24"
     x2="99.5"
     y2="24"
     gradientUnits="userSpaceOnUse" /><linearGradient
     inkscape:collect="always"
     xlink:href="#linearGradient4202"
     id="linearGradient4208"
     x1="20"
     y1="25"
     x2="99.5"
     y2="25"
     gradientUnits="userSpaceOnUse" /><linearGradient
     inkscape:collect="always"
     xlink:href="#linearGradient3372"
     id="linearGradient3378"
     x1="87.614059"
     y1="117.11949"
     x2="109.12582"
     y2="98.609261"
     gradientUnits="userSpaceOnUse" /><linearGradient
     inkscape:collect="always"
     xlink:href="#linearGradient3388"
     id="linearGradient3394"
     x1="54.771618"
     y1="8.2349005"
     x2="53.746822"
     y2="73.444977"
     gradientUnits="userSpaceOnUse"
     gradientTransform="matrix(0.935215,0,3.9964079e-8,0.935215,1.6567489,1.4614667)" /><clipPath
     clipPathUnits="userSpaceOnUse"
     id="clipPath3431"><path
       style="fill:none;fill-rule:evenodd;stroke:#000000;stroke-width:1px;stroke-linecap:butt;stroke-linejoin:miter;stroke-opacity:1"
       d="M 24.447476,120.66576 L 110.56839,111.03052 C 112.32753,105.60645 111.85875,98.324423 112.10914,92.027285 L 24.75307,100.67122 C 21.724379,101.26066 20.106276,112.10464 20.95498,119.44338 L 24.447476,120.66576 z"
       id="path3433"
       sodipodi:nodetypes="cccccc" /></clipPath><radialGradient
     inkscape:collect="always"
     xlink:href="#linearGradient3435"
     id="radialGradient3441"
     cx="66.479805"
     cy="105.71228"
     fx="66.479805"
     fy="105.71228"
     r="45.629332"
     gradientTransform="matrix(1.2985083,-0.2449299,5.327523e-2,0.2824413,-25.476622,92.137656)"
     gradientUnits="userSpaceOnUse" /><linearGradient
     inkscape:collect="always"
     xlink:href="#linearGradient3388"
     id="linearGradient3483"
     x1="115.14789"
     y1="95.234787"
     x2="24.098225"
     y2="135.04926"
     gradientUnits="userSpaceOnUse" /><linearGradient
     inkscape:collect="always"
     xlink:href="#linearGradient3388"
     id="linearGradient3485"
     gradientUnits="userSpaceOnUse"
     x1="115.14789"
     y1="95.234787"
     x2="24.098225"
     y2="135.04926" /><linearGradient
     inkscape:collect="always"
     xlink:href="#linearGradient3388"
     id="linearGradient3487"
     gradientUnits="userSpaceOnUse"
     x1="115.14789"
     y1="95.234787"
     x2="24.098225"
     y2="135.04926" /><linearGradient
     inkscape:collect="always"
     xlink:href="#linearGradient3388"
     id="linearGradient3489"
     gradientUnits="userSpaceOnUse"
     x1="115.14789"
     y1="95.234787"
     x2="24.098225"
     y2="135.04926" /><linearGradient
     inkscape:collect="always"
     xlink:href="#linearGradient3388"
     id="linearGradient3491"
     gradientUnits="userSpaceOnUse"
     x1="115.14789"
     y1="95.234787"
     x2="24.098225"
     y2="135.04926" /><linearGradient
     inkscape:collect="always"
     xlink:href="#linearGradient3388"
     id="linearGradient3493"
     gradientUnits="userSpaceOnUse"
     x1="115.14789"
     y1="95.234787"
     x2="24.098225"
     y2="135.04926" /><linearGradient
     inkscape:collect="always"
     xlink:href="#linearGradient3388"
     id="linearGradient3495"
     gradientUnits="userSpaceOnUse"
     x1="115.14789"
     y1="95.234787"
     x2="24.098225"
     y2="135.04926" /><linearGradient
     inkscape:collect="always"
     xlink:href="#linearGradient3388"
     id="linearGradient3497"
     gradientUnits="userSpaceOnUse"
     x1="115.14789"
     y1="95.234787"
     x2="24.098225"
     y2="135.04926" /><linearGradient
     inkscape:collect="always"
     xlink:href="#linearGradient3388"
     id="linearGradient3499"
     gradientUnits="userSpaceOnUse"
     x1="115.14789"
     y1="95.234787"
     x2="24.098225"
     y2="135.04926" /><linearGradient
     inkscape:collect="always"
     xlink:href="#linearGradient3388"
     id="linearGradient3501"
     gradientUnits="userSpaceOnUse"
     x1="115.14789"
     y1="95.234787"
     x2="24.098225"
     y2="135.04926" /></defs><sodipodi:namedview
   inkscape:window-height="725"
   inkscape:window-width="1454"
   inkscape:pageshadow="2"
   inkscape:pageopacity="0.0"
   guidetolerance="10.0"
   gridtolerance="10.0"
   objecttolerance="10.0"
   borderopacity="1.0"
   bordercolor="#666666"
   pagecolor="#ffffff"
   id="base"
   inkscape:zoom="1.4316406"
   inkscape:cx="-82.171355"
   inkscape:cy="46.156499"
   inkscape:window-x="346"
   inkscape:window-y="396"
   inkscape:current-layer="svg1877"
   showgrid="false" />
<metadata
   id="metadata1882">
	<rdf:RDF>
		<cc:Work
   rdf:about="">
			<dc:format>image/svg+xml</dc:format>
			<dc:type
   rdf:resource="http://purl.org/dc/dcmitype/StillImage" />
		</cc:Work>
	</rdf:RDF>
	<ns:sfw>
		<ns:slices />
		<ns:sliceSourceBounds
   x="8"
   y="3"
   height="121"
   width="113.736"
   bottomLeftOrigin="true" />
	</ns:sfw>
</metadata>
<filter
   id="AI_Sfocatura_3">
	<feGaussianBlur
   stdDeviation="3"
   id="feGaussianBlur5" />
</filter>
<linearGradient
   id="path2797_1_"
   gradientUnits="userSpaceOnUse"
   x1="66.3574"
   y1="118.2754"
   x2="66.3574"
   y2="99.0564"
   gradientTransform="translate(0,-1)">
	<stop
   offset="0"
   style="stop-color:#DEDEDE"
   id="stop8" />
	<stop
   offset="1"
   style="stop-color:#FFFFFF"
   id="stop10" />
</linearGradient>
<path
   style="opacity:0.6;fill:#000000;fill-opacity:1;filter:url(#filter4188)"
   d="M 97.375,3.5 C 97.147705,3.508416 96.889875,3.538125 96.625,3.5625 L 15.0625,9.84375 L 13.8125,10.25 L 12.6875,10.21875 L 10.65625,10.40625 C 9.1452499,10.54625 8.067,13.16275 7.75,14.84375 C 7.4329999,16.52475 7.5,26.15625 7.5,26.15625 L 18.4375,119.125 C 18.913501,121.244 19.83525,124.80275 22.03125,124.46875 L 22.8125,124.375 L 22.8125,124.40625 L 109.59375,115.5625 C 111.71375,115.3685 113.1765,113.77625 112.9375,112.03125 L 112.09375,93.1875 L 113.0625,93.09375 C 115.1835,92.70075 115.6745,92.246 115.4375,90.5 L 99.875,5.34375 C 99.666753,3.8160001 98.966064,3.4410879 97.375,3.5 z"
   id="path4186"
   transform="matrix(0.9870646,0,0,0.9451576,-0.9030608,6.8273745)" /><path
   id="path2797"
   sodipodi:nodetypes="ccccc"
   d="M 111.992,92.187 C 111.992,92.187 112.508,107.358 110.281,111.728 L 22.479,121.437 C 19.083,121.955 20.838,101.044 24.712,100.703 L 111.992,92.187 z"
   style="fill:url(#path2797_1_)" />
<g
   id="g13"
   transform="translate(-20,-1)">
	<defs
   id="defs15"><path
     id="path2797_2_"
     sodipodi:nodetypes="ccccc"
     d="M 111.992,92.226 C 111.992,92.226 112.508,107.397 110.281,111.767 L 22.479,121.476 C 19.083,121.994 20.838,101.083 24.712,100.743 L 111.992,92.226 z" /></defs>
	<clipPath
   id="path2797_3_">
		<use
   xlink:href="#path2797_2_"
   id="use19"
   x="0"
   y="0"
   width="128"
   height="128" />
	</clipPath>
	<g
   clip-path="url(#path2797_3_)"
   id="g21"
   style="filter:url(#filter4132)"
   transform="translate(20,0)">
		<linearGradient
   id="XMLID_1_"
   gradientUnits="userSpaceOnUse"
   x1="20.4004"
   y1="105.2852"
   x2="112.043"
   y2="105.2852">
			<stop
   offset="0.3195"
   style="stop-color:#2E3436"
   id="stop24" />
			<stop
   offset="1"
   style="stop-color:#888A85"
   id="stop26" />
		</linearGradient>
		<path
   d="M 25.677,102.664 L 112.043,94.237 C 112.032,92.443 111.992,90.303 111.992,90.303 L 23.748,98.82 C 20.168,99.134 19.364,117.966 21.797,120.267 C 21.089,114.534 22.796,102.917 25.677,102.664 z"
   id="path28"
   style="fill:url(#XMLID_1_)" />
	</g>
</g>
<radialGradient
   id="XMLID_3_"
   cx="23.4214"
   cy="-24.1943"
   r="152.103"
   gradientTransform="matrix(1,0,0,0.9966,0,-0.7838)"
   gradientUnits="userSpaceOnUse">
	<stop
   offset="0.0533"
   style="stop-color:#90b5e2;stop-opacity:1;"
   id="stop31" />
	<stop
   offset="0.6627"
   style="stop-color:#1b67a7;stop-opacity:1;"
   id="stop33" />
	<stop
   offset="0.90530002"
   style="stop-color:#21648a;stop-opacity:1;"
   id="stop35" />
</radialGradient>
<path
   d="M 115.446,89.505 L 99.867,4.357 C 99.629,2.611 98.75,2.361 96.631,2.556 L 15.069,8.845 L 13.819,9.255 L 12.674,9.226 L 10.663,9.399 C 9.152,9.539 21.056,122.517 21.056,122.517 L 22.479,121.437 C 19.083,121.955 20.838,101.044 24.712,100.703 L 111.705,92.216 L 113.066,92.083 C 115.187,91.69 115.683,91.251 115.446,89.505 z"
   id="path37"
   style="fill:url(#XMLID_3_)" />
<linearGradient
   id="XMLID_4_"
   gradientUnits="userSpaceOnUse"
   x1="8.9722"
   y1="68.4072"
   x2="19.3589"
   y2="67.0882"
   gradientTransform="translate(0,-1)">
	<stop
   offset="0.3136"
   style="stop-color:#21698a;stop-opacity:1;"
   id="stop40" />
	<stop
   offset="0.53670001"
   style="stop-color:#23618c;stop-opacity:1;"
   id="stop42" />
	<stop
   offset="0.63990003"
   style="stop-color:#2a6e94;stop-opacity:1;"
   id="stop44" />
	<stop
   offset="0.71850002"
   style="stop-color:#367ea0;stop-opacity:1;"
   id="stop46" />
	<stop
   offset="0.7845"
   style="stop-color:#4690b3;stop-opacity:1;"
   id="stop48" />
	<stop
   offset="0.84219998"
   style="stop-color:#5ca7ca;stop-opacity:1;"
   id="stop50" />
	<stop
   offset="0.86390001"
   style="stop-color:#66b2d5;stop-opacity:1;"
   id="stop52" />
	<stop
   offset="0.91720003"
   style="stop-color:#90c8e2;stop-opacity:1;"
   id="stop54" />
	<stop
   offset="1"
   style="stop-color:#12597a;stop-opacity:1;"
   id="stop56" />
</linearGradient>
<path
   d="M 22.479,121.437 C 19.083,121.955 20.838,101.044 24.712,100.703 C 24.712,100.703 12.676,9.23 12.674,9.227 L 10.663,9.4 C 9.152,9.54 8.059,12.171 7.742,13.852 C 7.425,15.533 7.511,25.165 7.511,25.165 L 18.446,118.115 C 18.922,120.234 19.825,123.813 22.021,123.479 L 25.563,123.093 L 26.592,120.982 L 22.479,121.437 z"
   id="path58"
   style="fill:url(#XMLID_4_)" />
<linearGradient
   id="XMLID_5_"
   gradientUnits="userSpaceOnUse"
   x1="17.644"
   y1="56.1646"
   x2="24.7346"
   y2="55.168"
   gradientTransform="translate(0,-1)">
	<stop
   offset="0"
   style="stop-color:#0f629c;stop-opacity:1;"
   id="stop61" />
	<stop
   offset="0.31600001"
   style="stop-color:#ffffff;stop-opacity:1;"
   id="stop63" />
	<stop
   offset="0.60290003"
   style="stop-color:#0384bf;stop-opacity:1;"
   id="stop65" />
</linearGradient>
<path
   d="M 24.712,100.702 L 28.244,100.359 L 15.431,8.817 L 15.07,8.845 L 13.82,9.255 L 12.675,9.226 L 11.839,9.298 L 24.367,100.791 C 24.479,100.744 24.595,100.713 24.712,100.702 z"
   id="path67"
   style="opacity:0.5;fill:url(#XMLID_5_)" />
<g
   id="g69"
   transform="translate(0,-1)">
	<g
   id="g71">
		<linearGradient
   id="XMLID_6_"
   gradientUnits="userSpaceOnUse"
   x1="70.734398"
   y1="116.3115"
   x2="111.5255"
   y2="90.542198"
   xlink:href="#XMLID_3_">
			<stop
   offset="1"
   style="stop-color:#215a8a;stop-opacity:1;"
   id="stop74" /><stop
   id="stop3368"
   style="stop-color:#85bce2;stop-opacity:1;"
   offset="1" />
			
			
			
			
			
			
		</linearGradient>
		<path
   d="M 112.942,112.02 L 112.096,93.082 L 111.992,93.186 C 111.992,93.186 112.508,108.357 110.281,112.727 L 22.479,122.436 L 22.797,124.393 L 109.6,115.556 C 111.72,115.362 113.181,113.765 112.942,112.02 z"
   id="path88"
   style="fill:url(#linearGradient3378);fill-opacity:1" />
	</g>
</g>
<g
   id="g90"
   clip-path="url(#clipPath3069)"
   style="fill:url(#linearGradient3087);fill-opacity:1;filter:url(#filter3077)"
   transform="translate(0,-1)">
	<linearGradient
   id="XMLID_7_"
   gradientUnits="userSpaceOnUse"
   x1="115.4932"
   y1="103.2646"
   x2="20.6738"
   y2="103.2647">
		<stop
   offset="0"
   style="stop-color:#590000;fill-opacity:1;fill:url(#linearGradient3087)"
   id="stop93" />
		<stop
   offset="0.9053"
   style="stop-color:#8A2121;fill-opacity:1;fill:url(#linearGradient3087)"
   id="stop95" />
	</linearGradient>
	<path
   d="M 113.066,92.121 L 111.705,92.254 L 24.712,100.742 C 22.206,100.962 20.588,109.793 20.677,115.86 C 20.758,109.864 22.335,101.913 24.712,101.702 L 111.705,93.215 L 113.066,93.082 C 115.113,92.704 115.639,92.27 115.46,90.669 C 115.305,91.514 114.629,91.831 113.066,92.121 z"
   id="path97"
   style="fill:url(#linearGradient4192);fill-opacity:1" />
</g>
<linearGradient
   id="XMLID_8_"
   gradientUnits="userSpaceOnUse"
   x1="22.209499"
   y1="122.4463"
   x2="22.209499"
   y2="101.7021"
   gradientTransform="translate(0,-1)"
   xlink:href="#XMLID_5_">
	<stop
   offset="0"
   style="stop-color:#9C0F0F"
   id="stop100" />
	<stop
   offset="1"
   style="stop-color:#FF8080"
   id="stop102" />
</linearGradient>

<g
   id="g106"
   transform="translate(0,-1)">
	<g
   id="g108"
   style="filter:url(#filter3031)">
		<path
   d="M 46.652,59.42 C 46.196,58.452 45.996,58.338 44.651,58.5 L 37.912,59.311 C 36.803,59.443 36.555,59.612 36.374,60.6 L 35.465,65.557 C 35.075,67.689 34.927,68.957 34.995,69.463 C 35.07,70.012 35.329,70.261 36.409,70.233 L 37.902,70.203 C 38.247,70.398 38.346,71.135 37.968,71.362 C 36.796,71.402 35.412,71.554 33.315,71.743 C 31.85,71.905 30.266,72.176 29.079,72.359 C 28.79,72.204 28.607,71.483 28.844,71.221 L 30.283,70.922 C 31.332,70.712 32.241,70.098 32.645,68.383 C 33.164,66.193 34.011,63.093 35.187,57.801 L 38.036,45.133 C 38.432,43.452 38.579,42.573 38.348,41.88 C 39.361,41.43 39.999,40.532 40.404,39.891 C 40.668,39.856 40.991,39.905 41.122,40.202 C 41.971,42.081 42.969,44.037 43.914,45.918 L 52.707,63.416 C 54.613,67.236 55.31,67.867 57.315,67.876 L 58.577,67.876 C 58.932,68.072 58.952,68.828 58.752,69.039 C 56.853,69.158 55.241,69.288 53.183,69.519 C 50.992,69.766 49.278,70.051 47.968,70.245 C 47.579,70.102 47.428,69.366 47.711,69.099 L 49.008,68.814 C 49.948,68.613 50.544,68.265 50.478,67.8 C 50.405,67.294 50.057,66.49 49.536,65.421 L 46.652,59.42 z M 37.25,56.449 C 37.039,57.529 37.089,57.57 38.33,57.418 L 43.813,56.754 C 45.109,56.595 45.174,56.402 44.596,55.228 L 41.158,48.184 C 40.654,47.155 40.086,46 39.748,45.5 L 39.66,45.51 C 39.557,45.75 39.264,46.879 38.963,48.281 L 37.25,56.449 z"
   id="path110"
   style="fill:#5c98de;fill-opacity:1" />
		<path
   d="M 57.03,42.799 C 56.629,40.146 56.542,39.883 55.069,39.257 L 54.579,39.047 C 54.333,38.943 54.239,38.317 54.445,38.152 C 55.418,37.61 57.494,36.74 59.073,35.615 C 59.254,35.593 59.448,35.657 59.565,35.824 C 59.716,37.403 59.937,39.435 60.24,41.413 L 61.555,49.982 C 61.675,50.76 61.888,50.919 62.16,50.886 C 63.246,50.053 64.954,49.002 67.206,48.719 C 72.478,48.059 76.709,51.576 77.545,56.679 C 78.561,62.894 74.744,67.776 68.467,68.476 C 66.741,68.667 65.389,68.485 64.418,68.309 C 63.394,68.091 62.751,67.877 62.379,67.918 C 62.008,67.96 61.697,68.376 61.514,68.727 C 61.474,68.779 61.429,68.784 61.337,68.794 C 61.153,68.815 60.954,68.741 60.833,68.567 C 60.78,67.91 60.691,67.018 60.329,64.602 L 57.03,42.799 z M 63.394,61.939 C 63.642,63.562 64.234,64.96 65.172,65.849 C 66.112,66.742 67.454,67.161 68.948,66.995 C 73.346,66.499 74.478,62.553 73.836,58.541 C 73.065,53.768 70.016,50.381 65.447,50.948 C 64.066,51.117 63.015,51.574 62.435,52.063 C 62.027,52.441 62.013,52.954 62.288,54.745 L 63.394,61.939 z"
   id="path112"
   style="fill:#5c98de;fill-opacity:1" />
		<path
   d="M 95.184,46.033 C 95.626,46.31 96.091,47.015 96.235,47.807 C 96.383,48.648 96.059,49.594 95.485,49.664 C 95.245,49.694 94.988,49.63 94.756,49.42 C 93.479,48.289 91.506,47.296 89.552,47.539 C 86.236,47.953 83.453,50.896 84.283,55.832 C 84.898,59.484 88.217,63.573 93.356,62.991 C 96.154,62.674 97.386,61.274 98.216,59.532 C 98.586,59.393 99.083,59.675 99.207,60.096 C 98.183,63.803 94.78,65.544 91.98,65.856 C 89.433,66.141 86.948,65.596 85.004,64.175 C 83.076,62.761 81.597,60.584 81.094,57.542 C 80.261,52.515 82.946,46.752 90.8,45.772 C 91.894,45.635 93.795,45.636 95.184,46.033 z"
   id="path114"
   style="fill:#5c98de;fill-opacity:1" />
	</g>
	<g
   id="g116"
   style="filter:url(#filter3035)">
		<path
   d="M 46.741,57.343 C 46.285,56.379 46.085,56.266 44.741,56.429 L 38.01,57.248 C 36.902,57.381 36.654,57.551 36.473,58.536 L 35.566,63.483 C 35.174,65.608 35.028,66.877 35.096,67.379 C 35.169,67.928 35.429,68.176 36.509,68.145 L 37.998,68.115 C 38.343,68.311 38.443,69.042 38.066,69.271 C 36.894,69.313 35.512,69.468 33.417,69.658 C 31.954,69.824 30.371,70.097 29.186,70.277 C 28.897,70.125 28.715,69.406 28.951,69.148 L 30.389,68.845 C 31.438,68.633 32.345,68.018 32.748,66.307 C 33.267,64.123 34.111,61.027 35.287,55.745 L 38.132,43.102 C 38.527,41.422 38.676,40.545 38.444,39.854 C 39.455,39.403 40.093,38.506 40.496,37.867 C 40.761,37.831 41.081,37.878 41.215,38.175 C 42.064,40.048 43.059,41.999 44.005,43.874 L 52.79,61.318 C 54.694,65.128 55.389,65.754 57.392,65.761 L 58.653,65.756 C 59.008,65.954 59.028,66.707 58.827,66.919 C 56.931,67.039 55.319,67.176 53.265,67.407 C 51.076,67.655 49.363,67.942 48.055,68.138 C 47.666,67.996 47.517,67.263 47.799,66.994 L 49.095,66.706 C 50.033,66.506 50.629,66.155 50.562,65.695 C 50.49,65.186 50.143,64.383 49.622,63.322 L 46.741,57.343 z M 37.348,54.394 C 37.137,55.471 37.185,55.512 38.427,55.359 L 43.904,54.687 C 45.199,54.527 45.266,54.334 44.687,53.164 L 41.253,46.141 C 40.749,45.118 40.181,43.965 39.843,43.465 L 39.754,43.476 C 39.653,43.715 39.36,44.843 39.06,46.243 L 37.348,54.394 z"
   id="path118"
   style="fill:#00428c;fill-opacity:1" />
		<path
   d="M 57.109,40.745 C 56.707,38.1 56.62,37.836 55.149,37.213 L 54.657,37.005 C 54.412,36.902 54.32,36.278 54.523,36.114 C 55.497,35.571 57.569,34.701 59.148,33.576 C 59.328,33.552 59.522,33.616 59.641,33.783 C 59.79,35.358 60.01,37.387 60.314,39.36 L 61.628,47.907 C 61.747,48.682 61.959,48.841 62.232,48.806 C 63.315,47.974 65.023,46.923 67.272,46.638 C 72.539,45.971 76.765,49.472 77.598,54.563 C 78.614,60.761 74.802,65.64 68.534,66.347 C 66.809,66.541 65.457,66.36 64.489,66.186 C 63.466,65.969 62.822,65.76 62.452,65.8 C 62.081,65.842 61.769,66.256 61.588,66.609 C 61.548,66.659 61.503,66.664 61.41,66.677 C 61.227,66.698 61.029,66.624 60.908,66.449 C 60.854,65.793 60.767,64.904 60.403,62.494 L 57.109,40.745 z M 63.464,59.831 C 63.712,61.449 64.303,62.844 65.242,63.73 C 66.18,64.617 67.521,65.034 69.012,64.864 C 73.407,64.364 74.539,60.425 73.895,56.425 C 73.126,51.661 70.079,48.288 65.513,48.861 C 64.137,49.031 63.086,49.49 62.507,49.979 C 62.1,50.357 62.085,50.869 62.36,52.654 L 63.464,59.831 z"
   id="path120"
   style="fill:#00428c;fill-opacity:1" />
		<path
   d="M 95.22,43.912 C 95.661,44.187 96.127,44.889 96.269,45.679 C 96.417,46.518 96.095,47.462 95.52,47.533 C 95.279,47.563 95.023,47.5 94.791,47.292 C 93.517,46.167 91.542,45.178 89.594,45.423 C 86.279,45.839 83.499,48.782 84.327,53.705 C 84.944,57.349 88.26,61.422 93.391,60.832 C 96.185,60.512 97.419,59.113 98.249,57.375 C 98.618,57.235 99.11,57.516 99.236,57.936 C 98.213,61.637 94.815,63.379 92.019,63.696 C 89.475,63.982 86.992,63.445 85.051,62.029 C 83.124,60.622 81.648,58.451 81.146,55.417 C 80.312,50.402 82.993,44.65 90.837,43.659 C 91.934,43.517 93.828,43.517 95.22,43.912 z"
   id="path122"
   style="fill:#00428c;fill-opacity:1" />
	</g>
	<g
   id="g124">
		
			<radialGradient
   id="XMLID_9_"
   cx="7.2905002"
   cy="30.882299"
   r="193.40891"
   gradientTransform="matrix(0.9963,4.81e-2,2.6e-3,0.8585,3.0582,-24.9269)"
   gradientUnits="userSpaceOnUse">
			<stop
   offset="0.4852"
   style="stop-color:#FFFFFF"
   id="stop127" />
			<stop
   offset="0.9053"
   style="stop-color:#D3D7CF"
   id="stop129" />
		</radialGradient>
		<path
   d="M 46.697,58.381 C 46.239,57.416 46.042,57.301 44.697,57.464 L 37.962,58.278 C 36.852,58.413 36.604,58.58 36.423,59.568 L 35.514,64.519 C 35.123,66.648 34.977,67.915 35.044,68.419 C 35.118,68.968 35.377,69.215 36.459,69.189 L 37.949,69.157 C 38.293,69.353 38.394,70.087 38.016,70.315 C 36.844,70.355 35.46,70.509 33.364,70.698 C 31.899,70.864 30.317,71.136 29.131,71.315 C 28.842,71.163 28.66,70.442 28.896,70.184 L 30.335,69.882 C 31.383,69.668 32.292,69.057 32.694,67.342 C 33.213,65.156 34.058,62.059 35.236,56.772 L 38.082,44.117 C 38.478,42.435 38.625,41.559 38.396,40.866 C 39.407,40.417 40.044,39.518 40.448,38.879 C 40.713,38.843 41.034,38.891 41.168,39.187 C 42.016,41.063 43.013,43.017 43.958,44.896 L 52.746,62.366 C 54.651,66.18 55.348,66.809 57.351,66.819 L 58.613,66.817 C 58.967,67.013 58.988,67.766 58.787,67.978 C 56.89,68.098 55.277,68.233 53.222,68.465 C 51.033,68.709 49.319,68.997 48.009,69.192 C 47.62,69.046 47.471,68.314 47.753,68.046 L 49.049,67.759 C 49.989,67.557 50.585,67.21 50.518,66.748 C 50.446,66.24 50.099,65.436 49.578,64.373 L 46.697,58.381 z M 37.299,55.421 C 37.087,56.5 37.136,56.54 38.377,56.388 L 43.857,55.72 C 45.153,55.561 45.218,55.368 44.64,54.197 L 41.205,47.163 C 40.7,46.135 40.132,44.984 39.795,44.482 L 39.705,44.493 C 39.603,44.734 39.311,45.862 39.01,47.263 L 37.299,55.421 z"
   id="path131"
   style="fill:url(#XMLID_9_)" />
		
			<radialGradient
   id="XMLID_10_"
   cx="9.0815001"
   cy="29.642099"
   r="185.8085"
   gradientTransform="matrix(0.9963,4.81e-2,2.6e-3,0.8585,3.0582,-24.9269)"
   gradientUnits="userSpaceOnUse">
			<stop
   offset="0.4852"
   style="stop-color:#FFFFFF"
   id="stop134" />
			<stop
   offset="0.9053"
   style="stop-color:#D3D7CF"
   id="stop136" />
		</radialGradient>
		<path
   d="M 57.069,41.772 C 56.668,39.123 56.582,38.859 55.109,38.234 L 54.618,38.026 C 54.373,37.921 54.279,37.297 54.484,37.13 C 55.458,36.589 57.532,35.719 59.11,34.595 C 59.291,34.571 59.485,34.635 59.602,34.801 C 59.753,36.379 59.974,38.409 60.277,40.385 L 61.592,48.944 C 61.712,49.718 61.924,49.877 62.196,49.843 C 63.282,49.011 64.988,47.96 67.241,47.676 C 72.51,47.013 76.736,50.524 77.571,55.619 C 78.589,61.825 74.776,66.706 68.501,67.408 C 66.776,67.603 65.424,67.422 64.454,67.245 C 63.43,67.027 62.787,66.817 62.417,66.859 C 62.046,66.897 61.734,67.312 61.552,67.666 C 61.512,67.718 61.467,67.722 61.374,67.733 C 61.191,67.755 60.993,67.681 60.872,67.506 C 60.818,66.849 60.731,65.958 60.366,63.545 L 57.069,41.772 z M 63.429,60.883 C 63.677,62.506 64.269,63.902 65.208,64.789 C 66.148,65.678 67.488,66.096 68.979,65.928 C 73.376,65.43 74.51,61.488 73.866,57.483 C 73.095,52.713 70.048,49.335 65.479,49.902 C 64.102,50.073 63.052,50.53 62.473,51.021 C 62.065,51.398 62.049,51.911 62.323,53.699 L 63.429,60.883 z"
   id="path138"
   style="fill:url(#XMLID_10_)" />
		
			<radialGradient
   id="XMLID_11_"
   cx="4.6436"
   cy="23.8081"
   r="192.9373"
   gradientTransform="matrix(0.9963,4.81e-2,2.6e-3,0.8585,3.0582,-24.9269)"
   gradientUnits="userSpaceOnUse">
			<stop
   offset="0.4852"
   style="stop-color:#FFFFFF"
   id="stop141" />
			<stop
   offset="0.9053"
   style="stop-color:#D3D7CF"
   id="stop143" />
		</radialGradient>
		<path
   d="M 95.2,44.971 C 95.641,45.248 96.108,45.952 96.252,46.742 C 96.399,47.582 96.076,48.527 95.502,48.598 C 95.261,48.628 95.005,48.564 94.771,48.356 C 93.498,47.226 91.522,46.236 89.574,46.48 C 86.257,46.895 83.475,49.839 84.307,54.768 C 84.922,58.415 88.236,62.496 93.372,61.911 C 96.17,61.593 97.403,60.193 98.232,58.454 C 98.601,58.313 99.097,58.594 99.221,59.016 C 98.196,62.719 94.798,64.462 91.999,64.776 C 89.453,65.061 86.972,64.521 85.029,63.102 C 83.099,61.691 81.623,59.517 81.12,56.479 C 80.284,51.458 82.97,45.702 90.816,44.714 C 91.914,44.577 93.812,44.574 95.2,44.971 z"
   id="path145"
   style="fill:url(#XMLID_11_)" />
	</g>
</g>

<line
   x1="99"
   y1="21.502001"
   x2="20.5"
   y2="28.497999"
   id="line261"
   style="opacity:0.50000000000000000;fill:none;stroke:url(#linearGradient4208);stroke-linecap:round" />
<line
   x1="99"
   y1="20.502001"
   x2="20.5"
   y2="27.497999"
   id="line263"
   style="opacity:0.50000000000000000;fill:none;stroke:url(#linearGradient4200);stroke-linecap:round" />








<path
   d="M 24.712,100.702 L 23.748,100.702 C 19.874,101.044 18.118,121.954 21.515,121.436 L 22.074,121.374 C 19.24,120.184 21.005,101.029 24.712,100.702 z"
   id="path104"
   style="fill:#00428c;filter:url(#filter3051);fill-opacity:1" /><g
   id="g4158"
   style="fill:#e20071"
   transform="translate(0,-1)">
	<g
   id="g4160"
   style="fill:#e20071">
		<linearGradient
   y2="90.542198"
   x2="111.5255"
   y1="116.3115"
   x1="70.734398"
   gradientUnits="userSpaceOnUse"
   id="linearGradient4162">
			<stop
   id="stop4164"
   style="stop-color:#8A2121"
   offset="0.3136" />
			<stop
   id="stop4166"
   style="stop-color:#8E2525"
   offset="0.4265" />
			<stop
   id="stop4168"
   style="stop-color:#9A3130"
   offset="0.5426" />
			<stop
   id="stop4170"
   style="stop-color:#AF4543"
   offset="0.6601" />
			<stop
   id="stop4172"
   style="stop-color:#CC605D"
   offset="0.7779" />
			<stop
   id="stop4174"
   style="stop-color:#D56966"
   offset="0.8107" />
			<stop
   id="stop4176"
   style="stop-color:#E29390"
   offset="1" />
		</linearGradient>
		
	</g>
</g><path
   transform="matrix(0.9913235,-8.0042221e-2,0.1420829,0.9972803,0,0)"
   style="font-size:10.2303648px;font-style:normal;font-weight:normal;text-align:justify;text-anchor:start;fill:url(#linearGradient3394);fill-opacity:1;stroke:none;stroke-width:1px;stroke-linecap:butt;stroke-linejoin:miter;stroke-opacity:1;font-family:Bitstream Vera Sans"
   d="M 26.629797,22.643536 L 26.629797,22.114034 L 27.578903,22.114034 L 27.578903,15.720056 L 26.629797,15.720056 L 26.629797,15.18556 L 29.542054,15.18556 L 29.542054,15.720056 L 28.592948,15.720056 L 28.592948,18.542398 L 31.804923,15.720056 L 30.995685,15.720056 L 30.995685,15.18556 L 33.473352,15.18556 L 33.473352,15.720056 L 32.634142,15.720056 L 29.432158,18.532408 L 33.013784,22.114034 L 33.862985,22.114034 L 33.862985,22.643536 L 32.129617,22.643536 L 28.592948,19.101871 L 28.592948,22.114034 L 29.542054,22.114034 L 29.542054,22.643536 L 26.629797,22.643536 M 34.822081,17.868033 L 34.012843,17.868033 L 34.012843,17.333537 L 34.822081,17.333537 L 34.822081,15.685089 L 35.746211,15.685089 L 35.746211,17.333537 L 37.474583,17.333537 L 37.474583,17.868033 L 35.746211,17.868033 L 35.746211,21.239858 C 35.746209,21.689435 35.789501,21.977497 35.876089,22.104044 C 35.962672,22.230592 36.122521,22.293865 36.355637,22.293865 C 36.595408,22.293865 36.770243,22.223931 36.880143,22.084063 C 36.990036,21.940865 37.048315,21.711081 37.054978,21.394712 L 37.749324,21.394712 C 37.722679,21.877591 37.591136,22.230592 37.354696,22.453714 C 37.118249,22.676838 36.758588,22.788399 36.275712,22.788399 C 35.746209,22.788399 35.371562,22.671842 35.151771,22.438729 C 34.931977,22.202285 34.82208,21.802662 34.822081,21.239858 L 34.822081,17.868033 M 38.253849,22.643536 L 38.253849,22.114034 L 39.083068,22.114034 L 39.083068,15.400357 L 38.203896,15.400357 L 38.203896,14.870856 L 40.002202,14.870856 L 40.002202,18.277648 C 40.17204,17.917991 40.391832,17.64658 40.661581,17.463414 C 40.934654,17.280259 41.251022,17.188679 41.610687,17.188673 C 42.196797,17.188679 42.628057,17.356853 42.904469,17.693198 C 43.18087,18.029552 43.319073,18.554058 43.319078,19.266716 L 43.319078,22.114034 L 44.138306,22.114034 L 44.138306,22.643536 L 41.600696,22.643536 L 41.600696,22.114034 L 42.394948,22.114034 L 42.394948,19.556443 C 42.394944,18.907058 42.315019,18.464143 42.155174,18.227695 C 41.998651,17.987925 41.717249,17.868038 41.310969,17.868033 C 40.884701,17.868038 40.560007,18.022892 40.336887,18.332596 C 40.113761,18.642308 40.0022,19.093549 40.002202,19.686321 L 40.002202,22.114034 L 40.801449,22.114034 L 40.801449,22.643536 L 38.253849,22.643536 M 49.972812,20.085944 L 46.011542,20.085944 L 46.011542,20.125907 C 46.011541,20.841901 46.146414,21.383057 46.416161,21.749378 C 46.685905,22.11237 47.083863,22.293865 47.610037,22.293865 C 48.012987,22.293865 48.342676,22.188964 48.599105,21.979161 C 48.858856,21.76603 49.040352,21.451326 49.143593,21.035051 L 49.882896,21.035051 C 49.736362,21.617836 49.464952,22.055756 49.068663,22.348813 C 48.675696,22.641871 48.157851,22.788399 47.515126,22.788399 C 46.739188,22.788399 46.114777,22.533639 45.641891,22.024119 C 45.172332,21.51127 44.937553,20.83191 44.937554,19.986039 C 44.937553,19.146832 45.169002,18.470803 45.6319,17.957949 C 46.094796,17.445103 46.702556,17.188679 47.455183,17.188673 C 48.257756,17.188679 48.873842,17.436778 49.303442,17.932972 C 49.733032,18.425845 49.956155,19.143502 49.972812,20.085944 M 48.888833,19.556443 C 48.868847,18.93703 48.737304,18.470803 48.494204,18.15776 C 48.254426,17.841397 47.908086,17.683212 47.455183,17.683207 C 47.032245,17.683212 46.699226,17.841397 46.456124,18.15776 C 46.213018,18.474133 46.064824,18.94036 46.011542,19.556443 L 48.888833,19.556443 M 51.056791,22.348813 L 51.056791,21.10998 L 51.586292,21.10998 C 51.599612,21.506275 51.722829,21.802662 51.955944,21.999143 C 52.192387,22.195625 52.540392,22.293865 52.999961,22.293865 C 53.412903,22.293865 53.727606,22.217271 53.944072,22.064081 C 54.160531,21.907563 54.268762,21.68111 54.268766,21.384721 C 54.268762,21.151609 54.188838,20.963453 54.028992,20.820253 C 53.872469,20.677056 53.53945,20.523867 53.029933,20.360686 L 52.365559,20.135897 C 51.90932,19.989371 51.577966,19.806211 51.371495,19.586415 C 51.168352,19.366625 51.066781,19.086889 51.066782,18.747205 C 51.066781,18.261001 51.244947,17.879694 51.601278,17.603283 C 51.957608,17.326882 52.450477,17.188679 53.079886,17.188673 C 53.359619,17.188679 53.654342,17.225311 53.964053,17.29857 C 54.273758,17.371839 54.593456,17.478405 54.92315,17.618269 L 54.92315,18.777177 L 54.393648,18.777177 C 54.380324,18.434171 54.260437,18.16609 54.033987,17.972934 C 53.80753,17.779788 53.499488,17.683212 53.109858,17.683207 C 52.723552,17.683212 52.430495,17.751481 52.230686,17.888014 C 52.034202,18.024557 51.935962,18.229364 51.935963,18.502436 C 51.935962,18.725563 52.010891,18.905393 52.160751,19.041928 C 52.310608,19.175139 52.610326,19.311677 53.059905,19.451542 L 53.789218,19.67633 C 54.292074,19.832852 54.6534,20.029334 54.873197,20.265775 C 55.096315,20.498891 55.207877,20.800273 55.207882,21.169923 C 55.207877,21.672784 55.014726,22.069077 54.628427,22.358804 C 54.245451,22.645201 53.71595,22.788399 53.039923,22.788399 C 52.696911,22.788399 52.362226,22.751767 52.035869,22.678503 C 51.709509,22.605238 51.38315,22.495342 51.056791,22.348813 M 59.808549,20.975107 L 59.808549,19.851166 L 58.624664,19.851166 C 58.168424,19.851168 57.828744,19.949409 57.605623,20.145888 C 57.382498,20.342372 57.270937,20.643754 57.270939,21.050036 C 57.270937,21.419689 57.384164,21.712747 57.610619,21.929208 C 57.83707,22.145672 58.143448,22.253903 58.529753,22.253903 C 58.912722,22.253903 59.220765,22.135681 59.453883,21.899237 C 59.690323,21.662794 59.808544,21.354751 59.808549,20.975107 M 60.727683,19.32666 L 60.727683,22.114034 L 61.546911,22.114034 L 61.546911,22.643536 L 59.808549,22.643536 L 59.808549,22.069077 C 59.605403,22.315512 59.370624,22.497007 59.104212,22.613564 C 58.837793,22.730121 58.52642,22.788399 58.170092,22.788399 C 57.580645,22.788399 57.112753,22.63188 56.766414,22.318841 C 56.420073,22.005804 56.246903,21.582869 56.246903,21.050036 C 56.246903,20.500556 56.445049,20.074291 56.841343,19.771241 C 57.237635,19.468196 57.797108,19.316672 58.519762,19.316669 L 59.808549,19.316669 L 59.808549,18.952012 C 59.808544,18.549063 59.685327,18.23769 59.438897,18.017892 C 59.195789,17.794774 58.852779,17.683212 58.409866,17.683207 C 58.043542,17.683212 57.75215,17.766467 57.535689,17.932972 C 57.319225,18.099487 57.184352,18.345921 57.13107,18.672276 L 56.656517,18.672276 L 56.656517,17.598287 C 56.976215,17.461754 57.285923,17.360184 57.585642,17.293574 C 57.888688,17.223646 58.18341,17.188679 58.469809,17.188673 C 59.205779,17.188679 59.765252,17.371839 60.148229,17.738156 C 60.534527,18.101152 60.727678,18.630652 60.727683,19.32666 M 65.453233,17.333537 L 67.171615,17.333537 L 67.171615,22.114034 L 68.040796,22.114034 L 68.040796,22.643536 L 66.25248,22.643536 L 66.25248,21.70442 C 66.082636,22.057422 65.862843,22.327167 65.593101,22.513658 C 65.323352,22.696819 65.010314,22.788399 64.653986,22.788399 C 64.064539,22.788399 63.629949,22.621889 63.350214,22.28887 C 63.073806,21.95252 62.935603,21.42635 62.935604,20.710356 L 62.935604,17.868033 L 62.106385,17.868033 L 62.106385,17.333537 L 63.859734,17.333537 L 63.859734,20.425624 C 63.859732,21.071684 63.937991,21.5146 64.094513,21.754373 C 64.25436,21.994148 64.537426,22.114035 64.943713,22.114034 C 65.369975,22.114035 65.694669,21.957516 65.917796,21.644477 C 66.140915,21.331439 66.252476,20.876868 66.25248,20.280761 L 66.25248,17.868033 L 65.453233,17.868033 L 65.453233,17.333537 M 73.315826,17.323546 L 73.315826,18.652295 L 72.786325,18.652295 C 72.76967,18.389213 72.696405,18.192732 72.566532,18.06285 C 72.43665,17.932977 72.246829,17.868038 71.997068,17.868033 C 71.544158,17.868038 71.196153,18.024557 70.953052,18.337591 C 70.713275,18.650634 70.593388,19.10021 70.59339,19.686321 L 70.59339,22.114034 L 71.657388,22.114034 L 71.657388,22.643536 L 68.845037,22.643536 L 68.845037,22.114034 L 69.674256,22.114034 L 69.674256,17.858043 L 68.795084,17.858043 L 68.795084,17.333537 L 70.59339,17.333537 L 70.59339,18.277648 C 70.773219,17.908 71.004667,17.634925 71.287736,17.458419 C 71.5708,17.278594 71.915475,17.188679 72.321763,17.188673 C 72.471617,17.188679 72.628136,17.200334 72.79132,17.22364 C 72.957826,17.246957 73.132661,17.280259 73.315826,17.323546 M 76.942411,17.333537 L 78.660792,17.333537 L 78.660792,22.114034 L 79.529974,22.114034 L 79.529974,22.643536 L 77.741658,22.643536 L 77.741658,21.70442 C 77.571814,22.057422 77.352021,22.327167 77.082279,22.513658 C 76.81253,22.696819 76.499492,22.788399 76.143164,22.788399 C 75.553717,22.788399 75.119126,22.621889 74.839392,22.28887 C 74.562984,21.95252 74.424781,21.42635 74.424782,20.710356 L 74.424782,17.868033 L 73.595563,17.868033 L 73.595563,17.333537 L 75.348912,17.333537 L 75.348912,20.425624 C 75.34891,21.071684 75.427169,21.5146 75.583691,21.754373 C 75.743538,21.994148 76.026604,22.114035 76.432891,22.114034 C 76.859152,22.114035 77.183846,21.957516 77.406973,21.644477 C 77.630092,21.331439 77.741654,20.876868 77.741658,20.280761 L 77.741658,17.868033 L 76.942411,17.868033 L 76.942411,17.333537 M 80.489069,22.348813 L 80.489069,21.10998 L 81.01857,21.10998 C 81.03189,21.506275 81.155107,21.802662 81.388222,21.999143 C 81.624664,22.195625 81.97267,22.293865 82.432239,22.293865 C 82.84518,22.293865 83.159884,22.217271 83.37635,22.064081 C 83.592809,21.907563 83.70104,21.68111 83.701044,21.384721 C 83.70104,21.151609 83.621115,20.963453 83.46127,20.820253 C 83.304747,20.677056 82.971728,20.523867 82.462211,20.360686 L 81.797836,20.135897 C 81.341598,19.989371 81.010244,19.806211 80.803772,19.586415 C 80.60063,19.366625 80.499059,19.086889 80.499059,18.747205 C 80.499059,18.261001 80.677224,17.879694 81.033556,17.603283 C 81.389886,17.326882 81.882754,17.188679 82.512163,17.188673 C 82.791897,17.188679 83.086619,17.225311 83.396331,17.29857 C 83.706035,17.371839 84.025734,17.478405 84.355427,17.618269 L 84.355427,18.777177 L 83.825926,18.777177 C 83.812601,18.434171 83.692714,18.16609 83.466265,17.972934 C 83.239808,17.779788 82.931765,17.683212 82.542135,17.683207 C 82.15583,17.683212 81.862773,17.751481 81.662963,17.888014 C 81.46648,18.024557 81.368239,18.229364 81.368241,18.502436 C 81.368239,18.725563 81.443169,18.905393 81.593029,19.041928 C 81.742886,19.175139 82.042604,19.311677 82.492182,19.451542 L 83.221495,19.67633 C 83.724351,19.832852 84.085677,20.029334 84.305474,20.265775 C 84.528593,20.498891 84.640155,20.800273 84.640159,21.169923 C 84.640155,21.672784 84.447003,22.069077 84.060705,22.358804 C 83.677729,22.645201 83.148228,22.788399 82.472201,22.788399 C 82.129189,22.788399 81.794504,22.751767 81.468147,22.678503 C 81.141786,22.605238 80.815427,22.495342 80.489069,22.348813"
   id="text3384" /><g
   id="g3418"
   clip-path="url(#clipPath3431)"
   style="stroke:url(#radialGradient3441)"><path
     sodipodi:nodetypes="cc"
     id="path3396"
     d="M 22.350477,103.72715 L 113.17626,94.497408"
     style="fill:none;fill-rule:evenodd;stroke:url(#radialGradient3441);stroke-width:0.20000000000000001;stroke-linecap:butt;stroke-linejoin:miter;stroke-miterlimit:4;stroke-dasharray:none;stroke-opacity:1" /><path
     style="fill:none;fill-rule:evenodd;stroke:url(#radialGradient3441);stroke-width:0.20000000000000001;stroke-linecap:butt;stroke-linejoin:miter;stroke-miterlimit:4;stroke-dasharray:none;stroke-opacity:1"
     d="M 20.950477,118.72715 L 113.67626,109.29741"
     id="path3398" /><path
     id="path3402"
     d="M 20.950477,111.72715 L 113.67626,102.29741"
     style="fill:none;fill-rule:evenodd;stroke:url(#radialGradient3441);stroke-width:0.20000000000000001;stroke-linecap:butt;stroke-linejoin:miter;stroke-miterlimit:4;stroke-dasharray:none;stroke-opacity:1" /><path
     style="fill:none;fill-rule:evenodd;stroke:url(#radialGradient3441);stroke-width:0.20000000000000001;stroke-linecap:butt;stroke-linejoin:miter;stroke-miterlimit:4;stroke-dasharray:none;stroke-opacity:1"
     d="M 20.950477,107.72715 L 113.67626,98.29741"
     id="path3404" /><path
     id="path3408"
     d="M 20.950477,115.72715 L 113.67626,106.29741"
     style="fill:none;fill-rule:evenodd;stroke:url(#radialGradient3441);stroke-width:0.20000000000000001;stroke-linecap:butt;stroke-linejoin:miter;stroke-miterlimit:4;stroke-dasharray:none;stroke-opacity:1" /><path
     style="fill:none;fill-rule:evenodd;stroke:url(#radialGradient3441);stroke-width:0.20000000000000001;stroke-linecap:butt;stroke-linejoin:miter;stroke-miterlimit:4;stroke-dasharray:none;stroke-opacity:1"
     d="M 20.950477,113.72715 L 113.67626,104.29741"
     id="path3410" /><path
     id="path3412"
     d="M 20.950477,109.72715 L 113.67626,100.29741"
     style="fill:none;fill-rule:evenodd;stroke:url(#radialGradient3441);stroke-width:0.20000000000000001;stroke-linecap:butt;stroke-linejoin:miter;stroke-miterlimit:4;stroke-dasharray:none;stroke-opacity:1" /><path
     style="fill:none;fill-rule:evenodd;stroke:url(#radialGradient3441);stroke-width:0.20000000000000001;stroke-linecap:butt;stroke-linejoin:miter;stroke-miterlimit:4;stroke-dasharray:none;stroke-opacity:1"
     d="M 20.950477,106.02715 L 113.67626,96.59741"
     id="path3414" /><path
     id="path3416"
     d="M 20.950477,102.12715 L 113.67626,92.69741"
     style="fill:none;fill-rule:evenodd;stroke:url(#radialGradient3441);stroke-width:0.20000000000000001;stroke-linecap:butt;stroke-linejoin:miter;stroke-miterlimit:4;stroke-dasharray:none;stroke-opacity:1" /></g><g
   style="stroke:url(#linearGradient3483);stroke-width:0.39999997;stroke-miterlimit:4;stroke-dasharray:none"
   clip-path="url(#clipPath3431)"
   id="g3443"
   transform="translate(0,-10e-2)"><path
     style="fill:none;fill-rule:evenodd;stroke:url(#linearGradient3485);stroke-width:0.39999997;stroke-linecap:butt;stroke-linejoin:miter;stroke-miterlimit:4;stroke-dasharray:none;stroke-opacity:1"
     d="M 22.350477,103.72715 L 113.17626,94.497408"
     id="path3445"
     sodipodi:nodetypes="cc" /><path
     id="path3447"
     d="M 20.950477,118.72715 L 113.67626,109.29741"
     style="fill:none;fill-rule:evenodd;stroke:url(#linearGradient3487);stroke-width:0.39999997;stroke-linecap:butt;stroke-linejoin:miter;stroke-miterlimit:4;stroke-dasharray:none;stroke-opacity:1" /><path
     style="fill:none;fill-rule:evenodd;stroke:url(#linearGradient3489);stroke-width:0.39999997;stroke-linecap:butt;stroke-linejoin:miter;stroke-miterlimit:4;stroke-dasharray:none;stroke-opacity:1"
     d="M 20.950477,111.72715 L 113.67626,102.29741"
     id="path3449" /><path
     id="path3451"
     d="M 20.950477,107.72715 L 113.67626,98.29741"
     style="fill:none;fill-rule:evenodd;stroke:url(#linearGradient3491);stroke-width:0.39999997;stroke-linecap:butt;stroke-linejoin:miter;stroke-miterlimit:4;stroke-dasharray:none;stroke-opacity:1" /><path
     style="fill:none;fill-rule:evenodd;stroke:url(#linearGradient3493);stroke-width:0.39999997;stroke-linecap:butt;stroke-linejoin:miter;stroke-miterlimit:4;stroke-dasharray:none;stroke-opacity:1"
     d="M 20.950477,115.72715 L 113.67626,106.29741"
     id="path3453" /><path
     id="path3455"
     d="M 20.950477,113.72715 L 113.67626,104.29741"
     style="fill:none;fill-rule:evenodd;stroke:url(#linearGradient3495);stroke-width:0.39999997;stroke-linecap:butt;stroke-linejoin:miter;stroke-miterlimit:4;stroke-dasharray:none;stroke-opacity:1" /><path
     style="fill:none;fill-rule:evenodd;stroke:url(#linearGradient3497);stroke-width:0.39999997;stroke-linecap:butt;stroke-linejoin:miter;stroke-miterlimit:4;stroke-dasharray:none;stroke-opacity:1"
     d="M 20.950477,109.72715 L 113.67626,100.29741"
     id="path3457" /><path
     id="path3459"
     d="M 20.950477,106.02715 L 113.67626,96.59741"
     style="fill:none;fill-rule:evenodd;stroke:url(#linearGradient3499);stroke-width:0.39999997;stroke-linecap:butt;stroke-linejoin:miter;stroke-miterlimit:4;stroke-dasharray:none;stroke-opacity:1" /><path
     style="fill:none;fill-rule:evenodd;stroke:url(#linearGradient3501);stroke-width:0.39999997;stroke-linecap:butt;stroke-linejoin:miter;stroke-miterlimit:4;stroke-dasharray:none;stroke-opacity:1"
     d="M 20.950477,102.12715 L 113.67626,92.69741"
     id="path3461" /></g></svg>