<?xml version="1.0" encoding="UTF-8" standalone="no"?>
<!-- Created with Inkscape (http://www.inkscape.org/) -->

<svg
   xmlns:dc="http://purl.org/dc/elements/1.1/"
   xmlns:cc="http://creativecommons.org/ns#"
   xmlns:rdf="http://www.w3.org/1999/02/22-rdf-syntax-ns#"
   xmlns:svg="http://www.w3.org/2000/svg"
   xmlns="http://www.w3.org/2000/svg"
   xmlns:xlink="http://www.w3.org/1999/xlink"
   xmlns:sodipodi="http://sodipodi.sourceforge.net/DTD/sodipodi-0.dtd"
   xmlns:inkscape="http://www.inkscape.org/namespaces/inkscape"
   width="128"
   height="128"
   id="svg2"
   sodipodi:version="0.32"
   inkscape:version="0.47 r22583"
   version="1.0"
   inkscape:export-filename="/home/pinheiro/pics/oxygen-icons/scalable/apps/preferences-system-bluetooth.png"
   inkscape:export-xdpi="180"
   inkscape:export-ydpi="180"
   sodipodi:docname="preferences-system-bluetooth.svgz"
   inkscape:output_extension="org.inkscape.output.svgz.inkscape">
  <defs
     id="defs4">
    <inkscape:perspective
       sodipodi:type="inkscape:persp3d"
       inkscape:vp_x="0 : 64 : 1"
       inkscape:vp_y="0 : 1000 : 0"
       inkscape:vp_z="128 : 64 : 1"
       inkscape:persp3d-origin="64 : 42.666667 : 1"
       id="perspective91" />
    <linearGradient
       id="linearGradient3336">
      <stop
         id="stop3338"
         offset="0"
         style="stop-color:#cbcbcb;stop-opacity:1;" />
      <stop
         id="stop3340"
         offset="1"
         style="stop-color:#adadad;stop-opacity:0;" />
    </linearGradient>
    <radialGradient
       inkscape:collect="always"
       xlink:href="#linearGradient5960"
       id="radialGradient3141"
       cx="48.704403"
       cy="42.525261"
       fx="48.704403"
       fy="52.241333"
       r="20.327044"
       gradientTransform="matrix(2.6373622,-1.1666908e-7,1.6333671e-7,3.692307,-64.45115,-79.128045)"
       gradientUnits="userSpaceOnUse" />
    <radialGradient
       inkscape:collect="always"
       xlink:href="#linearGradient3336"
       id="radialGradient3153"
       cx="64"
       cy="64"
       fx="64"
       fy="54.987789"
       r="36"
       gradientTransform="matrix(1.819496,0,0,2.6281609,-52.447745,-104.26444)"
       gradientUnits="userSpaceOnUse" />
    <radialGradient
       inkscape:collect="always"
       xlink:href="#linearGradient3336"
       id="radialGradient3184"
       cx="64"
       cy="82.564697"
       fx="64"
       fy="89.949318"
       r="36"
       gradientTransform="matrix(0.9105521,0,0,1.3152418,5.7246681,-20.175479)"
       gradientUnits="userSpaceOnUse" />
    <filter
       inkscape:collect="always"
       id="filter3202">
      <feGaussianBlur
         inkscape:collect="always"
         stdDeviation="2.1290203"
         id="feGaussianBlur3204" />
    </filter>
    <radialGradient
       inkscape:collect="always"
       xlink:href="#linearGradient3336"
       id="radialGradient3208"
       gradientUnits="userSpaceOnUse"
       gradientTransform="matrix(1.6936868,1.6935349e-8,0,1.154912,-44.395952,-6.9379013)"
       cx="64"
       cy="82.564697"
       fx="64"
       fy="89.949318"
       r="36" />
    <filter
       inkscape:collect="always"
       id="filter3284">
      <feGaussianBlur
         inkscape:collect="always"
         stdDeviation="1.3468071"
         id="feGaussianBlur3286" />
    </filter>
    <radialGradient
       inkscape:collect="always"
       xlink:href="#linearGradient5919"
       id="radialGradient3303"
       cx="64"
       cy="-0.73508483"
       fx="64"
       fy="10.298304"
       r="35.84375"
       gradientTransform="matrix(3.6271094,0,0,2.2799875,-168.135,-13.49829)"
       gradientUnits="userSpaceOnUse" />
    <filter
       inkscape:collect="always"
       id="filter3309">
      <feGaussianBlur
         inkscape:collect="always"
         stdDeviation="0.445"
         id="feGaussianBlur3311" />
    </filter>
    <radialGradient
       inkscape:collect="always"
       xlink:href="#linearGradient5919"
       id="radialGradient3319"
       cx="64"
       cy="27.5"
       fx="64"
       fy="27.5"
       r="36.5"
       gradientTransform="matrix(2.3483691,0,0,3.3777914,-86.295621,-81.389262)"
       gradientUnits="userSpaceOnUse" />
    <radialGradient
       inkscape:collect="always"
       xlink:href="#linearGradient5919"
       id="radialGradient3330"
       gradientUnits="userSpaceOnUse"
       gradientTransform="matrix(3.6271094,0,0,2.2799875,-168.135,-13.49829)"
       cx="64"
       cy="17.436096"
       fx="73.001312"
       fy="33.273273"
       r="35.84375" />
    <radialGradient
       inkscape:collect="always"
       xlink:href="#linearGradient3336"
       id="radialGradient3334"
       gradientUnits="userSpaceOnUse"
       gradientTransform="matrix(1.1369885,0,0,1.6353946,-8.7672645,-33.473349)"
       cx="64"
       cy="27.5"
       fx="64"
       fy="27.5"
       r="36.5" />
    <filter
       inkscape:collect="always"
       id="filter3348">
      <feGaussianBlur
         inkscape:collect="always"
         stdDeviation="0.895"
         id="feGaussianBlur3350" />
    </filter>
    <radialGradient
       inkscape:collect="always"
       xlink:href="#linearGradient5960"
       id="radialGradient3360"
       cx="48.704403"
       cy="14.174014"
       fx="48.704403"
       fy="15.586639"
       r="20.327044"
       gradientTransform="matrix(1.3425324,0,0,1.0350444,-1.387234,-8.7297809)"
       gradientUnits="userSpaceOnUse" />
    <radialGradient
       inkscape:collect="always"
       xlink:href="#linearGradient3336"
       id="radialGradient3364"
       gradientUnits="userSpaceOnUse"
       gradientTransform="matrix(2.5649195,0,0,-1.136923,-60.922868,137.50545)"
       cx="48.704403"
       cy="14.174014"
       fx="48.704403"
       fy="15.586639"
       r="20.327044" />
    <filter
       inkscape:collect="always"
       x="-0.0674061"
       width="1.1348122"
       y="-0.1797496"
       height="1.3594992"
       id="filter3446">
      <feGaussianBlur
         inkscape:collect="always"
         stdDeviation="2.24687"
         id="feGaussianBlur3448" />
    </filter>
    <linearGradient
       y2="101.12339"
       x2="-161.52484"
       y1="54.347218"
       x1="-165.45718"
       gradientTransform="matrix(1.9146891,0,0,1.9146891,382.66651,-124.61901)"
       gradientUnits="userSpaceOnUse"
       id="linearGradient2961"
       xlink:href="#linearGradient5919"
       inkscape:collect="always" />
    <linearGradient
       y2="109.09552"
       x2="-176.82246"
       y1="5.9640594"
       x1="-176.82246"
       gradientTransform="matrix(1.8099795,0,0,1.8099795,372.76303,-125.29435)"
       gradientUnits="userSpaceOnUse"
       id="linearGradient2957"
       xlink:href="#linearGradient5919"
       inkscape:collect="always" />
    <linearGradient
       y2="91.532112"
       x2="-196.51477"
       y1="130.50459"
       x1="-141.69565"
       gradientTransform="matrix(1.8099795,0,0,1.8099795,372.07264,-132.00483)"
       gradientUnits="userSpaceOnUse"
       id="linearGradient2954"
       xlink:href="#linearGradient5919"
       inkscape:collect="always" />
    <linearGradient
       y2="89.160271"
       x2="-176.82246"
       y1="62.791336"
       x1="-176.82246"
       gradientTransform="matrix(1.8099795,0,0,1.8099795,372.76303,-125.29435)"
       gradientUnits="userSpaceOnUse"
       id="linearGradient2951"
       xlink:href="#linearGradient5919"
       inkscape:collect="always" />
    <radialGradient
       r="6.4729"
       fy="95.502762"
       fx="-175.51489"
       cy="95.502762"
       cx="-175.51489"
       gradientTransform="matrix(17.683805,0,0,-12.950746,3161.348,1253.793)"
       gradientUnits="userSpaceOnUse"
       id="radialGradient4243"
       xlink:href="#linearGradient6181"
       inkscape:collect="always" />
    <radialGradient
       r="6.4729"
       fy="93.132141"
       fx="-175.51489"
       cy="93.132141"
       cx="-175.51489"
       gradientTransform="matrix(-17.686733,0,0,-11.843809,-3046.506,1155.1878)"
       gradientUnits="userSpaceOnUse"
       id="radialGradient4241"
       xlink:href="#linearGradient6181"
       inkscape:collect="always" />
    <radialGradient
       r="31.190229"
       fy="116.62209"
       fx="-166.53223"
       cy="116.62209"
       cx="-166.53223"
       gradientUnits="userSpaceOnUse"
       id="radialGradient4170"
       xlink:href="#linearGradient6138"
       inkscape:collect="always" />
    <radialGradient
       r="31.190229"
       fy="65.938202"
       fx="-166.53223"
       cy="65.938202"
       cx="-166.53223"
       gradientTransform="matrix(1,0,0,0.6578174,0,22.562908)"
       gradientUnits="userSpaceOnUse"
       id="radialGradient4168"
       xlink:href="#linearGradient5990"
       inkscape:collect="always" />
    <radialGradient
       r="31.190229"
       fy="84.275475"
       fx="-166.53223"
       cy="84.275475"
       cx="-166.53223"
       gradientUnits="userSpaceOnUse"
       id="radialGradient4166"
       xlink:href="#linearGradient5960"
       inkscape:collect="always" />
    <radialGradient
       r="27.455904"
       fy="48.36097"
       fx="87.160835"
       cy="48.36097"
       cx="87.160835"
       gradientTransform="matrix(1.4591887,0,0,1,-40.023272,0)"
       gradientUnits="userSpaceOnUse"
       id="radialGradient4150"
       xlink:href="#linearGradient6212"
       inkscape:collect="always" />
    <linearGradient
       id="linearGradient5919">
      <stop
         id="stop5921"
         offset="0"
         style="stop-color:#ffffff;stop-opacity:1;" />
      <stop
         style="stop-color:#ffffff;stop-opacity:0.39849624;"
         offset="0.5"
         id="stop6238" />
      <stop
         id="stop5923"
         offset="1"
         style="stop-color:#ffffff;stop-opacity:0;" />
    </linearGradient>
    <linearGradient
       gradientTransform="matrix(0,1,-1,0,-39.9985,140.0029)"
       y2="-383.9971"
       x2="-12.0029"
       y1="-383.9971"
       x1="-84.002403"
       gradientUnits="userSpaceOnUse"
       id="linearGradient5960">
      <stop
         id="stop5962"
         style="stop-color:#767676;stop-opacity:1;"
         offset="0" />
      <stop
         id="stop5964"
         style="stop-color:#393939;stop-opacity:1;"
         offset="1" />
    </linearGradient>
    <linearGradient
       id="linearGradient5990"
       inkscape:collect="always">
      <stop
         id="stop5992"
         offset="0"
         style="stop-color:#ffffff;stop-opacity:1;" />
      <stop
         id="stop5994"
         offset="1"
         style="stop-color:#ffffff;stop-opacity:0;" />
    </linearGradient>
    <linearGradient
       gradientTransform="matrix(0,1,-1,0,-39.9985,140.0029)"
       y2="-383.9971"
       x2="-12.0029"
       y1="-383.9971"
       x1="-84.002403"
       gradientUnits="userSpaceOnUse"
       id="linearGradient6138">
      <stop
         id="stop6140"
         style="stop-color:#0081ec;stop-opacity:1;"
         offset="0" />
      <stop
         id="stop6142"
         style="stop-color:#004c98;stop-opacity:1;"
         offset="1" />
    </linearGradient>
    <linearGradient
       id="linearGradient6181">
      <stop
         id="stop6183"
         offset="0"
         style="stop-color:#ffffff;stop-opacity:1;" />
      <stop
         style="stop-color:#ffffff;stop-opacity:1;"
         offset="0.44777471"
         id="stop6189" />
      <stop
         id="stop6191"
         offset="0.59900987"
         style="stop-color:#e0e0e0;stop-opacity:1;" />
      <stop
         id="stop6185"
         offset="1"
         style="stop-color:#8f8f8f;stop-opacity:1;" />
    </linearGradient>
    <linearGradient
       id="linearGradient6212"
       inkscape:collect="always">
      <stop
         id="stop6214"
         offset="0"
         style="stop-color:#020910;stop-opacity:1" />
      <stop
         id="stop6216"
         offset="1"
         style="stop-color:#113e69;stop-opacity:0" />
    </linearGradient>
    <radialGradient
       inkscape:collect="always"
       xlink:href="#linearGradient5990"
       id="radialGradient3750"
       cx="64"
       cy="64"
       fx="64"
       fy="64"
       r="38.972252"
       gradientTransform="matrix(1,0,0,1.4105485,0,-26.275105)"
       gradientUnits="userSpaceOnUse" />
  </defs>
  <sodipodi:namedview
     id="base"
     pagecolor="#ffffff"
     bordercolor="#666666"
     borderopacity="1.0"
     gridtolerance="10000"
     guidetolerance="10"
     objecttolerance="10"
     inkscape:pageopacity="0.0"
     inkscape:pageshadow="2"
     inkscape:zoom="2"
     inkscape:cx="22.482936"
     inkscape:cy="75.012933"
     inkscape:document-units="px"
     inkscape:current-layer="layer1"
     width="128px"
     height="128px"
     showgrid="false"
     inkscape:grid-points="true"
     inkscape:window-width="796"
     inkscape:window-height="746"
     inkscape:window-x="0"
     inkscape:window-y="0"
     inkscape:window-maximized="0">
    <inkscape:grid
       id="GridFromPre046Settings"
       type="xygrid"
       originx="0px"
       originy="0px"
       spacingx="4px"
       spacingy="4px"
       color="#0000ff"
       empcolor="#0000ff"
       opacity="0.2"
       empopacity="0.4"
       empspacing="2" />
  </sodipodi:namedview>
  <metadata
     id="metadata7">
    <rdf:RDF>
      <cc:Work
         rdf:about="">
        <dc:format>image/svg+xml</dc:format>
        <dc:type
           rdf:resource="http://purl.org/dc/dcmitype/StillImage" />
        <dc:title></dc:title>
      </cc:Work>
    </rdf:RDF>
  </metadata>
  <g
     inkscape:label="Layer 1"
     inkscape:groupmode="layer"
     id="layer1">
    <path
       sodipodi:type="arc"
       style="fill:#000000;fill-opacity:1;stroke:none;filter:url(#filter3446)"
       id="path3372"
       sodipodi:cx="66"
       sodipodi:cy="113"
       sodipodi:rx="40"
       sodipodi:ry="15"
       d="m 106,113 a 40,15 0 1 1 -80,0 40,15 0 1 1 80,0 z"
       transform="matrix(0.54884298,0,0,0.43907455,27.776363,67.08541)" />
    <path
       style="fill:url(#radialGradient3141);fill-opacity:1;stroke:none"
       d="m 105.38273,63.937856 c 0,49.659264 -18.539464,57.935814 -41.382728,57.935814 -22.843264,0 -41.382726,-8.27655 -41.382726,-57.935814 0,-49.65927 18.539462,-57.9358145 41.382726,-57.9358145 22.843264,0 41.382728,8.2765445 41.382728,57.9358145 z"
       id="path2160"
       sodipodi:nodetypes="csssc" />
    <path
       style="opacity:0.80193242;fill:url(#radialGradient3364);fill-opacity:1;stroke:none"
       d="m 105.03775,63.937848 c 0,-49.245293 -18.384915,-57.4528319 -41.037748,-57.4528319 -22.652833,0 -41.037743,8.2075389 -41.037743,57.4528319 0,49.245292 18.38491,57.452842 41.037743,57.452842 22.652833,0 41.037748,-8.20755 41.037748,-57.452842 z"
       id="path3362"
       sodipodi:nodetypes="csssc" />
    <path
       sodipodi:nodetypes="csssc"
       id="path3352"
       d="m 105.42636,63.937855 c 0,49.711635 -18.559008,57.996895 -41.426358,57.996895 -22.86735,0 -41.42636,-8.28526 -41.42636,-57.996895 0,-49.711631 18.55901,-57.9969021 41.42636,-57.9969021 22.86735,0 41.426358,8.2852711 41.426358,57.9969021 z"
       style="fill:url(#radialGradient3360);fill-opacity:1.0;stroke:none" />
    <path
       sodipodi:nodetypes="csssc"
       id="path3143"
       d="m 101.24445,63.937855 c 0,46.112175 -16.685511,53.797535 -37.244448,53.797535 -20.558938,0 -37.244453,-7.68536 -37.244453,-53.797535 0,-46.112178 16.685515,-53.797542 37.244453,-53.797542 20.558937,0 37.244448,7.685364 37.244448,53.797542 z"
       style="fill:url(#radialGradient3153);fill-opacity:1;stroke:none" />
    <path
       style="opacity:0.99033813;fill:url(#radialGradient3184);fill-opacity:1;stroke:none;filter:url(#filter3202)"
       d="m 96.779874,64.000002 c 0,40.584608 -14.685382,47.348708 -32.779872,47.348708 -18.094492,0 -32.779876,-6.7641 -32.779876,-47.348708 0,-40.584608 14.685384,-47.348709 32.779876,-47.348709 18.09449,0 32.779872,6.764101 32.779872,47.348709 z"
       id="path3176"
       sodipodi:nodetypes="csssc"
       transform="matrix(0.84401067,0,0,0.71697233,9.9833199,31.585596)" />
    <path
       transform="matrix(0.84401067,0,0,-0.71697233,9.9833199,95.424715)"
       sodipodi:nodetypes="csssc"
       id="path3206"
       d="m 96.779874,64.000002 c 0,40.584608 -14.685382,47.348708 -32.779872,47.348708 -18.094492,0 -32.779876,-6.7641 -32.779876,-47.348708 0,-40.584608 14.685384,-47.348709 32.779876,-47.348709 18.09449,0 32.779872,6.764101 32.779872,47.348709 z"
       style="opacity:0.99033813;fill:url(#radialGradient3208);fill-opacity:1;stroke:none;filter:url(#filter3202)" />
    <path
       id="path3238"
       d="m 60,24 0,13.3125 0,18.59375 -5,4 -15,-12 0,8 10,8 -10,8 0,8 15,-12 5,4 0,32 24,-19.96875 -24,-20 L 84,43.96875 60,24 z m 4,10.28125 12,9.625 -12,9.625 0,-19.25 z m 0,40 12,9.625 -12,9.625 0,-19.25 z"
       style="fill:#ffffff;fill-opacity:1;fill-rule:evenodd;stroke:none;filter:url(#filter3284)"
       transform="matrix(1.0345681,0,0,1.0345681,-2.2123569,-2.2745035)" />
    <path
       style="fill:#ffffff;fill-opacity:1;fill-rule:evenodd;stroke:none"
       d="m 59.861728,22.55513 0,13.772688 0,19.2365 -5.172841,4.138272 -15.518521,-12.414817 0,8.276545 10.345681,8.276545 -10.345681,8.276544 0,8.276545 15.518521,-12.414817 5.172841,4.138272 0,33.106183 L 84.691361,84.564554 59.861728,63.873193 84.691361,43.214162 59.861728,22.55513 z M 64,33.191783 76.414817,43.149501 64,53.107219 64,33.191783 z M 64,74.574506 76.414817,84.532224 64,94.489942 64,74.574506 z"
       id="path3216" />
    <path
       style="opacity:0.1980198;fill:url(#radialGradient3303);fill-opacity:1;stroke:none"
       d="m 64,10.140313 c -19.439741,0 -35.400932,6.88821 -37.082799,46.620224 10.46915,-1.701718 22.706425,-2.65108 37.082799,-2.65108 14.376372,0 26.613649,0.949362 37.0828,2.65108 C 99.400932,17.028521 83.439742,10.140313 64,10.140313 z"
       id="path3288" />
    <path
       style="fill:none;stroke:url(#radialGradient3319);stroke-width:1.5;stroke-linecap:round;stroke-linejoin:round;stroke-miterlimit:4;stroke-opacity:1;stroke-dasharray:none;filter:url(#filter3309)"
       d="M 100,64.000002 C 100,108.57143 83.872002,116 64.000002,116 44.128001,116 28,108.57143 28,64.000002 28,19.428572 44.128001,12 64.000002,12 83.872002,12 100,19.428572 100,64.000002 z"
       id="path3305"
       sodipodi:nodetypes="csssc"
       transform="matrix(1.0345681,0,0,1.0345681,-2.2123569,-2.2745035)" />
    <path
       style="opacity:0.65217393;fill:url(#radialGradient3330);fill-opacity:1;stroke:none"
       d="m 64,10.140313 c -19.439741,0 -35.400932,6.88821 -37.082799,46.620224 10.46915,-1.701718 22.706425,-2.65108 37.082799,-2.65108 14.376372,0 26.613649,0.949362 37.0828,2.65108 C 99.400932,17.028521 83.439742,10.140313 64,10.140313 z m 0,2.101467 c 18.893985,0 34.98617,6.862117 36.62082,44.236528 C 90.445587,54.877567 77.972766,53.936823 64,53.936826 c -13.972767,0 -25.872996,0.576364 -36.048231,2.177106 C 29.586419,18.739523 45.106016,12.24178 64,12.24178 z"
       id="path3321"
       sodipodi:nodetypes="ccsccccscc" />
    <path
       sodipodi:nodetypes="csssc"
       id="path3332"
       d="M 100,64.000002 C 100,108.57143 83.872002,116 64.000002,116 44.128001,116 28,108.57143 28,64.000002 28,19.428572 44.128001,12 64.000002,12 83.872002,12 100,19.428572 100,64.000002 z"
       style="fill:url(#radialGradient3750);stroke:url(#radialGradient3334);stroke-width:1.50000000000000000;stroke-linecap:round;stroke-linejoin:round;stroke-miterlimit:4;stroke-opacity:1;stroke-dasharray:none;filter:url(#filter3348);fill-opacity:1;opacity:0.00990099"
       transform="matrix(1.0345681,0,0,-1.0345681,-2.2123569,130.15021)" />
  </g>
</svg>
