<?xml version="1.0" encoding="UTF-8" standalone="no"?>
<!-- Generator: Adobe Illustrator 12.0.0, SVG Export Plug-In . SVG Version: 6.00 Build 51448)  -->
<svg
   xmlns:dc="http://purl.org/dc/elements/1.1/"
   xmlns:cc="http://web.resource.org/cc/"
   xmlns:rdf="http://www.w3.org/1999/02/22-rdf-syntax-ns#"
   xmlns:svg="http://www.w3.org/2000/svg"
   xmlns="http://www.w3.org/2000/svg"
   xmlns:xlink="http://www.w3.org/1999/xlink"
   xmlns:sodipodi="http://sodipodi.sourceforge.net/DTD/sodipodi-0.dtd"
   xmlns:inkscape="http://www.inkscape.org/namespaces/inkscape"
   version="1.0"
   id="Livello_1"
   width="128"
   height="128"
   viewBox="0 0 120 119.557"
   overflow="visible"
   enable-background="new 0 0 120 119.557"
   xml:space="preserve"
   sodipodi:version="0.32"
   inkscape:version="0.45+devel"
   sodipodi:docname="system-file-manager.svgz"
   inkscape:output_extension="org.inkscape.output.svgz.inkscape"
   style="overflow:visible"><metadata
   id="metadata289"><rdf:RDF><cc:Work
       rdf:about=""><dc:format>image/svg+xml</dc:format><dc:type
         rdf:resource="http://purl.org/dc/dcmitype/StillImage" /></cc:Work></rdf:RDF></metadata><defs
   id="defs287"><linearGradient
     id="linearGradient3316"><stop
       style="stop-color:#555753;stop-opacity:1"
       offset="0"
       id="stop3318" /><stop
       id="stop3812"
       offset="0.5"
       style="stop-color:#666962;stop-opacity:1;" /><stop
       style="stop-color:#70756a;stop-opacity:1;"
       offset="1"
       id="stop3320" /></linearGradient><linearGradient
     inkscape:collect="always"
     xlink:href="#XMLID_34_"
     id="linearGradient3178"
     gradientUnits="userSpaceOnUse"
     x1="60.0005"
     y1="113"
     x2="60.0005"
     y2="27.0005"
     gradientTransform="matrix(0.8857008,0,0,0.9378038,10.607949,3.5062969)" /><linearGradient
     inkscape:collect="always"
     xlink:href="#XMLID_35_"
     id="linearGradient3180"
     gradientUnits="userSpaceOnUse"
     x1="60"
     y1="57.0005"
     x2="60"
     y2="32.001999" /><linearGradient
     inkscape:collect="always"
     xlink:href="#XMLID_36_"
     id="linearGradient3182"
     gradientUnits="userSpaceOnUse"
     x1="60.0005"
     y1="23.667"
     x2="60.0005"
     y2="-0.333" /><linearGradient
     inkscape:collect="always"
     xlink:href="#XMLID_39_"
     id="linearGradient3186"
     gradientUnits="userSpaceOnUse"
     x1="60.0005"
     y1="112"
     x2="60.0005"
     y2="61"
     gradientTransform="matrix(0.8857008,0,0,0.9378038,10.607949,3.5062969)" /><radialGradient
     inkscape:collect="always"
     xlink:href="#XMLID_40_"
     id="radialGradient3188"
     gradientUnits="userSpaceOnUse"
     gradientTransform="matrix(0.9769,0,0,1,1.387,0)"
     cx="59.859901"
     cy="60.001499"
     r="65.890404" /><linearGradient
     inkscape:collect="always"
     xlink:href="#XMLID_41_"
     id="linearGradient3190"
     gradientUnits="userSpaceOnUse"
     x1="64.1875"
     y1="24.1675"
     x2="56.454102"
     y2="57.639198"
     gradientTransform="matrix(0.8857008,0,0,0.9378038,10.607949,3.5062969)" /><linearGradient
     inkscape:collect="always"
     xlink:href="#XMLID_43_"
     id="linearGradient3194"
     gradientUnits="userSpaceOnUse"
     x1="74.484398"
     y1="45.179199"
     x2="54.374699"
     y2="95.453499"
     gradientTransform="matrix(0.8857008,0,0,0.9378038,10.607949,3.5062969)" /><linearGradient
     inkscape:collect="always"
     xlink:href="#XMLID_52_"
     id="linearGradient3196"
     gradientUnits="userSpaceOnUse"
     x1="60"
     y1="60.9995"
     x2="60"
     y2="58" /><linearGradient
     inkscape:collect="always"
     xlink:href="#XMLID_53_"
     id="linearGradient3198"
     gradientUnits="userSpaceOnUse"
     x1="59.9995"
     y1="57"
     x2="59.9995"
     y2="58" /><linearGradient
     inkscape:collect="always"
     xlink:href="#XMLID_55_"
     id="linearGradient3202"
     gradientUnits="userSpaceOnUse"
     x1="60"
     y1="32"
     x2="60"
     y2="29" /><linearGradient
     inkscape:collect="always"
     xlink:href="#XMLID_59_"
     id="linearGradient3212"
     gradientUnits="userSpaceOnUse"
     gradientTransform="matrix(1,0,0,-0.6667,0,101.6672)"
     x1="59.9995"
     y1="58.0005"
     x2="59.9995"
     y2="61.0005" /><linearGradient
     inkscape:collect="always"
     xlink:href="#XMLID_58_"
     id="linearGradient3217"
     gradientUnits="userSpaceOnUse"
     x1="60.000004"
     y1="103.98998"
     x2="60.000004"
     y2="115.9861"
     gradientTransform="matrix(0.8857008,0,0,0.9378038,10.607949,3.5062969)" /><linearGradient
     inkscape:collect="always"
     xlink:href="#XMLID_60_"
     id="linearGradient3221"
     gradientUnits="userSpaceOnUse"
     x1="13.8301"
     y1="112.5"
     x2="106.1699"
     y2="112.5"
     gradientTransform="matrix(0.8857008,0,0,0.9378038,10.607949,3.5062969)" /><linearGradient
     inkscape:collect="always"
     xlink:href="#XMLID_59_"
     id="linearGradient3224"
     gradientUnits="userSpaceOnUse"
     x1="60.0005"
     y1="34"
     x2="60.0005"
     y2="32"
     gradientTransform="matrix(0.8857008,0,0,0.9378038,10.607949,3.5062969)" /><linearGradient
     inkscape:collect="always"
     xlink:href="#XMLID_58_"
     id="linearGradient3227"
     gradientUnits="userSpaceOnUse"
     x1="60.000004"
     y1="52.006832"
     x2="60.000004"
     y2="60.004238"
     gradientTransform="matrix(0.8857008,0,0,0.9378038,10.607949,3.5062969)" /><linearGradient
     inkscape:collect="always"
     xlink:href="#XMLID_56_"
     id="linearGradient3230"
     gradientUnits="userSpaceOnUse"
     x1="59.9995"
     y1="28"
     x2="59.9995"
     y2="29"
     gradientTransform="matrix(0.8857008,0,0,0.9378038,10.607949,3.5062969)" /><radialGradient
     inkscape:collect="always"
     xlink:href="#XMLID_54_"
     id="radialGradient3234"
     gradientUnits="userSpaceOnUse"
     cx="60"
     cy="113.8516"
     r="33.1549"
     gradientTransform="matrix(0.9375,0,0,0.9375,7.5,3.5285)" /><filter
     inkscape:collect="always"
     id="filter3709"><feGaussianBlur
       inkscape:collect="always"
       stdDeviation="0.5"
       id="feGaussianBlur3711" /></filter><linearGradient
     inkscape:collect="always"
     xlink:href="#XMLID_37_"
     id="linearGradient3773"
     gradientUnits="userSpaceOnUse"
     x1="60"
     y1="16"
     x2="60"
     y2="24"
     gradientTransform="matrix(0.9201389,0,0,0.9375,8.5416667,3.5285)" /><clipPath
     clipPathUnits="userSpaceOnUse"
     id="clipPath3777"><polygon
       id="polygon3779"
       points="110,116 10,116 6,24 114,24 110,116 "
       style="fill:#ff00bf" /></clipPath><linearGradient
     inkscape:collect="always"
     xlink:href="#XMLID_59_"
     id="linearGradient3786"
     x1="72"
     y1="28"
     x2="72"
     y2="16"
     gradientUnits="userSpaceOnUse"
     gradientTransform="matrix(0.9375,0,0,0.9375,7.5,3.5285)" /><radialGradient
     inkscape:collect="always"
     xlink:href="#XMLID_33_"
     id="radialGradient3792"
     gradientUnits="userSpaceOnUse"
     cx="36"
     cy="8.6669998"
     r="136.1048" /><filter
     inkscape:collect="always"
     id="filter3804"><feGaussianBlur
       inkscape:collect="always"
       stdDeviation="0.3"
       id="feGaussianBlur3806" /></filter><filter
     inkscape:collect="always"
     id="filter3808"><feGaussianBlur
       inkscape:collect="always"
       stdDeviation="0.3"
       id="feGaussianBlur3810" /></filter><clipPath
     clipPathUnits="userSpaceOnUse"
     id="clipPath4208"><polygon
       transform="matrix(0.9375,0,0,0.9375,-3.75,3.5285)"
       id="polygon4210"
       points="98,0 22,0 6,24 114,24 98,0 "
       style="fill:#ff00bf" /></clipPath><filter
     inkscape:collect="always"
     id="filter4212"><feGaussianBlur
       inkscape:collect="always"
       stdDeviation="0.309375"
       id="feGaussianBlur4214" /></filter><filter
     inkscape:collect="always"
     x="-0.02933328"
     width="1.0586666"
     y="-0.13200108"
     height="1.2640022"
     id="filter4224"><feGaussianBlur
       inkscape:collect="always"
       stdDeviation="1.22222"
       id="feGaussianBlur4226" /></filter><radialGradient
     inkscape:collect="always"
     xlink:href="#XMLID_42_"
     id="radialGradient4404"
     gradientUnits="userSpaceOnUse"
     gradientTransform="matrix(0.8652412,0,0,0.9378038,11.836416,3.5062969)"
     cx="57.831947"
     cy="52.006832"
     fx="57.831947"
     fy="52.006832"
     r="66.173798" /><linearGradient
     inkscape:collect="always"
     xlink:href="#linearGradient3316"
     id="linearGradient4406"
     gradientUnits="userSpaceOnUse"
     x1="52"
     y1="16"
     x2="52"
     y2="128.07141" /><linearGradient
     inkscape:collect="always"
     xlink:href="#linearGradient3316"
     id="linearGradient4408"
     gradientUnits="userSpaceOnUse"
     gradientTransform="matrix(0.9375,0,0,0.9375,-3.75,3.5285)"
     x1="54"
     y1="0"
     x2="54"
     y2="28" /></defs><sodipodi:namedview
   inkscape:window-height="697"
   inkscape:window-width="1024"
   inkscape:pageshadow="2"
   inkscape:pageopacity="0.0"
   guidetolerance="10.0"
   gridtolerance="10.0"
   objecttolerance="10.0"
   borderopacity="1.0"
   bordercolor="#666666"
   pagecolor="#ffffff"
   id="base"
   inkscape:zoom="4"
   inkscape:cx="60"
   inkscape:cy="69.979548"
   inkscape:window-x="0"
   inkscape:window-y="0"
   inkscape:current-layer="g4228"
   width="128px"
   height="128px" />
<filter
   id="AI_Sfocatura_4">
	<feGaussianBlur
   stdDeviation="4"
   id="feGaussianBlur4" />
</filter>
<filter
   id="AI_Sfocatura_3">
	<feGaussianBlur
   stdDeviation="3"
   id="feGaussianBlur7" />
</filter>

<radialGradient
   id="XMLID_33_"
   cx="36"
   cy="8.6669998"
   r="136.1048"
   gradientUnits="userSpaceOnUse">
	<stop
   offset="0"
   style="stop-color:#c7c8c6;stop-opacity:1;"
   id="stop14" />
	<stop
   offset="0.6213"
   style="stop-color:#EEEEEC"
   id="stop16" />
	<stop
   offset="0.6787"
   style="stop-color:#E8E8E6"
   id="stop18" />
	<stop
   offset="0.7569"
   style="stop-color:#D7D9D4"
   id="stop20" />
	<stop
   offset="0.8465"
   style="stop-color:#BCBFB8"
   id="stop22" />
	<stop
   offset="0.8521"
   style="stop-color:#BABDB6"
   id="stop24" />
	<stop
   offset="1"
   style="stop-color:#888A85"
   id="stop26" />
</radialGradient>

<linearGradient
   id="XMLID_34_"
   gradientUnits="userSpaceOnUse"
   x1="60.0005"
   y1="113"
   x2="60.0005"
   y2="27.0005">
	<stop
   offset="0"
   style="stop-color:#888A85"
   id="stop31" />
	<stop
   offset="1"
   style="stop-color:#161716;stop-opacity:1;"
   id="stop33" />
</linearGradient>

<linearGradient
   id="XMLID_35_"
   gradientUnits="userSpaceOnUse"
   x1="60"
   y1="57.0005"
   x2="60"
   y2="32.001999">
	<stop
   offset="0"
   style="stop-color:#0057AE"
   id="stop38" />
	<stop
   offset="1"
   style="stop-color:#2A8AFF"
   id="stop40" />
</linearGradient>

<linearGradient
   id="XMLID_36_"
   gradientUnits="userSpaceOnUse"
   x1="60.0005"
   y1="23.667"
   x2="60.0005"
   y2="-0.333">
	<stop
   offset="0"
   style="stop-color:#D3D7CF"
   id="stop45" />
	<stop
   offset="1"
   style="stop-color:#888A85"
   id="stop47" />
</linearGradient>

<linearGradient
   id="XMLID_37_"
   gradientUnits="userSpaceOnUse"
   x1="59.9995"
   y1="22.0278"
   x2="59.9995"
   y2="24.0278">
	<stop
   offset="0"
   style="stop-color:#d3d7cf;stop-opacity:0;"
   id="stop52" />
	<stop
   offset="1"
   style="stop-color:#FFFFFF"
   id="stop54" />
</linearGradient>


<linearGradient
   id="XMLID_39_"
   gradientUnits="userSpaceOnUse"
   x1="60.0005"
   y1="112"
   x2="60.0005"
   y2="61">
	<stop
   offset="0"
   style="stop-color:#0057AE"
   id="stop68" />
	<stop
   offset="1"
   style="stop-color:#2A8AFF"
   id="stop70" />
</linearGradient>

<radialGradient
   id="XMLID_40_"
   cx="59.859901"
   cy="60.001499"
   r="65.890404"
   gradientTransform="matrix(0.9769,0,0,1,1.387,0)"
   gradientUnits="userSpaceOnUse">
	<stop
   offset="0.2604"
   style="stop-color:#B3E6FF"
   id="stop75" />
	<stop
   offset="0.7988"
   style="stop-color:#67A6FF"
   id="stop77" />
	<stop
   offset="1"
   style="stop-color:#2A8AFF"
   id="stop79" />
</radialGradient>

<linearGradient
   id="XMLID_41_"
   gradientUnits="userSpaceOnUse"
   x1="64.1875"
   y1="24.1675"
   x2="56.454102"
   y2="57.639198">
	<stop
   offset="0"
   style="stop-color:#ffffff;stop-opacity:1;"
   id="stop84" />
	<stop
   offset="1"
   style="stop-color:#ffffff;stop-opacity:0.29113925;"
   id="stop86" />
</linearGradient>

<radialGradient
   id="XMLID_42_"
   cx="59.859402"
   cy="61.601601"
   r="66.173798"
   gradientTransform="matrix(0.9769,0,0,1,1.387,0)"
   gradientUnits="userSpaceOnUse">
	<stop
   offset="0.2604"
   style="stop-color:#B3E6FF"
   id="stop91" />
	<stop
   offset="0.7988"
   style="stop-color:#67A6FF"
   id="stop93" />
	<stop
   offset="1"
   style="stop-color:#2A8AFF"
   id="stop95" />
</radialGradient>

<linearGradient
   id="XMLID_43_"
   gradientUnits="userSpaceOnUse"
   x1="74.484398"
   y1="45.179199"
   x2="54.374699"
   y2="95.453499">
	<stop
   offset="0"
   style="stop-color:#FFFFFF"
   id="stop100" />
	<stop
   offset="1"
   style="stop-color:#ffffff;stop-opacity:0.25316456;"
   id="stop102" />
</linearGradient>



<linearGradient
   id="XMLID_52_"
   gradientUnits="userSpaceOnUse"
   x1="60"
   y1="60.9995"
   x2="60"
   y2="58">
	<stop
   offset="0"
   style="stop-color:#FFFFFF"
   id="stop207" />
	<stop
   offset="0.1065"
   style="stop-color:#D3D7CF"
   id="stop209" />
	<stop
   offset="0.8"
   style="stop-color:#D3D7CF"
   id="stop211" />
	<stop
   offset="1"
   style="stop-color:#FFFFFF"
   id="stop213" />
</linearGradient>

<linearGradient
   id="XMLID_53_"
   gradientUnits="userSpaceOnUse"
   x1="59.9995"
   y1="57"
   x2="59.9995"
   y2="58">
	<stop
   offset="0"
   style="stop-color:#888A85"
   id="stop218" />
	<stop
   offset="1"
   style="stop-color:#555753"
   id="stop220" />
</linearGradient>

<radialGradient
   id="XMLID_54_"
   cx="60"
   cy="113.8516"
   r="33.1549"
   gradientUnits="userSpaceOnUse">
	<stop
   offset="0"
   style="stop-color:#323232"
   id="stop225" />
	<stop
   offset="1"
   style="stop-color:#FFFFFF"
   id="stop227" />
</radialGradient>

<linearGradient
   id="XMLID_55_"
   gradientUnits="userSpaceOnUse"
   x1="60"
   y1="32"
   x2="60"
   y2="29">
	<stop
   offset="0"
   style="stop-color:#FFFFFF"
   id="stop232" />
	<stop
   offset="0.1065"
   style="stop-color:#D3D7CF"
   id="stop234" />
	<stop
   offset="0.8"
   style="stop-color:#D3D7CF"
   id="stop236" />
	<stop
   offset="1"
   style="stop-color:#FFFFFF"
   id="stop238" />
</linearGradient>

<linearGradient
   id="XMLID_56_"
   gradientUnits="userSpaceOnUse"
   x1="59.9995"
   y1="28"
   x2="59.9995"
   y2="29">
	<stop
   offset="0"
   style="stop-color:#888A85"
   id="stop243" />
	<stop
   offset="1"
   style="stop-color:#555753"
   id="stop245" />
</linearGradient>

<linearGradient
   id="XMLID_57_"
   gradientUnits="userSpaceOnUse"
   x1="59.9995"
   y1="58.0005"
   x2="59.9995"
   y2="61.0005"
   gradientTransform="matrix(1,0,0,-0.6667,0,101.6672)">
	<stop
   offset="0"
   style="stop-color:#FFFFFF"
   id="stop250" />
	<stop
   offset="1"
   style="stop-color:#000000"
   id="stop252" />
</linearGradient>

<linearGradient
   id="XMLID_58_"
   gradientUnits="userSpaceOnUse"
   x1="59.9995"
   y1="54.431599"
   x2="59.9995"
   y2="56.981098">
	<stop
   offset="0"
   style="stop-color:#6193cf;stop-opacity:0;"
   id="stop257" />
	<stop
   offset="1"
   style="stop-color:#254c7c;stop-opacity:1;"
   id="stop259" />
</linearGradient>

<linearGradient
   id="XMLID_59_"
   gradientUnits="userSpaceOnUse"
   x1="60.0005"
   y1="34"
   x2="60.0005"
   y2="32">
	<stop
   offset="0"
   style="stop-color:#000000;stop-opacity:0;"
   id="stop264" />
	<stop
   offset="1"
   style="stop-color:#000000"
   id="stop266" />
</linearGradient>

<linearGradient
   id="XMLID_60_"
   gradientUnits="userSpaceOnUse"
   x1="13.8301"
   y1="112.5"
   x2="106.1699"
   y2="112.5">
	<stop
   offset="0"
   style="stop-color:#FFFFFF"
   id="stop271" />
	<stop
   offset="0.5"
   style="stop-color:#DDDDDD"
   id="stop273" />
	<stop
   offset="1"
   style="stop-color:#FFFFFF"
   id="stop275" />
</linearGradient>

<linearGradient
   id="XMLID_61_"
   gradientUnits="userSpaceOnUse"
   x1="59.9995"
   y1="109.4316"
   x2="59.9995"
   y2="111.9807">
	<stop
   offset="0"
   style="stop-color:#FFFFFF"
   id="stop280" />
	<stop
   offset="1"
   style="stop-color:#2C72C7"
   id="stop282" />
</linearGradient>

<g
   id="g4228"
   transform="translate(-1.875,0)"><g
     id="g4318"
     transform="translate(-1.875,0)"><g
       id="g9"
       style="opacity:0.7;filter:url(#filter4224)"
       transform="matrix(0.9375,0,0,0.9375,7.5,5.4035)">
	<polygon
   points="95.185,94.778 24.815,94.778 10,117 110,117 95.185,94.778 "
   id="polygon11" />
</g><polygon
       style="fill:url(#radialGradient3792)"
       points="110,116 10,116 6,24 114,24 110,116 "
       id="polygon28"
       transform="matrix(0.9375,0,0,0.9375,7.5,3.5285)" /><path
       style="fill:url(#linearGradient3178)"
       d="M 108.51774,29.116779 C 108.35035,28.932031 108.11917,28.826997 107.87738,28.826997 L 19.622612,28.826997 C 19.380817,28.826997 19.149648,28.931094 18.983137,29.116779 C 18.815738,29.301526 18.727168,29.550044 18.737798,29.806065 L 21.972377,108.58158 C 21.992748,109.0833 22.383342,109.47906 22.857192,109.47906 L 104.64279,109.47906 C 105.11665,109.47906 105.50725,109.0833 105.52762,108.58158 L 108.7622,29.806065 C 108.77283,29.550044 108.68426,29.300588 108.51774,29.116779 z"
       id="path35" /><polygon
       style="fill:url(#linearGradient3180)"
       points="10.352,32.002 11.438,57 108.562,56.999 109.647,32.017 10.352,32.002 "
       id="polygon42"
       transform="matrix(0.8857008,0,0,0.9378038,10.607949,3.5062969)" /><polygon
       style="fill:url(#linearGradient3182)"
       points="98,0 22,0 6,24 114,24 98,0 "
       id="polygon49"
       transform="matrix(0.9375,0,0,0.9375,7.5,3.5285)" /><path
       style="fill:url(#linearGradient3773)"
       d="M 99.47917,18.5285 L 36.458333,12.9035 L 14.0625,26.0285 L 113.4375,26.0285 L 99.47917,18.5285 z"
       id="polygon56"
       sodipodi:nodetypes="ccccc" /><g
       style="opacity:0.6;filter:url(#AI_Sfocatura_3)"
       id="g58"
       transform="matrix(0.9375,0,0,0.9375,7.5,3.5285)">
	<radialGradient
   id="XMLID_38_"
   cx="60.4771"
   cy="11"
   r="30.797199"
   fx="60.3022"
   fy="26.068399"
   gradientUnits="userSpaceOnUse">
		<stop
   offset="0"
   style="stop-color:#FFFFFF"
   id="stop61" />
		<stop
   offset="1"
   style="stop-color:#D3D7CF"
   id="stop63" />
	</radialGradient>
	<path
   style="fill:url(#XMLID_38_)"
   d="M 52.667,2 C 26.925,2 21.422,5.667 18,17.19 C 16.953,20 22.197,20 24.397,20 L 85.602,20 C 87.802,20 104.459,18.653 102.999,17.008 C 102.999,17.008 99.865,2.8 71.666,5 C 66.795,4.025 52.667,2 52.667,2 z"
   id="path65" />
</g><path
       style="fill:url(#linearGradient3186)"
       d="M 20.892707,60.712324 C 21.735895,81.251163 22.707508,104.896 22.857192,108.54031 C 28.881729,108.54031 98.618264,108.54031 104.64279,108.54031 C 104.79248,104.896 105.7641,81.251163 106.60729,60.712324 L 20.892707,60.712324 z"
       id="path72" /><polygon
       style="fill:url(#radialGradient3188)"
       points="11.5,32.002 12.561,57 107.438,56.999 108.5,32.017 11.5,32.002 "
       id="polygon81"
       transform="matrix(0.8857008,0,0,0.9378038,10.607949,3.5062969)" /><path
       style="opacity:0.5;fill:url(#linearGradient3190)"
       d="M 66.4071,48.208586 C 80.45166,50.411487 92.602589,53.827906 101.80768,56.961109 L 105.76675,56.961109 L 106.70738,33.532896 L 20.830708,33.519767 C 30.447648,39.408237 50.878993,45.772173 66.4071,48.208586 z"
       id="path88" /><path
       style="fill:url(#radialGradient4404)"
       d="M 21.883806,60.712324 C 22.707508,81.251163 23.656094,104.896 23.80312,108.54031 C 29.688602,108.54031 97.813166,108.54031 103.69776,108.54031 C 103.8439,104.896 104.79248,81.251163 105.61707,60.712324 L 21.883806,60.712324 z"
       id="path97" /><path
       style="opacity:0.5;fill:url(#linearGradient3194)"
       d="M 70.835605,88.846435 C 86.641822,93.17815 97.047035,98.443918 103.8997,103.49681 C 104.25309,94.670196 104.97317,76.745954 105.61619,60.712324 L 21.883806,60.712324 C 21.947577,62.300026 45.315022,81.851358 70.835605,88.846435 z"
       id="path104" /><g
       id="g106"
       transform="matrix(0.9375,0,0,0.9375,7.5,3.5285)">
	<linearGradient
   id="XMLID_44_"
   gradientUnits="userSpaceOnUse"
   x1="60"
   y1="70"
   x2="60"
   y2="59.82">
		<stop
   offset="0"
   style="stop-color:#599CFF"
   id="stop109" />
		<stop
   offset="1"
   style="stop-color:#FFFFFF"
   id="stop111" />
	</linearGradient>
	<path
   style="fill:url(#XMLID_44_)"
   d="M 44.965,59.031 C 44.678,59.233 44.489,59.62 44.489,59.972 C 44.489,60.045 44.497,60.117 44.514,60.184 L 46.544,68.303 C 46.923,69.815 48.44,71 50,71 L 70,71 C 71.56,71 73.078,69.814 73.456,68.302 L 75.485,60.183 C 75.584,59.787 75.38,59.268 75.03,59.027 C 72.794,57.742 47.245,57.741 44.965,59.031 z"
   id="path113" />
	<linearGradient
   id="XMLID_45_"
   gradientUnits="userSpaceOnUse"
   x1="60"
   y1="70"
   x2="60"
   y2="59.82">
		<stop
   offset="0"
   style="stop-color:#BBBBBB"
   id="stop116" />
		<stop
   offset="1"
   style="stop-color:#323232"
   id="stop118" />
	</linearGradient>
	<path
   style="fill:url(#XMLID_45_)"
   d="M 72.485,68.06 C 72.219,69.127 71.1,70 70,70 L 50,70 C 48.9,70 47.782,69.127 47.515,68.06 L 45.485,59.941 C 45.218,58.874 74.781,58.874 74.515,59.941 L 72.485,68.06 z"
   id="path120" />
	<linearGradient
   id="XMLID_46_"
   gradientUnits="userSpaceOnUse"
   x1="59.889198"
   y1="70"
   x2="59.889198"
   y2="59.82">
		<stop
   offset="0"
   style="stop-color:#888A85"
   id="stop123" />
		<stop
   offset="1"
   style="stop-color:#323232"
   id="stop125" />
	</linearGradient>
	<path
   style="fill:url(#XMLID_46_)"
   d="M 46.455,59.698 L 46.455,59.698 L 46.455,59.698 z M 46.677,60.586 C 47.03,61.996 48.485,67.817 48.485,67.817 C 48.64,68.437 49.362,69 50,69 L 70,69 C 70.639,69 71.36,68.437 71.516,67.817 C 71.516,67.817 72.805,62.656 73.323,60.586 C 69.27,60.014 50.73,60.014 46.677,60.586 z"
   id="path127" />
	<path
   style="fill:#2e3436;filter:url(#filter3804)"
   d="M 50,60 C 49.448,60 49,60.448 49,61 L 49,67 C 49,67.553 49.448,68 50,68 L 70,68 C 70.553,68 71,67.553 71,67 L 71,61 C 71,60.448 70.553,60 70,60 L 50,60 z"
   id="path129" />
	<linearGradient
   id="XMLID_47_"
   gradientUnits="userSpaceOnUse"
   x1="60.0005"
   y1="66"
   x2="60.0005"
   y2="60.375801">
		<stop
   offset="0"
   style="stop-color:#BBBBBB"
   id="stop132" />
		<stop
   offset="0.05"
   style="stop-color:#DDDDDD"
   id="stop134" />
		<stop
   offset="0.1243"
   style="stop-color:#FFFFFF"
   id="stop136" />
		<stop
   offset="0.4889"
   style="stop-color:#FDFDFD"
   id="stop138" />
		<stop
   offset="0.6274"
   style="stop-color:#F6F7F6"
   id="stop140" />
		<stop
   offset="0.7274"
   style="stop-color:#EBEBEA"
   id="stop142" />
		<stop
   offset="0.8088"
   style="stop-color:#DADBD9"
   id="stop144" />
		<stop
   offset="0.879"
   style="stop-color:#C4C5C3"
   id="stop146" />
		<stop
   offset="0.9402"
   style="stop-color:#AAABA8"
   id="stop148" />
		<stop
   offset="0.9956"
   style="stop-color:#8B8D88"
   id="stop150" />
		<stop
   offset="1"
   style="stop-color:#888A85"
   id="stop152" />
	</linearGradient>
	<path
   style="fill:url(#XMLID_47_)"
   d="M 50,59 C 49.448,59 49,59.448 49,60 L 49,66 C 49,66.553 49.448,67 50,67 L 70,67 C 70.553,67 71,66.553 71,66 L 71,60 C 71,59.448 70.553,59 70,59 L 50,59 z"
   id="path154" />
</g><g
       id="g156"
       transform="matrix(0.9375,0,0,0.9375,7.5,3.5285)">
	<linearGradient
   id="XMLID_48_"
   gradientUnits="userSpaceOnUse"
   x1="60"
   y1="41"
   x2="60"
   y2="30.819599">
		<stop
   offset="0"
   style="stop-color:#599CFF"
   id="stop159" />
		<stop
   offset="1"
   style="stop-color:#FFFFFF"
   id="stop161" />
	</linearGradient>
	<path
   style="opacity:0.8;fill:url(#XMLID_48_)"
   d="M 44.965,30.031 C 44.678,30.233 44.489,30.62 44.489,30.972 C 44.489,31.045 44.497,31.117 44.514,31.184 L 46.544,39.303 C 46.923,40.815 48.44,42 50,42 L 70,42 C 71.56,42 73.078,40.814 73.456,39.302 L 75.485,31.183 C 75.584,30.787 75.38,30.268 75.03,30.027 C 72.794,28.742 47.245,28.741 44.965,30.031 z"
   id="path163" />
	<linearGradient
   id="XMLID_49_"
   gradientUnits="userSpaceOnUse"
   x1="60"
   y1="41"
   x2="60"
   y2="30.82">
		<stop
   offset="0"
   style="stop-color:#BBBBBB"
   id="stop166" />
		<stop
   offset="1"
   style="stop-color:#323232"
   id="stop168" />
	</linearGradient>
	<path
   style="fill:url(#XMLID_49_)"
   d="M 72.485,39.06 C 72.219,40.127 71.1,41 70,41 L 50,41 C 48.9,41 47.782,40.127 47.515,39.06 L 45.485,30.941 C 45.218,29.874 74.781,29.874 74.515,30.941 L 72.485,39.06 z"
   id="path170" />
	<linearGradient
   id="XMLID_50_"
   gradientUnits="userSpaceOnUse"
   x1="59.889198"
   y1="41"
   x2="59.889198"
   y2="30.82">
		<stop
   offset="0"
   style="stop-color:#888A85"
   id="stop173" />
		<stop
   offset="1"
   style="stop-color:#323232"
   id="stop175" />
	</linearGradient>
	<path
   style="fill:url(#XMLID_50_)"
   d="M 46.455,30.698 L 46.455,30.698 L 46.455,30.698 z M 46.677,31.586 C 47.03,32.996 48.485,38.817 48.485,38.817 C 48.64,39.437 49.362,40 50,40 L 70,40 C 70.639,40 71.36,39.437 71.516,38.817 C 71.516,38.817 72.805,33.656 73.323,31.586 C 69.27,31.014 50.73,31.014 46.677,31.586 z"
   id="path177" />
	<path
   style="fill:#2e3436;filter:url(#filter3808)"
   d="M 50,31 C 49.448,31 49,31.448 49,32 L 49,38 C 49,38.553 49.448,39 50,39 L 70,39 C 70.553,39 71,38.553 71,38 L 71,32 C 71,31.448 70.553,31 70,31 L 50,31 z"
   id="path179" />
	<linearGradient
   id="XMLID_51_"
   gradientUnits="userSpaceOnUse"
   x1="60.0005"
   y1="37"
   x2="60.0005"
   y2="31.375799">
		<stop
   offset="0"
   style="stop-color:#BBBBBB"
   id="stop182" />
		<stop
   offset="0.05"
   style="stop-color:#DDDDDD"
   id="stop184" />
		<stop
   offset="0.1243"
   style="stop-color:#FFFFFF"
   id="stop186" />
		<stop
   offset="0.4889"
   style="stop-color:#FDFDFD"
   id="stop188" />
		<stop
   offset="0.6274"
   style="stop-color:#F6F7F6"
   id="stop190" />
		<stop
   offset="0.7274"
   style="stop-color:#EBEBEA"
   id="stop192" />
		<stop
   offset="0.8088"
   style="stop-color:#DADBD9"
   id="stop194" />
		<stop
   offset="0.879"
   style="stop-color:#C4C5C3"
   id="stop196" />
		<stop
   offset="0.9402"
   style="stop-color:#AAABA8"
   id="stop198" />
		<stop
   offset="0.9956"
   style="stop-color:#8B8D88"
   id="stop200" />
		<stop
   offset="1"
   style="stop-color:#888A85"
   id="stop202" />
	</linearGradient>
	<path
   style="fill:url(#XMLID_51_)"
   d="M 50,30 C 49.448,30 49,30.448 49,31 L 49,37 C 49,37.553 49.448,38 50,38 L 70,38 C 70.553,38 71,37.553 71,37 L 71,31 C 71,30.448 70.553,30 70,30 L 50,30 z"
   id="path204" />
</g><polygon
       style="fill:url(#linearGradient3196)"
       points="108.388,61 109.518,58 10.482,58 11.612,61 108.388,61 "
       id="polygon215"
       transform="matrix(0.8857008,0,0,0.9378038,10.607949,3.5062969)" /><polygon
       style="opacity:0.9;fill:url(#linearGradient3198)"
       points="108.562,57 11.439,57 10.482,58 109.518,58 108.562,57 "
       id="polygon222"
       transform="matrix(0.8857008,0,0,0.9378038,10.607949,3.5062969)" /><path
       style="opacity:0.3;fill:url(#radialGradient3234)"
       d="M 19.805625,109.1885 C 19.805625,109.1885 30.210937,111.341 60.852187,111.341 C 91.493437,111.341 107.69437,109.1885 107.69437,109.1885 L 19.805625,109.1885 z"
       id="path229" /><polygon
       style="fill:url(#linearGradient3202)"
       points="109.648,32 110.778,29 9.221,29 10.352,32 109.648,32 "
       id="polygon240"
       transform="matrix(0.8857008,0,0,0.9378038,10.607949,3.5062969)" /><path
       style="opacity:0.9;fill:url(#linearGradient3230)"
       d="M 108.72411,30.702604 C 108.74006,30.321856 107.86676,30.004879 107.87738,29.764801 L 19.622612,29.764801 C 19.632355,30.004879 18.75994,30.321856 18.774996,30.702604 L 108.72411,30.702604 z"
       id="path247" /><path
       style="opacity:0.9;fill:url(#linearGradient3227)"
       d="M 105.78093,56.594428 C 102.68629,55.4278 85.04756,53.596572 63.749998,53.596572 C 42.450666,53.596572 24.811048,55.4278 21.71818,56.594428 L 21.733237,56.961109 L 105.76587,56.960172 L 105.78093,56.594428 z"
       id="path261"
       sodipodi:nodetypes="cscccc" /><path
       style="opacity:0.5;fill:url(#linearGradient3224)"
       d="M 107.6471,35.391623 C 107.67456,34.723907 107.70023,34.097454 107.72416,33.516016 L 19.776724,33.516016 C 19.776724,33.516016 19.826324,34.723907 19.853781,35.391623 L 107.6471,35.391623 z"
       id="path268" /><path
       style="fill:url(#linearGradient3221)"
       d="M 105.26633,109.20053 L 104.64279,108.54031 L 22.857192,108.54031 L 22.233658,109.20053 C 22.39397,109.3712 22.613624,109.47812 22.857192,109.47812 L 104.64279,109.47812 C 104.88637,109.47812 105.10513,109.3712 105.26633,109.20053 z"
       id="path277" /><polygon
       id="polygon3034"
       points="108.388,61 108.301,63 11.699,63 11.612,61 108.388,61 "
       style="opacity:0.5;fill:url(#linearGradient3212);fill-opacity:1"
       transform="matrix(0.8857008,0,0,0.9378038,10.607949,3.5062969)" /><path
       id="path3038"
       d="M 103.71901,108.00202 C 99.583682,106.92168 83.264645,104.23828 63.749998,104.23828 C 44.234467,104.23828 27.916315,106.92074 23.780979,108.00202 C 23.788949,108.20927 23.796921,108.39589 23.802235,108.54031 C 29.687716,108.54031 97.812281,108.54031 103.69687,108.54031 C 103.70307,108.39589 103.71016,108.20833 103.71901,108.00202 z"
       style="opacity:1;fill:url(#linearGradient3217);fill-opacity:1"
       sodipodi:nodetypes="cscccc" /><path
       transform="matrix(0.9375,0,0,0.9375,7.5,3.5285)"
       style="opacity:0.9;fill:none;stroke:url(#linearGradient4406);stroke-width:2;stroke-miterlimit:4;stroke-dasharray:none;stroke-opacity:1;filter:url(#filter3709)"
       clip-path="url(#clipPath3777)"
       d="M 114,24 L 110,116 L 10,116 L 6,24"
       id="polygon3310"
       sodipodi:nodetypes="cccc" /><path
       style="fill:url(#linearGradient3786);fill-opacity:1"
       d="M 110.625,28.841 L 16.875,28.841 L 13.125,26.0285 L 114.375,26.0285 L 110.625,28.841 z"
       id="polygon3781"
       sodipodi:nodetypes="ccccc" /><path
       style="fill:none;stroke:url(#linearGradient4408);stroke-width:0.9375;stroke-opacity:1;filter:url(#filter4212)"
       d="M 103.125,26.0285 L 88.125,3.5285 L 16.875,3.5285 L 1.875,26.0285"
       id="polygon3814"
       sodipodi:nodetypes="cccc"
       clip-path="url(#clipPath4208)"
       transform="translate(11.25,0)" /></g></g></svg>