<?xml version="1.0" encoding="UTF-8" standalone="no"?>
<!-- Created with Inkscape (http://www.inkscape.org/) -->
<svg
   xmlns:dc="http://purl.org/dc/elements/1.1/"
   xmlns:cc="http://creativecommons.org/ns#"
   xmlns:rdf="http://www.w3.org/1999/02/22-rdf-syntax-ns#"
   xmlns:svg="http://www.w3.org/2000/svg"
   xmlns="http://www.w3.org/2000/svg"
   xmlns:xlink="http://www.w3.org/1999/xlink"
   xmlns:sodipodi="http://sodipodi.sourceforge.net/DTD/sodipodi-0.dtd"
   xmlns:inkscape="http://www.inkscape.org/namespaces/inkscape"
   version="1.0"
   width="128"
   height="128"
   id="svg2606"
   sodipodi:version="0.32"
   inkscape:version="0.46"
   sodipodi:docname="go-next-view.svgz"
   inkscape:output_extension="org.inkscape.output.svgz.inkscape"
   inkscape:export-filename="/home/pinheiro/pics/oxygen/scalable/actions/go-next-view.png"
   inkscape:export-xdpi="90"
   inkscape:export-ydpi="90">
  <metadata
     id="metadata46">
    <rdf:RDF>
      <cc:Work
         rdf:about="">
        <dc:format>image/svg+xml</dc:format>
        <dc:type
           rdf:resource="http://purl.org/dc/dcmitype/StillImage" />
      </cc:Work>
    </rdf:RDF>
  </metadata>
  <sodipodi:namedview
     inkscape:window-height="480"
     inkscape:window-width="640"
     inkscape:pageshadow="2"
     inkscape:pageopacity="0.0"
     guidetolerance="10.0"
     gridtolerance="10.0"
     objecttolerance="10.0"
     borderopacity="1.0"
     bordercolor="#666666"
     pagecolor="#ffffff"
     id="base"
     showgrid="false" />
  <defs
     id="defs2608">
    <inkscape:perspective
       sodipodi:type="inkscape:persp3d"
       inkscape:vp_x="0 : 64 : 1"
       inkscape:vp_y="0 : 1000 : 0"
       inkscape:vp_z="128 : 64 : 1"
       inkscape:persp3d-origin="64 : 42.666667 : 1"
       id="perspective48" />
    <linearGradient
       id="linearGradient3449">
      <stop
         id="stop3451"
         style="stop-color:#000000;stop-opacity:1"
         offset="0" />
      <stop
         id="stop3453"
         style="stop-color:#000000;stop-opacity:0"
         offset="1" />
    </linearGradient>
    <linearGradient
       id="linearGradient3295">
      <stop
         id="stop3297"
         style="stop-color:#63e9ff;stop-opacity:1"
         offset="0" />
      <stop
         id="stop3299"
         style="stop-color:#ffffff;stop-opacity:0"
         offset="1" />
    </linearGradient>
    <linearGradient
       id="linearGradient3260">
      <stop
         id="stop3262"
         style="stop-color:#ffffff;stop-opacity:1"
         offset="0" />
      <stop
         id="stop3264"
         style="stop-color:#ffffff;stop-opacity:0"
         offset="1" />
    </linearGradient>
    <linearGradient
       id="linearGradient3202">
      <stop
         id="stop3204"
         style="stop-color:#cdeeff;stop-opacity:1"
         offset="0" />
      <stop
         id="stop3206"
         style="stop-color:#d2e8ed;stop-opacity:0"
         offset="1" />
    </linearGradient>
    <filter
       id="filter3387"
       height="1.249912"
       y="-0.12495601"
       width="1.2041403"
       x="-0.10207015">
      <feGaussianBlur
         id="feGaussianBlur3389"
         stdDeviation="0.44655691"
         inkscape:collect="always" />
    </filter>
    <linearGradient
       id="linearGradient6404">
      <stop
         id="stop6406"
         style="stop-color:#081e3e;stop-opacity:1"
         offset="0" />
      <stop
         id="stop6408"
         style="stop-color:#387de4;stop-opacity:1"
         offset="1" />
    </linearGradient>
    <linearGradient
       id="linearGradient6666">
      <stop
         id="stop6668"
         style="stop-color:#9fc1f2;stop-opacity:1"
         offset="0" />
      <stop
         id="stop3183"
         style="stop-color:#587eb5;stop-opacity:1"
         offset="0.5" />
      <stop
         id="stop6670"
         style="stop-color:#0c2a58;stop-opacity:1"
         offset="1" />
    </linearGradient>
    <filter
       id="filter3187">
      <feGaussianBlur
         id="feGaussianBlur3189"
         stdDeviation="0.56525828"
         inkscape:collect="always" />
    </filter>
    <linearGradient
       x1="73.742638"
       y1="15.336544"
       x2="78.939339"
       y2="16.750759"
       id="linearGradient5430"
       xlink:href="#linearGradient3260"
       gradientUnits="userSpaceOnUse"
       spreadMethod="reflect" />
    <linearGradient
       x1="74.75"
       y1="14.275884"
       x2="78.939339"
       y2="16.750759"
       id="linearGradient5432"
       xlink:href="#linearGradient3295"
       gradientUnits="userSpaceOnUse"
       spreadMethod="reflect" />
    <linearGradient
       x1="179.17224"
       y1="123.75864"
       x2="173.98071"
       y2="65.448112"
       id="linearGradient5436"
       xlink:href="#linearGradient3295"
       gradientUnits="userSpaceOnUse"
       gradientTransform="translate(97,0)" />
    <linearGradient
       x1="196.46846"
       y1="63.138515"
       x2="52.218468"
       y2="66.224457"
       id="linearGradient2246"
       xlink:href="#linearGradient3260"
       gradientUnits="userSpaceOnUse"
       gradientTransform="translate(-20.212526,-0.1385179)" />
    <linearGradient
       x1="87.468468"
       y1="-0.36148256"
       x2="116.71847"
       y2="106.42756"
       id="linearGradient2249"
       xlink:href="#linearGradient3260"
       gradientUnits="userSpaceOnUse"
       gradientTransform="translate(-20.212526,-0.1385179)" />
    <linearGradient
       x1="47.968472"
       y1="16.138517"
       x2="49.218472"
       y2="85.427559"
       id="linearGradient2252"
       xlink:href="#linearGradient3202"
       gradientUnits="userSpaceOnUse"
       gradientTransform="translate(-20.5,0)" />
    <radialGradient
       cx="172"
       cy="76"
       r="56"
       fx="188.88173"
       fy="121.44213"
       id="radialGradient2256"
       xlink:href="#linearGradient6666"
       gradientUnits="userSpaceOnUse"
       gradientTransform="matrix(-1,0,0,0.9801409,216,-10.49071)" />
    <radialGradient
       cx="-16.668488"
       cy="86.826965"
       r="60"
       fx="-16.668488"
       fy="86.826965"
       id="radialGradient2261"
       xlink:href="#linearGradient3449"
       gradientUnits="userSpaceOnUse"
       gradientTransform="matrix(-0.2586607,-0.5212474,-0.8274344,0.4106011,143.53945,50.055595)" />
    <linearGradient
       x1="194.5"
       y1="123.90683"
       x2="104.25"
       y2="5.1559582"
       id="linearGradient2264"
       xlink:href="#linearGradient6404"
       gradientUnits="userSpaceOnUse"
       gradientTransform="matrix(-1,0,0,0.8610463,216,-1.4361867)" />
  </defs>
  <path
     d="m 34.78125,12.165446 67.66681,48.982338 C 103.4314,61.853052 104,62.898046 104,64 c 0,1.101954 -0.5686,2.146948 -1.55194,2.852216 L 34.09375,115.82531 C 29.95063,118.4557 24,118.82842 24,113 l 0,-97.000001 c 0,-3.891136 7.02052,-6.5532932 10.78125,-3.834553 z"
     id="path2488"
     style="fill:url(#linearGradient2264);fill-opacity:1;fill-rule:evenodd;stroke:none" />
  <path
     d="m 34.78125,12.165446 67.66681,48.982338 C 103.4314,61.853052 104,62.898046 104,64 c 0,1.101954 -0.5686,2.146948 -1.55194,2.852216 L 34.09375,115.82531 C 29.95063,118.4557 24,118.82842 24,113 l 0,-97.000001 c 0,-3.891136 7.02052,-6.5532932 10.78125,-3.834553 z"
     id="path3532"
     style="opacity:0.25468164;fill:url(#radialGradient2261);fill-opacity:1;fill-rule:evenodd;stroke:none" />
  <path
     d="m 72.5,11.0625 c -1.077088,0.06528 -2.113901,0.376786 -3,0.9375 L 71.875,19.625 80,16.46875 80,16 c 0,-2.918352 -3.938921,-5.15334 -7.5,-4.9375 z"
     transform="matrix(-1,0,0,1,104,0)"
     id="path3272"
     style="fill:url(#linearGradient5430);fill-opacity:1;fill-rule:evenodd;stroke:none;filter:url(#filter3387)" />
  <path
     d="m 72.5,11.0625 c -1.077088,0.06528 -2.113901,0.376786 -3,0.9375 L 71.875,19.625 80,16.46875 80,16 c 0,-2.918352 -3.938921,-5.15334 -7.5,-4.9375 z"
     transform="matrix(-0.8316412,0,0,-1,90.5313,128.78415)"
     id="path3391"
     style="opacity:0.70411987;fill:url(#linearGradient5432);fill-opacity:1;fill-rule:evenodd;stroke:none;filter:url(#filter3387)" />
  <path
     d="m 34.44956,17.046046 64.04497,45.065772 c 1.3858,1.385794 1.16397,2.601193 0.10244,3.662724 L 36,109.70001 c -4,3.08417 -8,3.2487 -8,0 l 0,-90.532242 c 0,-2.747298 3.15287,-4.025068 6.44956,-2.121722 z"
     id="path3474"
     style="fill:url(#radialGradient2256);fill-opacity:1;fill-rule:evenodd;stroke:none" />
  <path
     d="m 278.55044,21.46494 -64.44497,52.342019 c -1.3858,1.609542 -1.16397,3.021178 -0.10244,4.254102 L 277,129.07866 c 4,3.58214 8,3.77323 8,0 l 0,-105.149428 c 0,-3.190873 -3.15287,-4.674949 -6.44956,-2.464292 z"
     transform="matrix(-1,0,0,0.8609865,313.40303,-1.4349776)"
     id="path3471"
     style="fill:none;stroke:url(#linearGradient5436);stroke-width:1.07770979;stroke-linecap:round;stroke-linejoin:round;stroke-miterlimit:4;stroke-opacity:1;stroke-dasharray:none;filter:url(#filter3187)" />
  <path
     d="M 30.96875,16.15625 C 29.240202,16.307374 28,17.439188 28,19.15625 L 28,44 28,66.84375 c 23.558347,-0.754489 45.089413,-4.534135 62.375,-10.4375 l -55.9375,-39.375 c -1.236259,-0.713755 -2.431621,-0.965675 -3.46875,-0.875 z"
     id="path2232"
     style="fill:url(#linearGradient2252);fill-opacity:1;fill-rule:evenodd;stroke:none" />
  <path
     d="m 30.96875,16.125 c -0.87317,0.07634 -1.59797,0.411641 -2.125,0.9375 -0.25546,0.254891 -0.48467,0.532273 -0.625,0.875 -0.0037,0.0087 0.0036,0.0225 0,0.03125 -0.06633,0.166985 -0.12089,0.345765 -0.15625,0.53125 -0.002,0.01003 0.0019,0.02116 0,0.03125 C 28.02875,18.718072 28,18.920992 28,19.125 c -9e-5,0.01058 0,0.02062 0,0.03125 l 0,1 0,23.59375 0.03125,0 L 29.125,19 c 0.371681,-2.273701 3.305578,-2.177727 5.3125,-0.96875 l 54.84375,38 C 75.755462,60.953885 58.06048,64.473292 40.3125,66.09375 58.61652,64.647077 75.35134,61.3673 89.375,56.6875 l 0.03125,0.03125 c 0.32046,-0.107042 0.65114,-0.20403 0.96875,-0.3125 L 90.34375,56.375 59.90625,34.9375 34.4375,17.03125 c -1.05795,-0.61081 -2.07548,-0.865902 -3,-0.875 0.02247,-0.0084 0.03975,-0.02331 0.0625,-0.03125 -0.17747,-0.004 -0.36172,-0.01482 -0.53125,0 z"
     id="path3462"
     style="fill:url(#linearGradient2249);fill-opacity:1;fill-rule:evenodd;stroke:none" />
  <path
     d="m 30.96875,16.125 c -0.87317,0.07634 -1.59797,0.411641 -2.125,0.9375 -0.25546,0.254891 -0.48467,0.532273 -0.625,0.875 -0.0037,0.0087 0.0036,0.0225 0,0.03125 -0.06633,0.166985 -0.12089,0.345765 -0.15625,0.53125 -0.002,0.01003 0.0019,0.02116 0,0.03125 C 28.02875,18.718072 28,18.920992 28,19.125 c -9e-5,0.01058 0,0.02062 0,0.03125 l 0,1 0,23.59375 0.03125,0 L 29.125,19 c 0.371681,-2.273701 3.305578,-2.177727 5.3125,-0.96875 l 54.84375,38 C 75.755462,60.953885 58.06048,64.473292 40.3125,66.09375 58.61652,64.647077 75.35134,61.3673 89.375,56.6875 l 0.03125,0.03125 c 0.32046,-0.107042 0.65114,-0.20403 0.96875,-0.3125 L 90.34375,56.375 59.90625,34.9375 34.4375,17.03125 c -1.05795,-0.61081 -2.07548,-0.865902 -3,-0.875 0.02247,-0.0084 0.03975,-0.02331 0.0625,-0.03125 -0.17747,-0.004 -0.36172,-0.01482 -0.53125,0 z"
     id="path3524"
     style="fill:url(#linearGradient2246);fill-opacity:1;fill-rule:evenodd;stroke:none" />
</svg>
