<?xml version="1.0" encoding="UTF-8" standalone="no"?>
<!-- Generator: Adobe Illustrator 12.0.0, SVG Export Plug-In . SVG Version: 6.00 Build 51448)  -->
<svg
   xmlns:ns="http://ns.adobe.com/SaveForWeb/1.0/"
   xmlns:dc="http://purl.org/dc/elements/1.1/"
   xmlns:cc="http://creativecommons.org/ns#"
   xmlns:rdf="http://www.w3.org/1999/02/22-rdf-syntax-ns#"
   xmlns:svg="http://www.w3.org/2000/svg"
   xmlns="http://www.w3.org/2000/svg"
   xmlns:xlink="http://www.w3.org/1999/xlink"
   xmlns:sodipodi="http://sodipodi.sourceforge.net/DTD/sodipodi-0.dtd"
   xmlns:inkscape="http://www.inkscape.org/namespaces/inkscape"
   version="1.1"
   id="Layer_1"
   width="128"
   height="128"
   viewBox="0 0 128 128"
   overflow="visible"
   enable-background="new 0 0 128 128"
   xml:space="preserve"
   sodipodi:version="0.32"
   inkscape:version="0.46"
   sodipodi:docname="irc-operator.svgz"
   sodipodi:docbase="/Users/david/Desktop/sandbox"
   inkscape:output_extension="org.inkscape.output.svgz.inkscape"
   inkscape:export-filename="/home/pinheiro/pics/oxygen/scalable/actions/irc-operator.png"
   inkscape:export-xdpi="90"
   inkscape:export-ydpi="90"><defs
   id="defs105"><linearGradient
     inkscape:collect="always"
     id="linearGradient5365"><stop
       style="stop-color:#ffffff;stop-opacity:1;"
       offset="0"
       id="stop5367" /><stop
       style="stop-color:#ffffff;stop-opacity:0;"
       offset="1"
       id="stop5369" /></linearGradient><linearGradient
     id="linearGradient5347"><stop
       id="stop5349"
       offset="0"
       style="stop-color:#d4d4d4;stop-opacity:1;" /><stop
       style="stop-color:#efefef;stop-opacity:1;"
       offset="0.375"
       id="stop5351" /><stop
       id="stop5353"
       offset="0.375"
       style="stop-color:#c2c2c2;stop-opacity:1;" /><stop
       style="stop-color:#ffffff;stop-opacity:1;"
       offset="0.4375"
       id="stop5355" /><stop
       style="stop-color:#bcbcbc;stop-opacity:1;"
       offset="0.5"
       id="stop5357" /><stop
       id="stop5359"
       offset="0.75"
       style="stop-color:#e9e9e9;stop-opacity:1;" /><stop
       id="stop5361"
       offset="1"
       style="stop-color:#ffffff;stop-opacity:1;" /></linearGradient><linearGradient
     inkscape:collect="always"
     id="linearGradient5096"><stop
       style="stop-color:#ffffff;stop-opacity:1;"
       offset="0"
       id="stop5098" /><stop
       style="stop-color:#ffffff;stop-opacity:0;"
       offset="1"
       id="stop5100" /></linearGradient><linearGradient
     inkscape:collect="always"
     id="linearGradient5008"><stop
       style="stop-color:#ffffff;stop-opacity:1;"
       offset="0"
       id="stop5010" /><stop
       style="stop-color:#ffffff;stop-opacity:0;"
       offset="1"
       id="stop5012" /></linearGradient><linearGradient
     inkscape:collect="always"
     id="linearGradient4843"><stop
       style="stop-color:#ffffff;stop-opacity:1;"
       offset="0"
       id="stop4845" /><stop
       style="stop-color:#ffffff;stop-opacity:0;"
       offset="1"
       id="stop4847" /></linearGradient><linearGradient
     id="linearGradient4750"><stop
       id="stop4752"
       offset="0"
       style="stop-color:#ffffff;stop-opacity:0;" /><stop
       id="stop4754"
       offset="1"
       style="stop-color:#ffffff;stop-opacity:1;" /></linearGradient><linearGradient
     inkscape:collect="always"
     id="linearGradient4724"><stop
       style="stop-color:#ffffff;stop-opacity:1;"
       offset="0"
       id="stop4726" /><stop
       style="stop-color:#ffffff;stop-opacity:0;"
       offset="1"
       id="stop4728" /></linearGradient><radialGradient
     id="radialGradient4538"
     cx="56.019531"
     cy="45.240723"
     r="71.35096"
     gradientTransform="matrix(0.9974,0.2673,-0.2673,0.9974,-76.963493,-22.170914)"
     gradientUnits="userSpaceOnUse"><stop
       offset="0"
       style="stop-color:#BFEBFF"
       id="stop4540" /><stop
       offset="0.08683906"
       style="stop-color:#9FDFFF"
       id="stop4542" /><stop
       offset="0.1775176"
       style="stop-color:#78D1FF"
       id="stop4544" /><stop
       offset="0.2805196"
       style="stop-color:#5AC6FF"
       id="stop4546" /><stop
       offset="0.3811481"
       style="stop-color:#44BEFF"
       id="stop4548" /><stop
       offset="0.4783"
       style="stop-color:#37BAFF"
       id="stop4550" /><stop
       offset="0.568047"
       style="stop-color:#33B8FF"
       id="stop4552" /><stop
       offset="0.8019649"
       style="stop-color:#1690E3"
       id="stop4554" /><stop
       offset="1"
       style="stop-color:#0063b4;stop-opacity:1;"
       id="stop4556" /></radialGradient><linearGradient
     inkscape:collect="always"
     id="linearGradient4191"><stop
       style="stop-color:#ffffff;stop-opacity:1;"
       offset="0"
       id="stop4193" /><stop
       style="stop-color:#ffffff;stop-opacity:0;"
       offset="1"
       id="stop4195" /></linearGradient><linearGradient
     id="linearGradient4100"><stop
       style="stop-color:#d4d4d4;stop-opacity:1;"
       offset="0"
       id="stop4102" /><stop
       id="stop4110"
       offset="0.25"
       style="stop-color:#efefef;stop-opacity:1;" /><stop
       style="stop-color:#c2c2c2;stop-opacity:1;"
       offset="0.375"
       id="stop4114" /><stop
       id="stop4116"
       offset="0.4375"
       style="stop-color:#ffffff;stop-opacity:1;" /><stop
       id="stop4108"
       offset="0.5"
       style="stop-color:#bcbcbc;stop-opacity:1;" /><stop
       style="stop-color:#e9e9e9;stop-opacity:1;"
       offset="0.75"
       id="stop4112" /><stop
       style="stop-color:#ffffff;stop-opacity:1;"
       offset="1"
       id="stop4104" /></linearGradient><linearGradient
     inkscape:collect="always"
     id="linearGradient4018"><stop
       style="stop-color:#ffffff;stop-opacity:1;"
       offset="0"
       id="stop4020" /><stop
       style="stop-color:#ffffff;stop-opacity:0;"
       offset="1"
       id="stop4022" /></linearGradient><linearGradient
     inkscape:collect="always"
     id="linearGradient4007"><stop
       style="stop-color:#000000;stop-opacity:1;"
       offset="0"
       id="stop4009" /><stop
       style="stop-color:#000000;stop-opacity:0;"
       offset="1"
       id="stop4011" /></linearGradient><linearGradient
     id="linearGradient3995"><stop
       style="stop-color:#000000;stop-opacity:1;"
       offset="0"
       id="stop3997" /><stop
       id="stop4003"
       offset="0.5"
       style="stop-color:#474747;stop-opacity:1;" /><stop
       style="stop-color:#000000;stop-opacity:1;"
       offset="1"
       id="stop3999" /></linearGradient><inkscape:perspective
     sodipodi:type="inkscape:persp3d"
     inkscape:vp_x="0 : 64 : 1"
     inkscape:vp_y="0 : 1000 : 0"
     inkscape:vp_z="128 : 64 : 1"
     inkscape:persp3d-origin="64 : 42.666667 : 1"
     id="perspective3079" /><linearGradient
     inkscape:collect="always"
     id="linearGradient5237"><stop
       style="stop-color:#001d88;stop-opacity:1;"
       offset="0"
       id="stop5239" /><stop
       style="stop-color:#001d88;stop-opacity:0;"
       offset="1"
       id="stop5241" /></linearGradient><linearGradient
     inkscape:collect="always"
     id="linearGradient5007"><stop
       style="stop-color:#000000;stop-opacity:0.64356436"
       offset="0"
       id="stop5009" /><stop
       style="stop-color:#000000;stop-opacity:0"
       offset="1"
       id="stop5011" /></linearGradient><linearGradient
     inkscape:collect="always"
     id="linearGradient4909"><stop
       style="stop-color:#8c8d8d;stop-opacity:1"
       offset="0"
       id="stop4911" /><stop
       style="stop-color:#747776;stop-opacity:1"
       offset="1"
       id="stop4913" /></linearGradient><radialGradient
     gradientUnits="userSpaceOnUse"
     gradientTransform="matrix(0.9974,0.2673,-0.2673,0.9974,-76.963493,-22.170914)"
     r="71.35096"
     cy="45.240723"
     cx="56.019531"
     id="XMLID_40_"><stop
       id="stop240"
       style="stop-color:#BFEBFF"
       offset="0" /><stop
       id="stop242"
       style="stop-color:#9FDFFF"
       offset="0.073717" /><stop
       id="stop244"
       style="stop-color:#78D1FF"
       offset="0.1775176" /><stop
       id="stop246"
       style="stop-color:#5AC6FF"
       offset="0.2805196" /><stop
       id="stop248"
       style="stop-color:#44BEFF"
       offset="0.3811481" /><stop
       id="stop250"
       style="stop-color:#37BAFF"
       offset="0.4783" /><stop
       id="stop252"
       style="stop-color:#33B8FF"
       offset="0.568047" /><stop
       id="stop254"
       style="stop-color:#1690E3"
       offset="0.8019649" /><stop
       id="stop256"
       style="stop-color:#0063b4;stop-opacity:1;"
       offset="1" /></radialGradient><linearGradient
     inkscape:collect="always"
     xlink:href="#XMLID_40_"
     id="linearGradient13725"
     gradientUnits="userSpaceOnUse"
     gradientTransform="matrix(1.0954048,0,0,1.0954048,-826.24689,-1209.4123)"
     x1="510.58234"
     y1="988.39685"
     x2="510.58234"
     y2="1160.5508" /><linearGradient
     id="linearGradient3477"><stop
       style="stop-color:#070062;stop-opacity:1;"
       offset="0"
       id="stop3479" /><stop
       style="stop-color:#001462;stop-opacity:0;"
       offset="1"
       id="stop3481" /></linearGradient><linearGradient
     y2="95.293"
     x2="87.293"
     y1="103"
     x1="95"
     gradientUnits="userSpaceOnUse"
     id="linearGradient3432">
	<stop
   id="stop3434"
   style="stop-color:#000000;stop-opacity:0"
   offset="0" />
	<stop
   id="stop3436"
   style="stop-color:#393B38"
   offset="1" />
</linearGradient><linearGradient
     id="linearGradient3284"><stop
       style="stop-color:#39465c;stop-opacity:1;"
       offset="0"
       id="stop3286" /><stop
       style="stop-color:#000000;stop-opacity:0;"
       offset="1"
       id="stop3288" /></linearGradient><linearGradient
     gradientTransform="matrix(0,1,-1,0,-39.9985,140.0029)"
     y2="-383.9975"
     x2="-23.516129"
     y1="-383.9971"
     x1="-84.002403"
     gradientUnits="userSpaceOnUse"
     id="linearGradient3711"><stop
       id="stop3713"
       style="stop-color:white;stop-opacity:1;"
       offset="0" /><stop
       id="stop3715"
       style="stop-color:white;stop-opacity:0;"
       offset="1" /></linearGradient><linearGradient
     id="linearGradient4296"><stop
       id="stop4298"
       offset="0"
       style="stop-color:#00ff00;stop-opacity:1" /><stop
       id="stop4300"
       offset="1"
       style="stop-color:#006500;stop-opacity:1" /></linearGradient><linearGradient
     inkscape:collect="always"
     xlink:href="#linearGradient4296"
     id="linearGradient4272"
     gradientUnits="userSpaceOnUse"
     x1="328.12448"
     y1="120.81158"
     x2="336.98077"
     y2="87.759453" /><linearGradient
     inkscape:collect="always"
     xlink:href="#linearGradient3284"
     id="linearGradient3401"
     gradientUnits="userSpaceOnUse"
     gradientTransform="translate(-185.95868,0.6761918)"
     x1="132.06976"
     y1="52"
     x2="83.792686"
     y2="52" /><linearGradient
     inkscape:collect="always"
     xlink:href="#linearGradient3284"
     id="linearGradient3407"
     gradientUnits="userSpaceOnUse"
     gradientTransform="translate(-189.95868,0)"
     x1="132.06976"
     y1="52"
     x2="83.792686"
     y2="52" /><linearGradient
     inkscape:collect="always"
     xlink:href="#linearGradient5007"
     id="linearGradient5013"
     x1="107.28632"
     y1="97.886986"
     x2="106.05053"
     y2="93.27494"
     gradientUnits="userSpaceOnUse" /><filter
     inkscape:collect="always"
     id="filter5055"><feGaussianBlur
       inkscape:collect="always"
       stdDeviation="0.49829777"
       id="feGaussianBlur5057" /></filter><clipPath
     clipPathUnits="userSpaceOnUse"
     id="clipPath5072"><path
       sodipodi:nodetypes="ccccccccccccccc"
       id="path5074"
       d="M 122.46967,87.78125 L 118.15153,88.952269 L 119.78572,95.144516 C 120.34418,97.222455 119.11908,99.34332 117.04115,99.90178 L 101.85449,104.00035 C 99.776552,104.55882 97.65569,103.33371 97.097226,101.25577 L 95.463037,95.10012 L 90.925338,96.307733 C 90.956568,96.525127 90.976686,96.749008 91.035121,96.966431 L 93.450348,106.00524 C 94.229473,108.90421 97.211544,110.62677 100.11052,109.84764 L 121.29865,104.13892 C 124.19762,103.3598 125.92018,100.37773 125.14105,97.47875 L 122.68923,88.439948 C 122.6284,88.213594 122.55617,87.99222 122.46967,87.78125 z"
       style="opacity:1;fill:url(#linearGradient5076);fill-opacity:1;stroke:none;stroke-width:1;stroke-linecap:round;stroke-linejoin:round;stroke-miterlimit:4;stroke-dasharray:none;stroke-dashoffset:0;stroke-opacity:1" /></clipPath><linearGradient
     inkscape:collect="always"
     xlink:href="#linearGradient4909"
     id="linearGradient5076"
     gradientUnits="userSpaceOnUse"
     gradientTransform="matrix(1.1710191,0,0,1.1710191,40.35195,-18.232575)"
     x1="44.636116"
     y1="98.124741"
     x2="68.67775"
     y2="91.230446" /><linearGradient
     inkscape:collect="always"
     xlink:href="#linearGradient3711"
     id="linearGradient5106"
     gradientUnits="userSpaceOnUse"
     gradientTransform="matrix(0.8566821,-0.5158446,0.5158446,0.8566821,-28.421606,25.060692)"
     x1="18.217064"
     y1="48.318039"
     x2="6.0801239"
     y2="68.474304" /><linearGradient
     inkscape:collect="always"
     xlink:href="#linearGradient3711"
     id="linearGradient5110"
     gradientUnits="userSpaceOnUse"
     gradientTransform="matrix(0.8566821,-0.5158446,0.5158446,0.8566821,-28.221606,24.760692)"
     x1="18.217064"
     y1="48.318039"
     x2="6.0801239"
     y2="68.474304" /><linearGradient
     inkscape:collect="always"
     xlink:href="#linearGradient5237"
     id="linearGradient5243"
     x1="-84.36438"
     y1="62.657232"
     x2="-62.81424"
     y2="26.868113"
     gradientUnits="userSpaceOnUse" /><filter
     inkscape:collect="always"
     id="filter5261"><feGaussianBlur
       inkscape:collect="always"
       stdDeviation="0.436789"
       id="feGaussianBlur5263" /></filter><clipPath
     clipPathUnits="userSpaceOnUse"
     id="clipPath5265"><rect
       ry="4.6271658"
       rx="4.6271658"
       y="42.657234"
       x="-83.86438"
       height="39.999996"
       width="15.999997"
       id="rect5267"
       style="opacity:1;fill:url(#linearGradient5269);fill-opacity:1;stroke:none;stroke-width:1;stroke-linecap:round;stroke-linejoin:round;stroke-miterlimit:4;stroke-dasharray:none;stroke-dashoffset:0;stroke-opacity:1" /></clipPath><linearGradient
     inkscape:collect="always"
     xlink:href="#XMLID_40_"
     id="linearGradient5269"
     gradientUnits="userSpaceOnUse"
     gradientTransform="translate(-91.864379,-5.3427713)"
     x1="27.060225"
     y1="37.353905"
     x2="3.4941344"
     y2="76.490982" /><linearGradient
     inkscape:collect="always"
     xlink:href="#XMLID_10_"
     id="linearGradient3894"
     gradientUnits="userSpaceOnUse"
     gradientTransform="matrix(1.390934,0,0,1.3086086,-25.020073,-17.453725)"
     spreadMethod="reflect"
     x1="65.725594"
     y1="82"
     x2="97.75"
     y2="82" /><linearGradient
     inkscape:collect="always"
     xlink:href="#linearGradient3995"
     id="linearGradient4001"
     x1="17.25"
     y1="63.631729"
     x2="110.75"
     y2="63.631729"
     gradientUnits="userSpaceOnUse"
     gradientTransform="matrix(1.3509071,0,0,1.3086086,-22.458353,-16.472268)" /><linearGradient
     inkscape:collect="always"
     xlink:href="#linearGradient4007"
     id="linearGradient4013"
     x1="57"
     y1="105.63327"
     x2="57"
     y2="85.334412"
     gradientUnits="userSpaceOnUse"
     gradientTransform="matrix(1.3509071,0,0,1.3086086,-22.458353,-16.472268)" /><linearGradient
     inkscape:collect="always"
     xlink:href="#linearGradient4018"
     id="linearGradient4024"
     x1="84.992157"
     y1="19.547363"
     x2="84.992157"
     y2="55.912415"
     gradientUnits="userSpaceOnUse"
     gradientTransform="matrix(1.118215,0,0,1.118215,-14.86051,-17.58482)" /><radialGradient
     inkscape:collect="always"
     xlink:href="#linearGradient5347"
     id="radialGradient4106"
     cx="-63.958065"
     cy="141.04259"
     fx="-63.958065"
     fy="141.04259"
     r="49.895"
     gradientUnits="userSpaceOnUse"
     gradientTransform="matrix(0.9883519,-0.5910623,3.9143067e-2,7.0255191e-2,-42.208589,107.07043)"
     spreadMethod="reflect" /><filter
     inkscape:collect="always"
     id="filter4163"><feGaussianBlur
       inkscape:collect="always"
       stdDeviation="1.8240291"
       id="feGaussianBlur4165" /></filter><clipPath
     clipPathUnits="userSpaceOnUse"
     id="clipPath4167"><path
       sodipodi:type="star"
       style="opacity:1;fill:url(#radialGradient4171);fill-opacity:1;stroke:none;stroke-width:1;stroke-linecap:round;stroke-linejoin:round;stroke-miterlimit:4;stroke-dasharray:none;stroke-dashoffset:0;stroke-opacity:1"
       id="path4169"
       sodipodi:sides="6"
       sodipodi:cx="-45.254833"
       sodipodi:cy="37.843887"
       sodipodi:r1="51.655106"
       sodipodi:r2="29.726227"
       sodipodi:arg1="0.78539816"
       sodipodi:arg2="1.3089969"
       inkscape:flatsided="false"
       inkscape:rounded="0"
       inkscape:randomized="0"
       d="M -8.7291577,74.369563 L -37.561118,66.557217 L -58.624158,87.738888 L -66.274449,58.863505 L -95.149834,51.213213 L -73.968164,30.150175 L -81.780509,1.318212 L -52.948548,9.1305574 L -31.885508,-12.051113 L -24.235217,16.82427 L 4.6401673,24.474562 L -16.541503,45.5376 L -8.7291577,74.369563 z"
       transform="matrix(0.9660871,-0.2582163,0.2582163,0.9660871,342.19336,-10.251451)" /></clipPath><radialGradient
     inkscape:collect="always"
     xlink:href="#linearGradient4100"
     id="radialGradient4171"
     gradientUnits="userSpaceOnUse"
     cx="-50.797588"
     cy="43.090588"
     fx="-36.134892"
     fy="28.895321"
     r="49.895001" /><filter
     inkscape:collect="always"
     id="filter4223"><feGaussianBlur
       inkscape:collect="always"
       stdDeviation="0.23593649"
       id="feGaussianBlur4225" /></filter><filter
     inkscape:collect="always"
     id="filter4257"><feGaussianBlur
       inkscape:collect="always"
       stdDeviation="0.99610806"
       id="feGaussianBlur4259" /></filter><clipPath
     clipPathUnits="userSpaceOnUse"
     id="clipPath4261"><path
       style="opacity:1;fill:url(#linearGradient4265);fill-opacity:1;stroke:none;stroke-width:4.50000048;stroke-linecap:round;stroke-linejoin:round;stroke-miterlimit:4;stroke-dasharray:none;stroke-dashoffset:0;stroke-opacity:1"
       d="M 325.20361,129.15207 C 324.62397,129.31405 324.13337,129.70148 323.84144,130.22779 L 309.59762,154.99573 L 281.04129,154.89735 C 280.24037,154.89984 279.50113,155.32786 279.10023,156.02124 C 278.69933,156.71461 278.69721,157.56882 279.09465,158.26418 L 293.4272,182.96341 L 279.03842,207.67305 C 278.64462,208.37053 278.65126,209.22477 279.05587,209.91604 C 279.46047,210.60732 280.20203,211.03141 281.00301,211.02959 L 309.57937,210.96088 L 323.74692,235.7689 C 324.14889,236.47081 324.89666,236.90297 325.70552,236.90084 C 326.51439,236.89872 327.25988,236.46262 327.65815,235.7586 L 341.90196,210.99067 L 370.45829,211.08904 C 371.25922,211.08656 371.99846,210.65853 372.39935,209.96516 C 372.80025,209.27178 372.80238,208.41757 372.40493,207.72221 L 358.06432,182.9928 L 372.43098,158.32141 C 372.82625,157.62809 372.8247,156.77726 372.42692,156.08537 C 372.02914,155.39348 371.29463,154.96406 370.49658,154.9568 L 341.92022,155.02552 L 327.72248,130.22557 C 327.22221,129.33931 326.18938,128.89913 325.20361,129.15207 z M 325.76707,135.85903 L 338.6772,158.38303 C 339.07883,159.08119 339.82299,159.51145 340.62843,159.5112 L 366.58993,159.4621 L 353.52841,181.87617 C 353.11739,182.57497 353.11404,183.44085 353.51964,184.1428 L 366.5344,206.57414 L 340.601,206.48634 C 339.79029,206.48504 339.04155,206.91995 338.641,207.6248 L 325.73252,230.12736 L 312.82238,207.60336 C 312.42075,206.9052 311.6766,206.47494 310.87115,206.4752 L 284.90965,206.52429 L 297.97117,184.11022 C 298.3822,183.41142 298.38554,182.54555 297.97994,181.84359 L 284.96518,159.41225 L 310.89858,159.50005 C 311.7093,159.50135 312.45803,159.06644 312.85858,158.36159 L 325.76707,135.85903 z"
       id="path4263" /></clipPath><linearGradient
     inkscape:collect="always"
     xlink:href="#linearGradient4100"
     id="linearGradient4265"
     gradientUnits="userSpaceOnUse"
     gradientTransform="matrix(0.9660871,-0.2582163,0.2582163,0.9660871,359.69336,134.74855)"
     x1="-96.299835"
     y1="37.843887"
     x2="5.7901673"
     y2="37.843887" /><filter
     inkscape:collect="always"
     id="filter4296"><feGaussianBlur
       inkscape:collect="always"
       stdDeviation="2.449008"
       id="feGaussianBlur4298" /></filter><linearGradient
     inkscape:collect="always"
     xlink:href="#linearGradient4100"
     id="linearGradient4307"
     gradientUnits="userSpaceOnUse"
     gradientTransform="matrix(0.9660871,-0.2582163,0.2582163,0.9660871,359.69336,-9.951451)"
     x1="-96.299835"
     y1="37.843887"
     x2="5.7901673"
     y2="37.843887" /><radialGradient
     inkscape:collect="always"
     xlink:href="#linearGradient4191"
     id="radialGradient4309"
     gradientUnits="userSpaceOnUse"
     gradientTransform="matrix(3.066654,-1.9134324e-3,6.2394779e-4,0.9999998,107.85978,-9.9863832e-2)"
     cx="-52.19109"
     cy="1.8315512"
     fx="-52.19109"
     fy="1.8315512"
     r="50.295001" /><linearGradient
     inkscape:collect="always"
     xlink:href="#XMLID_10_"
     id="linearGradient4313"
     gradientUnits="userSpaceOnUse"
     gradientTransform="matrix(1.390934,0,0,0.3750385,-25.020073,57.051875)"
     spreadMethod="reflect"
     x1="65.725594"
     y1="82"
     x2="129.6512"
     y2="82" /><linearGradient
     inkscape:collect="always"
     xlink:href="#linearGradient4007"
     id="linearGradient4317"
     gradientUnits="userSpaceOnUse"
     gradientTransform="matrix(1.3509071,0,0,1.3086086,-22.458353,-16.472268)"
     x1="57"
     y1="81.258553"
     x2="57"
     y2="84.891571" /><filter
     inkscape:collect="always"
     id="filter4386"><feGaussianBlur
       inkscape:collect="always"
       stdDeviation="3.073754"
       id="feGaussianBlur4388" /></filter><clipPath
     clipPathUnits="userSpaceOnUse"
     id="clipPath4390"><path
       sodipodi:nodetypes="ccccccz"
       id="path4392"
       d="M 237.94826,12.792894 C 196.9368,12.792894 198.363,58.287847 196.91384,85.346513 L 182.34365,96.943198 C 198.43962,99.466507 222.98348,104.0422 237.94826,112.7028 C 252.91305,104.0422 277.4569,99.466507 293.55288,96.943198 L 278.98268,85.346513 C 277.53352,58.287847 279.25701,12.792894 237.94826,12.792894 z"
       style="fill:url(#linearGradient4394);fill-opacity:1;fill-rule:evenodd;stroke:none;stroke-width:1px;stroke-linecap:butt;stroke-linejoin:miter;stroke-opacity:1" /></clipPath><linearGradient
     inkscape:collect="always"
     xlink:href="#linearGradient3995"
     id="linearGradient4394"
     gradientUnits="userSpaceOnUse"
     gradientTransform="matrix(1.1894036,0,0,1.1894036,161.82643,-12.935961)"
     x1="17.25"
     y1="63.631729"
     x2="110.75"
     y2="63.631729" /><filter
     inkscape:collect="always"
     id="filter4444"><feGaussianBlur
       inkscape:collect="always"
       stdDeviation="0.96888256"
       id="feGaussianBlur4446" /></filter><filter
     inkscape:collect="always"
     id="filter4676"><feGaussianBlur
       inkscape:collect="always"
       stdDeviation="1.7806004"
       id="feGaussianBlur4678" /></filter><linearGradient
     inkscape:collect="always"
     xlink:href="#linearGradient3995"
     id="linearGradient4715"
     gradientUnits="userSpaceOnUse"
     gradientTransform="matrix(1.3509071,0,0,1.3086086,-22.458353,-16.472268)"
     x1="9.900301"
     y1="95.971809"
     x2="107.89148"
     y2="95.971809" /><radialGradient
     inkscape:collect="always"
     xlink:href="#linearGradient4724"
     id="radialGradient4730"
     cx="63.658714"
     cy="112.3581"
     fx="63.658714"
     fy="112.3581"
     r="3.375"
     gradientTransform="matrix(0.6852731,-1.5750489e-2,2.8099497e-2,1.1471935,17.316238,-6.5303584)"
     gradientUnits="userSpaceOnUse" /><radialGradient
     inkscape:collect="always"
     xlink:href="#linearGradient4018"
     id="radialGradient4746"
     cx="154.86336"
     cy="159.98668"
     fx="154.86336"
     fy="159.98668"
     r="55.59375"
     gradientTransform="matrix(1.1357853,0,0,0.1549668,-111.08855,96.438149)"
     gradientUnits="userSpaceOnUse" /><radialGradient
     inkscape:collect="always"
     xlink:href="#linearGradient4750"
     id="radialGradient4756"
     gradientUnits="userSpaceOnUse"
     gradientTransform="matrix(1.3503013,-2.6320763e-7,1.4938474e-7,0.7191293,-144.30922,6.1797025)"
     cx="154.86336"
     cy="159.98668"
     fx="154.86336"
     fy="159.98668"
     r="55.59375" /><filter
     inkscape:collect="always"
     id="filter4782"><feGaussianBlur
       inkscape:collect="always"
       stdDeviation="0.61592945"
       id="feGaussianBlur4784" /></filter><filter
     inkscape:collect="always"
     id="filter4837"><feGaussianBlur
       inkscape:collect="always"
       stdDeviation="2.3152306"
       id="feGaussianBlur4839" /></filter><linearGradient
     inkscape:collect="always"
     xlink:href="#linearGradient4843"
     id="linearGradient4849"
     x1="-31.433815"
     y1="7.1176219"
     x2="-31.433815"
     y2="56.000824"
     gradientUnits="userSpaceOnUse" /><clipPath
     clipPathUnits="userSpaceOnUse"
     id="clipPath4853"><path
       id="path4855"
       d="M -43.84375,12.78125 C -78.719804,12.78125 -82.886828,45.671418 -84.25,72.15625 C -81.431621,82.061453 -66.048797,90.6875 -43.84375,90.6875 C -21.92543,90.6875 -4.0509017,82.625503 -3.375,72.5625 C -4.6592178,46.009552 -8.5361262,12.78125 -43.84375,12.78125 z"
       style="fill:url(#linearGradient4857);fill-opacity:1;fill-rule:evenodd;stroke:none;stroke-width:1px;stroke-linecap:butt;stroke-linejoin:miter;stroke-opacity:1" /></clipPath><linearGradient
     inkscape:collect="always"
     xlink:href="#XMLID_10_"
     id="linearGradient4857"
     gradientUnits="userSpaceOnUse"
     gradientTransform="matrix(1.1894036,0,0,1.1894036,-119.95735,-12.935961)"
     spreadMethod="reflect"
     x1="63.019474"
     y1="63.631729"
     x2="110.75"
     y2="63.631729" /><linearGradient
     inkscape:collect="always"
     xlink:href="#XMLID_10_"
     id="linearGradient4859"
     gradientUnits="userSpaceOnUse"
     gradientTransform="matrix(0.2421838,0,0,0.2346007,48.495256,-4.1301048)"
     spreadMethod="reflect"
     x1="63.019474"
     y1="63.631729"
     x2="110.75"
     y2="63.631729" /><filter
     inkscape:collect="always"
     id="filter4975"
     x="-0.13420406"
     width="1.2684081"
     y="-0.4026122"
     height="1.8052244"><feGaussianBlur
       inkscape:collect="always"
       stdDeviation="0.86000045"
       id="feGaussianBlur4977" /></filter><radialGradient
     inkscape:collect="always"
     xlink:href="#linearGradient4191"
     id="radialGradient4979"
     gradientUnits="userSpaceOnUse"
     gradientTransform="matrix(1,0,0,1.0016908,123.46922,-0.3842446)"
     cx="-59.469215"
     cy="57.43713"
     fx="-59.469215"
     fy="57.43713"
     r="10.71743" /><radialGradient
     inkscape:collect="always"
     xlink:href="#linearGradient4191"
     id="radialGradient4981"
     gradientUnits="userSpaceOnUse"
     gradientTransform="matrix(0.6561148,-0.7546611,-0.755937,-0.6572242,146.72307,50.058553)"
     cx="-59.469215"
     cy="57.43713"
     fx="-59.469215"
     fy="57.43713"
     r="10.71743" /><radialGradient
     inkscape:collect="always"
     xlink:href="#radialGradient4538"
     id="radialGradient4983"
     gradientUnits="userSpaceOnUse"
     gradientTransform="matrix(1.4409234,0.107862,-0.105889,1.3813431,52.499473,-7.2196741)"
     cx="-107.23627"
     cy="49.263737"
     fx="-107.09864"
     fy="38.957455"
     r="23.575932" /><linearGradient
     inkscape:collect="always"
     xlink:href="#linearGradient5008"
     id="linearGradient5014"
     x1="111.15335"
     y1="98.9562"
     x2="71.409927"
     y2="87.111557"
     gradientUnits="userSpaceOnUse" /><linearGradient
     inkscape:collect="always"
     xlink:href="#linearGradient5008"
     id="linearGradient5040"
     x1="-36.614799"
     y1="43.01379"
     x2="67.964081"
     y2="54.51379"
     gradientUnits="userSpaceOnUse"
     gradientTransform="translate(-2,-6)" /><filter
     inkscape:collect="always"
     id="filter5092"><feGaussianBlur
       inkscape:collect="always"
       stdDeviation="1.4563107"
       id="feGaussianBlur5094" /></filter><linearGradient
     inkscape:collect="always"
     xlink:href="#linearGradient5096"
     id="linearGradient5102"
     x1="143.71373"
     y1="72.980972"
     x2="79.696701"
     y2="33.382992"
     gradientUnits="userSpaceOnUse" /><filter
     inkscape:collect="always"
     id="filter5142"
     x="-0.032771326"
     width="1.0655427"
     y="-0.13099864"
     height="1.2619973"><feGaussianBlur
       inkscape:collect="always"
       stdDeviation="1.7248441"
       id="feGaussianBlur5144" /></filter><linearGradient
     inkscape:collect="always"
     xlink:href="#XMLID_10_"
     id="linearGradient5150"
     gradientUnits="userSpaceOnUse"
     gradientTransform="matrix(0.2277333,0,0,0.2206027,101.21594,-1.8274408)"
     spreadMethod="reflect"
     x1="63.019474"
     y1="63.631729"
     x2="110.75"
     y2="63.631729" /><linearGradient
     inkscape:collect="always"
     xlink:href="#XMLID_10_"
     id="linearGradient5154"
     gradientUnits="userSpaceOnUse"
     gradientTransform="matrix(0.2277333,0,0,0.2206027,101.21594,-2.8274408)"
     spreadMethod="reflect"
     x1="63.019474"
     y1="63.631729"
     x2="110.75"
     y2="63.631729" /><linearGradient
     inkscape:collect="always"
     xlink:href="#XMLID_10_"
     id="linearGradient5159"
     gradientUnits="userSpaceOnUse"
     gradientTransform="matrix(0.2277333,0,0,0.2206027,49.46594,-1.2024408)"
     spreadMethod="reflect"
     x1="63.019474"
     y1="63.631729"
     x2="110.75"
     y2="63.631729" /><filter
     inkscape:collect="always"
     id="filter5278"
     x="-0.029810084"
     width="1.0596202"
     y="-0.10770797"
     height="1.2154159"><feGaussianBlur
       inkscape:collect="always"
       stdDeviation="0.19213531"
       id="feGaussianBlur5280" /></filter><filter
     inkscape:collect="always"
     id="filter5302"><feGaussianBlur
       inkscape:collect="always"
       stdDeviation="0.34422264"
       id="feGaussianBlur5304" /></filter><filter
     inkscape:collect="always"
     id="filter5330"><feGaussianBlur
       inkscape:collect="always"
       stdDeviation="0.9700309"
       id="feGaussianBlur5332" /></filter><linearGradient
     inkscape:collect="always"
     xlink:href="#linearGradient5365"
     id="linearGradient5373"
     x1="-42.397148"
     y1="92.07605"
     x2="-24.035822"
     y2="23.379185"
     gradientUnits="userSpaceOnUse" /><radialGradient
     inkscape:collect="always"
     xlink:href="#linearGradient4191"
     id="radialGradient5376"
     gradientUnits="userSpaceOnUse"
     gradientTransform="matrix(1.114289,-1.2415216,-1.2838185,-1.0812244,204.52988,46.227584)"
     cx="-59.469215"
     cy="57.43713"
     fx="-59.469215"
     fy="57.43713"
     r="10.71743" /><radialGradient
     inkscape:collect="always"
     xlink:href="#linearGradient4191"
     id="radialGradient5379"
     gradientUnits="userSpaceOnUse"
     gradientTransform="matrix(1.6983141,0,0,1.6479195,165.03754,-36.757774)"
     cx="-59.469215"
     cy="57.43713"
     fx="-59.469215"
     fy="57.43713"
     r="10.71743" /><radialGradient
     inkscape:collect="always"
     xlink:href="#linearGradient4191"
     id="radialGradient5387"
     gradientUnits="userSpaceOnUse"
     gradientTransform="matrix(1.3499631,0.98011,0.9428539,-1.388619,90.008134,196.1239)"
     cx="-59.469215"
     cy="57.43713"
     fx="-59.469215"
     fy="57.43713"
     r="10.71743" /></defs><sodipodi:namedview
   inkscape:window-height="678"
   inkscape:window-width="1022"
   inkscape:pageshadow="2"
   inkscape:pageopacity="0.0"
   guidetolerance="10.0"
   gridtolerance="10.0"
   objecttolerance="10.0"
   borderopacity="1.0"
   bordercolor="#666666"
   pagecolor="#ffffff"
   id="base"
   inkscape:zoom="1.4142136"
   inkscape:cx="36.136006"
   inkscape:cy="7.1016307"
   inkscape:window-x="434"
   inkscape:window-y="161"
   inkscape:current-layer="Layer_1"
   showgrid="false"
   showguides="true"
   inkscape:guide-bbox="true"><inkscape:grid
     id="GridFromPre046Settings"
     type="xygrid"
     originx="0px"
     originy="0px"
     spacingx="4px"
     spacingy="4px"
     color="#0000ff"
     empcolor="#0000ff"
     opacity="0.2"
     empopacity="0.4"
     empspacing="2" /><sodipodi:guide
     orientation="1,0"
     position="-102.53048,86.267025"
     id="guide3081" /><sodipodi:guide
     orientation="0,1"
     position="104.5,65"
     id="guide4032" /></sodipodi:namedview>
<metadata
   id="metadata3">
	<ns:sfw>
		<ns:slices>
			<ns:slice
   y="0"
   x="0"
   height="128"
   width="128"
   sliceID="1316743234" />
		</ns:slices>
		<ns:sliceSourceBounds
   y="0"
   x="0"
   height="128"
   width="128"
   bottomLeftOrigin="true" />
		<ns:optimizationSettings>
			<ns:targetSettings
   targetSettingsID="0"
   fileFormat="PNG24Format">
				<ns:PNG24Format
   transparency="true"
   filtered="false"
   matteColor="#FFFFFF"
   noMatteColor="false"
   interlaced="false">
					</ns:PNG24Format>
			</ns:targetSettings>
			<ns:targetSettings
   targetSettingsID="1696735251"
   fileFormat="PNG24Format">
				<ns:PNG24Format
   transparency="true"
   filtered="false"
   matteColor="#FFFFFF"
   noMatteColor="false"
   interlaced="false">
					</ns:PNG24Format>
			</ns:targetSettings>
		</ns:optimizationSettings>
	</ns:sfw>
<rdf:RDF><cc:Work
     rdf:about=""><dc:format>image/svg+xml</dc:format><dc:type
       rdf:resource="http://purl.org/dc/dcmitype/StillImage" /></cc:Work></rdf:RDF></metadata>

<radialGradient
   id="XMLID_7_"
   cx="102"
   cy="112.3047"
   r="139.5585"
   gradientUnits="userSpaceOnUse">
	<stop
   offset="0"
   style="stop-color:#00537D"
   id="stop16" />
	<stop
   offset="0.0151"
   style="stop-color:#186389"
   id="stop18" />
	<stop
   offset="0.0558"
   style="stop-color:#558CA8"
   id="stop20" />
	<stop
   offset="0.0964"
   style="stop-color:#89AFC3"
   id="stop22" />
	<stop
   offset="0.1357"
   style="stop-color:#B3CCD8"
   id="stop24" />
	<stop
   offset="0.1737"
   style="stop-color:#D4E2E9"
   id="stop26" />
	<stop
   offset="0.2099"
   style="stop-color:#ECF2F5"
   id="stop28" />
	<stop
   offset="0.2435"
   style="stop-color:#FAFCFD"
   id="stop30" />
	<stop
   offset="0.2722"
   style="stop-color:#FFFFFF"
   id="stop32" />
</radialGradient>

<radialGradient
   id="XMLID_8_"
   cx="102"
   cy="112.3047"
   r="139.55859"
   gradientUnits="userSpaceOnUse">
	<stop
   offset="0"
   style="stop-color:#535557"
   id="stop37" />
	
	<stop
   offset="0.11366145"
   style="stop-color:#898A8C"
   id="stop41" />
	
	
	<stop
   offset="0.20296688"
   style="stop-color:#ECECEC"
   id="stop47" />
	<stop
   offset="0.2363"
   style="stop-color:#FAFAFA"
   id="stop49" />
	<stop
   offset="0.2722"
   style="stop-color:#FFFFFF"
   id="stop51" />
	<stop
   offset="0.5313"
   style="stop-color:#FAFAFA"
   id="stop53" />
	<stop
   offset="0.8449"
   style="stop-color:#EBECEC"
   id="stop55" />
	<stop
   offset="1"
   style="stop-color:#E1E2E3"
   id="stop57" />
</radialGradient>

<linearGradient
   id="XMLID_9_"
   gradientUnits="userSpaceOnUse"
   x1="94.3438"
   y1="102.3447"
   x2="86.5356"
   y2="94.5366">
	<stop
   offset="0"
   style="stop-color:#FFFFFF"
   id="stop62" />
	<stop
   offset="1"
   style="stop-color:#555753"
   id="stop64" />
</linearGradient>

<linearGradient
   id="XMLID_10_"
   gradientUnits="userSpaceOnUse"
   x1="95"
   y1="103"
   x2="86.5865"
   y2="94.5865">
	<stop
   offset="0"
   style="stop-color:#FFFFFF"
   id="stop69" />
	<stop
   offset="1"
   style="stop-color:#555753"
   id="stop71" />
</linearGradient>

<linearGradient
   id="XMLID_11_"
   gradientUnits="userSpaceOnUse"
   x1="95"
   y1="103"
   x2="87.293"
   y2="95.293">
	<stop
   offset="0"
   style="stop-color:#ffffff;stop-opacity:0"
   id="stop76" />
	<stop
   offset="1"
   style="stop-color:#595c57;stop-opacity:1;"
   id="stop78" />
</linearGradient>

<linearGradient
   id="XMLID_12_"
   gradientUnits="userSpaceOnUse"
   x1="96"
   y1="104"
   x2="88.0002"
   y2="96.0002">
	<stop
   offset="0"
   style="stop-color:#888A85"
   id="stop83" />
	<stop
   offset="0.0072"
   style="stop-color:#8C8E89"
   id="stop85" />
	<stop
   offset="0.0673"
   style="stop-color:#ABACA9"
   id="stop87" />
	<stop
   offset="0.1347"
   style="stop-color:#C5C6C4"
   id="stop89" />
	<stop
   offset="0.2115"
   style="stop-color:#DBDBDA"
   id="stop91" />
	<stop
   offset="0.3012"
   style="stop-color:#EBEBEB"
   id="stop93" />
	<stop
   offset="0.4122"
   style="stop-color:#F7F7F6"
   id="stop95" />
	<stop
   offset="0.5679"
   style="stop-color:#FDFDFD"
   id="stop97" />
	<stop
   offset="1"
   style="stop-color:#FFFFFF"
   id="stop99" />
</linearGradient>


<path
   style="fill:#000000;fill-opacity:1;fill-rule:evenodd;stroke:none;stroke-width:1px;stroke-linecap:butt;stroke-linejoin:miter;stroke-opacity:1;filter:url(#filter5142)"
   d="M 17.393405,99.360317 L 0.84294415,105.4213 L 0.84479449,107.61969 C 18.467119,110.29579 45.004903,114.728 62.119471,123.94537 C 62.968938,124.40634 65.173987,124.34028 65.988307,123.88929 C 83.106363,115.04991 109.56943,110.29015 127.15461,107.61969 L 127.16148,105.44295 L 110.60599,99.360317 L 17.393405,99.360317 z"
   id="path5104"
   sodipodi:nodetypes="ccccccccc" /><path
   sodipodi:nodetypes="ccccccccc"
   id="path4711"
   d="M 17.393405,91.660317 L 0.84294415,104.4213 L 0.84479449,106.61969 C 18.467119,109.29579 45.004903,113.728 62.119471,122.94537 C 62.968938,123.40634 65.173987,123.34028 65.988307,122.88929 C 83.106363,114.04991 109.56943,109.29015 127.15461,106.61969 L 127.16148,104.44295 L 110.60599,91.660317 L 17.393405,91.660317 z"
   style="fill:url(#linearGradient4715);fill-opacity:1;fill-rule:evenodd;stroke:none;stroke-width:1px;stroke-linecap:butt;stroke-linejoin:miter;stroke-opacity:1" /><path
   style="fill:url(#radialGradient4730);fill-opacity:1;fill-rule:evenodd;stroke:none;stroke-width:1px;stroke-linecap:butt;stroke-linejoin:miter;stroke-opacity:1"
   d="M 60.55685,119.47228 L 60.55685,122.15407 C 61.078011,122.41791 61.613347,122.67277 62.118555,122.94486 C 62.968024,123.40583 65.173004,123.32708 65.987324,122.87609 C 66.711342,122.50222 67.467326,122.16967 68.223402,121.81025 L 68.223402,119.47228 L 60.55685,119.47228 z"
   id="path4717" /><path
   transform="matrix(1.012046,0,0,1.012046,-457.91658,-1065.2801)"
   id="path2797"
   d="M -258.80109,-29.73394 C -293.20059,-29.73394 -321.1279,-5.3246052 -321.1279,24.762409 C -321.1279,54.849525 -293.20059,79.258758 -258.80109,79.258758 C -224.4016,79.258758 -196.47427,54.849626 -196.47427,24.762409 C -196.47427,-5.3247064 -224.4016,-29.73394 -258.80109,-29.73394 z M -258.80109,-12.618218 C -233.08639,-12.618218 -212.22721,5.6260361 -212.22721,28.117038 C -212.22721,50.60804 -233.08639,68.852294 -258.80109,68.852294 C -284.51576,68.852294 -305.37496,50.608141 -305.37496,28.117038 C -305.37496,5.6259349 -284.51576,-12.618218 -258.80109,-12.618218 z"
   style="fill:url(#linearGradient13725);fill-opacity:1;stroke:none;stroke-width:0.00945507;stroke-linecap:round;stroke-linejoin:round;stroke-miterlimit:4;stroke-dasharray:none;stroke-dashoffset:0;stroke-opacity:1;overflow:visible" /><path
   style="fill:url(#linearGradient4001);fill-opacity:1;fill-rule:evenodd;stroke:none;stroke-width:1px;stroke-linecap:butt;stroke-linejoin:miter;stroke-opacity:1"
   d="M 63.999699,11.835196 C 17.419479,11.835196 19.039346,61.889765 17.393405,91.660317 L 0.84479449,104.41925 C 18.621102,107.11872 45.469354,111.95317 62.565936,120.97852 C 63.844702,121.34997 64.270966,121.21845 65.424873,120.98306 C 82.521056,111.95481 109.37532,107.11917 127.15461,104.41925 L 110.60599,91.660317 C 108.96006,61.889765 110.91757,11.835196 63.999699,11.835196 z"
   id="path3083"
   sodipodi:nodetypes="cccccccz" /><path
   style="opacity:0.72277228;fill:#ffffff;fill-opacity:1;fill-rule:evenodd;stroke:none;stroke-width:1px;stroke-linecap:butt;stroke-linejoin:miter;stroke-opacity:1;filter:url(#filter4782)"
   d="M 97.050403,83.629051 L 107.12667,91.407225 C 93.419927,93.474526 80.898215,97.319374 68.589356,101.4835 C 78.490731,95.611806 90.594905,92.717883 102.08854,90.258177 L 97.050403,83.629051 z"
   id="path3897"
   sodipodi:nodetypes="ccccc"
   transform="matrix(1.3509071,0,0,1.3086086,-22.458353,-16.472268)" /><path
   sodipodi:nodetypes="ccccccc"
   id="path4005"
   d="M 17.393405,91.660317 L 0.84479449,104.41925 C 18.609188,107.11692 45.43337,111.9467 62.531548,120.96038 C 63.656749,121.3181 64.340545,121.30309 65.445207,120.97233 C 82.542343,111.95097 109.38237,107.1181 127.15461,104.41925 L 110.60599,91.660317 L 17.393405,91.660317 z"
   style="fill:url(#linearGradient4013);fill-opacity:1;fill-rule:evenodd;stroke:none;stroke-width:1px;stroke-linecap:butt;stroke-linejoin:miter;stroke-opacity:1" /><path
   style="fill:url(#linearGradient4317);fill-opacity:1;fill-rule:evenodd;stroke:none;stroke-width:1px;stroke-linecap:butt;stroke-linejoin:miter;stroke-opacity:1"
   d="M 17.393405,91.660317 L 0.84479449,104.41925 C 18.6013,107.11572 45.409549,111.94242 62.508766,120.94838 C 63.20717,121.33334 64.833355,121.29322 65.436014,120.97718 C 82.532721,111.95271 109.37918,107.11858 127.15461,104.41925 L 110.60599,91.660317 L 17.393405,91.660317 z"
   id="path4315"
   sodipodi:nodetypes="ccccccc" /><path
   style="opacity:1;fill:url(#linearGradient3894);fill-opacity:1;stroke:none;stroke-width:1;stroke-linecap:round;stroke-linejoin:round;stroke-miterlimit:4;stroke-dasharray:none;stroke-dashoffset:0;stroke-opacity:1"
   d="M 17.562269,88.216416 C 17.511814,89.279282 17.449222,90.469271 17.393405,91.487937 L 110.60599,91.487937 C 110.55022,90.469271 110.4868,89.279282 110.43713,88.216416 L 17.562269,88.216416 z"
   id="rect3094" /><path
   id="path4311"
   d="M 17.562269,87.336238 C 17.511814,87.640848 17.449222,87.981892 17.393405,88.273835 L 110.60599,88.273835 C 110.55022,87.981892 110.4868,87.640848 110.43713,87.336238 L 17.562269,87.336238 z"
   style="opacity:1;fill:url(#linearGradient4313);fill-opacity:1;stroke:none;stroke-width:1;stroke-linecap:round;stroke-linejoin:round;stroke-miterlimit:4;stroke-dasharray:none;stroke-dashoffset:0;stroke-opacity:1" /><path
   transform="matrix(0.4836868,-0.1252321,0.12928,0.4685421,80.628865,38.829477)"
   d="M -8.7291577,74.369563 L -37.561119,66.557217 L -58.624158,87.738888 L -66.27445,58.863504 L -95.149834,51.213213 L -73.968163,30.150174 L -81.780509,1.318212 L -52.948547,9.1305572 L -31.885508,-12.051113 L -24.235217,16.824271 L 4.6401673,24.474562 L -16.541503,45.537601 L -8.7291577,74.369563 z"
   inkscape:randomized="0"
   inkscape:rounded="0"
   inkscape:flatsided="false"
   sodipodi:arg2="1.3089969"
   sodipodi:arg1="0.78539816"
   sodipodi:r2="29.726227"
   sodipodi:r1="51.655106"
   sodipodi:cy="37.843887"
   sodipodi:cx="-45.254833"
   sodipodi:sides="6"
   id="use4030"
   style="opacity:1;fill:url(#radialGradient4106);fill-opacity:1;stroke:none;stroke-width:1;stroke-linecap:round;stroke-linejoin:round;stroke-miterlimit:4;stroke-dasharray:none;stroke-dashoffset:0;stroke-opacity:1"
   sodipodi:type="star" /><path
   style="fill:url(#linearGradient5040);fill-opacity:1;fill-rule:evenodd;stroke:none;stroke-width:1px;stroke-linecap:butt;stroke-linejoin:miter;stroke-opacity:1;opacity:0.27227722999999998;filter:url(#filter5330)"
   d="M 54.625,17.5 C 18.496561,29.579182 24.181554,77.284737 22.375,88 L 45.5,87.625 C 45.793323,68.191024 46.114525,43.647024 63.5,27.5 C 68.558259,22.802065 63.219768,14.626425 54.625,17.5 z"
   id="path5032"
   sodipodi:nodetypes="cccss" /><path
   transform="matrix(0.558508,-4.1990275e-2,4.2813314e-2,0.5477713,121.29369,26.686906)"
   d="M -90.54457,65.955434 L -97.798036,66.352143 L -102.05329,72.239669 L -108.36977,68.651882 L -115.13255,71.304222 L -118.50661,64.871036 L -125.62979,63.446089 L -124.99018,56.209996 L -130.2122,51.160173 L -125.762,45.41858 L -127.4249,38.347165 L -120.57702,35.922988 L -118.15284,29.075104 L -111.08142,30.738002 L -105.33983,26.287805 L -100.29001,31.50982 L -93.053915,30.870215 L -91.628968,37.993393 L -85.195782,41.367451 L -87.848121,48.130235 L -84.260335,54.446715 L -90.147861,58.701968 L -90.54457,65.955434 z"
   inkscape:randomized="0"
   inkscape:rounded="0"
   inkscape:flatsided="false"
   sodipodi:arg2="1.0709975"
   sodipodi:arg1="0.78539816"
   sodipodi:r2="19.2008"
   sodipodi:r1="23.271492"
   sodipodi:cy="49.500004"
   sodipodi:cx="-107"
   sodipodi:sides="11"
   id="path4614"
   style="opacity:1;fill:#000000;fill-opacity:1;stroke:none;stroke-width:1.20000005;stroke-linecap:round;stroke-linejoin:round;stroke-miterlimit:4;stroke-dasharray:none;stroke-dashoffset:0;stroke-opacity:1;filter:url(#filter4676)"
   sodipodi:type="star" /><path
   sodipodi:type="star"
   style="opacity:1;fill:url(#radialGradient4983);fill-opacity:1;stroke:none;stroke-width:1.20000005;stroke-linecap:round;stroke-linejoin:round;stroke-miterlimit:4;stroke-dasharray:none;stroke-dashoffset:0;stroke-opacity:1"
   id="path4448"
   sodipodi:sides="11"
   sodipodi:cx="-107"
   sodipodi:cy="49.500004"
   sodipodi:r1="23.271492"
   sodipodi:r2="19.2008"
   sodipodi:arg1="0.78539816"
   sodipodi:arg2="1.0709975"
   inkscape:flatsided="false"
   inkscape:rounded="0"
   inkscape:randomized="0"
   d="M -90.54457,65.955434 L -97.798036,66.352142 L -102.05329,72.239669 L -108.36977,68.651882 L -115.13255,71.304222 L -118.50661,64.871036 L -125.62979,63.446089 L -124.99018,56.209996 L -130.2122,51.160173 L -125.762,45.41858 L -127.4249,38.347165 L -120.57702,35.922988 L -118.15284,29.075104 L -111.08142,30.738002 L -105.33983,26.287805 L -100.29001,31.50982 L -93.053915,30.870215 L -91.628968,37.993393 L -85.195782,41.367451 L -87.848122,48.130234 L -84.260335,54.446715 L -90.147861,58.701968 L -90.54457,65.955434 z"
   transform="matrix(0.558508,-4.1990275e-2,4.2813314e-2,0.5477713,121.29369,25.840951)" /><path
   style="fill:url(#radialGradient5379);fill-opacity:1;stroke:none;stroke-width:1.20000005000000010;stroke-linecap:round;stroke-linejoin:round;stroke-miterlimit:4;stroke-dasharray:none;stroke-dashoffset:0;stroke-opacity:1"
   d="M 63.71875 45.09375 C 63.569686 45.09375 63.429072 45.119873 63.28125 45.125 C 63.391983 45.723725 63.473425 46.259157 63.59375 46.90625 C 63.591781 46.913973 63.596471 46.928399 63.59375 46.9375 C 63.87427 48.446577 64.190148 50.041384 64.5 51.78125 C 64.488786 51.787735 64.479989 51.806004 64.46875 51.8125 C 64.736195 52.473022 65.011257 53.144762 65.3125 53.875 C 66.313309 53.289028 66.938061 52.914035 67.15625 52.75 C 67.020927 52.424841 66.946927 52.168007 66.8125 51.84375 C 67.464819 51.10114 67.930182 50.589165 68.40625 50.0625 C 68.437043 49.985642 68.504612 49.880324 68.53125 49.8125 C 68.520571 49.85682 68.51135 49.951883 68.5 50 C 68.945845 49.507972 69.393578 49.013128 69.625 48.78125 C 69.093283 49.141378 67.910562 49.832699 66.34375 50.75 C 65.511342 48.732216 64.702582 46.769992 64.03125 45.09375 C 63.928254 45.091268 63.82234 45.09375 63.71875 45.09375 z M 56.90625 47.09375 C 56.684686 47.23617 56.461813 47.37566 56.25 47.53125 C 57.619432 48.944564 59.256893 50.661722 60.9375 52.4375 C 60.931726 52.448746 60.912038 52.457482 60.90625 52.46875 C 61.515384 52.895429 62.09935 53.310244 62.78125 53.78125 C 63.303781 52.749392 63.629349 52.123505 63.71875 51.875 C 63.421598 51.671109 63.202237 51.51617 62.90625 51.3125 C 63.045255 50.311379 63.140623 49.614915 63.25 48.90625 C 63.166511 48.512317 63.101551 48.334435 63.0625 48.21875 C 62.756049 48.857721 62.371546 49.613297 61.875 50.59375 C 60.073854 49.349828 58.392416 48.14007 56.90625 47.09375 z M 63.0625 48.21875 C 63.09088 48.330607 63.135413 48.439905 63.25 48.75 C 63.346833 48.128802 63.43662 47.525326 63.5 47.21875 C 63.404813 47.442093 63.248915 47.798422 63.0625 48.1875 C 63.064383 48.192642 63.060479 48.212763 63.0625 48.21875 z M 70.5 47.09375 C 70.252141 47.68225 70.147832 47.956302 69.875 48.59375 C 69.267733 50.012583 68.586784 51.527128 67.875 53.15625 C 67.855856 53.155636 67.831707 53.156869 67.8125 53.15625 C 67.671143 53.841337 67.52632 54.523253 67.375 55.28125 C 68.607029 55.314231 69.362611 55.34079 69.59375 55.3125 C 69.595823 55.301947 69.591677 55.291801 69.59375 55.28125 C 69.652289 54.983346 69.722531 54.734464 69.78125 54.4375 C 70.641859 54.184506 71.224299 54.026875 71.875 53.84375 C 72.031084 53.734779 72.253657 53.586936 72.375 53.5 C 72.300719 53.569679 72.181321 53.697513 72.09375 53.78125 C 72.887255 53.559505 73.630087 53.354154 73.96875 53.28125 C 73.36242 53.311179 71.919528 53.30133 70 53.25 C 70.408402 51.203691 70.828011 49.243141 71.1875 47.53125 C 70.969249 47.371196 70.728575 47.239821 70.5 47.09375 z M 69.59375 55.3125 C 69.36836 55.340955 68.565956 55.550703 67.25 55.9375 C 67.195778 56.211632 67.147605 56.412415 67.09375 56.6875 C 67.174436 56.741603 67.265029 56.822346 67.34375 56.875 C 68.144654 56.345137 68.893313 55.845253 69.59375 55.375 C 69.599965 55.343344 69.587531 55.344153 69.59375 55.3125 z M 57.5 48.96875 C 57.548126 49.206394 57.618342 49.638008 57.6875 50.125 C 57.742346 50.186268 57.88925 50.276974 58.1875 50.5 C 57.894078 49.865904 57.611691 49.254915 57.5 48.96875 z M 57.6875 50.125 C 57.786275 50.820541 57.901436 51.663291 58.03125 52.75 C 55.95511 52.65305 54.006124 52.562849 52.25 52.46875 C 52.132692 52.724051 52.037945 52.985899 51.9375 53.25 C 53.809654 53.715691 55.990083 54.267052 58.25 54.84375 C 58.252086 54.862092 58.247912 54.887854 58.25 54.90625 C 59.027312 54.947781 59.816304 54.990571 60.6875 55.03125 C 60.544572 53.834444 60.436359 53.08296 60.375 52.875 C 59.978126 52.857686 59.676864 52.83032 59.28125 52.8125 C 58.834117 51.886333 58.523216 51.250063 58.21875 50.59375 C 57.920552 50.299649 57.754025 50.165847 57.6875 50.125 z M 63.78125 51.90625 C 63.709856 52.175276 63.582262 52.950651 63.40625 54.21875 C 63.62319 54.36801 63.782244 54.475732 64 54.625 C 64.087358 54.574633 64.196221 54.517905 64.28125 54.46875 C 64.122117 53.575091 63.989884 52.758407 63.84375 51.96875 C 63.817944 51.951052 63.807054 51.923952 63.78125 51.90625 z M 75.25 52.53125 C 73.671949 53.596767 71.857573 54.823479 69.9375 56.09375 C 69.909053 56.074719 69.872344 56.050388 69.84375 56.03125 C 69.360557 56.515699 68.871338 56.964698 68.34375 57.5 C 69.391869 58.192921 70.031592 58.67052 70.21875 58.75 C 70.444277 58.519823 70.618652 58.322938 70.84375 58.09375 C 71.617701 58.306545 72.11483 58.483749 72.71875 58.65625 C 73.198742 58.63268 73.510424 58.615188 73.75 58.59375 C 73.163405 58.220977 72.539824 57.813495 71.6875 57.25 C 73.083597 55.833234 74.386911 54.543705 75.59375 53.34375 C 75.49105 53.066442 75.371219 52.799015 75.25 52.53125 z M 70.21875 58.75 C 70.040679 58.661319 69.181178 58.376116 67.8125 58 C 67.619921 58.196108 67.473958 58.365536 67.28125 58.5625 C 67.318565 58.649425 67.369764 58.759022 67.40625 58.84375 C 68.405629 58.816616 69.34672 58.779705 70.21875 58.75 z M 67.1875 52.78125 C 66.988001 52.957257 66.443615 53.53272 65.59375 54.5 C 65.69728 54.749721 65.770676 54.968448 65.875 55.21875 C 65.963784 55.221702 66.069483 55.247207 66.15625 55.25 C 66.529576 54.395565 66.895213 53.598394 67.21875 52.84375 C 67.209318 52.821104 67.196925 52.803897 67.1875 52.78125 z M 60.40625 52.875 C 60.469151 53.09013 60.79446 53.85984 61.375 55.0625 C 61.657385 55.075226 61.841747 55.081496 62.125 55.09375 C 62.168179 55.009898 62.207995 54.894313 62.25 54.8125 C 61.592306 54.117637 61.018511 53.480386 60.4375 52.875 C 60.43297 52.870279 60.410774 52.879713 60.40625 52.875 z M 53.40625 53.6875 C 53.581904 53.864775 53.913095 54.212152 54.25 54.59375 C 54.3135 54.618175 54.54373 54.652506 54.96875 54.6875 C 54.321391 54.279326 53.672768 53.878971 53.40625 53.6875 z M 54.25 54.625 C 54.72091 55.158725 55.291713 55.818676 56 56.65625 C 54.27632 57.618884 52.673823 58.501103 51.1875 59.3125 C 51.224436 59.609073 51.286607 59.897654 51.34375 60.1875 C 53.143085 59.605829 55.18683 58.927673 57.34375 58.25 C 57.365468 58.275973 57.384421 58.317635 57.40625 58.34375 C 58.08273 57.971967 58.775967 57.57808 59.53125 57.15625 C 58.712167 56.187978 58.19789 55.599237 58.0625 55.5 C 57.71588 55.695019 57.439571 55.837341 57.09375 56.03125 C 56.265392 55.525764 55.691902 55.157258 55.09375 54.78125 C 54.601188 54.671601 54.315972 54.618265 54.25 54.625 z M 58.0625 55.5 C 58.173397 55.614744 58.916169 56.105793 60.125 56.84375 C 60.382657 56.699293 60.585589 56.582892 60.84375 56.4375 C 60.8341 56.351777 60.822018 56.271237 60.8125 56.1875 C 59.838167 55.938847 58.91348 55.710848 58.0625 55.5 z M 64.1875 56.875 C 64.067236 56.911663 63.965627 56.962738 63.84375 57 C 64.054587 57.055253 64.230555 57.070474 64.4375 57.125 C 64.348113 57.029273 64.277726 56.971476 64.1875 56.875 z M 64.4375 57.125 C 64.579304 57.276878 64.704697 57.413172 64.84375 57.5625 C 64.823466 57.443815 64.801791 57.33838 64.78125 57.21875 C 64.662785 57.187435 64.557601 57.156645 64.4375 57.125 z M 64.84375 57.5625 C 64.872991 57.733578 64.877644 57.862694 64.90625 58.03125 C 64.949646 57.933726 64.987623 57.879471 65.03125 57.78125 C 64.964936 57.709947 64.910833 57.634539 64.84375 57.5625 z M 64.90625 58.03125 C 64.815418 58.23538 64.74565 58.424882 64.65625 58.625 C 64.768794 58.55162 64.855279 58.480367 64.96875 58.40625 C 64.947568 58.280757 64.927848 58.158513 64.90625 58.03125 z M 64.65625 58.625 C 64.489994 58.733403 64.351058 58.799898 64.1875 58.90625 C 64.310003 58.903721 64.407789 58.908888 64.53125 58.90625 C 64.57743 58.803104 64.609562 58.729511 64.65625 58.625 z M 64.1875 58.90625 C 63.987045 58.910389 63.822099 58.902421 63.625 58.90625 C 63.727468 58.967092 63.802947 59.032514 63.90625 59.09375 C 64.00318 59.030831 64.089364 58.970061 64.1875 58.90625 z M 63.625 58.90625 C 63.451098 58.802997 63.295798 58.757953 63.125 58.65625 C 63.174764 58.756103 63.231054 58.805707 63.28125 58.90625 C 63.400153 58.904034 63.50455 58.908591 63.625 58.90625 z M 63.125 58.65625 C 63.029658 58.464941 62.968324 58.281674 62.875 58.09375 C 62.858633 58.223581 62.828897 58.337791 62.8125 58.46875 C 62.919531 58.532605 63.016425 58.591598 63.125 58.65625 z M 62.875 58.09375 C 62.899374 57.900387 62.913289 57.752564 62.9375 57.5625 C 62.862001 57.650628 62.79476 57.723648 62.71875 57.8125 C 62.770942 57.917821 62.822016 57.98706 62.875 58.09375 z M 62.9375 57.5625 C 63.068484 57.409611 63.183578 57.27509 63.3125 57.125 C 63.201951 57.158946 63.111336 57.184481 63 57.21875 C 62.985168 57.33441 62.95243 57.445294 62.9375 57.5625 z M 63.3125 57.125 C 63.500112 57.067395 63.659105 57.056453 63.84375 57 C 63.731739 56.970649 63.644098 56.935739 63.53125 56.90625 C 63.457802 56.991628 63.386812 57.038487 63.3125 57.125 z M 60.3125 58.09375 C 59.337805 58.39994 58.407248 58.665484 57.5625 58.9375 C 57.673288 58.979218 58.639479 58.981713 60.125 58.96875 C 60.254165 58.725349 60.37096 58.556775 60.5 58.3125 C 60.443223 58.244446 60.368042 58.160181 60.3125 58.09375 z M 73.78125 58.625 C 73.595811 58.655657 73.397524 58.681229 73.0625 58.75 C 73.809261 58.965472 74.520635 59.160865 74.875 59.28125 C 74.633323 59.142288 74.213564 58.899421 73.78125 58.625 z M 57.53125 58.96875 C 57.362955 59.286927 57.230726 59.526767 57.0625 59.84375 C 56.133947 59.851939 55.504918 59.845938 54.8125 59.84375 C 54.33505 60.009025 54.062888 60.135596 53.96875 60.1875 C 54.646976 60.386115 55.453793 60.619124 56.46875 60.9375 C 55.562559 62.637796 54.697777 64.229506 53.90625 65.6875 C 54.094762 65.919999 54.295751 66.125313 54.5 66.34375 C 55.687044 64.919585 57.069709 63.286269 58.5 61.59375 C 58.55769 61.612191 58.629273 61.637612 58.6875 61.65625 C 59.041766 61.002494 59.390587 60.357922 59.78125 59.625 C 58.497024 59.222392 57.6323 58.95545 57.53125 58.96875 z M 53.96875 60.1875 C 54.068695 60.1541 54.258499 60.032416 54.625 59.84375 C 53.804291 59.839901 53.000964 59.83488 52.65625 59.8125 C 52.917601 59.873032 53.428804 60.029379 53.96875 60.1875 z M 76.25 59.375 C 75.827076 59.390568 75.660348 59.422318 75.21875 59.4375 C 75.212941 59.435632 75.194456 59.44018 75.1875 59.4375 C 73.60427 59.491846 71.919403 59.544113 70.09375 59.59375 C 70.073853 59.547562 70.051285 59.484065 70.03125 59.4375 C 69.331596 59.597054 68.64594 59.725543 67.875 59.90625 C 68.387591 61.077884 68.717865 61.82326 68.8125 61.9375 C 68.823945 61.944081 68.832346 61.962193 68.84375 61.96875 C 69.137505 61.899039 69.363282 61.85044 69.65625 61.78125 C 70.148927 62.322015 70.452937 62.688073 70.84375 63.125 C 71.298834 63.378496 71.645912 63.540684 71.875 63.65625 C 71.596509 63.049302 71.293233 62.415828 70.90625 61.53125 C 72.775268 61.093189 74.503329 60.685374 76.125 60.3125 C 76.188705 60.005218 76.209073 59.689984 76.25 59.375 z M 68.8125 61.9375 C 68.755136 61.811884 68.159805 61.12976 67.1875 60.0625 C 66.904716 60.129282 66.689686 60.182507 66.40625 60.25 C 66.388879 60.344063 66.391818 60.470814 66.375 60.5625 C 67.239456 61.068044 68.057009 61.502873 68.8125 61.9375 z M 60.9375 59.96875 C 60.290791 60.734031 59.681881 61.456095 59.125 62.125 C 59.220106 62.117284 60.053152 61.612068 61.3125 60.8125 C 61.285199 60.538739 61.24666 60.337029 61.21875 60.0625 C 61.130218 60.034099 61.023925 59.996374 60.9375 59.96875 z M 59.125 62.125 C 59.104094 62.150109 59.051968 62.162595 59.03125 62.1875 C 59.065666 62.527883 59.091147 62.785628 59.125 63.125 C 58.43628 63.562268 57.975345 63.853861 57.4375 64.1875 C 57.101465 64.607266 56.890802 64.84319 56.8125 64.96875 C 57.483826 64.784212 58.254632 64.598215 59.25 64.34375 C 59.438963 66.273417 59.60073 68.068238 59.75 69.71875 C 60.035878 69.81374 60.330488 69.894047 60.625 69.96875 C 60.673683 69.527088 60.729435 69.152526 60.78125 68.6875 C 60.950758 67.166235 61.13575 65.559959 61.34375 63.8125 C 61.411285 63.795627 61.49423 63.767024 61.5625 63.75 C 61.496291 63.023191 61.454199 62.308298 61.375 61.5 C 60.053859 61.837657 59.206421 62.05972 59.125 62.125 z M 56.8125 64.96875 C 56.892981 64.858092 57.008801 64.646447 57.21875 64.28125 C 56.468158 64.744871 55.725492 65.204339 55.40625 65.375 C 55.671117 65.285243 56.234119 65.127738 56.8125 64.96875 z M 62.78125 61.15625 C 62.693636 61.178049 62.585539 61.197371 62.5 61.21875 C 62.384882 62.186166 62.281558 63.093823 62.1875 63.9375 C 62.283496 63.829923 62.685457 63.013398 63.28125 61.71875 C 63.107865 61.505687 62.955504 61.36957 62.78125 61.15625 z M 62.1875 63.9375 C 62.182339 63.983794 62.192575 64.048018 62.1875 64.09375 C 62.372684 64.320791 62.503095 64.492147 62.6875 64.71875 C 62.373451 65.401287 62.16093 65.835388 61.90625 66.375 C 61.85561 66.910748 61.848587 67.264375 61.84375 67.46875 C 62.303109 66.96559 62.788767 66.437714 63.46875 65.71875 C 64.703444 67.241466 65.858424 68.655103 66.90625 69.96875 C 67.190339 69.895237 67.474013 69.811171 67.75 69.71875 C 66.898094 68.0742 65.944458 66.205307 64.9375 64.21875 C 64.992724 64.160997 65.069051 64.089692 65.125 64.03125 C 64.672345 63.465576 64.224617 62.90509 63.71875 62.28125 C 62.830853 63.220342 62.253106 63.808914 62.1875 63.9375 z M 61.84375 67.46875 C 61.842861 67.295999 61.807304 67.073178 61.78125 66.6875 C 61.416197 67.455916 61.087302 68.199016 60.90625 68.53125 C 61.089277 68.309458 61.464786 67.915329 61.84375 67.5 C 61.843797 67.490588 61.843803 67.479005 61.84375 67.46875 z M 64.71875 61.21875 C 64.657188 61.283006 64.591301 61.374692 64.53125 61.4375 C 64.984344 62.331395 65.413623 63.16504 65.8125 63.9375 C 65.847599 63.864731 65.727566 62.942325 65.5 61.5 C 65.215576 61.404976 65.00421 61.313506 64.71875 61.21875 z M 65.8125 63.9375 C 65.816367 63.944992 65.808641 63.961277 65.8125 63.96875 C 66.107288 64.066853 66.331196 64.12061 66.625 64.21875 C 66.738684 64.938113 66.789563 65.423892 66.875 66 C 67.005428 66.243567 67.183115 66.54224 67.28125 66.71875 C 67.197012 66.606027 67.04536 66.390623 66.9375 66.25 C 67.073759 67.182565 67.189449 68.095389 67.21875 68.46875 C 67.274461 67.883063 67.518066 66.489745 67.84375 64.65625 C 69.671335 65.270202 71.33364 65.827241 72.90625 66.375 C 73.121121 66.146821 73.333641 65.93115 73.53125 65.6875 C 73.201895 65.498889 72.936835 65.35359 72.59375 65.15625 C 71.235693 64.375107 69.775515 63.535423 68.21875 62.625 C 68.230625 62.560303 68.237973 62.502871 68.25 62.4375 C 67.569929 62.204434 66.909092 61.940394 66.15625 61.6875 C 65.926671 62.981697 65.782487 63.851097 65.8125 63.9375 z M 71.125 63.40625 C 71.680787 64.031515 72.233153 64.642199 72.46875 64.9375 C 72.33642 64.684436 72.109209 64.197488 71.875 63.6875 C 71.694351 63.613459 71.457604 63.528073 71.125 63.40625 z "
   id="path4684" /><path
   style="fill:url(#radialGradient5387);fill-opacity:1;stroke:none;stroke-width:1.20000005;stroke-linecap:round;stroke-linejoin:round;stroke-miterlimit:4;stroke-dasharray:none;stroke-dashoffset:0;stroke-opacity:1"
   d="M 76.597785,56.293774 C 74.859704,55.802262 72.86459,55.200278 70.764036,54.574572 C 71.554186,52.841624 72.17613,51.530293 72.466947,51.004611 C 72.230039,51.302312 71.619579,51.991532 70.977697,52.698725 C 71.14389,52.642474 71.361737,52.5659 71.493196,52.519528 C 71.3142,52.611629 71.022516,52.777842 70.779481,52.907814 C 70.38195,53.343964 70.067507,53.687177 69.565558,54.227743 C 69.275868,54.140883 69.046663,54.08506 68.756211,53.997599 C 68.748869,54.001671 68.766796,54.024602 68.759439,54.028682 C 68.686146,54.084169 68.305292,54.858644 67.747305,56.08169 C 68.490421,56.30306 69.146597,56.48721 69.820523,56.683291 C 69.848365,56.621267 69.897911,56.545253 69.92549,56.483884 C 71.683835,56.615139 73.310511,56.759524 74.836933,56.885041 C 75.500359,56.939593 76.034259,56.99054 76.64416,57.042991 C 76.639519,56.798366 76.616793,56.540658 76.597785,56.293774 z M 68.759439,54.028682 C 68.000416,54.4494 67.164116,54.892701 66.292518,55.384458 C 66.304316,55.472038 66.309392,55.574528 66.321564,55.664204 C 66.602688,55.749097 66.819376,55.8135 67.099828,55.897575 C 68.105939,54.813528 68.745701,54.110258 68.759439,54.028682 z M 74.269409,49.906335 C 74.128679,49.711037 73.983098,49.509875 73.831867,49.323406 C 72.094675,49.877617 70.021193,50.510659 67.896571,51.164983 C 67.767415,50.166727 67.691003,49.432834 67.61375,48.743744 C 67.500662,48.918753 67.320882,49.232248 67.054604,49.712924 C 66.948308,50.314605 66.854264,50.814215 66.713384,51.570598 C 66.437155,51.655123 66.229551,51.722253 65.952449,51.806697 C 65.930317,51.848163 65.894493,51.898724 65.87211,51.940711 C 65.85069,52.086925 65.970321,52.9028 66.138793,54.206535 C 66.897826,53.972796 67.585954,53.76089 68.269412,53.545456 C 68.258377,53.463923 68.220136,53.349472 68.209283,53.268938 C 70.427722,52.017314 72.510674,50.873465 74.269409,49.906335 z M 65.87211,51.940711 C 65.464168,52.705917 65.018794,53.520586 64.556793,54.402215 C 64.612556,54.469597 64.708712,54.531498 64.765882,54.600431 C 65.026445,54.52124 65.211381,54.512426 65.471107,54.432952 C 65.738251,52.99818 65.886864,52.086761 65.87211,51.940711 z M 67.61375,48.743744 C 67.619659,48.735135 67.639485,48.748472 67.644833,48.740517 C 67.581231,48.171839 67.483876,47.606454 67.46529,47.313931 C 67.419119,47.698375 67.265053,48.53423 67.115579,49.392413 C 67.356955,49.082459 67.514202,48.8888 67.61375,48.743744 z M 74.597952,57.004109 C 74.241725,57.116979 73.471532,57.312135 72.672004,57.518264 C 72.993491,57.604194 73.202654,57.684588 73.384874,57.727007 C 73.392014,57.72867 73.408946,57.722202 73.415957,57.72378 C 73.893915,57.429203 74.347976,57.140981 74.597952,57.004109 z M 73.384874,57.727007 C 73.136656,57.692181 72.77793,57.64033 72.271154,57.591303 C 71.710517,57.733938 71.257351,57.849357 70.556331,58.020701 C 70.363041,57.793325 70.215928,57.644637 70.022312,57.416371 C 70.009495,57.415314 70.004091,57.420659 69.991229,57.419599 C 69.850644,57.46125 69.179768,57.898257 68.101973,58.589722 C 68.611391,59.186909 69.064396,59.69413 69.529251,60.232351 C 69.571818,60.204676 69.604887,60.184716 69.647128,60.157276 C 71.06991,61.252702 72.414678,62.270384 73.642068,63.229871 C 74.018285,63.524005 74.313813,63.784376 74.671377,64.065536 C 74.829714,63.818017 74.984518,63.554178 75.125556,63.295763 C 73.994311,61.9829 72.731614,60.519626 71.408825,58.968979 C 72.22254,58.446921 72.816244,58.077731 73.384874,57.727007 z M 69.991229,57.419599 C 69.142029,57.349838 68.242848,57.272717 67.266462,57.199829 C 67.227373,57.286793 67.145793,57.378568 67.105783,57.467857 C 67.292467,57.688304 67.453231,57.852719 67.639802,58.072186 C 69.023304,57.733984 69.873759,57.492344 69.991229,57.419599 z M 73.290474,63.172124 C 72.939918,63.069059 72.24818,62.818722 71.531313,62.569331 C 71.758269,62.820626 71.929016,62.978649 72.058877,63.111495 C 72.559527,63.129748 73.018862,63.149748 73.290474,63.172124 z M 71.996711,63.11795 C 71.818542,62.961625 71.572399,62.74306 71.204347,62.446191 C 70.625604,62.243022 70.147825,62.082883 69.410875,61.815543 C 69.363078,61.492511 69.302684,61.244704 69.255115,60.920593 C 69.060872,60.879557 68.314161,60.915609 67.084576,60.894621 C 67.197675,61.650169 67.321461,62.308275 67.428371,62.995348 C 67.462049,62.995724 67.491347,63.016368 67.524847,63.016749 C 68.265442,65.034845 68.937974,66.902034 69.55173,68.618624 C 69.835201,68.480471 70.116009,68.344337 70.386549,68.186345 C 70.129626,66.568815 69.876762,64.878591 69.59891,63.021321 C 70.598811,63.038374 71.317155,63.09354 71.996711,63.11795 z M 69.255115,60.920593 C 68.578947,60.392308 67.878884,59.827475 67.100021,59.227863 C 67.02254,59.278203 66.912575,59.329534 66.833184,59.381241 C 66.873672,59.658426 66.90408,59.878701 66.944952,60.155086 C 68.248088,60.628027 69.062829,60.892553 69.255115,60.920593 z M 68.369229,45.429247 C 68.127283,45.340101 67.898049,45.232757 67.649904,45.158338 C 66.506349,46.565818 65.170818,48.172922 63.771536,49.865304 C 63.125925,49.076444 62.618925,48.498765 62.19088,47.955839 C 62.181282,48.106831 62.208277,48.440383 62.235218,48.988029 C 62.471854,49.579564 62.663226,50.063293 62.960499,50.82922 C 62.73942,51.095655 62.569786,51.317084 62.347678,51.584046 C 62.349898,51.616988 62.386191,51.640845 62.388444,51.674067 C 62.415814,51.776066 62.947037,52.459453 63.804003,53.506421 C 64.329422,52.871016 64.780792,52.265434 65.249261,51.691203 C 65.204732,51.637457 65.149591,51.570807 65.105565,51.517615 C 65.940034,49.925081 66.738127,48.472844 67.473781,47.093124 C 67.798464,46.484179 68.069499,45.988706 68.369229,45.429247 z M 62.388444,51.674067 C 62.448386,52.5591 62.512683,53.494207 62.588889,54.512293 C 62.673391,54.538892 62.794925,54.580422 62.881544,54.607578 C 63.0608,54.392353 63.207836,54.236005 63.38617,54.021076 C 62.842606,52.620539 62.459627,51.735457 62.388444,51.674067 z M 62.19088,47.955839 C 61.822097,47.488079 61.47498,47.018465 61.315794,46.78998 C 61.471912,47.118025 61.784779,47.925201 62.11615,48.749048 C 62.158211,48.32015 62.191541,48.095529 62.19088,47.955839 z M 69.144079,67.718411 C 68.916593,67.461534 68.420082,66.825538 67.916208,66.180749 C 67.937907,66.301849 67.938983,66.483239 67.958164,66.584827 C 67.91145,66.441542 67.834232,66.189066 67.772512,66.007162 C 67.360055,65.477326 67.002441,64.999305 66.463111,64.289457 C 66.586343,64.005334 66.665819,63.786321 66.789731,63.501512 C 66.79412,63.491424 66.813196,63.477288 66.817586,63.467201 C 66.650044,63.309972 66.019924,62.891661 65.021732,62.208441 C 64.708329,62.934495 64.444623,63.586442 64.165013,64.245312 C 64.180635,64.255875 64.214836,64.259406 64.230406,64.26994 C 63.864092,66.053495 63.508815,67.734205 63.179736,69.280242 C 63.127056,69.527744 63.103331,69.617055 63.051332,69.859098 C 63.377391,69.883957 63.699627,69.915177 64.031039,69.914463 C 64.633003,68.491706 65.262113,67.045522 65.954412,65.441907 C 67.509582,66.506428 68.679241,67.343274 69.144079,67.718411 z M 66.817586,63.467201 C 66.830752,63.436941 66.860125,63.428842 66.873297,63.398581 C 66.585585,62.598093 66.251834,61.767317 65.918372,60.858621 C 65.825673,60.85756 65.699405,60.860785 65.604315,60.859812 C 65.489734,61.122693 65.416067,61.320068 65.302323,61.582364 C 66.12705,62.667746 66.654708,63.313148 66.817586,63.467201 z M 64.879533,57.510505 C 64.782905,57.437033 64.700979,57.360486 64.605051,57.287661 C 64.674213,57.471669 64.717345,57.646956 64.787476,57.834243 C 64.810158,57.719235 64.857224,57.624067 64.879533,57.510505 z M 64.787476,57.834243 C 64.744041,58.054467 64.706891,58.219756 64.662299,58.444183 C 64.75228,58.34941 64.830815,58.29108 64.919453,58.197556 C 64.871663,58.069616 64.834953,57.961031 64.787476,57.834243 z M 64.662299,58.444183 C 64.543122,58.569708 64.445931,58.697544 64.324806,58.824824 C 64.419347,58.802835 64.50782,58.786514 64.601325,58.764694 C 64.622845,58.656751 64.640996,58.551407 64.662299,58.444183 z M 64.324806,58.824824 C 64.128838,58.870406 63.971388,58.898944 63.771769,58.945083 C 63.885341,58.987728 63.98665,59.026243 64.098735,59.068223 C 64.183507,58.979271 64.240777,58.913131 64.324806,58.824824 z M 63.771769,58.945083 C 63.576075,58.8716 63.413516,58.795318 63.214313,58.720202 C 63.289873,58.821939 63.330608,58.945674 63.405229,59.045977 C 63.532145,59.016752 63.64595,58.974166 63.771769,58.945083 z M 63.214313,58.720202 C 63.099841,58.566074 63.005553,58.470907 62.889383,58.314089 C 62.898954,58.429873 62.912122,58.510587 62.921657,58.624918 C 63.028231,58.665193 63.108483,58.680294 63.214313,58.720202 z M 62.889383,58.314089 C 62.872777,58.113212 62.844701,57.927941 62.828062,57.723514 C 62.772871,57.830894 62.72822,57.947693 62.673839,58.053707 C 62.74273,58.146839 62.82093,58.221689 62.889383,58.314089 z M 62.828062,57.723514 C 62.917562,57.549384 62.999222,57.401997 63.09048,57.224996 C 62.987321,57.284322 62.897534,57.354056 62.795788,57.412685 C 62.80537,57.531423 62.81847,57.605684 62.828062,57.723514 z M 63.09048,57.224996 C 63.272182,57.1205 63.407826,57.027651 63.59307,56.921467 C 63.469775,56.913288 63.366314,56.902767 63.244704,56.894803 C 63.182809,57.01462 63.151753,57.106148 63.09048,57.224996 z M 63.59307,56.921467 C 63.787025,56.934337 63.937083,56.977578 64.134389,56.990933 C 64.039986,56.919448 63.956381,56.869657 63.863134,56.799172 C 63.76571,56.854926 63.689756,56.866046 63.59307,56.921467 z M 64.134389,56.990933 C 64.288871,57.107906 64.44808,57.168486 64.605051,57.287661 C 64.563556,57.177255 64.520576,57.095473 64.479528,56.986514 C 64.36238,56.978498 64.250652,56.998799 64.134389,56.990933 z M 64.04287,61.556046 C 63.972303,61.508328 63.878185,61.440891 63.805926,61.39214 C 63.579789,61.542851 63.417089,61.682228 63.191914,61.832911 C 63.31403,63.138453 63.410403,63.928538 63.468279,64.191983 C 63.488729,64.178339 63.506763,64.168085 63.527218,64.154445 C 63.701812,63.331827 63.850759,62.491487 64.04287,61.556046 z M 63.437197,64.195211 C 63.357613,63.931068 63.0628,63.279634 62.60253,62.208288 C 61.945273,62.649774 61.341317,63.035108 60.750812,63.437349 C 60.756029,63.44931 60.752063,63.48758 60.757267,63.499515 C 59.51551,64.786796 58.349663,65.957206 57.263266,67.066941 C 57.260223,67.076179 57.238264,67.093609 57.23541,67.101251 C 57.060522,67.279877 56.923066,67.416472 56.752185,67.591278 C 57.03282,67.788721 57.331929,67.985745 57.628115,68.160106 C 58.890135,67.298776 60.185882,66.415279 61.619789,65.452128 C 62.340391,67.129311 62.868688,68.365546 63.085296,68.975868 C 63.034011,68.646921 62.98713,68.000387 62.914244,67.328474 C 62.895736,67.375569 62.82292,67.453289 62.806049,67.496798 C 62.823679,67.424275 62.847528,67.258818 62.867024,67.176287 C 62.789936,66.457751 62.712149,65.785123 62.618514,64.782904 C 62.910891,64.587248 63.143593,64.391112 63.437197,64.195211 z M 61.097522,44.9904 C 60.850438,45.04895 60.601951,45.088523 60.361215,45.161106 C 60.144973,46.954476 59.876185,49.010027 59.600319,51.146696 C 58.61139,50.829236 57.843201,50.552754 57.190453,50.328706 C 57.235584,50.42677 57.393486,50.680096 57.678443,51.094905 C 58.230087,51.492663 58.713037,51.8452 59.446442,52.387976 C 59.398803,52.752166 59.380408,53.039987 59.332138,53.40522 C 59.40485,53.474745 60.232498,53.753904 61.483659,54.155781 C 61.592468,53.312731 61.680797,52.556121 61.77324,51.800781 C 61.716292,51.782882 61.667781,51.772507 61.611371,51.754753 C 61.429465,49.324613 61.230839,46.97032 61.097522,44.9904 z M 57.190453,50.328706 C 56.670789,50.150339 56.193591,49.991675 55.95121,49.891855 C 56.238023,50.071934 56.85555,50.516317 57.510119,50.98671 C 57.326738,50.616219 57.250787,50.414532 57.190453,50.328706 z M 62.141204,61.093722 C 62.101741,61.003231 62.025224,60.888661 61.984599,60.795803 C 61.726104,60.795915 61.524301,60.838375 61.266465,60.83895 C 60.680833,62.009091 60.361185,62.717316 60.264013,62.985207 C 60.294652,62.985182 60.323392,62.944459 60.354034,62.944442 C 60.921993,62.363373 61.503406,61.754928 62.141204,61.093722 z M 61.371392,54.890052 C 60.197991,54.021826 59.447298,53.465088 59.335366,53.436303 C 59.851209,54.153027 60.420561,54.922878 61.020144,55.743391 C 61.102303,55.719468 61.212593,55.707843 61.296663,55.683262 C 61.333852,55.402954 61.334803,55.169696 61.371392,54.890052 z M 60.76641,59.351389 C 60.534244,59.198247 60.355944,59.067628 60.124197,58.915384 C 58.974636,59.59377 58.29338,60.046686 58.120291,60.191666 C 58.126585,60.190305 58.148302,60.220884 58.154602,60.219521 C 58.962809,60.044699 59.781854,59.846783 60.702208,59.640818 C 60.715629,59.547637 60.752752,59.446966 60.76641,59.351389 z M 58.120291,60.191666 C 58.293394,60.044515 58.763919,59.48237 59.553831,58.566172 C 58.838058,58.097676 58.206658,57.678206 57.565025,57.26461 C 57.552841,57.278906 57.549325,57.284668 57.537169,57.29892 C 55.396922,56.475303 53.341851,55.686658 51.579934,54.995598 C 51.526539,55.288465 51.485353,55.589796 51.452721,55.888511 C 52.889013,56.814332 54.482383,57.816125 56.165796,58.917959 C 55.44085,59.758758 54.874455,60.426082 54.39799,60.955176 C 54.474241,60.959148 54.676509,60.959905 55.081814,60.884173 C 55.699337,60.506841 56.293647,60.120603 57.178967,59.598209 C 57.503629,59.811505 57.763834,59.980442 58.089208,60.194893 C 58.090984,60.193413 58.11844,60.193239 58.120291,60.191666 z M 54.39799,60.955176 C 54.064385,61.325627 53.751494,61.653361 53.577271,61.825843 C 53.829783,61.649165 54.395757,61.289923 54.991792,60.924938 C 54.627114,60.940749 54.476637,60.935199 54.39799,60.955176 z M 60.507373,57.461788 C 60.385351,57.190286 60.269102,56.984189 60.146941,56.713762 C 58.763839,56.637976 57.90617,56.615526 57.752367,56.648216 C 58.549432,56.961652 59.392409,57.318107 60.309157,57.670877 C 60.364631,57.605809 60.450656,57.528453 60.507373,57.461788 z M 57.752367,56.648216 C 57.916764,56.642728 58.656513,56.426828 59.861586,56.083613 C 59.502571,55.292278 59.201778,54.564623 58.876768,53.860936 C 58.844475,53.870344 58.787786,53.895576 58.755664,53.904929 C 57.350966,51.982464 56.004636,50.114745 54.867035,48.527781 C 54.67085,48.733636 54.519639,48.96127 54.337781,49.179677 C 55.084149,50.780923 55.908862,52.580872 56.774005,54.487705 C 55.731783,54.784729 54.918998,55.012764 54.239308,55.19074 C 54.287896,55.234489 54.545136,55.359802 54.999398,55.55167 C 55.689992,55.580025 56.356288,55.605882 57.303951,55.657982 C 57.467895,56.020956 57.588425,56.283845 57.752367,56.648216 z M 54.239308,55.19074 C 54.23665,55.189933 54.210536,55.194543 54.208225,55.193967 C 53.722095,55.32109 53.284265,55.424012 53.043212,55.472023 C 53.364614,55.464489 54.092644,55.507074 54.840757,55.536724 C 54.495722,55.328665 54.310797,55.212438 54.239308,55.19074 z M 60.541876,60.819931 C 59.73036,60.823295 59.009627,60.826714 58.281316,60.834724 C 58.279469,60.84756 58.289613,60.884084 58.28777,60.89689 C 56.148483,61.375766 54.145878,61.823751 52.359774,62.203603 C 52.482198,62.493307 52.649387,62.760841 52.792054,63.038422 C 54.411906,63.019337 56.130306,63.007634 58.003453,63 C 57.837186,64.112739 57.681646,64.96991 57.559648,65.685193 C 57.656878,65.61025 57.816518,65.503562 58.108267,65.219795 C 58.426788,64.559518 58.76307,63.891196 59.225368,62.96738 C 59.577173,62.966574 59.845765,62.960901 60.19862,62.960579 C 60.269738,62.699583 60.366849,61.990982 60.541876,60.819931 z M 57.559648,65.685193 C 57.554616,65.689073 57.567316,65.713034 57.562875,65.716276 C 57.488444,66.151714 57.410673,66.531151 57.358551,66.774286 C 57.483579,66.479372 57.746254,65.902065 58.0247,65.322726 C 57.756197,65.517896 57.64621,65.607315 57.559648,65.685193 z"
   id="path4703" /><path
   sodipodi:type="star"
   style="opacity:1;fill:url(#linearGradient5373);fill-opacity:1;stroke:none;stroke-width:1;stroke-linecap:round;stroke-linejoin:round;stroke-miterlimit:4;stroke-dasharray:none;stroke-dashoffset:0;stroke-opacity:1"
   id="path5363"
   sodipodi:sides="6"
   sodipodi:cx="-45.254833"
   sodipodi:cy="37.843887"
   sodipodi:r1="51.655106"
   sodipodi:r2="29.726227"
   sodipodi:arg1="0.78539816"
   sodipodi:arg2="1.3089969"
   inkscape:flatsided="false"
   inkscape:rounded="0"
   inkscape:randomized="0"
   d="M -8.7291577,74.369563 L -37.561119,66.557217 L -58.624158,87.738888 L -66.27445,58.863504 L -95.149834,51.213213 L -73.968163,30.150174 L -81.780509,1.318212 L -52.948547,9.1305572 L -31.885508,-12.051113 L -24.235217,16.824271 L 4.6401673,24.474562 L -16.541503,45.537601 L -8.7291577,74.369563 z"
   transform="matrix(0.4836868,-0.1252321,0.12928,0.4685421,80.628865,38.829477)" /><path
   style="opacity:1;fill:#000000;fill-opacity:1;stroke:none;stroke-width:1;stroke-linecap:round;stroke-linejoin:round;stroke-miterlimit:4;stroke-dasharray:none;stroke-dashoffset:0;stroke-opacity:1;filter:url(#filter4163)"
   d="M 308.28125,-14.65625 L 293.40625,11.25 L 263.53125,11.125 L 265.28125,14.125 L 293.40625,14.25 L 308.28125,-11.65625 L 323.125,14.25 L 351.25,14.1875 L 353,11.1875 L 323.125,11.25 L 308.28125,-14.65625 z M 277.65625,38.46875 L 263.5,62.78125 L 265.25,62.78125 L 278.53125,39.96875 L 277.65625,38.46875 z M 338.84375,38.5 L 337.96875,40 L 351.21875,62.84375 L 352.96875,62.84375 L 338.84375,38.5 z"
   id="path4118"
   clip-path="url(#clipPath4167)"
   transform="matrix(0.500666,0,0,0.4849896,-90.695709,43.801322)" /><g
   id="g4300"
   transform="matrix(0.500666,0,0,0.4849896,-99.496522,43.801322)"><path
     style="fill:#000000;fill-opacity:1;stroke:none;stroke-width:4.50000048;stroke-linecap:round;stroke-linejoin:round;stroke-miterlimit:4;stroke-dashoffset:0;stroke-opacity:1;filter:url(#filter4296)"
     d="M 325.20361,-15.547928 C 324.62397,-15.38595 324.13337,-14.998521 323.84144,-14.472211 L 309.59762,10.295725 L 281.04129,10.197349 C 280.24037,10.199835 279.50113,10.627858 279.10023,11.321235 C 278.69933,12.014612 278.69721,12.86882 279.09465,13.564183 L 293.4272,38.263406 L 279.03842,62.973048 C 278.64462,63.670533 278.65126,64.524771 279.05587,65.216044 C 279.46047,65.907317 280.20203,66.331407 281.00301,66.329589 L 309.57937,66.260876 L 323.74692,91.068895 C 324.14889,91.770808 324.89666,92.202972 325.70552,92.200843 C 326.51439,92.198714 327.25988,91.762621 327.65815,91.058601 L 341.90196,66.290665 L 370.45829,66.389042 C 371.25922,66.386555 371.99846,65.958532 372.39935,65.265156 C 372.80025,64.571779 372.80238,63.717571 372.40493,63.022207 L 358.06432,38.292794 L 372.43098,13.621411 C 372.82625,12.928084 372.8247,12.07726 372.42692,11.385371 C 372.02914,10.693482 371.29463,10.264056 370.49658,10.256801 L 341.92022,10.325514 L 327.72248,-14.474435 C 327.22221,-15.360696 326.18938,-15.800869 325.20361,-15.547928 z M 325.76707,-8.8409692 L 338.6772,13.683027 C 339.07883,14.381194 339.82299,14.811454 340.62843,14.811196 L 366.58993,14.762098 L 353.52841,37.176171 C 353.11739,37.874971 353.11404,38.740845 353.51964,39.442803 L 366.5344,61.874141 L 340.601,61.78634 C 339.79029,61.785043 339.04155,62.219947 338.641,62.924802 L 325.73252,85.42736 L 312.82238,62.903364 C 312.42075,62.205197 311.6766,61.774937 310.87115,61.775195 L 284.90965,61.824293 L 297.97117,39.410219 C 298.3822,38.71142 298.38554,37.845545 297.97994,37.143588 L 284.96518,14.712249 L 310.89858,14.800051 C 311.7093,14.801347 312.45803,14.366444 312.85858,13.661588 L 325.76707,-8.8409692 z"
     id="path4282" /><path
     id="path4173"
     d="M 325.20361,-15.547928 C 324.62397,-15.38595 324.13337,-14.998521 323.84144,-14.472211 L 309.59762,10.295725 L 281.04129,10.197349 C 280.24037,10.199835 279.50113,10.627858 279.10023,11.321235 C 278.69933,12.014612 278.69721,12.86882 279.09465,13.564183 L 293.4272,38.263406 L 279.03842,62.973048 C 278.64462,63.670533 278.65126,64.524771 279.05587,65.216044 C 279.46047,65.907317 280.20203,66.331407 281.00301,66.329589 L 309.57937,66.260876 L 323.74692,91.068895 C 324.14889,91.770808 324.89666,92.202972 325.70552,92.200843 C 326.51439,92.198714 327.25988,91.762621 327.65815,91.058601 L 341.90196,66.290665 L 370.45829,66.389042 C 371.25922,66.386555 371.99846,65.958532 372.39935,65.265156 C 372.80025,64.571779 372.80238,63.717571 372.40493,63.022207 L 358.06432,38.292794 L 372.43098,13.621411 C 372.82625,12.928084 372.8247,12.07726 372.42692,11.385371 C 372.02914,10.693482 371.29463,10.264056 370.49658,10.256801 L 341.92022,10.325514 L 327.72248,-14.474435 C 327.22221,-15.360696 326.18938,-15.800869 325.20361,-15.547928 z M 325.76707,-8.8409692 L 338.6772,13.683027 C 339.07883,14.381194 339.82299,14.811454 340.62843,14.811196 L 366.58993,14.762098 L 353.52841,37.176171 C 353.11739,37.874971 353.11404,38.740845 353.51964,39.442803 L 366.5344,61.874141 L 340.601,61.78634 C 339.79029,61.785043 339.04155,62.219947 338.641,62.924802 L 325.73252,85.42736 L 312.82238,62.903364 C 312.42075,62.205197 311.6766,61.774937 310.87115,61.775195 L 284.90965,61.824293 L 297.97117,39.410219 C 298.3822,38.71142 298.38554,37.845545 297.97994,37.143588 L 284.96518,14.712249 L 310.89858,14.800051 C 311.7093,14.801347 312.45803,14.366444 312.85858,13.661588 L 325.76707,-8.8409692 z"
     style="fill:url(#linearGradient4307);fill-opacity:1;stroke:none;stroke-width:4.50000048;stroke-linecap:round;stroke-linejoin:round;stroke-miterlimit:4;stroke-dashoffset:0;stroke-opacity:1" /><path
     transform="translate(0,-144.63904)"
     clip-path="url(#clipPath4261)"
     style="opacity:0.41089107;fill:none;fill-opacity:1;stroke:#000000;stroke-width:1.20000005;stroke-linecap:round;stroke-linejoin:round;stroke-miterlimit:4;stroke-dasharray:none;stroke-dashoffset:0;stroke-opacity:1;filter:url(#filter4257)"
     d="M 325.20361,128.45207 C 324.62397,128.61405 324.13337,129.00148 323.84144,129.52779 L 309.59762,154.29573 L 281.04129,154.19735 C 280.24037,154.19984 279.50113,154.62786 279.10023,155.32124 C 278.69933,156.01461 278.69721,156.86882 279.09465,157.56418 L 293.4272,182.26341 L 279.03842,206.97305 C 278.64462,207.67053 278.65126,208.52477 279.05587,209.21604 C 279.46047,209.90732 280.20203,210.33141 281.00301,210.32959 L 309.57937,210.26088 L 323.74692,235.0689 C 324.14889,235.77081 324.89666,236.20297 325.70552,236.20084 C 326.51439,236.19872 327.25988,235.76262 327.65815,235.0586 L 341.90196,210.29067 L 370.45829,210.38904 C 371.25922,210.38656 371.99846,209.95853 372.39935,209.26516 C 372.80025,208.57178 372.80238,207.71757 372.40493,207.02221 L 358.06432,182.2928 L 372.43098,157.62141 C 372.82625,156.92809 372.8247,156.07726 372.42692,155.38537 C 372.02914,154.69348 371.29463,154.26406 370.49658,154.2568 L 341.92022,154.32552 L 327.72248,129.52557 C 327.22221,128.63931 326.18938,128.19913 325.20361,128.45207 z M 325.76707,135.15903 L 338.6772,157.68303 C 339.07883,158.38119 339.82299,158.81145 340.62843,158.8112 L 366.58993,158.7621 L 353.52841,181.17617 C 353.11739,181.87497 353.11404,182.74085 353.51964,183.4428 L 366.5344,205.87414 L 340.601,205.78634 C 339.79029,205.78504 339.04155,206.21995 338.641,206.9248 L 325.73252,229.42736 L 312.82238,206.90336 C 312.42075,206.2052 311.6766,205.77494 310.87115,205.7752 L 284.90965,205.82429 L 297.97117,183.41022 C 298.3822,182.71142 298.38554,181.84555 297.97994,181.14359 L 284.96518,158.71225 L 310.89858,158.80005 C 311.7093,158.80135 312.45803,158.36644 312.85858,157.66159 L 325.76707,135.15903 z"
     id="path4237" /><path
     sodipodi:type="star"
     style="opacity:1;fill:none;fill-opacity:1;stroke:url(#radialGradient4309);stroke-width:1.4000001;stroke-linecap:round;stroke-linejoin:round;stroke-miterlimit:4;stroke-dasharray:none;stroke-dashoffset:0;stroke-opacity:1;filter:url(#filter4223)"
     sodipodi:sides="6"
     sodipodi:cx="-45.254833"
     sodipodi:cy="37.843887"
     sodipodi:r1="51.655106"
     sodipodi:r2="29.726227"
     sodipodi:arg1="0.78539816"
     sodipodi:arg2="1.3089969"
     inkscape:flatsided="false"
     inkscape:rounded="0"
     inkscape:randomized="0"
     d="M -8.7291577,74.369563 L -37.561118,66.557217 L -58.624158,87.738888 L -66.274449,58.863505 L -95.149834,51.213213 L -73.968164,30.150175 L -81.780509,1.318212 L -52.948548,9.1305574 L -31.885508,-12.051113 L -24.235217,16.82427 L 4.6401673,24.474562 L -16.541503,45.5376 L -8.7291577,74.369563 z"
     transform="matrix(0.9660871,-0.2582163,0.2582163,0.9660871,359.69336,-10.451451)"
     id="path4305" /></g><path
   style="fill:#000000;fill-opacity:1;fill-rule:evenodd;stroke:none;stroke-width:1px;stroke-linecap:butt;stroke-linejoin:miter;stroke-opacity:1;filter:url(#filter4386)"
   d="M 238.3125,6.1243959 C 194.20517,6.1243959 195.74246,55.063206 194.1839,84.164467 L 198.82194,86.71875 C 200.21671,60.675877 198.84062,16.879272 238.3125,16.879272 C 278.0705,16.879272 276.4083,60.675878 277.80306,86.71875 L 282.4411,84.164467 C 280.88255,55.063207 282.73955,6.1243959 238.3125,6.1243959 z"
   id="path4319"
   sodipodi:nodetypes="cccsccc"
   clip-path="url(#clipPath4390)"
   transform="matrix(1.1357853,0,0,1.1002225,-206.26041,-2.2398329)" /><path
   style="opacity:1;fill:url(#linearGradient4024);fill-opacity:1;stroke:none;stroke-width:1;stroke-linecap:round;stroke-linejoin:round;stroke-miterlimit:4;stroke-dashoffset:0;stroke-opacity:1;filter:url(#filter4444)"
   d="M 86.628541,29.38022 C 86.628541,37.250218 76.293762,41.563683 63.559839,41.563683 C 50.825915,41.563683 40.491135,37.250218 40.491135,29.38022 C 40.491135,21.510222 50.825915,15.122977 63.559839,15.122977 C 76.293762,15.122977 86.628541,21.510222 86.628541,29.38022 z"
   id="path4015"
   sodipodi:nodetypes="csssc"
   transform="matrix(1.1012759,0,0,0.9999358,-6.4971439,-0.7231999)" /><path
   style="fill:url(#radialGradient4746);fill-opacity:1;fill-rule:evenodd;stroke:none;stroke-width:1px;stroke-linecap:butt;stroke-linejoin:miter;stroke-opacity:1"
   d="M 126.61002,104.0004 C 108.83373,106.70562 82.132393,111.54767 65.100146,120.53812 C 64.497476,120.85416 62.852597,120.8887 62.154203,120.50373 C 45.291892,111.62256 19.0375,106.82124 1.2832113,104.10354 L 0.85729175,104.41298 C 18.613795,107.10945 45.409923,111.94475 62.509136,120.9507 C 63.207553,121.33565 64.816915,121.30114 65.419586,120.98508 C 82.516289,111.96061 109.367,107.11232 127.14242,104.41298 L 126.61002,104.0004 z"
   id="path4732" /><path
   id="path4748"
   d="M 126.61002,104.0004 C 108.83373,106.70562 82.132393,111.54767 65.100146,120.53812 C 64.497476,120.85416 62.852597,120.8887 62.154203,120.50373 C 45.291892,111.62256 19.0375,106.82124 1.2832113,104.10354 L 0.85729175,104.41298 C 18.613795,107.10945 45.409923,111.94475 62.509136,120.9507 C 63.207553,121.33565 64.816915,121.30114 65.419586,120.98508 C 82.516289,111.96061 109.367,107.11232 127.14242,104.41298 L 126.61002,104.0004 z"
   style="fill:url(#radialGradient4756);fill-opacity:1;fill-rule:evenodd;stroke:none;stroke-width:1px;stroke-linecap:butt;stroke-linejoin:miter;stroke-opacity:1" /><path
   style="opacity:0.72277228;fill:#000000;fill-opacity:1;stroke:none;stroke-width:1.20000005;stroke-linecap:round;stroke-linejoin:round;stroke-miterlimit:4;stroke-dasharray:none;stroke-dashoffset:0;stroke-opacity:1;filter:url(#filter4975)"
   d="M 64 12.5 C 60.327731 12.5 56.990335 12.995734 54.53125 13.78125 C 54.765071 15.965692 58.920784 17.6875 64 17.6875 C 69.079217 17.6875 73.234932 15.965692 73.46875 13.78125 C 71.009665 12.995734 67.672269 12.5 64 12.5 z "
   id="path4861" /><path
   style="fill:url(#linearGradient4859);fill-opacity:1;fill-rule:evenodd;stroke:none;stroke-width:1px;stroke-linecap:butt;stroke-linejoin:miter;stroke-opacity:1"
   d="M 63.993336,0.9424154 C 56.891953,0.9424154 56.043475,7.4297453 55.765907,12.653673 C 56.339777,14.607398 59.471994,16.308818 63.993336,16.308818 C 68.456296,16.308818 72.095867,14.718652 72.233492,12.733802 C 71.972001,7.4964401 71.182595,0.9424154 63.993336,0.9424154 z"
   id="path4788" /><path
   style="fill:#000000;fill-opacity:0.50267382;fill-rule:evenodd;stroke:none;stroke-width:1px;stroke-linecap:butt;stroke-linejoin:miter;stroke-opacity:1;filter:url(#filter4837)"
   d="M -43.952003,12.78125 C -78.828043,12.78125 -82.995083,45.671418 -84.358253,72.15625 C -83.879263,73.839658 -83.034873,75.48905 -81.858253,77.0625 C -81.901503,76.92833 -81.944923,76.790944 -81.983253,76.65625 C -80.700503,51.73393 -76.770483,20.78125 -43.952003,20.78125 C -10.727403,20.78125 -7.0979627,52.044835 -5.8895027,77.03125 C -5.9263927,77.580499 -5.9961327,78.120783 -6.1395027,78.65625 C -4.5634327,76.753717 -3.6271527,74.70492 -3.4832527,72.5625 C -4.7674727,46.009552 -8.6443827,12.78125 -43.952003,12.78125 z"
   id="path4804"
   clip-path="url(#clipPath4853)"
   transform="matrix(0.2036177,0,0,0.1972422,72.931723,-1.578587)" /><path
   sodipodi:type="arc"
   style="opacity:0.72277228;fill:url(#linearGradient4849);fill-opacity:1;stroke:none;stroke-width:1.20000005;stroke-linecap:round;stroke-linejoin:round;stroke-miterlimit:4;stroke-dasharray:none;stroke-dashoffset:0;stroke-opacity:1"
   id="path4841"
   sodipodi:cx="-39.299328"
   sodipodi:cy="28.916662"
   sodipodi:rx="20.451195"
   sodipodi:ry="12.639534"
   d="M -18.848133,28.916662 A 20.451195,12.639534 0 1 1 -59.750523,28.916662 A 20.451195,12.639534 0 1 1 -18.848133,28.916662 z"
   transform="matrix(0.2036177,0,0,0.1972422,72.001741,-1.8575296)" /><path
   transform="matrix(-1.3509071,0,0,1.3086086,151.7174,-16.472268)"
   sodipodi:nodetypes="ccccc"
   id="path5005"
   d="M 97.050403,83.629051 L 107.12667,91.407225 C 93.419927,93.474526 80.898215,97.319374 68.589356,101.4835 C 78.490731,95.611806 78.103298,88.897031 78.400753,83.667207 L 97.050403,83.629051 z"
   style="opacity:0.28712871000000001;fill:url(#linearGradient5014);fill-opacity:1;fill-rule:evenodd;stroke:none;stroke-width:1px;stroke-linecap:butt;stroke-linejoin:miter;stroke-opacity:1;filter:url(#filter5302)" /><path
   style="fill:url(#linearGradient5102);fill-rule:evenodd;stroke:none;stroke-width:1px;stroke-linecap:butt;stroke-linejoin:miter;stroke-opacity:1;fill-opacity:1;filter:url(#filter5092);opacity:0.50495049999999997"
   d="M 65,13.25 C 105.18802,17.593084 106.91057,55.31284 106.85,86.6 L 105.1,86.85 C 104.4719,55.535891 101.85588,18.622354 62.75,14 L 65,13.25 z"
   id="path5058"
   sodipodi:nodetypes="ccccc" /><path
   style="fill:url(#linearGradient5159);fill-opacity:1;fill-rule:evenodd;stroke:none;stroke-width:1px;stroke-linecap:butt;stroke-linejoin:miter;stroke-opacity:1;filter:url(#filter5278)"
   d="M 56.375,13.75 C 56.35635,14.027979 56.32695,14.321816 56.3125,14.59375 C 56.85213,16.430901 59.77968,18.03125 64.03125,18.03125 C 68.22791,18.03125 71.65184,16.522669 71.78125,14.65625 C 71.76914,14.413763 71.73392,14.153857 71.71875,13.90625 C 71.31136,15.651971 68.03486,17.03125 64.03125,17.03125 C 59.91254,17.03125 57.04238,15.514086 56.375,13.75 z"
   id="path5146"
   transform="matrix(1.0710492,0,0,1.0634535,-4.6062334,-2.1867065)" /></svg>