<?xml version="1.0" encoding="UTF-8" standalone="no"?>
<!-- Created with Inkscape (http://www.inkscape.org/) -->
<svg
   xmlns:dc="http://purl.org/dc/elements/1.1/"
   xmlns:cc="http://creativecommons.org/ns#"
   xmlns:rdf="http://www.w3.org/1999/02/22-rdf-syntax-ns#"
   xmlns:svg="http://www.w3.org/2000/svg"
   xmlns="http://www.w3.org/2000/svg"
   xmlns:xlink="http://www.w3.org/1999/xlink"
   xmlns:sodipodi="http://sodipodi.sourceforge.net/DTD/sodipodi-0.dtd"
   xmlns:inkscape="http://www.inkscape.org/namespaces/inkscape"
   width="128"
   height="128"
   id="svg2606"
   sodipodi:version="0.32"
   inkscape:version="0.46"
   version="1.0"
   sodipodi:docname="user-properties.svgz"
   inkscape:output_extension="org.inkscape.output.svgz.inkscape"
   sodipodi:docbase="/home/pinheiro/pics/oxygen/scalable/mimetypes"
   inkscape:export-filename="/home/pinheiro/pics/oxygen-icons/scalable/actions/user-properties.png"
   inkscape:export-xdpi="45"
   inkscape:export-ydpi="45">
  <sodipodi:namedview
     id="base"
     pagecolor="#ffffff"
     bordercolor="#666666"
     borderopacity="1.0"
     inkscape:pageopacity="0.0"
     inkscape:pageshadow="2"
     inkscape:zoom="1.3175388"
     inkscape:cx="56.255619"
     inkscape:cy="93.293796"
     inkscape:document-units="px"
     inkscape:current-layer="layer1"
     width="128px"
     height="128px"
     showgrid="false"
     inkscape:grid-points="true"
     showguides="true"
     inkscape:guide-bbox="true"
     inkscape:window-width="1016"
     inkscape:window-height="692"
     inkscape:window-x="240"
     inkscape:window-y="23">
    <inkscape:grid
       type="xygrid"
       id="grid4304"
       spacingx="4px"
       spacingy="4px"
       empspacing="2" />
    <inkscape:grid
       id="GridFromPre046Settings"
       type="xygrid"
       originx="0px"
       originy="0px"
       spacingx="4px"
       spacingy="4px"
       color="#0000ff"
       empcolor="#0000ff"
       opacity="0.2"
       empopacity="0.4"
       empspacing="2" />
  </sodipodi:namedview>
  <defs
     id="defs2608">
    <filter
       inkscape:collect="always"
       id="filter3624">
      <feGaussianBlur
         inkscape:collect="always"
         stdDeviation="1.1236176"
         id="feGaussianBlur3626" />
    </filter>
    <radialGradient
       inkscape:collect="always"
       xlink:href="#linearGradient3654"
       id="radialGradient3660"
       cx="312"
       cy="431.38034"
       fx="311.27777"
       fy="433.70554"
       r="16.25"
       gradientTransform="matrix(0.696437,0,0,1.188967,-175.09425,-439.0428)"
       gradientUnits="userSpaceOnUse" />
    <linearGradient
       id="linearGradient3654">
      <stop
         style="stop-color:#f9ede0;stop-opacity:1;"
         offset="0"
         id="stop3656" />
      <stop
         id="stop3670"
         offset="0.5"
         style="stop-color:#f9ede0;stop-opacity:0.80575538;" />
      <stop
         style="stop-color:#f9ede0;stop-opacity:0;"
         offset="1"
         id="stop3658" />
    </linearGradient>
    <radialGradient
       inkscape:collect="always"
       xlink:href="#linearGradient3654"
       id="radialGradient3674"
       gradientUnits="userSpaceOnUse"
       gradientTransform="matrix(-0.696437,0,0,1.188967,285.63744,-439.0428)"
       cx="312"
       cy="431.38034"
       fx="311.27777"
       fy="433.70554"
       r="16.25" />
    <filter
       inkscape:collect="always"
       id="filter3694">
      <feGaussianBlur
         inkscape:collect="always"
         stdDeviation="1.640636"
         id="feGaussianBlur3696" />
    </filter>
    <clipPath
       clipPathUnits="userSpaceOnUse"
       id="clipPath3705">
      <path
         sodipodi:nodetypes="cccccccc"
         id="path3707"
         d="M 341.25,409.625 C 339.73679,416.82736 335.50876,433.0214 340.75,436.875 C 340.10353,443.87478 333.6714,446.51892 325.75,448.0625 L 324.25,448.0625 C 316.3286,446.51892 309.89647,443.87478 309.25,436.875 C 314.49124,433.0214 310.26321,416.82736 308.75,409.625 L 325,417.03125 L 341.25,409.625 z "
         style="opacity:0.74906365;fill:url(#radialGradient3709);fill-opacity:1;fill-rule:evenodd;stroke:none;stroke-width:1px;stroke-linecap:butt;stroke-linejoin:miter;stroke-opacity:1" />
    </clipPath>
    <linearGradient
       id="linearGradient3149">
      <stop
         style="stop-color:#faf0e5;stop-opacity:1;"
         offset="0"
         id="stop3151" />
      <stop
         id="stop3378"
         offset="0.591133"
         style="stop-color:#f7e7d6;stop-opacity:1;" />
      <stop
         style="stop-color:#efcfac;stop-opacity:1;"
         offset="1"
         id="stop3153" />
    </linearGradient>
    <radialGradient
       inkscape:collect="always"
       xlink:href="#linearGradient3149"
       id="radialGradient3155"
       cx="324.39757"
       cy="396.09259"
       fx="330.04404"
       fy="392.75388"
       r="22.444886"
       gradientTransform="matrix(1.0059645,0,0,1.4472234,-271.44676,-535.35257)"
       gradientUnits="userSpaceOnUse" />
    <radialGradient
       inkscape:collect="always"
       xlink:href="#linearGradient3279"
       id="radialGradient3291"
       gradientUnits="userSpaceOnUse"
       gradientTransform="matrix(1,0,0,1.4395859,0.3535533,-174.66839)"
       cx="412.43236"
       cy="395.73904"
       fx="412.43236"
       fy="395.73904"
       r="22.444886" />
    <mask
       maskUnits="userSpaceOnUse"
       id="mask3287">
      <path
         style="opacity:1;fill:url(#radialGradient3291);fill-opacity:1;fill-rule:evenodd;stroke:none;stroke-width:1px;stroke-linecap:butt;stroke-linejoin:miter;stroke-opacity:1"
         d="M 412.56716,362.7206 C 404.7906,362.9256 395.78945,368.58113 392.66091,375.5331 C 389.47419,382.61431 389.9381,391.06936 391.84841,400.8456 C 393.75873,410.62183 400.03668,420.79216 403.22341,424.4706 C 406.24381,427.95705 410.11265,427.32692 412.56716,427.25185 C 412.69296,427.25185 412.8695,427.24772 413.00466,427.25185 C 415.45917,427.32692 419.32801,427.95705 422.34841,424.4706 C 425.53514,420.79216 431.81309,410.62183 433.72341,400.8456 C 435.63374,391.06936 436.09763,382.61431 432.91091,375.5331 C 429.78236,368.58113 420.78122,362.9256 413.00466,362.7206 L 412.56716,362.7206 z "
         id="path3289"
         sodipodi:nodetypes="csssssssscc" />
    </mask>
    <filter
       inkscape:collect="always"
       id="filter3325">
      <feGaussianBlur
         inkscape:collect="always"
         stdDeviation="0.16076312"
         id="feGaussianBlur3327" />
    </filter>
    <linearGradient
       inkscape:collect="always"
       id="linearGradient3329">
      <stop
         style="stop-color:#f9eee2;stop-opacity:1;"
         offset="0"
         id="stop3331" />
      <stop
         style="stop-color:#f9eee2;stop-opacity:0;"
         offset="1"
         id="stop3333" />
    </linearGradient>
    <linearGradient
       inkscape:collect="always"
       xlink:href="#linearGradient3329"
       id="linearGradient3335"
       x1="317.01251"
       y1="431.1243"
       x2="331.42062"
       y2="418.65884"
       gradientUnits="userSpaceOnUse"
       gradientTransform="translate(-372.5,-324.5)" />
    <radialGradient
       inkscape:collect="always"
       xlink:href="#linearGradient3837"
       id="radialGradient3853"
       gradientUnits="userSpaceOnUse"
       gradientTransform="matrix(1,0,0,2.5768702,43.133514,-626.29699)"
       cx="303.71943"
       cy="397.17727"
       fx="303.71943"
       fy="397.17727"
       r="0.79621875" />
    <filter
       inkscape:collect="always"
       x="-0.15930008"
       width="1.3186002"
       y="-0.071685554"
       height="1.1433711"
       id="filter3833">
      <feGaussianBlur
         inkscape:collect="always"
         stdDeviation="0.10560268"
         id="feGaussianBlur3835" />
    </filter>
    <linearGradient
       inkscape:collect="always"
       id="linearGradient3837">
      <stop
         style="stop-color:#f1e4d4;stop-opacity:1;"
         offset="0"
         id="stop3839" />
      <stop
         style="stop-color:#f1e4d4;stop-opacity:0;"
         offset="1"
         id="stop3841" />
    </linearGradient>
    <radialGradient
       inkscape:collect="always"
       xlink:href="#linearGradient3837"
       id="radialGradient3843"
       cx="303.71943"
       cy="397.17727"
       fx="303.71943"
       fy="397.17727"
       r="0.79621875"
       gradientTransform="matrix(1,0,0,2.5768702,-372.5,-950.79699)"
       gradientUnits="userSpaceOnUse" />
    <filter
       inkscape:collect="always"
       id="filter3420">
      <feGaussianBlur
         inkscape:collect="always"
         stdDeviation="1.110954"
         id="feGaussianBlur3422" />
    </filter>
    <clipPath
       clipPathUnits="userSpaceOnUse"
       id="clipPath3429">
      <path
         style="fill:none;fill-opacity:0.75;fill-rule:evenodd;stroke:#000000;stroke-width:1px;stroke-linecap:butt;stroke-linejoin:miter;stroke-opacity:1"
         d="M 303.70236,398.81874 L 303.52558,385.56049 L 306.17724,378.31265 L 311.48054,376.54488 L 319.96582,379.19653 L 327.39044,380.61074 L 334.63828,376.89843 L 339.94158,376.89843 L 343.65389,382.02496 L 345.59844,390.15668 L 345.42166,395.45998 L 345.77521,397.40453 L 337.99704,382.37851 L 328.4511,386.09082 L 321.55681,386.2676 L 311.12698,381.31785 L 303.70236,398.81874 z "
         id="path3431" />
    </clipPath>
    <linearGradient
       inkscape:collect="always"
       id="linearGradient3433">
      <stop
         style="stop-color:#ffffff;stop-opacity:1;"
         offset="0"
         id="stop3435" />
      <stop
         style="stop-color:#ffffff;stop-opacity:0;"
         offset="1"
         id="stop3437" />
    </linearGradient>
    <linearGradient
       inkscape:collect="always"
       xlink:href="#linearGradient3433"
       id="linearGradient3439"
       x1="324.65039"
       y1="398.85446"
       x2="325.7691"
       y2="370.57019"
       gradientUnits="userSpaceOnUse" />
    <linearGradient
       inkscape:collect="always"
       id="linearGradient3368">
      <stop
         style="stop-color:#e5d3c3;stop-opacity:1;"
         offset="0"
         id="stop3370" />
      <stop
         style="stop-color:#e5d3c3;stop-opacity:0;"
         offset="1"
         id="stop3372" />
    </linearGradient>
    <radialGradient
       inkscape:collect="always"
       xlink:href="#linearGradient3368"
       id="radialGradient3374"
       cx="332.49338"
       cy="369.61789"
       fx="332.49338"
       fy="369.61789"
       r="22.779817"
       gradientTransform="matrix(-0.7020433,-0.1106778,8.3859807e-2,-0.5312371,265.2384,247.24451)"
       gradientUnits="userSpaceOnUse" />
    <filter
       inkscape:collect="always"
       x="-0.028506439"
       width="1.0570129"
       y="-0.10615479"
       height="1.2123096"
       id="filter3479">
      <feGaussianBlur
         inkscape:collect="always"
         stdDeviation="0.4439284"
         id="feGaussianBlur3481" />
    </filter>
    <linearGradient
       inkscape:collect="always"
       id="linearGradient3489">
      <stop
         style="stop-color:#765c44;stop-opacity:1;"
         offset="0"
         id="stop3491" />
      <stop
         style="stop-color:#765c44;stop-opacity:0;"
         offset="1"
         id="stop3493" />
    </linearGradient>
    <linearGradient
       inkscape:collect="always"
       xlink:href="#linearGradient3489"
       id="linearGradient3495"
       x1="304.88664"
       y1="385.86126"
       x2="345.62039"
       y2="384.62384"
       gradientUnits="userSpaceOnUse" />
    <filter
       inkscape:collect="always"
       id="filter3625">
      <feGaussianBlur
         inkscape:collect="always"
         stdDeviation="0.34264273"
         id="feGaussianBlur3627" />
    </filter>
    <linearGradient
       inkscape:collect="always"
       id="linearGradient3499">
      <stop
         style="stop-color:#ffffff;stop-opacity:1;"
         offset="0"
         id="stop3501" />
      <stop
         style="stop-color:#ffffff;stop-opacity:0;"
         offset="1"
         id="stop3503" />
    </linearGradient>
    <linearGradient
       inkscape:collect="always"
       xlink:href="#linearGradient3499"
       id="linearGradient3505"
       x1="330.09335"
       y1="407.39011"
       x2="320.36423"
       y2="367.39182"
       gradientUnits="userSpaceOnUse"
       gradientTransform="translate(-372.5,-324.5)" />
    <filter
       inkscape:collect="always"
       x="-0.1148592"
       width="1.2297184"
       y="-0.086798316"
       height="1.1735966"
       id="filter3569">
      <feGaussianBlur
         inkscape:collect="always"
         stdDeviation="0.6238629"
         id="feGaussianBlur3571" />
    </filter>
    <linearGradient
       inkscape:collect="always"
       id="linearGradient3581">
      <stop
         style="stop-color:#dfcbba;stop-opacity:1;"
         offset="0"
         id="stop3583" />
      <stop
         style="stop-color:#dfcbba;stop-opacity:0;"
         offset="1"
         id="stop3585" />
    </linearGradient>
    <linearGradient
       inkscape:collect="always"
       xlink:href="#linearGradient3581"
       id="linearGradient3587"
       x1="353.44516"
       y1="390.86218"
       x2="339.76785"
       y2="373.61218"
       gradientUnits="userSpaceOnUse"
       gradientTransform="translate(-372.5,-324.5)" />
    <filter
       inkscape:collect="always"
       x="-0.18809821"
       width="1.3761964"
       y="-0.059054089"
       height="1.1181082"
       id="filter3775">
      <feGaussianBlur
         inkscape:collect="always"
         stdDeviation="0.26451311"
         id="feGaussianBlur3777" />
    </filter>
    <linearGradient
       id="linearGradient3397">
      <stop
         style="stop-color:#f4f5f8;stop-opacity:1;"
         offset="0"
         id="stop3399" />
      <stop
         style="stop-color:#fdfdfe;stop-opacity:1;"
         offset="1"
         id="stop3401" />
    </linearGradient>
    <linearGradient
       inkscape:collect="always"
       xlink:href="#linearGradient3397"
       id="linearGradient3403"
       x1="325.29688"
       y1="481.87405"
       x2="325.29688"
       y2="426.80276"
       gradientUnits="userSpaceOnUse"
       gradientTransform="matrix(1.0059645,0,0,1.0053055,-271.66684,-360.28069)" />
    <linearGradient
       inkscape:collect="always"
       id="linearGradient3516">
      <stop
         style="stop-color:#c8cddc;stop-opacity:1;"
         offset="0"
         id="stop3518" />
      <stop
         style="stop-color:#c8cddc;stop-opacity:0;"
         offset="1"
         id="stop3520" />
    </linearGradient>
    <linearGradient
       inkscape:collect="always"
       xlink:href="#linearGradient3516"
       id="linearGradient3522"
       x1="283.50647"
       y1="463.03894"
       x2="312.78384"
       y2="443.03894"
       gradientUnits="userSpaceOnUse"
       gradientTransform="translate(-372.5,-324.5)" />
    <filter
       inkscape:collect="always"
       id="filter4059">
      <feGaussianBlur
         inkscape:collect="always"
         stdDeviation="1.5449742"
         id="feGaussianBlur4061" />
    </filter>
    <clipPath
       clipPathUnits="userSpaceOnUse"
       id="clipPath4063">
      <path
         style="fill:#f4f5f8;fill-opacity:1;fill-rule:evenodd;stroke:none;stroke-width:1px;stroke-linecap:butt;stroke-linejoin:miter;stroke-opacity:1"
         d="M 410.16587,443.06739 C 399.92306,443.35352 396.79838,439.11371 395.91587,435.375 C 394.63808,435.58506 393.88204,436.60113 393.91587,437.375 C 386.83254,440.20988 378.26803,443.06735 370.66587,446.875 C 367.84405,448.28835 364.62926,452.59537 363.79087,454.875 C 361.23389,461.82756 358.41587,471.625 358.41587,471.625 L 359.91587,473.375 C 375.56063,482.28715 396.79503,481.875 410.16587,481.875 C 423.53671,481.875 444.77111,482.28715 460.41587,473.375 L 461.91587,471.625 C 461.91587,471.625 459.09785,461.82756 456.54087,454.875 C 455.70248,452.59537 452.48769,448.28835 449.66587,446.875 C 442.06371,443.06735 433.4992,440.20988 426.41587,437.375 C 426.4497,436.60113 425.69366,435.58506 424.41587,435.375 C 422.00224,439.11764 420.40868,442.78126 410.16587,443.06739 z "
         id="path4065"
         sodipodi:nodetypes="cccssccsccssccz" />
    </clipPath>
    <linearGradient
       inkscape:collect="always"
       id="linearGradient4067">
      <stop
         style="stop-color:#8d97b7;stop-opacity:1;"
         offset="0"
         id="stop4069" />
      <stop
         style="stop-color:#8d97b7;stop-opacity:0;"
         offset="1"
         id="stop4071" />
    </linearGradient>
    <linearGradient
       inkscape:collect="always"
       xlink:href="#linearGradient4067"
       id="linearGradient4073"
       x1="414.41586"
       y1="458.62646"
       x2="461.90625"
       y2="458.62648"
       gradientUnits="userSpaceOnUse" />
    <filter
       inkscape:collect="always"
       id="filter3393">
      <feGaussianBlur
         inkscape:collect="always"
         stdDeviation="0.49977699"
         id="feGaussianBlur3395" />
    </filter>
    <linearGradient
       inkscape:collect="always"
       id="linearGradient4126">
      <stop
         style="stop-color:#ffffff;stop-opacity:1;"
         offset="0"
         id="stop4128" />
      <stop
         style="stop-color:#ffffff;stop-opacity:0;"
         offset="1"
         id="stop4130" />
    </linearGradient>
    <linearGradient
       inkscape:collect="always"
       xlink:href="#linearGradient4126"
       id="linearGradient4132"
       x1="326"
       y1="476.40894"
       x2="310.53195"
       y2="429.73987"
       gradientUnits="userSpaceOnUse"
       gradientTransform="translate(-372.5,-324.5)" />
    <filter
       inkscape:collect="always"
       x="-0.020813678"
       width="1.0416274"
       y="-0.13193184"
       height="1.2638637"
       id="filter3283">
      <feGaussianBlur
         inkscape:collect="always"
         stdDeviation="0.60896269"
         id="feGaussianBlur3285" />
    </filter>
    <clipPath
       clipPathUnits="userSpaceOnUse"
       id="clipPath3289">
      <path
         id="path3291"
         d="M 463.75,435.375 C 462.47221,435.58506 461.71617,436.60113 461.75,437.375 C 461.67075,437.40672 460.87251,438.49769 460.79289,438.52941 C 462.04491,442.53121 465.95016,446.80149 477.54289,446.49816 C 489.04307,446.19726 493.45299,441.22873 494.71875,437.5625 C 494.5676,437.5025 494.39985,437.43497 494.25,437.375 C 494.28383,436.60113 493.52779,435.58506 492.25,435.375 C 489.83637,439.11764 488.24281,442.77637 478,443.0625 C 467.75719,443.34864 464.63251,439.11371 463.75,435.375 z M 459.125,438.40625 C 453.68198,440.50508 447.66707,442.67009 441.90625,445.28125 C 447.80188,443.05208 453.52791,442.11601 458.76072,440.15441 C 458.75013,439.92745 459.01107,438.6493 459.125,438.40625 z M 497.46875,438.625 C 497.52198,438.79302 497.56984,438.93659 497.5625,439.09375 C 501.77057,440.67121 506.39991,442.24968 511.125,443.96875 C 506.49146,442.00962 501.81994,440.29346 497.46875,438.625 z "
         style="fill:#f4f5f8;fill-opacity:1;fill-rule:evenodd;stroke:#98a2bf;stroke-width:1px;stroke-linecap:butt;stroke-linejoin:miter;stroke-opacity:1;filter:url(#filter3283)"
         sodipodi:nodetypes="cccscccsccccccccc" />
    </clipPath>
    <linearGradient
       inkscape:collect="always"
       xlink:href="#linearGradient3343"
       id="linearGradient3349"
       x1="315.72318"
       y1="453.0892"
       x2="290.62091"
       y2="434.35086"
       gradientUnits="userSpaceOnUse"
       gradientTransform="translate(-372.5,-324.5)" />
    <filter
       inkscape:collect="always"
       x="-0.083255699"
       width="1.1665114"
       y="-0.42668505"
       height="1.8533701"
       id="filter3339">
      <feGaussianBlur
         inkscape:collect="always"
         stdDeviation="0.50285367"
         id="feGaussianBlur3341" />
    </filter>
    <linearGradient
       inkscape:collect="always"
       id="linearGradient3343">
      <stop
         style="stop-color:#bbc1d4;stop-opacity:1;"
         offset="0"
         id="stop3345" />
      <stop
         style="stop-color:#bbc1d4;stop-opacity:0;"
         offset="1"
         id="stop3347" />
    </linearGradient>
    <linearGradient
       inkscape:collect="always"
       xlink:href="#linearGradient3343"
       id="linearGradient3359"
       gradientUnits="userSpaceOnUse"
       gradientTransform="translate(58.5,26.5)"
       x1="315.72318"
       y1="453.0892"
       x2="290.62091"
       y2="434.35086" />
    <filter
       inkscape:collect="always"
       id="filter3493">
      <feGaussianBlur
         inkscape:collect="always"
         stdDeviation="1.105682"
         id="feGaussianBlur3495" />
    </filter>
    <linearGradient
       inkscape:collect="always"
       id="linearGradient3508">
      <stop
         style="stop-color:#c8cddc;stop-opacity:1;"
         offset="0"
         id="stop3510" />
      <stop
         style="stop-color:#c8cddc;stop-opacity:0;"
         offset="1"
         id="stop3512" />
    </linearGradient>
    <linearGradient
       inkscape:collect="always"
       xlink:href="#linearGradient3508"
       id="linearGradient3514"
       x1="270.50647"
       y1="482.53894"
       x2="299.28384"
       y2="441.53894"
       gradientUnits="userSpaceOnUse" />
    <filter
       inkscape:collect="always"
       x="-0.17129332"
       width="1.3425866"
       y="-0.074019866"
       height="1.1480397"
       id="filter3574">
      <feGaussianBlur
         inkscape:collect="always"
         stdDeviation="0.57604943"
         id="feGaussianBlur3576" />
    </filter>
    <linearGradient
       inkscape:collect="always"
       id="linearGradient3586">
      <stop
         style="stop-color:#000000;stop-opacity:1;"
         offset="0"
         id="stop3588" />
      <stop
         style="stop-color:#000000;stop-opacity:0;"
         offset="1"
         id="stop3590" />
    </linearGradient>
    <linearGradient
       inkscape:collect="always"
       xlink:href="#linearGradient3586"
       id="linearGradient3592"
       x1="313.74829"
       y1="444.45746"
       x2="305.67725"
       y2="463.13513"
       gradientUnits="userSpaceOnUse"
       gradientTransform="translate(-372.5,-324.5)" />
    <linearGradient
       inkscape:collect="always"
       id="linearGradient3578">
      <stop
         style="stop-color:#c8cddc;stop-opacity:1;"
         offset="0"
         id="stop3580" />
      <stop
         style="stop-color:#c8cddc;stop-opacity:0;"
         offset="1"
         id="stop3582" />
    </linearGradient>
    <linearGradient
       inkscape:collect="always"
       xlink:href="#linearGradient3578"
       id="linearGradient3584"
       x1="313.74829"
       y1="444.45746"
       x2="305.67725"
       y2="463.13513"
       gradientUnits="userSpaceOnUse"
       gradientTransform="translate(-372.5,-324.5)" />
    <linearGradient
       inkscape:collect="always"
       id="linearGradient3279"
       x1="338.62283"
       y1="457.90872"
       gradientTransform="translate(-95.225391,0)"
       x2="339.51855"
       gradientUnits="userSpaceOnUse"
       xlink:href="#linearGradient3215"
       y2="502.82175" />
    <linearGradient
       id="linearGradient3163">
      <stop
         offset="0"
         id="stop3165"
         style="stop-color:#fff5e4;stop-opacity:1;" />
      <stop
         offset="0.25"
         id="stop3173"
         style="stop-color:#ffecd0;stop-opacity:1;" />
      <stop
         offset="0.5"
         id="stop3171"
         style="stop-color:#ffd390;stop-opacity:1;" />
      <stop
         offset="1"
         id="stop3167"
         style="stop-color:#ffc46a;stop-opacity:1;" />
    </linearGradient>
    <linearGradient
       id="linearGradient3215">
      <stop
         offset="0"
         id="stop3217"
         style="stop-color:#671800;stop-opacity:1;" />
      <stop
         offset="1"
         id="stop3219"
         style="stop-color:#7b3900;stop-opacity:0;" />
    </linearGradient>
    <linearGradient
       id="linearGradient3733">
      <stop
         offset="0"
         id="stop3735"
         style="stop-color:#e2e2e2;stop-opacity:1;" />
      <stop
         offset="1"
         id="stop3737"
         style="stop-color:#ffffff;stop-opacity:1;" />
    </linearGradient>
    <linearGradient
       inkscape:collect="always"
       xlink:href="#linearGradient3733"
       id="linearGradient4765"
       gradientTransform="matrix(0.5366445,0,0,1.8634309,-372.5,-324.5)"
       x1="563.64667"
       y1="214.96599"
       x2="568.9887"
       y2="214.96599"
       gradientUnits="userSpaceOnUse" />
    <filter
       inkscape:collect="always"
       id="filter3319">
      <feGaussianBlur
         inkscape:collect="always"
         stdDeviation="0.58883353"
         id="feGaussianBlur3321" />
    </filter>
    <linearGradient
       inkscape:collect="always"
       xlink:href="#linearGradient3163"
       id="linearGradient3330"
       x1="412.78592"
       y1="400.84558"
       x2="412.78592"
       y2="422.63611"
       gradientUnits="userSpaceOnUse" />
    <linearGradient
       id="linearGradient3325">
      <stop
         id="stop3327"
         offset="0"
         style="stop-color:#ffffff;stop-opacity:1;" />
      <stop
         id="stop3329"
         offset="1"
         style="stop-color:#ffffff;stop-opacity:0;" />
    </linearGradient>
    <linearGradient
       id="linearGradient3303">
      <stop
         style="stop-color:#ffffff;stop-opacity:0.68345326;"
         offset="0"
         id="stop3305" />
      <stop
         style="stop-color:#ffffff;stop-opacity:0;"
         offset="1"
         id="stop3307" />
    </linearGradient>
    <linearGradient
       inkscape:collect="always"
       id="linearGradient3235">
      <stop
         style="stop-color:#ffffff;stop-opacity:1;"
         offset="0"
         id="stop3237" />
      <stop
         style="stop-color:#ffffff;stop-opacity:0;"
         offset="1"
         id="stop3239" />
    </linearGradient>
    <linearGradient
       id="linearGradient3225">
      <stop
         style="stop-color:#ffffff;stop-opacity:1;"
         offset="0"
         id="stop3227" />
      <stop
         style="stop-color:#aeaeae;stop-opacity:1;"
         offset="1"
         id="stop3229" />
    </linearGradient>
    <linearGradient
       id="linearGradient3207">
      <stop
         style="stop-color:#ffffff;stop-opacity:1;"
         offset="0"
         id="stop3209" />
      <stop
         style="stop-color:#252525;stop-opacity:0;"
         offset="1"
         id="stop3211" />
    </linearGradient>
    <linearGradient
       id="linearGradient2257">
      <stop
         style="stop-color:#b4942a;stop-opacity:1;"
         offset="0"
         id="stop2259" />
      <stop
         style="stop-color:#e4dcc9;stop-opacity:1"
         offset="1"
         id="stop2261" />
    </linearGradient>
    <linearGradient
       id="linearGradient3058">
      <stop
         style="stop-color:#9a7600;stop-opacity:1;"
         offset="0"
         id="stop3060" />
      <stop
         id="stop3066"
         offset="0.09292036"
         style="stop-color:#e3ad00;stop-opacity:1;" />
      <stop
         style="stop-color:#ffcd2c;stop-opacity:1;"
         offset="0.5043171"
         id="stop3070" />
      <stop
         style="stop-color:#e3ad00;stop-opacity:1;"
         offset="0.91571385"
         id="stop3068" />
      <stop
         style="stop-color:#b98d00;stop-opacity:1;"
         offset="1"
         id="stop3062" />
    </linearGradient>
    <linearGradient
       id="linearGradient2598">
      <stop
         style="stop-color:#252525;stop-opacity:1;"
         offset="0"
         id="stop2600" />
      <stop
         id="stop2606"
         offset="0.29354507"
         style="stop-color:#252525;stop-opacity:1;" />
      <stop
         style="stop-color:#252525;stop-opacity:1;"
         offset="0.45366704"
         id="stop2608" />
      <stop
         style="stop-color:#000000;stop-opacity:1;"
         offset="1"
         id="stop2602" />
    </linearGradient>
    <radialGradient
       r="1.7246193"
       fy="2.6743078"
       fx="49.011971"
       cy="2.6743078"
       cx="49.011971"
       gradientTransform="matrix(1.068574,0,0,0.129196,-85.14742,-168.8884)"
       gradientUnits="userSpaceOnUse"
       id="radialGradient31084"
       xlink:href="#linearGradient3207"
       inkscape:collect="always" />
    <radialGradient
       r="1.7246193"
       fy="2.6743078"
       fx="49.011971"
       cy="2.6743078"
       cx="49.011971"
       gradientTransform="matrix(1.068575,0,0,0.129196,-70.28166,-169.0995)"
       gradientUnits="userSpaceOnUse"
       id="radialGradient31082"
       xlink:href="#linearGradient3207"
       inkscape:collect="always" />
    <linearGradient
       y2="72.623548"
       x2="85.53623"
       y1="72.623548"
       x1="50.971487"
       gradientTransform="matrix(0.780224,0,0,0.839022,24.2945,-119.8475)"
       gradientUnits="userSpaceOnUse"
       id="linearGradient31080"
       xlink:href="#linearGradient3346"
       inkscape:collect="always" />
    <linearGradient
       y2="2.3657269"
       x2="48.732723"
       y1="0.81150496"
       x1="48.498562"
       gradientTransform="matrix(1.140533,1.061585,-1.057717,1.144704,69.92038,-170.2666)"
       gradientUnits="userSpaceOnUse"
       id="linearGradient31078"
       xlink:href="#linearGradient3235"
       inkscape:collect="always" />
    <radialGradient
       r="1.7246193"
       fy="2.6743078"
       fx="49.011971"
       cy="2.6743078"
       cx="49.011971"
       gradientTransform="matrix(1.558136,0,0,0.189612,-64.19767,-168.6522)"
       gradientUnits="userSpaceOnUse"
       id="radialGradient31076"
       xlink:href="#linearGradient3207"
       inkscape:collect="always" />
    <radialGradient
       r="3.9750405"
       fy="6.7701697"
       fx="47.370888"
       cy="8.4953122"
       cx="49.009884"
       gradientTransform="matrix(1.140533,1.061585,-0.398494,0.431267,64.32009,-164.2057)"
       gradientUnits="userSpaceOnUse"
       id="radialGradient31074"
       xlink:href="#linearGradient3225"
       inkscape:collect="always" />
    <radialGradient
       r="47.595196"
       fy="7.4622769"
       fx="34.677639"
       cy="7.4622769"
       cx="34.677639"
       gradientTransform="matrix(-1.5103,2.641273e-3,-1.167078e-4,-9.110224e-3,87.0522,7.438666)"
       gradientUnits="userSpaceOnUse"
       id="radialGradient31072"
       xlink:href="#linearGradient3325"
       inkscape:collect="always" />
    <radialGradient
       r="47.595197"
       fy="7.4622769"
       fx="34.677639"
       cy="7.4622769"
       cx="34.677639"
       gradientTransform="matrix(0.999914,-7.841646e-3,5.666079e-4,2.048306e-2,-1.242234e-3,7.581357)"
       gradientUnits="userSpaceOnUse"
       id="radialGradient31070"
       xlink:href="#linearGradient3303"
       inkscape:collect="always" />
    <linearGradient
       y2="57.383999"
       x2="14.493531"
       y1="57.383999"
       x1="11.326384"
       gradientTransform="matrix(0.878133,0.819728,-0.816741,0.881344,121.1234,-142.3722)"
       gradientUnits="userSpaceOnUse"
       id="linearGradient31068"
       xlink:href="#linearGradient3058"
       inkscape:collect="always" />
    <radialGradient
       r="47.746403"
       fy="64.141281"
       fx="16.217354"
       cy="95.769279"
       cx="36.675648"
       gradientTransform="matrix(5.400366e-2,5.179191e-2,-1.084509,1.144424,191.1102,-188.1024)"
       gradientUnits="userSpaceOnUse"
       id="radialGradient31066"
       xlink:href="#linearGradient3058"
       inkscape:collect="always" />
    <radialGradient
       r="2.6143965"
       fy="58.089687"
       fx="15.727077"
       cy="58.089687"
       cx="15.727077"
       gradientTransform="matrix(1.587638,1.506216,-21.58334,23.25891,1307.788,-1443.899)"
       gradientUnits="userSpaceOnUse"
       id="radialGradient31064"
       xlink:href="#linearGradient2598"
       inkscape:collect="always" />
    <radialGradient
       r="3.406888"
       fy="120.64188"
       fx="42.617531"
       cy="120.64188"
       cx="42.617531"
       gradientTransform="matrix(1.26272,1.324035,-12.00179,11.46065,1450.225,-1478.912)"
       gradientUnits="userSpaceOnUse"
       id="radialGradient31062"
       xlink:href="#linearGradient2257"
       inkscape:collect="always" />
    <linearGradient
       gradientUnits="userSpaceOnUse"
       y2="72.623548"
       x2="85.53623"
       y1="72.623548"
       x1="50.971487"
       gradientTransform="scale(0.964324,1.036996)"
       inkscape:collect="always"
       id="linearGradient3346">
      <stop
         style="stop-color:#ffffff;stop-opacity:1;"
         offset="0"
         id="stop6469" />
      <stop
         style="stop-color:#ffffff;stop-opacity:0;"
         offset="1"
         id="stop3350" />
    </linearGradient>
    <filter
       id="filter3533"
       inkscape:label="filter17">
      <feBlend
         blend="normal"
         id="feBlend3535"
         mode="multiply" />
    </filter>
  </defs>
  <metadata
     id="metadata2611">
    <rdf:RDF>
      <cc:Work
         rdf:about="">
        <dc:format>image/svg+xml</dc:format>
        <dc:type
           rdf:resource="http://purl.org/dc/dcmitype/StillImage" />
      </cc:Work>
    </rdf:RDF>
  </metadata>
  <g
     inkscape:groupmode="layer"
     id="layer1"
     inkscape:label="Livello 1">
    <g
       transform="translate(214.92589,-100.31048)"
       id="g3232"
       inkscape:label="fill text" />
    <g
       transform="translate(214.92589,-100.31048)"
       id="g4591"
       inkscape:label="fill text" />
    <path
       d="M -259.40214,132.75622 L -259.40214,129.96151 L -259.40214,132.75622 z "
       id="path8227"
       style="fill:#ffffff;fill-opacity:0.75688076;fill-rule:nonzero;stroke:none;stroke-width:0.5;stroke-linecap:round;stroke-linejoin:round;stroke-miterlimit:4;stroke-dasharray:none;stroke-dashoffset:4;stroke-opacity:1"
       sodipodi:nodetypes="ccc" />
    <g
       id="g5295">
      <path
         transform="matrix(0.9509804,0,0,1.5555555,-4.89563,-69.620313)"
         d="M 118.07128,118.07128 A 54.742138,7.2452831 0 1 1 8.5870018,118.07128 A 54.742138,7.2452831 0 1 1 118.07128,118.07128 z"
         sodipodi:ry="7.2452831"
         sodipodi:rx="54.742138"
         sodipodi:cy="118.07128"
         sodipodi:cx="63.32914"
         id="path2724"
         style="opacity:1;fill:#8994b5;fill-opacity:1;stroke:none;stroke-width:0.89999998;stroke-linecap:round;stroke-linejoin:round;stroke-miterlimit:4;stroke-dasharray:none;stroke-dashoffset:1.08779998;stroke-opacity:1;filter:url(#filter3319)"
         sodipodi:type="arc" />
      <path
         transform="matrix(1.0059645,0,0,1.0053055,103.05489,-34.059089)"
         style="fill:#c8cddc;fill-opacity:1;fill-rule:evenodd;stroke:none;stroke-width:1px;stroke-linecap:butt;stroke-linejoin:miter;stroke-opacity:1;filter:url(#filter3624)"
         d="M -98.9545,147.40533 L -97.80806,148.625 C -82.1633,157.53715 -61.37084,157.125 -48,157.125 C -34.62916,157.125 -13.39476,157.53715 2.25,148.625 L 3.75,146.875 C -29.1808,121.09132 -85.02254,99.65662 -98.9545,147.40533 z"
         id="path3259"
         sodipodi:nodetypes="ccsccc" />
      <path
         style="fill:#ddc2a4;fill-opacity:1;fill-rule:evenodd;stroke:none;stroke-width:1px;stroke-linecap:butt;stroke-linejoin:miter;stroke-opacity:1"
         d="M 73.403249,48.295662 C 75.326591,48.132728 77.202494,46.774382 79.36058,36.655358 C 79.569427,34.548685 76.758714,34.349249 76.604207,36.21107 C 74.514395,40.239272 73.598719,44.267481 73.403249,48.295662 z"
         id="path3845"
         sodipodi:nodetypes="cccc" />
      <path
         sodipodi:nodetypes="cccc"
         id="path3715"
         d="M 35.980896,49.717379 C 34.05755,49.554445 32.181647,48.196065 30.023562,38.077086 C 29.814714,35.970412 32.625427,35.770949 32.779934,37.632798 C 34.869746,41.661 35.785426,45.689164 35.980896,49.717379 z"
         style="fill:#ddc2a4;fill-opacity:1;fill-rule:evenodd;stroke:none;stroke-width:1px;stroke-linecap:butt;stroke-linejoin:miter;stroke-opacity:1" />
      <path
         sodipodi:nodetypes="cccccccc"
         id="path3629"
         d="M 38.924665,51.517533 C 40.446902,58.75809 44.700149,75.038049 39.427648,78.912104 C 40.077973,85.949027 46.548466,88.607199 54.517111,90.158961 L 56.026059,90.158961 C 63.994707,88.607199 70.465197,85.949027 71.115526,78.912104 C 65.843025,75.038049 70.096272,58.75809 71.618505,51.517533 L 55.271589,58.963065 L 38.924665,51.517533 z"
         style="fill:#cbb7a2;fill-opacity:1;fill-rule:evenodd;stroke:none;stroke-width:1px;stroke-linecap:butt;stroke-linejoin:miter;stroke-opacity:1" />
      <path
         style="fill:url(#radialGradient3660);fill-opacity:1;fill-rule:evenodd;stroke:none;stroke-width:1px;stroke-linecap:butt;stroke-linejoin:miter;stroke-opacity:1"
         d="M 38.924665,51.517533 C 40.446902,58.75809 44.700149,75.038049 39.427648,78.912104 C 40.077973,85.949027 46.548466,88.607199 54.517111,90.158961 L 56.026059,90.158961 C 63.994707,88.607199 70.465197,85.949027 71.115526,78.912104 C 65.843025,75.038049 70.096272,58.75809 71.618505,51.517533 L 55.271589,58.963065 L 38.924665,51.517533 z"
         id="path3634"
         sodipodi:nodetypes="cccccccc" />
      <path
         sodipodi:nodetypes="cccccccc"
         id="path3672"
         d="M 71.618505,51.517533 C 70.096272,58.75809 65.843025,75.038049 71.115526,78.912104 C 70.465197,85.949027 63.994707,88.607199 56.026059,90.158961 L 54.517111,90.158961 C 46.548466,88.607199 40.077973,85.949027 39.427648,78.912104 C 44.700149,75.038049 40.446902,58.75809 38.924665,51.517533 L 55.271589,58.963065 L 71.618505,51.517533 z"
         style="opacity:0.74906365;fill:url(#radialGradient3674);fill-opacity:1;fill-rule:evenodd;stroke:none;stroke-width:1px;stroke-linecap:butt;stroke-linejoin:miter;stroke-opacity:1" />
      <path
         transform="matrix(1.0059645,0,0,1.0053055,-271.46562,-360.28069)"
         clip-path="url(#clipPath3705)"
         style="fill:#382509;fill-opacity:1;fill-rule:evenodd;stroke:none;stroke-width:1px;stroke-linecap:butt;stroke-linejoin:miter;stroke-opacity:1;filter:url(#filter3694)"
         d="M 324.17882,363.78125 C 316.40226,363.98625 310.30111,369.64178 307.17257,376.59375 C 303.98585,383.67496 304.44976,392.13001 306.36007,401.90625 C 308.27039,411.68248 311.64834,421.85281 314.83507,425.53125 C 317.85547,429.0177 321.72431,428.38757 324.17882,428.3125 C 324.30462,428.3125 324.48116,428.30837 324.61632,428.3125 C 327.07083,428.38757 330.93967,429.0177 333.96007,425.53125 C 337.1468,421.85281 341.52475,411.68248 343.43507,401.90625 C 345.3454,392.13001 345.80929,383.67496 342.62257,376.59375 C 339.49402,369.64178 332.39288,363.98625 324.61632,363.78125 L 324.17882,363.78125 z"
         id="path3676"
         sodipodi:nodetypes="csssssssscc" />
      <path
         sodipodi:nodetypes="csssssssscc"
         id="path2169"
         d="M 54.665563,5.3991564 C 46.842622,5.6052254 37.787786,11.290762 34.640587,18.279618 C 31.43486,25.39839 31.901537,33.898301 33.823241,43.72642 C 35.744955,53.554519 42.060349,63.778772 45.266082,67.47675 C 48.304499,70.981692 52.196412,70.348223 54.665563,70.272743 C 54.792112,70.272743 54.969705,70.268614 55.105673,70.272743 C 57.574824,70.348223 61.466737,70.981692 64.505154,67.47675 C 67.710887,63.778772 74.026281,53.554519 75.947995,43.72642 C 77.869723,33.898301 78.336376,25.39839 75.130649,18.279618 C 71.98344,11.290762 62.928614,5.6052254 55.105673,5.3991564 L 54.665563,5.3991564 z"
         style="fill:url(#radialGradient3155);fill-opacity:1;fill-rule:evenodd;stroke:none;stroke-width:1px;stroke-linecap:butt;stroke-linejoin:miter;stroke-opacity:1" />
      <path
         transform="matrix(1.0059645,0,0,1.0053055,-360.33441,-359.22512)"
         mask="url(#mask3287)"
         style="fill:url(#linearGradient3330);fill-opacity:1;fill-rule:evenodd;stroke:none;stroke-width:1px;stroke-linecap:butt;stroke-linejoin:miter;stroke-opacity:1"
         d="M 391.84841,400.84559 C 395.5265,410.97537 400.03668,420.79215 403.22341,424.47059 C 406.24381,427.95704 410.11265,427.32691 412.56716,427.25184 C 412.69296,427.25184 412.8695,427.24771 413.00466,427.25184 C 415.45917,427.32691 419.32801,427.95704 422.34841,424.47059 C 425.53514,420.79215 430.39888,410.62182 433.72341,400.84559 L 391.84841,400.84559 z"
         id="path3157"
         sodipodi:nodetypes="csssscc" />
      <path
         transform="matrix(1.0059645,0,0,1.0053055,103.05489,-34.059089)"
         sodipodi:nodetypes="ccssscssssc"
         id="path3161"
         d="M -34.57938,94.15885 C -36.60974,97.79098 -37.62278,97.4605 -39.6875,99.96875 C -42.55362,103.27713 -46.48338,102.22748 -48.8125,102.15625 C -48.94075,102.15234 -49.09939,102.15624 -49.21875,102.15625 C -51.5479,102.22749 -55.52764,102.8396 -58.39375,99.53125 C -58.7164,99.15883 -59.10666,98.69226 -59.4875,98.1875 C -58.74735,99.25458 -58.00114,100.20997 -57.425,100.875 C -54.55888,104.18335 -50.61038,103.57124 -48.28125,103.5 C -48.16189,103.50001 -47.97201,103.49608 -47.84375,103.5 C -45.51464,103.57125 -41.86612,104.18336 -39,100.875 C -37.5985,99.25724 -36.58252,97.77257 -34.57938,94.15885 z"
         style="opacity:1;fill:url(#linearGradient3335);fill-opacity:1;fill-rule:evenodd;stroke:none;stroke-width:1px;stroke-linecap:butt;stroke-linejoin:miter;stroke-opacity:1;filter:url(#filter3325)" />
      <path
         transform="matrix(-1.0059645,0,0,1.0053055,424.44171,-361.70241)"
         style="fill:url(#radialGradient3853);fill-opacity:1;fill-rule:evenodd;stroke:none;stroke-width:1px;stroke-linecap:butt;stroke-linejoin:miter;stroke-opacity:1;filter:url(#filter3833)"
         d="M 347.29991,395.43789 C 347.20744,394.69928 346.14533,395.38264 346.06247,396.32177 C 345.97961,397.2609 346.81711,399.53599 346.96846,399.19439 C 348.18061,396.45862 347.43118,396.48647 347.29991,395.43789 z"
         id="path3849"
         sodipodi:nodetypes="csss" />
      <path
         transform="matrix(1.0059645,0,0,1.0053055,103.05489,-34.059089)"
         sodipodi:nodetypes="csss"
         id="path3779"
         d="M -68.3336,70.93789 C -68.42607,70.19928 -69.48818,70.88264 -69.57104,71.82177 C -69.6539,72.7609 -68.8164,75.03599 -68.66505,74.69439 C -67.4529,71.95862 -68.20233,71.98647 -68.3336,70.93789 z"
         style="fill:url(#radialGradient3843);fill-opacity:1;fill-rule:evenodd;stroke:none;stroke-width:1px;stroke-linecap:butt;stroke-linejoin:miter;stroke-opacity:1;filter:url(#filter3833)" />
      <path
         transform="matrix(1.0059645,0,0,1.0053055,-271.84166,-360.28069)"
         clip-path="url(#clipPath3429)"
         style="opacity:1;fill:url(#linearGradient3439);fill-opacity:1;stroke:none;stroke-width:0;stroke-linecap:round;stroke-linejoin:round;stroke-miterlimit:4;stroke-dasharray:none;stroke-dashoffset:1.08779998;stroke-opacity:1;filter:url(#filter3420)"
         d="M 324.5,363.375 C 311.942,363.375 301.75001,373.56701 301.75,386.125 C 301.75,389.62206 301.40798,393.09067 302.8197,396.05178 L 304,396.91529 C 306.57247,392.37122 304.92256,388.81578 306,384.875 C 307,382.375 308.58874,380.212 311,379.375 C 315.29826,377.88299 321.81729,383.55368 324.5,383.625 C 327.40006,383.70209 333.55852,378.27854 337.96875,379.575 C 340.40504,380.29118 342.40902,382.5821 342.96875,385.075 C 344.01673,389.74243 344.56428,391.33155 344.97135,396.35463 L 346.15441,395.75 C 347.52866,392.82109 347.25,389.57242 347.25,386.125 C 347.25,373.567 337.05801,363.37501 324.5,363.375 z"
         id="path3380"
         sodipodi:nodetypes="cscccssssccsc" />
      <path
         sodipodi:nodetypes="cscccssssccsc"
         id="path3347"
         d="M 54.768603,5.0221546 C 42.135704,5.0221546 31.882927,15.26824 31.882916,27.892857 C 31.882916,31.408457 31.538854,34.895464 32.958997,37.87231 L 34.146335,38.740385 C 36.734148,34.172199 35.074397,30.095258 36.158265,26.133565 C 37.16423,23.620296 38.762444,21.445824 41.188084,20.604384 C 45.511983,19.104468 52.069894,24.805242 54.768603,24.876946 C 57.685961,24.954449 63.88115,22.741394 68.317684,24.044716 C 70.768506,24.764708 72.78444,27.067776 73.347506,29.573896 C 74.401737,34.266089 74.952554,33.127016 75.362053,38.176749 L 76.552169,37.568904 C 77.934615,34.624465 77.654292,31.358569 77.654292,27.892857 C 77.654292,15.26824 67.401515,5.0221546 54.768603,5.0221546 z"
         style="opacity:1;fill:#b09278;fill-opacity:1;stroke:none;stroke-width:0;stroke-linecap:round;stroke-linejoin:round;stroke-miterlimit:4;stroke-dasharray:none;stroke-dashoffset:1.08779998;stroke-opacity:1" />
      <path
         style="opacity:1;fill:url(#radialGradient3374);fill-opacity:1;stroke:none;stroke-width:0;stroke-linecap:round;stroke-linejoin:round;stroke-miterlimit:4;stroke-dasharray:none;stroke-dashoffset:1.08779998;stroke-opacity:1"
         d="M 54.768603,5.0221546 C 46.69594,9.4065202 45.000549,12.012847 41.188084,20.604384 C 45.511983,19.104468 52.069894,24.805242 54.768603,24.876946 C 57.685961,24.954449 64.472845,22.365108 68.909379,23.668429 C 71.360201,24.388422 73.376135,26.69149 73.939201,29.19761 C 74.993431,33.889803 74.952554,33.127016 75.362053,38.176749 L 76.552169,37.568904 C 77.934615,34.624465 77.654292,31.358569 77.654292,27.892857 C 77.654292,15.26824 67.401515,5.0221546 54.768603,5.0221546 z"
         id="path3358"
         sodipodi:nodetypes="ccsssccsc" />
      <path
         mask="none"
         transform="matrix(1.0059645,0,0,1.0053055,-272.17782,-360.28069)"
         clip-path="none"
         sodipodi:nodetypes="cscccsssccssc"
         id="path3441"
         d="M 312.54197,377.13598 C 311.94712,377.10972 311.3605,377.18074 310.82322,377.35473 C 308.41196,378.1356 306.38128,380.96011 305.38128,383.43684 C 304.45516,387.61524 305.77474,389.38257 304.88664,394.59185 C 305.73369,391.56142 305.58479,385.07509 305.82322,384.16723 C 306.82322,381.66722 308.41196,379.50423 310.82322,378.66723 C 315.12148,377.17521 321.64051,382.84591 324.32322,382.91723 C 327.22328,382.99431 333.38174,380.79295 337.79197,382.08941 C 340.22826,382.80558 342.23224,385.09651 342.79197,387.58941 L 342.79197,387.02691 C 342.23224,384.52098 340.22826,382.17481 337.79197,381.40191 C 333.38174,380.00277 327.66522,380.73602 324.76516,380.5914 C 322.41779,380.47435 316.70593,377.31977 312.54197,377.13598 z"
         style="opacity:1;fill:url(#linearGradient3495);fill-opacity:1;stroke:none;stroke-width:0;stroke-linecap:round;stroke-linejoin:round;stroke-miterlimit:4;stroke-dasharray:none;stroke-dashoffset:1.08779998;stroke-opacity:1;filter:url(#filter3479)" />
      <path
         transform="matrix(1.0059645,0,0,1.0053055,103.05489,-34.059089)"
         sodipodi:nodetypes="csscccc"
         id="path3497"
         d="M -39.6875,56.221855 C -34.197148,56.024377 -45.05967,54.50166 -48.70706,53.9205 C -54.598622,52.981763 -62.45595,49.86348 -63.54855,46.95471 C -64.26371,45.0508 -58.65655,42.18952 -59,43.11218 C -59.65577,44.97451 -60.47583,46.68051 -55.875,50.73718 C -53.57302,52.51447 -50.99506,54.57645 -47.5,54.86218 C -45,55.12995 -42.1875,56.694245 -39.6875,56.221855 z"
         style="opacity:0.88014981;fill:url(#linearGradient3505);fill-opacity:1;fill-rule:evenodd;stroke:none;stroke-width:1px;stroke-linecap:butt;stroke-linejoin:miter;stroke-opacity:1;filter:url(#filter3625)" />
      <path
         transform="matrix(1.0059645,0,0,1.0053055,102.2077,-34.059089)"
         sodipodi:nodetypes="cccccc"
         id="path3535"
         d="M -29.75,50.61218 L -27.5,55.11218 C -25.97108,61.25336 -26.57755,60.4695 -26.76517,63.44536 C -28.54202,59.02869 -27.22154,56.27885 -33,53.11218 L -39.25,49.11218 L -29.75,50.61218 z"
         style="fill:url(#linearGradient3587);fill-opacity:1;fill-rule:evenodd;stroke:none;stroke-width:1px;stroke-linecap:butt;stroke-linejoin:miter;stroke-opacity:1;filter:url(#filter3569)" />
      <path
         transform="matrix(1.0059645,0,0,1.0053055,103.05489,-34.059089)"
         sodipodi:nodetypes="ccsccc"
         id="path3717"
         d="M -68.53033,81.05152 L -67.15533,78.55152 C -67.15533,78.55152 -68.40533,75.42652 -68.40533,74.55152 C -68.40533,73.67652 -69.29419,71.09702 -69.29419,71.09702 L -70.0221,71.56734 L -68.53033,81.05152 z"
         style="opacity:0.33333333;fill:url(#linearGradient4765);fill-opacity:1;fill-rule:evenodd;stroke:none;stroke-width:1px;stroke-linecap:butt;stroke-linejoin:miter;stroke-opacity:1;filter:url(#filter3775)" />
      <path
         sodipodi:nodetypes="cccssccsccssccz"
         id="path3875"
         d="M 55.570237,85.133393 C 45.266337,85.421039 42.123018,81.158743 41.235247,77.400215 C 39.949833,77.611383 39.189287,78.632852 39.223317,79.410814 C 32.097741,82.260716 23.482148,85.133393 15.834648,88.96121 C 12.995998,90.382067 9.762032,94.71193 8.918643,97.003673 C 6.346411,103.99312 3.511582,113.84251 3.511582,113.84251 L 5.02053,115.60183 C 20.7586,124.56125 42.119651,124.14693 55.570237,124.14693 C 69.020825,124.14693 90.381876,124.56125 106.11994,115.60183 L 107.62889,113.84251 C 107.62889,113.84251 104.79406,103.99312 102.22183,97.003673 C 101.37844,94.71193 98.14448,90.382067 95.30583,88.96121 C 87.658325,85.133393 79.042732,82.260716 71.917156,79.410814 C 71.95119,78.632852 71.19064,77.611383 69.905226,77.400215 C 67.477204,81.1627 65.874139,84.845747 55.570237,85.133393 z"
         style="fill:url(#linearGradient3403);fill-opacity:1;fill-rule:evenodd;stroke:none;stroke-width:1px;stroke-linecap:butt;stroke-linejoin:miter;stroke-opacity:1" />
      <path
         transform="matrix(1.0059645,0,0,1.0053055,103.05489,-34.059089)"
         sodipodi:nodetypes="ccccccscc"
         id="path3451"
         d="M -78.34358,152.98437 C -82.26083,139.96479 -83.8395,133.15234 -74.80805,126.11431 L -55.71616,120.45745 L -64.20144,114.0935 L -84.00043,121.87167 L -94.60703,134.59959 C -94.60703,134.59959 -98.84968,144.49909 -96.02125,145.9133 C -93.19282,147.32752 -86.12175,151.57016 -86.12175,151.57016 L -78.34358,152.98437 z"
         style="opacity:0.32209742;fill:url(#linearGradient3522);fill-opacity:1;fill-rule:evenodd;stroke:none;stroke-width:1px;stroke-linecap:butt;stroke-linejoin:miter;stroke-opacity:1;filter:url(#filter3493)" />
      <path
         sodipodi:nodetypes="ccssccsccssccscsccssccsccssccc"
         transform="matrix(1.0059645,0,0,1.0053055,-357.03287,-360.28069)"
         clip-path="url(#clipPath4063)"
         id="path3885"
         d="M 395.90625,435.375 C 394.62847,435.58506 393.87242,436.60113 393.90625,437.375 C 386.82293,440.20988 378.25841,443.06735 370.65625,446.875 C 367.83444,448.28835 364.61964,452.59537 363.78125,454.875 C 361.22428,461.82756 358.40625,471.625 358.40625,471.625 L 359.90625,473.375 C 375.55102,482.28715 396.78541,481.875 410.15625,481.875 C 423.5271,481.875 444.76149,482.28715 460.40625,473.375 L 461.90625,471.625 C 461.90626,471.625 459.08823,461.82756 456.53125,454.875 C 455.69287,452.59537 452.47807,448.28835 449.65625,446.875 C 442.0541,443.06735 433.48958,440.20988 426.40625,437.375 C 426.44009,436.60113 425.68404,435.58506 424.40625,435.375 C 421.99263,439.11764 420.39906,442.77637 410.15625,443.0625 C 409.51607,443.08038 408.89826,443.07875 408.3125,443.0625 C 409.11493,443.10929 409.95672,443.15082 410.875,443.125 C 420.66635,442.84975 422.19276,439.31912 424.5,435.71875 C 425.72147,435.92083 426.43858,436.91179 426.40625,437.65625 C 433.17737,440.38336 441.3579,443.11836 448.625,446.78125 C 451.32245,448.14088 454.41732,452.30704 455.21875,454.5 C 457.66304,461.18826 460.34374,470.59377 460.34375,470.59375 L 458.90625,472.28125 C 443.95103,480.85461 423.65651,480.46874 410.875,480.46875 C 398.09347,480.46875 376.29635,482.09204 361.34115,473.51869 L 359.81526,470.50536 C 359.81526,470.50536 363.55664,455.53141 366.70803,453.26256 C 368.60286,451.89837 370.42755,448.14089 373.125,446.78125 C 380.3921,443.11835 388.57262,440.38336 395.34375,437.65625 C 395.32311,437.18111 395.59714,436.5903 396.125,436.1875 C 396.03832,435.91957 395.96873,435.63969 395.90625,435.375 z"
         style="fill:url(#linearGradient4073);fill-opacity:1;fill-rule:evenodd;stroke:none;stroke-width:1px;stroke-linecap:butt;stroke-linejoin:miter;stroke-opacity:1;filter:url(#filter4059)" />
      <path
         transform="matrix(1.0059645,0,0,1.0053055,103.05489,-34.059089)"
         sodipodi:nodetypes="cccccscccscc"
         id="path3880"
         d="M -84.125,124.875 L -85.125,126.625 C -81.08786,134.7426 -79.91837,144.77197 -77.6875,154.09375 C -84.67104,152.87559 -91.41593,150.84084 -97.5,147.375 L -97.5,147.8125 C -81.85523,156.72466 -60.62084,156.3125 -47.25,156.3125 C -33.87915,156.31251 -12.64476,156.72465 3,147.8125 L 4.5,146.0625 L 2.666559,147.54655 C -12.978191,156.45871 -33.87916,156.00881 -47.25,156.00881 C -54.70098,156.00881 -64.58699,155.42889 -74.59375,154 C -77.77083,139.60839 -80.94792,131.83413 -84.125,124.875 z"
         style="fill:url(#linearGradient4132);fill-opacity:1;fill-rule:evenodd;stroke:none;stroke-width:1px;stroke-linecap:butt;stroke-linejoin:miter;stroke-opacity:1;filter:url(#filter3393)" />
      <path
         sodipodi:nodetypes="cccscccsccccc"
         transform="matrix(1.0059645,0,0,1.0053055,-425.2807,-360.27676)"
         clip-path="url(#clipPath3289)"
         id="path3261"
         d="M 463.75,435.375 C 462.47221,435.58506 461.71617,436.60113 461.75,437.375 C 461.67075,437.40672 461.57962,437.43703 461.5,437.46875 C 462.75202,441.47055 466.65727,445.74083 478.25,445.4375 C 489.75018,445.1366 492.07799,441.47873 494.71875,437.5625 C 494.5676,437.5025 494.39985,437.43497 494.25,437.375 C 494.28383,436.60113 493.52779,435.58506 492.25,435.375 C 489.83637,439.11764 488.24281,442.77637 478,443.0625 C 467.75719,443.34864 464.63251,439.11371 463.75,435.375 z M 497.46875,438.625 C 497.52198,438.79302 497.56984,438.93659 497.5625,439.09375 C 501.77057,440.67121 506.39991,442.24968 511.125,443.96875 C 506.49146,442.00962 501.81994,440.29346 497.46875,438.625 z"
         style="fill:#f4f5f8;fill-opacity:1;fill-rule:evenodd;stroke:#98a2bf;stroke-width:0.14528722;stroke-linecap:butt;stroke-linejoin:miter;stroke-miterlimit:4;stroke-dasharray:none;stroke-opacity:1;filter:url(#filter3283)" />
      <path
         transform="matrix(1.0059645,0,0,1.0053055,103.05489,-34.059089)"
         sodipodi:nodetypes="cccc"
         id="path3293"
         d="M -59.25169,118.68969 L -76.57581,119.3968 L -61.37302,117.27548 L -59.25169,118.68969 z"
         style="fill:url(#linearGradient3349);fill-opacity:1;fill-rule:evenodd;stroke:none;stroke-width:1px;stroke-linecap:butt;stroke-linejoin:miter;stroke-opacity:1;filter:url(#filter3339)" />
      <path
         sodipodi:nodetypes="cccc"
         id="path3357"
         d="M 371.74831,469.68969 L 354.42419,470.3968 L 369.62698,468.27548 L 371.74831,469.68969 z"
         style="fill:url(#linearGradient3359);fill-opacity:1;fill-rule:evenodd;stroke:none;stroke-width:1px;stroke-linecap:butt;stroke-linejoin:miter;stroke-opacity:1;filter:url(#filter3339)"
         transform="matrix(0.3417414,0.9455184,0.9461381,-0.3415175,-540.77608,-70.969975)" />
      <path
         transform="matrix(-1.0059645,0,0,1.0053055,383.00502,-360.28069)"
         style="opacity:0.32209742;fill:url(#linearGradient3514);fill-opacity:1;fill-rule:evenodd;stroke:none;stroke-width:1px;stroke-linecap:butt;stroke-linejoin:miter;stroke-opacity:1;filter:url(#filter3493)"
         d="M 294.15642,477.48437 C 290.23917,464.46479 288.6605,457.65234 297.69195,450.61431 L 316.78384,444.95745 L 308.29856,438.5935 L 288.49957,446.37167 L 277.89297,459.09959 C 277.89297,459.09959 273.65032,468.99909 276.47875,470.4133 C 279.30718,471.82752 286.37825,476.07016 286.37825,476.07016 L 294.15642,477.48437 z"
         id="path3498"
         sodipodi:nodetypes="ccccccscc" />
      <path
         transform="matrix(1.0059645,0,0,1.0053055,103.05489,-34.059089)"
         id="path3524"
         d="M -59.2517,120.45746 L -66.32276,138.13513 L -59.2517,120.45746 z"
         style="opacity:0.06367044;fill:url(#linearGradient3584);fill-opacity:1;fill-rule:evenodd;stroke:url(#linearGradient3592);stroke-width:0.29057443px;stroke-linecap:butt;stroke-linejoin:miter;stroke-opacity:1;filter:url(#filter3574)" />
    </g>
    <path
       sodipodi:nodetypes="ccc"
       id="path2276"
       d="M 215.3609,-31.057518 L 215.3609,-33.852227 L 215.3609,-31.057518 z"
       style="fill:#ffffff;fill-opacity:0.75688076;fill-rule:nonzero;stroke:none;stroke-width:0.5;stroke-linecap:round;stroke-linejoin:round;stroke-miterlimit:4;stroke-dasharray:none;stroke-dashoffset:4;stroke-opacity:1" />
    <path
       sodipodi:nodetypes="ccc"
       id="path1561"
       d="M 249.73645,22.336162 L 249.73645,20.809426 L 249.73645,22.336162 z"
       style="fill:#ffffff;fill-opacity:0.75688076;fill-rule:nonzero;stroke:none;stroke-width:0.5;stroke-linecap:round;stroke-linejoin:round;stroke-miterlimit:4;stroke-dasharray:none;stroke-dashoffset:4;stroke-opacity:1" />
    <path
       sodipodi:nodetypes="ccc"
       id="path6603"
       d="M -208.05526,69.593051 L -208.05526,66.912606 L -208.05526,69.593051 z"
       style="fill:#ffffff;fill-opacity:0.75688076;fill-rule:nonzero;stroke:none;stroke-width:0.5;stroke-linecap:round;stroke-linejoin:round;stroke-miterlimit:4;stroke-dasharray:none;stroke-dashoffset:4;stroke-opacity:1" />
    <path
       sodipodi:nodetypes="ccc"
       id="path3507"
       d="M -193.58938,-58.228681 L -193.58938,-60.489851 L -193.58938,-58.228681 z"
       style="fill:#ffffff;fill-opacity:0.75688076;fill-rule:nonzero;stroke:none;stroke-width:0.5;stroke-linecap:round;stroke-linejoin:round;stroke-miterlimit:4;stroke-dasharray:none;stroke-dashoffset:4;stroke-opacity:1" />
    <g
       id="g3470"
       style="filter:url(#filter3533);opacity:0.38613861">
      <path
         sodipodi:type="arc"
         style="opacity:1;fill:#8994b5;fill-opacity:1;stroke:none;stroke-width:0.89999998000000003;stroke-linecap:round;stroke-linejoin:round;stroke-miterlimit:4;stroke-dasharray:none;stroke-dashoffset:1.08779998000000000;stroke-opacity:1;filter:url(#filter3319)"
         id="path3472"
         sodipodi:cx="63.32914"
         sodipodi:cy="118.07128"
         sodipodi:rx="54.742138"
         sodipodi:ry="7.2452831"
         d="M 118.07128,118.07128 A 54.742138,7.2452831 0 1 1 8.5870018,118.07128 A 54.742138,7.2452831 0 1 1 118.07128,118.07128 z"
         transform="matrix(0.9509804,0,0,1.5555555,-4.89563,-69.620313)" />
      <path
         sodipodi:nodetypes="ccsccc"
         id="path3474"
         d="M -98.9545,147.40533 L -97.80806,148.625 C -82.1633,157.53715 -61.37084,157.125 -48,157.125 C -34.62916,157.125 -13.39476,157.53715 2.25,148.625 L 3.75,146.875 C -29.1808,121.09132 -85.02254,99.65662 -98.9545,147.40533 z"
         style="fill:#c8cddc;fill-opacity:1;fill-rule:evenodd;stroke:none;stroke-width:1px;stroke-linecap:butt;stroke-linejoin:miter;stroke-opacity:1;filter:url(#filter3624)"
         transform="matrix(1.0059645,0,0,1.0053055,103.05489,-34.059089)" />
      <path
         sodipodi:nodetypes="cccc"
         id="path3476"
         d="M 73.403249,48.295662 C 75.326591,48.132728 77.202494,46.774382 79.36058,36.655358 C 79.569427,34.548685 76.758714,34.349249 76.604207,36.21107 C 74.514395,40.239272 73.598719,44.267481 73.403249,48.295662 z"
         style="fill:#ddc2a4;fill-opacity:1;fill-rule:evenodd;stroke:none;stroke-width:1px;stroke-linecap:butt;stroke-linejoin:miter;stroke-opacity:1" />
      <path
         style="fill:#ddc2a4;fill-opacity:1;fill-rule:evenodd;stroke:none;stroke-width:1px;stroke-linecap:butt;stroke-linejoin:miter;stroke-opacity:1"
         d="M 35.980896,49.717379 C 34.05755,49.554445 32.181647,48.196065 30.023562,38.077086 C 29.814714,35.970412 32.625427,35.770949 32.779934,37.632798 C 34.869746,41.661 35.785426,45.689164 35.980896,49.717379 z"
         id="path3478"
         sodipodi:nodetypes="cccc" />
      <path
         style="fill:#cbb7a2;fill-opacity:1;fill-rule:evenodd;stroke:none;stroke-width:1px;stroke-linecap:butt;stroke-linejoin:miter;stroke-opacity:1"
         d="M 38.924665,51.517533 C 40.446902,58.75809 44.700149,75.038049 39.427648,78.912104 C 40.077973,85.949027 46.548466,88.607199 54.517111,90.158961 L 56.026059,90.158961 C 63.994707,88.607199 70.465197,85.949027 71.115526,78.912104 C 65.843025,75.038049 70.096272,58.75809 71.618505,51.517533 L 55.271589,58.963065 L 38.924665,51.517533 z"
         id="path3480"
         sodipodi:nodetypes="cccccccc" />
      <path
         sodipodi:nodetypes="cccccccc"
         id="path3482"
         d="M 38.924665,51.517533 C 40.446902,58.75809 44.700149,75.038049 39.427648,78.912104 C 40.077973,85.949027 46.548466,88.607199 54.517111,90.158961 L 56.026059,90.158961 C 63.994707,88.607199 70.465197,85.949027 71.115526,78.912104 C 65.843025,75.038049 70.096272,58.75809 71.618505,51.517533 L 55.271589,58.963065 L 38.924665,51.517533 z"
         style="fill:url(#radialGradient3660);fill-opacity:1;fill-rule:evenodd;stroke:none;stroke-width:1px;stroke-linecap:butt;stroke-linejoin:miter;stroke-opacity:1" />
      <path
         style="opacity:0.74906364999999986;fill:url(#radialGradient3674);fill-opacity:1;fill-rule:evenodd;stroke:none;stroke-width:1px;stroke-linecap:butt;stroke-linejoin:miter;stroke-opacity:1"
         d="M 71.618505,51.517533 C 70.096272,58.75809 65.843025,75.038049 71.115526,78.912104 C 70.465197,85.949027 63.994707,88.607199 56.026059,90.158961 L 54.517111,90.158961 C 46.548466,88.607199 40.077973,85.949027 39.427648,78.912104 C 44.700149,75.038049 40.446902,58.75809 38.924665,51.517533 L 55.271589,58.963065 L 71.618505,51.517533 z"
         id="path3484"
         sodipodi:nodetypes="cccccccc" />
      <path
         sodipodi:nodetypes="csssssssscc"
         id="path3486"
         d="M 324.17882,363.78125 C 316.40226,363.98625 310.30111,369.64178 307.17257,376.59375 C 303.98585,383.67496 304.44976,392.13001 306.36007,401.90625 C 308.27039,411.68248 311.64834,421.85281 314.83507,425.53125 C 317.85547,429.0177 321.72431,428.38757 324.17882,428.3125 C 324.30462,428.3125 324.48116,428.30837 324.61632,428.3125 C 327.07083,428.38757 330.93967,429.0177 333.96007,425.53125 C 337.1468,421.85281 341.52475,411.68248 343.43507,401.90625 C 345.3454,392.13001 345.80929,383.67496 342.62257,376.59375 C 339.49402,369.64178 332.39288,363.98625 324.61632,363.78125 L 324.17882,363.78125 z"
         style="fill:#382509;fill-opacity:1;fill-rule:evenodd;stroke:none;stroke-width:1px;stroke-linecap:butt;stroke-linejoin:miter;stroke-opacity:1;filter:url(#filter3694)"
         clip-path="url(#clipPath3705)"
         transform="matrix(1.0059645,0,0,1.0053055,-271.46562,-360.28069)" />
      <path
         style="fill:url(#radialGradient3155);fill-opacity:1;fill-rule:evenodd;stroke:none;stroke-width:1px;stroke-linecap:butt;stroke-linejoin:miter;stroke-opacity:1"
         d="M 54.665563,5.3991564 C 46.842622,5.6052254 37.787786,11.290762 34.640587,18.279618 C 31.43486,25.39839 31.901537,33.898301 33.823241,43.72642 C 35.744955,53.554519 42.060349,63.778772 45.266082,67.47675 C 48.304499,70.981692 52.196412,70.348223 54.665563,70.272743 C 54.792112,70.272743 54.969705,70.268614 55.105673,70.272743 C 57.574824,70.348223 61.466737,70.981692 64.505154,67.47675 C 67.710887,63.778772 74.026281,53.554519 75.947995,43.72642 C 77.869723,33.898301 78.336376,25.39839 75.130649,18.279618 C 71.98344,11.290762 62.928614,5.6052254 55.105673,5.3991564 L 54.665563,5.3991564 z"
         id="path3488"
         sodipodi:nodetypes="csssssssscc" />
      <path
         sodipodi:nodetypes="csssscc"
         id="path3490"
         d="M 391.84841,400.84559 C 395.5265,410.97537 400.03668,420.79215 403.22341,424.47059 C 406.24381,427.95704 410.11265,427.32691 412.56716,427.25184 C 412.69296,427.25184 412.8695,427.24771 413.00466,427.25184 C 415.45917,427.32691 419.32801,427.95704 422.34841,424.47059 C 425.53514,420.79215 430.39888,410.62182 433.72341,400.84559 L 391.84841,400.84559 z"
         style="fill:url(#linearGradient3330);fill-opacity:1;fill-rule:evenodd;stroke:none;stroke-width:1px;stroke-linecap:butt;stroke-linejoin:miter;stroke-opacity:1"
         mask="url(#mask3287)"
         transform="matrix(1.0059645,0,0,1.0053055,-360.33441,-359.22512)" />
      <path
         style="opacity:1;fill:url(#linearGradient3335);fill-opacity:1;fill-rule:evenodd;stroke:none;stroke-width:1px;stroke-linecap:butt;stroke-linejoin:miter;stroke-opacity:1;filter:url(#filter3325)"
         d="M -34.57938,94.15885 C -36.60974,97.79098 -37.62278,97.4605 -39.6875,99.96875 C -42.55362,103.27713 -46.48338,102.22748 -48.8125,102.15625 C -48.94075,102.15234 -49.09939,102.15624 -49.21875,102.15625 C -51.5479,102.22749 -55.52764,102.8396 -58.39375,99.53125 C -58.7164,99.15883 -59.10666,98.69226 -59.4875,98.1875 C -58.74735,99.25458 -58.00114,100.20997 -57.425,100.875 C -54.55888,104.18335 -50.61038,103.57124 -48.28125,103.5 C -48.16189,103.50001 -47.97201,103.49608 -47.84375,103.5 C -45.51464,103.57125 -41.86612,104.18336 -39,100.875 C -37.5985,99.25724 -36.58252,97.77257 -34.57938,94.15885 z"
         id="path3492"
         sodipodi:nodetypes="ccssscssssc"
         transform="matrix(1.0059645,0,0,1.0053055,103.05489,-34.059089)" />
      <path
         sodipodi:nodetypes="csss"
         id="path3494"
         d="M 347.29991,395.43789 C 347.20744,394.69928 346.14533,395.38264 346.06247,396.32177 C 345.97961,397.2609 346.81711,399.53599 346.96846,399.19439 C 348.18061,396.45862 347.43118,396.48647 347.29991,395.43789 z"
         style="fill:url(#radialGradient3853);fill-opacity:1;fill-rule:evenodd;stroke:none;stroke-width:1px;stroke-linecap:butt;stroke-linejoin:miter;stroke-opacity:1;filter:url(#filter3833)"
         transform="matrix(-1.0059645,0,0,1.0053055,424.44171,-361.70241)" />
      <path
         style="fill:url(#radialGradient3843);fill-opacity:1;fill-rule:evenodd;stroke:none;stroke-width:1px;stroke-linecap:butt;stroke-linejoin:miter;stroke-opacity:1;filter:url(#filter3833)"
         d="M -68.3336,70.93789 C -68.42607,70.19928 -69.48818,70.88264 -69.57104,71.82177 C -69.6539,72.7609 -68.8164,75.03599 -68.66505,74.69439 C -67.4529,71.95862 -68.20233,71.98647 -68.3336,70.93789 z"
         id="path3496"
         sodipodi:nodetypes="csss"
         transform="matrix(1.0059645,0,0,1.0053055,103.05489,-34.059089)" />
      <path
         sodipodi:nodetypes="cscccssssccsc"
         id="path3499"
         d="M 324.5,363.375 C 311.942,363.375 301.75001,373.56701 301.75,386.125 C 301.75,389.62206 301.40798,393.09067 302.8197,396.05178 L 304,396.91529 C 306.57247,392.37122 304.92256,388.81578 306,384.875 C 307,382.375 308.58874,380.212 311,379.375 C 315.29826,377.88299 321.81729,383.55368 324.5,383.625 C 327.40006,383.70209 333.55852,378.27854 337.96875,379.575 C 340.40504,380.29118 342.40902,382.5821 342.96875,385.075 C 344.01673,389.74243 344.56428,391.33155 344.97135,396.35463 L 346.15441,395.75 C 347.52866,392.82109 347.25,389.57242 347.25,386.125 C 347.25,373.567 337.05801,363.37501 324.5,363.375 z"
         style="opacity:1;fill:url(#linearGradient3439);fill-opacity:1;stroke:none;stroke-width:0;stroke-linecap:round;stroke-linejoin:round;stroke-miterlimit:4;stroke-dasharray:none;stroke-dashoffset:1.08779998000000000;stroke-opacity:1;filter:url(#filter3420)"
         clip-path="url(#clipPath3429)"
         transform="matrix(1.0059645,0,0,1.0053055,-271.84166,-360.28069)" />
      <path
         style="opacity:1;fill:#b09278;fill-opacity:1;stroke:none;stroke-width:0;stroke-linecap:round;stroke-linejoin:round;stroke-miterlimit:4;stroke-dasharray:none;stroke-dashoffset:1.08779998000000000;stroke-opacity:1"
         d="M 54.768603,5.0221546 C 42.135704,5.0221546 31.882927,15.26824 31.882916,27.892857 C 31.882916,31.408457 31.538854,34.895464 32.958997,37.87231 L 34.146335,38.740385 C 36.734148,34.172199 35.074397,30.095258 36.158265,26.133565 C 37.16423,23.620296 38.762444,21.445824 41.188084,20.604384 C 45.511983,19.104468 52.069894,24.805242 54.768603,24.876946 C 57.685961,24.954449 63.88115,22.741394 68.317684,24.044716 C 70.768506,24.764708 72.78444,27.067776 73.347506,29.573896 C 74.401737,34.266089 74.952554,33.127016 75.362053,38.176749 L 76.552169,37.568904 C 77.934615,34.624465 77.654292,31.358569 77.654292,27.892857 C 77.654292,15.26824 67.401515,5.0221546 54.768603,5.0221546 z"
         id="path3501"
         sodipodi:nodetypes="cscccssssccsc" />
      <path
         sodipodi:nodetypes="ccsssccsc"
         id="path3503"
         d="M 54.768603,5.0221546 C 46.69594,9.4065202 45.000549,12.012847 41.188084,20.604384 C 45.511983,19.104468 52.069894,24.805242 54.768603,24.876946 C 57.685961,24.954449 64.472845,22.365108 68.909379,23.668429 C 71.360201,24.388422 73.376135,26.69149 73.939201,29.19761 C 74.993431,33.889803 74.952554,33.127016 75.362053,38.176749 L 76.552169,37.568904 C 77.934615,34.624465 77.654292,31.358569 77.654292,27.892857 C 77.654292,15.26824 67.401515,5.0221546 54.768603,5.0221546 z"
         style="opacity:1;fill:url(#radialGradient3374);fill-opacity:1;stroke:none;stroke-width:0;stroke-linecap:round;stroke-linejoin:round;stroke-miterlimit:4;stroke-dasharray:none;stroke-dashoffset:1.08779998000000000;stroke-opacity:1" />
      <path
         style="opacity:1;fill:url(#linearGradient3495);fill-opacity:1;stroke:none;stroke-width:0;stroke-linecap:round;stroke-linejoin:round;stroke-miterlimit:4;stroke-dasharray:none;stroke-dashoffset:1.08779998000000000;stroke-opacity:1;filter:url(#filter3479)"
         d="M 312.54197,377.13598 C 311.94712,377.10972 311.3605,377.18074 310.82322,377.35473 C 308.41196,378.1356 306.38128,380.96011 305.38128,383.43684 C 304.45516,387.61524 305.77474,389.38257 304.88664,394.59185 C 305.73369,391.56142 305.58479,385.07509 305.82322,384.16723 C 306.82322,381.66722 308.41196,379.50423 310.82322,378.66723 C 315.12148,377.17521 321.64051,382.84591 324.32322,382.91723 C 327.22328,382.99431 333.38174,380.79295 337.79197,382.08941 C 340.22826,382.80558 342.23224,385.09651 342.79197,387.58941 L 342.79197,387.02691 C 342.23224,384.52098 340.22826,382.17481 337.79197,381.40191 C 333.38174,380.00277 327.66522,380.73602 324.76516,380.5914 C 322.41779,380.47435 316.70593,377.31977 312.54197,377.13598 z"
         id="path3505"
         sodipodi:nodetypes="cscccsssccssc"
         clip-path="none"
         transform="matrix(1.0059645,0,0,1.0053055,-272.17782,-360.28069)"
         mask="none" />
      <path
         style="opacity:0.88014981000000003;fill:url(#linearGradient3505);fill-opacity:1;fill-rule:evenodd;stroke:none;stroke-width:1px;stroke-linecap:butt;stroke-linejoin:miter;stroke-opacity:1;filter:url(#filter3625)"
         d="M -39.6875,56.221855 C -34.197148,56.024377 -45.05967,54.50166 -48.70706,53.9205 C -54.598622,52.981763 -62.45595,49.86348 -63.54855,46.95471 C -64.26371,45.0508 -58.65655,42.18952 -59,43.11218 C -59.65577,44.97451 -60.47583,46.68051 -55.875,50.73718 C -53.57302,52.51447 -50.99506,54.57645 -47.5,54.86218 C -45,55.12995 -42.1875,56.694245 -39.6875,56.221855 z"
         id="path3508"
         sodipodi:nodetypes="csscccc"
         transform="matrix(1.0059645,0,0,1.0053055,103.05489,-34.059089)" />
      <path
         style="fill:url(#linearGradient3587);fill-opacity:1;fill-rule:evenodd;stroke:none;stroke-width:1px;stroke-linecap:butt;stroke-linejoin:miter;stroke-opacity:1;filter:url(#filter3569)"
         d="M -29.75,50.61218 L -27.5,55.11218 C -25.97108,61.25336 -26.57755,60.4695 -26.76517,63.44536 C -28.54202,59.02869 -27.22154,56.27885 -33,53.11218 L -39.25,49.11218 L -29.75,50.61218 z"
         id="path3510"
         sodipodi:nodetypes="cccccc"
         transform="matrix(1.0059645,0,0,1.0053055,102.2077,-34.059089)" />
      <path
         style="opacity:0.33333332999999998;fill:url(#linearGradient4765);fill-opacity:1;fill-rule:evenodd;stroke:none;stroke-width:1px;stroke-linecap:butt;stroke-linejoin:miter;stroke-opacity:1;filter:url(#filter3775)"
         d="M -68.53033,81.05152 L -67.15533,78.55152 C -67.15533,78.55152 -68.40533,75.42652 -68.40533,74.55152 C -68.40533,73.67652 -69.29419,71.09702 -69.29419,71.09702 L -70.0221,71.56734 L -68.53033,81.05152 z"
         id="path3512"
         sodipodi:nodetypes="ccsccc"
         transform="matrix(1.0059645,0,0,1.0053055,103.05489,-34.059089)" />
      <path
         style="fill:url(#linearGradient3403);fill-opacity:1;fill-rule:evenodd;stroke:none;stroke-width:1px;stroke-linecap:butt;stroke-linejoin:miter;stroke-opacity:1"
         d="M 55.570237,85.133393 C 45.266337,85.421039 42.123018,81.158743 41.235247,77.400215 C 39.949833,77.611383 39.189287,78.632852 39.223317,79.410814 C 32.097741,82.260716 23.482148,85.133393 15.834648,88.96121 C 12.995998,90.382067 9.762032,94.71193 8.918643,97.003673 C 6.346411,103.99312 3.511582,113.84251 3.511582,113.84251 L 5.02053,115.60183 C 20.7586,124.56125 42.119651,124.14693 55.570237,124.14693 C 69.020825,124.14693 90.381876,124.56125 106.11994,115.60183 L 107.62889,113.84251 C 107.62889,113.84251 104.79406,103.99312 102.22183,97.003673 C 101.37844,94.71193 98.14448,90.382067 95.30583,88.96121 C 87.658325,85.133393 79.042732,82.260716 71.917156,79.410814 C 71.95119,78.632852 71.19064,77.611383 69.905226,77.400215 C 67.477204,81.1627 65.874139,84.845747 55.570237,85.133393 z"
         id="path3514"
         sodipodi:nodetypes="cccssccsccssccz" />
      <path
         style="opacity:0.32209742000000002;fill:url(#linearGradient3522);fill-opacity:1;fill-rule:evenodd;stroke:none;stroke-width:1px;stroke-linecap:butt;stroke-linejoin:miter;stroke-opacity:1;filter:url(#filter3493)"
         d="M -78.34358,152.98437 C -82.26083,139.96479 -83.8395,133.15234 -74.80805,126.11431 L -55.71616,120.45745 L -64.20144,114.0935 L -84.00043,121.87167 L -94.60703,134.59959 C -94.60703,134.59959 -98.84968,144.49909 -96.02125,145.9133 C -93.19282,147.32752 -86.12175,151.57016 -86.12175,151.57016 L -78.34358,152.98437 z"
         id="path3516"
         sodipodi:nodetypes="ccccccscc"
         transform="matrix(1.0059645,0,0,1.0053055,103.05489,-34.059089)" />
      <path
         style="fill:url(#linearGradient4073);fill-opacity:1;fill-rule:evenodd;stroke:none;stroke-width:1px;stroke-linecap:butt;stroke-linejoin:miter;stroke-opacity:1;filter:url(#filter4059)"
         d="M 395.90625,435.375 C 394.62847,435.58506 393.87242,436.60113 393.90625,437.375 C 386.82293,440.20988 378.25841,443.06735 370.65625,446.875 C 367.83444,448.28835 364.61964,452.59537 363.78125,454.875 C 361.22428,461.82756 358.40625,471.625 358.40625,471.625 L 359.90625,473.375 C 375.55102,482.28715 396.78541,481.875 410.15625,481.875 C 423.5271,481.875 444.76149,482.28715 460.40625,473.375 L 461.90625,471.625 C 461.90626,471.625 459.08823,461.82756 456.53125,454.875 C 455.69287,452.59537 452.47807,448.28835 449.65625,446.875 C 442.0541,443.06735 433.48958,440.20988 426.40625,437.375 C 426.44009,436.60113 425.68404,435.58506 424.40625,435.375 C 421.99263,439.11764 420.39906,442.77637 410.15625,443.0625 C 409.51607,443.08038 408.89826,443.07875 408.3125,443.0625 C 409.11493,443.10929 409.95672,443.15082 410.875,443.125 C 420.66635,442.84975 422.19276,439.31912 424.5,435.71875 C 425.72147,435.92083 426.43858,436.91179 426.40625,437.65625 C 433.17737,440.38336 441.3579,443.11836 448.625,446.78125 C 451.32245,448.14088 454.41732,452.30704 455.21875,454.5 C 457.66304,461.18826 460.34374,470.59377 460.34375,470.59375 L 458.90625,472.28125 C 443.95103,480.85461 423.65651,480.46874 410.875,480.46875 C 398.09347,480.46875 376.29635,482.09204 361.34115,473.51869 L 359.81526,470.50536 C 359.81526,470.50536 363.55664,455.53141 366.70803,453.26256 C 368.60286,451.89837 370.42755,448.14089 373.125,446.78125 C 380.3921,443.11835 388.57262,440.38336 395.34375,437.65625 C 395.32311,437.18111 395.59714,436.5903 396.125,436.1875 C 396.03832,435.91957 395.96873,435.63969 395.90625,435.375 z"
         id="path3518"
         clip-path="url(#clipPath4063)"
         transform="matrix(1.0059645,0,0,1.0053055,-357.03287,-360.28069)"
         sodipodi:nodetypes="ccssccsccssccscsccssccsccssccc" />
      <path
         style="fill:url(#linearGradient4132);fill-opacity:1;fill-rule:evenodd;stroke:none;stroke-width:1px;stroke-linecap:butt;stroke-linejoin:miter;stroke-opacity:1;filter:url(#filter3393)"
         d="M -84.125,124.875 L -85.125,126.625 C -81.08786,134.7426 -79.91837,144.77197 -77.6875,154.09375 C -84.67104,152.87559 -91.41593,150.84084 -97.5,147.375 L -97.5,147.8125 C -81.85523,156.72466 -60.62084,156.3125 -47.25,156.3125 C -33.87915,156.31251 -12.64476,156.72465 3,147.8125 L 4.5,146.0625 L 2.666559,147.54655 C -12.978191,156.45871 -33.87916,156.00881 -47.25,156.00881 C -54.70098,156.00881 -64.58699,155.42889 -74.59375,154 C -77.77083,139.60839 -80.94792,131.83413 -84.125,124.875 z"
         id="path3520"
         sodipodi:nodetypes="cccccscccscc"
         transform="matrix(1.0059645,0,0,1.0053055,103.05489,-34.059089)" />
      <path
         style="fill:#f4f5f8;fill-opacity:1;fill-rule:evenodd;stroke:#98a2bf;stroke-width:0.14528721999999999;stroke-linecap:butt;stroke-linejoin:miter;stroke-miterlimit:4;stroke-dasharray:none;stroke-opacity:1;filter:url(#filter3283)"
         d="M 463.75,435.375 C 462.47221,435.58506 461.71617,436.60113 461.75,437.375 C 461.67075,437.40672 461.57962,437.43703 461.5,437.46875 C 462.75202,441.47055 466.65727,445.74083 478.25,445.4375 C 489.75018,445.1366 492.07799,441.47873 494.71875,437.5625 C 494.5676,437.5025 494.39985,437.43497 494.25,437.375 C 494.28383,436.60113 493.52779,435.58506 492.25,435.375 C 489.83637,439.11764 488.24281,442.77637 478,443.0625 C 467.75719,443.34864 464.63251,439.11371 463.75,435.375 z M 497.46875,438.625 C 497.52198,438.79302 497.56984,438.93659 497.5625,439.09375 C 501.77057,440.67121 506.39991,442.24968 511.125,443.96875 C 506.49146,442.00962 501.81994,440.29346 497.46875,438.625 z"
         id="path3522"
         clip-path="url(#clipPath3289)"
         transform="matrix(1.0059645,0,0,1.0053055,-425.2807,-360.27676)"
         sodipodi:nodetypes="cccscccsccccc" />
      <path
         style="fill:url(#linearGradient3349);fill-opacity:1;fill-rule:evenodd;stroke:none;stroke-width:1px;stroke-linecap:butt;stroke-linejoin:miter;stroke-opacity:1;filter:url(#filter3339)"
         d="M -59.25169,118.68969 L -76.57581,119.3968 L -61.37302,117.27548 L -59.25169,118.68969 z"
         id="path3525"
         sodipodi:nodetypes="cccc"
         transform="matrix(1.0059645,0,0,1.0053055,103.05489,-34.059089)" />
      <path
         transform="matrix(0.3417414,0.9455184,0.9461381,-0.3415175,-540.77608,-70.969975)"
         style="fill:url(#linearGradient3359);fill-opacity:1;fill-rule:evenodd;stroke:none;stroke-width:1px;stroke-linecap:butt;stroke-linejoin:miter;stroke-opacity:1;filter:url(#filter3339)"
         d="M 371.74831,469.68969 L 354.42419,470.3968 L 369.62698,468.27548 L 371.74831,469.68969 z"
         id="path3527"
         sodipodi:nodetypes="cccc" />
      <path
         sodipodi:nodetypes="ccccccscc"
         id="path3529"
         d="M 294.15642,477.48437 C 290.23917,464.46479 288.6605,457.65234 297.69195,450.61431 L 316.78384,444.95745 L 308.29856,438.5935 L 288.49957,446.37167 L 277.89297,459.09959 C 277.89297,459.09959 273.65032,468.99909 276.47875,470.4133 C 279.30718,471.82752 286.37825,476.07016 286.37825,476.07016 L 294.15642,477.48437 z"
         style="opacity:0.32209742000000002;fill:url(#linearGradient3514);fill-opacity:1;fill-rule:evenodd;stroke:none;stroke-width:1px;stroke-linecap:butt;stroke-linejoin:miter;stroke-opacity:1;filter:url(#filter3493)"
         transform="matrix(-1.0059645,0,0,1.0053055,383.00502,-360.28069)" />
      <path
         style="opacity:0.06367043999999999;fill:url(#linearGradient3584);fill-opacity:1;fill-rule:evenodd;stroke:url(#linearGradient3592);stroke-width:0.29057442999999999px;stroke-linecap:butt;stroke-linejoin:miter;stroke-opacity:1;filter:url(#filter3574)"
         d="M -59.2517,120.45746 L -66.32276,138.13513 L -59.2517,120.45746 z"
         id="path3531"
         transform="matrix(1.0059645,0,0,1.0053055,103.05489,-34.059089)" />
    </g>
    <g
       id="g31041"
       transform="matrix(0.992874,0,0,1.004941,1.3063101,144.55607)">
      <path
         sodipodi:nodetypes="czccccc"
         id="path3180"
         d="M 118.49434,-119.51907 C 118.92677,-119.98708 121.71497,-119.71516 124.64303,-116.98978 C 127.59982,-114.23768 128.16026,-111.61259 127.61858,-111.02639 C 127.26602,-110.64482 126.91345,-110.26325 126.56089,-109.88168 C 123.51945,-112.71258 120.47804,-115.54347 117.43662,-118.37436 C 117.78918,-118.75593 118.14175,-119.1375 118.49434,-119.51907 C 118.49434,-119.51907 118.49434,-119.51907 118.49434,-119.51907"
         style="fill:#000000;fill-opacity:1;fill-rule:evenodd;stroke:none;stroke-width:1px;stroke-linecap:butt;stroke-linejoin:miter;stroke-opacity:1" />
      <path
         style="fill:#000000;fill-opacity:1;fill-rule:evenodd;stroke:#000000;stroke-width:0;stroke-linecap:butt;stroke-linejoin:miter;stroke-miterlimit:4;stroke-dasharray:none;stroke-opacity:1"
         d="M 35.339626,-20.200778 L 60.205243,-37.927683 L 60.346221,-38.080261 L 51.371722,-46.735032 L 51.180635,-46.528309 L 35.339626,-20.200778 z"
         id="path3299"
         sodipodi:nodetypes="cccccc" />
      <path
         sodipodi:nodetypes="cccccc"
         id="path2247"
         d="M 36.776822,-21.647033 L 59.965082,-38.168096 L 60.106051,-38.320666 L 51.611892,-46.494628 L 51.420795,-46.287898 L 36.776822,-21.647033 z"
         style="fill:url(#radialGradient31062);fill-opacity:1;fill-rule:evenodd;stroke:#000000;stroke-width:0;stroke-linecap:butt;stroke-linejoin:miter;stroke-miterlimit:4;stroke-dasharray:none;stroke-opacity:1" />
      <path
         sodipodi:nodetypes="csccccsz"
         id="rect2192"
         d="M 55.04575,-41.527373 C 56.171156,-40.479874 57.321997,-40.872569 57.724282,-40.498141 C 57.789293,-40.437635 57.832458,-40.355013 57.863018,-40.266703 L 124.77434,-112.82208 L 120.35143,-116.93883 L 53.313077,-44.245994 C 53.514777,-44.262259 53.693661,-44.24977 53.820896,-44.131342 C 54.188596,-43.789085 53.915121,-42.579745 55.04575,-41.527373 z"
         style="fill:url(#radialGradient31064);fill-opacity:1;fill-rule:nonzero;stroke:none;stroke-width:0.5;stroke-linecap:round;stroke-linejoin:round;stroke-miterlimit:4;stroke-dasharray:none;stroke-dashoffset:4;stroke-opacity:1" />
      <path
         sodipodi:nodetypes="ccsccc"
         style="opacity:0.35348834;fill:#000000;fill-opacity:1;fill-rule:nonzero;stroke:none;stroke-width:0.5;stroke-linecap:round;stroke-linejoin:round;stroke-miterlimit:4;stroke-dasharray:none;stroke-dashoffset:4;stroke-opacity:1"
         d="M 60.251272,-43.176418 L 57.631202,-40.340883 C 57.982832,-39.95417 57.500451,-38.888921 58.176337,-38.25983 C 58.904733,-37.581846 59.695595,-38.350295 60.168947,-37.914867 L 62.820773,-40.784801 L 60.251272,-43.176418 z"
         id="path2233" />
      <path
         id="rect2190"
         d="M 124.61286,-112.97237 L 57.75236,-40.471996 C 58.10592,-40.083467 57.746078,-39.148056 58.425426,-38.515753 C 59.157537,-37.83429 59.827491,-38.471448 60.303244,-38.033771 L 127.1955,-110.5685 L 124.61286,-112.97237 z"
         style="fill:url(#radialGradient31066);fill-opacity:1;fill-rule:nonzero;stroke:none;stroke-width:0.5;stroke-linecap:round;stroke-linejoin:round;stroke-miterlimit:4;stroke-dasharray:none;stroke-dashoffset:4;stroke-opacity:1"
         sodipodi:nodetypes="ccsccc" />
      <path
         sodipodi:nodetypes="cccccccccc"
         style="opacity:0.38604653;fill:#252525;fill-opacity:1;fill-rule:nonzero;stroke:none;stroke-width:0.5;stroke-linecap:round;stroke-linejoin:round;stroke-miterlimit:4;stroke-dasharray:none;stroke-dashoffset:4;stroke-opacity:1"
         d="M 55.094665,-45.508617 L 53.750628,-44.054044 L 53.699725,-44.000208 C 54.000061,-43.701848 53.561414,-42.618044 54.525191,-41.543144 L 54.581358,-41.490876 L 54.981526,-41.118408 L 55.037691,-41.066126 C 56.188828,-40.172465 57.23223,-40.712218 57.634502,-40.337802 L 59.057944,-41.886341 L 55.094665,-45.508617 z"
         id="path2231" />
      <path
         sodipodi:nodetypes="ccsccccccc"
         style="opacity:0.35348834;fill:#131313;fill-opacity:1;fill-rule:nonzero;stroke:none;stroke-width:0.5;stroke-linecap:round;stroke-linejoin:round;stroke-miterlimit:4;stroke-dasharray:none;stroke-dashoffset:4;stroke-opacity:1"
         d="M 52.538737,-47.916198 L 51.178193,-46.52449 C 51.192294,-46.511426 51.081247,-46.390171 51.095398,-46.376993 C 51.384102,-46.10828 50.983593,-45.025005 51.463742,-44.392673 L 51.512887,-44.346944 L 51.730516,-44.144365 L 51.758606,-44.118242 C 52.43849,-43.663208 53.351141,-44.229398 53.699725,-44.000208 L 55.108236,-45.52455 L 52.538737,-47.916198 z"
         id="path2229" />
      <path
         sodipodi:nodetypes="cccccsz"
         id="rect1315"
         d="M 51.874077,-44.517585 C 52.582691,-43.873296 53.445787,-44.480484 53.820896,-44.131342 L 120.68141,-116.63171 L 118.07124,-119.06118 L 51.178972,-46.526442 C 51.193301,-46.513181 51.207383,-46.500003 51.221754,-46.486604 C 51.515028,-46.213641 51.160168,-45.166835 51.874077,-44.517585 z"
         style="fill:url(#linearGradient31068);fill-opacity:1;fill-rule:nonzero;stroke:none;stroke-width:0.5;stroke-linecap:round;stroke-linejoin:round;stroke-miterlimit:4;stroke-dasharray:none;stroke-dashoffset:4;stroke-opacity:1" />
      <rect
         transform="matrix(0.732512,0.680755,-0.680755,0.732512,0,0)"
         y="-168.16968"
         x="5.4500041"
         height="2.9295313"
         width="12.461839"
         id="rect2069"
         style="fill:#000000;fill-opacity:1;stroke:none;stroke-width:1;stroke-linecap:round;stroke-linejoin:round;stroke-miterlimit:4;stroke-dasharray:none;stroke-dashoffset:4;stroke-opacity:1" />
      <path
         transform="matrix(0.57689,-0.623982,-1.184771,-1.099143,81.06275,-58.74891)"
         d="M 82.172836,7.4622769 A 47.495197,0.97142172 0 1 1 -12.817558,7.4622769 A 47.495197,0.97142172 0 1 1 82.172836,7.4622769 z"
         sodipodi:ry="0.97142172"
         sodipodi:rx="47.495197"
         sodipodi:cy="7.4622769"
         sodipodi:cx="34.677639"
         id="path3301"
         style="fill:url(#radialGradient31070);fill-opacity:1;fill-rule:nonzero;stroke:none;stroke-width:0.2;stroke-linecap:round;stroke-linejoin:round;stroke-miterlimit:4;stroke-dasharray:none;stroke-dashoffset:4;stroke-opacity:1"
         sodipodi:type="arc" />
      <path
         sodipodi:open="true"
         sodipodi:end="6.2517655"
         sodipodi:start="0"
         sodipodi:type="arc"
         style="fill:url(#radialGradient31072);fill-opacity:1;fill-rule:nonzero;stroke:none;stroke-width:0.2;stroke-linecap:round;stroke-linejoin:round;stroke-miterlimit:4;stroke-dasharray:none;stroke-dashoffset:4;stroke-opacity:1"
         id="path3321"
         sodipodi:cx="34.677639"
         sodipodi:cy="7.4622769"
         sodipodi:rx="71.883232"
         sodipodi:ry="0.4230493"
         d="M 106.56087,7.4622769 A 71.883232,0.4230493 0 1 1 106.52539,7.448987"
         transform="matrix(0.477686,-0.518489,-0.858163,-0.799379,76.54031,-56.19599)" />
      <path
         style="fill:url(#radialGradient31074);fill-opacity:1;fill-rule:nonzero;stroke:none;stroke-width:0.5;stroke-linecap:round;stroke-linejoin:round;stroke-miterlimit:4;stroke-dasharray:none;stroke-dashoffset:4;stroke-opacity:1"
         d="M 113.81596,-114.4479 C 112.5265,-113.6388 111.30439,-112.22845 110.64789,-111.01929 L 117.98303,-104.25397 L 121.15109,-107.68257 L 113.81596,-114.4479 z M 120.38017,-108.40012 L 117.21211,-104.97151 L 119.78181,-102.5797 C 120.90502,-103.25495 122.19378,-104.59857 122.94988,-106.0083 L 120.38017,-108.40012 z"
         id="path2274"
         sodipodi:nodetypes="cccccccccc" />
      <path
         sodipodi:nodetypes="cccc"
         id="path2265"
         d="M 46.031943,-27.788115 C 44.363204,-27.952223 42.929108,-30.481839 42.006221,-31.255765 L 35.340944,-20.206344 L 46.031943,-27.788115 z"
         style="fill:#000000;fill-opacity:1;fill-rule:evenodd;stroke:none;stroke-width:0;stroke-linecap:butt;stroke-linejoin:miter;stroke-miterlimit:4;stroke-dasharray:none;stroke-opacity:1" />
      <rect
         transform="matrix(0.731987,0.681319,-0.678649,0.734463,0,0)"
         y="-168.61739"
         x="9.482482"
         height="1.1767515"
         width="5.3743849"
         id="rect3205"
         style="fill:url(#radialGradient31076);fill-opacity:1;fill-rule:nonzero;stroke:none;stroke-width:0;stroke-linecap:round;stroke-linejoin:round;stroke-miterlimit:4;stroke-dasharray:none;stroke-dashoffset:4;stroke-opacity:1" />
      <path
         sodipodi:nodetypes="cszsss"
         id="path3233"
         d="M 123.72876,-117.59981 C 125.62327,-116.08716 126.96056,-114.02013 127.03279,-113.82255 C 127.105,-113.62497 125.27737,-115.94287 123.7092,-117.01635 C 122.15302,-118.08162 119.95516,-118.14391 119.79479,-118.27312 C 119.63443,-118.40234 118.55495,-119.58235 119.55089,-119.52301 C 120.5926,-119.46094 122.26543,-118.76711 123.72876,-117.59981 z"
         style="fill:url(#linearGradient31078);fill-opacity:1;fill-rule:evenodd;stroke:none;stroke-width:1px;stroke-linecap:butt;stroke-linejoin:miter;stroke-opacity:1" />
      <path
         id="text3284"
         d="M 65.171241,-46.548711 C 64.965319,-46.326084 64.849025,-46.112993 64.82233,-45.909446 C 64.795638,-45.705863 64.861077,-45.530682 65.018644,-45.383874 C 65.175547,-45.237687 65.354142,-45.185508 65.554421,-45.227312 C 65.754706,-45.269159 65.957798,-45.401358 66.163712,-45.623976 C 66.370809,-45.847873 66.487684,-46.06159 66.514385,-46.265163 C 66.541072,-46.468735 66.475956,-46.643597 66.319063,-46.789792 C 66.161488,-46.936608 65.982568,-46.98909 65.782289,-46.947269 C 65.582007,-46.905452 65.378329,-46.7726 65.171241,-46.548711 M 64.891827,-46.809064 C 65.313019,-47.264412 65.711711,-47.557042 66.087925,-47.686929 C 66.464125,-47.816815 66.773419,-47.768837 67.015775,-47.543028 C 67.257467,-47.317822 67.327745,-47.012147 67.226616,-46.625962 C 67.125476,-46.239772 66.864316,-45.819006 66.443124,-45.363641 C 66.023108,-44.909561 65.624417,-44.616931 65.247028,-44.485773 C 64.870824,-44.355893 64.561876,-44.403547 64.320174,-44.628746 C 64.07782,-44.854554 64.007204,-45.160561 64.108345,-45.546734 C 64.21065,-45.934187 64.47181,-46.354954 64.891827,-46.809064 M 68.841447,-49.551089 L 70.513649,-49.822868 L 69.809908,-49.062025 L 68.686679,-48.87577 L 68.590225,-47.74339 L 67.882988,-46.978776 L 68.028898,-48.672621 L 66.422852,-48.409866 L 67.128341,-49.172595 L 68.183921,-49.344184 L 68.274325,-50.411545 L 68.983324,-51.178066 L 68.841447,-49.551089 M 69.057032,-51.257758 L 69.795864,-52.056526 L 70.925332,-52.205199 L 70.989229,-53.346716 L 71.729815,-54.14738 L 71.596536,-52.261588 L 72.226483,-51.674657 L 71.550816,-50.944169 L 70.920881,-51.531122 L 69.057032,-51.257758 M 75.758588,-55.717071 C 75.636836,-55.491388 75.496981,-55.269633 75.339008,-55.051806 C 75.18103,-54.833966 75.005516,-54.620695 74.812477,-54.411997 C 74.376074,-53.940192 73.96092,-53.631123 73.566991,-53.484766 C 73.172403,-53.339023 72.855927,-53.377217 72.617569,-53.599294 C 72.376534,-53.823871 72.316791,-54.140949 72.438325,-54.550511 C 72.559846,-54.960101 72.846424,-55.409001 73.298021,-55.897246 C 73.472353,-56.085715 73.64842,-56.257261 73.826229,-56.411862 C 74.005209,-56.567735 74.183837,-56.705068 74.362123,-56.823931 L 74.671588,-56.535575 C 74.477935,-56.421638 74.296889,-56.297132 74.128444,-56.162063 C 73.961174,-56.028265 73.804987,-55.882921 73.659919,-55.72608 C 73.390827,-55.43516 73.22623,-55.170522 73.166108,-54.932166 C 73.106496,-54.695683 73.156471,-54.503099 73.316041,-54.354437 C 73.474273,-54.206992 73.666664,-54.169057 73.893191,-54.240587 C 74.119706,-54.312127 74.362242,-54.487655 74.620813,-54.767207 C 74.691002,-54.843083 74.753594,-54.915464 74.808596,-54.984345 C 74.86409,-55.055084 74.910493,-55.121375 74.947766,-55.183184 L 74.65734,-55.4538 L 74.244919,-55.007918 L 73.986546,-55.248663 L 75.039513,-56.387054 L 75.758588,-55.717071 M 74.967694,-57.647946 L 76.791085,-59.619268 L 77.082512,-59.347744 L 75.934775,-58.10689 L 76.213193,-57.847478 L 77.292487,-59.014334 L 77.58392,-58.742798 L 76.504626,-57.575942 L 76.847142,-57.256806 L 78.033487,-58.539395 L 78.324921,-58.267858 L 76.462915,-56.254785 L 74.967694,-57.647946 M 77.424624,-60.304211 L 78.179249,-61.120064 L 80.157714,-61.194796 L 79.132188,-62.150313 L 79.772743,-62.842832 L 81.267969,-61.449676 L 80.51334,-60.633821 L 78.534872,-60.559102 L 79.560404,-59.603572 L 78.919849,-58.911054 L 77.424624,-60.304211 M 81.678616,-64.90333 L 82.433243,-65.719171 L 84.411704,-65.793914 L 83.38618,-66.749421 L 84.026734,-67.441952 L 85.521959,-66.048795 L 84.767335,-65.232941 L 82.788864,-65.158223 L 83.814396,-64.202691 L 83.173842,-63.510172 L 81.678616,-64.90333 M 85.340474,-68.916705 C 85.589681,-69.186114 85.823282,-69.3641 86.041299,-69.450635 C 86.260491,-69.538418 86.433504,-69.523224 86.560365,-69.405027 C 86.687215,-69.286831 86.715413,-69.115729 86.644952,-68.891723 C 86.574489,-68.667703 86.414073,-68.420358 86.163701,-68.149677 C 85.913329,-67.878985 85.678883,-67.699433 85.46036,-67.611026 C 85.243013,-67.523873 85.070906,-67.539395 84.944057,-67.657591 C 84.817195,-67.775786 84.788674,-67.947201 84.858466,-68.171837 C 84.929432,-68.397731 85.090108,-68.646012 85.340474,-68.916705 M 85.565852,-67.251335 L 87.010175,-68.81283 L 87.210468,-68.626212 L 85.766144,-67.064706 L 85.565852,-67.251335 M 85.510726,-68.758076 C 85.412455,-68.651815 85.35744,-68.550003 85.345678,-68.452636 C 85.33509,-68.35652 85.368523,-68.272386 85.445974,-68.200225 C 85.523422,-68.128062 85.609167,-68.101155 85.703213,-68.119507 C 85.798425,-68.139118 85.895172,-68.202052 85.993443,-68.308313 C 86.090556,-68.413288 86.144734,-68.513524 86.155992,-68.609019 C 86.168411,-68.705769 86.135896,-68.790229 86.05845,-68.862392 C 85.981001,-68.934551 85.894336,-68.961136 85.798454,-68.942147 C 85.703748,-68.924407 85.607839,-68.863051 85.510726,-68.758076 M 89.987624,-72.499536 C 90.190324,-72.666263 90.369689,-72.768789 90.525705,-72.807114 C 90.68223,-72.847316 90.810233,-72.821074 90.909717,-72.728382 C 91.057934,-72.590283 91.071322,-72.377639 90.949876,-72.090448 C 90.82776,-71.803876 90.575998,-71.454414 90.194594,-71.042065 C 90.060046,-70.896602 89.918578,-70.756411 89.770168,-70.621508 C 89.623608,-70.487241 89.471874,-70.360152 89.314971,-70.240233 L 89.017518,-70.517383 C 89.179932,-70.620387 89.33249,-70.730231 89.475199,-70.84689 C 89.618411,-70.965437 89.750277,-71.08985 89.870782,-71.22013 C 90.049783,-71.413657 90.168981,-71.578136 90.228364,-71.713561 C 90.288906,-71.850256 90.286135,-71.949391 90.220036,-72.010983 C 90.151937,-72.074429 90.051386,-72.069211 89.918392,-71.995309 C 89.785896,-71.92329 89.624301,-71.784195 89.433598,-71.578018 L 89.163336,-71.285832 L 88.914968,-71.517245 L 89.199269,-71.824612 C 89.368913,-72.008018 89.480247,-72.158618 89.533267,-72.276427 C 89.585625,-72.394844 89.580753,-72.482985 89.518669,-72.540834 C 89.461239,-72.594339 89.376486,-72.592067 89.264371,-72.53403 C 89.152266,-72.475986 89.022508,-72.367281 88.875084,-72.207913 C 88.766284,-72.09027 88.663319,-71.964837 88.566188,-71.831621 C 88.469064,-71.698382 88.379202,-71.55957 88.296595,-71.415171 L 88.01418,-71.678308 C 88.126188,-71.842412 88.242369,-72.000268 88.362723,-72.151897 C 88.483076,-72.303511 88.606438,-72.447621 88.732788,-72.584237 C 89.073251,-72.952306 89.359757,-73.197573 89.592332,-73.319994 C 89.825405,-73.444301 90.006035,-73.446736 90.134227,-73.327303 C 90.221691,-73.245801 90.253104,-73.135282 90.228462,-72.995754 C 90.20314,-72.856853 90.122862,-72.691441 89.987624,-72.499536"
         style="font-size:12px;font-style:normal;font-variant:normal;font-weight:bold;font-stretch:normal;text-align:start;line-height:125%;writing-mode:lr-tb;text-anchor:start;fill:url(#linearGradient31080);fill-opacity:1;stroke:none;stroke-width:1px;stroke-linecap:butt;stroke-linejoin:miter;stroke-opacity:1;font-family:'Bitstream Vera Sans'" />
      <rect
         style="fill:url(#radialGradient31082);fill-opacity:1;fill-rule:nonzero;stroke:none;stroke-width:0;stroke-linecap:round;stroke-linejoin:round;stroke-miterlimit:4;stroke-dasharray:none;stroke-dashoffset:4;stroke-opacity:1"
         id="rect2956"
         width="3.6857667"
         height="0.80180275"
         x="-19.751652"
         y="-169.07549"
         transform="matrix(0.685219,0.728337,-0.782272,0.622936,0,0)" />
      <rect
         transform="matrix(-0.743171,-0.669101,-0.605652,0.79573,0,0)"
         y="-168.86479"
         x="-34.617409"
         height="0.80180055"
         width="3.6857619"
         id="rect2961"
         style="fill:url(#radialGradient31084);fill-opacity:1;fill-rule:nonzero;stroke:none;stroke-width:0;stroke-linecap:round;stroke-linejoin:round;stroke-miterlimit:4;stroke-dasharray:none;stroke-dashoffset:4;stroke-opacity:1" />
    </g>
  </g>
  <g
     inkscape:groupmode="layer"
     id="g5368"
     inkscape:label="fill text" />
</svg>
