<?xml version="1.0" encoding="UTF-8" standalone="no"?>
<!-- Generator: Adobe Illustrator 12.0.0, SVG Export Plug-In . SVG Version: 6.00 Build 51448)  -->
<svg
   xmlns:ns="http://ns.adobe.com/SaveForWeb/1.0/"
   xmlns:dc="http://purl.org/dc/elements/1.1/"
   xmlns:cc="http://web.resource.org/cc/"
   xmlns:rdf="http://www.w3.org/1999/02/22-rdf-syntax-ns#"
   xmlns:svg="http://www.w3.org/2000/svg"
   xmlns="http://www.w3.org/2000/svg"
   xmlns:xlink="http://www.w3.org/1999/xlink"
   xmlns:sodipodi="http://sodipodi.sourceforge.net/DTD/sodipodi-0.dtd"
   xmlns:inkscape="http://www.inkscape.org/namespaces/inkscape"
   version="1.1"
   id="Layer_1"
   width="128"
   height="128"
   viewBox="0 0 128 128"
   overflow="visible"
   enable-background="new 0 0 128 128"
   xml:space="preserve"
   sodipodi:version="0.32"
   inkscape:version="0.45.1"
   sodipodi:docname="document-revert.svgz"
   sodipodi:docbase="/home/david/Icons/Oxygen/trunk/scalable/actions"
   inkscape:output_extension="org.inkscape.output.svgz.inkscape"
   inkscape:export-filename="/home/david/document-revert.png"
   inkscape:export-xdpi="22.5"
   inkscape:export-ydpi="22.5"><defs
   id="defs105"><linearGradient
     id="linearGradient6740"><stop
       style="stop-color:#004d00;stop-opacity:0;"
       offset="0"
       id="stop6742" /><stop
       id="stop6748"
       offset="0.5"
       style="stop-color:#004d00;stop-opacity:1;" /><stop
       style="stop-color:#004d00;stop-opacity:0;"
       offset="1"
       id="stop6744" /></linearGradient><linearGradient
     gradientTransform="matrix(0,1,-1,0,-39.9985,140.0029)"
     y2="-383.9975"
     x2="-23.516129"
     y1="-383.9971"
     x1="-84.002403"
     gradientUnits="userSpaceOnUse"
     id="linearGradient3711"><stop
       id="stop3713"
       style="stop-color:white;stop-opacity:1;"
       offset="0" /><stop
       id="stop3715"
       style="stop-color:white;stop-opacity:0;"
       offset="1" /></linearGradient><clipPath
     clipPathUnits="userSpaceOnUse"
     id="clipPath5163"><circle
       sodipodi:ry="36"
       sodipodi:rx="36"
       sodipodi:cy="92"
       sodipodi:cx="343.99899"
       style="fill:url(#linearGradient5167);fill-opacity:1"
       r="36"
       rx="8.0010004"
       cx="343.99899"
       cy="92"
       ry="8.0010004"
       id="circle5165" /></clipPath><linearGradient
     id="linearGradient4296"><stop
       id="stop4298"
       offset="0"
       style="stop-color:#00ff00;stop-opacity:1" /><stop
       id="stop4300"
       offset="1"
       style="stop-color:#006500;stop-opacity:1" /></linearGradient><linearGradient
     inkscape:collect="always"
     xlink:href="#linearGradient4296"
     id="linearGradient4272"
     gradientUnits="userSpaceOnUse"
     x1="328.12448"
     y1="120.81158"
     x2="336.98077"
     y2="87.759453" /><linearGradient
     gradientTransform="matrix(0,1,-1,0,-39.9985,140.0029)"
     y2="-383.9971"
     x2="-12.0029"
     y1="-383.9971"
     x1="-84.002403"
     gradientUnits="userSpaceOnUse"
     id="linearGradient4770"><stop
       id="stop4772"
       style="stop-color:#e5ff00;stop-opacity:1"
       offset="0" /><stop
       id="stop4774"
       style="stop-color:#bff500;stop-opacity:0;"
       offset="1" /></linearGradient><linearGradient
     gradientTransform="matrix(0,1,-1,0,-39.9985,140.0029)"
     y2="-383.9971"
     x2="-12.0029"
     y1="-383.9971"
     x1="-84.002403"
     gradientUnits="userSpaceOnUse"
     id="linearGradient5958"><stop
       id="stop5960"
       style="stop-color:#008c00;stop-opacity:1"
       offset="0" /><stop
       id="stop5962"
       style="stop-color:#00bf00;stop-opacity:1"
       offset="1" /></linearGradient><linearGradient
     y2="0"
     x2="28"
     y1="57.5"
     x1="28"
     gradientUnits="userSpaceOnUse"
     id="linearGradient18668">
			<stop
   id="stop18670"
   style="stop-color:#fffccf;stop-opacity:1;"
   offset="0" />
			<stop
   id="stop18672"
   style="stop-color:white;stop-opacity:0;"
   offset="1" />
		</linearGradient><linearGradient
     id="XMLID_2_"
     gradientUnits="userSpaceOnUse"
     x1="28"
     y1="57.5"
     x2="28"
     y2="0">
			<stop
   offset="0"
   style="stop-color:#FFEA00"
   id="stop12" />
			<stop
   offset="1"
   style="stop-color:#FFCC00"
   id="stop14" />
		</linearGradient><linearGradient
     inkscape:collect="always"
     xlink:href="#XMLID_9_"
     id="linearGradient2291"
     gradientUnits="userSpaceOnUse"
     x1="94.3438"
     y1="102.3447"
     x2="86.5356"
     y2="94.5366" /><linearGradient
     inkscape:collect="always"
     xlink:href="#XMLID_10_"
     id="linearGradient2293"
     gradientUnits="userSpaceOnUse"
     x1="95"
     y1="103"
     x2="86.5865"
     y2="94.5865" /><linearGradient
     inkscape:collect="always"
     xlink:href="#XMLID_11_"
     id="linearGradient2295"
     gradientUnits="userSpaceOnUse"
     x1="95"
     y1="103"
     x2="87.293"
     y2="95.293" /><linearGradient
     inkscape:collect="always"
     xlink:href="#XMLID_12_"
     id="linearGradient2297"
     gradientUnits="userSpaceOnUse"
     x1="96"
     y1="104"
     x2="88.0002"
     y2="96.0002" /><linearGradient
     inkscape:collect="always"
     xlink:href="#XMLID_2_"
     id="linearGradient2299"
     gradientUnits="userSpaceOnUse"
     x1="28"
     y1="57.5"
     x2="28"
     y2="0" /><radialGradient
     inkscape:collect="always"
     xlink:href="#XMLID_8_"
     id="radialGradient2272"
     gradientUnits="userSpaceOnUse"
     gradientTransform="matrix(0.9787234,0,0,0.9818182,1.3617045,1.1636364)"
     cx="102"
     cy="112.3047"
     r="139.55859" /><radialGradient
     inkscape:collect="always"
     xlink:href="#XMLID_7_"
     id="radialGradient2275"
     gradientUnits="userSpaceOnUse"
     gradientTransform="translate(2.4e-6,0)"
     cx="102"
     cy="112.3047"
     r="139.5585" /><radialGradient
     inkscape:collect="always"
     xlink:href="#linearGradient18668"
     id="radialGradient3239"
     gradientUnits="userSpaceOnUse"
     gradientTransform="matrix(1,0,0,1.2916104,-4,-19.57938)"
     cx="30.010139"
     cy="34.750149"
     fx="30.010139"
     fy="34.750149"
     r="20.78125" /><filter
     inkscape:collect="always"
     id="filter3241"><feGaussianBlur
       inkscape:collect="always"
       stdDeviation="1.0394514"
       id="feGaussianBlur3243" /></filter><linearGradient
     y2="63.426777"
     x2="208.59375"
     y1="130.40625"
     x1="208.59375"
     gradientTransform="translate(-137,0)"
     gradientUnits="userSpaceOnUse"
     id="linearGradient3567"
     xlink:href="#linearGradient3295"
     inkscape:collect="always" /><linearGradient
     gradientUnits="userSpaceOnUse"
     y2="18.103027"
     x2="-33.476654"
     y1="18.103027"
     x1="-267.47665"
     id="linearGradient3565"
     xlink:href="#linearGradient3751"
     inkscape:collect="always" /><mask
     id="mask3402"
     maskUnits="userSpaceOnUse"><g
       transform="translate(167.50257,-3.755156e-3)"
       id="g3404"><g
         transform="translate(80.51637,30.885255)"
         id="g3406"><path
           sodipodi:nodetypes="cssccsssccsccccsccc"
           id="path3408"
           d="M -184.42232,-32.47243 C -217.54751,-32.47243 -248.42232,-0.097625 -248.42232,33.02757 C -248.42232,66.15276 -217.04751,97.02757 -183.92232,97.02757 C -153.6332,97.02757 -128.58571,70.81131 -124.51607,41.68382 L -159.54732,36.65257 C -161.172,48.6137 -171.47739,57.62132 -183.92232,57.62132 C -197.49395,57.62132 -206.01607,46.0992 -206.01607,32.52757 C -206.01607,18.955936 -199.99395,12.43382 -186.42232,12.43382 C -179.6365,12.433819 -176.50103,10.198864 -172.04732,14.65257 L -176.8745,25.979749 C -178.93037,28.035619 -179.11822,29.285529 -178.55411,30.595278 C -178.04554,31.776057 -177.03338,33.12132 -174.34438,33.12132 L -130.39107,33.12132 C -126.54518,33.12132 -123.93208,30.466941 -123.93208,26.871189 L -124.00095,-17.206829 C -124.00095,-19.687584 -124.90346,-21.050058 -126.18242,-21.556444 C -127.49674,-22.076829 -129.21563,-21.679122 -131.28951,-19.605244 L -141.48482,-19.40993 C -152.34417,-30.269281 -167.85972,-32.47243 -184.42232,-32.47243 z "
           style="opacity:1;fill:url(#radialGradient3422);fill-opacity:1;stroke:none;stroke-width:2;stroke-linecap:round;stroke-linejoin:round;stroke-miterlimit:4;stroke-dashoffset:1.08779998;stroke-opacity:1" /><path
           id="path3410"
           d="M -161.5,34.5 C -162,37 -180,54 -180,54 L -132.5,80 L -112,38.5 L -161.5,34.5 z "
           style="fill:url(#linearGradient3424);fill-opacity:1;fill-rule:evenodd;stroke:none;stroke-width:1px;stroke-linecap:butt;stroke-linejoin:miter;stroke-opacity:1;filter:url(#filter3438)"
           sodipodi:nodetypes="ccccc" /><path
           style="fill:url(#linearGradient3426);fill-opacity:1;fill-rule:evenodd;stroke:none;stroke-width:1px;stroke-linecap:butt;stroke-linejoin:miter;stroke-opacity:1;filter:url(#filter3438)"
           d="M -161.5,34.5 C -162,37 -181.27817,54.389087 -181.27817,54.389087 L -151.62742,97.591883 L -112,38.5 L -161.5,34.5 z "
           id="path3412"
           sodipodi:nodetypes="ccccc" /><path
           sodipodi:nodetypes="ccccc"
           id="path3414"
           d="M -161.5,34.5 C -162,37 -181.27817,54.389087 -181.27817,54.389087 L -151.62742,97.591883 L -112,38.5 L -161.5,34.5 z "
           style="fill:url(#linearGradient3428);fill-opacity:1;fill-rule:evenodd;stroke:none;stroke-width:1px;stroke-linecap:butt;stroke-linejoin:miter;stroke-opacity:1;filter:url(#filter3438)" /></g><rect
         style="opacity:1;fill:url(#linearGradient3430);fill-opacity:1;stroke:none;stroke-width:1;stroke-linecap:round;stroke-linejoin:round;stroke-miterlimit:4;stroke-dasharray:none;stroke-dashoffset:1.08779998;stroke-opacity:1;filter:url(#filter3363)"
         id="rect3416"
         width="83.5"
         height="71.75"
         x="-119"
         y="69.75" /><path
         transform="matrix(0.6393762,0.7688941,-0.7688941,0.6393762,37.597642,128.08723)"
         style="fill:url(#linearGradient3432);fill-opacity:1;stroke:none;stroke-width:1;stroke-linecap:round;stroke-linejoin:round;stroke-miterlimit:4;stroke-dashoffset:1.08779998;stroke-opacity:1;filter:url(#filter3363)"
         d="M -159.5,68.25 L -39.138259,55.983708 L -93.453327,162.55286 L -197.79465,128.96507 L -159.5,68.25 z "
         id="path3418"
         sodipodi:nodetypes="ccccc" /><path
         sodipodi:nodetypes="ccccc"
         id="path3420"
         d="M -159.5,68.25 L -39.138259,55.983708 L -93.453327,162.55286 L -197.79465,128.96507 L -159.5,68.25 z "
         style="fill:url(#linearGradient3434);fill-opacity:1;stroke:none;stroke-width:1;stroke-linecap:round;stroke-linejoin:round;stroke-miterlimit:4;stroke-dashoffset:1.08779998;stroke-opacity:1;filter:url(#filter3363)"
         transform="matrix(0.6393762,0.7688941,-0.7688941,0.6393762,37.597642,128.08723)" /></g></mask><linearGradient
     y2="112.70422"
     x2="-136.51074"
     y1="99.979607"
     x1="-61.802711"
     gradientTransform="translate(-40.5,-1.5)"
     gradientUnits="userSpaceOnUse"
     id="linearGradient3434"
     xlink:href="#linearGradient3342"
     inkscape:collect="always" /><linearGradient
     y2="92.603989"
     x2="-138.0043"
     y1="137.13324"
     x1="-83.593941"
     gradientTransform="translate(-40.5,-1.5)"
     gradientUnits="userSpaceOnUse"
     id="linearGradient3432"
     xlink:href="#linearGradient3342"
     inkscape:collect="always" /><linearGradient
     y2="86.125"
     x2="-163"
     y1="105.625"
     x1="-73"
     gradientUnits="userSpaceOnUse"
     id="linearGradient3430"
     xlink:href="#linearGradient3342"
     inkscape:collect="always" /><linearGradient
     y2="72.881729"
     x2="-158.92462"
     y1="44.753052"
     x1="-83.012932"
     gradientUnits="userSpaceOnUse"
     id="linearGradient3428"
     xlink:href="#linearGradient3326"
     inkscape:collect="always" /><linearGradient
     y2="72.881729"
     x2="-158.92462"
     y1="39.803303"
     x1="-132.51041"
     gradientUnits="userSpaceOnUse"
     id="linearGradient3426"
     xlink:href="#linearGradient3326"
     inkscape:collect="always" /><linearGradient
     y2="57.25"
     x2="-152.26776"
     y1="37.68198"
     x1="-151.43935"
     gradientUnits="userSpaceOnUse"
     id="linearGradient3424"
     xlink:href="#linearGradient3326"
     inkscape:collect="always" /><radialGradient
     r="59.99512"
     fy="59.708473"
     fx="-113.14772"
     cy="118.60459"
     cx="-112.17241"
     gradientTransform="matrix(0.6484284,0.1017206,-3.1257154e-2,0.1992521,-4.56257,53.15916)"
     gradientUnits="userSpaceOnUse"
     id="radialGradient3422"
     xlink:href="#linearGradient3825"
     inkscape:collect="always" /><linearGradient
     y2="112.70422"
     x2="-136.51074"
     y1="99.979607"
     x1="-61.802711"
     gradientTransform="translate(-40.5,-1.5)"
     gradientUnits="userSpaceOnUse"
     id="linearGradient3400"
     xlink:href="#linearGradient3342"
     inkscape:collect="always" /><linearGradient
     y2="92.603989"
     x2="-138.0043"
     y1="137.13324"
     x1="-83.593941"
     gradientTransform="translate(-40.5,-1.5)"
     gradientUnits="userSpaceOnUse"
     id="linearGradient3398"
     xlink:href="#linearGradient3342"
     inkscape:collect="always" /><linearGradient
     y2="86.125"
     x2="-163"
     y1="105.625"
     x1="-73"
     gradientUnits="userSpaceOnUse"
     id="linearGradient3396"
     xlink:href="#linearGradient3342"
     inkscape:collect="always" /><linearGradient
     y2="72.881729"
     x2="-158.92462"
     y1="44.753052"
     x1="-83.012932"
     gradientUnits="userSpaceOnUse"
     id="linearGradient3394"
     xlink:href="#linearGradient3326"
     inkscape:collect="always" /><linearGradient
     y2="72.881729"
     x2="-158.92462"
     y1="39.803303"
     x1="-132.51041"
     gradientUnits="userSpaceOnUse"
     id="linearGradient3392"
     xlink:href="#linearGradient3326"
     inkscape:collect="always" /><linearGradient
     y2="57.25"
     x2="-152.26776"
     y1="37.68198"
     x1="-151.43935"
     gradientUnits="userSpaceOnUse"
     id="linearGradient3390"
     xlink:href="#linearGradient3326"
     inkscape:collect="always" /><radialGradient
     r="59.99512"
     fy="59.708473"
     fx="-113.14772"
     cy="118.60459"
     cx="-112.17241"
     gradientTransform="matrix(0.6484284,0.1017206,-3.1257154e-2,0.1992521,-4.56257,53.15916)"
     gradientUnits="userSpaceOnUse"
     id="radialGradient3388"
     xlink:href="#linearGradient3825"
     inkscape:collect="always" /><linearGradient
     y2="112.70422"
     x2="-136.51074"
     y1="99.979607"
     x1="-61.802711"
     gradientTransform="translate(-40.5,-1.5)"
     gradientUnits="userSpaceOnUse"
     id="linearGradient3376"
     xlink:href="#linearGradient3342"
     inkscape:collect="always" /><linearGradient
     y2="92.603989"
     x2="-138.0043"
     y1="137.13324"
     x1="-83.593941"
     gradientTransform="translate(-40.5,-1.5)"
     gradientUnits="userSpaceOnUse"
     id="linearGradient3372"
     xlink:href="#linearGradient3342"
     inkscape:collect="always" /><linearGradient
     gradientUnits="userSpaceOnUse"
     y2="86.125"
     x2="-163"
     y1="105.625"
     x1="-73"
     id="linearGradient3349"
     xlink:href="#linearGradient3342"
     inkscape:collect="always" /><linearGradient
     y2="72.881729"
     x2="-158.92462"
     y1="44.753052"
     x1="-83.012932"
     gradientUnits="userSpaceOnUse"
     id="linearGradient2367"
     xlink:href="#linearGradient3326"
     inkscape:collect="always" /><linearGradient
     y2="72.881729"
     x2="-158.92462"
     y1="39.803303"
     x1="-132.51041"
     gradientUnits="userSpaceOnUse"
     id="linearGradient2365"
     xlink:href="#linearGradient3326"
     inkscape:collect="always" /><linearGradient
     y2="57.25"
     x2="-152.26776"
     y1="37.68198"
     x1="-151.43935"
     gradientUnits="userSpaceOnUse"
     id="linearGradient2363"
     xlink:href="#linearGradient3326"
     inkscape:collect="always" /><radialGradient
     r="59.99512"
     fy="59.708473"
     fx="-113.14772"
     cy="118.60459"
     cx="-112.17241"
     gradientTransform="matrix(0.6484284,0.1017206,-3.1257154e-2,0.1992521,-4.56257,53.15916)"
     gradientUnits="userSpaceOnUse"
     id="radialGradient2361"
     xlink:href="#linearGradient3825"
     inkscape:collect="always" /><linearGradient
     y2="14.444496"
     x2="125.30366"
     y1="12.569496"
     x1="120.0625"
     spreadMethod="reflect"
     gradientUnits="userSpaceOnUse"
     id="linearGradient3771"
     xlink:href="#linearGradient3344"
     inkscape:collect="always" /><radialGradient
     gradientUnits="userSpaceOnUse"
     gradientTransform="matrix(0.675025,0,0,0.3583625,19.527377,41.004647)"
     r="59.99512"
     fy="126.69183"
     fx="66.01458"
     cy="126.69183"
     cx="66.01458"
     id="radialGradient3757"
     xlink:href="#linearGradient3751"
     inkscape:collect="always" /><radialGradient
     r="59.995121"
     fy="26.862719"
     fx="74.871155"
     cy="48.228905"
     cx="72.684891"
     gradientTransform="matrix(0.982366,1.671718e-2,-3.5801148e-3,0.2103843,-18.56344,30.477792)"
     gradientUnits="userSpaceOnUse"
     id="radialGradient3744"
     xlink:href="#linearGradient3449"
     inkscape:collect="always" /><filter
     id="filter3738"
     height="1.2746473"
     y="-0.13732364"
     width="1.301924"
     x="-0.15096202"
     inkscape:collect="always"><feGaussianBlur
       id="feGaussianBlur3740"
       stdDeviation="0.39257441"
       inkscape:collect="always" /></filter><linearGradient
     spreadMethod="reflect"
     gradientUnits="userSpaceOnUse"
     y2="14.444496"
     x2="125.30366"
     y1="12.569496"
     x1="120.0625"
     id="linearGradient3676"
     xlink:href="#linearGradient3260"
     inkscape:collect="always" /><radialGradient
     r="59.995121"
     fy="80.404922"
     fx="167.67001"
     cy="80.404922"
     cx="167.67001"
     gradientTransform="matrix(0.2676699,0.521376,-0.7037472,0.3612977,108.99386,-36.062981)"
     gradientUnits="userSpaceOnUse"
     id="radialGradient3658"
     xlink:href="#linearGradient3449"
     inkscape:collect="always" /><radialGradient
     gradientUnits="userSpaceOnUse"
     gradientTransform="matrix(0.4582893,-2.1035589e-8,4.5903973e-8,1.0000813,20.447953,-5.1974351e-3)"
     r="59.995121"
     fy="66.906013"
     fx="-10.165252"
     cy="66.906013"
     cx="-10.165252"
     id="radialGradient3654"
     xlink:href="#linearGradient3449"
     inkscape:collect="always" /><filter
     id="filter3639"
     inkscape:collect="always"><feGaussianBlur
       id="feGaussianBlur3641"
       stdDeviation="1.0580524"
       inkscape:collect="always" /></filter><linearGradient
     gradientTransform="translate(-137,0)"
     gradientUnits="userSpaceOnUse"
     y2="63.426777"
     x2="208.59375"
     y1="130.40625"
     x1="208.59375"
     id="linearGradient3613"
     xlink:href="#linearGradient3295"
     inkscape:collect="always" /><linearGradient
     y2="80.172485"
     x2="75.09375"
     y1="4.5317035"
     x1="75.09375"
     gradientTransform="translate(4.2161108e-3,1.9705695e-3)"
     gradientUnits="userSpaceOnUse"
     id="linearGradient3581"
     xlink:href="#linearGradient3260"
     inkscape:collect="always" /><linearGradient
     gradientUnits="userSpaceOnUse"
     y2="80.172485"
     x2="75.09375"
     y1="4.5317035"
     x1="75.09375"
     id="linearGradient3548"
     xlink:href="#linearGradient3295"
     inkscape:collect="always" /><radialGradient
     gradientTransform="matrix(0.693735,5.8671246e-2,-3.6242796e-2,0.4285387,33.939389,26.8809)"
     gradientUnits="userSpaceOnUse"
     r="56"
     fy="68.231934"
     fx="64.689766"
     cy="27.418272"
     cx="99.726295"
     id="radialGradient3535"
     xlink:href="#linearGradient3528"
     inkscape:collect="always" /><radialGradient
     gradientUnits="userSpaceOnUse"
     r="56"
     fy="116.90625"
     fx="67.09375"
     cy="116.90625"
     cx="67.09375"
     id="radialGradient3524"
     xlink:href="#XMLID_4_"
     inkscape:collect="always" /><linearGradient
     gradientUnits="userSpaceOnUse"
     y2="123.90625"
     x2="8.083992"
     y1="33.40625"
     x1="147.09375"
     id="linearGradient3516"
     xlink:href="#XMLID_4_"
     inkscape:collect="always" /><linearGradient
     id="linearGradient3449"><stop
       style="stop-color:#000000;stop-opacity:1;"
       offset="0"
       id="stop3451" /><stop
       style="stop-color:#000000;stop-opacity:0;"
       offset="1"
       id="stop3453" /></linearGradient><linearGradient
     id="linearGradient3344"><stop
       style="stop-color:#fdff63;stop-opacity:1;"
       offset="0"
       id="stop3346" /><stop
       style="stop-color:#ffffff;stop-opacity:0;"
       offset="1"
       id="stop3348" /></linearGradient><linearGradient
     inkscape:collect="always"
     id="linearGradient3260"><stop
       style="stop-color:#ffffff;stop-opacity:1;"
       offset="0"
       id="stop3262" /><stop
       style="stop-color:#ffffff;stop-opacity:0;"
       offset="1"
       id="stop3264" /></linearGradient><radialGradient
     gradientUnits="userSpaceOnUse"
     gradientTransform="matrix(0.9792,0,0,0.9725,133.0002,20.8762)"
     r="55.148"
     cy="-0.2148"
     cx="48"
     id="XMLID_4_"><stop
       id="stop3082"
       style="stop-color:#cfd13d;stop-opacity:1;"
       offset="0" /><stop
       id="stop3090"
       style="stop-color:#db8900;stop-opacity:1;"
       offset="1" /></radialGradient><linearGradient
     id="linearGradient3202"><stop
       id="stop3204"
       offset="0"
       style="stop-color:#fcff9c;stop-opacity:1;" /><stop
       id="stop3206"
       offset="1"
       style="stop-color:#c1a965;stop-opacity:0;" /></linearGradient><linearGradient
     id="linearGradient3295"><stop
       id="stop3297"
       offset="0"
       style="stop-color:#fffe63;stop-opacity:1;" /><stop
       id="stop3299"
       offset="1"
       style="stop-color:#ffffff;stop-opacity:0;" /></linearGradient><linearGradient
     id="linearGradient3528"><stop
       id="stop3530"
       offset="0"
       style="stop-color:#eaf209;stop-opacity:1;" /><stop
       id="stop3532"
       offset="1"
       style="stop-color:#c7c634;stop-opacity:0;" /></linearGradient><linearGradient
     id="linearGradient3751"><stop
       id="stop3753"
       offset="0"
       style="stop-color:#beba2c;stop-opacity:1;" /><stop
       id="stop3755"
       offset="1"
       style="stop-color:#b6be2c;stop-opacity:0;" /></linearGradient><linearGradient
     id="linearGradient3825"><stop
       id="stop3827"
       offset="0"
       style="stop-color:#ffffff;stop-opacity:0;" /><stop
       style="stop-color:#ffffff;stop-opacity:0.18705036;"
       offset="0.5"
       id="stop3833" /><stop
       id="stop3829"
       offset="1"
       style="stop-color:#ffffff;stop-opacity:1;" /></linearGradient><linearGradient
     id="linearGradient3326"
     inkscape:collect="always"><stop
       id="stop3328"
       offset="0"
       style="stop-color:#000000;stop-opacity:1;" /><stop
       id="stop3330"
       offset="1"
       style="stop-color:#000000;stop-opacity:0;" /></linearGradient><linearGradient
     id="linearGradient3342"
     inkscape:collect="always"><stop
       id="stop3344"
       offset="0"
       style="stop-color:#000000;stop-opacity:1;" /><stop
       id="stop3347"
       offset="1"
       style="stop-color:#000000;stop-opacity:0;" /></linearGradient><radialGradient
     inkscape:collect="always"
     xlink:href="#XMLID_7_"
     id="radialGradient2474"
     gradientUnits="userSpaceOnUse"
     gradientTransform="matrix(0,-1,1,0,-42.44328,122.63874)"
     cx="102"
     cy="112.3047"
     r="139.5585" /><radialGradient
     inkscape:collect="always"
     xlink:href="#XMLID_7_"
     id="radialGradient2476"
     gradientUnits="userSpaceOnUse"
     gradientTransform="translate(2.4e-6,0)"
     cx="102"
     cy="112.3047"
     r="139.5585" /><clipPath
     clipPathUnits="userSpaceOnUse"
     id="clipPath2479"><path
       style="fill:url(#radialGradient2483)"
       d="M 21.167372,-21.706268 L 21.167372,-18.904898 L -32.654553,-18.904898 L -32.654553,83.545174 L 21.167372,83.545174 L 21.167372,97.818817 L 86.460636,97.818817 C 87.026197,97.818817 87.561085,97.585369 87.961248,97.185174 L 122.97551,62.168059 C 123.37567,61.767865 123.6091,61.232935 123.6091,60.667326 L 123.6091,-21.706268 L 21.167372,-21.706268 z "
       id="path2481" /></clipPath><radialGradient
     inkscape:collect="always"
     xlink:href="#XMLID_7_"
     id="radialGradient2483"
     gradientUnits="userSpaceOnUse"
     gradientTransform="matrix(1.0671014,0,0,1.0671883,4.0937526,-30.243774)"
     cx="102"
     cy="112.3047"
     r="139.5585" /></defs><sodipodi:namedview
   inkscape:window-height="670"
   inkscape:window-width="748"
   inkscape:pageshadow="2"
   inkscape:pageopacity="0.0"
   guidetolerance="10.0"
   gridtolerance="10.0"
   objecttolerance="10.0"
   borderopacity="1.0"
   bordercolor="#666666"
   pagecolor="#ffffff"
   id="base"
   inkscape:zoom="0.25"
   inkscape:cx="64"
   inkscape:cy="64"
   inkscape:window-x="0"
   inkscape:window-y="62"
   inkscape:current-layer="Layer_1"
   showgrid="false"
   gridspacingx="4px"
   gridspacingy="4px"
   gridempspacing="2"
   showguides="true"
   inkscape:guide-bbox="true"
   showborder="false" />
<metadata
   id="metadata3">
	<ns:sfw>
		<ns:slices>
			<ns:slice
   y="0"
   x="0"
   height="128"
   width="128"
   sliceID="1316743234" />
		</ns:slices>
		<ns:sliceSourceBounds
   y="0"
   x="0"
   height="128"
   width="128"
   bottomLeftOrigin="true" />
		<ns:optimizationSettings>
			<ns:targetSettings
   targetSettingsID="0"
   fileFormat="PNG24Format">
				<ns:PNG24Format
   transparency="true"
   filtered="false"
   matteColor="#FFFFFF"
   noMatteColor="false"
   interlaced="false">
					</ns:PNG24Format>
			</ns:targetSettings>
			<ns:targetSettings
   targetSettingsID="1696735251"
   fileFormat="PNG24Format">
				<ns:PNG24Format
   transparency="true"
   filtered="false"
   matteColor="#FFFFFF"
   noMatteColor="false"
   interlaced="false">
					</ns:PNG24Format>
			</ns:targetSettings>
		</ns:optimizationSettings>
	</ns:sfw>
<rdf:RDF><cc:Work
     rdf:about=""><dc:format>image/svg+xml</dc:format><dc:type
       rdf:resource="http://purl.org/dc/dcmitype/StillImage" /></cc:Work></rdf:RDF></metadata>

<radialGradient
   id="XMLID_7_"
   cx="102"
   cy="112.3047"
   r="139.5585"
   gradientUnits="userSpaceOnUse">
	<stop
   offset="0"
   style="stop-color:#00537D"
   id="stop16" />
	<stop
   offset="0.0151"
   style="stop-color:#186389"
   id="stop18" />
	<stop
   offset="0.0558"
   style="stop-color:#558CA8"
   id="stop20" />
	<stop
   offset="0.0964"
   style="stop-color:#89AFC3"
   id="stop22" />
	<stop
   offset="0.1357"
   style="stop-color:#B3CCD8"
   id="stop24" />
	<stop
   offset="0.1737"
   style="stop-color:#D4E2E9"
   id="stop26" />
	<stop
   offset="0.2099"
   style="stop-color:#ECF2F5"
   id="stop28" />
	<stop
   offset="0.2435"
   style="stop-color:#FAFCFD"
   id="stop30" />
	<stop
   offset="0.2722"
   style="stop-color:#FFFFFF"
   id="stop32" />
</radialGradient>

<radialGradient
   id="XMLID_8_"
   cx="102"
   cy="112.3047"
   r="139.55859"
   gradientUnits="userSpaceOnUse">
	<stop
   offset="0"
   style="stop-color:#535557"
   id="stop37" />
	
	<stop
   offset="0.11366145"
   style="stop-color:#898A8C"
   id="stop41" />
	
	
	<stop
   offset="0.20296688"
   style="stop-color:#ECECEC"
   id="stop47" />
	<stop
   offset="0.2363"
   style="stop-color:#FAFAFA"
   id="stop49" />
	<stop
   offset="0.2722"
   style="stop-color:#FFFFFF"
   id="stop51" />
	<stop
   offset="0.5313"
   style="stop-color:#FAFAFA"
   id="stop53" />
	<stop
   offset="0.8449"
   style="stop-color:#EBECEC"
   id="stop55" />
	<stop
   offset="1"
   style="stop-color:#E1E2E3"
   id="stop57" />
</radialGradient>

<linearGradient
   id="XMLID_9_"
   gradientUnits="userSpaceOnUse"
   x1="94.3438"
   y1="102.3447"
   x2="86.5356"
   y2="94.5366">
	<stop
   offset="0"
   style="stop-color:#FFFFFF"
   id="stop62" />
	<stop
   offset="1"
   style="stop-color:#555753"
   id="stop64" />
</linearGradient>

<linearGradient
   id="XMLID_10_"
   gradientUnits="userSpaceOnUse"
   x1="95"
   y1="103"
   x2="86.5865"
   y2="94.5865">
	<stop
   offset="0"
   style="stop-color:#FFFFFF"
   id="stop69" />
	<stop
   offset="1"
   style="stop-color:#555753"
   id="stop71" />
</linearGradient>

<linearGradient
   id="XMLID_11_"
   gradientUnits="userSpaceOnUse"
   x1="95"
   y1="103"
   x2="87.293"
   y2="95.293">
	<stop
   offset="0"
   style="stop-color:#FFFFFF"
   id="stop76" />
	<stop
   offset="1"
   style="stop-color:#393B38"
   id="stop78" />
</linearGradient>

<linearGradient
   id="XMLID_12_"
   gradientUnits="userSpaceOnUse"
   x1="96"
   y1="104"
   x2="88.0002"
   y2="96.0002">
	<stop
   offset="0"
   style="stop-color:#888A85"
   id="stop83" />
	<stop
   offset="0.0072"
   style="stop-color:#8C8E89"
   id="stop85" />
	<stop
   offset="0.0673"
   style="stop-color:#ABACA9"
   id="stop87" />
	<stop
   offset="0.1347"
   style="stop-color:#C5C6C4"
   id="stop89" />
	<stop
   offset="0.2115"
   style="stop-color:#DBDBDA"
   id="stop91" />
	<stop
   offset="0.3012"
   style="stop-color:#EBEBEB"
   id="stop93" />
	<stop
   offset="0.4122"
   style="stop-color:#F7F7F6"
   id="stop95" />
	<stop
   offset="0.5679"
   style="stop-color:#FDFDFD"
   id="stop97" />
	<stop
   offset="1"
   style="stop-color:#FFFFFF"
   id="stop99" />
</linearGradient>
<path
   id="path6594"
   d="M 23,9 L 23.040816,121 L 84.172,121 C 84.702,121 85.211,120.789 85.586,120.414 L 118.414,87.586 C 118.789,87.211 119,86.702 119,86.172 L 119,9 L 23,9 z "
   style="opacity:0.5;fill:#000000;fill-opacity:1;filter:url(#filter3241)"
   transform="matrix(1.0416667,0,0,1.0357143,-9.9583333,-3.3215342)"
   sodipodi:nodetypes="cccccccc" /><path
   style="fill:url(#radialGradient2275)"
   d="M 16.000002,8 L 16.000002,120 L 77.172002,120 C 77.702002,120 78.211002,119.789 78.586002,119.414 L 111.414,86.586 C 111.789,86.211 112,85.702 112,85.172 L 112,8 L 16.000002,8 z "
   id="path34"
   sodipodi:nodetypes="cccccccc" /><path
   style="fill:url(#radialGradient2272);fill-opacity:1"
   d="M 18.978725,10 C 18.439449,10 18.000002,10.440836 18.000002,10.981818 L 18.000002,117.01818 C 18.000002,117.56015 18.439449,118 18.978725,118 L 76.891747,118 C 77.149151,118 77.401662,117.89593 77.583704,117.71233 L 109.71323,85.4812 C 109.89626,85.2976 110,85.045273 110,84.787055 L 110,10.981818 C 110,10.440836 109.56153,10 109.02128,10 L 18.978725,10 z "
   id="path59" />

<g
   id="layer1"
   inkscape:label="Livello 1"
   transform="matrix(0.9371181,0,0,0.9370418,-3.8363273,28.33968)"
   clip-path="url(#clipPath2479)"><g
     transform="matrix(-1,0,0,1,128.17774,0)"
     mask="url(#mask3402)"
     id="g3835"><path
       style="opacity:1;fill:url(#linearGradient3516);fill-opacity:1;stroke:none;stroke-width:2;stroke-linecap:round;stroke-linejoin:round;stroke-miterlimit:4;stroke-dashoffset:1.08779998;stroke-opacity:1"
       d="M 64.09375,3.90625 C 30.968558,3.9062499 4.0937499,30.781055 4.09375,63.90625 C 4.0937501,97.031442 30.96856,123.90625 64.09375,123.90625 C 94.382866,123.90625 119.43036,101.68999 123.5,72.5625 L 88.46875,67.53125 C 86.844066,79.492379 76.538676,88.5 64.09375,88.5 C 50.522122,88.499999 39.5,77.477881 39.5,63.90625 C 39.500001,50.334616 50.522119,39.3125 64.09375,39.3125 C 70.879568,39.312499 77.015044,42.077544 81.46875,46.53125 L 71.141571,56.858429 C 69.085701,58.914299 68.897846,60.164209 69.461963,61.473958 C 69.970531,62.654737 70.982695,64 73.671688,64 L 117.625,64 C 121.47089,64 124.08399,61.345621 124.08399,57.749869 L 124.01512,13.671851 C 124.01512,11.191096 123.11261,9.8286218 121.83365,9.3222363 C 120.51933,8.8018514 118.80044,9.1995576 116.72656,11.273436 L 106.53125,21.46875 C 95.671902,10.609399 80.656349,3.90625 64.09375,3.90625 z "
       id="rect3204"
       sodipodi:nodetypes="cssccsssccsccccsccc" /><path
       sodipodi:nodetypes="cssccsssccsccccsccc"
       id="path3749"
       d="M 64.09375,3.90625 C 30.968558,3.9062499 4.0937499,30.781055 4.09375,63.90625 C 4.0937501,97.031442 30.96856,123.90625 64.09375,123.90625 C 94.382866,123.90625 119.43036,101.68999 123.5,72.5625 L 88.46875,67.53125 C 86.844066,79.492379 76.538676,88.5 64.09375,88.5 C 50.522122,88.499999 39.5,77.477881 39.5,63.90625 C 39.500001,50.334616 50.522119,39.3125 64.09375,39.3125 C 70.879568,39.312499 77.015044,42.077544 81.46875,46.53125 L 71.141571,56.858429 C 69.085701,58.914299 68.897846,60.164209 69.461963,61.473958 C 69.970531,62.654737 70.982695,64 73.671688,64 L 117.625,64 C 121.47089,64 124.08399,61.345621 124.08399,57.749869 L 124.01512,13.671851 C 124.01512,11.191096 123.11261,9.8286218 121.83365,9.3222363 C 120.51933,8.8018514 118.80044,9.1995576 116.72656,11.273436 L 106.53125,21.46875 C 95.671902,10.609399 80.656349,3.90625 64.09375,3.90625 z "
       style="opacity:0.79775277;fill:url(#radialGradient3757);fill-opacity:1;stroke:none;stroke-width:2;stroke-linecap:round;stroke-linejoin:round;stroke-miterlimit:4;stroke-dashoffset:1.08779998;stroke-opacity:1" /><path
       style="opacity:0.68913861;fill:url(#radialGradient3658);fill-opacity:1;stroke:none;stroke-width:2;stroke-linecap:round;stroke-linejoin:round;stroke-miterlimit:4;stroke-dashoffset:1.08779998;stroke-opacity:1"
       d="M 64.09375,3.90625 C 30.968558,3.9062499 4.0937499,30.781055 4.09375,63.90625 C 4.0937501,97.031442 30.96856,123.90625 64.09375,123.90625 C 94.382866,123.90625 119.43036,101.68999 123.5,72.5625 L 88.46875,67.53125 C 86.844066,79.492379 76.538676,88.5 64.09375,88.5 C 50.522122,88.499999 39.5,77.477881 39.5,63.90625 C 39.500001,50.334616 50.522119,39.3125 64.09375,39.3125 C 70.879568,39.312499 77.015044,42.077544 81.46875,46.53125 L 71.141571,56.858429 C 69.085701,58.914299 68.897846,60.164209 69.461963,61.473958 C 69.970531,62.654737 70.982695,64 73.671688,64 L 117.625,64 C 121.47089,64 124.08399,61.345621 124.08399,57.749869 L 124.01512,13.671851 C 124.01512,11.191096 123.11261,9.8286218 121.83365,9.3222363 C 120.51933,8.8018514 118.80044,9.1995576 116.72656,11.273436 L 106.53125,21.46875 C 95.671902,10.609399 80.656349,3.90625 64.09375,3.90625 z "
       id="path3656"
       sodipodi:nodetypes="cssccsssccsccccsccc" /><path
       sodipodi:nodetypes="cssccsssccsccccsccc"
       id="path3643"
       d="M 64.09375,3.90625 C 30.968558,3.9062499 4.0937499,30.781055 4.09375,63.90625 C 4.0937501,97.031442 30.96856,123.90625 64.09375,123.90625 C 94.382866,123.90625 119.43036,101.68999 123.5,72.5625 L 88.46875,67.53125 C 86.844066,79.492379 76.538676,88.5 64.09375,88.5 C 50.522122,88.499999 39.5,77.477881 39.5,63.90625 C 39.500001,50.334616 50.522119,39.3125 64.09375,39.3125 C 70.879568,39.312499 77.015044,42.077544 81.46875,46.53125 L 71.141571,56.858429 C 69.085701,58.914299 68.897846,60.164209 69.461963,61.473958 C 69.970531,62.654737 70.982695,64 73.671688,64 L 117.625,64 C 121.47089,64 124.08399,61.345621 124.08399,57.749869 L 124.01512,13.671851 C 124.01512,11.191096 123.11261,9.8286218 121.83365,9.3222363 C 120.51933,8.8018514 118.80044,9.1995576 116.72656,11.273436 L 106.53125,21.46875 C 95.671902,10.609399 80.656349,3.90625 64.09375,3.90625 z "
       style="opacity:1;fill:url(#radialGradient3654);fill-opacity:1;stroke:none;stroke-width:2;stroke-linecap:round;stroke-linejoin:round;stroke-miterlimit:4;stroke-dashoffset:1.08779998;stroke-opacity:1" /><path
       style="opacity:0.79775277;fill:url(#radialGradient3744);fill-opacity:1;stroke:none;stroke-width:2;stroke-linecap:round;stroke-linejoin:round;stroke-miterlimit:4;stroke-dashoffset:1.08779998;stroke-opacity:1"
       d="M 64.09375,3.90625 C 30.968558,3.9062499 4.0937499,30.781055 4.09375,63.90625 C 4.0937501,97.031442 30.96856,123.90625 64.09375,123.90625 C 94.382866,123.90625 119.43036,101.68999 123.5,72.5625 L 88.46875,67.53125 C 86.844066,79.492379 76.538676,88.5 64.09375,88.5 C 50.522122,88.499999 39.5,77.477881 39.5,63.90625 C 39.500001,50.334616 50.522119,39.3125 64.09375,39.3125 C 70.879568,39.312499 77.015044,42.077544 81.46875,46.53125 L 71.141571,56.858429 C 69.085701,58.914299 68.897846,60.164209 69.461963,61.473958 C 69.970531,62.654737 70.982695,64 73.671688,64 L 117.625,64 C 121.47089,64 124.08399,61.345621 124.08399,57.749869 L 124.01512,13.671851 C 124.01512,11.191096 123.11261,9.8286218 121.83365,9.3222363 C 120.51933,8.8018514 118.80044,9.1995576 116.72656,11.273436 L 106.53125,21.46875 C 95.671902,10.609399 80.656349,3.90625 64.09375,3.90625 z "
       id="path3742"
       sodipodi:nodetypes="cssccsssccsccccsccc" /><path
       sodipodi:nodetypes="cssccsssccsccccsccc"
       id="path3759"
       d="M 64.09375,4.20625 C 30.968558,4.2062499 4.0937499,30.781055 4.09375,63.90625 C 4.0937501,97.031442 30.96856,123.90625 64.09375,123.90625 C 94.382866,123.90625 119.43036,101.68999 123.5,72.5625 L 88.46875,67.53125 C 86.844066,79.492379 76.538676,88.5 64.09375,88.5 C 50.522122,88.499999 39.5,77.477881 39.5,63.90625 C 39.500001,50.334616 50.522119,39.3125 64.09375,39.3125 C 70.879568,39.312499 77.015044,42.077544 81.46875,46.53125 L 71.141571,56.858429 C 69.085701,58.914299 68.897846,60.164209 69.461963,61.473958 C 69.970531,62.654737 70.982695,64 73.671688,64 L 117.625,64 C 121.47089,64 124.08399,61.345621 124.08399,57.749869 L 124.01512,13.671851 C 124.01512,11.191096 123.11261,9.8286218 121.83365,9.3222363 C 120.51933,8.8018514 118.80044,9.1995576 116.72656,11.273436 L 106.53125,21.46875 C 95.671902,10.609399 80.656349,4.20625 64.09375,4.20625 z "
       style="opacity:0.74531836;fill:#75511a;fill-opacity:1;stroke:none;stroke-width:2;stroke-linecap:round;stroke-linejoin:round;stroke-miterlimit:4;stroke-dashoffset:1.08779998;stroke-opacity:1;" /><path
       style="opacity:0.82022472;fill:url(#linearGradient3676);fill-opacity:1;fill-rule:evenodd;stroke:none;stroke-width:1px;stroke-linecap:butt;stroke-linejoin:miter;stroke-opacity:1;filter:url(#filter3738)"
       d="M 117.6875,10.75 L 118.625,15.125 L 119.875,16 L 123.875,13.375 C 124.12188,11.651249 123.52383,10.027571 121.9375,9.3749999 C 120.35116,8.7224285 118.77622,9.5017032 117.6875,10.75 z "
       id="path3660"
       sodipodi:nodetypes="cccczc" /><path
       sodipodi:nodetypes="cccczc"
       id="path3769"
       d="M 117.6875,10.75 L 119.875,13.875 L 120.375,13.75 L 123.875,13.375 C 124.12188,11.651249 123.52383,10.027571 121.9375,9.3749999 C 120.35116,8.7224285 118.77622,9.5017032 117.6875,10.75 z "
       style="opacity:0.82022472;fill:url(#linearGradient3771);fill-opacity:1;fill-rule:evenodd;stroke:none;stroke-width:1px;stroke-linecap:butt;stroke-linejoin:miter;stroke-opacity:1;filter:url(#filter3738)"
       transform="matrix(0,1,1,0,60.363582,-60.363586)" /><path
       style="opacity:1;fill:url(#radialGradient3524);fill-opacity:1;stroke:none;stroke-width:4;stroke-linecap:round;stroke-linejoin:round;stroke-miterlimit:4;stroke-dasharray:none;stroke-dashoffset:1.08779998;stroke-opacity:1"
       d="M 64.09375,7.90625 C 33.132052,7.9062499 8.0937499,32.944549 8.09375,63.90625 C 8.0937501,94.867948 33.132054,119.90625 64.09375,119.90625 C 91.026646,119.90625 113.21548,101.0995 118.625,75.90625 L 91.5,72.03125 C 88.061436,83.928551 77.059621,92.5 64.09375,92.5 C 48.356404,92.499999 35.5,79.643599 35.5,63.90625 C 35.500001,48.168899 48.356402,35.3125 64.09375,35.3125 C 71.966166,35.312499 79.145304,38.520304 84.3125,43.6875 C 85.071964,44.438909 85.499997,45.462886 85.5,46.53125 C 85.5,47.599614 85.071964,48.623591 84.3125,49.375 L 73.6875,60 L 117.625,60 C 119.63039,60 120.09375,59.407836 120.09375,57.75 L 120,13.65625 L 109.375,24.3125 C 108.62359,25.071964 107.59961,25.5 106.53125,25.5 C 105.46289,25.5 104.43891,25.071964 103.6875,24.3125 C 93.549835,14.174833 79.577106,7.90625 64.09375,7.90625 z "
       id="path3494" /><path
       id="path3526"
       d="M 64.09375,7.90625 C 33.132052,7.9062499 8.0937499,32.944549 8.09375,63.90625 C 8.0937501,94.867948 33.132054,119.90625 64.09375,119.90625 C 91.026646,119.90625 113.21548,101.0995 118.625,75.90625 L 91.5,72.03125 C 88.061436,83.928551 77.059621,92.5 64.09375,92.5 C 48.356404,92.499999 35.5,79.643599 35.5,63.90625 C 35.500001,48.168899 48.356402,35.3125 64.09375,35.3125 C 71.966166,35.312499 79.145304,38.520304 84.3125,43.6875 C 85.071964,44.438909 85.499997,45.462886 85.5,46.53125 C 85.5,47.599614 85.071964,48.623591 84.3125,49.375 L 73.6875,60 L 117.625,60 C 119.63039,60 120.09375,59.407836 120.09375,57.75 L 120,13.65625 L 109.375,24.3125 C 108.62359,25.071964 107.59961,25.5 106.53125,25.5 C 105.46289,25.5 104.43891,25.071964 103.6875,24.3125 C 93.549835,14.174833 79.577106,7.90625 64.09375,7.90625 z "
       style="opacity:1;fill:url(#radialGradient3535);fill-opacity:1;stroke:none;stroke-width:4;stroke-linecap:round;stroke-linejoin:round;stroke-miterlimit:4;stroke-dasharray:none;stroke-dashoffset:1.08779998;stroke-opacity:1" /><path
       style="opacity:1;fill:url(#linearGradient3548);fill-opacity:1;stroke:none;stroke-width:8;stroke-linecap:round;stroke-linejoin:round;stroke-miterlimit:4;stroke-dasharray:none;stroke-dashoffset:1.08779998;stroke-opacity:1"
       d="M 64.09375,7.90625 C 33.132052,7.9062499 8.0937499,32.944549 8.09375,63.90625 C 8.09375,64.474122 8.1082724,65.029981 8.125,65.59375 C 14.11447,66.271402 20.266218,66.74388 26.53125,67 C 26.260548,56.540958 30.202859,46.025084 38.34375,38.21875 C 53.683067,23.509813 78.072313,24.004431 92.78125,39.34375 C 95.545099,42.226046 97.537852,45.032117 99.34375,48.59375 L 78.84375,59 L 98,59 C 105.9282,56.973373 113.18621,55.563033 120.09375,52.8125 L 120,13.65625 L 109.375,24.3125 C 108.62359,25.071964 107.59961,25.5 106.53125,25.5 C 105.46289,25.5 104.43891,25.071964 103.6875,24.3125 C 93.549835,14.174833 79.577106,7.90625 64.09375,7.90625 z "
       id="path3537"
       sodipodi:nodetypes="csccssccccccscc" /><path
       style="opacity:1;fill:url(#linearGradient3581);fill-opacity:1;stroke:none;stroke-width:8;stroke-linecap:round;stroke-linejoin:round;stroke-miterlimit:4;stroke-dasharray:none;stroke-dashoffset:1.08779998;stroke-opacity:1"
       d="M 64.099866,7.9087646 C 33.138176,7.9087644 8.0998661,32.947063 8.0998661,63.908764 C 8.0998761,64.087476 8.0973761,64.263059 8.0998661,64.440014 C 8.3531061,33.696509 33.295846,8.9087645 64.099866,8.9087646 C 79.583236,8.9087645 93.555946,15.177347 103.69361,25.315014 C 104.44503,26.074479 105.469,26.502514 106.53736,26.502514 C 107.60573,26.502515 108.6297,26.074478 109.38111,25.315014 L 119.50611,15.158764 L 119.99986,52.708764 C 113.09232,55.459294 105.43431,56.569624 97.506116,58.596264 L 78.849866,59.002514 L 98.006116,59.002514 C 105.93431,56.975884 113.19232,55.565544 120.09986,52.815014 L 120.00611,14.658764 L 120.00611,13.658764 L 119.50611,14.158764 L 109.38111,24.315014 C 108.62971,25.074479 107.60572,25.502514 106.53736,25.502514 C 105.46901,25.502515 104.44502,25.074478 103.69361,24.315014 C 103.68314,24.304548 103.67283,24.294222 103.66236,24.283764 C 103.60999,24.231473 103.55869,24.179598 103.50611,24.127514 C 102.93231,23.559643 102.35524,23.012364 101.75611,22.471264 C 101.67459,22.397145 101.58807,22.326157 101.50611,22.252514 C 91.590066,13.342335 78.496526,7.9087646 64.099866,7.9087646 z M 63.443616,27.127514 C 54.205446,27.378034 45.040176,30.920194 37.849866,37.815014 C 30.217786,45.133448 26.722316,55.187931 26.537366,65.033764 C 26.777246,55.231884 30.717786,45.539698 38.349866,38.221264 C 51.665996,25.452364 71.803196,24.123207 86.506116,34.033764 C 79.627056,29.22869 71.518656,26.908534 63.443616,27.127514 z "
       id="path3553"
       sodipodi:nodetypes="cscscscccccccccccssssssccscscc" /><path
       style="opacity:1;fill:none;fill-opacity:1;stroke:url(#linearGradient3567);stroke-width:1.06714475;stroke-linecap:round;stroke-linejoin:round;stroke-miterlimit:4;stroke-dasharray:none;stroke-dashoffset:1.08779998;stroke-opacity:1;filter:url(#filter3639)"
       d="M 63.59375,7.90625 C 32.63205,7.9062499 7.59375,32.944549 7.59375,63.90625 C 7.59375,94.867948 32.63205,119.90625 63.59375,119.90625 C 90.52665,119.90625 112.71548,101.0995 118.125,75.90625 L 91,72.03125 C 87.56144,83.928551 76.55962,92.5 63.59375,92.5 C 47.8564,92.499999 35,79.643599 35,63.90625 C 35,48.168899 47.8564,35.3125 63.59375,35.3125 C 71.46617,35.312499 78.6453,38.520304 83.8125,43.6875 C 84.57196,44.438909 85,45.462886 85,46.53125 C 85,47.599614 84.57196,48.623591 83.8125,49.375 L 73.1875,60 L 117.125,60 C 119.13039,60 119.59375,59.407836 119.59375,57.75 L 119.5,13.65625 L 108.875,24.3125 C 108.12359,25.071964 107.09961,25.5 106.03125,25.5 C 104.96289,25.5 103.93891,25.071964 103.1875,24.3125 C 93.04984,14.174833 79.07711,7.90625 63.59375,7.90625 z "
       id="path3603" /></g></g><g
   id="g1973"
   transform="translate(2.4e-6,0)"><path
     style="opacity:0.1;fill:url(#linearGradient2291)"
     id="path66"
     d="M 111.414,86.586 C 111.664,86.336 93.035,93 88,93 C 86.346,93 85,94.346 85,96 C 85,101.035 78.336,119.664 78.586,119.414 L 111.414,86.586 z " /><path
     style="opacity:0.1;fill:url(#linearGradient2293)"
     id="path73"
     d="M 111.414,86.586 C 111.789,86.211 97.444,94 88,94 C 86.897,94 86,94.897 86,96 C 86,105.444 78.211,119.789 78.586,119.414 L 111.414,86.586 z " /><path
     style="opacity:0.1;fill:url(#linearGradient2295)"
     id="path80"
     d="M 111.414,86.586 C 111.653,86.347 97.807,95 88,95 C 87.447,95 87,95.447 87,96 C 87,105.807 78.347,119.653 78.586,119.414 L 111.414,86.586 z " /><path
     style="fill:url(#linearGradient2297)"
     id="path101"
     d="M 78.586,119.414 C 78.586,119.414 90.5,109.5 96,104 C 101.5,98.5 111.414,86.586 111.414,86.586 C 111.414,86.586 98.25,96 88,96 C 88,106.25 78.586,119.414 78.586,119.414 z " /></g></svg>