<?xml version="1.0" encoding="UTF-8" standalone="no"?>
<!-- Created with Inkscape (http://www.inkscape.org/) -->
<svg
   xmlns:dc="http://purl.org/dc/elements/1.1/"
   xmlns:cc="http://creativecommons.org/ns#"
   xmlns:rdf="http://www.w3.org/1999/02/22-rdf-syntax-ns#"
   xmlns:svg="http://www.w3.org/2000/svg"
   xmlns="http://www.w3.org/2000/svg"
   xmlns:xlink="http://www.w3.org/1999/xlink"
   xmlns:sodipodi="http://sodipodi.sourceforge.net/DTD/sodipodi-0.dtd"
   xmlns:inkscape="http://www.inkscape.org/namespaces/inkscape"
   version="1.0"
   width="128"
   height="128"
   id="svg2606"
   sodipodi:version="0.32"
   inkscape:version="0.46"
   sodipodi:docname="go-first-view.svgz"
   inkscape:output_extension="org.inkscape.output.svgz.inkscape"
   inkscape:export-filename="/home/pinheiro/pics/oxygen/scalable/actions/go-first-view.png"
   inkscape:export-xdpi="90"
   inkscape:export-ydpi="90">
  <metadata
     id="metadata47">
    <rdf:RDF>
      <cc:Work
         rdf:about="">
        <dc:format>image/svg+xml</dc:format>
        <dc:type
           rdf:resource="http://purl.org/dc/dcmitype/StillImage" />
      </cc:Work>
    </rdf:RDF>
  </metadata>
  <sodipodi:namedview
     inkscape:window-height="678"
     inkscape:window-width="1187"
     inkscape:pageshadow="2"
     inkscape:pageopacity="0.0"
     guidetolerance="10.0"
     gridtolerance="10.0"
     objecttolerance="10.0"
     borderopacity="1.0"
     bordercolor="#666666"
     pagecolor="#ffffff"
     id="base"
     showgrid="true"
     inkscape:zoom="3.609375"
     inkscape:cx="-41.052002"
     inkscape:cy="68.074803"
     inkscape:window-x="0"
     inkscape:window-y="0"
     inkscape:current-layer="svg2606">
    <inkscape:grid
       type="xygrid"
       id="grid2422"
       visible="true"
       enabled="true"
       spacingx="4px"
       spacingy="4px"
       empspacing="2" />
  </sodipodi:namedview>
  <defs
     id="defs2608">
    <inkscape:perspective
       sodipodi:type="inkscape:persp3d"
       inkscape:vp_x="0 : 64 : 1"
       inkscape:vp_y="0 : 1000 : 0"
       inkscape:vp_z="128 : 64 : 1"
       inkscape:persp3d-origin="64 : 42.666667 : 1"
       id="perspective49" />
    <linearGradient
       id="linearGradient3449">
      <stop
         id="stop3451"
         style="stop-color:#000000;stop-opacity:1"
         offset="0" />
      <stop
         id="stop3453"
         style="stop-color:#000000;stop-opacity:0"
         offset="1" />
    </linearGradient>
    <linearGradient
       id="linearGradient3295">
      <stop
         id="stop3297"
         style="stop-color:#63e9ff;stop-opacity:1"
         offset="0" />
      <stop
         id="stop3299"
         style="stop-color:#ffffff;stop-opacity:0"
         offset="1" />
    </linearGradient>
    <linearGradient
       id="linearGradient3260">
      <stop
         id="stop3262"
         style="stop-color:#ffffff;stop-opacity:1"
         offset="0" />
      <stop
         id="stop3264"
         style="stop-color:#ffffff;stop-opacity:0"
         offset="1" />
    </linearGradient>
    <linearGradient
       id="linearGradient3202">
      <stop
         id="stop3204"
         style="stop-color:#cdeeff;stop-opacity:1"
         offset="0" />
      <stop
         id="stop3206"
         style="stop-color:#d2e8ed;stop-opacity:0"
         offset="1" />
    </linearGradient>
    <filter
       x="-0.10207015"
       width="1.2041403"
       y="-0.12495601"
       height="1.249912"
       id="filter3387">
      <feGaussianBlur
         inkscape:collect="always"
         stdDeviation="0.44655691"
         id="feGaussianBlur3389" />
    </filter>
    <linearGradient
       id="linearGradient6404">
      <stop
         id="stop6406"
         style="stop-color:#081e3e;stop-opacity:1"
         offset="0" />
      <stop
         id="stop6408"
         style="stop-color:#387de4;stop-opacity:1"
         offset="1" />
    </linearGradient>
    <linearGradient
       id="linearGradient6666">
      <stop
         id="stop6668"
         style="stop-color:#9fc1f2;stop-opacity:1"
         offset="0" />
      <stop
         id="stop3183"
         style="stop-color:#587eb5;stop-opacity:1"
         offset="0.5" />
      <stop
         id="stop6670"
         style="stop-color:#0c2a58;stop-opacity:1"
         offset="1" />
    </linearGradient>
    <filter
       id="filter3187">
      <feGaussianBlur
         inkscape:collect="always"
         stdDeviation="0.56525828"
         id="feGaussianBlur3189" />
    </filter>
    <linearGradient
       x1="73.742638"
       y1="15.336544"
       x2="78.939339"
       y2="16.750759"
       id="linearGradient5430"
       xlink:href="#linearGradient3260"
       gradientUnits="userSpaceOnUse"
       spreadMethod="reflect" />
    <linearGradient
       x1="74.75"
       y1="14.275884"
       x2="78.939339"
       y2="16.750759"
       id="linearGradient5432"
       xlink:href="#linearGradient3295"
       gradientUnits="userSpaceOnUse"
       spreadMethod="reflect" />
    <linearGradient
       x1="179.17224"
       y1="123.75864"
       x2="173.98071"
       y2="65.448112"
       id="linearGradient5436"
       xlink:href="#linearGradient3295"
       gradientUnits="userSpaceOnUse"
       gradientTransform="translate(97,0)" />
    <linearGradient
       x1="196.46846"
       y1="63.138515"
       x2="52.218468"
       y2="66.224457"
       id="linearGradient2953"
       xlink:href="#linearGradient3260"
       gradientUnits="userSpaceOnUse"
       gradientTransform="translate(-32.212526,-0.1385179)" />
    <linearGradient
       x1="87.468468"
       y1="-0.36148256"
       x2="116.71847"
       y2="106.42756"
       id="linearGradient2956"
       xlink:href="#linearGradient3260"
       gradientUnits="userSpaceOnUse"
       gradientTransform="translate(-32.212526,-0.1385179)" />
    <linearGradient
       x1="47.968472"
       y1="16.138517"
       x2="49.218472"
       y2="85.427559"
       id="linearGradient2959"
       xlink:href="#linearGradient3202"
       gradientUnits="userSpaceOnUse"
       gradientTransform="translate(-32.5,0)" />
    <radialGradient
       cx="172"
       cy="76"
       r="56"
       fx="188.88173"
       fy="121.44213"
       id="radialGradient2963"
       xlink:href="#linearGradient6666"
       gradientUnits="userSpaceOnUse"
       gradientTransform="matrix(-1,0,0,0.9801409,204,-10.49071)" />
    <radialGradient
       cx="-16.668488"
       cy="86.826965"
       r="60"
       fx="-16.668488"
       fy="86.826965"
       id="radialGradient2968"
       xlink:href="#linearGradient3449"
       gradientUnits="userSpaceOnUse"
       gradientTransform="matrix(-0.2586607,-0.5212474,-0.8274344,0.4106011,131.53945,50.055595)" />
    <linearGradient
       x1="194.5"
       y1="123.90683"
       x2="104.25"
       y2="5.1559582"
       id="linearGradient2971"
       xlink:href="#linearGradient6404"
       gradientUnits="userSpaceOnUse"
       gradientTransform="matrix(-1,0,0,0.8610463,204,-1.4361867)" />
    <linearGradient
       y2="176"
       x2="-236"
       y1="104"
       x1="-236"
       gradientTransform="translate(0,-86.232834)"
       gradientUnits="userSpaceOnUse"
       id="linearGradient3068"
       xlink:href="#linearGradient3021"
       inkscape:collect="always" />
    <radialGradient
       r="35.412899"
       fy="76.905693"
       fx="-9.1320477"
       cy="64"
       cx="-20"
       gradientTransform="translate(-129.05694,-2.5852934e-6)"
       gradientUnits="userSpaceOnUse"
       id="radialGradient3059"
       xlink:href="#linearGradient2990"
       inkscape:collect="always" />
    <clipPath
       id="clipPath3055"
       clipPathUnits="userSpaceOnUse">
      <path
         style="opacity:1;fill:url(#radialGradient3059);fill-opacity:1;stroke:none;stroke-width:0.13749999;stroke-linecap:round;stroke-linejoin:round;stroke-miterlimit:4;stroke-dasharray:none;stroke-dashoffset:4.15;stroke-opacity:1"
         d="M -121.2809,29.550642 C -122.56562,28.26592 -124.63657,28.26592 -125.92129,29.550642 L -149.05694,52.686292 L -172.19259,29.550642 C -173.47731,28.26592 -175.54826,28.26592 -176.83298,29.550642 L -183.5063,36.223962 C -184.79102,37.508683 -184.79102,39.579629 -183.5063,40.86435 L -160.37065,64 L -183.5063,87.13565 C -184.79102,88.420371 -184.79102,90.491317 -183.5063,91.776038 L -176.83298,98.449358 C -175.54826,99.73408 -173.47731,99.73408 -172.19259,98.449358 L -149.05694,75.313708 L -125.92129,98.449358 C -124.63657,99.73408 -122.56562,99.73408 -121.2809,98.449358 L -114.60758,91.776038 C -113.32286,90.491317 -113.32286,88.420371 -114.60758,87.13565 L -137.74323,64 L -114.60758,40.86435 C -113.32286,39.579629 -113.32286,37.508683 -114.60758,36.223962 L -121.2809,29.550642 z"
         id="path3057" />
    </clipPath>
    <radialGradient
       r="35.412899"
       fy="76.905693"
       fx="-9.1320477"
       cy="64"
       cx="-20"
       gradientTransform="translate(-221.43454,-2.5852934e-6)"
       gradientUnits="userSpaceOnUse"
       id="radialGradient3053"
       xlink:href="#linearGradient2990"
       inkscape:collect="always" />
    <clipPath
       id="clipPath3049"
       clipPathUnits="userSpaceOnUse">
      <path
         id="path3051"
         d="M -213.6585,29.550642 C -214.94322,28.26592 -217.01417,28.26592 -218.29889,29.550642 L -241.43454,52.686292 L -264.57019,29.550642 C -265.85491,28.26592 -267.92586,28.26592 -269.21058,29.550642 L -275.8839,36.223962 C -277.16862,37.508683 -277.16862,39.579629 -275.8839,40.86435 L -252.74825,64 L -275.8839,87.13565 C -277.16862,88.420371 -277.16862,90.491317 -275.8839,91.776038 L -269.21058,98.449358 C -267.92586,99.73408 -265.85491,99.73408 -264.57019,98.449358 L -241.43454,75.313708 L -218.29889,98.449358 C -217.01417,99.73408 -214.94322,99.73408 -213.6585,98.449358 L -206.98518,91.776038 C -205.70046,90.491317 -205.70046,88.420371 -206.98518,87.13565 L -230.12083,64 L -206.98518,40.86435 C -205.70046,39.579629 -205.70046,37.508683 -206.98518,36.223962 L -213.6585,29.550642 z"
         style="opacity:1;fill:url(#radialGradient3053);fill-opacity:1;stroke:none;stroke-width:0.13749999;stroke-linecap:round;stroke-linejoin:round;stroke-miterlimit:4;stroke-dasharray:none;stroke-dashoffset:4.15;stroke-opacity:1" />
    </clipPath>
    <filter
       id="filter3045"
       inkscape:collect="always">
      <feGaussianBlur
         id="feGaussianBlur3047"
         stdDeviation="0.46608189"
         inkscape:collect="always" />
    </filter>
    <filter
       id="filter3033"
       inkscape:collect="always">
      <feGaussianBlur
         id="feGaussianBlur3035"
         stdDeviation="0.33295155"
         inkscape:collect="always" />
    </filter>
    <linearGradient
       gradientTransform="translate(0,-86.232834)"
       gradientUnits="userSpaceOnUse"
       y2="176"
       x2="-236"
       y1="104"
       x1="-236"
       id="linearGradient3027"
       xlink:href="#linearGradient3021"
       inkscape:collect="always" />
    <radialGradient
       r="35.412899"
       fy="76.905693"
       fx="-9.1320477"
       cy="64"
       cx="-20"
       gradientTransform="translate(-129.05694,91.019102)"
       gradientUnits="userSpaceOnUse"
       id="radialGradient3018"
       xlink:href="#linearGradient2990"
       inkscape:collect="always" />
    <radialGradient
       r="35.412899"
       fy="76.905693"
       fx="-9.1320477"
       cy="64"
       cx="-20"
       gradientTransform="translate(-129.05694,88.019102)"
       gradientUnits="userSpaceOnUse"
       id="radialGradient3016"
       xlink:href="#linearGradient2990"
       inkscape:collect="always" />
    <radialGradient
       r="35.412899"
       fy="76.905693"
       fx="-9.1320477"
       cy="64"
       cx="-20"
       gradientTransform="translate(-221.43454,88.019102)"
       gradientUnits="userSpaceOnUse"
       id="radialGradient3009"
       xlink:href="#linearGradient2990"
       inkscape:collect="always" />
    <radialGradient
       r="35.412899"
       fy="76.905693"
       fx="-9.1320477"
       cy="64"
       cx="-20"
       gradientTransform="translate(-129.05694,94.019102)"
       gradientUnits="userSpaceOnUse"
       id="radialGradient3007"
       xlink:href="#linearGradient2990"
       inkscape:collect="always" />
    <radialGradient
       r="35.412899"
       fy="76.905693"
       fx="-9.1320477"
       cy="64"
       cx="-20"
       gradientTransform="translate(-221.43454,85.019102)"
       gradientUnits="userSpaceOnUse"
       id="radialGradient3001"
       xlink:href="#linearGradient2990"
       inkscape:collect="always" />
    <radialGradient
       r="35.412899"
       fy="76.905693"
       fx="-9.1320477"
       cy="64"
       cx="-20"
       gradientTransform="translate(-129.05694,91.019102)"
       gradientUnits="userSpaceOnUse"
       id="radialGradient2998"
       xlink:href="#linearGradient2990"
       inkscape:collect="always" />
    <radialGradient
       r="35.412899"
       fy="76.905693"
       fx="-9.1320477"
       cy="64"
       cx="-20"
       gradientTransform="translate(-221.43454,-2.5852934e-6)"
       gradientUnits="userSpaceOnUse"
       id="radialGradient2992"
       xlink:href="#linearGradient2990"
       inkscape:collect="always" />
    <radialGradient
       r="35.412899"
       fy="76.905693"
       fx="-9.1320477"
       cy="64"
       cx="-20"
       gradientTransform="translate(-129.05694,-2.5852934e-6)"
       gradientUnits="userSpaceOnUse"
       id="radialGradient2988"
       xlink:href="#linearGradient2990"
       inkscape:collect="always" />
    <radialGradient
       gradientUnits="userSpaceOnUse"
       gradientTransform="translate(-40.754823,-2.5852934e-6)"
       r="35.412899"
       fy="76.905693"
       fx="-9.1320477"
       cy="64"
       cx="-20"
       id="radialGradient2984"
       xlink:href="#linearGradient2990"
       inkscape:collect="always" />
    <radialGradient
       r="43.474762"
       fy="105.27442"
       fx="66.881805"
       cy="81.325775"
       cx="64"
       spreadMethod="reflect"
       gradientTransform="matrix(0.712348,-0.1260581,0.1345724,0.7604617,7.4655205,20.174132)"
       gradientUnits="userSpaceOnUse"
       id="radialGradient2394"
       xlink:href="#linearGradient2990"
       inkscape:collect="always" />
    <radialGradient
       r="43.474762"
       fy="105.27442"
       fx="66.881805"
       cy="81.325775"
       cx="64"
       spreadMethod="reflect"
       gradientTransform="matrix(0.712348,-0.1260581,0.1345724,0.7604617,-100.53448,20.174132)"
       gradientUnits="userSpaceOnUse"
       id="radialGradient3118"
       xlink:href="#linearGradient2990"
       inkscape:collect="always" />
    <clipPath
       id="clipPath3114"
       clipPathUnits="userSpaceOnUse">
      <path
         style="fill:url(#radialGradient3118);fill-opacity:1;stroke:none;stroke-width:16.49500084;stroke-linecap:round;stroke-linejoin:round;stroke-miterlimit:4;stroke-dasharray:none;stroke-dashoffset:4.15;stroke-opacity:1"
         d="M -69.09375,25.639042 C -71.238499,25.690988 -73.27862,26.576535 -74.78125,28.107792 C -91.705938,45.032475 -91.705939,72.745609 -74.78125,89.670296 C -57.856572,106.59499 -30.143439,106.59498 -13.21875,89.670296 C 3.70593,72.745608 3.70592,45.032476 -13.21875,28.107792 C -16.446164,24.889007 -21.656215,24.911628 -24.875,28.139042 C -28.093785,31.366456 -28.102414,36.576507 -24.875,39.795292 C -14.261134,50.409165 -14.261131,67.400168 -24.875,78.014046 C -35.488884,88.627926 -52.51113,88.627916 -63.125,78.014046 C -73.738879,67.400167 -73.738878,50.409167 -63.125,39.795292 C -60.691591,37.426791 -59.961952,33.799307 -61.28125,30.670292 C -62.600548,27.541276 -65.699137,25.550254 -69.09375,25.639042 z M -44.125,26.357792 C -48.254827,26.426713 -51.551787,29.821465 -51.5,33.951542 L -51.5,65.951542 C -51.538252,68.656311 -50.117481,71.181744 -47.78125,72.545292 C -45.44502,73.908838 -42.554982,73.90884 -40.21875,72.545292 C -37.882517,71.181742 -36.461748,68.656311 -36.5,65.951542 L -36.5,33.951542 C -36.474583,31.924427 -37.28231,29.975845 -38.71875,28.545292 C -40.155192,27.114738 -42.098006,26.324051 -44.125,26.357792 z"
         id="path3116" />
    </clipPath>
    <radialGradient
       r="43.474762"
       fy="105.27442"
       fx="66.881805"
       cy="81.325775"
       cx="64"
       spreadMethod="reflect"
       gradientTransform="matrix(0.712348,-0.1260581,0.1345724,0.7604617,-197.66681,20.174132)"
       gradientUnits="userSpaceOnUse"
       id="radialGradient3112"
       xlink:href="#linearGradient2990"
       inkscape:collect="always" />
    <clipPath
       id="clipPath3108"
       clipPathUnits="userSpaceOnUse">
      <path
         id="path3110"
         d="M -166.22608,25.639042 C -168.37082,25.690988 -170.41095,26.576535 -171.91358,28.107792 C -188.83826,45.032475 -188.83826,72.745609 -171.91358,89.670296 C -154.9889,106.59499 -127.27576,106.59498 -110.35108,89.670296 C -93.426397,72.745608 -93.426407,45.032476 -110.35108,28.107792 C -113.57849,24.889007 -118.78854,24.911628 -122.00733,28.139042 C -125.22611,31.366456 -125.23474,36.576507 -122.00733,39.795292 C -111.39346,50.409165 -111.39346,67.400168 -122.00733,78.014046 C -132.62121,88.627926 -149.64346,88.627916 -160.25733,78.014046 C -170.8712,67.400167 -170.8712,50.409167 -160.25733,39.795292 C -157.82392,37.426791 -157.09428,33.799307 -158.41358,30.670292 C -159.73287,27.541276 -162.83146,25.550254 -166.22608,25.639042 z M -141.25733,26.357792 C -145.38715,26.426713 -148.68411,29.821465 -148.63233,33.951542 L -148.63233,65.951542 C -148.67058,68.656311 -147.24981,71.181744 -144.91358,72.545292 C -142.57735,73.908838 -139.68731,73.90884 -137.35108,72.545292 C -135.01484,71.181742 -133.59407,68.656311 -133.63233,65.951542 L -133.63233,33.951542 C -133.60691,31.924427 -134.41464,29.975845 -135.85108,28.545292 C -137.28752,27.114738 -139.23033,26.324051 -141.25733,26.357792 z"
         style="fill:url(#radialGradient3112);fill-opacity:1;stroke:none;stroke-width:16.49500084;stroke-linecap:round;stroke-linejoin:round;stroke-miterlimit:4;stroke-dasharray:none;stroke-dashoffset:4.15;stroke-opacity:1" />
    </clipPath>
    <radialGradient
       r="43.474762"
       fy="105.27442"
       fx="66.881805"
       cy="81.325775"
       cx="64"
       spreadMethod="reflect"
       gradientTransform="matrix(0.712348,-0.1260581,0.1345724,0.7604617,-100.53448,20.174132)"
       gradientUnits="userSpaceOnUse"
       id="radialGradient3000"
       xlink:href="#linearGradient2990"
       inkscape:collect="always" />
    <filter
       id="filter3281"
       inkscape:collect="always">
      <feGaussianBlur
         id="feGaussianBlur3283"
         stdDeviation="0.32872878"
         inkscape:collect="always" />
    </filter>
    <linearGradient
       y2="21.03125"
       x2="31.376678"
       y1="60.664852"
       x1="92.848534"
       gradientTransform="translate(0.2332229,1.9150941)"
       gradientUnits="userSpaceOnUse"
       id="linearGradient3225"
       xlink:href="#linearGradient6446"
       inkscape:collect="always" />
    <linearGradient
       y2="46.228859"
       x2="59.225807"
       y1="7.8973217"
       x1="59.225807"
       gradientTransform="translate(0.2623629,1)"
       gradientUnits="userSpaceOnUse"
       id="linearGradient3209"
       xlink:href="#linearGradient6446"
       inkscape:collect="always" />
    <linearGradient
       y2="117.32368"
       x2="59.225807"
       y1="20.283871"
       x1="59.225807"
       gradientUnits="userSpaceOnUse"
       id="linearGradient6657"
       xlink:href="#linearGradient6610"
       inkscape:collect="always" />
    <linearGradient
       gradientTransform="translate(0,1.6516129)"
       y2="117.32368"
       x2="59.225807"
       y1="20.283871"
       x1="59.225807"
       gradientUnits="userSpaceOnUse"
       id="linearGradient6655"
       xlink:href="#linearGradient6610"
       inkscape:collect="always" />
    <filter
       id="filter6458"
       inkscape:collect="always">
      <feGaussianBlur
         id="feGaussianBlur6460"
         stdDeviation="0.28444187"
         inkscape:collect="always" />
    </filter>
    <radialGradient
       gradientTransform="matrix(1.7951011,0,0,1.7951011,-9.5736166,-93.937523)"
       spreadMethod="reflect"
       gradientUnits="userSpaceOnUse"
       r="42.559486"
       fy="118.14538"
       fx="12.040753"
       cy="118.14538"
       cx="12.040753"
       id="radialGradient9651"
       xlink:href="#linearGradient9643"
       inkscape:collect="always" />
    <linearGradient
       id="linearGradient9643">
      <stop
         id="stop9645"
         offset="0"
         style="stop-color:#ff0000;stop-opacity:1;" />
      <stop
         id="stop9647"
         offset="1"
         style="stop-color:#620000;stop-opacity:1;" />
    </linearGradient>
    <linearGradient
       id="linearGradient2578">
      <stop
         id="stop2580"
         offset="0"
         style="stop-color:#770000;stop-opacity:1;" />
      <stop
         id="stop2582"
         offset="1"
         style="stop-color:#c10000;stop-opacity:1;" />
    </linearGradient>
    <linearGradient
       id="linearGradient6446">
      <stop
         id="stop6448"
         offset="0"
         style="stop-color:#ffffff;stop-opacity:1;" />
      <stop
         id="stop6450"
         offset="1"
         style="stop-color:#ffffff;stop-opacity:0;" />
    </linearGradient>
    <linearGradient
       id="linearGradient6610"
       inkscape:collect="always">
      <stop
         id="stop6612"
         offset="0"
         style="stop-color:#ffbf80;stop-opacity:1;" />
      <stop
         id="stop6614"
         offset="1"
         style="stop-color:#ffbf80;stop-opacity:0;" />
    </linearGradient>
    <linearGradient
       id="linearGradient6631">
      <stop
         id="stop6633"
         offset="0"
         style="stop-color:#703700;stop-opacity:1;" />
      <stop
         id="stop6635"
         offset="1"
         style="stop-color:#bf5e00;stop-opacity:0;" />
    </linearGradient>
    <linearGradient
       id="linearGradient6643">
      <stop
         id="stop6645"
         offset="0"
         style="stop-color:#ff6565;stop-opacity:1;" />
      <stop
         id="stop6647"
         offset="1"
         style="stop-color:#ffdfbf;stop-opacity:0;" />
    </linearGradient>
    <linearGradient
       id="linearGradient2560">
      <stop
         style="stop-color:#ff5900;stop-opacity:1;"
         offset="0"
         id="stop2562" />
      <stop
         style="stop-color:#8d0000;stop-opacity:1;"
         offset="1"
         id="stop2564" />
    </linearGradient>
    <linearGradient
       id="linearGradient6674">
      <stop
         id="stop6676"
         offset="0"
         style="stop-color:#bf0000;stop-opacity:1;" />
      <stop
         id="stop6678"
         offset="1"
         style="stop-color:#ff1111;stop-opacity:0;" />
    </linearGradient>
    <linearGradient
       id="linearGradient3237">
      <stop
         id="stop3239"
         offset="0"
         style="stop-color:#ffeb8b;stop-opacity:1;" />
      <stop
         id="stop3241"
         offset="1"
         style="stop-color:#ffffff;stop-opacity:0;" />
    </linearGradient>
    <linearGradient
       id="linearGradient2990">
      <stop
         id="stop2992"
         offset="0"
         style="stop-color:#cccccc;stop-opacity:1;" />
      <stop
         id="stop2994"
         offset="1"
         style="stop-color:#f1f1f1;stop-opacity:1;" />
    </linearGradient>
    <linearGradient
       id="linearGradient3021">
      <stop
         id="stop3023"
         offset="0"
         style="stop-color:#000000;stop-opacity:1;" />
      <stop
         style="stop-color:#000000;stop-opacity:0.15636364;"
         offset="0.5"
         id="stop3029" />
      <stop
         id="stop3031"
         offset="0.62264121"
         style="stop-color:#000000;stop-opacity:0.68727273;" />
      <stop
         id="stop3025"
         offset="1"
         style="stop-color:#000000;stop-opacity:0.36363637;" />
    </linearGradient>
    <inkscape:perspective
       id="perspective2543"
       inkscape:persp3d-origin="64 : 42.666667 : 1"
       inkscape:vp_z="128 : 64 : 1"
       inkscape:vp_y="0 : 1000 : 0"
       inkscape:vp_x="0 : 64 : 1"
       sodipodi:type="inkscape:persp3d" />
    <linearGradient
       inkscape:collect="always"
       xlink:href="#linearGradient6446"
       id="linearGradient2671"
       gradientUnits="userSpaceOnUse"
       x1="59.225807"
       y1="-31.712746"
       x2="59.225807"
       y2="98.167175"
       gradientTransform="translate(-48,2.15e-2)" />
    <linearGradient
       inkscape:collect="always"
       xlink:href="#linearGradient6446"
       id="linearGradient2687"
       gradientUnits="userSpaceOnUse"
       gradientTransform="translate(83.4129,0.640855)"
       spreadMethod="reflect"
       x1="21.094994"
       y1="21.101994"
       x2="15.189133"
       y2="27.007854" />
    <radialGradient
       inkscape:collect="always"
       xlink:href="#linearGradient6666"
       id="radialGradient2690"
       gradientUnits="userSpaceOnUse"
       gradientTransform="matrix(-0.5639341,0,0,1.1890799,40.08018,-31.354229)"
       spreadMethod="pad"
       cx="42.700352"
       cy="103.5803"
       fx="42.700352"
       fy="103.5803"
       r="42.559486" />
    <linearGradient
       inkscape:collect="always"
       xlink:href="#linearGradient6404"
       id="linearGradient2696"
       gradientUnits="userSpaceOnUse"
       x1="39.741936"
       y1="113.54839"
       x2="11.458064"
       y2="13.006452"
       gradientTransform="translate(-48,2.15e-2)" />
    <linearGradient
       inkscape:collect="always"
       xlink:href="#linearGradient3295"
       id="linearGradient2703"
       gradientUnits="userSpaceOnUse"
       x1="-60.945251"
       y1="105.83054"
       x2="-59.415245"
       y2="45.631207" />
    <linearGradient
       inkscape:collect="always"
       xlink:href="#linearGradient6446"
       id="linearGradient2705"
       gradientUnits="userSpaceOnUse"
       gradientTransform="translate(0.2623629,1)"
       x1="59.225807"
       y1="7.8973217"
       x2="59.225807"
       y2="46.228859" />
    <linearGradient
       inkscape:collect="always"
       xlink:href="#linearGradient6446"
       id="linearGradient2707"
       gradientUnits="userSpaceOnUse"
       gradientTransform="translate(0.2332229,1.9150941)"
       x1="115.76678"
       y1="71.084908"
       x2="31.376678"
       y2="21.03125" />
    <linearGradient
       inkscape:collect="always"
       xlink:href="#linearGradient6446"
       id="linearGradient2709"
       gradientUnits="userSpaceOnUse"
       gradientTransform="translate(0.4129032,0.6193548)"
       spreadMethod="reflect"
       x1="21.094994"
       y1="21.101994"
       x2="13.96104"
       y2="28.235947" />
    <linearGradient
       inkscape:collect="always"
       xlink:href="#linearGradient6446"
       id="linearGradient2711"
       gradientUnits="userSpaceOnUse"
       gradientTransform="translate(0.4129032,0.6193548)"
       spreadMethod="reflect"
       x1="21.094994"
       y1="21.101994"
       x2="13.96104"
       y2="28.235947" />
    <linearGradient
       inkscape:collect="always"
       xlink:href="#linearGradient6446"
       id="linearGradient2713"
       gradientUnits="userSpaceOnUse"
       gradientTransform="translate(0.4129032,0.6193548)"
       spreadMethod="reflect"
       x1="59.016697"
       y1="15.604031"
       x2="63.454506"
       y2="11.359145" />
    <linearGradient
       gradientTransform="matrix(1,0,0,0.8610463,-88,-1.4361867)"
       gradientUnits="userSpaceOnUse"
       xlink:href="#linearGradient6404"
       id="linearGradient4324"
       y2="5.1559582"
       x2="104.25"
       y1="123.90683"
       x1="194.5" />
    <radialGradient
       gradientTransform="matrix(0.2586607,-0.5212474,0.8274344,0.4106011,-15.53945,50.055595)"
       gradientUnits="userSpaceOnUse"
       xlink:href="#linearGradient3449"
       id="radialGradient4321"
       fy="86.826965"
       fx="-16.668488"
       r="60"
       cy="86.826965"
       cx="-16.668488" />
    <linearGradient
       spreadMethod="reflect"
       gradientTransform="translate(24,0)"
       gradientUnits="userSpaceOnUse"
       xlink:href="#linearGradient3260"
       id="linearGradient4318"
       y2="16.750759"
       x2="78.939339"
       y1="15.336544"
       x1="73.742638" />
    <radialGradient
       gradientTransform="matrix(1,0,0,0.9801409,-88,-10.49071)"
       gradientUnits="userSpaceOnUse"
       xlink:href="#linearGradient6666"
       id="radialGradient4314"
       fy="95.705101"
       fx="180.33144"
       r="56"
       cy="95.705101"
       cx="180.33144" />
    <linearGradient
       gradientTransform="translate(20,0)"
       gradientUnits="userSpaceOnUse"
       xlink:href="#linearGradient3202"
       id="linearGradient4310"
       y2="85.671814"
       x2="88.73349"
       y1="16.154284"
       x1="86.54718" />
    <linearGradient
       gradientTransform="translate(21.826617,3.3486328)"
       gradientUnits="userSpaceOnUse"
       xlink:href="#linearGradient3260"
       id="linearGradient4307"
       y2="61.186066"
       x2="82.259415"
       y1="16.154284"
       x1="86.54718" />
    <linearGradient
       gradientTransform="translate(-90.95955,-70.953293)"
       gradientUnits="userSpaceOnUse"
       xlink:href="#linearGradient3260"
       id="linearGradient4304"
       y2="87.140793"
       x2="194.50755"
       y1="154.86557"
       x1="238.95955" />
    <linearGradient
       gradientTransform="translate(97,0)"
       gradientUnits="userSpaceOnUse"
       xlink:href="#linearGradient3295"
       id="linearGradient3326"
       y2="65.448112"
       x2="173.98071"
       y1="123.75864"
       x1="179.17224" />
    <linearGradient
       spreadMethod="reflect"
       gradientUnits="userSpaceOnUse"
       xlink:href="#linearGradient3295"
       id="linearGradient3322"
       y2="16.750759"
       x2="78.939339"
       y1="14.275884"
       x1="74.75" />
    <filter
       id="filter3598">
      <feGaussianBlur
         id="feGaussianBlur3600"
         stdDeviation="0.56525828"
         inkscape:collect="always" />
    </filter>
    <linearGradient
       id="linearGradient3590">
      <stop
         offset="0"
         style="stop-color:#9fc1f2;stop-opacity:1"
         id="stop3592" />
      <stop
         offset="0.5"
         style="stop-color:#587eb5;stop-opacity:1"
         id="stop3594" />
      <stop
         offset="1"
         style="stop-color:#0c2a58;stop-opacity:1"
         id="stop3596" />
    </linearGradient>
    <linearGradient
       id="linearGradient3584">
      <stop
         offset="0"
         style="stop-color:#081e3e;stop-opacity:1"
         id="stop3586" />
      <stop
         offset="1"
         style="stop-color:#387de4;stop-opacity:1"
         id="stop3588" />
    </linearGradient>
    <filter
       id="filter3580"
       height="1.249912"
       y="-0.12495601"
       width="1.2041403"
       x="-0.10207015">
      <feGaussianBlur
         id="feGaussianBlur3582"
         stdDeviation="0.44655691"
         inkscape:collect="always" />
    </filter>
    <linearGradient
       id="linearGradient3574">
      <stop
         offset="0"
         style="stop-color:#cdeeff;stop-opacity:1"
         id="stop3576" />
      <stop
         offset="1"
         style="stop-color:#d2e8ed;stop-opacity:0"
         id="stop3578" />
    </linearGradient>
    <linearGradient
       id="linearGradient3568">
      <stop
         offset="0"
         style="stop-color:#ffffff;stop-opacity:1"
         id="stop3570" />
      <stop
         offset="1"
         style="stop-color:#ffffff;stop-opacity:0"
         id="stop3572" />
    </linearGradient>
    <linearGradient
       id="linearGradient3562">
      <stop
         offset="0"
         style="stop-color:#63e9ff;stop-opacity:1"
         id="stop3564" />
      <stop
         offset="1"
         style="stop-color:#ffffff;stop-opacity:0"
         id="stop3566" />
    </linearGradient>
    <linearGradient
       id="linearGradient3556">
      <stop
         offset="0"
         style="stop-color:#000000;stop-opacity:1"
         id="stop3558" />
      <stop
         offset="1"
         style="stop-color:#000000;stop-opacity:0"
         id="stop3560" />
    </linearGradient>
    <inkscape:perspective
       id="perspective3553"
       inkscape:persp3d-origin="64 : 42.666667 : 1"
       inkscape:vp_z="128 : 64 : 1"
       inkscape:vp_y="0 : 1000 : 0"
       inkscape:vp_x="0 : 64 : 1"
       sodipodi:type="inkscape:persp3d" />
  </defs>
  <path
     style="fill:url(#linearGradient2696);fill-opacity:1;stroke:none;stroke-width:3;stroke-linecap:round;stroke-linejoin:round;stroke-miterlimit:4;stroke-opacity:1"
     d="M 14.0836,16.0215 L 17.9164,16.0215 C 23.50271,16.0215 28,20.518786 28,26.105101 L 28,101.93791 C 28,107.52421 23.50271,112.0215 17.9164,112.0215 L 14.0836,112.0215 C 8.49729,112.0215 4,107.52421 4,101.93791 L 4,26.105101 C 4,20.518786 8.49729,16.0215 14.0836,16.0215 z"
     id="rect8666"
     sodipodi:nodetypes="ccccccccc" />
  <path
     style="fill:url(#radialGradient2690);fill-opacity:1;stroke:none;stroke-width:3;stroke-linecap:round;stroke-linejoin:round;stroke-miterlimit:4;stroke-opacity:1"
     d="M 17.16915,20.998569 L 15.00143,20.998569 C 11.12264,20.998569 8,24.121207 8,28 L 8,100.00001 C 8,103.87879 11.07198,108.00001 14.95077,108.00001 L 16,108.00001 L 17.11849,108.00001 C 20.99728,108.00001 24,103.87879 24,100.00001 L 24.17058,28 C 24.17058,24.121207 21.04794,20.998569 17.16915,20.998569 z"
     id="rect9641"
     sodipodi:nodetypes="cccccccccc" />
  <path
     style="opacity:0.8876405;fill:url(#linearGradient2687);fill-opacity:1;stroke:none;stroke-width:3;stroke-linecap:round;stroke-linejoin:round;stroke-miterlimit:4;stroke-dasharray:none;stroke-opacity:1;filter:url(#filter6458)"
     d="M 108.90694,16.320878 C 104.21677,16.320878 99.50943,19.888879 99.50943,25.719618 L 103.77674,25.660705 C 104.22911,23.53087 106.6287,21.389743 108.30335,21.05732 L 108.90694,16.320878 z"
     id="rect6433"
     sodipodi:nodetypes="ccccc"
     transform="matrix(0.8069829,0,0,0.8069829,-74.88604,4.057267)" />
  <path
     sodipodi:nodetypes="ccccc"
     id="path6462"
     d="M 68.397509,16.46919 C 63.707334,16.46919 59.429601,20.123899 59.429601,25.954638 L 63.77674,25.639205 C 64.229113,23.50937 66.628704,21.368243 68.303345,21.03582 L 68.397509,16.46919 z"
     style="opacity:0.8689139;fill:url(#linearGradient2713);fill-opacity:1;stroke:none;stroke-width:3;stroke-linecap:round;stroke-linejoin:round;stroke-miterlimit:4;stroke-dasharray:none;stroke-opacity:1;filter:url(#filter6458)"
     transform="matrix(-0.8685615,0,0,0.8685615,78.87734,3.4329392)" />
  <path
     sodipodi:nodetypes="ccccc"
     id="path6466"
     d="M 26.246568,16.978625 C 21.556393,16.978625 16.769225,20.633334 16.769225,26.464073 L 20.77674,25.639205 C 21.229113,23.50937 23.628704,21.368243 25.303345,21.03582 L 26.246568,16.978625 z"
     style="opacity:0.32642487;fill:url(#linearGradient2711);fill-opacity:1;stroke:none;stroke-width:3;stroke-linecap:round;stroke-linejoin:round;stroke-miterlimit:4;stroke-dasharray:none;stroke-opacity:1;filter:url(#filter6458)"
     transform="matrix(1,0,0,-1,-12.7,128.90935)" />
  <path
     transform="matrix(-1,0,0,-1,44.30334,128.93581)"
     style="opacity:0.17616583;fill:url(#linearGradient2709);fill-opacity:1;stroke:none;stroke-width:3;stroke-linecap:round;stroke-linejoin:round;stroke-miterlimit:4;stroke-dasharray:none;stroke-opacity:1;filter:url(#filter6458)"
     d="M 26.246568,16.978625 C 21.556393,16.978625 16.769225,20.633334 16.769225,26.464073 L 20.77674,25.639205 C 21.229113,23.50937 23.628704,21.368243 25.303345,21.03582 L 26.246568,16.978625 z"
     id="path6468"
     sodipodi:nodetypes="ccccc" />
  <g
     id="g3227"
     transform="translate(-48,-0.9785)">
    <path
       id="path3207"
       d="M 63.735675,20.9785 C 59.74545,20.9785 56,24.078525 56,28.06875 L 56,29.06875 C 56,25.078525 59.74545,21.9785 63.735675,21.9785 L 64.360672,21.9785 C 68.350902,21.9785 72,24.988275 72,28.9785 L 72,27.9785 C 72,23.988275 68.350902,20.9785 64.360672,20.9785 L 63.735675,20.9785 z"
       style="opacity:1;fill:url(#linearGradient2705);fill-opacity:1;stroke:none;stroke-width:3;stroke-linecap:round;stroke-linejoin:round;stroke-miterlimit:4;stroke-dasharray:none;stroke-opacity:1"
       sodipodi:nodetypes="ccccccccc" />
    <path
       id="path3215"
       d="M 67.96875,22.541 C 69.56411,23.855795 70.59375,25.827748 70.59375,28.07225 L 70.870402,57.774131 C 67.203957,61.980812 61.743297,63.369557 56,64.9785 L 56,64.9785 C 61.81923,64.108279 67.030787,63.611415 72,58.9785 L 72,28.9785 C 72,26.125489 70.35896,23.704416 67.96875,22.541 z"
       style="opacity:1;fill:url(#linearGradient2707);fill-opacity:1;stroke:none;stroke-width:3;stroke-linecap:round;stroke-linejoin:round;stroke-miterlimit:4;stroke-dasharray:none;stroke-opacity:1"
       sodipodi:nodetypes="cccccccc" />
  </g>
  <path
     transform="matrix(-1,0,0,1,-48,2.15e-2)"
     style="fill:none;fill-opacity:1;stroke:url(#linearGradient2703);stroke-width:1;stroke-linecap:round;stroke-linejoin:round;stroke-miterlimit:4;stroke-opacity:1;filter:url(#filter3281)"
     d="M -64.99857,19.9785 L -63.001431,19.9785 C -59.122638,19.9785 -56,24.099707 -56,27.9785 L -56,99.9785 C -56,103.85729 -58.344705,107.97993 -62.223498,107.97993 L -65.391219,107.97993 C -69.270009,107.97993 -72.092649,103.85729 -72.092649,99.9785 L -72,27.9785 C -72,24.099707 -68.87736,19.9785 -64.99857,19.9785 z"
     id="rect3235"
     sodipodi:nodetypes="ccccccccc" />
  <path
     style="fill:url(#linearGradient2671);fill-opacity:1;stroke:none;stroke-width:3;stroke-linecap:round;stroke-linejoin:round;stroke-miterlimit:4;stroke-dasharray:none;stroke-opacity:1"
     d="M 15.1875,20.0125 C 11.19727,20.0125 8,24.009775 8,28 L 8,64 C 13.92704,62.46307 19.97918,61.2956 24,55.99025 L 24,28 C 24,24.009775 20.80273,20.0125 16.8125,20.0125 L 15.1875,20.0125 z"
     id="rect9679"
     sodipodi:nodetypes="ccccccc" />
  <g
     id="g3611"
     transform="translate(12.20303,-0.2677681)">
    <path
       style="fill:url(#linearGradient4324);fill-opacity:1;fill-rule:evenodd;stroke:none"
       id="path2488"
       d="M 93.21875,12.165446 L 25.55194,61.147784 C 24.5686,61.853052 24,62.898046 24,64 C 24,65.101954 24.5686,66.146948 25.55194,66.852216 L 93.90625,115.82531 C 98.04937,118.4557 104,118.82842 104,113 L 104,15.999999 C 104,12.108863 96.97948,9.4467058 93.21875,12.165446 z" />
    <path
       style="opacity:0.25468164;fill:url(#radialGradient4321);fill-opacity:1;fill-rule:evenodd;stroke:none"
       id="path3532"
       d="M 93.21875,12.165446 L 25.55194,61.147784 C 24.5686,61.853052 24,62.898046 24,64 C 24,65.101954 24.5686,66.146948 25.55194,66.852216 L 93.90625,115.82531 C 98.04937,118.4557 104,118.82842 104,113 L 104,15.999999 C 104,12.108863 96.97948,9.4467058 93.21875,12.165446 z" />
    <path
       style="fill:url(#linearGradient4318);fill-opacity:1;fill-rule:evenodd;stroke:none;filter:url(#filter3387)"
       id="path3272"
       d="M 96.5,11.0625 C 95.422912,11.12778 94.386099,11.439286 93.5,12 L 95.875,19.625 L 104,16.46875 L 104,16 C 104,13.081648 100.06108,10.84666 96.5,11.0625 L 96.5,11.0625 z" />
    <path
       style="opacity:0.70411987;fill:url(#linearGradient3322);fill-opacity:1;fill-rule:evenodd;stroke:none;filter:url(#filter3387)"
       id="path3391"
       transform="matrix(0.8316412,0,0,-1,37.4687,128.78415)"
       d="M 72.5,11.0625 C 71.422912,11.12778 70.386099,11.439286 69.5,12 L 71.875,19.625 L 80,16.46875 L 80,16 C 80,13.081648 76.061079,10.84666 72.5,11.0625 L 72.5,11.0625 z" />
    <path
       style="fill:url(#radialGradient4314);fill-opacity:1;fill-rule:evenodd;stroke:none"
       id="path3474"
       d="M 93.55044,17.046046 L 29.50547,62.111818 C 28.11967,63.497612 28.3415,64.713011 29.40303,65.774542 L 92,109.70001 C 96,112.78418 100,112.94871 100,109.70001 L 100,19.167768 C 100,16.42047 96.84713,15.1427 93.55044,17.046046 z" />
    <path
       style="fill:none;stroke:url(#linearGradient3326);stroke-width:1.07770979;stroke-linecap:round;stroke-linejoin:round;stroke-miterlimit:4;stroke-dasharray:none;stroke-opacity:1;filter:url(#filter3187)"
       id="path3471"
       transform="matrix(1,0,0,0.8609865,-185.20303,-1.6349776)"
       d="M 278.55044,21.46494 L 214.10547,73.806959 C 212.71967,75.416501 212.9415,76.828137 214.00303,78.061061 L 277,129.07866 C 281,132.6608 285,132.85189 285,129.07866 L 285,23.929232 C 285,20.738359 281.84713,19.254283 278.55044,21.46494 L 278.55044,21.46494 z" />
    <path
       style="fill:url(#linearGradient4310);fill-opacity:1;stroke:none"
       id="path2420"
       d="M 96.5,16.15625 C 95.589703,16.18197 94.592716,16.436454 93.5625,17.03125 L 29.5,62.125 C 28.1142,63.510796 28.34472,64.719719 29.40625,65.78125 L 30.8125,66.78125 C 44.774233,70.043458 60.330414,71.875 76.75,71.875 C 84.735708,71.875 92.505938,71.442333 100,70.625 L 100,44 L 100,19.15625 C 100,17.267482 98.502653,16.099672 96.5,16.15625 z" />
    <path
       style="fill:url(#linearGradient4307);fill-opacity:1;stroke:none"
       id="path3046"
       d="M 96.5,16.125 C 95.589703,16.150717 94.592716,16.405204 93.5625,17 L 29.5,62.09375 C 28.61894,62.974808 28.40121,63.785606 28.625,64.53125 C 28.74316,64.079693 29.00458,63.589172 29.5,63.09375 L 93.5625,18 C 94.592716,17.405204 95.589703,17.150717 96.5,17.125 C 98.502653,17.06842 100,18.236232 100,20.125 L 100,19.125 C 100,17.236232 98.502653,16.068422 96.5,16.125 z" />
    <path
       style="fill:url(#linearGradient4304);fill-opacity:1;stroke:none"
       id="path3054"
       d="M 98.0625,16.1875 C 98.655863,16.707072 99.000001,17.457136 99,18.375 L 99,43.21875 L 100,19.15625 C 99.999997,17.444147 99.784283,16.339843 98.0625,16.1875 L 98.0625,16.1875 z M 31.125,66.28125 L 31.8125,66.78125 C 45.774231,70.043458 61.330414,71.875 77.75,71.875 C 85.484312,71.875 92.886128,71.455469 100,70.6875 L 100,69.71875 C 92.19797,70.608696 84.092841,71.09375 75.75,71.09375 C 59.837136,71.09375 44.750561,69.356836 31.125,66.28125 L 31.125,66.28125 z" />
  </g>
</svg>
