<?xml version="1.0" encoding="UTF-8" standalone="no"?>
<!-- Created with Inkscape (http://www.inkscape.org/) -->
<svg
   xmlns:dc="http://purl.org/dc/elements/1.1/"
   xmlns:cc="http://creativecommons.org/ns#"
   xmlns:rdf="http://www.w3.org/1999/02/22-rdf-syntax-ns#"
   xmlns:svg="http://www.w3.org/2000/svg"
   xmlns="http://www.w3.org/2000/svg"
   xmlns:xlink="http://www.w3.org/1999/xlink"
   xmlns:sodipodi="http://sodipodi.sourceforge.net/DTD/sodipodi-0.dtd"
   xmlns:inkscape="http://www.inkscape.org/namespaces/inkscape"
   width="128"
   height="128"
   id="svg2"
   sodipodi:version="0.32"
   inkscape:version="0.45+devel"
   version="1.0"
   sodipodi:docbase="/home/david/Oxygen/kdelibs/scalable/actions"
   sodipodi:docname="system-suspend.svgz"
   inkscape:output_extension="org.inkscape.output.svgz.inkscape"
   inkscape:export-filename="/home/pinheiro/pics/oxygen/scalable/actions/system-suspend-hibernate.png"
   inkscape:export-xdpi="180"
   inkscape:export-ydpi="180">
  <defs
     id="defs4">
    <linearGradient
       id="linearGradient2990">
      <stop
         style="stop-color:#d1d1d1;stop-opacity:1;"
         offset="0"
         id="stop2992" />
      <stop
         style="stop-color:#fdfdfd;stop-opacity:1;"
         offset="1"
         id="stop2994" />
    </linearGradient>
    <linearGradient
       id="linearGradient3237">
      <stop
         style="stop-color:#b3f6ff;stop-opacity:1;"
         offset="0"
         id="stop3239" />
      <stop
         style="stop-color:#ffffff;stop-opacity:0;"
         offset="1"
         id="stop3241" />
    </linearGradient>
    <linearGradient
       id="linearGradient6674">
      <stop
         style="stop-color:#4f5e6f;stop-opacity:1;"
         offset="0"
         id="stop6676" />
      <stop
         style="stop-color:#888888;stop-opacity:0;"
         offset="1"
         id="stop6678" />
    </linearGradient>
    <linearGradient
       id="linearGradient6666">
      <stop
         id="stop6668"
         offset="0"
         style="stop-color:#a2d9f3;stop-opacity:1;" />
      <stop
         id="stop6670"
         offset="1"
         style="stop-color:#405c77;stop-opacity:1;" />
    </linearGradient>
    <linearGradient
       id="linearGradient6643">
      <stop
         style="stop-color:#88bcdd;stop-opacity:1;"
         offset="0"
         id="stop6645" />
      <stop
         style="stop-color:#bfdfff;stop-opacity:0;"
         offset="1"
         id="stop6647" />
    </linearGradient>
    <linearGradient
       id="linearGradient6631">
      <stop
         style="stop-color:#006270;stop-opacity:1;"
         offset="0"
         id="stop6633" />
      <stop
         style="stop-color:#008fbf;stop-opacity:0;"
         offset="1"
         id="stop6635" />
    </linearGradient>
    <linearGradient
       id="linearGradient6610">
      <stop
         style="stop-color:#80daff;stop-opacity:1;"
         offset="0"
         id="stop6612" />
      <stop
         style="stop-color:#80e2ff;stop-opacity:0;"
         offset="1"
         id="stop6614" />
    </linearGradient>
    <linearGradient
       id="linearGradient6446">
      <stop
         style="stop-color:#ffffff;stop-opacity:1;"
         offset="0"
         id="stop6448" />
      <stop
         style="stop-color:#ffffff;stop-opacity:0;"
         offset="1"
         id="stop6450" />
    </linearGradient>
    <linearGradient
       id="linearGradient6404">
      <stop
         style="stop-color:#3b3b3b;stop-opacity:1;"
         offset="0"
         id="stop6406" />
      <stop
         style="stop-color:#1a2226;stop-opacity:1;"
         offset="1"
         id="stop6408" />
    </linearGradient>
    <linearGradient
       id="linearGradient9643">
      <stop
         style="stop-color:#ff0000;stop-opacity:1;"
         offset="0"
         id="stop9645" />
      <stop
         style="stop-color:#620000;stop-opacity:1;"
         offset="1"
         id="stop9647" />
    </linearGradient>
    <radialGradient
       inkscape:collect="always"
       xlink:href="#linearGradient9643"
       id="radialGradient9651"
       cx="12.040753"
       cy="118.14538"
       fx="12.040753"
       fy="118.14538"
       r="42.559486"
       gradientUnits="userSpaceOnUse"
       spreadMethod="reflect"
       gradientTransform="matrix(1.7951011,0,0,1.7951011,-9.5736166,-93.937523)" />
    <radialGradient
       inkscape:collect="always"
       xlink:href="#linearGradient6666"
       id="radialGradient9692"
       gradientUnits="userSpaceOnUse"
       gradientTransform="matrix(1.1890799,0,0,1.1890799,-114.77413,-31.375729)"
       spreadMethod="pad"
       cx="42.700352"
       cy="103.5803"
       fx="42.700352"
       fy="103.5803"
       r="42.559486" />
    <linearGradient
       inkscape:collect="always"
       xlink:href="#linearGradient6404"
       id="linearGradient6410"
       x1="39.741936"
       y1="113.54839"
       x2="11.458064"
       y2="13.006452"
       gradientUnits="userSpaceOnUse" />
    <linearGradient
       inkscape:collect="always"
       xlink:href="#linearGradient6446"
       id="linearGradient6452"
       x1="21.094994"
       y1="21.101994"
       x2="15.189133"
       y2="27.007854"
       gradientUnits="userSpaceOnUse"
       spreadMethod="reflect"
       gradientTransform="translate(-7.5870968,-7.3806452)" />
    <filter
       inkscape:collect="always"
       id="filter6458">
      <feGaussianBlur
         inkscape:collect="always"
         stdDeviation="0.28444187"
         id="feGaussianBlur6460" />
    </filter>
    <linearGradient
       inkscape:collect="always"
       xlink:href="#linearGradient6446"
       id="linearGradient6464"
       gradientUnits="userSpaceOnUse"
       gradientTransform="translate(0.4129032,0.6193548)"
       spreadMethod="reflect"
       x1="21.094994"
       y1="21.101994"
       x2="15.126888"
       y2="27.070099" />
    <linearGradient
       inkscape:collect="always"
       xlink:href="#linearGradient6446"
       id="linearGradient6470"
       gradientUnits="userSpaceOnUse"
       gradientTransform="translate(0.4129032,0.6193548)"
       spreadMethod="reflect"
       x1="21.094994"
       y1="21.101994"
       x2="13.96104"
       y2="28.235947" />
    <linearGradient
       inkscape:collect="always"
       xlink:href="#linearGradient6446"
       id="linearGradient6472"
       gradientUnits="userSpaceOnUse"
       gradientTransform="translate(0.4129032,0.6193548)"
       spreadMethod="reflect"
       x1="21.094994"
       y1="21.101994"
       x2="13.96104"
       y2="28.235947" />
    <linearGradient
       inkscape:collect="always"
       xlink:href="#linearGradient6631"
       id="linearGradient6637"
       x1="55.329033"
       y1="112"
       x2="55.329033"
       y2="74.913147"
       gradientUnits="userSpaceOnUse" />
    <linearGradient
       inkscape:collect="always"
       xlink:href="#linearGradient6643"
       id="linearGradient6649"
       x1="62.038712"
       y1="15.91371"
       x2="62.038712"
       y2="50.728985"
       gradientUnits="userSpaceOnUse" />
    <linearGradient
       inkscape:collect="always"
       xlink:href="#linearGradient6610"
       id="linearGradient6655"
       gradientUnits="userSpaceOnUse"
       x1="59.225807"
       y1="20.283871"
       x2="59.225807"
       y2="117.32368"
       gradientTransform="translate(0,1.6516129)" />
    <linearGradient
       inkscape:collect="always"
       xlink:href="#linearGradient6610"
       id="linearGradient6657"
       gradientUnits="userSpaceOnUse"
       x1="59.225807"
       y1="20.283871"
       x2="59.225807"
       y2="117.32368" />
    <linearGradient
       inkscape:collect="always"
       xlink:href="#linearGradient6674"
       id="linearGradient6680"
       x1="19.096775"
       y1="50.580647"
       x2="80.047699"
       y2="66.897575"
       gradientUnits="userSpaceOnUse" />
    <linearGradient
       inkscape:collect="always"
       xlink:href="#linearGradient6446"
       id="linearGradient2816"
       gradientUnits="userSpaceOnUse"
       x1="60"
       y1="-44"
       x2="60"
       y2="80" />
    <linearGradient
       inkscape:collect="always"
       xlink:href="#linearGradient6446"
       id="linearGradient3209"
       gradientUnits="userSpaceOnUse"
       gradientTransform="translate(0.2623629,1)"
       x1="59.225807"
       y1="7.8973217"
       x2="59.225807"
       y2="46.228859" />
    <linearGradient
       inkscape:collect="always"
       xlink:href="#linearGradient6446"
       id="linearGradient3225"
       gradientUnits="userSpaceOnUse"
       gradientTransform="translate(0.2332229,1.9150941)"
       x1="92.848534"
       y1="60.664852"
       x2="31.376678"
       y2="21.03125" />
    <linearGradient
       inkscape:collect="always"
       xlink:href="#linearGradient6446"
       id="linearGradient3231"
       gradientUnits="userSpaceOnUse"
       gradientTransform="translate(0.2623629,1)"
       x1="59.225807"
       y1="7.8973217"
       x2="59.225807"
       y2="46.228859" />
    <linearGradient
       inkscape:collect="always"
       xlink:href="#linearGradient6446"
       id="linearGradient3233"
       gradientUnits="userSpaceOnUse"
       gradientTransform="translate(0.2332229,1.9150941)"
       x1="115.76678"
       y1="71.084908"
       x2="31.376678"
       y2="21.03125" />
    <linearGradient
       inkscape:collect="always"
       xlink:href="#linearGradient3237"
       id="linearGradient3243"
       x1="-60.945251"
       y1="105.83054"
       x2="-59.415245"
       y2="45.631207"
       gradientUnits="userSpaceOnUse" />
    <filter
       inkscape:collect="always"
       id="filter3281">
      <feGaussianBlur
         inkscape:collect="always"
         stdDeviation="0.32872878"
         id="feGaussianBlur3283" />
    </filter>
    <linearGradient
       inkscape:collect="always"
       xlink:href="#linearGradient6674"
       id="linearGradient3289"
       gradientUnits="userSpaceOnUse"
       x1="60.402065"
       y1="64.076149"
       x2="60.402065"
       y2="-20.962214" />
    <filter
       inkscape:collect="always"
       id="filter3319">
      <feGaussianBlur
         inkscape:collect="always"
         stdDeviation="1.6179775"
         id="feGaussianBlur3321" />
    </filter>
    <radialGradient
       inkscape:collect="always"
       xlink:href="#linearGradient2990"
       id="radialGradient3000"
       gradientUnits="userSpaceOnUse"
       gradientTransform="matrix(0.712348,-0.1260581,0.1345724,0.7604617,-100.53448,20.174132)"
       spreadMethod="reflect"
       cx="64"
       cy="81.325775"
       fx="66.881805"
       fy="105.27442"
       r="43.474762" />
    <clipPath
       clipPathUnits="userSpaceOnUse"
       id="clipPath3108">
      <path
         style="fill:url(#radialGradient3112);fill-opacity:1;stroke:none;stroke-width:16.49500084;stroke-linecap:round;stroke-linejoin:round;stroke-miterlimit:4;stroke-dasharray:none;stroke-dashoffset:4.15;stroke-opacity:1"
         d="M -166.22608,25.639042 C -168.37082,25.690988 -170.41095,26.576535 -171.91358,28.107792 C -188.83826,45.032475 -188.83826,72.745609 -171.91358,89.670296 C -154.9889,106.59499 -127.27576,106.59498 -110.35108,89.670296 C -93.426397,72.745608 -93.426407,45.032476 -110.35108,28.107792 C -113.57849,24.889007 -118.78854,24.911628 -122.00733,28.139042 C -125.22611,31.366456 -125.23474,36.576507 -122.00733,39.795292 C -111.39346,50.409165 -111.39346,67.400168 -122.00733,78.014046 C -132.62121,88.627926 -149.64346,88.627916 -160.25733,78.014046 C -170.8712,67.400167 -170.8712,50.409167 -160.25733,39.795292 C -157.82392,37.426791 -157.09428,33.799307 -158.41358,30.670292 C -159.73287,27.541276 -162.83146,25.550254 -166.22608,25.639042 z M -141.25733,26.357792 C -145.38715,26.426713 -148.68411,29.821465 -148.63233,33.951542 L -148.63233,65.951542 C -148.67058,68.656311 -147.24981,71.181744 -144.91358,72.545292 C -142.57735,73.908838 -139.68731,73.90884 -137.35108,72.545292 C -135.01484,71.181742 -133.59407,68.656311 -133.63233,65.951542 L -133.63233,33.951542 C -133.60691,31.924427 -134.41464,29.975845 -135.85108,28.545292 C -137.28752,27.114738 -139.23033,26.324051 -141.25733,26.357792 z"
         id="path3110" />
    </clipPath>
    <radialGradient
       inkscape:collect="always"
       xlink:href="#linearGradient2990"
       id="radialGradient3112"
       gradientUnits="userSpaceOnUse"
       gradientTransform="matrix(0.712348,-0.1260581,0.1345724,0.7604617,-197.66681,20.174132)"
       spreadMethod="reflect"
       cx="64"
       cy="81.325775"
       fx="66.881805"
       fy="105.27442"
       r="43.474762" />
    <clipPath
       clipPathUnits="userSpaceOnUse"
       id="clipPath3114">
      <path
         id="path3116"
         d="M -69.09375,25.639042 C -71.238499,25.690988 -73.27862,26.576535 -74.78125,28.107792 C -91.705938,45.032475 -91.705939,72.745609 -74.78125,89.670296 C -57.856572,106.59499 -30.143439,106.59498 -13.21875,89.670296 C 3.70593,72.745608 3.70592,45.032476 -13.21875,28.107792 C -16.446164,24.889007 -21.656215,24.911628 -24.875,28.139042 C -28.093785,31.366456 -28.102414,36.576507 -24.875,39.795292 C -14.261134,50.409165 -14.261131,67.400168 -24.875,78.014046 C -35.488884,88.627926 -52.51113,88.627916 -63.125,78.014046 C -73.738879,67.400167 -73.738878,50.409167 -63.125,39.795292 C -60.691591,37.426791 -59.961952,33.799307 -61.28125,30.670292 C -62.600548,27.541276 -65.699137,25.550254 -69.09375,25.639042 z M -44.125,26.357792 C -48.254827,26.426713 -51.551787,29.821465 -51.5,33.951542 L -51.5,65.951542 C -51.538252,68.656311 -50.117481,71.181744 -47.78125,72.545292 C -45.44502,73.908838 -42.554982,73.90884 -40.21875,72.545292 C -37.882517,71.181742 -36.461748,68.656311 -36.5,65.951542 L -36.5,33.951542 C -36.474583,31.924427 -37.28231,29.975845 -38.71875,28.545292 C -40.155192,27.114738 -42.098006,26.324051 -44.125,26.357792 z"
         style="fill:url(#radialGradient3118);fill-opacity:1;stroke:none;stroke-width:16.49500084;stroke-linecap:round;stroke-linejoin:round;stroke-miterlimit:4;stroke-dasharray:none;stroke-dashoffset:4.15;stroke-opacity:1" />
    </clipPath>
    <radialGradient
       inkscape:collect="always"
       xlink:href="#linearGradient2990"
       id="radialGradient3118"
       gradientUnits="userSpaceOnUse"
       gradientTransform="matrix(0.712348,-0.1260581,0.1345724,0.7604617,-100.53448,20.174132)"
       spreadMethod="reflect"
       cx="64"
       cy="81.325775"
       fx="66.881805"
       fy="105.27442"
       r="43.474762" />
    <radialGradient
       inkscape:collect="always"
       xlink:href="#linearGradient2990"
       id="radialGradient2452"
       gradientUnits="userSpaceOnUse"
       gradientTransform="matrix(0.712348,-0.1260581,0.1345724,0.7604617,-136.22707,20.274132)"
       spreadMethod="reflect"
       cx="64"
       cy="81.325775"
       fx="66.881805"
       fy="105.27442"
       r="43.474762" />
    <radialGradient
       inkscape:collect="always"
       xlink:href="#linearGradient2990"
       id="radialGradient2456"
       gradientUnits="userSpaceOnUse"
       gradientTransform="matrix(0.712348,-0.1260581,0.1345724,0.7604617,-234.0068,20.274132)"
       spreadMethod="reflect"
       cx="64"
       cy="81.325775"
       fx="66.881805"
       fy="105.27442"
       r="43.474762" />
    <radialGradient
       inkscape:collect="always"
       xlink:href="#linearGradient2990"
       id="radialGradient2460"
       gradientUnits="userSpaceOnUse"
       gradientTransform="matrix(0.712348,-0.1260581,0.1345724,0.7604617,-317.89381,20.274132)"
       spreadMethod="reflect"
       cx="64"
       cy="81.325775"
       fx="66.881805"
       fy="105.27442"
       r="43.474762" />
    <filter
       inkscape:collect="always"
       id="filter3061">
      <feGaussianBlur
         inkscape:collect="always"
         stdDeviation="0.50858531"
         id="feGaussianBlur3063" />
    </filter>
    <filter
       inkscape:collect="always"
       id="filter3065">
      <feGaussianBlur
         inkscape:collect="always"
         stdDeviation="0.33902042"
         id="feGaussianBlur3067" />
    </filter>
    <clipPath
       clipPathUnits="userSpaceOnUse"
       id="clipPath3069">
      <path
         style="fill:url(#radialGradient3073);fill-opacity:1;stroke:none;stroke-width:16.49500084;stroke-linecap:round;stroke-linejoin:round;stroke-miterlimit:4;stroke-dasharray:none;stroke-dashoffset:4.15;stroke-opacity:1"
         d="M -261.47983,26.44375 C -265.60966,26.512671 -268.90662,29.907423 -268.85483,34.0375 L -268.85483,45.94375 L -277.26108,37.5375 C -278.6765,36.086151 -280.64007,35.28334 -282.66733,35.2875 C -284.6946,35.29167 -286.63289,36.08034 -288.04233,37.5375 C -290.91383,40.506469 -290.84311,45.247463 -287.88608,48.13125 L -279.44858,56.56875 L -291.35483,56.56875 C -294.0596,56.530499 -296.58503,57.951269 -297.94858,60.2875 C -299.31213,62.623731 -299.31213,65.513768 -297.94858,67.85 C -296.58503,70.18623 -294.0596,71.607002 -291.35483,71.56875 L -279.44858,71.56875 L -287.85483,79.975 C -289.79444,81.860513 -290.57387,84.64011 -289.88608,87.25625 C -289.19829,89.872393 -287.15847,91.91221 -284.54233,92.6 C -281.92619,93.287787 -279.1466,92.50836 -277.26108,90.56875 L -268.85483,82.1625 L -268.85483,94.0375 C -268.89309,96.742265 -267.47232,99.267704 -265.13608,100.63125 C -262.79985,101.9948 -259.90982,101.9948 -257.57358,100.63125 C -255.23735,99.267704 -253.81658,96.742269 -253.85483,94.0375 L -253.85483,82.1625 L -245.44858,90.56875 C -243.56307,92.508359 -240.78347,93.28779 -238.16733,92.6 C -235.5512,91.912215 -233.51137,89.872391 -232.82358,87.25625 C -232.13579,84.640113 -232.91522,81.829263 -234.85483,79.94375 L -243.22983,71.56875 L -231.35483,71.56875 C -229.32772,71.594164 -227.37914,70.78644 -225.94858,69.35 C -224.51803,67.913555 -223.72734,65.970744 -223.76108,63.94375 C -223.83001,59.813924 -227.22476,56.516963 -231.35483,56.56875 L -243.26108,56.56875 L -234.82358,48.13125 C -233.37223,46.715838 -232.56942,44.78352 -232.57358,42.75625 C -232.57776,40.728976 -233.39767,38.790693 -234.85483,37.38125 C -237.8238,34.509757 -242.5648,34.580475 -245.44858,37.5375 L -253.85483,45.94375 L -253.85483,34.0375 C -253.82942,32.010385 -254.63714,30.061803 -256.07358,28.63125 C -257.51003,27.200696 -259.45284,26.410009 -261.47983,26.44375 z"
         id="path3071" />
    </clipPath>
    <radialGradient
       inkscape:collect="always"
       xlink:href="#linearGradient2990"
       id="radialGradient3073"
       gradientUnits="userSpaceOnUse"
       gradientTransform="matrix(0.712348,-0.1260581,0.1345724,0.7604617,-317.89381,20.274132)"
       spreadMethod="reflect"
       cx="64"
       cy="81.325775"
       fx="66.881805"
       fy="105.27442"
       r="43.474762" />
    <clipPath
       clipPathUnits="userSpaceOnUse"
       id="clipPath3075">
      <path
         id="path3077"
         d="M -177.59282,26.44375 C -181.72265,26.512671 -185.01961,29.907423 -184.96782,34.0375 L -184.96782,45.94375 L -193.37407,37.5375 C -194.78949,36.086151 -196.75306,35.28334 -198.78032,35.2875 C -200.80759,35.29167 -202.74588,36.08034 -204.15532,37.5375 C -207.02682,40.506469 -206.9561,45.247463 -203.99907,48.13125 L -195.56157,56.56875 L -207.46782,56.56875 C -210.17259,56.530499 -212.69802,57.951269 -214.06157,60.2875 C -215.42512,62.623731 -215.42512,65.513768 -214.06157,67.85 C -212.69802,70.18623 -210.17259,71.607002 -207.46782,71.56875 L -195.56157,71.56875 L -203.96782,79.975 C -205.90743,81.860513 -206.68686,84.64011 -205.99907,87.25625 C -205.31128,89.872393 -203.27146,91.91221 -200.65532,92.6 C -198.03918,93.287787 -195.25959,92.50836 -193.37407,90.56875 L -184.96782,82.1625 L -184.96782,94.0375 C -185.00608,96.742265 -183.58531,99.267704 -181.24907,100.63125 C -178.91284,101.9948 -176.02281,101.9948 -173.68657,100.63125 C -171.35034,99.267704 -169.92957,96.742269 -169.96782,94.0375 L -169.96782,82.1625 L -161.56157,90.56875 C -159.67606,92.508359 -156.89646,93.28779 -154.28032,92.6 C -151.66419,91.912215 -149.62436,89.872391 -148.93657,87.25625 C -148.24878,84.640113 -149.02821,81.829263 -150.96782,79.94375 L -159.34282,71.56875 L -147.46782,71.56875 C -145.44071,71.594164 -143.49213,70.78644 -142.06157,69.35 C -140.63102,67.913555 -139.84033,65.970744 -139.87407,63.94375 C -139.943,59.813924 -143.33775,56.516963 -147.46782,56.56875 L -159.37407,56.56875 L -150.93657,48.13125 C -149.48522,46.715838 -148.68241,44.78352 -148.68657,42.75625 C -148.69075,40.728976 -149.51066,38.790693 -150.96782,37.38125 C -153.93679,34.509757 -158.67779,34.580475 -161.56157,37.5375 L -169.96782,45.94375 L -169.96782,34.0375 C -169.94241,32.010385 -170.75013,30.061803 -172.18657,28.63125 C -173.62302,27.200696 -175.56583,26.410009 -177.59282,26.44375 z"
         style="fill:url(#radialGradient3079);fill-opacity:1;stroke:none;stroke-width:16.49500084;stroke-linecap:round;stroke-linejoin:round;stroke-miterlimit:4;stroke-dasharray:none;stroke-dashoffset:4.15;stroke-opacity:1" />
    </clipPath>
    <radialGradient
       inkscape:collect="always"
       xlink:href="#linearGradient2990"
       id="radialGradient3079"
       gradientUnits="userSpaceOnUse"
       gradientTransform="matrix(0.712348,-0.1260581,0.1345724,0.7604617,-234.0068,20.274132)"
       spreadMethod="reflect"
       cx="64"
       cy="81.325775"
       fx="66.881805"
       fy="105.27442"
       r="43.474762" />
    <linearGradient
       inkscape:collect="always"
       xlink:href="#linearGradient3237"
       id="linearGradient3103"
       x1="-96"
       y1="-38"
       x2="12"
       y2="-38"
       gradientUnits="userSpaceOnUse" />
    <radialGradient
       inkscape:collect="always"
       xlink:href="#linearGradient2990"
       id="radialGradient3001"
       cx="72.868279"
       cy="64"
       fx="86.113594"
       fy="86.754776"
       r="39.875"
       gradientTransform="translate(-8.8907951,-1.6050157e-6)"
       gradientUnits="userSpaceOnUse" />
    <radialGradient
       inkscape:collect="always"
       xlink:href="#linearGradient2990"
       id="radialGradient3005"
       gradientUnits="userSpaceOnUse"
       gradientTransform="translate(-158.30263,-1.6050157e-6)"
       cx="72.868279"
       cy="64"
       fx="86.113594"
       fy="86.754776"
       r="39.875" />
    <radialGradient
       inkscape:collect="always"
       xlink:href="#linearGradient2990"
       id="radialGradient3009"
       gradientUnits="userSpaceOnUse"
       gradientTransform="translate(-272.41614,-1.6050157e-6)"
       cx="72.868279"
       cy="64"
       fx="86.113594"
       fy="86.754776"
       r="39.875" />
    <radialGradient
       inkscape:collect="always"
       xlink:href="#linearGradient2990"
       id="radialGradient3015"
       gradientUnits="userSpaceOnUse"
       gradientTransform="translate(-158.30263,91.698351)"
       cx="72.868279"
       cy="64"
       fx="86.113594"
       fy="86.754776"
       r="39.875" />
    <radialGradient
       inkscape:collect="always"
       xlink:href="#linearGradient2990"
       id="radialGradient3017"
       gradientUnits="userSpaceOnUse"
       gradientTransform="translate(-272.41614,91.698351)"
       cx="72.868279"
       cy="64"
       fx="86.113594"
       fy="86.754776"
       r="39.875" />
    <radialGradient
       inkscape:collect="always"
       xlink:href="#linearGradient2990"
       id="radialGradient3021"
       gradientUnits="userSpaceOnUse"
       gradientTransform="translate(-158.30263,88.698351)"
       cx="72.868279"
       cy="64"
       fx="86.113594"
       fy="86.754776"
       r="39.875" />
    <radialGradient
       inkscape:collect="always"
       xlink:href="#linearGradient2990"
       id="radialGradient3025"
       gradientUnits="userSpaceOnUse"
       gradientTransform="translate(-272.41614,94.698351)"
       cx="72.868279"
       cy="64"
       fx="86.113594"
       fy="86.754776"
       r="39.875" />
    <filter
       inkscape:collect="always"
       id="filter3029">
      <feGaussianBlur
         inkscape:collect="always"
         stdDeviation="0.36648437"
         id="feGaussianBlur3031" />
    </filter>
    <filter
       inkscape:collect="always"
       id="filter3033">
      <feGaussianBlur
         inkscape:collect="always"
         stdDeviation="0.54972656"
         id="feGaussianBlur3035" />
    </filter>
    <clipPath
       clipPathUnits="userSpaceOnUse"
       id="clipPath3037">
      <path
         style="opacity:1;fill:url(#radialGradient3041);fill-opacity:1;stroke:none;stroke-width:22.79247093;stroke-linecap:round;stroke-linejoin:round;stroke-miterlimit:4;stroke-dasharray:none;stroke-dashoffset:4.15;stroke-opacity:1"
         d="M -199.54786,24.125 C -221.56539,24.125 -239.42286,41.982473 -239.42286,64 C -239.42286,86.017526 -221.56539,103.875 -199.54786,103.875 C -177.53033,103.875 -159.67286,86.017526 -159.67286,64 C -159.67286,41.982474 -177.53033,24.125 -199.54786,24.125 z M -199.54786,40.03125 C -189.11962,40.03125 -180.24736,46.694219 -176.95411,56 L -222.14161,56 C -218.84836,46.694219 -209.97609,40.03125 -199.54786,40.03125 z M -222.14161,72 L -176.95411,72 C -180.24736,81.305781 -189.11962,87.96875 -199.54786,87.96875 C -209.97609,87.96875 -218.84836,81.305781 -222.14161,72 z"
         id="path3039" />
    </clipPath>
    <radialGradient
       inkscape:collect="always"
       xlink:href="#linearGradient2990"
       id="radialGradient3041"
       gradientUnits="userSpaceOnUse"
       gradientTransform="translate(-272.41614,-1.6050157e-6)"
       cx="72.868279"
       cy="64"
       fx="86.113594"
       fy="86.754776"
       r="39.875" />
    <clipPath
       clipPathUnits="userSpaceOnUse"
       id="clipPath3043">
      <path
         id="path3045"
         d="M -85.434351,24.125 C -107.45188,24.125 -125.30935,41.982473 -125.30935,64 C -125.30935,86.017526 -107.45188,103.875 -85.434351,103.875 C -63.416825,103.875 -45.559352,86.017526 -45.559352,64 C -45.559352,41.982474 -63.416824,24.125 -85.434351,24.125 z M -85.434351,40.03125 C -75.006117,40.03125 -66.133853,46.694219 -62.840601,56 L -108.0281,56 C -104.73485,46.694219 -95.862585,40.03125 -85.434351,40.03125 z M -108.0281,72 L -62.840601,72 C -66.133853,81.305781 -75.006117,87.96875 -85.434351,87.96875 C -95.862585,87.96875 -104.73485,81.305781 -108.0281,72 z"
         style="opacity:1;fill:url(#radialGradient3047);fill-opacity:1;stroke:none;stroke-width:22.79247093;stroke-linecap:round;stroke-linejoin:round;stroke-miterlimit:4;stroke-dasharray:none;stroke-dashoffset:4.15;stroke-opacity:1" />
    </clipPath>
    <radialGradient
       inkscape:collect="always"
       xlink:href="#linearGradient2990"
       id="radialGradient3047"
       gradientUnits="userSpaceOnUse"
       gradientTransform="translate(-158.30263,-1.6050157e-6)"
       cx="72.868279"
       cy="64"
       fx="86.113594"
       fy="86.754776"
       r="39.875" />
  </defs>
  <sodipodi:namedview
     id="base"
     pagecolor="#ffffff"
     bordercolor="#666666"
     borderopacity="1.0"
     gridtolerance="10000"
     guidetolerance="10"
     objecttolerance="10"
     inkscape:pageopacity="0.0"
     inkscape:pageshadow="2"
     inkscape:zoom="2.0820312"
     inkscape:cx="53.49769"
     inkscape:cy="74.972763"
     inkscape:document-units="px"
     inkscape:current-layer="layer1"
     width="128px"
     height="128px"
     gridempspacing="2"
     gridspacingx="4px"
     gridspacingy="4px"
     showgrid="false"
     borderlayer="true"
     inkscape:showpageshadow="false"
     showborder="true"
     inkscape:window-width="986"
     inkscape:window-height="750"
     inkscape:window-x="222"
     inkscape:window-y="286">
    <inkscape:grid
       type="xygrid"
       id="grid3285"
       spacingx="4px"
       spacingy="4px"
       empspacing="2" />
  </sodipodi:namedview>
  <metadata
     id="metadata7">
    <rdf:RDF>
      <cc:Work
         rdf:about="">
        <dc:format>image/svg+xml</dc:format>
        <dc:type
           rdf:resource="http://purl.org/dc/dcmitype/StillImage" />
      </cc:Work>
    </rdf:RDF>
  </metadata>
  <g
     inkscape:label="Layer 1"
     inkscape:groupmode="layer"
     id="layer1">
    <path
       style="fill:url(#linearGradient3289);fill-opacity:1;stroke:none;stroke-width:3;stroke-linecap:round;stroke-linejoin:round;stroke-miterlimit:4;stroke-opacity:1;filter:url(#filter3319)"
       d="M 18.083601,8 L 109.9164,8 C 115.50271,8 120,12.497286 120,18.083601 L 120,109.9164 C 120,115.50271 115.50271,120 109.9164,120 L 18.083601,120 C 12.497286,120 8,115.50271 8,109.9164 L 8,18.083601 C 8,12.497286 12.497286,8 18.083601,8 z"
       id="rect3287"
       sodipodi:nodetypes="ccccccccc" />
    <path
       style="fill:url(#linearGradient6410);fill-opacity:1;stroke:none;stroke-width:3;stroke-linecap:round;stroke-linejoin:round;stroke-miterlimit:4;stroke-opacity:1"
       d="M 18.083601,8 L 109.9164,8 C 115.50271,8 120,12.497286 120,18.083601 L 120,109.9164 C 120,115.50271 115.50271,120 109.9164,120 L 18.083601,120 C 12.497286,120 8,115.50271 8,109.9164 L 8,18.083601 C 8,12.497286 12.497286,8 18.083601,8 z"
       id="rect8666"
       sodipodi:nodetypes="ccccccccc" />
    <path
       style="opacity:0.08290154;fill:url(#linearGradient6680);fill-opacity:1;stroke:none;stroke-width:3;stroke-linecap:round;stroke-linejoin:round;stroke-miterlimit:4;stroke-opacity:1"
       d="M 18.083601,8 L 109.9164,8 C 115.50271,8 120,12.497286 120,18.083601 L 120,109.9164 C 120,115.50271 115.50271,120 109.9164,120 L 18.083601,120 C 12.497286,120 8,115.50271 8,109.9164 L 8,18.083601 C 8,12.497286 12.497286,8 18.083601,8 z"
       id="rect6672"
       sodipodi:nodetypes="ccccccccc" />
    <path
       transform="scale(-1,1)"
       style="fill:url(#radialGradient9692);fill-opacity:1;stroke:none;stroke-width:3;stroke-linecap:round;stroke-linejoin:round;stroke-miterlimit:4;stroke-opacity:1"
       d="M -109.38386,12.614708 L -19.616139,12.614708 C -15.737346,12.614708 -12.614708,15.737346 -12.614708,19.616139 L -12.614708,108.38386 C -12.614708,112.26265 -15.737346,115.38529 -19.616139,115.38529 L -109.38386,115.38529 C -113.26265,115.38529 -116.38529,112.26265 -116.38529,108.38386 L -116.38529,19.616139 C -116.38529,15.737346 -113.26265,12.614708 -109.38386,12.614708 z"
       id="rect9641"
       sodipodi:nodetypes="ccccccccc" />
    <path
       style="opacity:0.8876405;fill:url(#linearGradient6452);fill-opacity:1;stroke:none;stroke-width:3;stroke-linecap:round;stroke-linejoin:round;stroke-miterlimit:4;stroke-dasharray:none;stroke-opacity:1;filter:url(#filter6458)"
       d="M 17.906944,8.299378 C 13.216769,8.299378 8.509435,11.867379 8.509435,17.698118 L 12.77674,17.639205 C 13.229113,15.50937 15.628704,13.368243 17.303345,13.03582 L 17.906944,8.299378 z"
       id="rect6433"
       sodipodi:nodetypes="ccccc" />
    <path
       sodipodi:nodetypes="ccccc"
       id="path6462"
       d="M 25.397509,16.46919 C 20.707334,16.46919 16.429601,20.123899 16.429601,25.954638 L 20.77674,25.639205 C 21.229113,23.50937 23.628704,21.368243 25.303345,21.03582 L 25.397509,16.46919 z"
       style="opacity:0.8689139;fill:url(#linearGradient6464);fill-opacity:1;stroke:none;stroke-width:3;stroke-linecap:round;stroke-linejoin:round;stroke-miterlimit:4;stroke-dasharray:none;stroke-opacity:1;filter:url(#filter6458)"
       transform="matrix(-1,0,0,1,135.86741,-8)" />
    <path
       style="opacity:0.08290155;fill:url(#linearGradient6637);fill-opacity:1.0;stroke:none;stroke-width:3;stroke-linecap:round;stroke-linejoin:round;stroke-miterlimit:4;stroke-dasharray:none;stroke-opacity:1"
       d="M 8,105.875 L 8,109.90625 C 8,115.49256 12.507435,120 18.09375,120 L 109.90625,120 C 115.49256,120 120,115.49257 120,109.90625 L 120,105.875 C 120,111.46131 115.49256,115.96875 109.90625,115.96875 L 18.09375,115.96875 C 12.507435,115.96875 8,111.46131 8,105.875 z"
       id="rect6626"
       sodipodi:nodetypes="ccccccccc" />
    <path
       sodipodi:nodetypes="ccccc"
       id="path6466"
       d="M 26.246568,16.978625 C 21.556393,16.978625 16.769225,20.633334 16.769225,26.464073 L 20.77674,25.639205 C 21.229113,23.50937 23.628704,21.368243 25.303345,21.03582 L 26.246568,16.978625 z"
       style="opacity:0.32642487;fill:url(#linearGradient6470);fill-opacity:1;stroke:none;stroke-width:3;stroke-linecap:round;stroke-linejoin:round;stroke-miterlimit:4;stroke-dasharray:none;stroke-opacity:1;filter:url(#filter6458)"
       transform="matrix(1,0,0,-1,-8,136.08786)" />
    <path
       transform="matrix(-1,0,0,-1,135.86741,136.08786)"
       style="opacity:0.17616583;fill:url(#linearGradient6472);fill-opacity:1;stroke:none;stroke-width:3;stroke-linecap:round;stroke-linejoin:round;stroke-miterlimit:4;stroke-dasharray:none;stroke-opacity:1;filter:url(#filter6458)"
       d="M 26.246568,16.978625 C 21.556393,16.978625 16.769225,20.633334 16.769225,26.464073 L 20.77674,25.639205 C 21.229113,23.50937 23.628704,21.368243 25.303345,21.03582 L 26.246568,16.978625 z"
       id="path6468"
       sodipodi:nodetypes="ccccc" />
    <path
       id="path6639"
       d="M 8,22.03871 L 8,18.00746 C 8,12.42115 12.507435,7.91371 18.09375,7.91371 L 109.90625,7.91371 C 115.49256,7.91371 120,12.42114 120,18.00746 L 120,22.03871 C 120,16.4524 115.49256,11.94496 109.90625,11.94496 L 18.09375,11.94496 C 12.507435,11.94496 8,16.4524 8,22.03871 z"
       style="opacity:0.38860103;fill:url(#linearGradient6649);fill-opacity:1;stroke:none;stroke-width:3;stroke-linecap:round;stroke-linejoin:round;stroke-miterlimit:4;stroke-dasharray:none;stroke-opacity:1"
       sodipodi:nodetypes="ccccccccc" />
    <g
       id="g3227"
       transform="translate(0,-1)">
      <path
         id="path3207"
         d="M 19.441303,13.28125 C 15.451078,13.28125 12.253803,16.478525 12.253803,20.46875 L 12.253803,21.46875 C 12.253803,17.478525 15.451078,14.28125 19.441303,14.28125 L 109.0663,14.28125 C 113.05653,14.28125 116.2538,17.478525 116.2538,21.46875 L 116.2538,20.46875 C 116.2538,16.478525 113.05653,13.28125 109.0663,13.28125 L 19.441303,13.28125 z"
         style="opacity:1;fill:url(#linearGradient3231);fill-opacity:1;stroke:none;stroke-width:3;stroke-linecap:round;stroke-linejoin:round;stroke-miterlimit:4;stroke-dasharray:none;stroke-opacity:1"
         sodipodi:nodetypes="ccccccccc" />
      <path
         id="path3215"
         d="M 112.21077,14.946344 C 113.80613,16.261139 114.83577,18.233092 114.83577,20.477594 L 114.83577,54.977594 C 114.6424,55.305632 114.39903,55.644913 114.11702,55.977594 C 86.869243,66.464121 40.804813,69.465921 12.242023,62.602594 L 12.242023,63.165094 C 41.223093,70.471727 87.827513,67.54278 115.52327,56.883844 C 115.80529,56.551161 116.04865,56.211882 116.24202,55.883844 L 116.24202,21.383844 C 116.24202,18.530833 114.60098,16.10976 112.21077,14.946344 z"
         style="opacity:1;fill:url(#linearGradient3233);fill-opacity:1;stroke:none;stroke-width:3;stroke-linecap:round;stroke-linejoin:round;stroke-miterlimit:4;stroke-dasharray:none;stroke-opacity:1"
         sodipodi:nodetypes="cccccccccc" />
    </g>
    <path
       transform="scale(-1,1)"
       style="fill:none;fill-opacity:1;stroke:url(#linearGradient3243);stroke-width:1;stroke-linecap:round;stroke-linejoin:round;stroke-miterlimit:4;stroke-opacity:1;filter:url(#filter3281)"
       d="M -109.38386,13.614708 L -19.616139,13.614708 C -15.737346,13.614708 -12.614708,16.737346 -12.614708,20.616139 L -12.614708,108.38386 C -12.614708,112.26265 -15.737346,115.38529 -19.616139,115.38529 L -109.38386,115.38529 C -113.26265,115.38529 -116.38529,112.26265 -116.38529,108.38386 L -116.38529,20.616139 C -116.38529,16.737346 -113.26265,13.614708 -109.38386,13.614708 z"
       id="rect3235"
       sodipodi:nodetypes="ccccccccc" />
    <path
       style="opacity:1;fill:url(#linearGradient2816);fill-opacity:1;stroke:none;stroke-width:3;stroke-linecap:round;stroke-linejoin:round;stroke-miterlimit:4;stroke-dasharray:none;stroke-opacity:1"
       d="M 19.1875,12.28125 C 15.197275,12.28125 12,15.478525 12,19.46875 L 12,61.25 C 40.981077,68.556633 87.585499,65.627686 115.28125,54.96875 C 115.56327,54.636067 115.80663,54.296788 116,53.96875 L 116,19.46875 C 116,15.478525 112.80273,12.28125 108.8125,12.28125 L 19.1875,12.28125 z"
       id="rect9679"
       sodipodi:nodetypes="cccccccc" />
    <path
       style="opacity:1;fill:url(#radialGradient3001);fill-opacity:1;stroke:none;stroke-width:22.79247093;stroke-linecap:round;stroke-linejoin:round;stroke-miterlimit:4;stroke-dasharray:none;stroke-dashoffset:4.15;stroke-opacity:1"
       d="M 63.977487,24.125 C 41.959961,24.125 24.102487,41.982473 24.102487,64 C 24.102487,86.017526 41.959961,103.875 63.977487,103.875 C 85.995013,103.875 103.85249,86.017526 103.85249,64 C 103.85249,41.982474 85.995014,24.125 63.977487,24.125 z M 63.977487,40.03125 C 74.405721,40.03125 83.277985,46.694219 86.571237,56 L 41.383737,56 C 44.676989,46.694219 53.549253,40.03125 63.977487,40.03125 z M 41.383737,72 L 86.571237,72 C 83.277985,81.305781 74.405721,87.96875 63.977487,87.96875 C 53.549253,87.96875 44.676989,81.305781 41.383737,72 z"
       id="path2409" />
    <g
       id="g3049"
       transform="translate(263.52496,0)">
      <path
         transform="translate(-114.1293,-1.0613235e-2)"
         clip-path="url(#clipPath3043)"
         id="path3011"
         d="M -85.4375,38.565668 C -95.865734,38.565668 -104.738,45.228638 -108.03125,54.534418 L -106.6875,54.534418 C -102.69719,46.844368 -94.69555,41.565668 -85.4375,41.565668 C -76.179452,41.565668 -68.17781,46.844368 -64.1875,54.534418 L -62.84375,54.534418 C -66.137002,45.228638 -75.009268,38.565668 -85.4375,38.565668 z M -125.28125,64.034418 C -125.30009,64.537768 -125.3125,65.026478 -125.3125,65.534418 C -125.3125,87.551948 -107.45503,105.40942 -85.4375,105.40942 C -63.419976,105.40942 -45.5625,87.551948 -45.5625,65.534418 C -45.5625,65.026478 -45.57491,64.537768 -45.59375,64.034418 C -46.379873,85.360038 -63.920231,102.40942 -85.4375,102.40942 C -106.95477,102.40942 -124.49513,85.360038 -125.28125,64.034418 z M -108.03125,70.534418 C -107.66637,71.565468 -107.21513,72.573728 -106.71875,73.534418 L -64.15625,73.534418 C -63.659868,72.573728 -63.20863,71.565468 -62.84375,70.534418 L -108.03125,70.534418 z"
         style="opacity:1;fill:#ffffff;fill-opacity:1;stroke:none;stroke-width:22.79247093;stroke-linecap:round;stroke-linejoin:round;stroke-miterlimit:4;stroke-dasharray:none;stroke-dashoffset:4.15;stroke-opacity:1;filter:url(#filter3029)" />
      <path
         clip-path="url(#clipPath3037)"
         id="path3013"
         d="M -199.5625,22.472642 C -221.58002,22.472642 -239.4375,40.330122 -239.4375,62.347642 C -239.4375,62.847892 -239.42453,63.351842 -239.40625,63.847642 C -238.60844,42.532702 -221.07208,25.472642 -199.5625,25.472642 C -178.05311,25.472642 -160.51685,42.532972 -159.71875,63.847642 C -159.70046,63.351662 -159.6875,62.848082 -159.6875,62.347642 C -159.68749,40.330122 -177.54497,22.472642 -199.5625,22.472642 z M -220.8125,54.347642 C -221.31686,55.319632 -221.7867,56.303412 -222.15625,57.347642 L -176.96875,57.347642 C -177.3383,56.303412 -177.77689,55.319632 -178.28125,54.347642 L -220.8125,54.347642 z M -222.15625,73.347642 C -218.863,82.653422 -209.99072,89.316392 -199.5625,89.316392 C -189.13426,89.316392 -180.26199,82.653422 -176.96875,73.347642 L -178.25,73.347642 C -182.23374,81.057752 -190.28967,86.316392 -199.5625,86.316392 C -208.83531,86.316392 -216.86,81.057752 -220.84375,73.347642 L -222.15625,73.347642 z"
         style="opacity:1;fill:#2a2a2a;fill-opacity:0.74852074;stroke:none;stroke-width:22.79247093;stroke-linecap:round;stroke-linejoin:round;stroke-miterlimit:4;stroke-dasharray:none;stroke-dashoffset:4.15;stroke-opacity:1;filter:url(#filter3033)" />
    </g>
  </g>
</svg>
