<?xml version="1.0" encoding="UTF-8" standalone="no"?>
<!-- Created with Inkscape (http://www.inkscape.org/) -->
<svg
   xmlns:dc="http://purl.org/dc/elements/1.1/"
   xmlns:cc="http://creativecommons.org/ns#"
   xmlns:rdf="http://www.w3.org/1999/02/22-rdf-syntax-ns#"
   xmlns:svg="http://www.w3.org/2000/svg"
   xmlns="http://www.w3.org/2000/svg"
   xmlns:xlink="http://www.w3.org/1999/xlink"
   xmlns:sodipodi="http://sodipodi.sourceforge.net/DTD/sodipodi-0.dtd"
   xmlns:inkscape="http://www.inkscape.org/namespaces/inkscape"
   width="128"
   height="128"
   id="svg2"
   sodipodi:version="0.32"
   inkscape:version="0.45+devel"
   version="1.0"
   sodipodi:docbase="/home/david/Oxygen/kdelibs/scalable/actions"
   sodipodi:docname="system-log-out.svgz"
   inkscape:output_extension="org.inkscape.output.svgz.inkscape"
   inkscape:export-filename="/home/pinheiro/pics/oxygen/scalable/actions/system-log-out.png"
   inkscape:export-xdpi="360"
   inkscape:export-ydpi="360">
  <defs
     id="defs4">
    <inkscape:perspective
       sodipodi:type="inkscape:persp3d"
       inkscape:vp_x="-50 : 600 : 1"
       inkscape:vp_y="0 : 1000 : 0"
       inkscape:vp_z="700 : 600 : 1"
       inkscape:persp3d-origin="300 : 400 : 1"
       id="perspective94" />
    <linearGradient
       id="linearGradient2990">
      <stop
         style="stop-color:#cccccc;stop-opacity:1;"
         offset="0"
         id="stop2992" />
      <stop
         style="stop-color:#f1f1f1;stop-opacity:1;"
         offset="1"
         id="stop2994" />
    </linearGradient>
    <linearGradient
       id="linearGradient3237">
      <stop
         style="stop-color:#8bf9ff;stop-opacity:1;"
         offset="0"
         id="stop3239" />
      <stop
         style="stop-color:#ffffff;stop-opacity:0;"
         offset="1"
         id="stop3241" />
    </linearGradient>
    <linearGradient
       id="linearGradient6674">
      <stop
         style="stop-color:#008bbf;stop-opacity:1;"
         offset="0"
         id="stop6676" />
      <stop
         style="stop-color:#11fffd;stop-opacity:0;"
         offset="1"
         id="stop6678" />
    </linearGradient>
    <linearGradient
       id="linearGradient6666">
      <stop
         id="stop6668"
         offset="0"
         style="stop-color:#00bde8;stop-opacity:1;" />
      <stop
         id="stop6670"
         offset="1"
         style="stop-color:#0084b0;stop-opacity:1;" />
    </linearGradient>
    <linearGradient
       id="linearGradient6643">
      <stop
         style="stop-color:#65f7ff;stop-opacity:1;"
         offset="0"
         id="stop6645" />
      <stop
         style="stop-color:#bfffff;stop-opacity:0;"
         offset="1"
         id="stop6647" />
    </linearGradient>
    <linearGradient
       id="linearGradient6631">
      <stop
         style="stop-color:#002070;stop-opacity:1;"
         offset="0"
         id="stop6633" />
      <stop
         style="stop-color:#0072bf;stop-opacity:0;"
         offset="1"
         id="stop6635" />
    </linearGradient>
    <linearGradient
       inkscape:collect="always"
       id="linearGradient6610">
      <stop
         style="stop-color:#ffbf80;stop-opacity:1;"
         offset="0"
         id="stop6612" />
      <stop
         style="stop-color:#ffbf80;stop-opacity:0;"
         offset="1"
         id="stop6614" />
    </linearGradient>
    <linearGradient
       id="linearGradient6446">
      <stop
         style="stop-color:#ffffff;stop-opacity:1;"
         offset="0"
         id="stop6448" />
      <stop
         style="stop-color:#ffffff;stop-opacity:0;"
         offset="1"
         id="stop6450" />
    </linearGradient>
    <linearGradient
       id="linearGradient6404">
      <stop
         style="stop-color:#002277;stop-opacity:1;"
         offset="0"
         id="stop6406" />
      <stop
         style="stop-color:#0077c1;stop-opacity:1;"
         offset="1"
         id="stop6408" />
    </linearGradient>
    <linearGradient
       id="linearGradient9643">
      <stop
         style="stop-color:#00b4ff;stop-opacity:1;"
         offset="0"
         id="stop9645" />
      <stop
         style="stop-color:#002762;stop-opacity:1;"
         offset="1"
         id="stop9647" />
    </linearGradient>
    <radialGradient
       inkscape:collect="always"
       xlink:href="#linearGradient9643"
       id="radialGradient9651"
       cx="12.040753"
       cy="118.14538"
       fx="12.040753"
       fy="118.14538"
       r="42.559486"
       gradientUnits="userSpaceOnUse"
       spreadMethod="reflect"
       gradientTransform="matrix(1.7951011,0,0,1.7951011,-9.5736166,-93.937523)" />
    <radialGradient
       inkscape:collect="always"
       xlink:href="#linearGradient6666"
       id="radialGradient9692"
       gradientUnits="userSpaceOnUse"
       gradientTransform="matrix(1.1890799,0,0,1.1890799,-114.77413,-31.375729)"
       spreadMethod="pad"
       cx="42.700352"
       cy="103.5803"
       fx="42.700352"
       fy="103.5803"
       r="42.559486" />
    <linearGradient
       inkscape:collect="always"
       xlink:href="#linearGradient6404"
       id="linearGradient6410"
       x1="39.741936"
       y1="113.54839"
       x2="11.458064"
       y2="13.006452"
       gradientUnits="userSpaceOnUse" />
    <linearGradient
       inkscape:collect="always"
       xlink:href="#linearGradient6446"
       id="linearGradient6452"
       x1="21.094994"
       y1="21.101994"
       x2="15.189133"
       y2="27.007854"
       gradientUnits="userSpaceOnUse"
       spreadMethod="reflect"
       gradientTransform="translate(-7.5870968,-7.3806452)" />
    <filter
       inkscape:collect="always"
       id="filter6458">
      <feGaussianBlur
         inkscape:collect="always"
         stdDeviation="0.28444187"
         id="feGaussianBlur6460" />
    </filter>
    <linearGradient
       inkscape:collect="always"
       xlink:href="#linearGradient6446"
       id="linearGradient6464"
       gradientUnits="userSpaceOnUse"
       gradientTransform="translate(0.4129032,0.6193548)"
       spreadMethod="reflect"
       x1="21.094994"
       y1="21.101994"
       x2="15.126888"
       y2="27.070099" />
    <linearGradient
       inkscape:collect="always"
       xlink:href="#linearGradient6446"
       id="linearGradient6470"
       gradientUnits="userSpaceOnUse"
       gradientTransform="translate(0.4129032,0.6193548)"
       spreadMethod="reflect"
       x1="21.094994"
       y1="21.101994"
       x2="13.96104"
       y2="28.235947" />
    <linearGradient
       inkscape:collect="always"
       xlink:href="#linearGradient6446"
       id="linearGradient6472"
       gradientUnits="userSpaceOnUse"
       gradientTransform="translate(0.4129032,0.6193548)"
       spreadMethod="reflect"
       x1="21.094994"
       y1="21.101994"
       x2="13.96104"
       y2="28.235947" />
    <linearGradient
       inkscape:collect="always"
       xlink:href="#linearGradient6631"
       id="linearGradient6637"
       x1="55.329033"
       y1="112"
       x2="55.329033"
       y2="74.913147"
       gradientUnits="userSpaceOnUse" />
    <linearGradient
       inkscape:collect="always"
       xlink:href="#linearGradient6643"
       id="linearGradient6649"
       x1="62.038712"
       y1="15.91371"
       x2="62.038712"
       y2="50.728985"
       gradientUnits="userSpaceOnUse" />
    <linearGradient
       inkscape:collect="always"
       xlink:href="#linearGradient6610"
       id="linearGradient6655"
       gradientUnits="userSpaceOnUse"
       x1="59.225807"
       y1="20.283871"
       x2="59.225807"
       y2="117.32368"
       gradientTransform="translate(0,1.6516129)" />
    <linearGradient
       inkscape:collect="always"
       xlink:href="#linearGradient6610"
       id="linearGradient6657"
       gradientUnits="userSpaceOnUse"
       x1="59.225807"
       y1="20.283871"
       x2="59.225807"
       y2="117.32368" />
    <linearGradient
       inkscape:collect="always"
       xlink:href="#linearGradient6674"
       id="linearGradient6680"
       x1="19.096775"
       y1="50.580647"
       x2="80.047699"
       y2="66.897575"
       gradientUnits="userSpaceOnUse" />
    <linearGradient
       inkscape:collect="always"
       xlink:href="#linearGradient6446"
       id="linearGradient2816"
       gradientUnits="userSpaceOnUse"
       x1="59.225807"
       y1="-31.712746"
       x2="59.225807"
       y2="98.167175" />
    <linearGradient
       inkscape:collect="always"
       xlink:href="#linearGradient6446"
       id="linearGradient3209"
       gradientUnits="userSpaceOnUse"
       gradientTransform="translate(0.2623629,1)"
       x1="59.225807"
       y1="7.8973217"
       x2="59.225807"
       y2="46.228859" />
    <linearGradient
       inkscape:collect="always"
       xlink:href="#linearGradient6446"
       id="linearGradient3225"
       gradientUnits="userSpaceOnUse"
       gradientTransform="translate(0.2332229,1.9150941)"
       x1="92.848534"
       y1="60.664852"
       x2="31.376678"
       y2="21.03125" />
    <linearGradient
       inkscape:collect="always"
       xlink:href="#linearGradient6446"
       id="linearGradient3231"
       gradientUnits="userSpaceOnUse"
       gradientTransform="translate(0.2623629,1)"
       x1="59.225807"
       y1="7.8973217"
       x2="59.225807"
       y2="46.228859" />
    <linearGradient
       inkscape:collect="always"
       xlink:href="#linearGradient6446"
       id="linearGradient3233"
       gradientUnits="userSpaceOnUse"
       gradientTransform="translate(0.2332229,1.9150941)"
       x1="115.76678"
       y1="71.084908"
       x2="31.376678"
       y2="21.03125" />
    <linearGradient
       inkscape:collect="always"
       xlink:href="#linearGradient3237"
       id="linearGradient3243"
       x1="-60.945251"
       y1="105.83054"
       x2="-59.415245"
       y2="45.631207"
       gradientUnits="userSpaceOnUse" />
    <filter
       inkscape:collect="always"
       id="filter3281">
      <feGaussianBlur
         inkscape:collect="always"
         stdDeviation="0.32872878"
         id="feGaussianBlur3283" />
    </filter>
    <linearGradient
       inkscape:collect="always"
       xlink:href="#linearGradient6674"
       id="linearGradient3289"
       gradientUnits="userSpaceOnUse"
       x1="60.402065"
       y1="64.076149"
       x2="60.402065"
       y2="-20.962214" />
    <filter
       inkscape:collect="always"
       id="filter3319">
      <feGaussianBlur
         inkscape:collect="always"
         stdDeviation="1.6179775"
         id="feGaussianBlur3321" />
    </filter>
    <radialGradient
       inkscape:collect="always"
       xlink:href="#linearGradient2990"
       id="radialGradient2996"
       cx="64"
       cy="81.325775"
       fx="66.881805"
       fy="105.27442"
       r="43.474762"
       gradientTransform="matrix(0.712348,-0.1260581,0.1345724,0.7604617,7.4655205,20.174132)"
       gradientUnits="userSpaceOnUse"
       spreadMethod="reflect" />
    <radialGradient
       inkscape:collect="always"
       xlink:href="#linearGradient2990"
       id="radialGradient3000"
       gradientUnits="userSpaceOnUse"
       gradientTransform="matrix(0.712348,-0.1260581,0.1345724,0.7604617,-100.53448,20.174132)"
       spreadMethod="reflect"
       cx="64"
       cy="81.325775"
       fx="66.881805"
       fy="105.27442"
       r="43.474762" />
    <filter
       inkscape:collect="always"
       id="filter3035">
      <feGaussianBlur
         inkscape:collect="always"
         stdDeviation="0.60200945"
         id="feGaussianBlur3037" />
    </filter>
    <filter
       inkscape:collect="always"
       id="filter3104">
      <feGaussianBlur
         inkscape:collect="always"
         stdDeviation="0.4217763"
         id="feGaussianBlur3106" />
    </filter>
    <clipPath
       clipPathUnits="userSpaceOnUse"
       id="clipPath3108">
      <path
         style="fill:url(#radialGradient3112);fill-opacity:1;stroke:none;stroke-width:16.49500084;stroke-linecap:round;stroke-linejoin:round;stroke-miterlimit:4;stroke-dasharray:none;stroke-dashoffset:4.15;stroke-opacity:1"
         d="M -166.22608,25.639042 C -168.37082,25.690988 -170.41095,26.576535 -171.91358,28.107792 C -188.83826,45.032475 -188.83826,72.745609 -171.91358,89.670296 C -154.9889,106.59499 -127.27576,106.59498 -110.35108,89.670296 C -93.426397,72.745608 -93.426407,45.032476 -110.35108,28.107792 C -113.57849,24.889007 -118.78854,24.911628 -122.00733,28.139042 C -125.22611,31.366456 -125.23474,36.576507 -122.00733,39.795292 C -111.39346,50.409165 -111.39346,67.400168 -122.00733,78.014046 C -132.62121,88.627926 -149.64346,88.627916 -160.25733,78.014046 C -170.8712,67.400167 -170.8712,50.409167 -160.25733,39.795292 C -157.82392,37.426791 -157.09428,33.799307 -158.41358,30.670292 C -159.73287,27.541276 -162.83146,25.550254 -166.22608,25.639042 z M -141.25733,26.357792 C -145.38715,26.426713 -148.68411,29.821465 -148.63233,33.951542 L -148.63233,65.951542 C -148.67058,68.656311 -147.24981,71.181744 -144.91358,72.545292 C -142.57735,73.908838 -139.68731,73.90884 -137.35108,72.545292 C -135.01484,71.181742 -133.59407,68.656311 -133.63233,65.951542 L -133.63233,33.951542 C -133.60691,31.924427 -134.41464,29.975845 -135.85108,28.545292 C -137.28752,27.114738 -139.23033,26.324051 -141.25733,26.357792 z"
         id="path3110" />
    </clipPath>
    <radialGradient
       inkscape:collect="always"
       xlink:href="#linearGradient2990"
       id="radialGradient3112"
       gradientUnits="userSpaceOnUse"
       gradientTransform="matrix(0.712348,-0.1260581,0.1345724,0.7604617,-197.66681,20.174132)"
       spreadMethod="reflect"
       cx="64"
       cy="81.325775"
       fx="66.881805"
       fy="105.27442"
       r="43.474762" />
    <clipPath
       clipPathUnits="userSpaceOnUse"
       id="clipPath3114">
      <path
         id="path3116"
         d="M -69.09375,25.639042 C -71.238499,25.690988 -73.27862,26.576535 -74.78125,28.107792 C -91.705938,45.032475 -91.705939,72.745609 -74.78125,89.670296 C -57.856572,106.59499 -30.143439,106.59498 -13.21875,89.670296 C 3.70593,72.745608 3.70592,45.032476 -13.21875,28.107792 C -16.446164,24.889007 -21.656215,24.911628 -24.875,28.139042 C -28.093785,31.366456 -28.102414,36.576507 -24.875,39.795292 C -14.261134,50.409165 -14.261131,67.400168 -24.875,78.014046 C -35.488884,88.627926 -52.51113,88.627916 -63.125,78.014046 C -73.738879,67.400167 -73.738878,50.409167 -63.125,39.795292 C -60.691591,37.426791 -59.961952,33.799307 -61.28125,30.670292 C -62.600548,27.541276 -65.699137,25.550254 -69.09375,25.639042 z M -44.125,26.357792 C -48.254827,26.426713 -51.551787,29.821465 -51.5,33.951542 L -51.5,65.951542 C -51.538252,68.656311 -50.117481,71.181744 -47.78125,72.545292 C -45.44502,73.908838 -42.554982,73.90884 -40.21875,72.545292 C -37.882517,71.181742 -36.461748,68.656311 -36.5,65.951542 L -36.5,33.951542 C -36.474583,31.924427 -37.28231,29.975845 -38.71875,28.545292 C -40.155192,27.114738 -42.098006,26.324051 -44.125,26.357792 z"
         style="fill:url(#radialGradient3118);fill-opacity:1;stroke:none;stroke-width:16.49500084;stroke-linecap:round;stroke-linejoin:round;stroke-miterlimit:4;stroke-dasharray:none;stroke-dashoffset:4.15;stroke-opacity:1" />
    </clipPath>
    <radialGradient
       inkscape:collect="always"
       xlink:href="#linearGradient2990"
       id="radialGradient3118"
       gradientUnits="userSpaceOnUse"
       gradientTransform="matrix(0.712348,-0.1260581,0.1345724,0.7604617,-100.53448,20.174132)"
       spreadMethod="reflect"
       cx="64"
       cy="81.325775"
       fx="66.881805"
       fy="105.27442"
       r="43.474762" />
    <radialGradient
       inkscape:collect="always"
       xlink:href="#linearGradient2990"
       id="radialGradient3275"
       cx="133.43137"
       cy="-30.769413"
       fx="133.43137"
       fy="-30.769413"
       r="41.339077"
       gradientTransform="matrix(0.6666541,-0.2880173,0.2879365,0.6664669,-15.943975,130.71795)"
       gradientUnits="userSpaceOnUse" />
    <radialGradient
       inkscape:collect="always"
       xlink:href="#linearGradient2990"
       id="radialGradient3279"
       gradientUnits="userSpaceOnUse"
       gradientTransform="matrix(0.6666541,-0.2880173,0.2879365,0.6664669,-145.85738,-4.7267073)"
       cx="133.43137"
       cy="-30.769413"
       fx="133.43137"
       fy="-30.769413"
       r="41.339077" />
    <radialGradient
       inkscape:collect="always"
       xlink:href="#linearGradient2990"
       id="radialGradient3283"
       gradientUnits="userSpaceOnUse"
       gradientTransform="matrix(0.6666541,-0.2880173,0.2879365,0.6664669,-245.02745,-4.7267073)"
       cx="133.43137"
       cy="-30.769413"
       fx="133.43137"
       fy="-30.769413"
       r="41.339077" />
    <radialGradient
       inkscape:collect="always"
       xlink:href="#linearGradient2990"
       id="radialGradient3287"
       gradientUnits="userSpaceOnUse"
       gradientTransform="matrix(0.6666541,-0.2880173,0.2879365,0.6664669,-145.85738,103.27357)"
       cx="133.43137"
       cy="-30.769413"
       fx="133.43137"
       fy="-30.769413"
       r="41.339077" />
    <radialGradient
       inkscape:collect="always"
       xlink:href="#linearGradient2990"
       id="radialGradient3291"
       gradientUnits="userSpaceOnUse"
       gradientTransform="matrix(0.6666541,-0.2880173,0.2879365,0.6664669,-145.85738,105.27357)"
       cx="133.43137"
       cy="-30.769413"
       fx="133.43137"
       fy="-30.769413"
       r="41.339077" />
    <radialGradient
       inkscape:collect="always"
       xlink:href="#linearGradient2990"
       id="radialGradient3295"
       gradientUnits="userSpaceOnUse"
       gradientTransform="matrix(0.6666541,-0.2880173,0.2879365,0.6664669,-245.02745,103.95282)"
       cx="133.43137"
       cy="-30.769413"
       fx="133.43137"
       fy="-30.769413"
       r="41.339077" />
    <radialGradient
       inkscape:collect="always"
       xlink:href="#linearGradient2990"
       id="radialGradient3299"
       gradientUnits="userSpaceOnUse"
       gradientTransform="matrix(0.6666541,-0.2880173,0.2879365,0.6664669,-245.02745,101.95282)"
       cx="133.43137"
       cy="-30.769413"
       fx="133.43137"
       fy="-30.769413"
       r="41.339077" />
    <filter
       inkscape:collect="always"
       id="filter3303">
      <feGaussianBlur
         inkscape:collect="always"
         stdDeviation="0.3126387"
         id="feGaussianBlur3305" />
    </filter>
    <clipPath
       clipPathUnits="userSpaceOnUse"
       id="clipPath3317">
      <path
         id="path3319"
         d="M -65.866872,-114.96307 C -67.952442,-114.93759 -69.943952,-114.08328 -71.398122,-112.58807 C -72.852292,-111.09285 -73.649452,-109.07979 -73.616872,-106.99432 L -73.616872,-55.494315 L -93.648122,-75.525565 C -95.125582,-77.044185 -97.154372,-77.900785 -99.273122,-77.900565 C -102.46492,-77.898395 -105.32235,-75.951635 -106.52312,-72.994315 C -107.72389,-70.036995 -107.02869,-66.658475 -104.74187,-64.431815 L -71.273122,-30.963066 C -68.209142,-27.900886 -63.243352,-27.900886 -60.179372,-30.963066 L -26.741872,-64.369315 C -23.669792,-67.432765 -23.647172,-72.422225 -26.710622,-75.494315 C -29.774072,-78.566395 -34.763542,-78.557765 -37.835622,-75.494315 L -57.929372,-55.431815 L -57.929372,-106.99432 C -57.896302,-109.11229 -58.715752,-111.14981 -60.210622,-112.65057 C -61.705492,-114.15132 -63.748782,-114.98781 -65.866872,-114.96307 z"
         style="fill:url(#radialGradient3321);fill-opacity:1;fill-rule:evenodd;stroke:none;stroke-width:15.69199753;stroke-linecap:round;stroke-linejoin:round;stroke-miterlimit:4;stroke-dasharray:none;stroke-opacity:1" />
    </clipPath>
    <radialGradient
       inkscape:collect="always"
       xlink:href="#linearGradient2990"
       id="radialGradient3321"
       gradientUnits="userSpaceOnUse"
       gradientTransform="matrix(0.6666541,-0.2880173,0.2879365,0.6664669,-145.85738,-4.7267073)"
       cx="133.43137"
       cy="-30.769413"
       fx="133.43137"
       fy="-30.769413"
       r="41.339077" />
    <clipPath
       clipPathUnits="userSpaceOnUse"
       id="clipPath3323">
      <path
         style="fill:url(#radialGradient3327);fill-opacity:1;fill-rule:evenodd;stroke:none;stroke-width:15.69199753;stroke-linecap:round;stroke-linejoin:round;stroke-miterlimit:4;stroke-dasharray:none;stroke-opacity:1"
         d="M -165.03694,-114.96307 C -167.12251,-114.93759 -169.11402,-114.08328 -170.56819,-112.58807 C -172.02236,-111.09285 -172.81952,-109.07979 -172.78694,-106.99432 L -172.78694,-55.494315 L -192.81819,-75.525565 C -194.29565,-77.044185 -196.32444,-77.900785 -198.44319,-77.900565 C -201.63499,-77.898395 -204.49242,-75.951635 -205.69319,-72.994315 C -206.89396,-70.036995 -206.19876,-66.658475 -203.91194,-64.431815 L -170.44319,-30.963066 C -167.37921,-27.900886 -162.41342,-27.900886 -159.34944,-30.963066 L -125.91194,-64.369315 C -122.83986,-67.432765 -122.81724,-72.422225 -125.88069,-75.494315 C -128.94414,-78.566395 -133.93361,-78.557765 -137.00569,-75.494315 L -157.09944,-55.431815 L -157.09944,-106.99432 C -157.06637,-109.11229 -157.88582,-111.14981 -159.38069,-112.65057 C -160.87556,-114.15132 -162.91885,-114.98781 -165.03694,-114.96307 z"
         id="path3325" />
    </clipPath>
    <radialGradient
       inkscape:collect="always"
       xlink:href="#linearGradient2990"
       id="radialGradient3327"
       gradientUnits="userSpaceOnUse"
       gradientTransform="matrix(0.6666541,-0.2880173,0.2879365,0.6664669,-245.02745,-4.7267073)"
       cx="133.43137"
       cy="-30.769413"
       fx="133.43137"
       fy="-30.769413"
       r="41.339077" />
    <filter
       inkscape:collect="always"
       id="filter3365">
      <feGaussianBlur
         inkscape:collect="always"
         stdDeviation="0.38602226"
         id="feGaussianBlur3367" />
    </filter>
    <filter
       inkscape:collect="always"
       id="filter3479">
      <feGaussianBlur
         inkscape:collect="always"
         stdDeviation="1.2545724"
         id="feGaussianBlur3481" />
    </filter>
    <filter
       inkscape:collect="always"
       id="filter3545">
      <feGaussianBlur
         inkscape:collect="always"
         stdDeviation="0.66746364"
         id="feGaussianBlur3547" />
    </filter>
  </defs>
  <sodipodi:namedview
     id="base"
     pagecolor="#ffffff"
     bordercolor="#666666"
     borderopacity="1.0"
     gridtolerance="10000"
     guidetolerance="10"
     objecttolerance="10"
     inkscape:pageopacity="0.0"
     inkscape:pageshadow="2"
     inkscape:zoom="0.52050781"
     inkscape:cx="-240.87972"
     inkscape:cy="-47.806063"
     inkscape:document-units="px"
     inkscape:current-layer="layer1"
     width="128px"
     height="128px"
     showgrid="false"
     borderlayer="true"
     inkscape:showpageshadow="false"
     showborder="true"
     inkscape:window-width="986"
     inkscape:window-height="750"
     inkscape:window-x="253"
     inkscape:window-y="360"
     showguides="true"
     inkscape:guide-bbox="true">
    <inkscape:grid
       type="xygrid"
       id="grid3285"
       spacingx="4px"
       spacingy="4px"
       empspacing="2" />
    <inkscape:grid
       id="GridFromPre046Settings"
       type="xygrid"
       originx="0px"
       originy="0px"
       spacingx="4px"
       spacingy="4px"
       color="#0000ff"
       empcolor="#0000ff"
       opacity="0.2"
       empopacity="0.4"
       empspacing="2" />
    <sodipodi:guide
       orientation="0,1"
       position="162.67967,-73.358681"
       id="guide3258" />
  </sodipodi:namedview>
  <metadata
     id="metadata7">
    <rdf:RDF>
      <cc:Work
         rdf:about="">
        <dc:format>image/svg+xml</dc:format>
        <dc:type
           rdf:resource="http://purl.org/dc/dcmitype/StillImage" />
      </cc:Work>
    </rdf:RDF>
  </metadata>
  <g
     inkscape:label="Layer 1"
     inkscape:groupmode="layer"
     id="layer1">
    <path
       style="fill:url(#linearGradient3289);fill-opacity:1;stroke:none;stroke-width:3;stroke-linecap:round;stroke-linejoin:round;stroke-miterlimit:4;stroke-opacity:1;filter:url(#filter3319)"
       d="M 18.083601,8 L 109.9164,8 C 115.50271,8 120,12.497286 120,18.083601 L 120,109.9164 C 120,115.50271 115.50271,120 109.9164,120 L 18.083601,120 C 12.497286,120 8,115.50271 8,109.9164 L 8,18.083601 C 8,12.497286 12.497286,8 18.083601,8 z"
       id="rect3287"
       sodipodi:nodetypes="ccccccccc" />
    <path
       style="fill:url(#linearGradient6410);fill-opacity:1;stroke:none;stroke-width:3;stroke-linecap:round;stroke-linejoin:round;stroke-miterlimit:4;stroke-opacity:1"
       d="M 18.083601,8 L 109.9164,8 C 115.50271,8 120,12.497286 120,18.083601 L 120,109.9164 C 120,115.50271 115.50271,120 109.9164,120 L 18.083601,120 C 12.497286,120 8,115.50271 8,109.9164 L 8,18.083601 C 8,12.497286 12.497286,8 18.083601,8 z"
       id="rect8666"
       sodipodi:nodetypes="ccccccccc" />
    <path
       style="opacity:0.08290154;fill:url(#linearGradient6680);fill-opacity:1;stroke:none;stroke-width:3;stroke-linecap:round;stroke-linejoin:round;stroke-miterlimit:4;stroke-opacity:1"
       d="M 18.083601,8 L 109.9164,8 C 115.50271,8 120,12.497286 120,18.083601 L 120,109.9164 C 120,115.50271 115.50271,120 109.9164,120 L 18.083601,120 C 12.497286,120 8,115.50271 8,109.9164 L 8,18.083601 C 8,12.497286 12.497286,8 18.083601,8 z"
       id="rect6672"
       sodipodi:nodetypes="ccccccccc" />
    <path
       transform="scale(-1,1)"
       style="fill:url(#radialGradient9692);fill-opacity:1;stroke:none;stroke-width:3;stroke-linecap:round;stroke-linejoin:round;stroke-miterlimit:4;stroke-opacity:1"
       d="M -109.38386,12.614708 L -19.616139,12.614708 C -15.737346,12.614708 -12.614708,15.737346 -12.614708,19.616139 L -12.614708,108.38386 C -12.614708,112.26265 -15.737346,115.38529 -19.616139,115.38529 L -109.38386,115.38529 C -113.26265,115.38529 -116.38529,112.26265 -116.38529,108.38386 L -116.38529,19.616139 C -116.38529,15.737346 -113.26265,12.614708 -109.38386,12.614708 z"
       id="rect9641"
       sodipodi:nodetypes="ccccccccc" />
    <path
       style="opacity:0.8876405;fill:url(#linearGradient6452);fill-opacity:1;stroke:none;stroke-width:3;stroke-linecap:round;stroke-linejoin:round;stroke-miterlimit:4;stroke-dasharray:none;stroke-opacity:1;filter:url(#filter6458)"
       d="M 17.906944,8.299378 C 13.216769,8.299378 8.509435,11.867379 8.509435,17.698118 L 12.77674,17.639205 C 13.229113,15.50937 15.628704,13.368243 17.303345,13.03582 L 17.906944,8.299378 z"
       id="rect6433"
       sodipodi:nodetypes="ccccc" />
    <path
       sodipodi:nodetypes="ccccc"
       id="path6462"
       d="M 25.397509,16.46919 C 20.707334,16.46919 16.429601,20.123899 16.429601,25.954638 L 20.77674,25.639205 C 21.229113,23.50937 23.628704,21.368243 25.303345,21.03582 L 25.397509,16.46919 z"
       style="opacity:0.8689139;fill:url(#linearGradient6464);fill-opacity:1;stroke:none;stroke-width:3;stroke-linecap:round;stroke-linejoin:round;stroke-miterlimit:4;stroke-dasharray:none;stroke-opacity:1;filter:url(#filter6458)"
       transform="matrix(-1,0,0,1,135.86741,-8)" />
    <path
       style="opacity:0.08290155;fill:url(#linearGradient6637);fill-opacity:1.0;stroke:none;stroke-width:3;stroke-linecap:round;stroke-linejoin:round;stroke-miterlimit:4;stroke-dasharray:none;stroke-opacity:1"
       d="M 8,105.875 L 8,109.90625 C 8,115.49256 12.507435,120 18.09375,120 L 109.90625,120 C 115.49256,120 120,115.49257 120,109.90625 L 120,105.875 C 120,111.46131 115.49256,115.96875 109.90625,115.96875 L 18.09375,115.96875 C 12.507435,115.96875 8,111.46131 8,105.875 z"
       id="rect6626"
       sodipodi:nodetypes="ccccccccc" />
    <path
       sodipodi:nodetypes="ccccc"
       id="path6466"
       d="M 26.246568,16.978625 C 21.556393,16.978625 16.769225,20.633334 16.769225,26.464073 L 20.77674,25.639205 C 21.229113,23.50937 23.628704,21.368243 25.303345,21.03582 L 26.246568,16.978625 z"
       style="opacity:0.32642487;fill:url(#linearGradient6470);fill-opacity:1;stroke:none;stroke-width:3;stroke-linecap:round;stroke-linejoin:round;stroke-miterlimit:4;stroke-dasharray:none;stroke-opacity:1;filter:url(#filter6458)"
       transform="matrix(1,0,0,-1,-8,136.08786)" />
    <path
       transform="matrix(-1,0,0,-1,135.86741,136.08786)"
       style="opacity:0.17616583;fill:url(#linearGradient6472);fill-opacity:1;stroke:none;stroke-width:3;stroke-linecap:round;stroke-linejoin:round;stroke-miterlimit:4;stroke-dasharray:none;stroke-opacity:1;filter:url(#filter6458)"
       d="M 26.246568,16.978625 C 21.556393,16.978625 16.769225,20.633334 16.769225,26.464073 L 20.77674,25.639205 C 21.229113,23.50937 23.628704,21.368243 25.303345,21.03582 L 26.246568,16.978625 z"
       id="path6468"
       sodipodi:nodetypes="ccccc" />
    <path
       id="path6639"
       d="M 8,22.03871 L 8,18.00746 C 8,12.42115 12.507435,7.91371 18.09375,7.91371 L 109.90625,7.91371 C 115.49256,7.91371 120,12.42114 120,18.00746 L 120,22.03871 C 120,16.4524 115.49256,11.94496 109.90625,11.94496 L 18.09375,11.94496 C 12.507435,11.94496 8,16.4524 8,22.03871 z"
       style="opacity:0.38860103;fill:url(#linearGradient6649);fill-opacity:1;stroke:none;stroke-width:3;stroke-linecap:round;stroke-linejoin:round;stroke-miterlimit:4;stroke-dasharray:none;stroke-opacity:1"
       sodipodi:nodetypes="ccccccccc" />
    <g
       id="g3227"
       transform="translate(0,-1)">
      <path
         id="path3207"
         d="M 19.441303,13.28125 C 15.451078,13.28125 12.253803,16.478525 12.253803,20.46875 L 12.253803,21.46875 C 12.253803,17.478525 15.451078,14.28125 19.441303,14.28125 L 109.0663,14.28125 C 113.05653,14.28125 116.2538,17.478525 116.2538,21.46875 L 116.2538,20.46875 C 116.2538,16.478525 113.05653,13.28125 109.0663,13.28125 L 19.441303,13.28125 z"
         style="opacity:1;fill:url(#linearGradient3231);fill-opacity:1;stroke:none;stroke-width:3;stroke-linecap:round;stroke-linejoin:round;stroke-miterlimit:4;stroke-dasharray:none;stroke-opacity:1"
         sodipodi:nodetypes="ccccccccc" />
      <path
         id="path3215"
         d="M 112.21077,14.946344 C 113.80613,16.261139 114.83577,18.233092 114.83577,20.477594 L 114.83577,54.977594 C 114.6424,55.305632 114.39903,55.644913 114.11702,55.977594 C 86.869243,66.464121 40.804813,69.465921 12.242023,62.602594 L 12.242023,63.165094 C 41.223093,70.471727 87.827513,67.54278 115.52327,56.883844 C 115.80529,56.551161 116.04865,56.211882 116.24202,55.883844 L 116.24202,21.383844 C 116.24202,18.530833 114.60098,16.10976 112.21077,14.946344 z"
         style="opacity:1;fill:url(#linearGradient3233);fill-opacity:1;stroke:none;stroke-width:3;stroke-linecap:round;stroke-linejoin:round;stroke-miterlimit:4;stroke-dasharray:none;stroke-opacity:1"
         sodipodi:nodetypes="cccccccccc" />
    </g>
    <path
       transform="scale(-1,1)"
       style="fill:none;fill-opacity:1;stroke:url(#linearGradient3243);stroke-width:1;stroke-linecap:round;stroke-linejoin:round;stroke-miterlimit:4;stroke-opacity:1;filter:url(#filter3281)"
       d="M -109.38386,13.614708 L -19.616139,13.614708 C -15.737346,13.614708 -12.614708,16.737346 -12.614708,20.616139 L -12.614708,108.38386 C -12.614708,112.26265 -15.737346,115.38529 -19.616139,115.38529 L -109.38386,115.38529 C -113.26265,115.38529 -116.38529,112.26265 -116.38529,108.38386 L -116.38529,20.616139 C -116.38529,16.737346 -113.26265,13.614708 -109.38386,13.614708 z"
       id="rect3235"
       sodipodi:nodetypes="ccccccccc" />
    <path
       style="opacity:1;fill:url(#linearGradient2816);fill-opacity:1;stroke:none;stroke-width:3;stroke-linecap:round;stroke-linejoin:round;stroke-miterlimit:4;stroke-dasharray:none;stroke-opacity:1"
       d="M 19.1875,12.28125 C 15.197275,12.28125 12,15.478525 12,19.46875 L 12,61.25 C 40.981077,68.556633 87.585499,65.627686 115.28125,54.96875 C 115.56327,54.636067 115.80663,54.296788 116,53.96875 L 116,19.46875 C 116,15.478525 112.80273,12.28125 108.8125,12.28125 L 19.1875,12.28125 z"
       id="rect9679"
       sodipodi:nodetypes="cccccccc" />
    <g
       id="g3549">
      <path
         id="path3254"
         d="M 64.046538,20.481584 C 61.960968,20.507064 59.969458,21.361374 58.515288,22.856584 C 57.061118,24.351804 56.263958,26.364864 56.296538,28.450334 L 56.296538,79.950339 L 36.265288,59.919089 C 34.787828,58.400469 32.759038,57.543869 30.640288,57.544089 C 27.448488,57.546259 24.591061,59.493019 23.390291,62.450339 C 22.189521,65.407659 22.884721,68.786179 25.171541,71.012839 L 58.640288,104.48159 C 61.704268,107.54377 66.670058,107.54377 69.734038,104.48159 L 103.17154,71.075339 C 106.24362,68.011889 106.26624,63.022429 103.20279,59.950339 C 100.13934,56.878259 95.149868,56.886889 92.077788,59.950339 L 71.984038,80.012839 L 71.984038,28.450334 C 72.017108,26.332364 71.197658,24.294844 69.702788,22.794084 C 68.207918,21.293334 66.164628,20.456844 64.046538,20.481584 z"
         style="fill:url(#radialGradient3275);fill-opacity:1;fill-rule:evenodd;stroke:none;stroke-width:15.69199753;stroke-linecap:round;stroke-linejoin:round;stroke-miterlimit:4;stroke-dasharray:none;stroke-opacity:1" />
      <path
         style="fill:#000000;fill-opacity:1;fill-rule:evenodd;stroke:none;stroke-width:15.69199753000000008;stroke-linecap:round;stroke-linejoin:round;stroke-miterlimit:4;stroke-dasharray:none;stroke-opacity:1;filter:url(#filter3479);opacity:0.84741144000000002"
         d="M -65.8553,-115.93629 C -67.940867,-115.91081 -69.93238,-115.0565 -71.38655,-113.56129 C -72.840717,-112.06607 -73.63788,-110.05301 -73.6053,-107.96754 L -73.6053,-59.138271 C -73.633006,-60.911757 -73.230469,-95.904608 -73.098263,-107.85662 C -73.075413,-109.89302 -71.604093,-111.33761 -71.38655,-111.56129 C -69.932381,-113.0565 -67.940867,-113.91081 -65.8553,-113.93629 C -63.73721,-113.96103 -61.69392,-113.12454 -60.19905,-111.62379 C -59.95884,-111.38263 -58.646637,-110.35154 -58.597512,-108.04623 C -58.293028,-93.757467 -57.890045,-60.915906 -57.9178,-59.138271 L -57.9178,-107.96754 C -57.884731,-110.08551 -58.70418,-112.12303 -60.19905,-113.62379 C -61.693921,-115.12454 -63.73721,-115.96103 -65.8553,-115.93629 z M -99.26155,-78.873793 C -102.45335,-78.871622 -105.31078,-76.924863 -106.51155,-73.967543 C -107.0366,-72.674416 -107.18607,-71.290222 -107.01155,-69.967543 C -106.9276,-70.641679 -106.77553,-71.317406 -106.51155,-71.967543 C -105.31078,-74.924863 -102.45335,-76.871624 -99.26155,-76.873793 C -97.1428,-76.874013 -95.114007,-76.017414 -93.63655,-74.498793 L -73.6053,-54.467543 L -73.6053,-56.467543 L -93.63655,-76.498793 C -95.114007,-78.017414 -97.1428,-78.874013 -99.26155,-78.873793 z M -32.26155,-78.748793 C -34.275859,-78.747714 -36.28801,-77.999268 -37.82405,-76.467543 L -57.9178,-56.405043 L -57.9178,-54.405043 L -37.82405,-74.467543 C -34.75197,-77.530993 -29.762499,-77.539624 -26.69905,-74.467543 C -25.422612,-73.187506 -24.687834,-71.572812 -24.4803,-69.905043 C -24.174337,-72.239079 -24.912038,-74.675491 -26.69905,-76.467543 C -28.230775,-78.003584 -30.247241,-78.749872 -32.26155,-78.748793 z"
         id="path3369"
         sodipodi:nodetypes="csccsssssccsccscssccccccccccscsc"
         clip-path="url(#clipPath3317)"
         transform="translate(129.90218,135.44465)" />
      <path
         transform="translate(129.90218,135.44465)"
         clip-path="url(#clipPath3317)"
         sodipodi:nodetypes="csccsssssccsccscssccccccccccscsc"
         id="path3285"
         d="M -65.8553,-115.93629 C -67.940867,-115.91081 -69.93238,-115.0565 -71.38655,-113.56129 C -72.840717,-112.06607 -73.63788,-110.05301 -73.6053,-107.96754 L -73.6053,-59.138271 C -73.633006,-60.911757 -73.230469,-95.904608 -73.098263,-107.85662 C -73.075413,-109.89302 -71.604093,-111.33761 -71.38655,-111.56129 C -69.932381,-113.0565 -67.940867,-113.91081 -65.8553,-113.93629 C -63.73721,-113.96103 -61.69392,-113.12454 -60.19905,-111.62379 C -59.95884,-111.38263 -58.646637,-110.35154 -58.597512,-108.04623 C -58.293028,-93.757467 -57.890045,-60.915906 -57.9178,-59.138271 L -57.9178,-107.96754 C -57.884731,-110.08551 -58.70418,-112.12303 -60.19905,-113.62379 C -61.693921,-115.12454 -63.73721,-115.96103 -65.8553,-115.93629 z M -99.26155,-78.873793 C -102.45335,-78.871622 -105.31078,-76.924863 -106.51155,-73.967543 C -107.0366,-72.674416 -107.18607,-71.290222 -107.01155,-69.967543 C -106.9276,-70.641679 -106.77553,-71.317406 -106.51155,-71.967543 C -105.31078,-74.924863 -102.45335,-76.871624 -99.26155,-76.873793 C -97.1428,-76.874013 -95.114007,-76.017414 -93.63655,-74.498793 L -73.6053,-54.467543 L -73.6053,-56.467543 L -93.63655,-76.498793 C -95.114007,-78.017414 -97.1428,-78.874013 -99.26155,-78.873793 z M -32.26155,-78.748793 C -34.275859,-78.747714 -36.28801,-77.999268 -37.82405,-76.467543 L -57.9178,-56.405043 L -57.9178,-54.405043 L -37.82405,-74.467543 C -34.75197,-77.530993 -29.762499,-77.539624 -26.69905,-74.467543 C -25.422612,-73.187506 -24.687834,-71.572812 -24.4803,-69.905043 C -24.174337,-72.239079 -24.912038,-74.675491 -26.69905,-76.467543 C -28.230775,-78.003584 -30.247241,-78.749872 -32.26155,-78.748793 z"
         style="fill:#000000;fill-opacity:1;fill-rule:evenodd;stroke:none;stroke-width:15.69199753000000008;stroke-linecap:round;stroke-linejoin:round;stroke-miterlimit:4;stroke-dasharray:none;stroke-opacity:1;filter:url(#filter3365);opacity:0.46866485" />
      <path
         transform="translate(228.99617,135.44465)"
         clip-path="url(#clipPath3323)"
         id="path3293"
         d="M -206.02976,-69.977386 C -206.3509,-67.564116 -205.54887,-65.105385 -203.74851,-63.352386 L -170.27976,-29.883636 C -167.21578,-26.821456 -162.24999,-26.821456 -159.18601,-29.883636 L -125.74851,-63.289886 C -123.94859,-65.084753 -123.19746,-67.539461 -123.49851,-69.883636 C -123.71158,-68.205049 -124.46026,-66.574517 -125.74851,-65.289886 L -159.18601,-31.883636 C -162.24999,-28.821456 -167.21578,-28.821456 -170.27976,-31.883636 L -203.74851,-65.352386 C -205.0463,-66.616036 -205.81281,-68.259302 -206.02976,-69.977386 z"
         style="fill:#ffffff;fill-opacity:1;fill-rule:evenodd;stroke:none;stroke-width:15.69199753;stroke-linecap:round;stroke-linejoin:round;stroke-miterlimit:4;stroke-dasharray:none;stroke-opacity:1;filter:url(#filter3303)" />
      <path
         style="fill:#ffffff;fill-opacity:1;fill-rule:evenodd;stroke:none;stroke-width:15.69199753000000008;stroke-linecap:round;stroke-linejoin:round;stroke-miterlimit:4;stroke-dasharray:none;stroke-opacity:1;filter:url(#filter3545)"
         d="M -206.02976,-69.977386 C -206.3509,-67.564116 -205.54887,-65.105385 -203.74851,-63.352386 L -170.27976,-29.883636 C -167.21578,-26.821456 -162.24999,-26.821456 -159.18601,-29.883636 L -125.74851,-63.289886 C -123.94859,-65.084753 -123.19746,-67.539461 -123.49851,-69.883636 C -123.71158,-68.205049 -124.46026,-66.574517 -125.74851,-65.289886 L -159.18601,-31.883636 C -162.24999,-28.821456 -167.21578,-28.821456 -170.27976,-31.883636 L -203.74851,-65.352386 C -205.0463,-66.616036 -205.81281,-68.259302 -206.02976,-69.977386 z"
         id="path3483"
         clip-path="url(#clipPath3323)"
         transform="translate(228.99617,135.44465)" />
    </g>
  </g>
</svg>
