<?xml version="1.0" encoding="UTF-8" standalone="no"?>
<!-- Created with Inkscape (http://www.inkscape.org/) -->
<svg
   xmlns:dc="http://purl.org/dc/elements/1.1/"
   xmlns:cc="http://creativecommons.org/ns#"
   xmlns:rdf="http://www.w3.org/1999/02/22-rdf-syntax-ns#"
   xmlns:svg="http://www.w3.org/2000/svg"
   xmlns="http://www.w3.org/2000/svg"
   xmlns:xlink="http://www.w3.org/1999/xlink"
   xmlns:sodipodi="http://sodipodi.sourceforge.net/DTD/sodipodi-0.dtd"
   xmlns:inkscape="http://www.inkscape.org/namespaces/inkscape"
   width="128"
   height="128"
   id="svg2"
   sodipodi:version="0.32"
   inkscape:version="0.46"
   version="1.0"
   sodipodi:docbase="/home/johann/Developpement/KDE Digikam/histo"
   sodipodi:docname="histogram-logarithmic.svgz"
   inkscape:output_extension="org.inkscape.output.svgz.inkscape"
   inkscape:export-filename="F:\histo\ox32-action-histogram-logarithmic.png"
   inkscape:export-xdpi="22.5"
   inkscape:export-ydpi="22.5">
  <defs
     id="defs4">
    <linearGradient
       id="linearGradient2429">
      <stop
         id="stop2431"
         offset="0"
         style="stop-color:#4d2600;stop-opacity:1" />
      <stop
         id="stop2433"
         offset="1"
         style="stop-color:#ff7e00;stop-opacity:1" />
    </linearGradient>
    <inkscape:perspective
       sodipodi:type="inkscape:persp3d"
       inkscape:vp_x="0 : 64 : 1"
       inkscape:vp_y="0 : 1000 : 0"
       inkscape:vp_z="128 : 64 : 1"
       inkscape:persp3d-origin="64 : 42.666667 : 1"
       id="perspective56" />
    <linearGradient
       id="linearGradient8114">
      <stop
         id="stop8116"
         offset="0"
         style="stop-color:#803f00;stop-opacity:1" />
      <stop
         id="stop8118"
         offset="1"
         style="stop-color:#4d2600;stop-opacity:1" />
    </linearGradient>
    <linearGradient
       inkscape:collect="always"
       id="linearGradient4151">
      <stop
         style="stop-color:#000000;stop-opacity:1;"
         offset="0"
         id="stop4153" />
      <stop
         style="stop-color:#000000;stop-opacity:0;"
         offset="1"
         id="stop4155" />
    </linearGradient>
    <linearGradient
       id="linearGradient4209">
      <stop
         style="stop-color:#000000;stop-opacity:1;"
         offset="0"
         id="stop4211" />
      <stop
         style="stop-color:#ffffff;stop-opacity:1;"
         offset="1"
         id="stop4213" />
    </linearGradient>
    <linearGradient
       inkscape:collect="always"
       xlink:href="#linearGradient4209"
       id="linearGradient4215"
       x1="11.892858"
       y1="112.46429"
       x2="138.14285"
       y2="112.46429"
       gradientUnits="userSpaceOnUse"
       gradientTransform="matrix(1.0138614,0,0,1,-12.057698,-35.494918)" />
    <linearGradient
       inkscape:collect="always"
       xlink:href="#linearGradient2429"
       id="linearGradient5192"
       x1="87.487602"
       y1="70.458733"
       x2="86.81604"
       y2="137.80516"
       gradientUnits="userSpaceOnUse"
       gradientTransform="matrix(1.0143457,0,0,1,-12.172148,-40.92857)" />
    <linearGradient
       inkscape:collect="always"
       xlink:href="#linearGradient4209"
       id="linearGradient3168"
       x1="-120.71322"
       y1="108.30202"
       x2="-119.70308"
       y2="248.20816"
       gradientUnits="userSpaceOnUse"
       gradientTransform="matrix(1.0143533,0,0,1,6.2702757,-71.27607)" />
    <filter
       inkscape:collect="always"
       x="-0.027442632"
       width="1.0548853"
       y="-0.39341757"
       height="1.7868351"
       id="filter7232">
      <feGaussianBlur
         inkscape:collect="always"
         stdDeviation="1.4636071"
         id="feGaussianBlur7234" />
    </filter>
    <filter
       inkscape:collect="always"
       x="-0.67257855"
       width="2.3451571"
       y="-0.025133399"
       height="1.0502668"
       id="filter8275">
      <feGaussianBlur
         inkscape:collect="always"
         stdDeviation="0.58644597"
         id="feGaussianBlur8277" />
    </filter>
    <filter
       inkscape:collect="always"
       x="-0.6662484"
       width="2.3324968"
       y="-0.024896849"
       height="1.0497937"
       id="filter11188">
      <feGaussianBlur
         inkscape:collect="always"
         stdDeviation="0.58092648"
         id="feGaussianBlur11190" />
    </filter>
    <filter
       inkscape:collect="always"
       x="-0.6662484"
       width="2.3324968"
       y="-0.024896849"
       height="1.0497937"
       id="filter12163">
      <feGaussianBlur
         inkscape:collect="always"
         stdDeviation="0.58092648"
         id="feGaussianBlur12165" />
    </filter>
    <filter
       inkscape:collect="always"
       x="-0.6662484"
       width="2.3324968"
       y="-0.024896849"
       height="1.0497937"
       id="filter15076">
      <feGaussianBlur
         inkscape:collect="always"
         stdDeviation="0.58092648"
         id="feGaussianBlur15078" />
    </filter>
    <filter
       inkscape:collect="always"
       id="filter19074">
      <feGaussianBlur
         inkscape:collect="always"
         stdDeviation="2.0325785"
         id="feGaussianBlur19076" />
    </filter>
    <linearGradient
       inkscape:collect="always"
       xlink:href="#linearGradient4151"
       id="linearGradient2204"
       gradientUnits="userSpaceOnUse"
       gradientTransform="matrix(1,0,0,0.6533911,-154.04826,2.0853907)"
       x1="67.282997"
       y1="48.443272"
       x2="68.798225"
       y2="130.03238" />
    <filter
       inkscape:collect="always"
       id="filter6172">
      <feGaussianBlur
         inkscape:collect="always"
         stdDeviation="0.76146852"
         id="feGaussianBlur6174" />
    </filter>
    <linearGradient
       inkscape:collect="always"
       xlink:href="#linearGradient8114"
       id="linearGradient2435"
       gradientUnits="userSpaceOnUse"
       gradientTransform="translate(0,-9.142857)"
       x1="64"
       y1="59.265377"
       x2="64"
       y2="172.9343" />
  </defs>
  <sodipodi:namedview
     id="base"
     pagecolor="#ffffff"
     bordercolor="#666666"
     borderopacity="1.0"
     inkscape:pageopacity="0.0"
     inkscape:pageshadow="2"
     inkscape:zoom="2.8"
     inkscape:cx="39.120681"
     inkscape:cy="60.246254"
     inkscape:document-units="px"
     inkscape:current-layer="layer1"
     width="128px"
     height="128px"
     showgrid="true"
     inkscape:window-width="946"
     inkscape:window-height="832"
     inkscape:window-x="381"
     inkscape:window-y="55">
    <inkscape:grid
       id="GridFromPre046Settings"
       type="xygrid"
       originx="0px"
       originy="0px"
       spacingx="4px"
       spacingy="4px"
       color="#0000ff"
       empcolor="#0000ff"
       opacity="0.2"
       empopacity="0.4"
       empspacing="4" />
  </sodipodi:namedview>
  <metadata
     id="metadata7">
    <rdf:RDF>
      <cc:Work
         rdf:about="">
        <dc:format>image/svg+xml</dc:format>
        <dc:type
           rdf:resource="http://purl.org/dc/dcmitype/StillImage" />
      </cc:Work>
    </rdf:RDF>
  </metadata>
  <g
     inkscape:label="Calque 1"
     inkscape:groupmode="layer"
     id="layer1">
    <image
       y="-154.92857"
       x="17.197723"
       id="image2177"
       height="57.398384"
       width="126.20042"
       sodipodi:absref="/home/johann/Developpement/KDE Digikam/histo/lin.png"
       xlink:href="lin.png" />
    <path
       id="path2204"
       d="M -155.04845,-52.312164 L -155.04845,-54.022712 L -150.29693,-54.022712 L -145.5454,-54.022712 L -145.5454,-52.502225 L -145.5454,-50.981738 L -143.6448,-50.981738 L -141.74419,-50.981738 L -141.74419,-52.502225 L -141.74419,-54.022712 L -85.48617,-54.022712 L -29.228151,-54.022712 L -29.228151,-52.312164 L -29.228151,-50.601616 L -92.1383,-50.601616 L -155.04845,-50.601616 L -155.04845,-52.312164 z M -155.42857,-81.201417 L -155.42857,-108 L -92.328361,-108 L -29.228151,-108 L -29.228151,-81.201417 L -29.228151,-54.402833 L -92.328361,-54.402833 L -155.42857,-54.402833 L -155.42857,-81.201417 z "
       style="fill:#fdfdfd" />
    <image
       y="-154.91614"
       x="73.799583"
       id="image2187"
       height="57.398384"
       width="126.20042"
       sodipodi:absref="/home/johann/Developpement/KDE Digikam/histo/log.png"
       xlink:href="log.png" />
    <path
       sodipodi:nodetypes="csccsccssssssssssssscccccsssssccsssssccccssssssssssccsc"
       id="path5177"
       d="M 30.525467,11.071503 C 30.245923,11.072893 29.980722,11.086433 29.796405,11.134003 C 29.704242,11.157788 29.67293,11.174136 29.669612,11.196503 L 31.508114,11.227753 C 31.427717,11.271432 31.140008,11.319077 30.65226,11.321503 C 30.016062,11.324667 29.659661,11.263605 29.669612,11.196503 C 25.50974,11.276867 23.081397,10.835581 28.401681,11.290253 C 28.258627,11.431279 26.810294,11.596393 25.168453,11.665253 C 20.549295,11.858986 19.63752,12.022829 18.765396,12.759003 C 18.259146,13.186335 17.903009,13.27093 17.814447,13.009003 C 17.644909,12.507604 16.543857,12.815949 15.944247,13.540253 C 15.567792,13.99499 14.481591,14.270224 12.267244,14.415253 C 11.910417,14.438623 11.494627,14.819851 11.347993,15.290253 C 10.911327,16.691042 9.8860669,17.377806 7.7660844,17.665253 C 6.6647788,17.814579 5.5531878,18.143037 5.2936167,18.384003 C 4.6478335,18.983495 3.3560846,19.05403 3.0113389,18.509003 C 2.8405534,18.23901 2.6247108,18.545444 2.4724677,19.290253 C 2.3335733,19.96972 2.0961658,20.540252 1.9335965,20.540253 C 1.7710273,20.540253 1.5277872,20.955083 1.3947254,21.477753 C 1.2616634,22.00042 0.96878128,22.415253 0.76075929,22.415253 C 0.53031008,22.415253 0.10867991,19.219584 0.10867991,15.74561 L 0,37.446503 L 0,64.259 L 127.99775,64.259 L 128,16.540253 C 127.92815,17.167454 127.44355,18.854049 127.20529,20.290253 C 126.42085,25.018797 125.30192,25.56619 116.23768,25.665253 C 112.63255,25.704655 109.42366,25.845643 109.10556,25.977753 C 108.02644,26.425917 106.22774,26.702004 103.90704,26.790253 C 102.63464,26.83864 100.59577,27.070316 99.374182,27.321503 C 98.152595,27.572689 96.98478,27.699373 96.774921,27.571503 L 95.443593,27.259003 C 95.125483,27.259003 94.785414,27.172634 94.714532,27.102753 C 94.643649,27.032872 93.559993,26.967228 92.305461,26.946503 C 91.050928,26.925778 88.392501,26.681675 86.377878,26.384003 C 79.529583,25.372129 76.934816,25.122477 73.761953,25.196503 C 71.880392,25.240401 70.39892,25.099788 70.148346,24.852753 C 69.884119,24.592264 68.748671,24.515847 67.07361,24.634003 L 64.379255,24.821503 L 64.379255,21.852753 L 63.935478,21.852753 C 63.843781,24.221532 63.626641,24.579533 63.079625,24.040253 C 62.625411,23.592469 58.215106,22.410936 55.789015,22.071503 C 54.175149,21.84571 53.283104,21.476043 52.555787,20.759003 C 52.003284,20.21431 51.348655,19.759002 51.097665,19.759003 C 50.480497,19.759003 48.181422,17.716869 48.181422,17.165253 C 48.181422,16.922567 47.935606,16.727751 47.610852,16.727753 C 47.286099,16.727753 46.920438,16.520337 46.818394,16.259003 C 46.706979,15.97364 45.877295,15.778038 44.726306,15.759003 C 42.599325,15.723832 40.217773,14.662908 39.876466,13.602753 C 39.524397,12.509161 36.990551,11.460577 34.741341,11.477753 C 33.634375,11.486206 32.61726,11.383719 32.490761,11.259003 L 31.539812,11.227753 C 31.5665,11.197977 31.497778,11.168099 31.317924,11.134003 C 31.078112,11.088542 30.805,11.070113 30.525467,11.071503 z "
       style="fill:none;fill-opacity:1;stroke:#ffffff;stroke-opacity:1;filter:url(#filter6172);opacity:0.74346793;stroke-width:2;stroke-miterlimit:4;stroke-dasharray:none" />
    <path
       style="fill:url(#linearGradient5192);fill-opacity:1"
       d="M 30.525467,11.071503 C 30.245923,11.072893 29.980722,11.086433 29.796405,11.134003 C 29.704242,11.157788 29.67293,11.174136 29.669612,11.196503 L 31.508114,11.227753 C 31.427717,11.271432 31.140008,11.319077 30.65226,11.321503 C 30.016062,11.324667 29.659661,11.263605 29.669612,11.196503 C 25.50974,11.276867 23.081397,10.835581 28.401681,11.290253 C 28.258627,11.431279 26.810294,11.596393 25.168453,11.665253 C 20.549295,11.858986 19.63752,12.022829 18.765396,12.759003 C 18.259146,13.186335 17.903009,13.27093 17.814447,13.009003 C 17.644909,12.507604 16.543857,12.815949 15.944247,13.540253 C 15.567792,13.99499 14.481591,14.270224 12.267244,14.415253 C 11.910417,14.438623 11.494627,14.819851 11.347993,15.290253 C 10.911327,16.691042 9.8860669,17.377806 7.7660844,17.665253 C 6.6647788,17.814579 5.5531878,18.143037 5.2936167,18.384003 C 4.6478335,18.983495 3.3560846,19.05403 3.0113389,18.509003 C 2.8405534,18.23901 2.6247108,18.545444 2.4724677,19.290253 C 2.3335733,19.96972 2.0961658,20.540252 1.9335965,20.540253 C 1.7710273,20.540253 1.5277872,20.955083 1.3947254,21.477753 C 1.2616634,22.00042 0.96878128,22.415253 0.76075929,22.415253 C 0.53031008,22.415253 0.10867991,19.219584 0.10867991,15.74561 L 0,37.446503 L 0,64.259 L 127.99775,64.259 L 128,16.540253 C 127.92815,17.167454 127.44355,18.854049 127.20529,20.290253 C 126.42085,25.018797 125.30192,25.56619 116.23768,25.665253 C 112.63255,25.704655 109.42366,25.845643 109.10556,25.977753 C 108.02644,26.425917 106.22774,26.702004 103.90704,26.790253 C 102.63464,26.83864 100.59577,27.070316 99.374182,27.321503 C 98.152595,27.572689 96.98478,27.699373 96.774921,27.571503 L 95.443593,27.259003 C 95.125483,27.259003 94.785414,27.172634 94.714532,27.102753 C 94.643649,27.032872 93.559993,26.967228 92.305461,26.946503 C 91.050928,26.925778 88.392501,26.681675 86.377878,26.384003 C 79.529583,25.372129 76.934816,25.122477 73.761953,25.196503 C 71.880392,25.240401 70.39892,25.099788 70.148346,24.852753 C 69.884119,24.592264 68.748671,24.515847 67.07361,24.634003 L 64.379255,24.821503 L 64.379255,21.852753 L 63.935478,21.852753 C 63.843781,24.221532 63.626641,24.579533 63.079625,24.040253 C 62.625411,23.592469 58.215106,22.410936 55.789015,22.071503 C 54.175149,21.84571 53.283104,21.476043 52.555787,20.759003 C 52.003284,20.21431 51.348655,19.759002 51.097665,19.759003 C 50.480497,19.759003 48.181422,17.716869 48.181422,17.165253 C 48.181422,16.922567 47.935606,16.727751 47.610852,16.727753 C 47.286099,16.727753 46.920438,16.520337 46.818394,16.259003 C 46.706979,15.97364 45.877295,15.778038 44.726306,15.759003 C 42.599325,15.723832 40.217773,14.662908 39.876466,13.602753 C 39.524397,12.509161 36.990551,11.460577 34.741341,11.477753 C 33.634375,11.486206 32.61726,11.383719 32.490761,11.259003 L 31.539812,11.227753 C 31.5665,11.197977 31.497778,11.168099 31.317924,11.134003 C 31.078112,11.088542 30.805,11.070113 30.525467,11.071503 z "
       id="path2218"
       sodipodi:nodetypes="csccsccssssssssssssscccccsssssccsssssccccssssssssssccsc" />
    <rect
       ry="0.67562741"
       rx="0.038576838"
       y="72"
       x="1.8873783e-15"
       height="8.9285717"
       width="128"
       id="rect5232"
       style="opacity:1;fill:#000000;fill-opacity:1;fill-rule:nonzero;stroke:none;stroke-width:1;stroke-linecap:round;stroke-linejoin:round;stroke-miterlimit:4;stroke-dasharray:none;stroke-opacity:1;filter:url(#filter7232)" />
    <rect
       style="opacity:1;fill:url(#linearGradient4215);fill-opacity:1;fill-rule:nonzero;stroke:none;stroke-width:1;stroke-linecap:round;stroke-linejoin:round;stroke-miterlimit:4;stroke-dasharray:none;stroke-opacity:1"
       id="rect2258"
       width="128"
       height="8.9285717"
       x="1.8873783e-15"
       y="72.505074"
       rx="0.038576838"
       ry="0.67562741" />
    <rect
       ry="0.67562741"
       rx="0.038576838"
       y="8"
       x="32"
       height="56"
       width="2.0926483"
       id="rect10217"
       style="opacity:1;fill:#000000;fill-opacity:1;fill-rule:nonzero;stroke:none;stroke-width:1;stroke-linecap:round;stroke-linejoin:round;stroke-miterlimit:4;stroke-dasharray:none;stroke-opacity:1;filter:url(#filter11188)" />
    <rect
       style="opacity:1;fill:#eeeeec;fill-opacity:1;fill-rule:nonzero;stroke:none;stroke-width:1;stroke-linecap:round;stroke-linejoin:round;stroke-miterlimit:4;stroke-dasharray:none;stroke-opacity:1"
       id="rect3170"
       width="2.0926483"
       height="56"
       x="32"
       y="8"
       rx="0.038576838"
       ry="0.67562741" />
    <rect
       style="opacity:1;fill:#000000;fill-opacity:1;fill-rule:nonzero;stroke:none;stroke-width:1;stroke-linecap:round;stroke-linejoin:round;stroke-miterlimit:4;stroke-dasharray:none;stroke-opacity:1;filter:url(#filter12163)"
       id="rect11192"
       width="2.0926483"
       height="56"
       x="64"
       y="8"
       rx="0.038576838"
       ry="0.67562741" />
    <rect
       ry="0.67562741"
       rx="0.038576838"
       y="8"
       x="64"
       height="56"
       width="2.0926483"
       id="rect3172"
       style="opacity:1;fill:#eeeeec;fill-opacity:1;fill-rule:nonzero;stroke:none;stroke-width:1;stroke-linecap:round;stroke-linejoin:round;stroke-miterlimit:4;stroke-dasharray:none;stroke-opacity:1" />
    <rect
       ry="0.67562741"
       rx="0.038576838"
       y="8"
       x="96"
       height="56"
       width="2.0926483"
       id="rect14105"
       style="opacity:1;fill:#000000;fill-opacity:1;fill-rule:nonzero;stroke:none;stroke-width:1;stroke-linecap:round;stroke-linejoin:round;stroke-miterlimit:4;stroke-dasharray:none;stroke-opacity:1;filter:url(#filter15076)" />
    <rect
       style="opacity:1;fill:#eeeeec;fill-opacity:1;fill-rule:nonzero;stroke:none;stroke-width:1;stroke-linecap:round;stroke-linejoin:round;stroke-miterlimit:4;stroke-dasharray:none;stroke-opacity:1"
       id="rect3174"
       width="2.0926483"
       height="56"
       x="96"
       y="8"
       rx="0.038576838"
       ry="0.67562741" />
    <rect
       style="opacity:1;fill:#000000;fill-opacity:1;fill-rule:nonzero;stroke:none;stroke-width:1;stroke-linecap:round;stroke-linejoin:round;stroke-miterlimit:4;stroke-dasharray:none;stroke-opacity:1;filter:url(#filter8275)"
       id="rect7236"
       width="2.0926483"
       height="56"
       x="0"
       y="8"
       rx="0.038576838"
       ry="0.67562741" />
    <rect
       ry="0.67562741"
       rx="0.038576838"
       y="8"
       x="0"
       height="56"
       width="2.0926483"
       id="rect3176"
       style="opacity:1;fill:#eeeeec;fill-opacity:1;fill-rule:nonzero;stroke:none;stroke-width:1;stroke-linecap:round;stroke-linejoin:round;stroke-miterlimit:4;stroke-dasharray:none;stroke-opacity:1" />
  </g>
</svg>
