<?xml version="1.0" encoding="UTF-8" standalone="no"?>
<!-- Created with Inkscape (http://www.inkscape.org/) -->

<svg
   xmlns:dc="http://purl.org/dc/elements/1.1/"
   xmlns:cc="http://creativecommons.org/ns#"
   xmlns:rdf="http://www.w3.org/1999/02/22-rdf-syntax-ns#"
   xmlns:svg="http://www.w3.org/2000/svg"
   xmlns="http://www.w3.org/2000/svg"
   xmlns:xlink="http://www.w3.org/1999/xlink"
   xmlns:sodipodi="http://sodipodi.sourceforge.net/DTD/sodipodi-0.dtd"
   xmlns:inkscape="http://www.inkscape.org/namespaces/inkscape"
   width="128"
   height="128"
   id="svg2"
   sodipodi:version="0.32"
   inkscape:version="0.47pre3 r22311"
   version="1.0"
   sodipodi:docname="emblem-encrypted-locked.svgz"
   inkscape:output_extension="org.inkscape.output.svgz.inkscape"
   inkscape:export-filename="/home/pinheiro/pics/oxygen-icons/scalable/emblems/emblem-encrypted-unlocked.png"
   inkscape:export-xdpi="90"
   inkscape:export-ydpi="90"
   sodipodi:modified="TRUE">
  <defs
     id="defs4">
    <inkscape:perspective
       sodipodi:type="inkscape:persp3d"
       inkscape:vp_x="0 : 64 : 1"
       inkscape:vp_y="0 : 1000 : 0"
       inkscape:vp_z="128 : 64 : 1"
       inkscape:persp3d-origin="64 : 42.666667 : 1"
       id="perspective52" />
    <linearGradient
       inkscape:collect="always"
       id="linearGradient3185">
      <stop
         style="stop-color:#eeeeee;stop-opacity:1;"
         offset="0"
         id="stop3187" />
      <stop
         style="stop-color:#eeeeee;stop-opacity:0;"
         offset="1"
         id="stop3189" />
    </linearGradient>
    <linearGradient
       inkscape:collect="always"
       id="linearGradient3133">
      <stop
         style="stop-color:#646661;stop-opacity:1"
         offset="0"
         id="stop3135" />
      <stop
         style="stop-color:#111111;stop-opacity:1"
         offset="1"
         id="stop3137" />
    </linearGradient>
    <radialGradient
       inkscape:collect="always"
       xlink:href="#linearGradient3133"
       id="radialGradient3139"
       cx="64"
       cy="35.686314"
       fx="64"
       fy="35.686314"
       r="40"
       gradientUnits="userSpaceOnUse"
       gradientTransform="matrix(2.1360441,0,0,1.446027,-72.706823,-26.184217)" />
    <linearGradient
       inkscape:collect="always"
       xlink:href="#linearGradient3185"
       id="linearGradient3191"
       x1="112"
       y1="98.41069"
       x2="61.978939"
       y2="11.771669"
       gradientUnits="userSpaceOnUse" />
    <clipPath
       clipPathUnits="userSpaceOnUse"
       id="clipPath3393">
      <path
         style="opacity:1;fill:#dbdbdb;fill-opacity:1;stroke:none;stroke-width:0.5;stroke-linecap:round;stroke-linejoin:round;stroke-miterlimit:4;stroke-dasharray:none;stroke-opacity:1"
         d="M 13.8125,8 C 10.584167,8 8,10.584167 8,13.8125 L 8,114.1875 C 8,117.41583 10.584167,120 13.8125,120 L 114.1875,120 C 117.41583,120 120,117.41583 120,114.1875 L 120,13.8125 C 120,10.584167 117.41583,8 114.1875,8 L 13.8125,8 z M 21.8125,16 L 106.1875,16 C 109.41583,16 112,18.584167 112,21.8125 L 112,106.1875 C 112,109.41583 109.41583,112 106.1875,112 L 21.8125,112 C 18.584166,112 16,109.41583 16,106.1875 L 16,21.8125 C 16,18.584166 18.584167,16 21.8125,16 z "
         id="path3395" />
    </clipPath>
    <radialGradient
       inkscape:collect="always"
       xlink:href="#linearGradient3133"
       id="radialGradient3413"
       gradientUnits="userSpaceOnUse"
       gradientTransform="matrix(2.1360441,0,0,-1.446027,-72.706823,154.18422)"
       cx="64"
       cy="35.686314"
       fx="64"
       fy="35.686314"
       r="40" />
    <radialGradient
       inkscape:collect="always"
       xlink:href="#linearGradient3133"
       id="radialGradient3417"
       gradientUnits="userSpaceOnUse"
       gradientTransform="matrix(2.1360441,0,0,1.446027,-72.706823,-25.184217)"
       cx="64"
       cy="35.686314"
       fx="64"
       fy="35.686314"
       r="40" />
    <filter
       inkscape:collect="always"
       id="filter3351">
      <feGaussianBlur
         inkscape:collect="always"
         stdDeviation="2"
         id="feGaussianBlur3353" />
    </filter>
    <filter
       inkscape:collect="always"
       id="filter3707"
       x="-0.27725118"
       width="1.5545024"
       y="-0.18483412"
       height="1.3696682">
      <feGaussianBlur
         inkscape:collect="always"
         stdDeviation="2.7725118"
         id="feGaussianBlur3709" />
    </filter>
  </defs>
  <sodipodi:namedview
     id="base"
     pagecolor="#ffffff"
     bordercolor="#666666"
     borderopacity="1.0"
     gridtolerance="10000"
     guidetolerance="10"
     objecttolerance="10"
     inkscape:pageopacity="0"
     inkscape:pageshadow="2"
     inkscape:zoom="1.4142136"
     inkscape:cx="-6.9715058"
     inkscape:cy="62.670198"
     inkscape:document-units="px"
     inkscape:current-layer="layer1"
     width="128px"
     height="128px"
     showgrid="true"
     inkscape:window-width="747"
     inkscape:window-height="732"
     inkscape:window-x="401"
     inkscape:window-y="24"
     inkscape:grid-points="false"
     inkscape:window-maximized="0">
    <inkscape:grid
       id="GridFromPre046Settings"
       type="xygrid"
       originx="0px"
       originy="0px"
       spacingx="4px"
       spacingy="4px"
       color="#0000ff"
       empcolor="#0000ff"
       opacity="0.2"
       empopacity="0.4"
       empspacing="2" />
  </sodipodi:namedview>
  <metadata
     id="metadata7">
    <rdf:RDF>
      <cc:Work
         rdf:about="">
        <dc:format>image/svg+xml</dc:format>
        <dc:type
           rdf:resource="http://purl.org/dc/dcmitype/StillImage" />
        <dc:title></dc:title>
      </cc:Work>
    </rdf:RDF>
  </metadata>
  <g
     inkscape:label="Layer 1"
     inkscape:groupmode="layer"
     id="layer1">
    <rect
       ry="5.6263733"
       y="24"
       x="24"
       height="80"
       width="80"
       id="rect3786"
       style="opacity:0.27536232;fill:url(#radialGradient3139);fill-opacity:1;stroke:none;stroke-width:0.50000000000000000;stroke-linecap:round;stroke-linejoin:round;stroke-miterlimit:4;stroke-dasharray:none;stroke-opacity:1" />
    <rect
       style="opacity:0.7;fill:#000000;fill-opacity:1;stroke:none;stroke-width:0.5;stroke-linecap:round;stroke-linejoin:round;stroke-miterlimit:4;stroke-dasharray:none;stroke-opacity:1;filter:url(#filter3351)"
       id="rect3305"
       width="100"
       height="100"
       x="14"
       y="14"
       rx="7.4348507"
       ry="7.4348507"
       clip-path="url(#clipPath3393)" />
    <rect
       ry="5.6263733"
       rx="5.6263733"
       y="16"
       x="16"
       height="96"
       width="96"
       id="rect3141"
       style="opacity:0.7;fill:#eeeeee;fill-opacity:1;stroke:none;stroke-width:0.5;stroke-linecap:round;stroke-linejoin:round;stroke-miterlimit:4;stroke-dasharray:none;stroke-opacity:1" />
    <rect
       style="opacity:0.6763285;fill:url(#radialGradient3139);fill-opacity:1;stroke:none;stroke-width:0.50000000000000000;stroke-linecap:round;stroke-linejoin:round;stroke-miterlimit:4;stroke-dasharray:none;stroke-opacity:1"
       id="rect2160"
       width="80"
       height="80"
       x="24"
       y="24"
       ry="5.6263733" />
    <rect
       style="opacity:0.7;fill:none;fill-opacity:1;stroke:#ffffff;stroke-width:0.99999994;stroke-linecap:round;stroke-linejoin:round;stroke-miterlimit:4;stroke-dasharray:none;stroke-opacity:1"
       id="rect3178"
       width="95"
       height="95"
       x="16.5"
       y="16.5"
       rx="5.6263733"
       ry="5.6263733" />
    <path
       style="opacity:1;fill:#000000;fill-opacity:0.81502889000000001;stroke:none"
       d="m 32,24 0,8 -8,0 0,8 8,0 8,0 0,-8 0,-8 -8,0 z m 8,16 0,8 0,8 8,0 8,0 0,-8 -8,0 0,-8 -8,0 z m 8,0 8,0 0,-8 0,-8 -8,0 0,8 0,8 z m 8,16 0,8 -8,0 0,8 8,0 8,0 0,-8 0,-8 -8,0 z m 8,16 0,8 8,0 0,-8 -8,0 z m 8,0 8,0 0,-8 -8,0 0,8 z m -8,8 -8,0 -8,0 0,8 8,0 8,0 0,-8 z m -16,0 0,-8 -8,0 0,8 8,0 z m -8,0 -8,0 -8,0 0,8 8,0 0,8 8,0 0,-8 0,-8 z m -8,16 -8,0 0,2.375 c 0,3.11701 2.507989,5.625 5.625,5.625 l 2.375,0 0,-8 z m 8,-24 0,-8 -8,0 -8,0 0,8 8,0 8,0 z m 24,-48 0,8 8,0 0,-8 -8,0 z m 16,0 0,8 0,8 8,0 0,-8 8,0 0,-8 -16,0 z m 8,16 0,8 8,0 0,8 8,0 0,-8 0,-8 -8,0 -8,0 z m 8,16 -8,0 0,8 0,8 8,0 0,-8 0,-8 z m 0,16 0,8 8,0 0,-8 -8,0 z m 0,8 -8,0 -8,0 0,8 8,0 0,8 0,8 10.375,0 c 3.11701,0 5.625,-2.50799 5.625,-5.625 l 0,-2.375 -8,0 0,-8 0,-8 z m -16,8 -8,0 0,8 8,0 0,-8 z m -8,8 -8,0 0,8 8,0 0,-8 z m -16,-56 0,8 16,0 0,-8 -16,0 z m 16,8 0,16 8,0 0,-16 -8,0 z m -48,0 0,8 8,0 0,-8 -8,0 z m 24,48 0,8 8,0 0,-8 -8,0 z"
       id="rect2850"
       sodipodi:nodetypes="ccccccccccccccccccccccccccccccccccccccccccccccccccccccccccccccccccccccccccccccccccccccccccccccccccccccccccccccccccccccccccccccccccccccccccccccccccccccccccc" />
    <rect
       style="fill:#ffffff;fill-opacity:1;stroke:none"
       id="rect3671"
       width="24"
       height="4"
       x="52"
       y="76"
       rx="0"
       ry="0" />
    <path
       style="fill:#ffffff;fill-opacity:1;stroke:none"
       d="m 64,58 c -6.627417,0 -12,5.372583 -12,12 l 4,0 c 0,-4.418278 3.581722,-8 8,-8 4.418278,0 8,3.581722 8,8 l 4,0 C 76,63.372583 70.627417,58 64,58 z"
       id="path3673"
       sodipodi:nodetypes="cccsccc" />
    <path
       style="fill:#ffffff;fill-opacity:1;stroke:none"
       d="m 52,70 3.999998,0 0,6.000004 -3.999998,0 L 52,70 z"
       id="rect3678"
       sodipodi:nodetypes="ccccc" />
    <path
       style="fill:#ffffff;fill-opacity:1;stroke:#ffffff;stroke-opacity:1;filter:url(#filter3707)"
       d="M 64 58 C 57.372583 58 52 63.372583 52 70 L 52 76 L 52 92 L 76 92 L 76 76 L 72 76 L 67.34375 76 L 56 76 L 56 69.90625 C 56.05107 65.53189 59.613538 62 64 62 C 68.386462 62 71.94893 65.53189 72 69.90625 C 72.00037 69.93798 72 69.96818 72 70 L 72 70.5625 L 76 70.5625 L 76 70 L 76 69.90625 C 75.948817 63.322683 70.595638 58 64 58 z M 56 80 L 72 80 L 72 88 L 56 88 L 56 80 z "
       id="rect3682" />
    <rect
       ry="0"
       rx="0"
       y="88"
       x="52"
       height="4"
       width="24"
       id="rect3807"
       style="fill:#ffffff;fill-opacity:1;stroke:none" />
    <rect
       style="fill:#ffffff;fill-opacity:1;stroke:none"
       id="rect3809"
       width="4"
       height="8"
       x="52"
       y="80"
       rx="0"
       ry="0" />
    <rect
       ry="0"
       rx="0"
       y="80"
       x="72"
       height="8"
       width="4"
       id="rect3811"
       style="fill:#ffffff;fill-opacity:1;stroke:none" />
  </g>
</svg>
