<?xml version="1.0" encoding="UTF-8" standalone="no"?>
<!-- Created with Inkscape (http://www.inkscape.org/) -->
<svg
   xmlns:dc="http://purl.org/dc/elements/1.1/"
   xmlns:cc="http://web.resource.org/cc/"
   xmlns:rdf="http://www.w3.org/1999/02/22-rdf-syntax-ns#"
   xmlns:svg="http://www.w3.org/2000/svg"
   xmlns="http://www.w3.org/2000/svg"
   xmlns:xlink="http://www.w3.org/1999/xlink"
   xmlns:sodipodi="http://inkscape.sourceforge.net/DTD/sodipodi-0.dtd"
   xmlns:inkscape="http://www.inkscape.org/namespaces/inkscape"
   width="128"
   height="128"
   id="svg2"
   sodipodi:version="0.32"
   inkscape:version="0.43"
   version="1.0"
   sodipodi:docbase="/home/pinheiro/Documents/pics/new oxygen/svg"
   sodipodi:docname="kgethotnewstuf2.svg">
  <defs
     id="defs4">
    <linearGradient
       id="linearGradient3108">
      <stop
         style="stop-color:#a25000;stop-opacity:1;"
         offset="0"
         id="stop3110" />
      <stop
         style="stop-color:#35240d;stop-opacity:1;"
         offset="1"
         id="stop3112" />
    </linearGradient>
    <linearGradient
       inkscape:collect="always"
       id="linearGradient3765">
      <stop
         style="stop-color:#ffffff;stop-opacity:1;"
         offset="0"
         id="stop3767" />
      <stop
         style="stop-color:#ffffff;stop-opacity:0;"
         offset="1"
         id="stop3769" />
    </linearGradient>
    <linearGradient
       inkscape:collect="always"
       id="linearGradient3747">
      <stop
         style="stop-color:#ffffff;stop-opacity:1;"
         offset="0"
         id="stop3749" />
      <stop
         style="stop-color:#ffffff;stop-opacity:0;"
         offset="1"
         id="stop3751" />
    </linearGradient>
    <linearGradient
       id="linearGradient3638">
      <stop
         style="stop-color:#ffffff;stop-opacity:0;"
         offset="0"
         id="stop3640" />
      <stop
         id="stop3661"
         offset="0.06868132"
         style="stop-color:#ffffff;stop-opacity:1;" />
      <stop
         id="stop3659"
         offset="0.5"
         style="stop-color:#ffffff;stop-opacity:1;" />
      <stop
         style="stop-color:#ffffff;stop-opacity:0;"
         offset="1"
         id="stop3642" />
    </linearGradient>
    <linearGradient
       id="linearGradient1563">
      <stop
         id="stop1565"
         offset="0"
         style="stop-color:#ffffff;stop-opacity:1;" />
      <stop
         id="stop1567"
         offset="1"
         style="stop-color:#c0c0c0;stop-opacity:0;" />
    </linearGradient>
    <linearGradient
       id="linearGradient3273">
      <stop
         id="stop3275"
         offset="0"
         style="stop-color:#ffffff;stop-opacity:0.55035973;" />
      <stop
         id="stop3277"
         offset="1"
         style="stop-color:#ffffff;stop-opacity:0;" />
    </linearGradient>
    <linearGradient
       id="linearGradient3291"
       inkscape:collect="always">
      <stop
         id="stop3293"
         offset="0"
         style="stop-color:#000000;stop-opacity:1;" />
      <stop
         id="stop3295"
         offset="1"
         style="stop-color:#000000;stop-opacity:0;" />
    </linearGradient>
    <linearGradient
       id="linearGradient12948">
      <stop
         style="stop-color:#ffffff;stop-opacity:1;"
         offset="0"
         id="stop12950" />
      <stop
         style="stop-color:#c0c0c0;stop-opacity:0;"
         offset="1"
         id="stop12952" />
    </linearGradient>
    <linearGradient
       inkscape:collect="always"
       xlink:href="#linearGradient3273"
       id="linearGradient3605"
       x1="80.100487"
       y1="44.807674"
       x2="77.714729"
       y2="101.4734"
       gradientUnits="userSpaceOnUse"
       gradientTransform="matrix(0.959962,0,0,0.959962,2.35549,3.275418)"
       spreadMethod="reflect" />
    <linearGradient
       inkscape:collect="always"
       xlink:href="#linearGradient3638"
       id="linearGradient3644"
       x1="57.287113"
       y1="1.1597457"
       x2="144.2531"
       y2="16.876789"
       gradientUnits="userSpaceOnUse" />
    <linearGradient
       inkscape:collect="always"
       xlink:href="#linearGradient3638"
       id="linearGradient3646"
       x1="57.287113"
       y1="1.1597457"
       x2="144.2531"
       y2="16.876789"
       gradientUnits="userSpaceOnUse" />
    <linearGradient
       inkscape:collect="always"
       xlink:href="#linearGradient3638"
       id="linearGradient3648"
       x1="57.287113"
       y1="1.1597457"
       x2="144.2531"
       y2="16.876789"
       gradientUnits="userSpaceOnUse" />
    <radialGradient
       inkscape:collect="always"
       xlink:href="#linearGradient12948"
       id="radialGradient3716"
       gradientUnits="userSpaceOnUse"
       gradientTransform="matrix(1,-7.045514e-15,1.946707e-15,0.941176,2.788953e-13,3.492906)"
       cx="23.190451"
       cy="59.379417"
       fx="22.471308"
       fy="59.354759"
       r="2.1082227" />
    <linearGradient
       inkscape:collect="always"
       xlink:href="#linearGradient1563"
       id="linearGradient3732"
       x1="98.291809"
       y1="-126.7503"
       x2="44.242641"
       y2="101.45739"
       gradientUnits="userSpaceOnUse" />
    <linearGradient
       inkscape:collect="always"
       xlink:href="#linearGradient1563"
       id="linearGradient3739"
       gradientUnits="userSpaceOnUse"
       x1="98.291809"
       y1="-44.01474"
       x2="44.242641"
       y2="101.45739" />
    <radialGradient
       inkscape:collect="always"
       xlink:href="#linearGradient3291"
       id="radialGradient3743"
       gradientUnits="userSpaceOnUse"
       gradientTransform="matrix(1,0,0,0.197802,6.834814e-15,92.82166)"
       cx="63.912209"
       cy="115.70919"
       fx="63.975182"
       fy="116.88514"
       r="63.912209" />
    <radialGradient
       inkscape:collect="always"
       xlink:href="#linearGradient3747"
       id="radialGradient3753"
       cx="5.7531347"
       cy="-45.41592"
       fx="74.816956"
       fy="-43.169445"
       r="124.10334"
       gradientTransform="matrix(1,-5.290907e-17,-3.962245e-18,9.492274e-2,9.333694e-14,-41.10492)"
       gradientUnits="userSpaceOnUse" />
    <radialGradient
       inkscape:collect="always"
       xlink:href="#linearGradient3747"
       id="radialGradient3757"
       gradientUnits="userSpaceOnUse"
       gradientTransform="matrix(1,-1.087455e-16,-5.565153e-18,9.492274e-2,-1.420331e-15,-41.10492)"
       cx="5.7531347"
       cy="-45.41592"
       fx="74.816956"
       fy="-43.169445"
       r="124.10334" />
    <radialGradient
       inkscape:collect="always"
       xlink:href="#linearGradient3747"
       id="radialGradient3761"
       gradientUnits="userSpaceOnUse"
       gradientTransform="matrix(1,-1.302059e-16,-7.897474e-18,9.492274e-2,1.345372e-13,-41.10492)"
       cx="5.7531347"
       cy="-45.41592"
       fx="74.816956"
       fy="-43.169445"
       r="124.10334" />
    <radialGradient
       inkscape:collect="always"
       xlink:href="#linearGradient3765"
       id="radialGradient3771"
       cx="23.662739"
       cy="95.898506"
       fx="24.26058"
       fy="96.778763"
       r="2.793914"
       gradientTransform="matrix(1.484142,0.129521,-0.489782,5.61225,35.51325,-445.3727)"
       gradientUnits="userSpaceOnUse" />
    <linearGradient
       inkscape:collect="always"
       xlink:href="#linearGradient2316"
       id="linearGradient3106"
       x1="82.054581"
       y1="136.90514"
       x2="181.97362"
       y2="-15.981752"
       gradientUnits="userSpaceOnUse" />
    <linearGradient
       inkscape:collect="always"
       xlink:href="#linearGradient3108"
       id="linearGradient3114"
       x1="4.9310703"
       y1="-106.70427"
       x2="117.21009"
       y2="199.03694"
       gradientUnits="userSpaceOnUse" />
    <linearGradient
       y2="56.392178"
       x2="76.80349"
       y1="98.449013"
       x1="36.49419"
       gradientTransform="matrix(1.022481,0,0,1.127624,0.60884,-9.129671)"
       gradientUnits="userSpaceOnUse"
       id="linearGradient5232"
       xlink:href="#linearGradient2316"
       inkscape:collect="always" />
    <linearGradient
       y2="77.56892"
       x2="21.498699"
       y1="283.21545"
       x1="-176.0701"
       gradientTransform="matrix(1.037514,-1.26173e-15,-1.26173e-15,1.037514,11.67989,-11.01494)"
       gradientUnits="userSpaceOnUse"
       id="linearGradient5229"
       xlink:href="#linearGradient2332"
       inkscape:collect="always" />
    <linearGradient
       y2="59.5075"
       x2="69.015182"
       y1="110.9103"
       x1="107.75717"
       gradientTransform="matrix(1.022481,0,0,1.127624,0.60884,-9.129671)"
       gradientUnits="userSpaceOnUse"
       id="linearGradient5226"
       xlink:href="#linearGradient2316"
       inkscape:collect="always" />
    <linearGradient
       y2="20.020575"
       x2="104.25013"
       y1="-18.884081"
       x1="110.58345"
       gradientTransform="matrix(1.022481,-9.439195e-17,-8.559046e-17,1.127624,-44.61931,11.70578)"
       gradientUnits="userSpaceOnUse"
       id="linearGradient5223"
       xlink:href="#linearGradient3303"
       inkscape:collect="always" />
    <linearGradient
       y2="20.020575"
       x2="104.25013"
       y1="-18.884081"
       x1="110.58345"
       gradientTransform="matrix(1.022481,-9.439195e-17,-8.559046e-17,1.127624,-44.61931,11.70578)"
       gradientUnits="userSpaceOnUse"
       id="linearGradient5220"
       xlink:href="#linearGradient3303"
       inkscape:collect="always" />
    <linearGradient
       y2="7.6863284"
       x2="53.554344"
       y1="21.17042"
       x1="64.830307"
       gradientTransform="matrix(1.017706,0,0,1.017706,0.19509,-2.695392)"
       gradientUnits="userSpaceOnUse"
       id="linearGradient5216"
       xlink:href="#linearGradient5084"
       inkscape:collect="always" />
    <linearGradient
       y2="36.910881"
       x2="68.05368"
       y1="-21.912594"
       x1="-8.4510078"
       gradientTransform="matrix(1.017706,0,0,1.017706,0.19509,-2.695392)"
       gradientUnits="userSpaceOnUse"
       id="linearGradient5214"
       xlink:href="#linearGradient2316"
       inkscape:collect="always" />
    <linearGradient
       y2="40.10178"
       x2="85.600273"
       y1="24.89913"
       x1="80.483826"
       gradientTransform="matrix(1.017706,0,0,1.017706,0.19509,-2.695392)"
       gradientUnits="userSpaceOnUse"
       id="linearGradient5211"
       xlink:href="#linearGradient5076"
       inkscape:collect="always" />
    <linearGradient
       y2="36.910881"
       x2="68.05368"
       y1="-7.078362"
       x1="22.424892"
       gradientTransform="matrix(-1.017706,0,0,-1.017706,127.9961,58.21156)"
       gradientUnits="userSpaceOnUse"
       id="linearGradient5209"
       xlink:href="#linearGradient2316"
       inkscape:collect="always" />
    <radialGradient
       r="50.275357"
       fy="64.608345"
       fx="63.212193"
       cy="64.608345"
       cx="63.212193"
       gradientTransform="matrix(1.224527,0,0,0.97902,-13.33407,-7.667537)"
       gradientUnits="userSpaceOnUse"
       id="radialGradient5206"
       xlink:href="#linearGradient4173"
       inkscape:collect="always" />
    <radialGradient
       r="50.275357"
       fy="64.608345"
       fx="63.212193"
       cy="64.608345"
       cx="63.212193"
       gradientTransform="matrix(1.224527,0,0,0.97902,-13.33407,-7.667537)"
       gradientUnits="userSpaceOnUse"
       id="radialGradient5203"
       xlink:href="#linearGradient4173"
       inkscape:collect="always" />
    <linearGradient
       id="linearGradient3303">
      <stop
         id="stop3305"
         offset="0"
         style="stop-color:#ffffff;stop-opacity:0.68345326;" />
      <stop
         id="stop3307"
         offset="1"
         style="stop-color:#ffffff;stop-opacity:0;" />
    </linearGradient>
    <linearGradient
       id="linearGradient2316">
      <stop
         id="stop2318"
         offset="0"
         style="stop-color:#dd6a0e;stop-opacity:1;" />
      <stop
         id="stop2320"
         offset="1"
         style="stop-color:#ffb66d;stop-opacity:1;" />
    </linearGradient>
    <linearGradient
       id="linearGradient2332"
       inkscape:collect="always">
      <stop
         id="stop2334"
         offset="0"
         style="stop-color:#000000;stop-opacity:1;" />
      <stop
         id="stop2336"
         offset="1"
         style="stop-color:#000000;stop-opacity:0;" />
    </linearGradient>
    <linearGradient
       id="linearGradient4173"
       inkscape:collect="always">
      <stop
         id="stop4175"
         offset="0"
         style="stop-color:#ffffff;stop-opacity:1;" />
      <stop
         id="stop4177"
         offset="1"
         style="stop-color:#ffffff;stop-opacity:0;" />
    </linearGradient>
    <linearGradient
       id="linearGradient5076"
       inkscape:collect="always">
      <stop
         id="stop5078"
         offset="0"
         style="stop-color:#ffffff;stop-opacity:1;" />
      <stop
         id="stop5080"
         offset="1"
         style="stop-color:#ffffff;stop-opacity:0;" />
    </linearGradient>
    <linearGradient
       id="linearGradient5084"
       inkscape:collect="always">
      <stop
         id="stop5086"
         offset="0"
         style="stop-color:#ffffff;stop-opacity:1;" />
      <stop
         id="stop5088"
         offset="1"
         style="stop-color:#ffffff;stop-opacity:0;" />
    </linearGradient>
    <linearGradient
       id="linearGradient5242"
       inkscape:collect="always">
      <stop
         id="stop5244"
         offset="0"
         style="stop-color:#613e00;stop-opacity:1;" />
      <stop
         id="stop5246"
         offset="1"
         style="stop-color:#613e00;stop-opacity:0;" />
    </linearGradient>
    <linearGradient
       inkscape:collect="always"
       xlink:href="#linearGradient5242"
       id="linearGradient3269"
       gradientUnits="userSpaceOnUse"
       x1="64.568993"
       y1="126.67072"
       x2="64.535019"
       y2="82.906151" />
    <linearGradient
       inkscape:collect="always"
       xlink:href="#linearGradient5242"
       id="linearGradient3271"
       gradientUnits="userSpaceOnUse"
       x1="64.568993"
       y1="126.67072"
       x2="64.535019"
       y2="82.906151" />
    <linearGradient
       inkscape:collect="always"
       xlink:href="#linearGradient5242"
       id="linearGradient3274"
       gradientUnits="userSpaceOnUse"
       x1="64.568993"
       y1="126.67072"
       x2="64.535019"
       y2="82.906151" />
    <linearGradient
       inkscape:collect="always"
       xlink:href="#linearGradient5242"
       id="linearGradient3276"
       gradientUnits="userSpaceOnUse"
       x1="64.568993"
       y1="126.67072"
       x2="64.535019"
       y2="82.906151" />
  </defs>
  <sodipodi:namedview
     id="base"
     pagecolor="#ffffff"
     bordercolor="#666666"
     borderopacity="1.0"
     inkscape:pageopacity="0.0"
     inkscape:pageshadow="2"
     inkscape:zoom="1.5501656"
     inkscape:cx="-65.379825"
     inkscape:cy="-6.0039145"
     inkscape:document-units="px"
     inkscape:current-layer="layer1"
     inkscape:window-width="1247"
     inkscape:window-height="816"
     inkscape:window-x="655"
     inkscape:window-y="221" />
  <metadata
     id="metadata7">
    <rdf:RDF>
      <cc:Work
         rdf:about="">
        <dc:format>image/svg+xml</dc:format>
        <dc:type
           rdf:resource="http://purl.org/dc/dcmitype/StillImage" />
      </cc:Work>
    </rdf:RDF>
  </metadata>
  <g
     inkscape:label="Layer 1"
     inkscape:groupmode="layer"
     id="layer1">
    <path
       transform="matrix(0.511285,0.187762,-0.187762,0.511285,41.72321,44.08266)"
       d="M 153.09403,94.713757 C 144.53658,107.09689 92.616372,93.013297 78.414631,98.001518 C 64.21289,102.98974 32.50348,146.4474 18.082028,142.13539 C 3.6605746,137.82337 1.0106378,84.092245 -8.1220219,72.127031 C -17.254681,60.161818 -68.384124,43.433534 -68.739625,28.385431 C -69.095125,13.337327 -18.812666,-5.7867426 -10.255219,-18.169872 C -1.697772,-30.553002 -1.5880954,-84.349316 12.613645,-89.337536 C 26.815387,-94.325757 60.541592,-52.41396 74.963045,-48.101941 C 89.384498,-43.789923 140.58172,-60.30959 149.71438,-48.344376 C 158.84704,-36.379162 129.40853,8.6478227 129.76403,23.695927 C 130.11953,38.74403 161.65148,82.330628 153.09403,94.713757 z "
       inkscape:randomized="0"
       inkscape:rounded="0.20136392"
       inkscape:flatsided="false"
       sodipodi:arg2="1.2330172"
       sodipodi:arg1="0.60469864"
       sodipodi:r2="76.832565"
       sodipodi:r1="121.72647"
       sodipodi:cy="25.510532"
       sodipodi:cx="52.952892"
       sodipodi:sides="5"
       id="path3574"
       style="opacity:1;fill:url(#linearGradient3114);fill-opacity:1.0;fill-rule:nonzero;stroke:none;stroke-width:14.80892919;stroke-linecap:round;stroke-linejoin:round;stroke-miterlimit:4;stroke-dasharray:none;stroke-dashoffset:4;stroke-opacity:1"
       sodipodi:type="star" />
    <path
       style="opacity:1;fill:url(#linearGradient3106);fill-opacity:1.0;fill-rule:nonzero;stroke:url(#linearGradient3605);stroke-width:6.803;stroke-linecap:round;stroke-linejoin:round;stroke-miterlimit:4;stroke-dasharray:none;stroke-dashoffset:4;stroke-opacity:1"
       d="M 64.817613,10.159328 C 64.581604,10.317484 63.312654,10.957094 61.843149,12.708869 C 60.101516,14.785047 58.138879,17.917081 56.177505,21.235666 C 54.216128,24.55425 52.251443,28.092247 50.341888,31.150546 C 48.432331,34.208845 46.806952,36.762169 44.279648,38.544213 C 41.752344,40.326257 38.764915,41.002069 35.242943,41.773631 C 31.720971,42.545192 27.75285,43.193621 23.968308,43.926576 C 20.183765,44.659533 16.5656,45.476237 14.025101,46.419462 C 11.841858,47.230044 10.829167,48.201295 10.625712,48.345781 C 10.626839,48.347738 10.624524,48.371367 10.625712,48.374108 C 10.696321,48.571093 10.870285,49.989399 12.127109,52.000123 C 13.563478,54.298089 15.950898,57.154462 18.50096,60.045339 C 21.051023,62.936217 23.774397,65.867627 26.092925,68.628793 C 28.411454,71.389955 30.363146,73.748045 31.27699,76.702337 C 32.190833,79.656627 31.914822,82.68926 31.560274,86.277278 C 31.205724,89.8653 30.616267,93.839413 30.143862,97.665227 C 30.113483,97.911252 30.08362,98.156728 30.054361,98.401429 C 29.628627,101.96194 29.330856,105.3582 29.435657,107.89172 C 29.533657,110.26089 30.173974,111.54076 30.228847,111.74436 C 30.438123,111.73798 31.837454,111.97838 34.138142,111.40442 C 36.7675,110.74847 40.20401,109.39531 43.741411,107.86339 C 47.278812,106.33148 50.937026,104.62602 54.279513,103.27421 C 57.621999,101.9224 60.450754,100.79418 63.542844,100.838 C 66.634933,100.8818 69.418339,102.08321 72.721189,103.52916 C 76.024038,104.97512 79.653393,106.79843 83.145977,108.42996 C 86.638561,110.06147 90.026215,111.49575 92.635935,112.22595 C 94.919441,112.86485 96.334003,112.66799 96.54523,112.67918 C 96.605258,112.47676 97.286649,111.22034 97.451733,108.85487 C 97.640395,106.1515 97.418963,102.46604 97.055137,98.628384 C 96.691312,94.790732 96.174767,90.780408 95.922008,87.183781 C 95.669251,83.587159 95.491404,80.56438 96.488573,77.637169 C 97.485753,74.709955 99.503438,72.399636 101.89927,69.705264 C 104.29508,67.010894 107.11524,64.16591 109.74619,61.348436 C 112.37711,58.530963 114.78913,55.729544 116.29001,53.47319 C 117.57984,51.534136 117.84976,50.137859 117.93304,49.903833 C 117.93436,49.901119 117.93183,49.877435 117.93304,49.875506 C 117.7318,49.725835 116.72138,48.73631 114.56198,47.864201 C 112.04922,46.849382 108.49434,45.927914 104.73209,45.088035 C 100.96983,44.248155 97.012813,43.466178 93.514108,42.595149 C 90.015409,41.724119 87.038194,40.992031 84.562389,39.139105 C 82.086586,37.286179 80.548923,34.65831 78.726774,31.54714 C 76.904626,28.435971 75.041014,24.863438 73.174441,21.49062 C 71.307869,18.117801 69.417536,14.946869 67.735421,12.822182 C 66.263569,10.963081 64.982527,10.293346 64.817613,10.159328 z "
       id="path3580"
       sodipodi:nodetypes="cssssssssssssssssscssssssscssssssssssssssssc" />
    <path
       sodipodi:nodetypes="ccc"
       id="path2276"
       d="M -106.3852,44.124126 L -106.3852,41.329417 L -106.3852,44.124126 z "
       style="fill:#ffffff;fill-opacity:0.75688076;fill-rule:nonzero;stroke:none;stroke-width:0.5;stroke-linecap:round;stroke-linejoin:round;stroke-miterlimit:4;stroke-dasharray:none;stroke-dashoffset:4;stroke-opacity:1" />
    <path
       sodipodi:type="arc"
       style="opacity:0.38139535;fill:url(#radialGradient3743);fill-opacity:1;fill-rule:nonzero;stroke:none;stroke-width:0;stroke-linecap:round;stroke-linejoin:round;stroke-miterlimit:4;stroke-dasharray:none;stroke-dashoffset:4;stroke-opacity:1"
       id="path3289"
       sodipodi:cx="63.912209"
       sodipodi:cy="115.70919"
       sodipodi:rx="63.912209"
       sodipodi:ry="12.641975"
       d="M 127.82442 115.70919 A 63.912209 12.641975 0 1 1  0,115.70919 A 63.912209 12.641975 0 1 1  127.82442 115.70919 z"
       transform="matrix(-0.975103,0,0,0.416667,126.6744,75.1684)" />
    <path
       style="fill:none;fill-opacity:1.0;fill-rule:evenodd;stroke:url(#linearGradient3648);stroke-width:0.50672567;stroke-linecap:butt;stroke-linejoin:miter;stroke-miterlimit:4;stroke-dasharray:none;stroke-opacity:0.5813008"
       d="M 55.266721,10.739701 C 56.520212,8.5685899 61.220699,1.3579337 65.008418,1.4134271 C 71.889436,1.5172832 83.511202,31.129589 88.946059,34.460427 C 95.635958,38.560436 119.92387,41.46414 124.34296,44.969282"
       id="path3632"
       sodipodi:nodetypes="csss" />
    <path
       sodipodi:nodetypes="csss"
       id="path3634"
       d="M 55.236135,11.274949 C 56.489626,9.1038383 61.236542,1.57297 65.023711,1.6581121 C 71.830955,1.8111507 83.271335,31.483209 88.869595,34.705112 C 95.670099,38.618929 119.98852,41.765855 124.40761,45.270997"
       style="fill:none;fill-opacity:1.0;fill-rule:evenodd;stroke:url(#linearGradient3646);stroke-width:1;stroke-linecap:round;stroke-linejoin:round;stroke-miterlimit:4;stroke-dasharray:none;stroke-opacity:0.43089432" />
    <path
       style="fill:none;fill-opacity:1.0;fill-rule:evenodd;stroke:url(#linearGradient3644);stroke-width:2;stroke-linecap:round;stroke-linejoin:round;stroke-miterlimit:4;stroke-dasharray:none;stroke-opacity:0.43089432"
       d="M 55.205632,12.312054 C 56.459123,10.140944 61.420826,2.0361374 65.023711,2.1461616 C 71.282863,2.3391656 83.42385,32.459308 88.778086,35.193162 C 95.766183,38.761259 121.08663,42.680948 124.71264,46.094581"
       id="path3636"
       sodipodi:nodetypes="csss" />
    <path
       sodipodi:type="arc"
       style="opacity:0.70232556;fill:url(#radialGradient3716);fill-opacity:1;fill-rule:nonzero;stroke:none;stroke-width:0.89999998;stroke-linecap:round;stroke-linejoin:round;stroke-miterlimit:4;stroke-dasharray:none;stroke-dashoffset:4;stroke-opacity:1"
       id="path11160"
       sodipodi:cx="23.190451"
       sodipodi:cy="59.379417"
       sodipodi:rx="2.1082227"
       sodipodi:ry="1.9842097"
       d="M 25.298673 59.379417 A 2.1082227 1.9842097 0 1 1  21.082228,59.379417 A 2.1082227 1.9842097 0 1 1  25.298673 59.379417 z"
       transform="matrix(-1.742936,-1.063485,-0.470527,1.244278,191.1539,-3.699137)" />
    <path
       style="opacity:1;fill:url(#linearGradient3732);fill-opacity:1.0;fill-rule:nonzero;stroke:none;stroke-width:6.803;stroke-linecap:round;stroke-linejoin:round;stroke-miterlimit:4;stroke-dasharray:none;stroke-dashoffset:4;stroke-opacity:1"
       d="M 64.8125 10.15625 C 64.576492 10.314406 63.313255 10.966975 61.84375 12.71875 C 60.102119 14.794928 58.148874 17.931415 56.1875 21.25 C 54.226123 24.568584 52.253305 28.097951 50.34375 31.15625 C 48.434193 34.21455 46.808554 36.749206 44.28125 38.53125 C 41.753946 40.313295 38.771972 41.009688 35.25 41.78125 C 31.728028 42.55281 27.753292 43.204545 23.96875 43.9375 C 20.184208 44.670458 16.571749 45.463025 14.03125 46.40625 C 11.848007 47.216834 10.828455 48.199264 10.625 48.34375 C 10.62496 48.346283 10.625145 48.371753 10.625 48.375 C 10.695609 48.571986 10.868176 49.989276 12.125 52 C 13.561369 54.297967 15.949938 57.140373 18.5 60.03125 C 20.422509 62.210702 22.440722 64.427292 24.3125 66.5625 C 47.187815 68.967477 71.532076 77.450485 95.75 81.53125 C 95.830132 80.186335 96.067405 78.894893 96.5 77.625 C 97.497182 74.697786 99.510418 72.413122 101.90625 69.71875 C 104.30206 67.024383 107.11905 64.161224 109.75 61.34375 C 112.38092 58.526279 114.78037 55.725104 116.28125 53.46875 C 117.57108 51.529696 117.85422 50.140276 117.9375 49.90625 C 117.93747 49.903618 117.93766 49.878251 117.9375 49.875 C 117.73626 49.725328 116.7219 48.747109 114.5625 47.875 C 112.04974 46.860181 108.481 45.933629 104.71875 45.09375 C 100.95649 44.253869 96.998705 43.464779 93.5 42.59375 C 90.001302 41.722719 87.038305 40.977926 84.5625 39.125 C 82.0867 37.272072 80.540899 34.67367 78.71875 31.5625 C 76.8966 28.451331 75.054073 24.872818 73.1875 21.5 C 71.320931 18.127181 69.432115 14.937187 67.75 12.8125 C 66.278149 10.953399 64.977414 10.290268 64.8125 10.15625 z "
       id="path3718" />
    <path
       style="opacity:0.41393443;fill:url(#linearGradient3739);fill-opacity:1.0;fill-rule:nonzero;stroke:none;stroke-width:6.803;stroke-linecap:round;stroke-linejoin:round;stroke-miterlimit:4;stroke-dasharray:none;stroke-dashoffset:4;stroke-opacity:1"
       d="M 64.8125 10.15625 C 64.576492 10.314406 63.313255 10.966975 61.84375 12.71875 C 60.102119 14.794928 58.148874 17.931415 56.1875 21.25 C 54.226123 24.568584 52.253305 28.097951 50.34375 31.15625 C 48.434193 34.21455 46.808554 36.749206 44.28125 38.53125 C 41.753946 40.313295 38.771972 41.009688 35.25 41.78125 C 31.728028 42.55281 27.753292 43.204545 23.96875 43.9375 C 20.184208 44.670458 16.571749 45.463025 14.03125 46.40625 C 11.848007 47.216834 10.828455 48.199264 10.625 48.34375 C 10.62496 48.346283 10.625145 48.371753 10.625 48.375 C 10.695609 48.571986 10.868176 49.989276 12.125 52 C 13.561369 54.297967 15.949938 57.140373 18.5 60.03125 C 20.422509 62.210702 22.440722 64.427292 24.3125 66.5625 C 25.752576 66.713901 27.204929 66.896788 28.65625 67.09375 C 42.328845 56.623879 60.733777 43.188439 78.53125 31.25 C 76.771363 28.21678 74.98888 24.755017 73.1875 21.5 C 71.320931 18.127181 69.432115 14.937187 67.75 12.8125 C 66.278149 10.953399 64.977414 10.290268 64.8125 10.15625 z M 99.34375 43.90625 C 86.79565 53.381359 75.792347 63.914843 66.25 75.09375 C 76.032927 77.504442 85.901575 79.871772 95.75 81.53125 C 95.830132 80.186335 96.067405 78.894893 96.5 77.625 C 97.497182 74.697786 99.510418 72.413122 101.90625 69.71875 C 104.30206 67.024383 107.11905 64.161224 109.75 61.34375 C 112.38092 58.526279 114.78037 55.725104 116.28125 53.46875 C 117.57108 51.529696 117.85422 50.140276 117.9375 49.90625 C 117.93747 49.903618 117.93766 49.878251 117.9375 49.875 C 117.73626 49.725328 116.7219 48.747109 114.5625 47.875 C 112.04974 46.860181 108.481 45.933629 104.71875 45.09375 C 102.94925 44.698729 101.13165 44.292609 99.34375 43.90625 z "
       id="path3736" />
    <path
       id="path3741"
       d="M 64.8125,10.15625 C 64.576492,10.314406 63.313255,10.966975 61.84375,12.71875 C 60.102119,14.794928 58.148874,17.931415 56.1875,21.25 C 54.226123,24.568584 52.253305,28.097951 50.34375,31.15625 C 48.434193,34.21455 46.808554,36.749206 44.28125,38.53125 C 41.753946,40.313295 38.771972,41.009688 35.25,41.78125 C 31.728028,42.55281 27.753292,43.204545 23.96875,43.9375 C 20.184208,44.670458 16.571749,45.463025 14.03125,46.40625 C 11.848007,47.216834 10.828455,48.199264 10.625,48.34375 C 10.62496,48.346283 10.625145,48.371753 10.625,48.375 C 10.695609,48.571986 10.868176,49.989276 12.125,52 C 13.561369,54.297967 60.733777,43.188439 78.53125,31.25 C 76.771363,28.21678 74.98888,24.755017 73.1875,21.5 C 71.320931,18.127181 69.432115,14.937187 67.75,12.8125 C 66.278149,10.953399 64.977414,10.290268 64.8125,10.15625 z M 99.34375,43.90625 C 68.470207,67.487324 85.901575,79.871772 95.75,81.53125 C 95.830132,80.186335 96.067405,78.894893 96.5,77.625 C 97.497182,74.697786 99.510418,72.413122 101.90625,69.71875 C 104.30206,67.024383 107.11905,64.161224 109.75,61.34375 C 112.38092,58.526279 114.78037,55.725104 116.28125,53.46875 C 117.57108,51.529696 117.85422,50.140276 117.9375,49.90625 C 117.93747,49.903618 117.93766,49.878251 117.9375,49.875 C 117.73626,49.725328 116.7219,48.747109 114.5625,47.875 C 112.04974,46.860181 108.481,45.933629 104.71875,45.09375 C 102.94925,44.698729 101.13165,44.292609 99.34375,43.90625 z "
       style="opacity:0.34836066;fill:url(#linearGradient3739);fill-opacity:1.0;fill-rule:nonzero;stroke:none;stroke-width:6.803;stroke-linecap:round;stroke-linejoin:round;stroke-miterlimit:4;stroke-dasharray:none;stroke-dashoffset:4;stroke-opacity:1"
       sodipodi:nodetypes="csssssssssscsscccssssssssc" />
    <path
       sodipodi:type="arc"
       style="opacity:0.35655739;fill:url(#radialGradient3753);fill-opacity:1;fill-rule:nonzero;stroke:none;stroke-width:2;stroke-linecap:round;stroke-linejoin:round;stroke-miterlimit:4;stroke-dasharray:none;stroke-dashoffset:4;stroke-opacity:0.43089432"
       id="path3745"
       sodipodi:cx="5.7531347"
       sodipodi:cy="-45.41592"
       sodipodi:rx="124.10334"
       sodipodi:ry="11.780229"
       d="M 129.85647 -45.41592 A 124.10334 11.780229 0 1 1  -118.35021,-45.41592 A 124.10334 11.780229 0 1 1  129.85647 -45.41592 z"
       transform="matrix(0.126835,-5.623734e-2,-3.870485e-2,-9.211943e-2,44.81196,106.2565)" />
    <path
       transform="matrix(-0.126834,-5.702883e-2,3.870485e-2,-9.341592e-2,81.95911,106.3126)"
       d="M 129.85647 -45.41592 A 124.10334 11.780229 0 1 1  -118.35021,-45.41592 A 124.10334 11.780229 0 1 1  129.85647 -45.41592 z"
       sodipodi:ry="11.780229"
       sodipodi:rx="124.10334"
       sodipodi:cy="-45.41592"
       sodipodi:cx="5.7531347"
       id="path3755"
       style="opacity:0.49590164;fill:url(#radialGradient3757);fill-opacity:1;fill-rule:nonzero;stroke:none;stroke-width:2;stroke-linecap:round;stroke-linejoin:round;stroke-miterlimit:4;stroke-dasharray:none;stroke-dashoffset:4;stroke-opacity:0.43089432"
       sodipodi:type="arc" />
    <path
       transform="matrix(-6.548665e-3,-0.135343,-9.988208e-2,2.696531e-3,91.9485,98.93228)"
       d="M 129.85647 -45.41592 A 124.10334 11.780229 0 1 1  -118.35021,-45.41592 A 124.10334 11.780229 0 1 1  129.85647 -45.41592 z"
       sodipodi:ry="11.780229"
       sodipodi:rx="124.10334"
       sodipodi:cy="-45.41592"
       sodipodi:cx="5.7531347"
       id="path3759"
       style="opacity:0.27459016;fill:url(#radialGradient3761);fill-opacity:1;fill-rule:nonzero;stroke:none;stroke-width:2;stroke-linecap:round;stroke-linejoin:round;stroke-miterlimit:4;stroke-dasharray:none;stroke-dashoffset:4;stroke-opacity:0.43089432"
       sodipodi:type="arc" />
    <path
       style="fill:url(#radialGradient3771);fill-opacity:1.0;fill-rule:evenodd;stroke:none;stroke-width:1px;stroke-linecap:butt;stroke-linejoin:miter;stroke-opacity:1;opacity:0.55327869"
       d="M 25.088207,80.21837 C 25.534474,90.747814 22.054583,105.95279 22.237274,111.46459 L 24.632057,111.69267 C 26.600057,101.69251 28.017156,91.508728 28.167214,80.902594 L 25.088207,80.21837 z "
       id="path3763"
       sodipodi:nodetypes="ccccc" />
  </g>
</svg>
