<?xml version="1.0" encoding="UTF-8" standalone="no"?>
<!-- Created with Inkscape (http://www.inkscape.org/) -->
<svg
   xmlns:dc="http://purl.org/dc/elements/1.1/"
   xmlns:cc="http://web.resource.org/cc/"
   xmlns:rdf="http://www.w3.org/1999/02/22-rdf-syntax-ns#"
   xmlns:svg="http://www.w3.org/2000/svg"
   xmlns="http://www.w3.org/2000/svg"
   xmlns:xlink="http://www.w3.org/1999/xlink"
   xmlns:sodipodi="http://sodipodi.sourceforge.net/DTD/sodipodi-0.dtd"
   xmlns:inkscape="http://www.inkscape.org/namespaces/inkscape"
   width="128"
   height="128"
   id="svg1943"
   sodipodi:version="0.32"
   inkscape:version="0.45.1"
   version="1.0"
   sodipodi:docbase="/home/david/icons-oxygen-trunk/scalable/actions"
   sodipodi:docname="insert-text.svgz"
   inkscape:output_extension="org.inkscape.output.svgz.inkscape"
   inkscape:export-filename="/home/david/insert-text.png"
   inkscape:export-xdpi="33.75"
   inkscape:export-ydpi="33.75">
  <defs
     id="defs1945">
    <linearGradient
       inkscape:collect="always"
       id="linearGradient3241">
      <stop
         style="stop-color:#dcebff;stop-opacity:1;"
         offset="0"
         id="stop3243" />
      <stop
         style="stop-color:#ffffff;stop-opacity:1"
         offset="1"
         id="stop3245" />
    </linearGradient>
    <linearGradient
       id="XMLID_11_"
       gradientUnits="userSpaceOnUse"
       x1="56"
       y1="4"
       x2="64"
       y2="4"
       gradientTransform="translate(114.7302,21.20635)">
      <stop
         offset="0"
         style="stop-color:#BBBBBB"
         id="stop23" />
      <stop
         offset="1"
         style="stop-color:#888888"
         id="stop25" />
    </linearGradient>
    <linearGradient
       id="linearGradient3711"
       gradientUnits="userSpaceOnUse"
       x1="-84.002403"
       y1="-383.9971"
       x2="-23.516129"
       y2="-383.9975"
       gradientTransform="matrix(0,1,-1,0,-39.9985,140.0029)">
      <stop
         offset="0"
         style="stop-color:white;stop-opacity:1;"
         id="stop3713" />
      <stop
         offset="1"
         style="stop-color:white;stop-opacity:0;"
         id="stop3331" />
    </linearGradient>
    <linearGradient
       gradientTransform="matrix(0,1,-1,0,-39.9985,140.0029)"
       y2="-383.9971"
       x2="-12.0029"
       y1="-383.9971"
       x1="-84.002403"
       gradientUnits="userSpaceOnUse"
       id="linearGradient26907">
      <stop
         id="stop26909"
         style="stop-color:#888a85;stop-opacity:1;"
         offset="0" />
      <stop
         id="stop26911"
         style="stop-color:#2e3436;stop-opacity:1;"
         offset="1" />
    </linearGradient>
    <linearGradient
       inkscape:collect="always"
       xlink:href="#XMLID_11_"
       id="linearGradient6558"
       x1="36.57159"
       y1="2.2454059"
       x2="69.666092"
       y2="122.72039"
       gradientUnits="userSpaceOnUse"
       gradientTransform="matrix(1,0,0,0.9090909,-122.00001,-4.5454547)" />
    <linearGradient
       y2="105.10625"
       x2="98.097946"
       y1="77.512512"
       x1="97.622581"
       gradientTransform="translate(-36.000006,-20.000008)"
       gradientUnits="userSpaceOnUse"
       id="linearGradient2293"
       xlink:href="#linearGradient3225"
       inkscape:collect="always" />
    <linearGradient
       y2="72"
       x2="14.697635"
       y1="96"
       x1="26.697636"
       gradientTransform="matrix(0.9969724,0,0,0.9969724,-63.641028,-170.74569)"
       gradientUnits="userSpaceOnUse"
       id="linearGradient2291"
       xlink:href="#linearGradient3260"
       inkscape:collect="always" />
    <linearGradient
       y2="96.001434"
       x2="11.68106"
       y1="52"
       x1="6.6976352"
       gradientTransform="matrix(0.9969724,0,0,0.9969724,-63.641028,-170.74569)"
       gradientUnits="userSpaceOnUse"
       id="linearGradient2289"
       xlink:href="#linearGradient3260"
       inkscape:collect="always" />
    <linearGradient
       y2="108.0104"
       x2="11.68106"
       y1="60.539303"
       x1="11.68106"
       gradientTransform="matrix(0.9969724,0,0,0.9969724,-63.630923,-170.74569)"
       gradientUnits="userSpaceOnUse"
       id="linearGradient2287"
       xlink:href="#linearGradient3202"
       inkscape:collect="always" />
    <radialGradient
       r="20"
       fy="96"
       fx="-40"
       cy="84"
       cx="-44"
       gradientTransform="matrix(0.9969724,0,0,0.9969724,-1.1332086,-170.74569)"
       gradientUnits="userSpaceOnUse"
       id="radialGradient2285"
       xlink:href="#XMLID_4_"
       inkscape:collect="always" />
    <linearGradient
       y2="19.281664"
       x2="80"
       y1="15.336544"
       x1="73.742638"
       spreadMethod="reflect"
       gradientUnits="userSpaceOnUse"
       id="linearGradient2283"
       xlink:href="#linearGradient3260"
       inkscape:collect="always" />
    <radialGradient
       r="24"
       fy="100"
       fx="-60"
       cy="84"
       cx="-44"
       gradientTransform="matrix(0.9969724,0,0,0.9969724,-1.1332086,-170.74569)"
       gradientUnits="userSpaceOnUse"
       id="radialGradient2281"
       xlink:href="#linearGradient3030"
       inkscape:collect="always" />
    <linearGradient
       y2="19.281664"
       x2="80"
       y1="15.336544"
       x1="73.742638"
       spreadMethod="reflect"
       gradientUnits="userSpaceOnUse"
       id="linearGradient2279"
       xlink:href="#linearGradient3260"
       inkscape:collect="always" />
    <linearGradient
       y2="18.50366"
       x2="76.284439"
       y1="18.50366"
       x1="64.341988"
       gradientTransform="scale(1.039383,0.9621093)"
       gradientUnits="userSpaceOnUse"
       id="linearGradient2277"
       xlink:href="#linearGradient3207"
       inkscape:collect="always" />
    <linearGradient
       y2="19.281664"
       x2="80"
       y1="15.336544"
       x1="73.742638"
       spreadMethod="reflect"
       gradientUnits="userSpaceOnUse"
       id="linearGradient2275"
       xlink:href="#linearGradient5412"
       inkscape:collect="always" />
    <linearGradient
       y2="19.281664"
       x2="80"
       y1="15.336544"
       x1="73.742638"
       spreadMethod="reflect"
       gradientUnits="userSpaceOnUse"
       id="linearGradient2273"
       xlink:href="#linearGradient3260"
       inkscape:collect="always" />
    <linearGradient
       y2="19.281664"
       x2="80"
       y1="15.336544"
       x1="73.742638"
       spreadMethod="reflect"
       gradientUnits="userSpaceOnUse"
       id="linearGradient2271"
       xlink:href="#linearGradient3260"
       inkscape:collect="always" />
    <linearGradient
       y2="104.80668"
       x2="-62.424866"
       y1="76.708466"
       x1="-13.757333"
       gradientTransform="matrix(0.9969724,0,0,0.9969724,-1.1332086,-170.74569)"
       gradientUnits="userSpaceOnUse"
       id="linearGradient2269"
       xlink:href="#XMLID_4_"
       inkscape:collect="always" />
    <linearGradient
       y2="105.10625"
       x2="98.097946"
       y1="77.512512"
       x1="97.622581"
       gradientTransform="translate(-36.000006,-20.000008)"
       gradientUnits="userSpaceOnUse"
       id="linearGradient2251"
       xlink:href="#linearGradient3225"
       inkscape:collect="always" />
    <linearGradient
       y2="72"
       x2="14.697635"
       y1="96"
       x1="26.697636"
       gradientTransform="matrix(0.9969724,0,0,0.9969724,-63.641028,-170.74569)"
       gradientUnits="userSpaceOnUse"
       id="linearGradient2249"
       xlink:href="#linearGradient3260"
       inkscape:collect="always" />
    <linearGradient
       y2="96.001434"
       x2="11.68106"
       y1="52"
       x1="6.6976352"
       gradientTransform="matrix(0.9969724,0,0,0.9969724,-63.641028,-170.74569)"
       gradientUnits="userSpaceOnUse"
       id="linearGradient2247"
       xlink:href="#linearGradient3260"
       inkscape:collect="always" />
    <linearGradient
       y2="108.0104"
       x2="11.68106"
       y1="60.539303"
       x1="11.68106"
       gradientTransform="matrix(0.9969724,0,0,0.9969724,-63.630923,-170.74569)"
       gradientUnits="userSpaceOnUse"
       id="linearGradient2245"
       xlink:href="#linearGradient3202"
       inkscape:collect="always" />
    <radialGradient
       r="20"
       fy="96"
       fx="-40"
       cy="84"
       cx="-44"
       gradientTransform="matrix(0.9969724,0,0,0.9969724,-1.1332086,-170.74569)"
       gradientUnits="userSpaceOnUse"
       id="radialGradient2243"
       xlink:href="#XMLID_4_"
       inkscape:collect="always" />
    <linearGradient
       y2="19.281664"
       x2="80"
       y1="15.336544"
       x1="73.742638"
       spreadMethod="reflect"
       gradientUnits="userSpaceOnUse"
       id="linearGradient2241"
       xlink:href="#linearGradient3260"
       inkscape:collect="always" />
    <radialGradient
       r="24"
       fy="100"
       fx="-60"
       cy="84"
       cx="-44"
       gradientTransform="matrix(0.9969724,0,0,0.9969724,-1.1332086,-170.74569)"
       gradientUnits="userSpaceOnUse"
       id="radialGradient2239"
       xlink:href="#linearGradient3030"
       inkscape:collect="always" />
    <linearGradient
       y2="19.281664"
       x2="80"
       y1="15.336544"
       x1="73.742638"
       spreadMethod="reflect"
       gradientUnits="userSpaceOnUse"
       id="linearGradient2237"
       xlink:href="#linearGradient3260"
       inkscape:collect="always" />
    <linearGradient
       y2="18.50366"
       x2="76.284439"
       y1="18.50366"
       x1="64.341988"
       gradientTransform="scale(1.039383,0.9621093)"
       gradientUnits="userSpaceOnUse"
       id="linearGradient2235"
       xlink:href="#linearGradient3207"
       inkscape:collect="always" />
    <linearGradient
       y2="19.281664"
       x2="80"
       y1="15.336544"
       x1="73.742638"
       spreadMethod="reflect"
       gradientUnits="userSpaceOnUse"
       id="linearGradient2233"
       xlink:href="#linearGradient5412"
       inkscape:collect="always" />
    <linearGradient
       y2="19.281664"
       x2="80"
       y1="15.336544"
       x1="73.742638"
       spreadMethod="reflect"
       gradientUnits="userSpaceOnUse"
       id="linearGradient2231"
       xlink:href="#linearGradient3260"
       inkscape:collect="always" />
    <linearGradient
       y2="19.281664"
       x2="80"
       y1="15.336544"
       x1="73.742638"
       spreadMethod="reflect"
       gradientUnits="userSpaceOnUse"
       id="linearGradient2229"
       xlink:href="#linearGradient3260"
       inkscape:collect="always" />
    <linearGradient
       y2="104.80668"
       x2="-62.424866"
       y1="76.708466"
       x1="-13.757333"
       gradientTransform="matrix(0.9969724,0,0,0.9969724,-1.1332086,-170.74569)"
       gradientUnits="userSpaceOnUse"
       id="linearGradient2227"
       xlink:href="#XMLID_4_"
       inkscape:collect="always" />
    <linearGradient
       y2="18.50366"
       x2="76.284439"
       y1="18.50366"
       x1="64.341988"
       gradientTransform="scale(1.039383,0.9621093)"
       gradientUnits="userSpaceOnUse"
       id="linearGradient3005"
       xlink:href="#linearGradient3207"
       inkscape:collect="always" />
    <linearGradient
       y2="19.281664"
       x2="80"
       y1="15.336544"
       x1="73.742638"
       spreadMethod="reflect"
       gradientUnits="userSpaceOnUse"
       id="linearGradient3003"
       xlink:href="#linearGradient5412"
       inkscape:collect="always" />
    <linearGradient
       gradientTransform="translate(-36.000006,-20.000008)"
       y2="105.10625"
       x2="98.097946"
       y1="77.512512"
       x1="97.622581"
       gradientUnits="userSpaceOnUse"
       id="linearGradient4259"
       xlink:href="#linearGradient3225"
       inkscape:collect="always" />
    <linearGradient
       id="linearGradient3225">
      <stop
         id="stop3227"
         offset="0"
         style="stop-color:#ffffff;stop-opacity:1;" />
      <stop
         id="stop3229"
         offset="1"
         style="stop-color:#ffffff;stop-opacity:0;" />
    </linearGradient>
    <filter
       inkscape:collect="always"
       id="filter3191">
      <feGaussianBlur
         inkscape:collect="always"
         stdDeviation="0.2025"
         id="feGaussianBlur3193" />
    </filter>
    <linearGradient
       y2="72"
       x2="14.697635"
       y1="96"
       x1="26.697636"
       gradientTransform="matrix(0.9969724,0,0,0.9969724,13.44087,-51.663795)"
       gradientUnits="userSpaceOnUse"
       id="linearGradient4262"
       xlink:href="#linearGradient3260"
       inkscape:collect="always" />
    <linearGradient
       inkscape:collect="always"
       id="linearGradient3260">
      <stop
         style="stop-color:#ffffff;stop-opacity:1;"
         offset="0"
         id="stop3262" />
      <stop
         style="stop-color:#ffffff;stop-opacity:0;"
         offset="1"
         id="stop3264" />
    </linearGradient>
    <linearGradient
       y2="96.001434"
       x2="11.68106"
       y1="52"
       x1="6.6976352"
       gradientTransform="matrix(0.9969724,0,0,0.9969724,13.44087,-51.663795)"
       gradientUnits="userSpaceOnUse"
       id="linearGradient4265"
       xlink:href="#linearGradient3260"
       inkscape:collect="always" />
    <linearGradient
       y2="108.0104"
       x2="11.68106"
       y1="60.539303"
       x1="11.68106"
       gradientTransform="matrix(0.9969724,0,0,0.9969724,13.450975,-51.663795)"
       gradientUnits="userSpaceOnUse"
       id="linearGradient4268"
       xlink:href="#linearGradient3202"
       inkscape:collect="always" />
    <linearGradient
       id="linearGradient3202">
      <stop
         id="stop3204"
         offset="0"
         style="stop-color:#cbff9c;stop-opacity:1;" />
      <stop
         id="stop3206"
         offset="1"
         style="stop-color:#65c171;stop-opacity:0" />
    </linearGradient>
    <radialGradient
       r="20"
       fy="96"
       fx="-40"
       cy="84"
       cx="-44"
       gradientTransform="matrix(0.9969724,0,0,0.9969724,75.948689,-51.663795)"
       gradientUnits="userSpaceOnUse"
       id="radialGradient4271"
       xlink:href="#XMLID_4_"
       inkscape:collect="always" />
    <radialGradient
       id="XMLID_4_"
       cx="48"
       cy="-0.2148"
       r="55.147999"
       gradientTransform="matrix(0.9792,0,0,0.9725,133.0002,20.8762)"
       gradientUnits="userSpaceOnUse">
      <stop
         offset="0"
         style="stop-color:#72D13D"
         id="stop3082" />
      <stop
         offset="0.3553"
         style="stop-color:#35AC1C"
         id="stop3084" />
      <stop
         offset="0.6194"
         style="stop-color:#0F9508"
         id="stop3086" />
      <stop
         offset="0.7574"
         style="stop-color:#008C00"
         id="stop3088" />
      <stop
         offset="1"
         style="stop-color:#007A00"
         id="stop3090" />
    </radialGradient>
    <linearGradient
       y2="19.281664"
       x2="80"
       y1="15.336544"
       x1="73.742638"
       spreadMethod="reflect"
       gradientUnits="userSpaceOnUse"
       id="linearGradient4289"
       xlink:href="#linearGradient3260"
       inkscape:collect="always" />
    <filter
       inkscape:collect="always"
       x="-0.10207015"
       width="1.2041403"
       y="-0.12495601"
       height="1.249912"
       id="filter3387">
      <feGaussianBlur
         inkscape:collect="always"
         stdDeviation="0.44655691"
         id="feGaussianBlur3389" />
    </filter>
    <radialGradient
       r="24"
       fy="100"
       fx="-60"
       cy="84"
       cx="-44"
       gradientTransform="matrix(0.9969724,0,0,0.9969724,75.948689,-51.663795)"
       gradientUnits="userSpaceOnUse"
       id="radialGradient4275"
       xlink:href="#linearGradient3030"
       inkscape:collect="always" />
    <linearGradient
       inkscape:collect="always"
       id="linearGradient3030">
      <stop
         style="stop-color:#000000;stop-opacity:0.77902622"
         offset="0"
         id="stop3032" />
      <stop
         style="stop-color:#000000;stop-opacity:0;"
         offset="1"
         id="stop3034" />
    </linearGradient>
    <linearGradient
       y2="19.281664"
       x2="80"
       y1="15.336544"
       x1="73.742638"
       spreadMethod="reflect"
       gradientUnits="userSpaceOnUse"
       id="linearGradient4291"
       xlink:href="#linearGradient3260"
       inkscape:collect="always" />
    <linearGradient
       y2="0"
       x2="28"
       y1="57.5"
       x1="28"
       gradientUnits="userSpaceOnUse"
       id="linearGradient5412">
      <stop
         id="stop5414"
         style="stop-color:#fff14d;stop-opacity:1;"
         offset="0" />
      <stop
         id="stop5416"
         style="stop-color:#f8ffa0;stop-opacity:0;"
         offset="1" />
    </linearGradient>
    <linearGradient
       id="linearGradient3207">
      <stop
         id="stop3209"
         offset="0"
         style="stop-color:#ffffff;stop-opacity:1;" />
      <stop
         id="stop3211"
         offset="1"
         style="stop-color:#252525;stop-opacity:0;" />
    </linearGradient>
    <linearGradient
       y2="19.281664"
       x2="80"
       y1="15.336544"
       x1="73.742638"
       spreadMethod="reflect"
       gradientUnits="userSpaceOnUse"
       id="linearGradient4297"
       xlink:href="#linearGradient3260"
       inkscape:collect="always" />
    <linearGradient
       y2="19.281664"
       x2="80"
       y1="15.336544"
       x1="73.742638"
       spreadMethod="reflect"
       gradientUnits="userSpaceOnUse"
       id="linearGradient4299"
       xlink:href="#linearGradient3260"
       inkscape:collect="always" />
    <linearGradient
       y2="104.80668"
       x2="-62.424866"
       y1="76.708466"
       x1="-13.757333"
       gradientTransform="matrix(0.9969724,0,0,0.9969724,75.948689,-51.663795)"
       gradientUnits="userSpaceOnUse"
       id="linearGradient4284"
       xlink:href="#XMLID_4_"
       inkscape:collect="always" />
    <linearGradient
       inkscape:collect="always"
       xlink:href="#linearGradient3241"
       id="linearGradient3247"
       x1="-36.027164"
       y1="-22.624426"
       x2="-36.027164"
       y2="92.000282"
       gradientUnits="userSpaceOnUse" />
  </defs>
  <sodipodi:namedview
     id="base"
     pagecolor="#ffffff"
     bordercolor="#666666"
     borderopacity="1.0"
     gridtolerance="10000"
     guidetolerance="10"
     objecttolerance="10"
     inkscape:pageopacity="0.0"
     inkscape:pageshadow="2"
     inkscape:zoom="0.25"
     inkscape:cx="64"
     inkscape:cy="64"
     inkscape:document-units="px"
     inkscape:current-layer="layer1"
     width="128px"
     height="128px"
     showgrid="false"
     gridspacingx="4px"
     gridspacingy="4px"
     gridempspacing="2"
     inkscape:window-width="794"
     inkscape:window-height="686"
     inkscape:window-x="0"
     inkscape:window-y="0"
     inkscape:grid-points="true"
     showborder="false" />
  <metadata
     id="metadata1948">
    <rdf:RDF>
      <cc:Work
         rdf:about="">
        <dc:format>image/svg+xml</dc:format>
        <dc:type
           rdf:resource="http://purl.org/dc/dcmitype/StillImage" />
      </cc:Work>
    </rdf:RDF>
  </metadata>
  <g
     inkscape:label="Layer 1"
     inkscape:groupmode="layer"
     id="layer1">
    <rect
       style="fill:#2c72c7;fill-opacity:1;stroke:none"
       id="rect3254"
       height="12"
       width="12"
       y="88"
       x="112" />
    <rect
       transform="scale(-1,-1)"
       style="fill:#bfd9ff;fill-opacity:1"
       id="rect3256"
       height="4"
       width="4"
       y="-96"
       x="-120" />
    <rect
       style="opacity:1;fill:url(#linearGradient3247);fill-opacity:1.0;stroke:url(#linearGradient6558);stroke-width:4;stroke-linecap:round;stroke-linejoin:miter;stroke-miterlimit:4;stroke-dasharray:none;stroke-opacity:1"
       id="rect6554"
       width="104"
       height="80"
       x="-114"
       y="10"
       transform="scale(-1,1)" />
    <rect
       x="56"
       width="12"
       height="12"
       id="rect27"
       style="fill:#2c72c7;fill-opacity:1;stroke:none"
       y="0" />
    <rect
       x="56"
       y="88"
       width="12"
       height="12"
       id="rect34"
       style="fill:#2c72c7;fill-opacity:1;stroke:none" />
    <rect
       width="12.000036"
       height="12"
       id="rect41"
       style="fill:#2c72c7;fill-opacity:1;stroke:none"
       x="-3.6478043e-05"
       y="0" />
    <rect
       y="88"
       width="12"
       height="12"
       id="rect48"
       style="fill:#2c72c7;fill-opacity:1;stroke:none"
       x="0" />
    <rect
       x="112"
       width="12"
       height="12"
       id="rect55"
       style="fill:#2c72c7;fill-opacity:1;stroke:none"
       y="0" />
    <rect
       x="112"
       y="88"
       width="8"
       height="8"
       id="rect62"
       style="fill:#2c72c7;fill-opacity:1;stroke:none" />
    <rect
       y="44"
       width="12"
       height="12"
       id="rect69"
       style="fill:#2c72c7;fill-opacity:1;stroke:none"
       x="0" />
    <rect
       x="112"
       y="44"
       width="12"
       height="12"
       id="rect76"
       style="fill:#2c72c7;fill-opacity:1" />
    <path
       sodipodi:nodetypes="ccc"
       id="path2276"
       d="M 130.80745,66.062062 L 130.80745,64.664708 L 130.80745,66.062062 z "
       style="fill:#ffffff;fill-opacity:0.75688076;fill-rule:nonzero;stroke:none;stroke-width:0.5;stroke-linecap:round;stroke-linejoin:round;stroke-miterlimit:4;stroke-dasharray:none;stroke-dashoffset:4;stroke-opacity:1" />
    <g
       id="g2459"
       inkscape:label="Livello 1"
       transform="translate(64.07266,64.072659)">
      <g
         transform="translate(77,119)"
         id="g2253">
        <path
           clip-path="none"
           style="opacity:1;fill:none;fill-opacity:1;stroke:#ffffff;stroke-width:8;stroke-linecap:round;stroke-linejoin:round;stroke-miterlimit:4;stroke-dasharray:none;stroke-dashoffset:1.08779998;stroke-opacity:1"
           d="M -46.931632,-110.92734 C -50.239115,-110.92734 -52.975781,-108.19067 -52.975781,-104.8832 L -52.975781,-94.975783 L -62.883194,-94.975783 C -66.190673,-94.975783 -68.92734,-93.72567 -68.92734,-90.418193 C -68.92734,-91.361602 -68.927339,-87.037328 -68.927339,-85.068372 C -68.927339,-81.760885 -66.190673,-79.024226 -62.883194,-79.024226 L -52.975781,-79.024226 L -52.975781,-69.116805 C -52.975781,-65.809329 -50.239112,-63.072659 -46.931632,-63.072659 L -43.068362,-63.072659 C -39.760887,-63.072659 -37.024218,-65.809329 -37.024218,-69.116805 L -37.024218,-79.024226 L -27.116802,-79.024226 C -23.809326,-79.024226 -21.07266,-81.760885 -21.07266,-85.068372 L -21.07266,-88.93164 C -21.07266,-92.239117 -23.809326,-94.975783 -27.116802,-94.975783 L -37.024218,-94.975783 L -37.024218,-104.8832 C -37.024218,-108.19067 -39.760887,-110.92734 -43.068362,-110.92734 L -46.931632,-110.92734 z "
           id="path2212"
           sodipodi:nodetypes="ccccccccccccccccccccc" />
        <path
           style="fill:url(#linearGradient2269);fill-opacity:1;stroke:none;stroke-width:8;stroke-linecap:round;stroke-linejoin:round;stroke-miterlimit:4;stroke-dasharray:none;stroke-dashoffset:1.08779998;stroke-opacity:1"
           d="M -46.931632,-110.92734 C -50.239115,-110.92734 -52.975781,-108.19067 -52.975781,-104.8832 L -52.975781,-94.975783 L -62.883194,-94.975783 C -66.190673,-94.975783 -68.927339,-92.239117 -68.927339,-88.93164 L -68.927339,-85.068372 C -68.927339,-81.760885 -66.190673,-79.024226 -62.883194,-79.024226 L -52.975781,-79.024226 L -52.975781,-69.116805 C -52.975781,-65.809329 -50.239112,-63.072659 -46.931632,-63.072659 L -43.068362,-63.072659 C -39.76089,-63.072659 -37.02422,-65.809329 -37.02422,-69.116805 L -37.02422,-79.024226 L -27.116802,-79.024226 C -23.809326,-79.024226 -21.07266,-81.760885 -21.07266,-85.068372 L -21.07266,-88.93164 C -21.07266,-92.239117 -23.809326,-94.975783 -27.116802,-94.975783 L -37.02422,-94.975783 L -37.02422,-104.8832 C -37.02422,-108.19067 -39.76089,-110.92734 -43.068362,-110.92734 L -46.931632,-110.92734 z "
           id="path3012"
           sodipodi:nodetypes="ccccccccccccccccccccc"
           clip-path="none" />
        <path
           sodipodi:nodetypes="cccccc"
           transform="matrix(-0.4984862,0,0,0.4984862,-13.096875,-116.5511)"
           id="path3091"
           d="M 69.875971,12.057888 C 68.798883,12.123171 67.34775,12.277052 66.875971,12.995388 L 68.465655,24.133449 L 79,23.37409 L 79,22.90534 C 80.740958,20.33518 74.219552,11.998548 69.875971,12.057888 z "
           style="fill:url(#linearGradient2271);fill-opacity:1;fill-rule:evenodd;stroke:none;stroke-width:1px;stroke-linecap:butt;stroke-linejoin:miter;stroke-opacity:1;filter:url(#filter3387)"
           clip-path="none" />
        <path
           style="fill:url(#linearGradient2273);fill-opacity:1;fill-rule:evenodd;stroke:none;stroke-width:1px;stroke-linecap:butt;stroke-linejoin:miter;stroke-opacity:1;filter:url(#filter3387)"
           d="M 69.875971,12.057888 C 68.798883,12.123171 67.34775,12.277052 66.875971,12.995388 L 68.172686,21.789699 L 79,23.37409 L 79,22.90534 C 80.740958,20.33518 74.219552,11.998548 69.875971,12.057888 z "
           id="path3095"
           transform="matrix(0.4984862,0,0,0.4984862,-76.548569,-116.5511)"
           sodipodi:nodetypes="cccccc"
           clip-path="none" />
        <path
           style="opacity:0.68164804;fill:url(#linearGradient2275);fill-opacity:1;fill-rule:evenodd;stroke:none;stroke-width:1px;stroke-linecap:butt;stroke-linejoin:miter;stroke-opacity:1;filter:url(#filter3387)"
           d="M 69.875971,12.057888 C 68.798883,12.123171 67.34775,12.277052 66.875971,12.995388 L 69.051593,23.742824 L 79,23.37409 L 79,22.90534 C 80.740958,20.33518 74.219552,11.998548 69.875971,12.057888 z "
           id="path3197"
           transform="matrix(-0.4984862,0,0,-0.4984862,-13.096875,-57.06213)"
           sodipodi:nodetypes="cccccc" />
        <path
           sodipodi:nodetypes="cccccc"
           transform="matrix(0.4984862,0,0,-0.4984862,-76.548565,-57.06213)"
           id="path3199"
           d="M 69.875971,12.057888 C 68.798883,12.123171 67.34775,12.277052 66.875971,12.995388 L 67.782061,23.547512 L 79,23.37409 L 79,22.90534 C 80.740958,20.33518 74.219552,11.998548 69.875971,12.057888 z "
           style="opacity:0.70786516;fill:url(#linearGradient2277);fill-opacity:1;fill-rule:evenodd;stroke:none;stroke-width:1px;stroke-linecap:butt;stroke-linejoin:miter;stroke-opacity:1;filter:url(#filter3387)" />
        <path
           sodipodi:nodetypes="cccccc"
           transform="matrix(0.4984862,0,0,0.4984862,-60.59701,-100.98632)"
           id="path3221"
           d="M 69.875971,12.057888 C 68.798883,12.123171 67.34775,12.277052 66.875971,12.995388 L 68.465655,24.133449 L 79,23.37409 L 79,22.90534 C 80.740958,20.33518 74.219552,11.998548 69.875971,12.057888 z "
           style="opacity:0.55056176;fill:url(#linearGradient2279);fill-opacity:1;fill-rule:evenodd;stroke:none;stroke-width:1px;stroke-linecap:butt;stroke-linejoin:miter;stroke-opacity:1;filter:url(#filter3387)"
           clip-path="none" />
        <path
           sodipodi:nodetypes="ccccccccccccccccccccc"
           id="path3028"
           d="M -46.931632,-110.92734 C -50.239115,-110.92734 -52.975781,-108.19067 -52.975781,-104.8832 L -52.975781,-94.975783 L -62.883194,-94.975783 C -66.190673,-94.975783 -68.92734,-93.72567 -68.92734,-90.418193 C -68.92734,-91.361602 -68.927339,-87.037328 -68.927339,-85.068372 C -68.927339,-81.760885 -66.190673,-79.024226 -62.883194,-79.024226 L -52.975781,-79.024226 L -52.975781,-69.116805 C -52.975781,-65.809329 -50.239112,-63.072659 -46.931632,-63.072659 L -43.068362,-63.072659 C -39.760887,-63.072659 -37.024218,-65.809329 -37.024218,-69.116805 L -37.024218,-79.024226 L -27.116802,-79.024226 C -23.809326,-79.024226 -21.07266,-81.760885 -21.07266,-85.068372 L -21.07266,-88.93164 C -21.07266,-92.239117 -23.809326,-94.975783 -27.116802,-94.975783 L -37.024218,-94.975783 L -37.024218,-104.8832 C -37.024218,-108.19067 -39.760887,-110.92734 -43.068362,-110.92734 L -46.931632,-110.92734 z "
           style="opacity:0.58052434;fill:url(#radialGradient2281);fill-opacity:1;stroke:none;stroke-width:8;stroke-linecap:round;stroke-linejoin:round;stroke-miterlimit:4;stroke-dasharray:none;stroke-dashoffset:1.08779998;stroke-opacity:1"
           clip-path="none" />
        <path
           style="opacity:0.55056176;fill:url(#linearGradient2283);fill-opacity:1;fill-rule:evenodd;stroke:none;stroke-width:1px;stroke-linecap:butt;stroke-linejoin:miter;stroke-opacity:1;filter:url(#filter3387)"
           d="M 69.875971,12.057888 C 68.798883,12.123171 67.34775,12.277052 66.875971,12.995388 L 68.465655,24.133449 L 79,23.37409 L 79,22.90534 C 80.740958,20.33518 74.219552,11.998548 69.875971,12.057888 z "
           id="path3217"
           transform="matrix(-0.4984862,0,0,0.4984862,-29.402996,-100.98632)"
           sodipodi:nodetypes="cccccc"
           clip-path="none" />
        <path
           style="fill:url(#radialGradient2285);fill-opacity:1;stroke:none;stroke-width:2;stroke-linecap:round;stroke-linejoin:round;stroke-miterlimit:4;stroke-dasharray:none;stroke-dashoffset:1.08779998;stroke-opacity:1"
           d="M -46.931632,-106.93945 C -48.062169,-106.93945 -48.987891,-106.01373 -48.987891,-104.8832 L -48.987891,-90.987893 L -62.883194,-90.987893 C -64.01373,-90.987893 -64.939449,-90.062176 -64.939449,-88.93164 L -64.939449,-85.068372 C -64.939449,-83.937836 -64.01373,-83.012117 -62.883194,-83.012117 L -48.987891,-83.012117 L -48.987891,-69.116805 C -48.987891,-67.986266 -48.062169,-67.060549 -46.931632,-67.060549 L -43.068362,-67.060549 C -41.937827,-67.060549 -41.01211,-67.986266 -41.01211,-69.116805 L -41.01211,-83.012117 L -27.116802,-83.012117 C -25.986267,-83.012117 -25.060546,-83.937836 -25.060546,-85.068372 L -25.060546,-88.93164 C -25.060546,-90.062176 -25.986267,-90.987893 -27.116802,-90.987893 L -41.01211,-90.987893 L -41.01211,-104.8832 C -41.01211,-106.01373 -41.937827,-106.93945 -43.068362,-106.93945 L -46.931632,-106.93945 z "
           id="rect2407"
           clip-path="none" />
        <path
           style="fill:url(#linearGradient2287);fill-opacity:1;stroke:none;stroke-width:2;stroke-linecap:round;stroke-linejoin:round;stroke-miterlimit:4;stroke-dasharray:none;stroke-dashoffset:1.08779998;stroke-opacity:1"
           d="M -46.931632,-106.93945 C -48.062169,-106.93945 -48.987891,-106.01373 -48.987891,-104.8832 L -48.987891,-90.987893 L -62.883194,-90.987893 C -64.01373,-90.987893 -64.939449,-90.062176 -64.939449,-88.93164 L -64.939449,-85.068372 C -64.939449,-84.958904 -64.89384,-84.861779 -64.877139,-84.756818 C -61.629316,-84.28867 -58.206056,-84.009089 -54.658172,-84.009089 C -43.19142,-84.009089 -32.918348,-86.630957 -26.15099,-90.738652 C -26.439351,-90.893332 -26.76846,-90.987893 -27.116802,-90.987893 L -41.01211,-90.987893 L -41.01211,-104.8832 C -41.01211,-106.01373 -41.937827,-106.93945 -43.068362,-106.93945 L -46.931632,-106.93945 z "
           id="path3038"
           clip-path="none" />
        <path
           style="fill:url(#linearGradient2289);fill-opacity:1;stroke:none;stroke-width:2;stroke-linecap:round;stroke-linejoin:round;stroke-miterlimit:4;stroke-dasharray:none;stroke-dashoffset:1.08779998;stroke-opacity:1"
           d="M -46.931632,-106.93945 C -48.062169,-106.93945 -48.987891,-106.01373 -48.987891,-104.8832 L -48.987891,-103.88622 C -48.987891,-105.01676 -47.66338,-106.54066 -46.532843,-106.54066 L -42.669572,-106.54066 C -42.386943,-106.54066 -42.105298,-106.48934 -41.859537,-106.38488 C -41.749611,-106.13612 -41.373512,-105.26371 -41.373512,-104.97666 L -41.01211,-90.987893 L -40.980952,-104.8832 C -40.980952,-105.45708 -41.221283,-105.97347 -41.604061,-106.3475 C -41.691566,-106.435 -41.78255,-106.52598 -41.884461,-106.59674 C -41.892125,-106.60193 -41.907878,-106.59165 -41.915615,-106.59674 C -42.017386,-106.66566 -42.113685,-106.7336 -42.227168,-106.78367 C -42.235803,-106.78734 -42.249632,-106.78012 -42.258325,-106.78367 C -42.372579,-106.83223 -42.508673,-106.88101 -42.632186,-106.9083 C -42.642396,-106.9104 -42.653083,-106.90634 -42.663344,-106.9083 C -42.786637,-106.93371 -42.907151,-106.93742 -43.037208,-106.93945 L -43.068362,-106.93945 L -43.535694,-106.93945 L -46.931632,-106.93945 z M -62.883194,-90.987893 C -64.01373,-90.987893 -64.939449,-90.062176 -64.939449,-88.93164 L -64.939449,-87.934667 C -64.939449,-89.065204 -64.01373,-90.589106 -62.883194,-90.589106 L -48.987891,-90.987893 L -62.883194,-90.987893 z M -41.01211,-90.987893 L -27.294,-90.477724 C -34.032732,-86.861606 -45.062508,-84.102544 -55.717455,-84.102555 C -57.491397,-84.102555 -59.246281,-84.192233 -60.95156,-84.320642 C -58.897404,-84.134288 -56.7848,-84.009089 -54.627016,-84.009089 C -43.88956,-84.009089 -34.20528,-86.325763 -27.459509,-89.990923 C -27.451577,-89.99523 -27.436283,-89.986606 -27.42836,-89.990923 C -26.987139,-90.231423 -26.566353,-90.486528 -26.15099,-90.738652 C -26.286882,-90.811551 -26.435419,-90.882993 -26.587162,-90.925584 C -26.597124,-90.928226 -26.608294,-90.923082 -26.618315,-90.925584 C -26.77023,-90.965912 -26.922767,-90.985184 -27.085644,-90.987893 L -27.116802,-90.987893 L -27.584135,-90.987893 L -41.01211,-90.987893 z "
           id="path3062"
           sodipodi:nodetypes="cccccccccsssssssccccccccccccscssscsscccc"
           clip-path="none" />
        <path
           sodipodi:nodetypes="cccccccccsssssssccccccccccccscssscsscccc"
           id="path3087"
           d="M -46.931632,-106.93945 C -48.062169,-106.93945 -48.987891,-106.01373 -48.987891,-104.8832 L -48.987891,-103.88622 C -48.987891,-105.01676 -47.66338,-106.54066 -46.532843,-106.54066 L -42.669572,-106.54066 C -42.386943,-106.54066 -42.105298,-106.48934 -41.859537,-106.38488 C -41.749611,-106.13612 -41.373512,-105.26371 -41.373512,-104.97666 L -41.01211,-90.987893 L -40.980952,-104.8832 C -40.980952,-105.45708 -41.221283,-105.97347 -41.604061,-106.3475 C -41.691566,-106.435 -41.78255,-106.52598 -41.884461,-106.59674 C -41.892125,-106.60193 -41.907878,-106.59165 -41.915615,-106.59674 C -42.017386,-106.66566 -42.113685,-106.7336 -42.227168,-106.78367 C -42.235803,-106.78734 -42.249632,-106.78012 -42.258325,-106.78367 C -42.372579,-106.83223 -42.508673,-106.88101 -42.632186,-106.9083 C -42.642396,-106.9104 -42.653083,-106.90634 -42.663344,-106.9083 C -42.786637,-106.93371 -42.907151,-106.93742 -43.037208,-106.93945 L -43.068362,-106.93945 L -43.535694,-106.93945 L -46.931632,-106.93945 z M -62.883194,-90.987893 C -64.01373,-90.987893 -64.939449,-90.062176 -64.939449,-88.93164 L -64.939449,-87.934667 C -64.939449,-89.065204 -64.01373,-90.589106 -62.883194,-90.589106 L -48.987891,-90.987893 L -62.883194,-90.987893 z M -41.01211,-90.987893 L -27.19664,-90.477724 C -33.935367,-86.861606 -45.062508,-84.102544 -55.717455,-84.102555 C -57.491397,-84.102555 -59.246281,-84.192233 -60.95156,-84.320642 C -58.897404,-84.134288 -56.7848,-84.009089 -54.627016,-84.009089 C -43.88956,-84.009089 -34.20528,-86.325763 -27.459509,-89.990923 C -27.451577,-89.99523 -27.436283,-89.986606 -27.42836,-89.990923 C -26.987139,-90.231423 -26.566353,-90.486528 -26.15099,-90.738652 C -26.286882,-90.811551 -26.435419,-90.882993 -26.587162,-90.925584 C -26.597124,-90.928226 -26.608294,-90.923082 -26.618315,-90.925584 C -26.77023,-90.965912 -26.922767,-90.985184 -27.085644,-90.987893 L -27.116802,-90.987893 L -27.584135,-90.987893 L -41.01211,-90.987893 z "
           style="fill:url(#linearGradient2291);fill-opacity:1;stroke:none;stroke-width:2;stroke-linecap:round;stroke-linejoin:round;stroke-miterlimit:4;stroke-dasharray:none;stroke-dashoffset:1.08779998;stroke-opacity:1"
           clip-path="none" />
        <path
           id="path3099"
           d="M 62.0625,43.999992 C 60.92853,43.999992 59.999996,44.928523 59.999996,46.062492 L 59.999996,59.999992 L 46.062496,59.999992 C 44.928527,59.999992 43.999996,60.92852 43.999996,62.06249 L 43.999996,65.93749 C 43.999996,67.07146 44.928527,67.99999 46.062496,67.99999 L 59.999996,67.99999 L 59.999996,81.9375 C 59.999996,83.07147 60.92853,84 62.0625,84 L 65.9375,84 C 67.07147,84 68,83.07147 68,81.9375 L 68,67.99999 L 81.9375,67.99999 C 83.07147,67.99999 84,67.07146 84,65.93749 L 84,62.06249 C 84,60.92852 83.07147,59.999992 81.9375,59.999992 L 68,59.999992 L 68,46.062492 C 68,44.928523 67.07147,43.999992 65.9375,43.999992 L 62.0625,43.999992 z "
           style="fill:none;fill-opacity:1;stroke:url(#linearGradient2293);stroke-width:1.25379586;stroke-linecap:round;stroke-linejoin:round;stroke-miterlimit:4;stroke-dasharray:none;stroke-dashoffset:1.08779998;stroke-opacity:1;filter:url(#filter3191)"
           clip-path="none"
           transform="matrix(0.9969724,0,0,0.9969724,-108.80623,-150.80623)" />
      </g>
    </g>
    <path
       style="font-size:12px;font-style:normal;font-weight:normal;fill:#000000;fill-opacity:1;stroke:none;stroke-width:1px;stroke-linecap:butt;stroke-linejoin:miter;stroke-opacity:1;font-family:Bitstream Vera Sans"
       d="M 54,72 L 54,68 L 60,68 L 59.918548,32 L 48,32 L 48,38 L 44,38 L 44,28 L 80,28 L 80,38 L 76,38 L 76,32 L 64,32 L 64,68 L 70,68 L 70,72"
       id="text3233"
       sodipodi:nodetypes="cccccccccccccccc" />
    <rect
       style="fill:#bfd9ff;fill-opacity:1"
       id="rect3238"
       height="4"
       width="4"
       y="48"
       x="116" />
    <rect
       x="116"
       y="4"
       width="4"
       height="4"
       id="rect3240"
       style="fill:#bfd9ff;fill-opacity:1" />
    <rect
       style="fill:#bfd9ff;fill-opacity:1"
       id="rect3242"
       height="4"
       width="4"
       y="4"
       x="60" />
    <rect
       x="4"
       y="4"
       width="4"
       height="4"
       id="rect3244"
       style="fill:#bfd9ff;fill-opacity:1" />
    <rect
       x="-8"
       y="-52"
       width="4"
       height="4"
       id="rect3246"
       style="fill:#bfd9ff;fill-opacity:1"
       transform="scale(-1,-1)" />
    <rect
       style="fill:#bfd9ff;fill-opacity:1"
       id="rect3248"
       height="4"
       width="4"
       y="-96"
       x="-8"
       transform="scale(-1,-1)" />
    <rect
       x="-64"
       y="-96"
       width="4"
       height="4"
       id="rect3250"
       style="fill:#bfd9ff;fill-opacity:1"
       transform="scale(-1,-1)" />
  </g>
</svg>
