<?xml version="1.0" encoding="UTF-8" standalone="no"?>
<!-- Created with Inkscape (http://www.inkscape.org/) -->
<svg
   xmlns:dc="http://purl.org/dc/elements/1.1/"
   xmlns:cc="http://creativecommons.org/ns#"
   xmlns:rdf="http://www.w3.org/1999/02/22-rdf-syntax-ns#"
   xmlns:svg="http://www.w3.org/2000/svg"
   xmlns="http://www.w3.org/2000/svg"
   xmlns:xlink="http://www.w3.org/1999/xlink"
   xmlns:sodipodi="http://sodipodi.sourceforge.net/DTD/sodipodi-0.dtd"
   xmlns:inkscape="http://www.inkscape.org/namespaces/inkscape"
   width="128"
   height="128"
   id="svg2"
   sodipodi:version="0.32"
   inkscape:version="0.45+devel"
   version="1.0"
   sodipodi:docbase="/home/david/Oxygen/kdelibs/scalable/actions"
   sodipodi:docname="system-restart.svgz"
   inkscape:output_extension="org.inkscape.output.svgz.inkscape"
   inkscape:export-filename="/home/pinheiro/pics/oxygen/scalable/actions/system-restart.png"
   inkscape:export-xdpi="180"
   inkscape:export-ydpi="180">
  <defs
     id="defs4">
    <linearGradient
       id="linearGradient2990">
      <stop
         style="stop-color:#cccccc;stop-opacity:1;"
         offset="0"
         id="stop2992" />
      <stop
         style="stop-color:#f1f1f1;stop-opacity:1;"
         offset="1"
         id="stop2994" />
    </linearGradient>
    <linearGradient
       id="linearGradient3237">
      <stop
         style="stop-color:#ffeb8b;stop-opacity:1;"
         offset="0"
         id="stop3239" />
      <stop
         style="stop-color:#ffffff;stop-opacity:0;"
         offset="1"
         id="stop3241" />
    </linearGradient>
    <linearGradient
       id="linearGradient6674">
      <stop
         style="stop-color:#bf0000;stop-opacity:1;"
         offset="0"
         id="stop6676" />
      <stop
         style="stop-color:#ff1111;stop-opacity:0;"
         offset="1"
         id="stop6678" />
    </linearGradient>
    <linearGradient
       id="linearGradient6666">
      <stop
         id="stop6668"
         offset="0"
         style="stop-color:#f9ff00;stop-opacity:1;" />
      <stop
         id="stop6670"
         offset="1"
         style="stop-color:#db7300;stop-opacity:1;" />
    </linearGradient>
    <linearGradient
       id="linearGradient6643">
      <stop
         style="stop-color:#ff6565;stop-opacity:1;"
         offset="0"
         id="stop6645" />
      <stop
         style="stop-color:#ffdfbf;stop-opacity:0;"
         offset="1"
         id="stop6647" />
    </linearGradient>
    <linearGradient
       id="linearGradient6631">
      <stop
         style="stop-color:#703700;stop-opacity:1;"
         offset="0"
         id="stop6633" />
      <stop
         style="stop-color:#bf5e00;stop-opacity:0;"
         offset="1"
         id="stop6635" />
    </linearGradient>
    <linearGradient
       inkscape:collect="always"
       id="linearGradient6610">
      <stop
         style="stop-color:#ffbf80;stop-opacity:1;"
         offset="0"
         id="stop6612" />
      <stop
         style="stop-color:#ffbf80;stop-opacity:0;"
         offset="1"
         id="stop6614" />
    </linearGradient>
    <linearGradient
       id="linearGradient6446">
      <stop
         style="stop-color:#ffffff;stop-opacity:1;"
         offset="0"
         id="stop6448" />
      <stop
         style="stop-color:#ffffff;stop-opacity:0;"
         offset="1"
         id="stop6450" />
    </linearGradient>
    <linearGradient
       id="linearGradient6404">
      <stop
         style="stop-color:#e12700;stop-opacity:1;"
         offset="0"
         id="stop6406" />
      <stop
         style="stop-color:#ffc50a;stop-opacity:1;"
         offset="1"
         id="stop6408" />
    </linearGradient>
    <linearGradient
       id="linearGradient9643">
      <stop
         style="stop-color:#ff0000;stop-opacity:1;"
         offset="0"
         id="stop9645" />
      <stop
         style="stop-color:#620000;stop-opacity:1;"
         offset="1"
         id="stop9647" />
    </linearGradient>
    <radialGradient
       inkscape:collect="always"
       xlink:href="#linearGradient9643"
       id="radialGradient9651"
       cx="12.040753"
       cy="118.14538"
       fx="12.040753"
       fy="118.14538"
       r="42.559486"
       gradientUnits="userSpaceOnUse"
       spreadMethod="reflect"
       gradientTransform="matrix(1.7951011,0,0,1.7951011,-9.5736166,-93.937523)" />
    <radialGradient
       inkscape:collect="always"
       xlink:href="#linearGradient6666"
       id="radialGradient9692"
       gradientUnits="userSpaceOnUse"
       gradientTransform="matrix(1.8797219,-8.9040619e-2,5.6262484e-2,1.1877481,-150.09247,-27.435715)"
       spreadMethod="pad"
       cx="42.700352"
       cy="103.5803"
       fx="42.700352"
       fy="103.5803"
       r="42.559486" />
    <linearGradient
       inkscape:collect="always"
       xlink:href="#linearGradient6404"
       id="linearGradient6410"
       x1="39.741936"
       y1="113.54839"
       x2="11.458064"
       y2="13.006452"
       gradientUnits="userSpaceOnUse" />
    <linearGradient
       inkscape:collect="always"
       xlink:href="#linearGradient6446"
       id="linearGradient6452"
       x1="21.094994"
       y1="21.101994"
       x2="15.189133"
       y2="27.007854"
       gradientUnits="userSpaceOnUse"
       spreadMethod="reflect"
       gradientTransform="translate(-7.5870968,-7.3806452)" />
    <filter
       inkscape:collect="always"
       id="filter6458">
      <feGaussianBlur
         inkscape:collect="always"
         stdDeviation="0.28444187"
         id="feGaussianBlur6460" />
    </filter>
    <linearGradient
       inkscape:collect="always"
       xlink:href="#linearGradient6446"
       id="linearGradient6464"
       gradientUnits="userSpaceOnUse"
       gradientTransform="translate(0.4129032,0.6193548)"
       spreadMethod="reflect"
       x1="21.094994"
       y1="21.101994"
       x2="15.126888"
       y2="27.070099" />
    <linearGradient
       inkscape:collect="always"
       xlink:href="#linearGradient6446"
       id="linearGradient6470"
       gradientUnits="userSpaceOnUse"
       gradientTransform="translate(0.4129032,0.6193548)"
       spreadMethod="reflect"
       x1="21.094994"
       y1="21.101994"
       x2="13.96104"
       y2="28.235947" />
    <linearGradient
       inkscape:collect="always"
       xlink:href="#linearGradient6446"
       id="linearGradient6472"
       gradientUnits="userSpaceOnUse"
       gradientTransform="translate(0.4129032,0.6193548)"
       spreadMethod="reflect"
       x1="21.094994"
       y1="21.101994"
       x2="13.96104"
       y2="28.235947" />
    <linearGradient
       inkscape:collect="always"
       xlink:href="#linearGradient6631"
       id="linearGradient6637"
       x1="55.329033"
       y1="112"
       x2="55.329033"
       y2="74.913147"
       gradientUnits="userSpaceOnUse" />
    <linearGradient
       inkscape:collect="always"
       xlink:href="#linearGradient3237"
       id="linearGradient6649"
       x1="56"
       y1="0"
       x2="56"
       y2="32"
       gradientUnits="userSpaceOnUse" />
    <linearGradient
       inkscape:collect="always"
       xlink:href="#linearGradient6610"
       id="linearGradient6655"
       gradientUnits="userSpaceOnUse"
       x1="59.225807"
       y1="20.283871"
       x2="59.225807"
       y2="117.32368"
       gradientTransform="translate(0,1.6516129)" />
    <linearGradient
       inkscape:collect="always"
       xlink:href="#linearGradient6610"
       id="linearGradient6657"
       gradientUnits="userSpaceOnUse"
       x1="59.225807"
       y1="20.283871"
       x2="59.225807"
       y2="117.32368" />
    <linearGradient
       inkscape:collect="always"
       xlink:href="#linearGradient6674"
       id="linearGradient6680"
       x1="19.096775"
       y1="50.580647"
       x2="80.047699"
       y2="66.897575"
       gradientUnits="userSpaceOnUse" />
    <linearGradient
       inkscape:collect="always"
       xlink:href="#linearGradient6446"
       id="linearGradient2816"
       gradientUnits="userSpaceOnUse"
       x1="59.225807"
       y1="-31.712746"
       x2="59.225807"
       y2="98.167175" />
    <linearGradient
       inkscape:collect="always"
       xlink:href="#linearGradient6446"
       id="linearGradient3209"
       gradientUnits="userSpaceOnUse"
       gradientTransform="translate(0.2623629,1)"
       x1="59.225807"
       y1="7.8973217"
       x2="59.225807"
       y2="46.228859" />
    <linearGradient
       inkscape:collect="always"
       xlink:href="#linearGradient6446"
       id="linearGradient3225"
       gradientUnits="userSpaceOnUse"
       gradientTransform="translate(0.2332229,1.9150941)"
       x1="92.848534"
       y1="60.664852"
       x2="31.376678"
       y2="21.03125" />
    <linearGradient
       inkscape:collect="always"
       xlink:href="#linearGradient6446"
       id="linearGradient3231"
       gradientUnits="userSpaceOnUse"
       gradientTransform="translate(0.2623629,1)"
       x1="59.225807"
       y1="7.8973217"
       x2="59.225807"
       y2="46.228859" />
    <linearGradient
       inkscape:collect="always"
       xlink:href="#linearGradient6446"
       id="linearGradient3233"
       gradientUnits="userSpaceOnUse"
       gradientTransform="translate(0.2332229,1.9150941)"
       x1="115.76678"
       y1="71.084908"
       x2="31.376678"
       y2="21.03125" />
    <linearGradient
       inkscape:collect="always"
       xlink:href="#linearGradient3237"
       id="linearGradient3243"
       x1="-60.945251"
       y1="105.83054"
       x2="-59.415245"
       y2="45.631207"
       gradientUnits="userSpaceOnUse" />
    <filter
       inkscape:collect="always"
       id="filter3281">
      <feGaussianBlur
         inkscape:collect="always"
         stdDeviation="0.32872878"
         id="feGaussianBlur3283" />
    </filter>
    <linearGradient
       inkscape:collect="always"
       xlink:href="#linearGradient6674"
       id="linearGradient3289"
       gradientUnits="userSpaceOnUse"
       x1="60.402065"
       y1="64.076149"
       x2="60.402065"
       y2="-20.962214" />
    <filter
       inkscape:collect="always"
       id="filter3319">
      <feGaussianBlur
         inkscape:collect="always"
         stdDeviation="1.6179775"
         id="feGaussianBlur3321" />
    </filter>
    <radialGradient
       inkscape:collect="always"
       xlink:href="#linearGradient2990"
       id="radialGradient3000"
       gradientUnits="userSpaceOnUse"
       gradientTransform="matrix(0.712348,-0.1260581,0.1345724,0.7604617,-100.53448,20.174132)"
       spreadMethod="reflect"
       cx="64"
       cy="81.325775"
       fx="66.881805"
       fy="105.27442"
       r="43.474762" />
    <filter
       inkscape:collect="always"
       id="filter3035">
      <feGaussianBlur
         inkscape:collect="always"
         stdDeviation="0.60200945"
         id="feGaussianBlur3037" />
    </filter>
    <filter
       inkscape:collect="always"
       id="filter3104">
      <feGaussianBlur
         inkscape:collect="always"
         stdDeviation="0.4217763"
         id="feGaussianBlur3106" />
    </filter>
    <clipPath
       clipPathUnits="userSpaceOnUse"
       id="clipPath3108">
      <path
         style="fill:url(#radialGradient3112);fill-opacity:1;stroke:none;stroke-width:16.49500084;stroke-linecap:round;stroke-linejoin:round;stroke-miterlimit:4;stroke-dasharray:none;stroke-dashoffset:4.15;stroke-opacity:1"
         d="M -166.22608,25.639042 C -168.37082,25.690988 -170.41095,26.576535 -171.91358,28.107792 C -188.83826,45.032475 -188.83826,72.745609 -171.91358,89.670296 C -154.9889,106.59499 -127.27576,106.59498 -110.35108,89.670296 C -93.426397,72.745608 -93.426407,45.032476 -110.35108,28.107792 C -113.57849,24.889007 -118.78854,24.911628 -122.00733,28.139042 C -125.22611,31.366456 -125.23474,36.576507 -122.00733,39.795292 C -111.39346,50.409165 -111.39346,67.400168 -122.00733,78.014046 C -132.62121,88.627926 -149.64346,88.627916 -160.25733,78.014046 C -170.8712,67.400167 -170.8712,50.409167 -160.25733,39.795292 C -157.82392,37.426791 -157.09428,33.799307 -158.41358,30.670292 C -159.73287,27.541276 -162.83146,25.550254 -166.22608,25.639042 z M -141.25733,26.357792 C -145.38715,26.426713 -148.68411,29.821465 -148.63233,33.951542 L -148.63233,65.951542 C -148.67058,68.656311 -147.24981,71.181744 -144.91358,72.545292 C -142.57735,73.908838 -139.68731,73.90884 -137.35108,72.545292 C -135.01484,71.181742 -133.59407,68.656311 -133.63233,65.951542 L -133.63233,33.951542 C -133.60691,31.924427 -134.41464,29.975845 -135.85108,28.545292 C -137.28752,27.114738 -139.23033,26.324051 -141.25733,26.357792 z"
         id="path3110" />
    </clipPath>
    <radialGradient
       inkscape:collect="always"
       xlink:href="#linearGradient2990"
       id="radialGradient3112"
       gradientUnits="userSpaceOnUse"
       gradientTransform="matrix(0.712348,-0.1260581,0.1345724,0.7604617,-197.66681,20.174132)"
       spreadMethod="reflect"
       cx="64"
       cy="81.325775"
       fx="66.881805"
       fy="105.27442"
       r="43.474762" />
    <clipPath
       clipPathUnits="userSpaceOnUse"
       id="clipPath3114">
      <path
         id="path3116"
         d="M -69.09375,25.639042 C -71.238499,25.690988 -73.27862,26.576535 -74.78125,28.107792 C -91.705938,45.032475 -91.705939,72.745609 -74.78125,89.670296 C -57.856572,106.59499 -30.143439,106.59498 -13.21875,89.670296 C 3.70593,72.745608 3.70592,45.032476 -13.21875,28.107792 C -16.446164,24.889007 -21.656215,24.911628 -24.875,28.139042 C -28.093785,31.366456 -28.102414,36.576507 -24.875,39.795292 C -14.261134,50.409165 -14.261131,67.400168 -24.875,78.014046 C -35.488884,88.627926 -52.51113,88.627916 -63.125,78.014046 C -73.738879,67.400167 -73.738878,50.409167 -63.125,39.795292 C -60.691591,37.426791 -59.961952,33.799307 -61.28125,30.670292 C -62.600548,27.541276 -65.699137,25.550254 -69.09375,25.639042 z M -44.125,26.357792 C -48.254827,26.426713 -51.551787,29.821465 -51.5,33.951542 L -51.5,65.951542 C -51.538252,68.656311 -50.117481,71.181744 -47.78125,72.545292 C -45.44502,73.908838 -42.554982,73.90884 -40.21875,72.545292 C -37.882517,71.181742 -36.461748,68.656311 -36.5,65.951542 L -36.5,33.951542 C -36.474583,31.924427 -37.28231,29.975845 -38.71875,28.545292 C -40.155192,27.114738 -42.098006,26.324051 -44.125,26.357792 z"
         style="fill:url(#radialGradient3118);fill-opacity:1;stroke:none;stroke-width:16.49500084;stroke-linecap:round;stroke-linejoin:round;stroke-miterlimit:4;stroke-dasharray:none;stroke-dashoffset:4.15;stroke-opacity:1" />
    </clipPath>
    <radialGradient
       inkscape:collect="always"
       xlink:href="#linearGradient2990"
       id="radialGradient3118"
       gradientUnits="userSpaceOnUse"
       gradientTransform="matrix(0.712348,-0.1260581,0.1345724,0.7604617,-100.53448,20.174132)"
       spreadMethod="reflect"
       cx="64"
       cy="81.325775"
       fx="66.881805"
       fy="105.27442"
       r="43.474762" />
    <radialGradient
       inkscape:collect="always"
       xlink:href="#linearGradient2990"
       id="radialGradient2407"
       gradientUnits="userSpaceOnUse"
       gradientTransform="matrix(0.6799405,0.2470045,-0.2636877,0.7258654,34.441172,2.9041542)"
       spreadMethod="reflect"
       cx="64"
       cy="81.325775"
       fx="66.881805"
       fy="105.27442"
       r="43.474762" />
    <filter
       inkscape:collect="always"
       id="filter3063">
      <feGaussianBlur
         inkscape:collect="always"
         stdDeviation="0.60607667"
         id="feGaussianBlur3065" />
    </filter>
    <filter
       inkscape:collect="always"
       id="filter3067">
      <feGaussianBlur
         inkscape:collect="always"
         stdDeviation="0.42279072"
         id="feGaussianBlur3069" />
    </filter>
    <clipPath
       clipPathUnits="userSpaceOnUse"
       id="clipPath3079">
      <g
         id="g3081"
         transform="translate(-189.50993,0)">
        <path
           id="path3083"
           d="M 28.020992,20.250704 C 25.316222,20.212454 22.790792,21.633224 21.427242,23.969454 C 20.063702,26.305684 20.063692,29.195724 21.427242,31.531954 C 22.790792,33.868184 25.316222,35.288954 28.020992,35.250704 L 32.052242,35.250704 C 22.320132,45.877385 18.005862,61.101409 21.989742,75.969454 C 28.184592,99.08901 52.182682,112.94556 75.302242,106.7507 C 98.421792,100.55583 112.27834,76.557745 106.08349,53.438204 C 104.89787,49.036948 100.391,46.440071 95.989742,47.625704 C 91.588482,48.811332 88.960362,53.318199 90.145992,57.719454 C 94.030932,72.218273 85.551062,86.928251 71.052242,90.813204 C 56.553412,94.69815 41.812192,86.18702 37.927242,71.688204 C 34.811192,60.058933 39.654332,48.301804 49.177242,42.094454 L 49.177242,54.063204 C 49.138992,56.767973 50.559762,59.293406 52.895992,60.656954 C 55.232222,62.0205 58.122262,62.020502 60.458492,60.656954 C 62.794722,59.293404 64.215492,56.767973 64.177242,54.063204 L 64.177242,28.063204 C 64.202662,26.036089 63.394932,24.087507 61.958492,22.656954 C 61.157702,21.859446 60.188382,21.274762 59.145992,20.906954 C 58.187832,20.480857 57.137962,20.236697 56.020992,20.250704 L 28.020992,20.250704 z"
           style="fill:url(#radialGradient3085);fill-opacity:1;stroke:none;stroke-width:16.49500084;stroke-linecap:round;stroke-linejoin:round;stroke-miterlimit:4;stroke-dasharray:none;stroke-dashoffset:4.15;stroke-opacity:1" />
      </g>
    </clipPath>
    <radialGradient
       inkscape:collect="always"
       xlink:href="#linearGradient2990"
       id="radialGradient3085"
       gradientUnits="userSpaceOnUse"
       gradientTransform="matrix(0.6799405,0.2470045,-0.2636877,0.7258654,34.441172,2.9041542)"
       spreadMethod="reflect"
       cx="64"
       cy="81.325775"
       fx="66.881805"
       fy="105.27442"
       r="43.474762" />
    <clipPath
       clipPathUnits="userSpaceOnUse"
       id="clipPath3095">
      <g
         id="g3097"
         transform="translate(-128.13808,0)">
        <path
           id="path3099"
           d="M 28.020992,20.250704 C 25.316222,20.212454 22.790792,21.633224 21.427242,23.969454 C 20.063702,26.305684 20.063692,29.195724 21.427242,31.531954 C 22.790792,33.868184 25.316222,35.288954 28.020992,35.250704 L 32.052242,35.250704 C 22.320132,45.877385 18.005862,61.101409 21.989742,75.969454 C 28.184592,99.08901 52.182682,112.94556 75.302242,106.7507 C 98.421792,100.55583 112.27834,76.557745 106.08349,53.438204 C 104.89787,49.036948 100.391,46.440071 95.989742,47.625704 C 91.588482,48.811332 88.960362,53.318199 90.145992,57.719454 C 94.030932,72.218273 85.551062,86.928251 71.052242,90.813204 C 56.553412,94.69815 41.812192,86.18702 37.927242,71.688204 C 34.811192,60.058933 39.654332,48.301804 49.177242,42.094454 L 49.177242,54.063204 C 49.138992,56.767973 50.559762,59.293406 52.895992,60.656954 C 55.232222,62.0205 58.122262,62.020502 60.458492,60.656954 C 62.794722,59.293404 64.215492,56.767973 64.177242,54.063204 L 64.177242,28.063204 C 64.202662,26.036089 63.394932,24.087507 61.958492,22.656954 C 61.157702,21.859446 60.188382,21.274762 59.145992,20.906954 C 58.187832,20.480857 57.137962,20.236697 56.020992,20.250704 L 28.020992,20.250704 z"
           style="fill:url(#radialGradient3101);fill-opacity:1;stroke:none;stroke-width:16.49500084;stroke-linecap:round;stroke-linejoin:round;stroke-miterlimit:4;stroke-dasharray:none;stroke-dashoffset:4.15;stroke-opacity:1" />
      </g>
    </clipPath>
    <radialGradient
       inkscape:collect="always"
       xlink:href="#linearGradient2990"
       id="radialGradient3101"
       gradientUnits="userSpaceOnUse"
       gradientTransform="matrix(0.6799405,0.2470045,-0.2636877,0.7258654,34.441172,2.9041542)"
       spreadMethod="reflect"
       cx="64"
       cy="81.325775"
       fx="66.881805"
       fy="105.27442"
       r="43.474762" />
  </defs>
  <sodipodi:namedview
     id="base"
     pagecolor="#ffffff"
     bordercolor="#666666"
     borderopacity="1.0"
     gridtolerance="10000"
     guidetolerance="10"
     objecttolerance="10"
     inkscape:pageopacity="0.0"
     inkscape:pageshadow="2"
     inkscape:zoom="2.0820312"
     inkscape:cx="81.58599"
     inkscape:cy="34.725088"
     inkscape:document-units="px"
     inkscape:current-layer="layer1"
     width="128px"
     height="128px"
     gridempspacing="2"
     gridspacingx="4px"
     gridspacingy="4px"
     showgrid="false"
     borderlayer="true"
     inkscape:showpageshadow="false"
     showborder="true"
     inkscape:window-width="986"
     inkscape:window-height="750"
     inkscape:window-x="766"
     inkscape:window-y="271">
    <inkscape:grid
       type="xygrid"
       id="grid3285"
       spacingx="4px"
       spacingy="4px"
       empspacing="2" />
  </sodipodi:namedview>
  <metadata
     id="metadata7">
    <rdf:RDF>
      <cc:Work
         rdf:about="">
        <dc:format>image/svg+xml</dc:format>
        <dc:type
           rdf:resource="http://purl.org/dc/dcmitype/StillImage" />
      </cc:Work>
    </rdf:RDF>
  </metadata>
  <g
     inkscape:label="Layer 1"
     inkscape:groupmode="layer"
     id="layer1">
    <path
       style="fill:url(#linearGradient3289);fill-opacity:1;stroke:none;stroke-width:3;stroke-linecap:round;stroke-linejoin:round;stroke-miterlimit:4;stroke-opacity:1;filter:url(#filter3319)"
       d="M 18.083601,8 L 109.9164,8 C 115.50271,8 120,12.497286 120,18.083601 L 120,109.9164 C 120,115.50271 115.50271,120 109.9164,120 L 18.083601,120 C 12.497286,120 8,115.50271 8,109.9164 L 8,18.083601 C 8,12.497286 12.497286,8 18.083601,8 z"
       id="rect3287"
       sodipodi:nodetypes="ccccccccc" />
    <path
       style="fill:url(#linearGradient6410);fill-opacity:1;stroke:none;stroke-width:3;stroke-linecap:round;stroke-linejoin:round;stroke-miterlimit:4;stroke-opacity:1"
       d="M 18.083601,8 L 109.9164,8 C 115.50271,8 120,12.497286 120,18.083601 L 120,109.9164 C 120,115.50271 115.50271,120 109.9164,120 L 18.083601,120 C 12.497286,120 8,115.50271 8,109.9164 L 8,18.083601 C 8,12.497286 12.497286,8 18.083601,8 z"
       id="rect8666"
       sodipodi:nodetypes="ccccccccc" />
    <path
       style="opacity:0.08290154;fill:url(#linearGradient6680);fill-opacity:1;stroke:none;stroke-width:3;stroke-linecap:round;stroke-linejoin:round;stroke-miterlimit:4;stroke-opacity:1"
       d="M 18.083601,8 L 109.9164,8 C 115.50271,8 120,12.497286 120,18.083601 L 120,109.9164 C 120,115.50271 115.50271,120 109.9164,120 L 18.083601,120 C 12.497286,120 8,115.50271 8,109.9164 L 8,18.083601 C 8,12.497286 12.497286,8 18.083601,8 z"
       id="rect6672"
       sodipodi:nodetypes="ccccccccc" />
    <path
       transform="scale(-1,1)"
       style="fill:url(#radialGradient9692);fill-opacity:1;stroke:none;stroke-width:3;stroke-linecap:round;stroke-linejoin:round;stroke-miterlimit:4;stroke-opacity:1"
       d="M -109.38386,12.614708 L -19.616139,12.614708 C -15.737346,12.614708 -12.614708,15.737346 -12.614708,19.616139 L -12.614708,108.38386 C -12.614708,112.26265 -15.737346,115.38529 -19.616139,115.38529 L -109.38386,115.38529 C -113.26265,115.38529 -116.38529,112.26265 -116.38529,108.38386 L -116.38529,19.616139 C -116.38529,15.737346 -113.26265,12.614708 -109.38386,12.614708 z"
       id="rect9641"
       sodipodi:nodetypes="ccccccccc" />
    <path
       style="opacity:0.8876405;fill:url(#linearGradient6452);fill-opacity:1;stroke:none;stroke-width:3;stroke-linecap:round;stroke-linejoin:round;stroke-miterlimit:4;stroke-dasharray:none;stroke-opacity:1;filter:url(#filter6458)"
       d="M 17.906944,8.299378 C 13.216769,8.299378 8.509435,11.867379 8.509435,17.698118 L 12.77674,17.639205 C 13.229113,15.50937 15.628704,13.368243 17.303345,13.03582 L 17.906944,8.299378 z"
       id="rect6433"
       sodipodi:nodetypes="ccccc" />
    <path
       sodipodi:nodetypes="ccccc"
       id="path6462"
       d="M 25.397509,16.46919 C 20.707334,16.46919 16.429601,20.123899 16.429601,25.954638 L 20.77674,25.639205 C 21.229113,23.50937 23.628704,21.368243 25.303345,21.03582 L 25.397509,16.46919 z"
       style="opacity:0.8689139;fill:url(#linearGradient6464);fill-opacity:1;stroke:none;stroke-width:3;stroke-linecap:round;stroke-linejoin:round;stroke-miterlimit:4;stroke-dasharray:none;stroke-opacity:1;filter:url(#filter6458)"
       transform="matrix(-1,0,0,1,135.86741,-8)" />
    <path
       style="opacity:0.08290155;fill:url(#linearGradient6637);fill-opacity:1.0;stroke:none;stroke-width:3;stroke-linecap:round;stroke-linejoin:round;stroke-miterlimit:4;stroke-dasharray:none;stroke-opacity:1"
       d="M 8,105.875 L 8,109.90625 C 8,115.49256 12.507435,120 18.09375,120 L 109.90625,120 C 115.49256,120 120,115.49257 120,109.90625 L 120,105.875 C 120,111.46131 115.49256,115.96875 109.90625,115.96875 L 18.09375,115.96875 C 12.507435,115.96875 8,111.46131 8,105.875 z"
       id="rect6626"
       sodipodi:nodetypes="ccccccccc" />
    <path
       sodipodi:nodetypes="ccccc"
       id="path6466"
       d="M 26.246568,16.978625 C 21.556393,16.978625 16.769225,20.633334 16.769225,26.464073 L 20.77674,25.639205 C 21.229113,23.50937 23.628704,21.368243 25.303345,21.03582 L 26.246568,16.978625 z"
       style="opacity:0.32642487;fill:url(#linearGradient6470);fill-opacity:1;stroke:none;stroke-width:3;stroke-linecap:round;stroke-linejoin:round;stroke-miterlimit:4;stroke-dasharray:none;stroke-opacity:1;filter:url(#filter6458)"
       transform="matrix(1,0,0,-1,-8,136.08786)" />
    <path
       transform="matrix(-1,0,0,-1,135.86741,136.08786)"
       style="opacity:0.17616583;fill:url(#linearGradient6472);fill-opacity:1;stroke:none;stroke-width:3;stroke-linecap:round;stroke-linejoin:round;stroke-miterlimit:4;stroke-dasharray:none;stroke-opacity:1;filter:url(#filter6458)"
       d="M 26.246568,16.978625 C 21.556393,16.978625 16.769225,20.633334 16.769225,26.464073 L 20.77674,25.639205 C 21.229113,23.50937 23.628704,21.368243 25.303345,21.03582 L 26.246568,16.978625 z"
       id="path6468"
       sodipodi:nodetypes="ccccc" />
    <path
       id="path6639"
       d="M 8,22.03871 L 8,18.00746 C 8,12.42115 12.507435,7.91371 18.09375,7.91371 L 109.90625,7.91371 C 115.49256,7.91371 120,12.42114 120,18.00746 L 120,22.03871 C 120,16.4524 115.49256,11.94496 109.90625,11.94496 L 18.09375,11.94496 C 12.507435,11.94496 8,16.4524 8,22.03871 z"
       style="opacity:0.38860103000000001;fill:url(#linearGradient6649);fill-opacity:1;stroke:none;stroke-width:3;stroke-linecap:round;stroke-linejoin:round;stroke-miterlimit:4;stroke-dasharray:none;stroke-opacity:1"
       sodipodi:nodetypes="ccccccccc" />
    <g
       id="g3227"
       transform="translate(0,-1)">
      <path
         id="path3207"
         d="M 19.441303,13.28125 C 15.451078,13.28125 12.253803,16.478525 12.253803,20.46875 L 12.253803,21.46875 C 12.253803,17.478525 15.451078,14.28125 19.441303,14.28125 L 109.0663,14.28125 C 113.05653,14.28125 116.2538,17.478525 116.2538,21.46875 L 116.2538,20.46875 C 116.2538,16.478525 113.05653,13.28125 109.0663,13.28125 L 19.441303,13.28125 z"
         style="opacity:1;fill:url(#linearGradient3231);fill-opacity:1;stroke:none;stroke-width:3;stroke-linecap:round;stroke-linejoin:round;stroke-miterlimit:4;stroke-dasharray:none;stroke-opacity:1"
         sodipodi:nodetypes="ccccccccc" />
      <path
         id="path3215"
         d="M 112.21077,14.946344 C 113.80613,16.261139 114.83577,18.233092 114.83577,20.477594 L 114.83577,54.977594 C 114.6424,55.305632 114.39903,55.644913 114.11702,55.977594 C 86.869243,66.464121 40.804813,69.465921 12.242023,62.602594 L 12.242023,63.165094 C 41.223093,70.471727 87.827513,67.54278 115.52327,56.883844 C 115.80529,56.551161 116.04865,56.211882 116.24202,55.883844 L 116.24202,21.383844 C 116.24202,18.530833 114.60098,16.10976 112.21077,14.946344 z"
         style="opacity:1;fill:url(#linearGradient3233);fill-opacity:1;stroke:none;stroke-width:3;stroke-linecap:round;stroke-linejoin:round;stroke-miterlimit:4;stroke-dasharray:none;stroke-opacity:1"
         sodipodi:nodetypes="cccccccccc" />
    </g>
    <path
       transform="scale(-1,1)"
       style="fill:none;fill-opacity:1;stroke:url(#linearGradient3243);stroke-width:1;stroke-linecap:round;stroke-linejoin:round;stroke-miterlimit:4;stroke-opacity:1;filter:url(#filter3281)"
       d="M -109.38386,13.614708 L -19.616139,13.614708 C -15.737346,13.614708 -12.614708,16.737346 -12.614708,20.616139 L -12.614708,108.38386 C -12.614708,112.26265 -15.737346,115.38529 -19.616139,115.38529 L -109.38386,115.38529 C -113.26265,115.38529 -116.38529,112.26265 -116.38529,108.38386 L -116.38529,20.616139 C -116.38529,16.737346 -113.26265,13.614708 -109.38386,13.614708 z"
       id="rect3235"
       sodipodi:nodetypes="ccccccccc" />
    <path
       style="opacity:1;fill:url(#linearGradient2816);fill-opacity:1;stroke:none;stroke-width:3;stroke-linecap:round;stroke-linejoin:round;stroke-miterlimit:4;stroke-dasharray:none;stroke-opacity:1"
       d="M 19.1875,12.28125 C 15.197275,12.28125 12,15.478525 12,19.46875 L 12,61.25 C 40.981077,68.556633 87.585499,65.627686 115.28125,54.96875 C 115.56327,54.636067 115.80663,54.296788 116,53.96875 L 116,19.46875 C 116,15.478525 112.80273,12.28125 108.8125,12.28125 L 19.1875,12.28125 z"
       id="rect9679"
       sodipodi:nodetypes="cccccccc" />
    <g
       id="g3120"
       transform="translate(-0.1,0)">
      <path
         style="fill:url(#radialGradient2407);fill-opacity:1;stroke:none;stroke-width:16.49500084;stroke-linecap:round;stroke-linejoin:round;stroke-miterlimit:4;stroke-dasharray:none;stroke-dashoffset:4.15;stroke-opacity:1"
         d="M 28.020992,20.250704 C 25.316222,20.212454 22.790792,21.633224 21.427242,23.969454 C 20.063702,26.305684 20.063692,29.195724 21.427242,31.531954 C 22.790792,33.868184 25.316222,35.288954 28.020992,35.250704 L 32.052242,35.250704 C 22.320132,45.877385 18.005862,61.101409 21.989742,75.969454 C 28.184592,99.08901 52.182682,112.94556 75.302242,106.7507 C 98.421792,100.55583 112.27834,76.557745 106.08349,53.438204 C 104.89787,49.036948 100.391,46.440071 95.989742,47.625704 C 91.588482,48.811332 88.960362,53.318199 90.145992,57.719454 C 94.030932,72.218273 85.551062,86.928251 71.052242,90.813204 C 56.553412,94.69815 41.812192,86.18702 37.927242,71.688204 C 34.811192,60.058933 39.654332,48.301804 49.177242,42.094454 L 49.177242,54.063204 C 49.138992,56.767973 50.559762,59.293406 52.895992,60.656954 C 55.232222,62.0205 58.122262,62.020502 60.458492,60.656954 C 62.794722,59.293404 64.215492,56.767973 64.177242,54.063204 L 64.177242,28.063204 C 64.202662,26.036089 63.394932,24.087507 61.958492,22.656954 C 61.157702,21.859446 60.188382,21.274762 59.145992,20.906954 C 58.187832,20.480857 57.137962,20.236697 56.020992,20.250704 L 28.020992,20.250704 z"
         id="path2396" />
    </g>
    <path
       style="fill:#000000;fill-opacity:0.68934911;stroke:none;stroke-width:16.49500083999999944;stroke-linecap:round;stroke-linejoin:round;stroke-miterlimit:4;stroke-dasharray:none;stroke-dashoffset:4.15000000000000036;stroke-opacity:1;filter:url(#filter3063)"
       d="M -161.5,18.278531 C -164.20477,18.240281 -166.7302,19.661051 -168.09375,21.997281 C -169.03665,23.612801 -169.29864,25.499621 -168.9375,27.278531 C -168.77581,26.489861 -168.51191,25.713731 -168.09375,24.997281 C -166.7302,22.661051 -164.20477,21.240281 -161.5,21.278531 L -133.5,21.278531 C -132.38303,21.264531 -131.33316,21.508691 -130.375,21.934781 C -129.33261,22.302591 -128.36329,22.887281 -127.5625,23.684781 C -126.12606,25.115341 -125.31833,27.063921 -125.34375,29.091031 L -125.34375,26.091031 C -125.31833,24.063921 -126.12606,22.115341 -127.5625,20.684781 C -128.36329,19.887271 -129.33261,19.302591 -130.375,18.934781 C -131.33316,18.508691 -132.38303,18.264521 -133.5,18.278531 L -161.5,18.278531 z M -159.9375,36.278531 C -165.99781,44.200481 -169.30879,54.107421 -168.9375,64.372281 C -168.58052,53.869651 -164.43597,43.886181 -157.46875,36.278531 L -159.9375,36.278531 z M -91.0625,45.372281 C -91.872572,45.341671 -92.706014,45.431221 -93.53125,45.653531 C -97.730812,46.784831 -100.30186,50.951611 -99.5,55.153531 C -98.941262,52.121411 -96.711584,49.510261 -93.53125,48.653531 C -89.129992,47.467901 -84.623123,50.064781 -83.4375,54.466031 C -82.579012,57.669961 -82.117039,60.903081 -82,64.091031 C -81.860836,59.927861 -82.307254,55.684171 -83.4375,51.466031 C -84.400818,47.890021 -87.552186,45.504941 -91.0625,45.372281 z M -152.46875,64.059781 C -152.6334,66.894371 -152.37276,69.808711 -151.59375,72.716031 C -147.7088,87.214851 -132.96758,95.72598 -118.46875,91.841031 C -105.81388,88.450161 -97.733406,76.824481 -98.46875,64.278531 C -99.066404,75.640911 -106.82876,85.722101 -118.46875,88.841031 C -132.96758,92.725981 -147.7088,84.214851 -151.59375,69.716031 C -152.10179,67.819991 -152.36964,65.938011 -152.46875,64.059781 z"
       id="path3011"
       clip-path="url(#clipPath3079)"
       transform="translate(189.45798,0)"
       sodipodi:nodetypes="cscscccsccsccccccccscscccccsscssc" />
    <path
       style="fill:#ffffff;fill-opacity:1;stroke:none;stroke-width:16.49500084;stroke-linecap:round;stroke-linejoin:round;stroke-miterlimit:4;stroke-dasharray:none;stroke-dashoffset:4.15;stroke-opacity:1;filter:url(#filter3067)"
       d="M -107.5866,27.976649 C -107.95214,29.759709 -107.65699,31.638119 -106.7116,33.257899 C -105.34805,35.594129 -102.82262,37.014899 -100.11785,36.976649 L -98.55535,36.976649 C -97.76856,35.948169 -96.96346,34.934109 -96.0866,33.976649 L -100.11785,33.976649 C -102.82262,34.014899 -105.34805,32.594129 -106.7116,30.257899 C -107.13225,29.537189 -107.42549,28.770249 -107.5866,27.976649 z M -78.9616,40.820399 C -86.90579,45.998689 -91.59103,55.057599 -91.11785,64.664149 C -90.59622,56.197149 -86.07742,48.458729 -78.9616,43.820399 L -78.9616,40.820399 z M -78.9616,52.789149 L -78.9616,55.789149 C -78.99985,58.493919 -77.57908,61.019349 -75.24285,62.382899 C -72.90662,63.746449 -70.01658,63.746449 -67.68035,62.382899 C -65.34412,61.019349 -63.92335,58.493919 -63.9616,55.789149 L -63.9616,52.789149 C -63.92335,55.493919 -65.34412,58.019349 -67.68035,59.382899 C -70.01658,60.746449 -72.90662,60.746449 -75.24285,59.382899 C -77.57908,58.019349 -78.99985,55.493919 -78.9616,52.789149 z M -38.1491,55.820399 C -38.36982,56.993369 -38.3246,58.213899 -37.99285,59.445399 C -37.47611,61.373899 -37.18076,63.316649 -37.0866,65.226649 C -36.90872,62.356999 -37.20382,59.390089 -37.99285,56.445399 C -38.05009,56.232909 -38.10941,56.032999 -38.1491,55.820399 z M -107.5866,64.757899 C -107.76264,69.025369 -107.30916,73.365999 -106.1491,77.695399 C -99.95425,100.81496 -75.95616,114.67151 -52.8366,108.47665 C -33.03624,103.17116 -20.05278,84.819519 -20.61785,65.132899 C -21.38578,83.651579 -34.05197,100.44332 -52.8366,105.47665 C -75.95616,111.67151 -99.95425,97.81496 -106.1491,74.695399 C -107.03758,71.379549 -107.49163,68.054219 -107.5866,64.757899 z"
       id="path3015"
       clip-path="url(#clipPath3095)"
       transform="translate(128.09656,0)" />
  </g>
</svg>
